M48
INCH,TZ
T1C0.0157
T2C0.0177
T3C0.0315
T4C0.0394
T5C0.0550
T6C0.0866
%
G90
G05
T1
X42900Y-29500
X45709Y-33858
X47600Y-30000
X54488Y-33504
X55200Y-32100
T3
X52501Y-29857
X55501Y-29857
X62200Y-31200
X62200Y-34200
X60900Y-31200
X60900Y-34200
X48501Y-28500
X51501Y-28500
X45551Y-31142
X47520Y-31142
X56500Y-29857
X59500Y-29857
X48900Y-31200
X48900Y-34200
X42402Y-31181
X44370Y-31181
X50400Y-31200
X50400Y-34200
X51400Y-31200
X51400Y-34200
X52400Y-31200
X52400Y-34200
X53400Y-31200
X53400Y-34200
X54400Y-31200
X54400Y-34200
X55400Y-31200
X55400Y-34200
X56400Y-31200
X56400Y-34200
X57400Y-31200
X57400Y-34200
X58400Y-31200
X58400Y-34200
X59400Y-31200
X59400Y-34200
X52501Y-28500
X55501Y-28500
X48500Y-29857
X51500Y-29857
X56500Y-28500
X59500Y-28500
T4
X49083Y-38293
X50067Y-38293
X51051Y-38293
X43098Y-38293
X44083Y-38293
X45067Y-38293
X55067Y-38293
X56051Y-38293
X57035Y-38293
X67035Y-38293
X68020Y-38293
X69004Y-38293
X43613Y-28386
X44613Y-28386
X45613Y-28386
X46613Y-28386
X61051Y-38293
X62035Y-38293
X63020Y-38293
T5
X64725Y-29883
X64725Y-33817
X65709Y-31850
X65710Y-28898
X65710Y-34802
X69645Y-29881
X69645Y-33819
T6
X69909Y-41049
X48177Y-41049
X54161Y-41049
X57941Y-41049
X66130Y-41049
X60146Y-41049
X63925Y-41049
X51957Y-41049
X42193Y-41049
X45972Y-41049
T2
X41654Y-32451G85X41969Y-32451
G05
X41969Y-35266G85X41654Y-35266
G05
T0
M30
