G04 #@! TF.GenerationSoftware,KiCad,Pcbnew,(5.0.2)-1*
G04 #@! TF.CreationDate,2019-03-15T15:40:50+01:00*
G04 #@! TF.ProjectId,CCdrum,43436472-756d-42e6-9b69-6361645f7063,rev?*
G04 #@! TF.SameCoordinates,Original*
G04 #@! TF.FileFunction,Paste,Top*
G04 #@! TF.FilePolarity,Positive*
%FSLAX46Y46*%
G04 Gerber Fmt 4.6, Leading zero omitted, Abs format (unit mm)*
G04 Created by KiCad (PCBNEW (5.0.2)-1) date 15/03/2019 15:40:50*
%MOMM*%
%LPD*%
G01*
G04 APERTURE LIST*
%ADD10C,0.100000*%
%ADD11C,1.150000*%
%ADD12R,2.000000X3.800000*%
%ADD13R,2.000000X1.500000*%
%ADD14R,1.900000X1.750000*%
%ADD15R,1.400000X0.400000*%
%ADD16R,1.450000X1.150000*%
%ADD17R,1.560000X0.650000*%
G04 APERTURE END LIST*
D10*
G04 #@! TO.C,D1*
G36*
X113367005Y-92465204D02*
X113391273Y-92468804D01*
X113415072Y-92474765D01*
X113438171Y-92483030D01*
X113460350Y-92493520D01*
X113481393Y-92506132D01*
X113501099Y-92520747D01*
X113519277Y-92537223D01*
X113535753Y-92555401D01*
X113550368Y-92575107D01*
X113562980Y-92596150D01*
X113573470Y-92618329D01*
X113581735Y-92641428D01*
X113587696Y-92665227D01*
X113591296Y-92689495D01*
X113592500Y-92713999D01*
X113592500Y-93614001D01*
X113591296Y-93638505D01*
X113587696Y-93662773D01*
X113581735Y-93686572D01*
X113573470Y-93709671D01*
X113562980Y-93731850D01*
X113550368Y-93752893D01*
X113535753Y-93772599D01*
X113519277Y-93790777D01*
X113501099Y-93807253D01*
X113481393Y-93821868D01*
X113460350Y-93834480D01*
X113438171Y-93844970D01*
X113415072Y-93853235D01*
X113391273Y-93859196D01*
X113367005Y-93862796D01*
X113342501Y-93864000D01*
X112692499Y-93864000D01*
X112667995Y-93862796D01*
X112643727Y-93859196D01*
X112619928Y-93853235D01*
X112596829Y-93844970D01*
X112574650Y-93834480D01*
X112553607Y-93821868D01*
X112533901Y-93807253D01*
X112515723Y-93790777D01*
X112499247Y-93772599D01*
X112484632Y-93752893D01*
X112472020Y-93731850D01*
X112461530Y-93709671D01*
X112453265Y-93686572D01*
X112447304Y-93662773D01*
X112443704Y-93638505D01*
X112442500Y-93614001D01*
X112442500Y-92713999D01*
X112443704Y-92689495D01*
X112447304Y-92665227D01*
X112453265Y-92641428D01*
X112461530Y-92618329D01*
X112472020Y-92596150D01*
X112484632Y-92575107D01*
X112499247Y-92555401D01*
X112515723Y-92537223D01*
X112533901Y-92520747D01*
X112553607Y-92506132D01*
X112574650Y-92493520D01*
X112596829Y-92483030D01*
X112619928Y-92474765D01*
X112643727Y-92468804D01*
X112667995Y-92465204D01*
X112692499Y-92464000D01*
X113342501Y-92464000D01*
X113367005Y-92465204D01*
X113367005Y-92465204D01*
G37*
D11*
X113017500Y-93164000D03*
D10*
G36*
X111317005Y-92465204D02*
X111341273Y-92468804D01*
X111365072Y-92474765D01*
X111388171Y-92483030D01*
X111410350Y-92493520D01*
X111431393Y-92506132D01*
X111451099Y-92520747D01*
X111469277Y-92537223D01*
X111485753Y-92555401D01*
X111500368Y-92575107D01*
X111512980Y-92596150D01*
X111523470Y-92618329D01*
X111531735Y-92641428D01*
X111537696Y-92665227D01*
X111541296Y-92689495D01*
X111542500Y-92713999D01*
X111542500Y-93614001D01*
X111541296Y-93638505D01*
X111537696Y-93662773D01*
X111531735Y-93686572D01*
X111523470Y-93709671D01*
X111512980Y-93731850D01*
X111500368Y-93752893D01*
X111485753Y-93772599D01*
X111469277Y-93790777D01*
X111451099Y-93807253D01*
X111431393Y-93821868D01*
X111410350Y-93834480D01*
X111388171Y-93844970D01*
X111365072Y-93853235D01*
X111341273Y-93859196D01*
X111317005Y-93862796D01*
X111292501Y-93864000D01*
X110642499Y-93864000D01*
X110617995Y-93862796D01*
X110593727Y-93859196D01*
X110569928Y-93853235D01*
X110546829Y-93844970D01*
X110524650Y-93834480D01*
X110503607Y-93821868D01*
X110483901Y-93807253D01*
X110465723Y-93790777D01*
X110449247Y-93772599D01*
X110434632Y-93752893D01*
X110422020Y-93731850D01*
X110411530Y-93709671D01*
X110403265Y-93686572D01*
X110397304Y-93662773D01*
X110393704Y-93638505D01*
X110392500Y-93614001D01*
X110392500Y-92713999D01*
X110393704Y-92689495D01*
X110397304Y-92665227D01*
X110403265Y-92641428D01*
X110411530Y-92618329D01*
X110422020Y-92596150D01*
X110434632Y-92575107D01*
X110449247Y-92555401D01*
X110465723Y-92537223D01*
X110483901Y-92520747D01*
X110503607Y-92506132D01*
X110524650Y-92493520D01*
X110546829Y-92483030D01*
X110569928Y-92474765D01*
X110593727Y-92468804D01*
X110617995Y-92465204D01*
X110642499Y-92464000D01*
X111292501Y-92464000D01*
X111317005Y-92465204D01*
X111317005Y-92465204D01*
G37*
D11*
X110967500Y-93164000D03*
G04 #@! TD*
D10*
G04 #@! TO.C,D2*
G36*
X126517005Y-92465204D02*
X126541273Y-92468804D01*
X126565072Y-92474765D01*
X126588171Y-92483030D01*
X126610350Y-92493520D01*
X126631393Y-92506132D01*
X126651099Y-92520747D01*
X126669277Y-92537223D01*
X126685753Y-92555401D01*
X126700368Y-92575107D01*
X126712980Y-92596150D01*
X126723470Y-92618329D01*
X126731735Y-92641428D01*
X126737696Y-92665227D01*
X126741296Y-92689495D01*
X126742500Y-92713999D01*
X126742500Y-93614001D01*
X126741296Y-93638505D01*
X126737696Y-93662773D01*
X126731735Y-93686572D01*
X126723470Y-93709671D01*
X126712980Y-93731850D01*
X126700368Y-93752893D01*
X126685753Y-93772599D01*
X126669277Y-93790777D01*
X126651099Y-93807253D01*
X126631393Y-93821868D01*
X126610350Y-93834480D01*
X126588171Y-93844970D01*
X126565072Y-93853235D01*
X126541273Y-93859196D01*
X126517005Y-93862796D01*
X126492501Y-93864000D01*
X125842499Y-93864000D01*
X125817995Y-93862796D01*
X125793727Y-93859196D01*
X125769928Y-93853235D01*
X125746829Y-93844970D01*
X125724650Y-93834480D01*
X125703607Y-93821868D01*
X125683901Y-93807253D01*
X125665723Y-93790777D01*
X125649247Y-93772599D01*
X125634632Y-93752893D01*
X125622020Y-93731850D01*
X125611530Y-93709671D01*
X125603265Y-93686572D01*
X125597304Y-93662773D01*
X125593704Y-93638505D01*
X125592500Y-93614001D01*
X125592500Y-92713999D01*
X125593704Y-92689495D01*
X125597304Y-92665227D01*
X125603265Y-92641428D01*
X125611530Y-92618329D01*
X125622020Y-92596150D01*
X125634632Y-92575107D01*
X125649247Y-92555401D01*
X125665723Y-92537223D01*
X125683901Y-92520747D01*
X125703607Y-92506132D01*
X125724650Y-92493520D01*
X125746829Y-92483030D01*
X125769928Y-92474765D01*
X125793727Y-92468804D01*
X125817995Y-92465204D01*
X125842499Y-92464000D01*
X126492501Y-92464000D01*
X126517005Y-92465204D01*
X126517005Y-92465204D01*
G37*
D11*
X126167500Y-93164000D03*
D10*
G36*
X128567005Y-92465204D02*
X128591273Y-92468804D01*
X128615072Y-92474765D01*
X128638171Y-92483030D01*
X128660350Y-92493520D01*
X128681393Y-92506132D01*
X128701099Y-92520747D01*
X128719277Y-92537223D01*
X128735753Y-92555401D01*
X128750368Y-92575107D01*
X128762980Y-92596150D01*
X128773470Y-92618329D01*
X128781735Y-92641428D01*
X128787696Y-92665227D01*
X128791296Y-92689495D01*
X128792500Y-92713999D01*
X128792500Y-93614001D01*
X128791296Y-93638505D01*
X128787696Y-93662773D01*
X128781735Y-93686572D01*
X128773470Y-93709671D01*
X128762980Y-93731850D01*
X128750368Y-93752893D01*
X128735753Y-93772599D01*
X128719277Y-93790777D01*
X128701099Y-93807253D01*
X128681393Y-93821868D01*
X128660350Y-93834480D01*
X128638171Y-93844970D01*
X128615072Y-93853235D01*
X128591273Y-93859196D01*
X128567005Y-93862796D01*
X128542501Y-93864000D01*
X127892499Y-93864000D01*
X127867995Y-93862796D01*
X127843727Y-93859196D01*
X127819928Y-93853235D01*
X127796829Y-93844970D01*
X127774650Y-93834480D01*
X127753607Y-93821868D01*
X127733901Y-93807253D01*
X127715723Y-93790777D01*
X127699247Y-93772599D01*
X127684632Y-93752893D01*
X127672020Y-93731850D01*
X127661530Y-93709671D01*
X127653265Y-93686572D01*
X127647304Y-93662773D01*
X127643704Y-93638505D01*
X127642500Y-93614001D01*
X127642500Y-92713999D01*
X127643704Y-92689495D01*
X127647304Y-92665227D01*
X127653265Y-92641428D01*
X127661530Y-92618329D01*
X127672020Y-92596150D01*
X127684632Y-92575107D01*
X127699247Y-92555401D01*
X127715723Y-92537223D01*
X127733901Y-92520747D01*
X127753607Y-92506132D01*
X127774650Y-92493520D01*
X127796829Y-92483030D01*
X127819928Y-92474765D01*
X127843727Y-92468804D01*
X127867995Y-92465204D01*
X127892499Y-92464000D01*
X128542501Y-92464000D01*
X128567005Y-92465204D01*
X128567005Y-92465204D01*
G37*
D11*
X128217500Y-93164000D03*
G04 #@! TD*
D10*
G04 #@! TO.C,D3*
G36*
X143767005Y-92465204D02*
X143791273Y-92468804D01*
X143815072Y-92474765D01*
X143838171Y-92483030D01*
X143860350Y-92493520D01*
X143881393Y-92506132D01*
X143901099Y-92520747D01*
X143919277Y-92537223D01*
X143935753Y-92555401D01*
X143950368Y-92575107D01*
X143962980Y-92596150D01*
X143973470Y-92618329D01*
X143981735Y-92641428D01*
X143987696Y-92665227D01*
X143991296Y-92689495D01*
X143992500Y-92713999D01*
X143992500Y-93614001D01*
X143991296Y-93638505D01*
X143987696Y-93662773D01*
X143981735Y-93686572D01*
X143973470Y-93709671D01*
X143962980Y-93731850D01*
X143950368Y-93752893D01*
X143935753Y-93772599D01*
X143919277Y-93790777D01*
X143901099Y-93807253D01*
X143881393Y-93821868D01*
X143860350Y-93834480D01*
X143838171Y-93844970D01*
X143815072Y-93853235D01*
X143791273Y-93859196D01*
X143767005Y-93862796D01*
X143742501Y-93864000D01*
X143092499Y-93864000D01*
X143067995Y-93862796D01*
X143043727Y-93859196D01*
X143019928Y-93853235D01*
X142996829Y-93844970D01*
X142974650Y-93834480D01*
X142953607Y-93821868D01*
X142933901Y-93807253D01*
X142915723Y-93790777D01*
X142899247Y-93772599D01*
X142884632Y-93752893D01*
X142872020Y-93731850D01*
X142861530Y-93709671D01*
X142853265Y-93686572D01*
X142847304Y-93662773D01*
X142843704Y-93638505D01*
X142842500Y-93614001D01*
X142842500Y-92713999D01*
X142843704Y-92689495D01*
X142847304Y-92665227D01*
X142853265Y-92641428D01*
X142861530Y-92618329D01*
X142872020Y-92596150D01*
X142884632Y-92575107D01*
X142899247Y-92555401D01*
X142915723Y-92537223D01*
X142933901Y-92520747D01*
X142953607Y-92506132D01*
X142974650Y-92493520D01*
X142996829Y-92483030D01*
X143019928Y-92474765D01*
X143043727Y-92468804D01*
X143067995Y-92465204D01*
X143092499Y-92464000D01*
X143742501Y-92464000D01*
X143767005Y-92465204D01*
X143767005Y-92465204D01*
G37*
D11*
X143417500Y-93164000D03*
D10*
G36*
X141717005Y-92465204D02*
X141741273Y-92468804D01*
X141765072Y-92474765D01*
X141788171Y-92483030D01*
X141810350Y-92493520D01*
X141831393Y-92506132D01*
X141851099Y-92520747D01*
X141869277Y-92537223D01*
X141885753Y-92555401D01*
X141900368Y-92575107D01*
X141912980Y-92596150D01*
X141923470Y-92618329D01*
X141931735Y-92641428D01*
X141937696Y-92665227D01*
X141941296Y-92689495D01*
X141942500Y-92713999D01*
X141942500Y-93614001D01*
X141941296Y-93638505D01*
X141937696Y-93662773D01*
X141931735Y-93686572D01*
X141923470Y-93709671D01*
X141912980Y-93731850D01*
X141900368Y-93752893D01*
X141885753Y-93772599D01*
X141869277Y-93790777D01*
X141851099Y-93807253D01*
X141831393Y-93821868D01*
X141810350Y-93834480D01*
X141788171Y-93844970D01*
X141765072Y-93853235D01*
X141741273Y-93859196D01*
X141717005Y-93862796D01*
X141692501Y-93864000D01*
X141042499Y-93864000D01*
X141017995Y-93862796D01*
X140993727Y-93859196D01*
X140969928Y-93853235D01*
X140946829Y-93844970D01*
X140924650Y-93834480D01*
X140903607Y-93821868D01*
X140883901Y-93807253D01*
X140865723Y-93790777D01*
X140849247Y-93772599D01*
X140834632Y-93752893D01*
X140822020Y-93731850D01*
X140811530Y-93709671D01*
X140803265Y-93686572D01*
X140797304Y-93662773D01*
X140793704Y-93638505D01*
X140792500Y-93614001D01*
X140792500Y-92713999D01*
X140793704Y-92689495D01*
X140797304Y-92665227D01*
X140803265Y-92641428D01*
X140811530Y-92618329D01*
X140822020Y-92596150D01*
X140834632Y-92575107D01*
X140849247Y-92555401D01*
X140865723Y-92537223D01*
X140883901Y-92520747D01*
X140903607Y-92506132D01*
X140924650Y-92493520D01*
X140946829Y-92483030D01*
X140969928Y-92474765D01*
X140993727Y-92468804D01*
X141017995Y-92465204D01*
X141042499Y-92464000D01*
X141692501Y-92464000D01*
X141717005Y-92465204D01*
X141717005Y-92465204D01*
G37*
D11*
X141367500Y-93164000D03*
G04 #@! TD*
D10*
G04 #@! TO.C,D4*
G36*
X156917005Y-92465204D02*
X156941273Y-92468804D01*
X156965072Y-92474765D01*
X156988171Y-92483030D01*
X157010350Y-92493520D01*
X157031393Y-92506132D01*
X157051099Y-92520747D01*
X157069277Y-92537223D01*
X157085753Y-92555401D01*
X157100368Y-92575107D01*
X157112980Y-92596150D01*
X157123470Y-92618329D01*
X157131735Y-92641428D01*
X157137696Y-92665227D01*
X157141296Y-92689495D01*
X157142500Y-92713999D01*
X157142500Y-93614001D01*
X157141296Y-93638505D01*
X157137696Y-93662773D01*
X157131735Y-93686572D01*
X157123470Y-93709671D01*
X157112980Y-93731850D01*
X157100368Y-93752893D01*
X157085753Y-93772599D01*
X157069277Y-93790777D01*
X157051099Y-93807253D01*
X157031393Y-93821868D01*
X157010350Y-93834480D01*
X156988171Y-93844970D01*
X156965072Y-93853235D01*
X156941273Y-93859196D01*
X156917005Y-93862796D01*
X156892501Y-93864000D01*
X156242499Y-93864000D01*
X156217995Y-93862796D01*
X156193727Y-93859196D01*
X156169928Y-93853235D01*
X156146829Y-93844970D01*
X156124650Y-93834480D01*
X156103607Y-93821868D01*
X156083901Y-93807253D01*
X156065723Y-93790777D01*
X156049247Y-93772599D01*
X156034632Y-93752893D01*
X156022020Y-93731850D01*
X156011530Y-93709671D01*
X156003265Y-93686572D01*
X155997304Y-93662773D01*
X155993704Y-93638505D01*
X155992500Y-93614001D01*
X155992500Y-92713999D01*
X155993704Y-92689495D01*
X155997304Y-92665227D01*
X156003265Y-92641428D01*
X156011530Y-92618329D01*
X156022020Y-92596150D01*
X156034632Y-92575107D01*
X156049247Y-92555401D01*
X156065723Y-92537223D01*
X156083901Y-92520747D01*
X156103607Y-92506132D01*
X156124650Y-92493520D01*
X156146829Y-92483030D01*
X156169928Y-92474765D01*
X156193727Y-92468804D01*
X156217995Y-92465204D01*
X156242499Y-92464000D01*
X156892501Y-92464000D01*
X156917005Y-92465204D01*
X156917005Y-92465204D01*
G37*
D11*
X156567500Y-93164000D03*
D10*
G36*
X158967005Y-92465204D02*
X158991273Y-92468804D01*
X159015072Y-92474765D01*
X159038171Y-92483030D01*
X159060350Y-92493520D01*
X159081393Y-92506132D01*
X159101099Y-92520747D01*
X159119277Y-92537223D01*
X159135753Y-92555401D01*
X159150368Y-92575107D01*
X159162980Y-92596150D01*
X159173470Y-92618329D01*
X159181735Y-92641428D01*
X159187696Y-92665227D01*
X159191296Y-92689495D01*
X159192500Y-92713999D01*
X159192500Y-93614001D01*
X159191296Y-93638505D01*
X159187696Y-93662773D01*
X159181735Y-93686572D01*
X159173470Y-93709671D01*
X159162980Y-93731850D01*
X159150368Y-93752893D01*
X159135753Y-93772599D01*
X159119277Y-93790777D01*
X159101099Y-93807253D01*
X159081393Y-93821868D01*
X159060350Y-93834480D01*
X159038171Y-93844970D01*
X159015072Y-93853235D01*
X158991273Y-93859196D01*
X158967005Y-93862796D01*
X158942501Y-93864000D01*
X158292499Y-93864000D01*
X158267995Y-93862796D01*
X158243727Y-93859196D01*
X158219928Y-93853235D01*
X158196829Y-93844970D01*
X158174650Y-93834480D01*
X158153607Y-93821868D01*
X158133901Y-93807253D01*
X158115723Y-93790777D01*
X158099247Y-93772599D01*
X158084632Y-93752893D01*
X158072020Y-93731850D01*
X158061530Y-93709671D01*
X158053265Y-93686572D01*
X158047304Y-93662773D01*
X158043704Y-93638505D01*
X158042500Y-93614001D01*
X158042500Y-92713999D01*
X158043704Y-92689495D01*
X158047304Y-92665227D01*
X158053265Y-92641428D01*
X158061530Y-92618329D01*
X158072020Y-92596150D01*
X158084632Y-92575107D01*
X158099247Y-92555401D01*
X158115723Y-92537223D01*
X158133901Y-92520747D01*
X158153607Y-92506132D01*
X158174650Y-92493520D01*
X158196829Y-92483030D01*
X158219928Y-92474765D01*
X158243727Y-92468804D01*
X158267995Y-92465204D01*
X158292499Y-92464000D01*
X158942501Y-92464000D01*
X158967005Y-92465204D01*
X158967005Y-92465204D01*
G37*
D11*
X158617500Y-93164000D03*
G04 #@! TD*
D10*
G04 #@! TO.C,D5*
G36*
X174167005Y-92465204D02*
X174191273Y-92468804D01*
X174215072Y-92474765D01*
X174238171Y-92483030D01*
X174260350Y-92493520D01*
X174281393Y-92506132D01*
X174301099Y-92520747D01*
X174319277Y-92537223D01*
X174335753Y-92555401D01*
X174350368Y-92575107D01*
X174362980Y-92596150D01*
X174373470Y-92618329D01*
X174381735Y-92641428D01*
X174387696Y-92665227D01*
X174391296Y-92689495D01*
X174392500Y-92713999D01*
X174392500Y-93614001D01*
X174391296Y-93638505D01*
X174387696Y-93662773D01*
X174381735Y-93686572D01*
X174373470Y-93709671D01*
X174362980Y-93731850D01*
X174350368Y-93752893D01*
X174335753Y-93772599D01*
X174319277Y-93790777D01*
X174301099Y-93807253D01*
X174281393Y-93821868D01*
X174260350Y-93834480D01*
X174238171Y-93844970D01*
X174215072Y-93853235D01*
X174191273Y-93859196D01*
X174167005Y-93862796D01*
X174142501Y-93864000D01*
X173492499Y-93864000D01*
X173467995Y-93862796D01*
X173443727Y-93859196D01*
X173419928Y-93853235D01*
X173396829Y-93844970D01*
X173374650Y-93834480D01*
X173353607Y-93821868D01*
X173333901Y-93807253D01*
X173315723Y-93790777D01*
X173299247Y-93772599D01*
X173284632Y-93752893D01*
X173272020Y-93731850D01*
X173261530Y-93709671D01*
X173253265Y-93686572D01*
X173247304Y-93662773D01*
X173243704Y-93638505D01*
X173242500Y-93614001D01*
X173242500Y-92713999D01*
X173243704Y-92689495D01*
X173247304Y-92665227D01*
X173253265Y-92641428D01*
X173261530Y-92618329D01*
X173272020Y-92596150D01*
X173284632Y-92575107D01*
X173299247Y-92555401D01*
X173315723Y-92537223D01*
X173333901Y-92520747D01*
X173353607Y-92506132D01*
X173374650Y-92493520D01*
X173396829Y-92483030D01*
X173419928Y-92474765D01*
X173443727Y-92468804D01*
X173467995Y-92465204D01*
X173492499Y-92464000D01*
X174142501Y-92464000D01*
X174167005Y-92465204D01*
X174167005Y-92465204D01*
G37*
D11*
X173817500Y-93164000D03*
D10*
G36*
X172117005Y-92465204D02*
X172141273Y-92468804D01*
X172165072Y-92474765D01*
X172188171Y-92483030D01*
X172210350Y-92493520D01*
X172231393Y-92506132D01*
X172251099Y-92520747D01*
X172269277Y-92537223D01*
X172285753Y-92555401D01*
X172300368Y-92575107D01*
X172312980Y-92596150D01*
X172323470Y-92618329D01*
X172331735Y-92641428D01*
X172337696Y-92665227D01*
X172341296Y-92689495D01*
X172342500Y-92713999D01*
X172342500Y-93614001D01*
X172341296Y-93638505D01*
X172337696Y-93662773D01*
X172331735Y-93686572D01*
X172323470Y-93709671D01*
X172312980Y-93731850D01*
X172300368Y-93752893D01*
X172285753Y-93772599D01*
X172269277Y-93790777D01*
X172251099Y-93807253D01*
X172231393Y-93821868D01*
X172210350Y-93834480D01*
X172188171Y-93844970D01*
X172165072Y-93853235D01*
X172141273Y-93859196D01*
X172117005Y-93862796D01*
X172092501Y-93864000D01*
X171442499Y-93864000D01*
X171417995Y-93862796D01*
X171393727Y-93859196D01*
X171369928Y-93853235D01*
X171346829Y-93844970D01*
X171324650Y-93834480D01*
X171303607Y-93821868D01*
X171283901Y-93807253D01*
X171265723Y-93790777D01*
X171249247Y-93772599D01*
X171234632Y-93752893D01*
X171222020Y-93731850D01*
X171211530Y-93709671D01*
X171203265Y-93686572D01*
X171197304Y-93662773D01*
X171193704Y-93638505D01*
X171192500Y-93614001D01*
X171192500Y-92713999D01*
X171193704Y-92689495D01*
X171197304Y-92665227D01*
X171203265Y-92641428D01*
X171211530Y-92618329D01*
X171222020Y-92596150D01*
X171234632Y-92575107D01*
X171249247Y-92555401D01*
X171265723Y-92537223D01*
X171283901Y-92520747D01*
X171303607Y-92506132D01*
X171324650Y-92493520D01*
X171346829Y-92483030D01*
X171369928Y-92474765D01*
X171393727Y-92468804D01*
X171417995Y-92465204D01*
X171442499Y-92464000D01*
X172092501Y-92464000D01*
X172117005Y-92465204D01*
X172117005Y-92465204D01*
G37*
D11*
X171767500Y-93164000D03*
G04 #@! TD*
D10*
G04 #@! TO.C,D7*
G36*
X107662505Y-74873204D02*
X107686773Y-74876804D01*
X107710572Y-74882765D01*
X107733671Y-74891030D01*
X107755850Y-74901520D01*
X107776893Y-74914132D01*
X107796599Y-74928747D01*
X107814777Y-74945223D01*
X107831253Y-74963401D01*
X107845868Y-74983107D01*
X107858480Y-75004150D01*
X107868970Y-75026329D01*
X107877235Y-75049428D01*
X107883196Y-75073227D01*
X107886796Y-75097495D01*
X107888000Y-75121999D01*
X107888000Y-75772001D01*
X107886796Y-75796505D01*
X107883196Y-75820773D01*
X107877235Y-75844572D01*
X107868970Y-75867671D01*
X107858480Y-75889850D01*
X107845868Y-75910893D01*
X107831253Y-75930599D01*
X107814777Y-75948777D01*
X107796599Y-75965253D01*
X107776893Y-75979868D01*
X107755850Y-75992480D01*
X107733671Y-76002970D01*
X107710572Y-76011235D01*
X107686773Y-76017196D01*
X107662505Y-76020796D01*
X107638001Y-76022000D01*
X106737999Y-76022000D01*
X106713495Y-76020796D01*
X106689227Y-76017196D01*
X106665428Y-76011235D01*
X106642329Y-76002970D01*
X106620150Y-75992480D01*
X106599107Y-75979868D01*
X106579401Y-75965253D01*
X106561223Y-75948777D01*
X106544747Y-75930599D01*
X106530132Y-75910893D01*
X106517520Y-75889850D01*
X106507030Y-75867671D01*
X106498765Y-75844572D01*
X106492804Y-75820773D01*
X106489204Y-75796505D01*
X106488000Y-75772001D01*
X106488000Y-75121999D01*
X106489204Y-75097495D01*
X106492804Y-75073227D01*
X106498765Y-75049428D01*
X106507030Y-75026329D01*
X106517520Y-75004150D01*
X106530132Y-74983107D01*
X106544747Y-74963401D01*
X106561223Y-74945223D01*
X106579401Y-74928747D01*
X106599107Y-74914132D01*
X106620150Y-74901520D01*
X106642329Y-74891030D01*
X106665428Y-74882765D01*
X106689227Y-74876804D01*
X106713495Y-74873204D01*
X106737999Y-74872000D01*
X107638001Y-74872000D01*
X107662505Y-74873204D01*
X107662505Y-74873204D01*
G37*
D11*
X107188000Y-75447000D03*
D10*
G36*
X107662505Y-72823204D02*
X107686773Y-72826804D01*
X107710572Y-72832765D01*
X107733671Y-72841030D01*
X107755850Y-72851520D01*
X107776893Y-72864132D01*
X107796599Y-72878747D01*
X107814777Y-72895223D01*
X107831253Y-72913401D01*
X107845868Y-72933107D01*
X107858480Y-72954150D01*
X107868970Y-72976329D01*
X107877235Y-72999428D01*
X107883196Y-73023227D01*
X107886796Y-73047495D01*
X107888000Y-73071999D01*
X107888000Y-73722001D01*
X107886796Y-73746505D01*
X107883196Y-73770773D01*
X107877235Y-73794572D01*
X107868970Y-73817671D01*
X107858480Y-73839850D01*
X107845868Y-73860893D01*
X107831253Y-73880599D01*
X107814777Y-73898777D01*
X107796599Y-73915253D01*
X107776893Y-73929868D01*
X107755850Y-73942480D01*
X107733671Y-73952970D01*
X107710572Y-73961235D01*
X107686773Y-73967196D01*
X107662505Y-73970796D01*
X107638001Y-73972000D01*
X106737999Y-73972000D01*
X106713495Y-73970796D01*
X106689227Y-73967196D01*
X106665428Y-73961235D01*
X106642329Y-73952970D01*
X106620150Y-73942480D01*
X106599107Y-73929868D01*
X106579401Y-73915253D01*
X106561223Y-73898777D01*
X106544747Y-73880599D01*
X106530132Y-73860893D01*
X106517520Y-73839850D01*
X106507030Y-73817671D01*
X106498765Y-73794572D01*
X106492804Y-73770773D01*
X106489204Y-73746505D01*
X106488000Y-73722001D01*
X106488000Y-73071999D01*
X106489204Y-73047495D01*
X106492804Y-73023227D01*
X106498765Y-72999428D01*
X106507030Y-72976329D01*
X106517520Y-72954150D01*
X106530132Y-72933107D01*
X106544747Y-72913401D01*
X106561223Y-72895223D01*
X106579401Y-72878747D01*
X106599107Y-72864132D01*
X106620150Y-72851520D01*
X106642329Y-72841030D01*
X106665428Y-72832765D01*
X106689227Y-72826804D01*
X106713495Y-72823204D01*
X106737999Y-72822000D01*
X107638001Y-72822000D01*
X107662505Y-72823204D01*
X107662505Y-72823204D01*
G37*
D11*
X107188000Y-73397000D03*
G04 #@! TD*
D12*
G04 #@! TO.C,U2*
X119228000Y-85852000D03*
D13*
X112928000Y-85852000D03*
X112928000Y-88152000D03*
X112928000Y-83552000D03*
G04 #@! TD*
D14*
G04 #@! TO.C,J1*
X106200000Y-87125000D03*
D15*
X108850000Y-85350000D03*
X108850000Y-84700000D03*
X108850000Y-87300000D03*
X108850000Y-86650000D03*
X108850000Y-86000000D03*
D14*
X106200000Y-84875000D03*
D16*
X108430000Y-88320000D03*
X108430000Y-83680000D03*
G04 #@! TD*
D17*
G04 #@! TO.C,U3*
X155114000Y-72964000D03*
X155114000Y-73914000D03*
X155114000Y-74864000D03*
X157814000Y-74864000D03*
X157814000Y-72964000D03*
G04 #@! TD*
M02*
