G04 #@! TF.GenerationSoftware,KiCad,Pcbnew,(5.0.2)-1*
G04 #@! TF.CreationDate,2019-03-31T20:53:58+02:00*
G04 #@! TF.ProjectId,CCdrum,43436472-756d-42e6-9b69-6361645f7063,rev?*
G04 #@! TF.SameCoordinates,Original*
G04 #@! TF.FileFunction,Soldermask,Bot*
G04 #@! TF.FilePolarity,Negative*
%FSLAX46Y46*%
G04 Gerber Fmt 4.6, Leading zero omitted, Abs format (unit mm)*
G04 Created by KiCad (PCBNEW (5.0.2)-1) date 31/03/2019 20:53:58*
%MOMM*%
%LPD*%
G01*
G04 APERTURE LIST*
%ADD10C,0.100000*%
G04 APERTURE END LIST*
D10*
G36*
X119506565Y-156489389D02*
X119697834Y-156568615D01*
X119869976Y-156683637D01*
X120016363Y-156830024D01*
X120131385Y-157002166D01*
X120210611Y-157193435D01*
X120251000Y-157396484D01*
X120251000Y-157603516D01*
X120210611Y-157806565D01*
X120131385Y-157997834D01*
X120016363Y-158169976D01*
X119869976Y-158316363D01*
X119697834Y-158431385D01*
X119506565Y-158510611D01*
X119303516Y-158551000D01*
X119096484Y-158551000D01*
X118893435Y-158510611D01*
X118702166Y-158431385D01*
X118530024Y-158316363D01*
X118383637Y-158169976D01*
X118268615Y-157997834D01*
X118189389Y-157806565D01*
X118149000Y-157603516D01*
X118149000Y-157396484D01*
X118189389Y-157193435D01*
X118268615Y-157002166D01*
X118383637Y-156830024D01*
X118530024Y-156683637D01*
X118702166Y-156568615D01*
X118893435Y-156489389D01*
X119096484Y-156449000D01*
X119303516Y-156449000D01*
X119506565Y-156489389D01*
X119506565Y-156489389D01*
G37*
G36*
X115006565Y-156489389D02*
X115197834Y-156568615D01*
X115369976Y-156683637D01*
X115516363Y-156830024D01*
X115631385Y-157002166D01*
X115710611Y-157193435D01*
X115751000Y-157396484D01*
X115751000Y-157603516D01*
X115710611Y-157806565D01*
X115631385Y-157997834D01*
X115516363Y-158169976D01*
X115369976Y-158316363D01*
X115197834Y-158431385D01*
X115006565Y-158510611D01*
X114803516Y-158551000D01*
X114596484Y-158551000D01*
X114393435Y-158510611D01*
X114202166Y-158431385D01*
X114030024Y-158316363D01*
X113883637Y-158169976D01*
X113768615Y-157997834D01*
X113689389Y-157806565D01*
X113649000Y-157603516D01*
X113649000Y-157396484D01*
X113689389Y-157193435D01*
X113768615Y-157002166D01*
X113883637Y-156830024D01*
X114030024Y-156683637D01*
X114202166Y-156568615D01*
X114393435Y-156489389D01*
X114596484Y-156449000D01*
X114803516Y-156449000D01*
X115006565Y-156489389D01*
X115006565Y-156489389D01*
G37*
G36*
X127456565Y-156489389D02*
X127647834Y-156568615D01*
X127819976Y-156683637D01*
X127966363Y-156830024D01*
X128081385Y-157002166D01*
X128160611Y-157193435D01*
X128201000Y-157396484D01*
X128201000Y-157603516D01*
X128160611Y-157806565D01*
X128081385Y-157997834D01*
X127966363Y-158169976D01*
X127819976Y-158316363D01*
X127647834Y-158431385D01*
X127456565Y-158510611D01*
X127253516Y-158551000D01*
X127046484Y-158551000D01*
X126843435Y-158510611D01*
X126652166Y-158431385D01*
X126480024Y-158316363D01*
X126333637Y-158169976D01*
X126218615Y-157997834D01*
X126139389Y-157806565D01*
X126099000Y-157603516D01*
X126099000Y-157396484D01*
X126139389Y-157193435D01*
X126218615Y-157002166D01*
X126333637Y-156830024D01*
X126480024Y-156683637D01*
X126652166Y-156568615D01*
X126843435Y-156489389D01*
X127046484Y-156449000D01*
X127253516Y-156449000D01*
X127456565Y-156489389D01*
X127456565Y-156489389D01*
G37*
G36*
X122956565Y-156489389D02*
X123147834Y-156568615D01*
X123319976Y-156683637D01*
X123466363Y-156830024D01*
X123581385Y-157002166D01*
X123660611Y-157193435D01*
X123701000Y-157396484D01*
X123701000Y-157603516D01*
X123660611Y-157806565D01*
X123581385Y-157997834D01*
X123466363Y-158169976D01*
X123319976Y-158316363D01*
X123147834Y-158431385D01*
X122956565Y-158510611D01*
X122753516Y-158551000D01*
X122546484Y-158551000D01*
X122343435Y-158510611D01*
X122152166Y-158431385D01*
X121980024Y-158316363D01*
X121833637Y-158169976D01*
X121718615Y-157997834D01*
X121639389Y-157806565D01*
X121599000Y-157603516D01*
X121599000Y-157396484D01*
X121639389Y-157193435D01*
X121718615Y-157002166D01*
X121833637Y-156830024D01*
X121980024Y-156683637D01*
X122152166Y-156568615D01*
X122343435Y-156489389D01*
X122546484Y-156449000D01*
X122753516Y-156449000D01*
X122956565Y-156489389D01*
X122956565Y-156489389D01*
G37*
G36*
X84145331Y-152468211D02*
X84473092Y-152603974D01*
X84768073Y-152801074D01*
X85018926Y-153051927D01*
X85216026Y-153346908D01*
X85351789Y-153674669D01*
X85421000Y-154022616D01*
X85421000Y-154377384D01*
X85351789Y-154725331D01*
X85216026Y-155053092D01*
X85018926Y-155348073D01*
X84768073Y-155598926D01*
X84473092Y-155796026D01*
X84145331Y-155931789D01*
X83797384Y-156001000D01*
X83442616Y-156001000D01*
X83094669Y-155931789D01*
X82766908Y-155796026D01*
X82471927Y-155598926D01*
X82221074Y-155348073D01*
X82023974Y-155053092D01*
X81888211Y-154725331D01*
X81819000Y-154377384D01*
X81819000Y-154022616D01*
X81888211Y-153674669D01*
X82023974Y-153346908D01*
X82221074Y-153051927D01*
X82471927Y-152801074D01*
X82766908Y-152603974D01*
X83094669Y-152468211D01*
X83442616Y-152399000D01*
X83797384Y-152399000D01*
X84145331Y-152468211D01*
X84145331Y-152468211D01*
G37*
G36*
X97985331Y-152468211D02*
X98313092Y-152603974D01*
X98608073Y-152801074D01*
X98858926Y-153051927D01*
X99056026Y-153346908D01*
X99191789Y-153674669D01*
X99261000Y-154022616D01*
X99261000Y-154377384D01*
X99191789Y-154725331D01*
X99056026Y-155053092D01*
X98858926Y-155348073D01*
X98608073Y-155598926D01*
X98313092Y-155796026D01*
X97985331Y-155931789D01*
X97637384Y-156001000D01*
X97282616Y-156001000D01*
X96934669Y-155931789D01*
X96606908Y-155796026D01*
X96311927Y-155598926D01*
X96061074Y-155348073D01*
X95863974Y-155053092D01*
X95728211Y-154725331D01*
X95659000Y-154377384D01*
X95659000Y-154022616D01*
X95728211Y-153674669D01*
X95863974Y-153346908D01*
X96061074Y-153051927D01*
X96311927Y-152801074D01*
X96606908Y-152603974D01*
X96934669Y-152468211D01*
X97282616Y-152399000D01*
X97637384Y-152399000D01*
X97985331Y-152468211D01*
X97985331Y-152468211D01*
G37*
G36*
X74545331Y-152468211D02*
X74873092Y-152603974D01*
X75168073Y-152801074D01*
X75418926Y-153051927D01*
X75616026Y-153346908D01*
X75751789Y-153674669D01*
X75821000Y-154022616D01*
X75821000Y-154377384D01*
X75751789Y-154725331D01*
X75616026Y-155053092D01*
X75418926Y-155348073D01*
X75168073Y-155598926D01*
X74873092Y-155796026D01*
X74545331Y-155931789D01*
X74197384Y-156001000D01*
X73842616Y-156001000D01*
X73494669Y-155931789D01*
X73166908Y-155796026D01*
X72871927Y-155598926D01*
X72621074Y-155348073D01*
X72423974Y-155053092D01*
X72288211Y-154725331D01*
X72219000Y-154377384D01*
X72219000Y-154022616D01*
X72288211Y-153674669D01*
X72423974Y-153346908D01*
X72621074Y-153051927D01*
X72871927Y-152801074D01*
X73166908Y-152603974D01*
X73494669Y-152468211D01*
X73842616Y-152399000D01*
X74197384Y-152399000D01*
X74545331Y-152468211D01*
X74545331Y-152468211D01*
G37*
G36*
X60705331Y-152468211D02*
X61033092Y-152603974D01*
X61328073Y-152801074D01*
X61578926Y-153051927D01*
X61776026Y-153346908D01*
X61911789Y-153674669D01*
X61981000Y-154022616D01*
X61981000Y-154377384D01*
X61911789Y-154725331D01*
X61776026Y-155053092D01*
X61578926Y-155348073D01*
X61328073Y-155598926D01*
X61033092Y-155796026D01*
X60705331Y-155931789D01*
X60357384Y-156001000D01*
X60002616Y-156001000D01*
X59654669Y-155931789D01*
X59326908Y-155796026D01*
X59031927Y-155598926D01*
X58781074Y-155348073D01*
X58583974Y-155053092D01*
X58448211Y-154725331D01*
X58379000Y-154377384D01*
X58379000Y-154022616D01*
X58448211Y-153674669D01*
X58583974Y-153346908D01*
X58781074Y-153051927D01*
X59031927Y-152801074D01*
X59326908Y-152603974D01*
X59654669Y-152468211D01*
X60002616Y-152399000D01*
X60357384Y-152399000D01*
X60705331Y-152468211D01*
X60705331Y-152468211D01*
G37*
G36*
X70305331Y-152468211D02*
X70633092Y-152603974D01*
X70928073Y-152801074D01*
X71178926Y-153051927D01*
X71376026Y-153346908D01*
X71511789Y-153674669D01*
X71581000Y-154022616D01*
X71581000Y-154377384D01*
X71511789Y-154725331D01*
X71376026Y-155053092D01*
X71178926Y-155348073D01*
X70928073Y-155598926D01*
X70633092Y-155796026D01*
X70305331Y-155931789D01*
X69957384Y-156001000D01*
X69602616Y-156001000D01*
X69254669Y-155931789D01*
X68926908Y-155796026D01*
X68631927Y-155598926D01*
X68381074Y-155348073D01*
X68183974Y-155053092D01*
X68048211Y-154725331D01*
X67979000Y-154377384D01*
X67979000Y-154022616D01*
X68048211Y-153674669D01*
X68183974Y-153346908D01*
X68381074Y-153051927D01*
X68631927Y-152801074D01*
X68926908Y-152603974D01*
X69254669Y-152468211D01*
X69602616Y-152399000D01*
X69957384Y-152399000D01*
X70305331Y-152468211D01*
X70305331Y-152468211D01*
G37*
G36*
X56465331Y-152468211D02*
X56793092Y-152603974D01*
X57088073Y-152801074D01*
X57338926Y-153051927D01*
X57536026Y-153346908D01*
X57671789Y-153674669D01*
X57741000Y-154022616D01*
X57741000Y-154377384D01*
X57671789Y-154725331D01*
X57536026Y-155053092D01*
X57338926Y-155348073D01*
X57088073Y-155598926D01*
X56793092Y-155796026D01*
X56465331Y-155931789D01*
X56117384Y-156001000D01*
X55762616Y-156001000D01*
X55414669Y-155931789D01*
X55086908Y-155796026D01*
X54791927Y-155598926D01*
X54541074Y-155348073D01*
X54343974Y-155053092D01*
X54208211Y-154725331D01*
X54139000Y-154377384D01*
X54139000Y-154022616D01*
X54208211Y-153674669D01*
X54343974Y-153346908D01*
X54541074Y-153051927D01*
X54791927Y-152801074D01*
X55086908Y-152603974D01*
X55414669Y-152468211D01*
X55762616Y-152399000D01*
X56117384Y-152399000D01*
X56465331Y-152468211D01*
X56465331Y-152468211D01*
G37*
G36*
X33025331Y-152468211D02*
X33353092Y-152603974D01*
X33648073Y-152801074D01*
X33898926Y-153051927D01*
X34096026Y-153346908D01*
X34231789Y-153674669D01*
X34301000Y-154022616D01*
X34301000Y-154377384D01*
X34231789Y-154725331D01*
X34096026Y-155053092D01*
X33898926Y-155348073D01*
X33648073Y-155598926D01*
X33353092Y-155796026D01*
X33025331Y-155931789D01*
X32677384Y-156001000D01*
X32322616Y-156001000D01*
X31974669Y-155931789D01*
X31646908Y-155796026D01*
X31351927Y-155598926D01*
X31101074Y-155348073D01*
X30903974Y-155053092D01*
X30768211Y-154725331D01*
X30699000Y-154377384D01*
X30699000Y-154022616D01*
X30768211Y-153674669D01*
X30903974Y-153346908D01*
X31101074Y-153051927D01*
X31351927Y-152801074D01*
X31646908Y-152603974D01*
X31974669Y-152468211D01*
X32322616Y-152399000D01*
X32677384Y-152399000D01*
X33025331Y-152468211D01*
X33025331Y-152468211D01*
G37*
G36*
X42625331Y-152468211D02*
X42953092Y-152603974D01*
X43248073Y-152801074D01*
X43498926Y-153051927D01*
X43696026Y-153346908D01*
X43831789Y-153674669D01*
X43901000Y-154022616D01*
X43901000Y-154377384D01*
X43831789Y-154725331D01*
X43696026Y-155053092D01*
X43498926Y-155348073D01*
X43248073Y-155598926D01*
X42953092Y-155796026D01*
X42625331Y-155931789D01*
X42277384Y-156001000D01*
X41922616Y-156001000D01*
X41574669Y-155931789D01*
X41246908Y-155796026D01*
X40951927Y-155598926D01*
X40701074Y-155348073D01*
X40503974Y-155053092D01*
X40368211Y-154725331D01*
X40299000Y-154377384D01*
X40299000Y-154022616D01*
X40368211Y-153674669D01*
X40503974Y-153346908D01*
X40701074Y-153051927D01*
X40951927Y-152801074D01*
X41246908Y-152603974D01*
X41574669Y-152468211D01*
X41922616Y-152399000D01*
X42277384Y-152399000D01*
X42625331Y-152468211D01*
X42625331Y-152468211D01*
G37*
G36*
X111825331Y-152468211D02*
X112153092Y-152603974D01*
X112448073Y-152801074D01*
X112698926Y-153051927D01*
X112896026Y-153346908D01*
X113031789Y-153674669D01*
X113101000Y-154022616D01*
X113101000Y-154377384D01*
X113031789Y-154725331D01*
X112896026Y-155053092D01*
X112698926Y-155348073D01*
X112448073Y-155598926D01*
X112153092Y-155796026D01*
X111825331Y-155931789D01*
X111477384Y-156001000D01*
X111122616Y-156001000D01*
X110774669Y-155931789D01*
X110446908Y-155796026D01*
X110151927Y-155598926D01*
X109901074Y-155348073D01*
X109703974Y-155053092D01*
X109568211Y-154725331D01*
X109499000Y-154377384D01*
X109499000Y-154022616D01*
X109568211Y-153674669D01*
X109703974Y-153346908D01*
X109901074Y-153051927D01*
X110151927Y-152801074D01*
X110446908Y-152603974D01*
X110774669Y-152468211D01*
X111122616Y-152399000D01*
X111477384Y-152399000D01*
X111825331Y-152468211D01*
X111825331Y-152468211D01*
G37*
G36*
X102225331Y-152468211D02*
X102553092Y-152603974D01*
X102848073Y-152801074D01*
X103098926Y-153051927D01*
X103296026Y-153346908D01*
X103431789Y-153674669D01*
X103501000Y-154022616D01*
X103501000Y-154377384D01*
X103431789Y-154725331D01*
X103296026Y-155053092D01*
X103098926Y-155348073D01*
X102848073Y-155598926D01*
X102553092Y-155796026D01*
X102225331Y-155931789D01*
X101877384Y-156001000D01*
X101522616Y-156001000D01*
X101174669Y-155931789D01*
X100846908Y-155796026D01*
X100551927Y-155598926D01*
X100301074Y-155348073D01*
X100103974Y-155053092D01*
X99968211Y-154725331D01*
X99899000Y-154377384D01*
X99899000Y-154022616D01*
X99968211Y-153674669D01*
X100103974Y-153346908D01*
X100301074Y-153051927D01*
X100551927Y-152801074D01*
X100846908Y-152603974D01*
X101174669Y-152468211D01*
X101522616Y-152399000D01*
X101877384Y-152399000D01*
X102225331Y-152468211D01*
X102225331Y-152468211D01*
G37*
G36*
X88385331Y-152468211D02*
X88713092Y-152603974D01*
X89008073Y-152801074D01*
X89258926Y-153051927D01*
X89456026Y-153346908D01*
X89591789Y-153674669D01*
X89661000Y-154022616D01*
X89661000Y-154377384D01*
X89591789Y-154725331D01*
X89456026Y-155053092D01*
X89258926Y-155348073D01*
X89008073Y-155598926D01*
X88713092Y-155796026D01*
X88385331Y-155931789D01*
X88037384Y-156001000D01*
X87682616Y-156001000D01*
X87334669Y-155931789D01*
X87006908Y-155796026D01*
X86711927Y-155598926D01*
X86461074Y-155348073D01*
X86263974Y-155053092D01*
X86128211Y-154725331D01*
X86059000Y-154377384D01*
X86059000Y-154022616D01*
X86128211Y-153674669D01*
X86263974Y-153346908D01*
X86461074Y-153051927D01*
X86711927Y-152801074D01*
X87006908Y-152603974D01*
X87334669Y-152468211D01*
X87682616Y-152399000D01*
X88037384Y-152399000D01*
X88385331Y-152468211D01*
X88385331Y-152468211D01*
G37*
G36*
X46865331Y-152468211D02*
X47193092Y-152603974D01*
X47488073Y-152801074D01*
X47738926Y-153051927D01*
X47936026Y-153346908D01*
X48071789Y-153674669D01*
X48141000Y-154022616D01*
X48141000Y-154377384D01*
X48071789Y-154725331D01*
X47936026Y-155053092D01*
X47738926Y-155348073D01*
X47488073Y-155598926D01*
X47193092Y-155796026D01*
X46865331Y-155931789D01*
X46517384Y-156001000D01*
X46162616Y-156001000D01*
X45814669Y-155931789D01*
X45486908Y-155796026D01*
X45191927Y-155598926D01*
X44941074Y-155348073D01*
X44743974Y-155053092D01*
X44608211Y-154725331D01*
X44539000Y-154377384D01*
X44539000Y-154022616D01*
X44608211Y-153674669D01*
X44743974Y-153346908D01*
X44941074Y-153051927D01*
X45191927Y-152801074D01*
X45486908Y-152603974D01*
X45814669Y-152468211D01*
X46162616Y-152399000D01*
X46517384Y-152399000D01*
X46865331Y-152468211D01*
X46865331Y-152468211D01*
G37*
G36*
X127456565Y-149989389D02*
X127647834Y-150068615D01*
X127819976Y-150183637D01*
X127966363Y-150330024D01*
X128081385Y-150502166D01*
X128160611Y-150693435D01*
X128201000Y-150896484D01*
X128201000Y-151103516D01*
X128160611Y-151306565D01*
X128081385Y-151497834D01*
X127966363Y-151669976D01*
X127819976Y-151816363D01*
X127647834Y-151931385D01*
X127456565Y-152010611D01*
X127253516Y-152051000D01*
X127046484Y-152051000D01*
X126843435Y-152010611D01*
X126652166Y-151931385D01*
X126480024Y-151816363D01*
X126333637Y-151669976D01*
X126218615Y-151497834D01*
X126139389Y-151306565D01*
X126099000Y-151103516D01*
X126099000Y-150896484D01*
X126139389Y-150693435D01*
X126218615Y-150502166D01*
X126333637Y-150330024D01*
X126480024Y-150183637D01*
X126652166Y-150068615D01*
X126843435Y-149989389D01*
X127046484Y-149949000D01*
X127253516Y-149949000D01*
X127456565Y-149989389D01*
X127456565Y-149989389D01*
G37*
G36*
X122956565Y-149989389D02*
X123147834Y-150068615D01*
X123319976Y-150183637D01*
X123466363Y-150330024D01*
X123581385Y-150502166D01*
X123660611Y-150693435D01*
X123701000Y-150896484D01*
X123701000Y-151103516D01*
X123660611Y-151306565D01*
X123581385Y-151497834D01*
X123466363Y-151669976D01*
X123319976Y-151816363D01*
X123147834Y-151931385D01*
X122956565Y-152010611D01*
X122753516Y-152051000D01*
X122546484Y-152051000D01*
X122343435Y-152010611D01*
X122152166Y-151931385D01*
X121980024Y-151816363D01*
X121833637Y-151669976D01*
X121718615Y-151497834D01*
X121639389Y-151306565D01*
X121599000Y-151103516D01*
X121599000Y-150896484D01*
X121639389Y-150693435D01*
X121718615Y-150502166D01*
X121833637Y-150330024D01*
X121980024Y-150183637D01*
X122152166Y-150068615D01*
X122343435Y-149989389D01*
X122546484Y-149949000D01*
X122753516Y-149949000D01*
X122956565Y-149989389D01*
X122956565Y-149989389D01*
G37*
G36*
X119506565Y-149989389D02*
X119697834Y-150068615D01*
X119869976Y-150183637D01*
X120016363Y-150330024D01*
X120131385Y-150502166D01*
X120210611Y-150693435D01*
X120251000Y-150896484D01*
X120251000Y-151103516D01*
X120210611Y-151306565D01*
X120131385Y-151497834D01*
X120016363Y-151669976D01*
X119869976Y-151816363D01*
X119697834Y-151931385D01*
X119506565Y-152010611D01*
X119303516Y-152051000D01*
X119096484Y-152051000D01*
X118893435Y-152010611D01*
X118702166Y-151931385D01*
X118530024Y-151816363D01*
X118383637Y-151669976D01*
X118268615Y-151497834D01*
X118189389Y-151306565D01*
X118149000Y-151103516D01*
X118149000Y-150896484D01*
X118189389Y-150693435D01*
X118268615Y-150502166D01*
X118383637Y-150330024D01*
X118530024Y-150183637D01*
X118702166Y-150068615D01*
X118893435Y-149989389D01*
X119096484Y-149949000D01*
X119303516Y-149949000D01*
X119506565Y-149989389D01*
X119506565Y-149989389D01*
G37*
G36*
X115006565Y-149989389D02*
X115197834Y-150068615D01*
X115369976Y-150183637D01*
X115516363Y-150330024D01*
X115631385Y-150502166D01*
X115710611Y-150693435D01*
X115751000Y-150896484D01*
X115751000Y-151103516D01*
X115710611Y-151306565D01*
X115631385Y-151497834D01*
X115516363Y-151669976D01*
X115369976Y-151816363D01*
X115197834Y-151931385D01*
X115006565Y-152010611D01*
X114803516Y-152051000D01*
X114596484Y-152051000D01*
X114393435Y-152010611D01*
X114202166Y-151931385D01*
X114030024Y-151816363D01*
X113883637Y-151669976D01*
X113768615Y-151497834D01*
X113689389Y-151306565D01*
X113649000Y-151103516D01*
X113649000Y-150896484D01*
X113689389Y-150693435D01*
X113768615Y-150502166D01*
X113883637Y-150330024D01*
X114030024Y-150183637D01*
X114202166Y-150068615D01*
X114393435Y-149989389D01*
X114596484Y-149949000D01*
X114803516Y-149949000D01*
X115006565Y-149989389D01*
X115006565Y-149989389D01*
G37*
G36*
X109157025Y-146160590D02*
X109308012Y-146206392D01*
X109447165Y-146280770D01*
X109569133Y-146380867D01*
X109669230Y-146502835D01*
X109743608Y-146641988D01*
X109789410Y-146792975D01*
X109801000Y-146910654D01*
X109801000Y-147489346D01*
X109789410Y-147607025D01*
X109743608Y-147758012D01*
X109669230Y-147897165D01*
X109569136Y-148019130D01*
X109569134Y-148019131D01*
X109569133Y-148019133D01*
X109569129Y-148019136D01*
X109447161Y-148119232D01*
X109308011Y-148193608D01*
X109157024Y-148239410D01*
X109000000Y-148254875D01*
X108842975Y-148239410D01*
X108691988Y-148193608D01*
X108552835Y-148119230D01*
X108430870Y-148019136D01*
X108430869Y-148019134D01*
X108430867Y-148019133D01*
X108380819Y-147958149D01*
X108330768Y-147897161D01*
X108256392Y-147758011D01*
X108210590Y-147607024D01*
X108199000Y-147489345D01*
X108199000Y-146910654D01*
X108210590Y-146792975D01*
X108233491Y-146717483D01*
X108256392Y-146641988D01*
X108330771Y-146502835D01*
X108430868Y-146380867D01*
X108552836Y-146280770D01*
X108691989Y-146206392D01*
X108842976Y-146160590D01*
X109000000Y-146145125D01*
X109157025Y-146160590D01*
X109157025Y-146160590D01*
G37*
G36*
X76477025Y-146160590D02*
X76628012Y-146206392D01*
X76767165Y-146280770D01*
X76889133Y-146380867D01*
X76989230Y-146502835D01*
X77063608Y-146641988D01*
X77109410Y-146792975D01*
X77121000Y-146910654D01*
X77121000Y-147489346D01*
X77109410Y-147607025D01*
X77063608Y-147758012D01*
X76989230Y-147897165D01*
X76889136Y-148019130D01*
X76889134Y-148019131D01*
X76889133Y-148019133D01*
X76889129Y-148019136D01*
X76767161Y-148119232D01*
X76628011Y-148193608D01*
X76477024Y-148239410D01*
X76320000Y-148254875D01*
X76162975Y-148239410D01*
X76011988Y-148193608D01*
X75872835Y-148119230D01*
X75750870Y-148019136D01*
X75750869Y-148019134D01*
X75750867Y-148019133D01*
X75700819Y-147958149D01*
X75650768Y-147897161D01*
X75576392Y-147758011D01*
X75530590Y-147607024D01*
X75519000Y-147489345D01*
X75519000Y-146910654D01*
X75530590Y-146792975D01*
X75553491Y-146717483D01*
X75576392Y-146641988D01*
X75650771Y-146502835D01*
X75750868Y-146380867D01*
X75872836Y-146280770D01*
X76011989Y-146206392D01*
X76162976Y-146160590D01*
X76320000Y-146145125D01*
X76477025Y-146160590D01*
X76477025Y-146160590D01*
G37*
G36*
X78977025Y-146160590D02*
X79128012Y-146206392D01*
X79267165Y-146280770D01*
X79389133Y-146380867D01*
X79489230Y-146502835D01*
X79563608Y-146641988D01*
X79609410Y-146792975D01*
X79621000Y-146910654D01*
X79621000Y-147489346D01*
X79609410Y-147607025D01*
X79563608Y-147758012D01*
X79489230Y-147897165D01*
X79389136Y-148019130D01*
X79389134Y-148019131D01*
X79389133Y-148019133D01*
X79389129Y-148019136D01*
X79267161Y-148119232D01*
X79128011Y-148193608D01*
X78977024Y-148239410D01*
X78820000Y-148254875D01*
X78662975Y-148239410D01*
X78511988Y-148193608D01*
X78372835Y-148119230D01*
X78250870Y-148019136D01*
X78250869Y-148019134D01*
X78250867Y-148019133D01*
X78200819Y-147958149D01*
X78150768Y-147897161D01*
X78076392Y-147758011D01*
X78030590Y-147607024D01*
X78019000Y-147489345D01*
X78019000Y-146910654D01*
X78030590Y-146792975D01*
X78053491Y-146717483D01*
X78076392Y-146641988D01*
X78150771Y-146502835D01*
X78250868Y-146380867D01*
X78372836Y-146280770D01*
X78511989Y-146206392D01*
X78662976Y-146160590D01*
X78820000Y-146145125D01*
X78977025Y-146160590D01*
X78977025Y-146160590D01*
G37*
G36*
X62637025Y-146160590D02*
X62788012Y-146206392D01*
X62927165Y-146280770D01*
X63049133Y-146380867D01*
X63149230Y-146502835D01*
X63223608Y-146641988D01*
X63269410Y-146792975D01*
X63281000Y-146910654D01*
X63281000Y-147489346D01*
X63269410Y-147607025D01*
X63223608Y-147758012D01*
X63149230Y-147897165D01*
X63049136Y-148019130D01*
X63049134Y-148019131D01*
X63049133Y-148019133D01*
X63049129Y-148019136D01*
X62927161Y-148119232D01*
X62788011Y-148193608D01*
X62637024Y-148239410D01*
X62480000Y-148254875D01*
X62322975Y-148239410D01*
X62171988Y-148193608D01*
X62032835Y-148119230D01*
X61910870Y-148019136D01*
X61910869Y-148019134D01*
X61910867Y-148019133D01*
X61860819Y-147958149D01*
X61810768Y-147897161D01*
X61736392Y-147758011D01*
X61690590Y-147607024D01*
X61679000Y-147489345D01*
X61679000Y-146910654D01*
X61690590Y-146792975D01*
X61713491Y-146717483D01*
X61736392Y-146641988D01*
X61810771Y-146502835D01*
X61910868Y-146380867D01*
X62032836Y-146280770D01*
X62171989Y-146206392D01*
X62322976Y-146160590D01*
X62480000Y-146145125D01*
X62637025Y-146160590D01*
X62637025Y-146160590D01*
G37*
G36*
X65137025Y-146160590D02*
X65288012Y-146206392D01*
X65427165Y-146280770D01*
X65549133Y-146380867D01*
X65649230Y-146502835D01*
X65723608Y-146641988D01*
X65769410Y-146792975D01*
X65781000Y-146910654D01*
X65781000Y-147489346D01*
X65769410Y-147607025D01*
X65723608Y-147758012D01*
X65649230Y-147897165D01*
X65549136Y-148019130D01*
X65549134Y-148019131D01*
X65549133Y-148019133D01*
X65549129Y-148019136D01*
X65427161Y-148119232D01*
X65288011Y-148193608D01*
X65137024Y-148239410D01*
X64980000Y-148254875D01*
X64822975Y-148239410D01*
X64671988Y-148193608D01*
X64532835Y-148119230D01*
X64410870Y-148019136D01*
X64410869Y-148019134D01*
X64410867Y-148019133D01*
X64360819Y-147958149D01*
X64310768Y-147897161D01*
X64236392Y-147758011D01*
X64190590Y-147607024D01*
X64179000Y-147489345D01*
X64179000Y-146910654D01*
X64190590Y-146792975D01*
X64213491Y-146717483D01*
X64236392Y-146641988D01*
X64310771Y-146502835D01*
X64410868Y-146380867D01*
X64532836Y-146280770D01*
X64671989Y-146206392D01*
X64822976Y-146160590D01*
X64980000Y-146145125D01*
X65137025Y-146160590D01*
X65137025Y-146160590D01*
G37*
G36*
X67637025Y-146160590D02*
X67788012Y-146206392D01*
X67927165Y-146280770D01*
X68049133Y-146380867D01*
X68149230Y-146502835D01*
X68223608Y-146641988D01*
X68269410Y-146792975D01*
X68281000Y-146910654D01*
X68281000Y-147489346D01*
X68269410Y-147607025D01*
X68223608Y-147758012D01*
X68149230Y-147897165D01*
X68049136Y-148019130D01*
X68049134Y-148019131D01*
X68049133Y-148019133D01*
X68049129Y-148019136D01*
X67927161Y-148119232D01*
X67788011Y-148193608D01*
X67637024Y-148239410D01*
X67480000Y-148254875D01*
X67322975Y-148239410D01*
X67171988Y-148193608D01*
X67032835Y-148119230D01*
X66910870Y-148019136D01*
X66910869Y-148019134D01*
X66910867Y-148019133D01*
X66860819Y-147958149D01*
X66810768Y-147897161D01*
X66736392Y-147758011D01*
X66690590Y-147607024D01*
X66679000Y-147489345D01*
X66679000Y-146910654D01*
X66690590Y-146792975D01*
X66713491Y-146717483D01*
X66736392Y-146641988D01*
X66810771Y-146502835D01*
X66910868Y-146380867D01*
X67032836Y-146280770D01*
X67171989Y-146206392D01*
X67322976Y-146160590D01*
X67480000Y-146145125D01*
X67637025Y-146160590D01*
X67637025Y-146160590D01*
G37*
G36*
X53797025Y-146160590D02*
X53948012Y-146206392D01*
X54087165Y-146280770D01*
X54209133Y-146380867D01*
X54309230Y-146502835D01*
X54383608Y-146641988D01*
X54429410Y-146792975D01*
X54441000Y-146910654D01*
X54441000Y-147489346D01*
X54429410Y-147607025D01*
X54383608Y-147758012D01*
X54309230Y-147897165D01*
X54209136Y-148019130D01*
X54209134Y-148019131D01*
X54209133Y-148019133D01*
X54209129Y-148019136D01*
X54087161Y-148119232D01*
X53948011Y-148193608D01*
X53797024Y-148239410D01*
X53640000Y-148254875D01*
X53482975Y-148239410D01*
X53331988Y-148193608D01*
X53192835Y-148119230D01*
X53070870Y-148019136D01*
X53070869Y-148019134D01*
X53070867Y-148019133D01*
X53020819Y-147958149D01*
X52970768Y-147897161D01*
X52896392Y-147758011D01*
X52850590Y-147607024D01*
X52839000Y-147489345D01*
X52839000Y-146910654D01*
X52850590Y-146792975D01*
X52873491Y-146717483D01*
X52896392Y-146641988D01*
X52970771Y-146502835D01*
X53070868Y-146380867D01*
X53192836Y-146280770D01*
X53331989Y-146206392D01*
X53482976Y-146160590D01*
X53640000Y-146145125D01*
X53797025Y-146160590D01*
X53797025Y-146160590D01*
G37*
G36*
X51297025Y-146160590D02*
X51448012Y-146206392D01*
X51587165Y-146280770D01*
X51709133Y-146380867D01*
X51809230Y-146502835D01*
X51883608Y-146641988D01*
X51929410Y-146792975D01*
X51941000Y-146910654D01*
X51941000Y-147489346D01*
X51929410Y-147607025D01*
X51883608Y-147758012D01*
X51809230Y-147897165D01*
X51709136Y-148019130D01*
X51709134Y-148019131D01*
X51709133Y-148019133D01*
X51709129Y-148019136D01*
X51587161Y-148119232D01*
X51448011Y-148193608D01*
X51297024Y-148239410D01*
X51140000Y-148254875D01*
X50982975Y-148239410D01*
X50831988Y-148193608D01*
X50692835Y-148119230D01*
X50570870Y-148019136D01*
X50570869Y-148019134D01*
X50570867Y-148019133D01*
X50520819Y-147958149D01*
X50470768Y-147897161D01*
X50396392Y-147758011D01*
X50350590Y-147607024D01*
X50339000Y-147489345D01*
X50339000Y-146910654D01*
X50350590Y-146792975D01*
X50373491Y-146717483D01*
X50396392Y-146641988D01*
X50470771Y-146502835D01*
X50570868Y-146380867D01*
X50692836Y-146280770D01*
X50831989Y-146206392D01*
X50982976Y-146160590D01*
X51140000Y-146145125D01*
X51297025Y-146160590D01*
X51297025Y-146160590D01*
G37*
G36*
X48797025Y-146160590D02*
X48948012Y-146206392D01*
X49087165Y-146280770D01*
X49209133Y-146380867D01*
X49309230Y-146502835D01*
X49383608Y-146641988D01*
X49429410Y-146792975D01*
X49441000Y-146910654D01*
X49441000Y-147489346D01*
X49429410Y-147607025D01*
X49383608Y-147758012D01*
X49309230Y-147897165D01*
X49209136Y-148019130D01*
X49209134Y-148019131D01*
X49209133Y-148019133D01*
X49209129Y-148019136D01*
X49087161Y-148119232D01*
X48948011Y-148193608D01*
X48797024Y-148239410D01*
X48640000Y-148254875D01*
X48482975Y-148239410D01*
X48331988Y-148193608D01*
X48192835Y-148119230D01*
X48070870Y-148019136D01*
X48070869Y-148019134D01*
X48070867Y-148019133D01*
X48020819Y-147958149D01*
X47970768Y-147897161D01*
X47896392Y-147758011D01*
X47850590Y-147607024D01*
X47839000Y-147489345D01*
X47839000Y-146910654D01*
X47850590Y-146792975D01*
X47873491Y-146717483D01*
X47896392Y-146641988D01*
X47970771Y-146502835D01*
X48070868Y-146380867D01*
X48192836Y-146280770D01*
X48331989Y-146206392D01*
X48482976Y-146160590D01*
X48640000Y-146145125D01*
X48797025Y-146160590D01*
X48797025Y-146160590D01*
G37*
G36*
X95317025Y-146160590D02*
X95468012Y-146206392D01*
X95607165Y-146280770D01*
X95729133Y-146380867D01*
X95829230Y-146502835D01*
X95903608Y-146641988D01*
X95949410Y-146792975D01*
X95961000Y-146910654D01*
X95961000Y-147489346D01*
X95949410Y-147607025D01*
X95903608Y-147758012D01*
X95829230Y-147897165D01*
X95729136Y-148019130D01*
X95729134Y-148019131D01*
X95729133Y-148019133D01*
X95729129Y-148019136D01*
X95607161Y-148119232D01*
X95468011Y-148193608D01*
X95317024Y-148239410D01*
X95160000Y-148254875D01*
X95002975Y-148239410D01*
X94851988Y-148193608D01*
X94712835Y-148119230D01*
X94590870Y-148019136D01*
X94590869Y-148019134D01*
X94590867Y-148019133D01*
X94540819Y-147958149D01*
X94490768Y-147897161D01*
X94416392Y-147758011D01*
X94370590Y-147607024D01*
X94359000Y-147489345D01*
X94359000Y-146910654D01*
X94370590Y-146792975D01*
X94393491Y-146717483D01*
X94416392Y-146641988D01*
X94490771Y-146502835D01*
X94590868Y-146380867D01*
X94712836Y-146280770D01*
X94851989Y-146206392D01*
X95002976Y-146160590D01*
X95160000Y-146145125D01*
X95317025Y-146160590D01*
X95317025Y-146160590D01*
G37*
G36*
X37457025Y-146160590D02*
X37608012Y-146206392D01*
X37747165Y-146280770D01*
X37869133Y-146380867D01*
X37969230Y-146502835D01*
X38043608Y-146641988D01*
X38089410Y-146792975D01*
X38101000Y-146910654D01*
X38101000Y-147489346D01*
X38089410Y-147607025D01*
X38043608Y-147758012D01*
X37969230Y-147897165D01*
X37869136Y-148019130D01*
X37869134Y-148019131D01*
X37869133Y-148019133D01*
X37869129Y-148019136D01*
X37747161Y-148119232D01*
X37608011Y-148193608D01*
X37457024Y-148239410D01*
X37300000Y-148254875D01*
X37142975Y-148239410D01*
X36991988Y-148193608D01*
X36852835Y-148119230D01*
X36730870Y-148019136D01*
X36730869Y-148019134D01*
X36730867Y-148019133D01*
X36680819Y-147958149D01*
X36630768Y-147897161D01*
X36556392Y-147758011D01*
X36510590Y-147607024D01*
X36499000Y-147489345D01*
X36499000Y-146910654D01*
X36510590Y-146792975D01*
X36533491Y-146717483D01*
X36556392Y-146641988D01*
X36630771Y-146502835D01*
X36730868Y-146380867D01*
X36852836Y-146280770D01*
X36991989Y-146206392D01*
X37142976Y-146160590D01*
X37300000Y-146145125D01*
X37457025Y-146160590D01*
X37457025Y-146160590D01*
G37*
G36*
X104157025Y-146160590D02*
X104308012Y-146206392D01*
X104447165Y-146280770D01*
X104569133Y-146380867D01*
X104669230Y-146502835D01*
X104743608Y-146641988D01*
X104789410Y-146792975D01*
X104801000Y-146910654D01*
X104801000Y-147489346D01*
X104789410Y-147607025D01*
X104743608Y-147758012D01*
X104669230Y-147897165D01*
X104569136Y-148019130D01*
X104569134Y-148019131D01*
X104569133Y-148019133D01*
X104569129Y-148019136D01*
X104447161Y-148119232D01*
X104308011Y-148193608D01*
X104157024Y-148239410D01*
X104000000Y-148254875D01*
X103842975Y-148239410D01*
X103691988Y-148193608D01*
X103552835Y-148119230D01*
X103430870Y-148019136D01*
X103430869Y-148019134D01*
X103430867Y-148019133D01*
X103380819Y-147958149D01*
X103330768Y-147897161D01*
X103256392Y-147758011D01*
X103210590Y-147607024D01*
X103199000Y-147489345D01*
X103199000Y-146910654D01*
X103210590Y-146792975D01*
X103233491Y-146717483D01*
X103256392Y-146641988D01*
X103330771Y-146502835D01*
X103430868Y-146380867D01*
X103552836Y-146280770D01*
X103691989Y-146206392D01*
X103842976Y-146160590D01*
X104000000Y-146145125D01*
X104157025Y-146160590D01*
X104157025Y-146160590D01*
G37*
G36*
X106657025Y-146160590D02*
X106808012Y-146206392D01*
X106947165Y-146280770D01*
X107069133Y-146380867D01*
X107169230Y-146502835D01*
X107243608Y-146641988D01*
X107289410Y-146792975D01*
X107301000Y-146910654D01*
X107301000Y-147489346D01*
X107289410Y-147607025D01*
X107243608Y-147758012D01*
X107169230Y-147897165D01*
X107069136Y-148019130D01*
X107069134Y-148019131D01*
X107069133Y-148019133D01*
X107069129Y-148019136D01*
X106947161Y-148119232D01*
X106808011Y-148193608D01*
X106657024Y-148239410D01*
X106500000Y-148254875D01*
X106342975Y-148239410D01*
X106191988Y-148193608D01*
X106052835Y-148119230D01*
X105930870Y-148019136D01*
X105930869Y-148019134D01*
X105930867Y-148019133D01*
X105880819Y-147958149D01*
X105830768Y-147897161D01*
X105756392Y-147758011D01*
X105710590Y-147607024D01*
X105699000Y-147489345D01*
X105699000Y-146910654D01*
X105710590Y-146792975D01*
X105733491Y-146717483D01*
X105756392Y-146641988D01*
X105830771Y-146502835D01*
X105930868Y-146380867D01*
X106052836Y-146280770D01*
X106191989Y-146206392D01*
X106342976Y-146160590D01*
X106500000Y-146145125D01*
X106657025Y-146160590D01*
X106657025Y-146160590D01*
G37*
G36*
X39957025Y-146160590D02*
X40108012Y-146206392D01*
X40247165Y-146280770D01*
X40369133Y-146380867D01*
X40469230Y-146502835D01*
X40543608Y-146641988D01*
X40589410Y-146792975D01*
X40601000Y-146910654D01*
X40601000Y-147489346D01*
X40589410Y-147607025D01*
X40543608Y-147758012D01*
X40469230Y-147897165D01*
X40369136Y-148019130D01*
X40369134Y-148019131D01*
X40369133Y-148019133D01*
X40369129Y-148019136D01*
X40247161Y-148119232D01*
X40108011Y-148193608D01*
X39957024Y-148239410D01*
X39800000Y-148254875D01*
X39642975Y-148239410D01*
X39491988Y-148193608D01*
X39352835Y-148119230D01*
X39230870Y-148019136D01*
X39230869Y-148019134D01*
X39230867Y-148019133D01*
X39180819Y-147958149D01*
X39130768Y-147897161D01*
X39056392Y-147758011D01*
X39010590Y-147607024D01*
X38999000Y-147489345D01*
X38999000Y-146910654D01*
X39010590Y-146792975D01*
X39033491Y-146717483D01*
X39056392Y-146641988D01*
X39130771Y-146502835D01*
X39230868Y-146380867D01*
X39352836Y-146280770D01*
X39491989Y-146206392D01*
X39642976Y-146160590D01*
X39800000Y-146145125D01*
X39957025Y-146160590D01*
X39957025Y-146160590D01*
G37*
G36*
X34957025Y-146160590D02*
X35108012Y-146206392D01*
X35247165Y-146280770D01*
X35369133Y-146380867D01*
X35469230Y-146502835D01*
X35543608Y-146641988D01*
X35589410Y-146792975D01*
X35601000Y-146910654D01*
X35601000Y-147489346D01*
X35589410Y-147607025D01*
X35543608Y-147758012D01*
X35469230Y-147897165D01*
X35369136Y-148019130D01*
X35369134Y-148019131D01*
X35369133Y-148019133D01*
X35369129Y-148019136D01*
X35247161Y-148119232D01*
X35108011Y-148193608D01*
X34957024Y-148239410D01*
X34800000Y-148254875D01*
X34642975Y-148239410D01*
X34491988Y-148193608D01*
X34352835Y-148119230D01*
X34230870Y-148019136D01*
X34230869Y-148019134D01*
X34230867Y-148019133D01*
X34180819Y-147958149D01*
X34130768Y-147897161D01*
X34056392Y-147758011D01*
X34010590Y-147607024D01*
X33999000Y-147489345D01*
X33999000Y-146910654D01*
X34010590Y-146792975D01*
X34033491Y-146717483D01*
X34056392Y-146641988D01*
X34130771Y-146502835D01*
X34230868Y-146380867D01*
X34352836Y-146280770D01*
X34491989Y-146206392D01*
X34642976Y-146160590D01*
X34800000Y-146145125D01*
X34957025Y-146160590D01*
X34957025Y-146160590D01*
G37*
G36*
X90317025Y-146160590D02*
X90468012Y-146206392D01*
X90607165Y-146280770D01*
X90729133Y-146380867D01*
X90829230Y-146502835D01*
X90903608Y-146641988D01*
X90949410Y-146792975D01*
X90961000Y-146910654D01*
X90961000Y-147489346D01*
X90949410Y-147607025D01*
X90903608Y-147758012D01*
X90829230Y-147897165D01*
X90729136Y-148019130D01*
X90729134Y-148019131D01*
X90729133Y-148019133D01*
X90729129Y-148019136D01*
X90607161Y-148119232D01*
X90468011Y-148193608D01*
X90317024Y-148239410D01*
X90160000Y-148254875D01*
X90002975Y-148239410D01*
X89851988Y-148193608D01*
X89712835Y-148119230D01*
X89590870Y-148019136D01*
X89590869Y-148019134D01*
X89590867Y-148019133D01*
X89540819Y-147958149D01*
X89490768Y-147897161D01*
X89416392Y-147758011D01*
X89370590Y-147607024D01*
X89359000Y-147489345D01*
X89359000Y-146910654D01*
X89370590Y-146792975D01*
X89393491Y-146717483D01*
X89416392Y-146641988D01*
X89490771Y-146502835D01*
X89590868Y-146380867D01*
X89712836Y-146280770D01*
X89851989Y-146206392D01*
X90002976Y-146160590D01*
X90160000Y-146145125D01*
X90317025Y-146160590D01*
X90317025Y-146160590D01*
G37*
G36*
X92817025Y-146160590D02*
X92968012Y-146206392D01*
X93107165Y-146280770D01*
X93229133Y-146380867D01*
X93329230Y-146502835D01*
X93403608Y-146641988D01*
X93449410Y-146792975D01*
X93461000Y-146910654D01*
X93461000Y-147489346D01*
X93449410Y-147607025D01*
X93403608Y-147758012D01*
X93329230Y-147897165D01*
X93229136Y-148019130D01*
X93229134Y-148019131D01*
X93229133Y-148019133D01*
X93229129Y-148019136D01*
X93107161Y-148119232D01*
X92968011Y-148193608D01*
X92817024Y-148239410D01*
X92660000Y-148254875D01*
X92502975Y-148239410D01*
X92351988Y-148193608D01*
X92212835Y-148119230D01*
X92090870Y-148019136D01*
X92090869Y-148019134D01*
X92090867Y-148019133D01*
X92040819Y-147958149D01*
X91990768Y-147897161D01*
X91916392Y-147758011D01*
X91870590Y-147607024D01*
X91859000Y-147489345D01*
X91859000Y-146910654D01*
X91870590Y-146792975D01*
X91893491Y-146717483D01*
X91916392Y-146641988D01*
X91990771Y-146502835D01*
X92090868Y-146380867D01*
X92212836Y-146280770D01*
X92351989Y-146206392D01*
X92502976Y-146160590D01*
X92660000Y-146145125D01*
X92817025Y-146160590D01*
X92817025Y-146160590D01*
G37*
G36*
X81477025Y-146160590D02*
X81628012Y-146206392D01*
X81767165Y-146280770D01*
X81889133Y-146380867D01*
X81989230Y-146502835D01*
X82063608Y-146641988D01*
X82109410Y-146792975D01*
X82121000Y-146910654D01*
X82121000Y-147489346D01*
X82109410Y-147607025D01*
X82063608Y-147758012D01*
X81989230Y-147897165D01*
X81889136Y-148019130D01*
X81889134Y-148019131D01*
X81889133Y-148019133D01*
X81889129Y-148019136D01*
X81767161Y-148119232D01*
X81628011Y-148193608D01*
X81477024Y-148239410D01*
X81320000Y-148254875D01*
X81162975Y-148239410D01*
X81011988Y-148193608D01*
X80872835Y-148119230D01*
X80750870Y-148019136D01*
X80750869Y-148019134D01*
X80750867Y-148019133D01*
X80700819Y-147958149D01*
X80650768Y-147897161D01*
X80576392Y-147758011D01*
X80530590Y-147607024D01*
X80519000Y-147489345D01*
X80519000Y-146910654D01*
X80530590Y-146792975D01*
X80553491Y-146717483D01*
X80576392Y-146641988D01*
X80650771Y-146502835D01*
X80750868Y-146380867D01*
X80872836Y-146280770D01*
X81011989Y-146206392D01*
X81162976Y-146160590D01*
X81320000Y-146145125D01*
X81477025Y-146160590D01*
X81477025Y-146160590D01*
G37*
G36*
X117682193Y-137947384D02*
X117918902Y-138045432D01*
X118131938Y-138187778D01*
X118313102Y-138368942D01*
X118455448Y-138581978D01*
X118553496Y-138818687D01*
X118603480Y-139069973D01*
X118603480Y-139326187D01*
X118553496Y-139577473D01*
X118455448Y-139814182D01*
X118313102Y-140027218D01*
X118131938Y-140208382D01*
X117918902Y-140350728D01*
X117682193Y-140448776D01*
X117430907Y-140498760D01*
X117174693Y-140498760D01*
X116923407Y-140448776D01*
X116686698Y-140350728D01*
X116473662Y-140208382D01*
X116292498Y-140027218D01*
X116150152Y-139814182D01*
X116052104Y-139577473D01*
X116002120Y-139326187D01*
X116002120Y-139069973D01*
X116052104Y-138818687D01*
X116150152Y-138581978D01*
X116292498Y-138368942D01*
X116473662Y-138187778D01*
X116686698Y-138045432D01*
X116923407Y-137947384D01*
X117174693Y-137897400D01*
X117430907Y-137897400D01*
X117682193Y-137947384D01*
X117682193Y-137947384D01*
G37*
G36*
X127677093Y-135450564D02*
X127913802Y-135548612D01*
X128126838Y-135690958D01*
X128308002Y-135872122D01*
X128450348Y-136085158D01*
X128548396Y-136321867D01*
X128598380Y-136573153D01*
X128598380Y-136829367D01*
X128548396Y-137080653D01*
X128450348Y-137317362D01*
X128308002Y-137530398D01*
X128126838Y-137711562D01*
X127913802Y-137853908D01*
X127677093Y-137951956D01*
X127425807Y-138001940D01*
X127169593Y-138001940D01*
X126918307Y-137951956D01*
X126681598Y-137853908D01*
X126468562Y-137711562D01*
X126287398Y-137530398D01*
X126145052Y-137317362D01*
X126047004Y-137080653D01*
X125997020Y-136829367D01*
X125997020Y-136573153D01*
X126047004Y-136321867D01*
X126145052Y-136085158D01*
X126287398Y-135872122D01*
X126468562Y-135690958D01*
X126681598Y-135548612D01*
X126918307Y-135450564D01*
X127169593Y-135400580D01*
X127425807Y-135400580D01*
X127677093Y-135450564D01*
X127677093Y-135450564D01*
G37*
G36*
X115180293Y-135445484D02*
X115417002Y-135543532D01*
X115630038Y-135685878D01*
X115811202Y-135867042D01*
X115953548Y-136080078D01*
X116051596Y-136316787D01*
X116101580Y-136568073D01*
X116101580Y-136824287D01*
X116051596Y-137075573D01*
X115953548Y-137312282D01*
X115811202Y-137525318D01*
X115630038Y-137706482D01*
X115417002Y-137848828D01*
X115180293Y-137946876D01*
X114929007Y-137996860D01*
X114672793Y-137996860D01*
X114421507Y-137946876D01*
X114184798Y-137848828D01*
X113971762Y-137706482D01*
X113790598Y-137525318D01*
X113648252Y-137312282D01*
X113550204Y-137075573D01*
X113500220Y-136824287D01*
X113500220Y-136568073D01*
X113550204Y-136316787D01*
X113648252Y-136080078D01*
X113790598Y-135867042D01*
X113971762Y-135685878D01*
X114184798Y-135543532D01*
X114421507Y-135445484D01*
X114672793Y-135395500D01*
X114929007Y-135395500D01*
X115180293Y-135445484D01*
X115180293Y-135445484D01*
G37*
G36*
X97661821Y-134861313D02*
X97661824Y-134861314D01*
X97661825Y-134861314D01*
X97822239Y-134909975D01*
X97822241Y-134909976D01*
X97822244Y-134909977D01*
X97970078Y-134988995D01*
X98099659Y-135095341D01*
X98206005Y-135224922D01*
X98285023Y-135372756D01*
X98285024Y-135372759D01*
X98285025Y-135372761D01*
X98318520Y-135483179D01*
X98333687Y-135533179D01*
X98350117Y-135700000D01*
X98333687Y-135866821D01*
X98333686Y-135866824D01*
X98333686Y-135866825D01*
X98300191Y-135977244D01*
X98285023Y-136027244D01*
X98206005Y-136175078D01*
X98099659Y-136304659D01*
X97970078Y-136411005D01*
X97822244Y-136490023D01*
X97822241Y-136490024D01*
X97822239Y-136490025D01*
X97661825Y-136538686D01*
X97661824Y-136538686D01*
X97661821Y-136538687D01*
X97536804Y-136551000D01*
X97453196Y-136551000D01*
X97328179Y-136538687D01*
X97328176Y-136538686D01*
X97328175Y-136538686D01*
X97167761Y-136490025D01*
X97167759Y-136490024D01*
X97167756Y-136490023D01*
X97019922Y-136411005D01*
X96890341Y-136304659D01*
X96783995Y-136175078D01*
X96704977Y-136027244D01*
X96689810Y-135977244D01*
X96656314Y-135866825D01*
X96656314Y-135866824D01*
X96656313Y-135866821D01*
X96639883Y-135700000D01*
X96656313Y-135533179D01*
X96671480Y-135483179D01*
X96704975Y-135372761D01*
X96704976Y-135372759D01*
X96704977Y-135372756D01*
X96783995Y-135224922D01*
X96890341Y-135095341D01*
X97019922Y-134988995D01*
X97167756Y-134909977D01*
X97167759Y-134909976D01*
X97167761Y-134909975D01*
X97328175Y-134861314D01*
X97328176Y-134861314D01*
X97328179Y-134861313D01*
X97453196Y-134849000D01*
X97536804Y-134849000D01*
X97661821Y-134861313D01*
X97661821Y-134861313D01*
G37*
G36*
X94126821Y-134861313D02*
X94126824Y-134861314D01*
X94126825Y-134861314D01*
X94287239Y-134909975D01*
X94287241Y-134909976D01*
X94287244Y-134909977D01*
X94435078Y-134988995D01*
X94564659Y-135095341D01*
X94671005Y-135224922D01*
X94750023Y-135372756D01*
X94750024Y-135372759D01*
X94750025Y-135372761D01*
X94783520Y-135483179D01*
X94798687Y-135533179D01*
X94815117Y-135700000D01*
X94798687Y-135866821D01*
X94798686Y-135866824D01*
X94798686Y-135866825D01*
X94765191Y-135977244D01*
X94750023Y-136027244D01*
X94671005Y-136175078D01*
X94564659Y-136304659D01*
X94435078Y-136411005D01*
X94287244Y-136490023D01*
X94287241Y-136490024D01*
X94287239Y-136490025D01*
X94126825Y-136538686D01*
X94126824Y-136538686D01*
X94126821Y-136538687D01*
X94001804Y-136551000D01*
X93918196Y-136551000D01*
X93793179Y-136538687D01*
X93793176Y-136538686D01*
X93793175Y-136538686D01*
X93632761Y-136490025D01*
X93632759Y-136490024D01*
X93632756Y-136490023D01*
X93484922Y-136411005D01*
X93355341Y-136304659D01*
X93248995Y-136175078D01*
X93169977Y-136027244D01*
X93154810Y-135977244D01*
X93121314Y-135866825D01*
X93121314Y-135866824D01*
X93121313Y-135866821D01*
X93104883Y-135700000D01*
X93121313Y-135533179D01*
X93136480Y-135483179D01*
X93169975Y-135372761D01*
X93169976Y-135372759D01*
X93169977Y-135372756D01*
X93248995Y-135224922D01*
X93355341Y-135095341D01*
X93484922Y-134988995D01*
X93632756Y-134909977D01*
X93632759Y-134909976D01*
X93632761Y-134909975D01*
X93793175Y-134861314D01*
X93793176Y-134861314D01*
X93793179Y-134861313D01*
X93918196Y-134849000D01*
X94001804Y-134849000D01*
X94126821Y-134861313D01*
X94126821Y-134861313D01*
G37*
G36*
X104731821Y-134861313D02*
X104731824Y-134861314D01*
X104731825Y-134861314D01*
X104892239Y-134909975D01*
X104892241Y-134909976D01*
X104892244Y-134909977D01*
X105040078Y-134988995D01*
X105169659Y-135095341D01*
X105276005Y-135224922D01*
X105355023Y-135372756D01*
X105355024Y-135372759D01*
X105355025Y-135372761D01*
X105388520Y-135483179D01*
X105403687Y-135533179D01*
X105420117Y-135700000D01*
X105403687Y-135866821D01*
X105403686Y-135866824D01*
X105403686Y-135866825D01*
X105370191Y-135977244D01*
X105355023Y-136027244D01*
X105276005Y-136175078D01*
X105169659Y-136304659D01*
X105040078Y-136411005D01*
X104892244Y-136490023D01*
X104892241Y-136490024D01*
X104892239Y-136490025D01*
X104731825Y-136538686D01*
X104731824Y-136538686D01*
X104731821Y-136538687D01*
X104606804Y-136551000D01*
X104523196Y-136551000D01*
X104398179Y-136538687D01*
X104398176Y-136538686D01*
X104398175Y-136538686D01*
X104237761Y-136490025D01*
X104237759Y-136490024D01*
X104237756Y-136490023D01*
X104089922Y-136411005D01*
X103960341Y-136304659D01*
X103853995Y-136175078D01*
X103774977Y-136027244D01*
X103759810Y-135977244D01*
X103726314Y-135866825D01*
X103726314Y-135866824D01*
X103726313Y-135866821D01*
X103709883Y-135700000D01*
X103726313Y-135533179D01*
X103741480Y-135483179D01*
X103774975Y-135372761D01*
X103774976Y-135372759D01*
X103774977Y-135372756D01*
X103853995Y-135224922D01*
X103960341Y-135095341D01*
X104089922Y-134988995D01*
X104237756Y-134909977D01*
X104237759Y-134909976D01*
X104237761Y-134909975D01*
X104398175Y-134861314D01*
X104398176Y-134861314D01*
X104398179Y-134861313D01*
X104523196Y-134849000D01*
X104606804Y-134849000D01*
X104731821Y-134861313D01*
X104731821Y-134861313D01*
G37*
G36*
X101278228Y-134881703D02*
X101433100Y-134945853D01*
X101572481Y-135038985D01*
X101691015Y-135157519D01*
X101784147Y-135296900D01*
X101848297Y-135451772D01*
X101881000Y-135616184D01*
X101881000Y-135783816D01*
X101848297Y-135948228D01*
X101784147Y-136103100D01*
X101691015Y-136242481D01*
X101572481Y-136361015D01*
X101433100Y-136454147D01*
X101278228Y-136518297D01*
X101113816Y-136551000D01*
X100946184Y-136551000D01*
X100781772Y-136518297D01*
X100626900Y-136454147D01*
X100487519Y-136361015D01*
X100368985Y-136242481D01*
X100275853Y-136103100D01*
X100211703Y-135948228D01*
X100179000Y-135783816D01*
X100179000Y-135616184D01*
X100211703Y-135451772D01*
X100275853Y-135296900D01*
X100368985Y-135157519D01*
X100487519Y-135038985D01*
X100626900Y-134945853D01*
X100781772Y-134881703D01*
X100946184Y-134849000D01*
X101113816Y-134849000D01*
X101278228Y-134881703D01*
X101278228Y-134881703D01*
G37*
G36*
X108348228Y-134881703D02*
X108503100Y-134945853D01*
X108642481Y-135038985D01*
X108761015Y-135157519D01*
X108854147Y-135296900D01*
X108918297Y-135451772D01*
X108951000Y-135616184D01*
X108951000Y-135783816D01*
X108918297Y-135948228D01*
X108854147Y-136103100D01*
X108761015Y-136242481D01*
X108642481Y-136361015D01*
X108503100Y-136454147D01*
X108348228Y-136518297D01*
X108183816Y-136551000D01*
X108016184Y-136551000D01*
X107851772Y-136518297D01*
X107696900Y-136454147D01*
X107557519Y-136361015D01*
X107438985Y-136242481D01*
X107345853Y-136103100D01*
X107281703Y-135948228D01*
X107249000Y-135783816D01*
X107249000Y-135616184D01*
X107281703Y-135451772D01*
X107345853Y-135296900D01*
X107438985Y-135157519D01*
X107557519Y-135038985D01*
X107696900Y-134945853D01*
X107851772Y-134881703D01*
X108016184Y-134849000D01*
X108183816Y-134849000D01*
X108348228Y-134881703D01*
X108348228Y-134881703D01*
G37*
G36*
X57118228Y-134881703D02*
X57273100Y-134945853D01*
X57412481Y-135038985D01*
X57531015Y-135157519D01*
X57624147Y-135296900D01*
X57688297Y-135451772D01*
X57721000Y-135616184D01*
X57721000Y-135783816D01*
X57688297Y-135948228D01*
X57624147Y-136103100D01*
X57531015Y-136242481D01*
X57412481Y-136361015D01*
X57273100Y-136454147D01*
X57118228Y-136518297D01*
X56953816Y-136551000D01*
X56786184Y-136551000D01*
X56621772Y-136518297D01*
X56466900Y-136454147D01*
X56327519Y-136361015D01*
X56208985Y-136242481D01*
X56115853Y-136103100D01*
X56051703Y-135948228D01*
X56019000Y-135783816D01*
X56019000Y-135616184D01*
X56051703Y-135451772D01*
X56115853Y-135296900D01*
X56208985Y-135157519D01*
X56327519Y-135038985D01*
X56466900Y-134945853D01*
X56621772Y-134881703D01*
X56786184Y-134849000D01*
X56953816Y-134849000D01*
X57118228Y-134881703D01*
X57118228Y-134881703D01*
G37*
G36*
X49966821Y-134861313D02*
X49966824Y-134861314D01*
X49966825Y-134861314D01*
X50127239Y-134909975D01*
X50127241Y-134909976D01*
X50127244Y-134909977D01*
X50275078Y-134988995D01*
X50404659Y-135095341D01*
X50511005Y-135224922D01*
X50590023Y-135372756D01*
X50590024Y-135372759D01*
X50590025Y-135372761D01*
X50623520Y-135483179D01*
X50638687Y-135533179D01*
X50655117Y-135700000D01*
X50638687Y-135866821D01*
X50638686Y-135866824D01*
X50638686Y-135866825D01*
X50605191Y-135977244D01*
X50590023Y-136027244D01*
X50511005Y-136175078D01*
X50404659Y-136304659D01*
X50275078Y-136411005D01*
X50127244Y-136490023D01*
X50127241Y-136490024D01*
X50127239Y-136490025D01*
X49966825Y-136538686D01*
X49966824Y-136538686D01*
X49966821Y-136538687D01*
X49841804Y-136551000D01*
X49758196Y-136551000D01*
X49633179Y-136538687D01*
X49633176Y-136538686D01*
X49633175Y-136538686D01*
X49472761Y-136490025D01*
X49472759Y-136490024D01*
X49472756Y-136490023D01*
X49324922Y-136411005D01*
X49195341Y-136304659D01*
X49088995Y-136175078D01*
X49009977Y-136027244D01*
X48994810Y-135977244D01*
X48961314Y-135866825D01*
X48961314Y-135866824D01*
X48961313Y-135866821D01*
X48944883Y-135700000D01*
X48961313Y-135533179D01*
X48976480Y-135483179D01*
X49009975Y-135372761D01*
X49009976Y-135372759D01*
X49009977Y-135372756D01*
X49088995Y-135224922D01*
X49195341Y-135095341D01*
X49324922Y-134988995D01*
X49472756Y-134909977D01*
X49472759Y-134909976D01*
X49472761Y-134909975D01*
X49633175Y-134861314D01*
X49633176Y-134861314D01*
X49633179Y-134861313D01*
X49758196Y-134849000D01*
X49841804Y-134849000D01*
X49966821Y-134861313D01*
X49966821Y-134861313D01*
G37*
G36*
X60653228Y-134881703D02*
X60808100Y-134945853D01*
X60947481Y-135038985D01*
X61066015Y-135157519D01*
X61159147Y-135296900D01*
X61223297Y-135451772D01*
X61256000Y-135616184D01*
X61256000Y-135783816D01*
X61223297Y-135948228D01*
X61159147Y-136103100D01*
X61066015Y-136242481D01*
X60947481Y-136361015D01*
X60808100Y-136454147D01*
X60653228Y-136518297D01*
X60488816Y-136551000D01*
X60321184Y-136551000D01*
X60156772Y-136518297D01*
X60001900Y-136454147D01*
X59862519Y-136361015D01*
X59743985Y-136242481D01*
X59650853Y-136103100D01*
X59586703Y-135948228D01*
X59554000Y-135783816D01*
X59554000Y-135616184D01*
X59586703Y-135451772D01*
X59650853Y-135296900D01*
X59743985Y-135157519D01*
X59862519Y-135038985D01*
X60001900Y-134945853D01*
X60156772Y-134881703D01*
X60321184Y-134849000D01*
X60488816Y-134849000D01*
X60653228Y-134881703D01*
X60653228Y-134881703D01*
G37*
G36*
X53501821Y-134861313D02*
X53501824Y-134861314D01*
X53501825Y-134861314D01*
X53662239Y-134909975D01*
X53662241Y-134909976D01*
X53662244Y-134909977D01*
X53810078Y-134988995D01*
X53939659Y-135095341D01*
X54046005Y-135224922D01*
X54125023Y-135372756D01*
X54125024Y-135372759D01*
X54125025Y-135372761D01*
X54158520Y-135483179D01*
X54173687Y-135533179D01*
X54190117Y-135700000D01*
X54173687Y-135866821D01*
X54173686Y-135866824D01*
X54173686Y-135866825D01*
X54140191Y-135977244D01*
X54125023Y-136027244D01*
X54046005Y-136175078D01*
X53939659Y-136304659D01*
X53810078Y-136411005D01*
X53662244Y-136490023D01*
X53662241Y-136490024D01*
X53662239Y-136490025D01*
X53501825Y-136538686D01*
X53501824Y-136538686D01*
X53501821Y-136538687D01*
X53376804Y-136551000D01*
X53293196Y-136551000D01*
X53168179Y-136538687D01*
X53168176Y-136538686D01*
X53168175Y-136538686D01*
X53007761Y-136490025D01*
X53007759Y-136490024D01*
X53007756Y-136490023D01*
X52859922Y-136411005D01*
X52730341Y-136304659D01*
X52623995Y-136175078D01*
X52544977Y-136027244D01*
X52529810Y-135977244D01*
X52496314Y-135866825D01*
X52496314Y-135866824D01*
X52496313Y-135866821D01*
X52479883Y-135700000D01*
X52496313Y-135533179D01*
X52511480Y-135483179D01*
X52544975Y-135372761D01*
X52544976Y-135372759D01*
X52544977Y-135372756D01*
X52623995Y-135224922D01*
X52730341Y-135095341D01*
X52859922Y-134988995D01*
X53007756Y-134909977D01*
X53007759Y-134909976D01*
X53007761Y-134909975D01*
X53168175Y-134861314D01*
X53168176Y-134861314D01*
X53168179Y-134861313D01*
X53293196Y-134849000D01*
X53376804Y-134849000D01*
X53501821Y-134861313D01*
X53501821Y-134861313D01*
G37*
G36*
X64106821Y-134861313D02*
X64106824Y-134861314D01*
X64106825Y-134861314D01*
X64267239Y-134909975D01*
X64267241Y-134909976D01*
X64267244Y-134909977D01*
X64415078Y-134988995D01*
X64544659Y-135095341D01*
X64651005Y-135224922D01*
X64730023Y-135372756D01*
X64730024Y-135372759D01*
X64730025Y-135372761D01*
X64763520Y-135483179D01*
X64778687Y-135533179D01*
X64795117Y-135700000D01*
X64778687Y-135866821D01*
X64778686Y-135866824D01*
X64778686Y-135866825D01*
X64745191Y-135977244D01*
X64730023Y-136027244D01*
X64651005Y-136175078D01*
X64544659Y-136304659D01*
X64415078Y-136411005D01*
X64267244Y-136490023D01*
X64267241Y-136490024D01*
X64267239Y-136490025D01*
X64106825Y-136538686D01*
X64106824Y-136538686D01*
X64106821Y-136538687D01*
X63981804Y-136551000D01*
X63898196Y-136551000D01*
X63773179Y-136538687D01*
X63773176Y-136538686D01*
X63773175Y-136538686D01*
X63612761Y-136490025D01*
X63612759Y-136490024D01*
X63612756Y-136490023D01*
X63464922Y-136411005D01*
X63335341Y-136304659D01*
X63228995Y-136175078D01*
X63149977Y-136027244D01*
X63134810Y-135977244D01*
X63101314Y-135866825D01*
X63101314Y-135866824D01*
X63101313Y-135866821D01*
X63084883Y-135700000D01*
X63101313Y-135533179D01*
X63116480Y-135483179D01*
X63149975Y-135372761D01*
X63149976Y-135372759D01*
X63149977Y-135372756D01*
X63228995Y-135224922D01*
X63335341Y-135095341D01*
X63464922Y-134988995D01*
X63612756Y-134909977D01*
X63612759Y-134909976D01*
X63612761Y-134909975D01*
X63773175Y-134861314D01*
X63773176Y-134861314D01*
X63773179Y-134861313D01*
X63898196Y-134849000D01*
X63981804Y-134849000D01*
X64106821Y-134861313D01*
X64106821Y-134861313D01*
G37*
G36*
X80391821Y-134811313D02*
X80391824Y-134811314D01*
X80391825Y-134811314D01*
X80552239Y-134859975D01*
X80552241Y-134859976D01*
X80552244Y-134859977D01*
X80700078Y-134938995D01*
X80829659Y-135045341D01*
X80936005Y-135174922D01*
X81015023Y-135322756D01*
X81015024Y-135322759D01*
X81015025Y-135322761D01*
X81053794Y-135450565D01*
X81063687Y-135483179D01*
X81080117Y-135650000D01*
X81063687Y-135816821D01*
X81063686Y-135816824D01*
X81063686Y-135816825D01*
X81048519Y-135866825D01*
X81015023Y-135977244D01*
X80936005Y-136125078D01*
X80829659Y-136254659D01*
X80700078Y-136361005D01*
X80552244Y-136440023D01*
X80552241Y-136440024D01*
X80552239Y-136440025D01*
X80391825Y-136488686D01*
X80391824Y-136488686D01*
X80391821Y-136488687D01*
X80266804Y-136501000D01*
X80183196Y-136501000D01*
X80058179Y-136488687D01*
X80058176Y-136488686D01*
X80058175Y-136488686D01*
X79897761Y-136440025D01*
X79897759Y-136440024D01*
X79897756Y-136440023D01*
X79749922Y-136361005D01*
X79620341Y-136254659D01*
X79513995Y-136125078D01*
X79434977Y-135977244D01*
X79401482Y-135866825D01*
X79386314Y-135816825D01*
X79386314Y-135816824D01*
X79386313Y-135816821D01*
X79369883Y-135650000D01*
X79386313Y-135483179D01*
X79396206Y-135450565D01*
X79434975Y-135322761D01*
X79434976Y-135322759D01*
X79434977Y-135322756D01*
X79513995Y-135174922D01*
X79620341Y-135045341D01*
X79749922Y-134938995D01*
X79897756Y-134859977D01*
X79897759Y-134859976D01*
X79897761Y-134859975D01*
X80058175Y-134811314D01*
X80058176Y-134811314D01*
X80058179Y-134811313D01*
X80183196Y-134799000D01*
X80266804Y-134799000D01*
X80391821Y-134811313D01*
X80391821Y-134811313D01*
G37*
G36*
X70231821Y-134811313D02*
X70231824Y-134811314D01*
X70231825Y-134811314D01*
X70392239Y-134859975D01*
X70392241Y-134859976D01*
X70392244Y-134859977D01*
X70540078Y-134938995D01*
X70669659Y-135045341D01*
X70776005Y-135174922D01*
X70855023Y-135322756D01*
X70855024Y-135322759D01*
X70855025Y-135322761D01*
X70893794Y-135450565D01*
X70903687Y-135483179D01*
X70920117Y-135650000D01*
X70903687Y-135816821D01*
X70903686Y-135816824D01*
X70903686Y-135816825D01*
X70888519Y-135866825D01*
X70855023Y-135977244D01*
X70776005Y-136125078D01*
X70669659Y-136254659D01*
X70540078Y-136361005D01*
X70392244Y-136440023D01*
X70392241Y-136440024D01*
X70392239Y-136440025D01*
X70231825Y-136488686D01*
X70231824Y-136488686D01*
X70231821Y-136488687D01*
X70106804Y-136501000D01*
X70023196Y-136501000D01*
X69898179Y-136488687D01*
X69898176Y-136488686D01*
X69898175Y-136488686D01*
X69737761Y-136440025D01*
X69737759Y-136440024D01*
X69737756Y-136440023D01*
X69589922Y-136361005D01*
X69460341Y-136254659D01*
X69353995Y-136125078D01*
X69274977Y-135977244D01*
X69241482Y-135866825D01*
X69226314Y-135816825D01*
X69226314Y-135816824D01*
X69226313Y-135816821D01*
X69209883Y-135650000D01*
X69226313Y-135483179D01*
X69236206Y-135450565D01*
X69274975Y-135322761D01*
X69274976Y-135322759D01*
X69274977Y-135322756D01*
X69353995Y-135174922D01*
X69460341Y-135045341D01*
X69589922Y-134938995D01*
X69737756Y-134859977D01*
X69737759Y-134859976D01*
X69737761Y-134859975D01*
X69898175Y-134811314D01*
X69898176Y-134811314D01*
X69898179Y-134811313D01*
X70023196Y-134799000D01*
X70106804Y-134799000D01*
X70231821Y-134811313D01*
X70231821Y-134811313D01*
G37*
G36*
X68376000Y-136501000D02*
X66674000Y-136501000D01*
X66674000Y-134799000D01*
X68376000Y-134799000D01*
X68376000Y-136501000D01*
X68376000Y-136501000D01*
G37*
G36*
X77851821Y-134811313D02*
X77851824Y-134811314D01*
X77851825Y-134811314D01*
X78012239Y-134859975D01*
X78012241Y-134859976D01*
X78012244Y-134859977D01*
X78160078Y-134938995D01*
X78289659Y-135045341D01*
X78396005Y-135174922D01*
X78475023Y-135322756D01*
X78475024Y-135322759D01*
X78475025Y-135322761D01*
X78513794Y-135450565D01*
X78523687Y-135483179D01*
X78540117Y-135650000D01*
X78523687Y-135816821D01*
X78523686Y-135816824D01*
X78523686Y-135816825D01*
X78508519Y-135866825D01*
X78475023Y-135977244D01*
X78396005Y-136125078D01*
X78289659Y-136254659D01*
X78160078Y-136361005D01*
X78012244Y-136440023D01*
X78012241Y-136440024D01*
X78012239Y-136440025D01*
X77851825Y-136488686D01*
X77851824Y-136488686D01*
X77851821Y-136488687D01*
X77726804Y-136501000D01*
X77643196Y-136501000D01*
X77518179Y-136488687D01*
X77518176Y-136488686D01*
X77518175Y-136488686D01*
X77357761Y-136440025D01*
X77357759Y-136440024D01*
X77357756Y-136440023D01*
X77209922Y-136361005D01*
X77080341Y-136254659D01*
X76973995Y-136125078D01*
X76894977Y-135977244D01*
X76861482Y-135866825D01*
X76846314Y-135816825D01*
X76846314Y-135816824D01*
X76846313Y-135816821D01*
X76829883Y-135650000D01*
X76846313Y-135483179D01*
X76856206Y-135450565D01*
X76894975Y-135322761D01*
X76894976Y-135322759D01*
X76894977Y-135322756D01*
X76973995Y-135174922D01*
X77080341Y-135045341D01*
X77209922Y-134938995D01*
X77357756Y-134859977D01*
X77357759Y-134859976D01*
X77357761Y-134859975D01*
X77518175Y-134811314D01*
X77518176Y-134811314D01*
X77518179Y-134811313D01*
X77643196Y-134799000D01*
X77726804Y-134799000D01*
X77851821Y-134811313D01*
X77851821Y-134811313D01*
G37*
G36*
X75311821Y-134811313D02*
X75311824Y-134811314D01*
X75311825Y-134811314D01*
X75472239Y-134859975D01*
X75472241Y-134859976D01*
X75472244Y-134859977D01*
X75620078Y-134938995D01*
X75749659Y-135045341D01*
X75856005Y-135174922D01*
X75935023Y-135322756D01*
X75935024Y-135322759D01*
X75935025Y-135322761D01*
X75973794Y-135450565D01*
X75983687Y-135483179D01*
X76000117Y-135650000D01*
X75983687Y-135816821D01*
X75983686Y-135816824D01*
X75983686Y-135816825D01*
X75968519Y-135866825D01*
X75935023Y-135977244D01*
X75856005Y-136125078D01*
X75749659Y-136254659D01*
X75620078Y-136361005D01*
X75472244Y-136440023D01*
X75472241Y-136440024D01*
X75472239Y-136440025D01*
X75311825Y-136488686D01*
X75311824Y-136488686D01*
X75311821Y-136488687D01*
X75186804Y-136501000D01*
X75103196Y-136501000D01*
X74978179Y-136488687D01*
X74978176Y-136488686D01*
X74978175Y-136488686D01*
X74817761Y-136440025D01*
X74817759Y-136440024D01*
X74817756Y-136440023D01*
X74669922Y-136361005D01*
X74540341Y-136254659D01*
X74433995Y-136125078D01*
X74354977Y-135977244D01*
X74321482Y-135866825D01*
X74306314Y-135816825D01*
X74306314Y-135816824D01*
X74306313Y-135816821D01*
X74289883Y-135650000D01*
X74306313Y-135483179D01*
X74316206Y-135450565D01*
X74354975Y-135322761D01*
X74354976Y-135322759D01*
X74354977Y-135322756D01*
X74433995Y-135174922D01*
X74540341Y-135045341D01*
X74669922Y-134938995D01*
X74817756Y-134859977D01*
X74817759Y-134859976D01*
X74817761Y-134859975D01*
X74978175Y-134811314D01*
X74978176Y-134811314D01*
X74978179Y-134811313D01*
X75103196Y-134799000D01*
X75186804Y-134799000D01*
X75311821Y-134811313D01*
X75311821Y-134811313D01*
G37*
G36*
X72771821Y-134811313D02*
X72771824Y-134811314D01*
X72771825Y-134811314D01*
X72932239Y-134859975D01*
X72932241Y-134859976D01*
X72932244Y-134859977D01*
X73080078Y-134938995D01*
X73209659Y-135045341D01*
X73316005Y-135174922D01*
X73395023Y-135322756D01*
X73395024Y-135322759D01*
X73395025Y-135322761D01*
X73433794Y-135450565D01*
X73443687Y-135483179D01*
X73460117Y-135650000D01*
X73443687Y-135816821D01*
X73443686Y-135816824D01*
X73443686Y-135816825D01*
X73428519Y-135866825D01*
X73395023Y-135977244D01*
X73316005Y-136125078D01*
X73209659Y-136254659D01*
X73080078Y-136361005D01*
X72932244Y-136440023D01*
X72932241Y-136440024D01*
X72932239Y-136440025D01*
X72771825Y-136488686D01*
X72771824Y-136488686D01*
X72771821Y-136488687D01*
X72646804Y-136501000D01*
X72563196Y-136501000D01*
X72438179Y-136488687D01*
X72438176Y-136488686D01*
X72438175Y-136488686D01*
X72277761Y-136440025D01*
X72277759Y-136440024D01*
X72277756Y-136440023D01*
X72129922Y-136361005D01*
X72000341Y-136254659D01*
X71893995Y-136125078D01*
X71814977Y-135977244D01*
X71781482Y-135866825D01*
X71766314Y-135816825D01*
X71766314Y-135816824D01*
X71766313Y-135816821D01*
X71749883Y-135650000D01*
X71766313Y-135483179D01*
X71776206Y-135450565D01*
X71814975Y-135322761D01*
X71814976Y-135322759D01*
X71814977Y-135322756D01*
X71893995Y-135174922D01*
X72000341Y-135045341D01*
X72129922Y-134938995D01*
X72277756Y-134859977D01*
X72277759Y-134859976D01*
X72277761Y-134859975D01*
X72438175Y-134811314D01*
X72438176Y-134811314D01*
X72438179Y-134811313D01*
X72563196Y-134799000D01*
X72646804Y-134799000D01*
X72771821Y-134811313D01*
X72771821Y-134811313D01*
G37*
G36*
X90551821Y-134811313D02*
X90551824Y-134811314D01*
X90551825Y-134811314D01*
X90712239Y-134859975D01*
X90712241Y-134859976D01*
X90712244Y-134859977D01*
X90860078Y-134938995D01*
X90989659Y-135045341D01*
X91096005Y-135174922D01*
X91175023Y-135322756D01*
X91175024Y-135322759D01*
X91175025Y-135322761D01*
X91213794Y-135450565D01*
X91223687Y-135483179D01*
X91240117Y-135650000D01*
X91223687Y-135816821D01*
X91223686Y-135816824D01*
X91223686Y-135816825D01*
X91208519Y-135866825D01*
X91175023Y-135977244D01*
X91096005Y-136125078D01*
X90989659Y-136254659D01*
X90860078Y-136361005D01*
X90712244Y-136440023D01*
X90712241Y-136440024D01*
X90712239Y-136440025D01*
X90551825Y-136488686D01*
X90551824Y-136488686D01*
X90551821Y-136488687D01*
X90426804Y-136501000D01*
X90343196Y-136501000D01*
X90218179Y-136488687D01*
X90218176Y-136488686D01*
X90218175Y-136488686D01*
X90057761Y-136440025D01*
X90057759Y-136440024D01*
X90057756Y-136440023D01*
X89909922Y-136361005D01*
X89780341Y-136254659D01*
X89673995Y-136125078D01*
X89594977Y-135977244D01*
X89561482Y-135866825D01*
X89546314Y-135816825D01*
X89546314Y-135816824D01*
X89546313Y-135816821D01*
X89529883Y-135650000D01*
X89546313Y-135483179D01*
X89556206Y-135450565D01*
X89594975Y-135322761D01*
X89594976Y-135322759D01*
X89594977Y-135322756D01*
X89673995Y-135174922D01*
X89780341Y-135045341D01*
X89909922Y-134938995D01*
X90057756Y-134859977D01*
X90057759Y-134859976D01*
X90057761Y-134859975D01*
X90218175Y-134811314D01*
X90218176Y-134811314D01*
X90218179Y-134811313D01*
X90343196Y-134799000D01*
X90426804Y-134799000D01*
X90551821Y-134811313D01*
X90551821Y-134811313D01*
G37*
G36*
X88011821Y-134811313D02*
X88011824Y-134811314D01*
X88011825Y-134811314D01*
X88172239Y-134859975D01*
X88172241Y-134859976D01*
X88172244Y-134859977D01*
X88320078Y-134938995D01*
X88449659Y-135045341D01*
X88556005Y-135174922D01*
X88635023Y-135322756D01*
X88635024Y-135322759D01*
X88635025Y-135322761D01*
X88673794Y-135450565D01*
X88683687Y-135483179D01*
X88700117Y-135650000D01*
X88683687Y-135816821D01*
X88683686Y-135816824D01*
X88683686Y-135816825D01*
X88668519Y-135866825D01*
X88635023Y-135977244D01*
X88556005Y-136125078D01*
X88449659Y-136254659D01*
X88320078Y-136361005D01*
X88172244Y-136440023D01*
X88172241Y-136440024D01*
X88172239Y-136440025D01*
X88011825Y-136488686D01*
X88011824Y-136488686D01*
X88011821Y-136488687D01*
X87886804Y-136501000D01*
X87803196Y-136501000D01*
X87678179Y-136488687D01*
X87678176Y-136488686D01*
X87678175Y-136488686D01*
X87517761Y-136440025D01*
X87517759Y-136440024D01*
X87517756Y-136440023D01*
X87369922Y-136361005D01*
X87240341Y-136254659D01*
X87133995Y-136125078D01*
X87054977Y-135977244D01*
X87021482Y-135866825D01*
X87006314Y-135816825D01*
X87006314Y-135816824D01*
X87006313Y-135816821D01*
X86989883Y-135650000D01*
X87006313Y-135483179D01*
X87016206Y-135450565D01*
X87054975Y-135322761D01*
X87054976Y-135322759D01*
X87054977Y-135322756D01*
X87133995Y-135174922D01*
X87240341Y-135045341D01*
X87369922Y-134938995D01*
X87517756Y-134859977D01*
X87517759Y-134859976D01*
X87517761Y-134859975D01*
X87678175Y-134811314D01*
X87678176Y-134811314D01*
X87678179Y-134811313D01*
X87803196Y-134799000D01*
X87886804Y-134799000D01*
X88011821Y-134811313D01*
X88011821Y-134811313D01*
G37*
G36*
X85471821Y-134811313D02*
X85471824Y-134811314D01*
X85471825Y-134811314D01*
X85632239Y-134859975D01*
X85632241Y-134859976D01*
X85632244Y-134859977D01*
X85780078Y-134938995D01*
X85909659Y-135045341D01*
X86016005Y-135174922D01*
X86095023Y-135322756D01*
X86095024Y-135322759D01*
X86095025Y-135322761D01*
X86133794Y-135450565D01*
X86143687Y-135483179D01*
X86160117Y-135650000D01*
X86143687Y-135816821D01*
X86143686Y-135816824D01*
X86143686Y-135816825D01*
X86128519Y-135866825D01*
X86095023Y-135977244D01*
X86016005Y-136125078D01*
X85909659Y-136254659D01*
X85780078Y-136361005D01*
X85632244Y-136440023D01*
X85632241Y-136440024D01*
X85632239Y-136440025D01*
X85471825Y-136488686D01*
X85471824Y-136488686D01*
X85471821Y-136488687D01*
X85346804Y-136501000D01*
X85263196Y-136501000D01*
X85138179Y-136488687D01*
X85138176Y-136488686D01*
X85138175Y-136488686D01*
X84977761Y-136440025D01*
X84977759Y-136440024D01*
X84977756Y-136440023D01*
X84829922Y-136361005D01*
X84700341Y-136254659D01*
X84593995Y-136125078D01*
X84514977Y-135977244D01*
X84481482Y-135866825D01*
X84466314Y-135816825D01*
X84466314Y-135816824D01*
X84466313Y-135816821D01*
X84449883Y-135650000D01*
X84466313Y-135483179D01*
X84476206Y-135450565D01*
X84514975Y-135322761D01*
X84514976Y-135322759D01*
X84514977Y-135322756D01*
X84593995Y-135174922D01*
X84700341Y-135045341D01*
X84829922Y-134938995D01*
X84977756Y-134859977D01*
X84977759Y-134859976D01*
X84977761Y-134859975D01*
X85138175Y-134811314D01*
X85138176Y-134811314D01*
X85138179Y-134811313D01*
X85263196Y-134799000D01*
X85346804Y-134799000D01*
X85471821Y-134811313D01*
X85471821Y-134811313D01*
G37*
G36*
X82931821Y-134811313D02*
X82931824Y-134811314D01*
X82931825Y-134811314D01*
X83092239Y-134859975D01*
X83092241Y-134859976D01*
X83092244Y-134859977D01*
X83240078Y-134938995D01*
X83369659Y-135045341D01*
X83476005Y-135174922D01*
X83555023Y-135322756D01*
X83555024Y-135322759D01*
X83555025Y-135322761D01*
X83593794Y-135450565D01*
X83603687Y-135483179D01*
X83620117Y-135650000D01*
X83603687Y-135816821D01*
X83603686Y-135816824D01*
X83603686Y-135816825D01*
X83588519Y-135866825D01*
X83555023Y-135977244D01*
X83476005Y-136125078D01*
X83369659Y-136254659D01*
X83240078Y-136361005D01*
X83092244Y-136440023D01*
X83092241Y-136440024D01*
X83092239Y-136440025D01*
X82931825Y-136488686D01*
X82931824Y-136488686D01*
X82931821Y-136488687D01*
X82806804Y-136501000D01*
X82723196Y-136501000D01*
X82598179Y-136488687D01*
X82598176Y-136488686D01*
X82598175Y-136488686D01*
X82437761Y-136440025D01*
X82437759Y-136440024D01*
X82437756Y-136440023D01*
X82289922Y-136361005D01*
X82160341Y-136254659D01*
X82053995Y-136125078D01*
X81974977Y-135977244D01*
X81941482Y-135866825D01*
X81926314Y-135816825D01*
X81926314Y-135816824D01*
X81926313Y-135816821D01*
X81909883Y-135650000D01*
X81926313Y-135483179D01*
X81936206Y-135450565D01*
X81974975Y-135322761D01*
X81974976Y-135322759D01*
X81974977Y-135322756D01*
X82053995Y-135174922D01*
X82160341Y-135045341D01*
X82289922Y-134938995D01*
X82437756Y-134859977D01*
X82437759Y-134859976D01*
X82437761Y-134859975D01*
X82598175Y-134811314D01*
X82598176Y-134811314D01*
X82598179Y-134811313D01*
X82723196Y-134799000D01*
X82806804Y-134799000D01*
X82931821Y-134811313D01*
X82931821Y-134811313D01*
G37*
G36*
X37348228Y-133781703D02*
X37503100Y-133845853D01*
X37642481Y-133938985D01*
X37761015Y-134057519D01*
X37854147Y-134196900D01*
X37918297Y-134351772D01*
X37951000Y-134516184D01*
X37951000Y-134683816D01*
X37918297Y-134848228D01*
X37854147Y-135003100D01*
X37761015Y-135142481D01*
X37642481Y-135261015D01*
X37503100Y-135354147D01*
X37348228Y-135418297D01*
X37183816Y-135451000D01*
X37016184Y-135451000D01*
X36851772Y-135418297D01*
X36696900Y-135354147D01*
X36557519Y-135261015D01*
X36438985Y-135142481D01*
X36345853Y-135003100D01*
X36281703Y-134848228D01*
X36249000Y-134683816D01*
X36249000Y-134516184D01*
X36281703Y-134351772D01*
X36345853Y-134196900D01*
X36438985Y-134057519D01*
X36557519Y-133938985D01*
X36696900Y-133845853D01*
X36851772Y-133781703D01*
X37016184Y-133749000D01*
X37183816Y-133749000D01*
X37348228Y-133781703D01*
X37348228Y-133781703D01*
G37*
G36*
X33777496Y-134264885D02*
X33859351Y-134298790D01*
X33932523Y-134347682D01*
X33933021Y-134348015D01*
X33995665Y-134410659D01*
X33995667Y-134410662D01*
X34044890Y-134484329D01*
X34078795Y-134566184D01*
X34096080Y-134653081D01*
X34096080Y-134741679D01*
X34078795Y-134828576D01*
X34044890Y-134910431D01*
X34021221Y-134945854D01*
X33995665Y-134984101D01*
X33933021Y-135046745D01*
X33933018Y-135046747D01*
X33859351Y-135095970D01*
X33777496Y-135129875D01*
X33690599Y-135147160D01*
X33602001Y-135147160D01*
X33515104Y-135129875D01*
X33433249Y-135095970D01*
X33359582Y-135046747D01*
X33359579Y-135046745D01*
X33296935Y-134984101D01*
X33271379Y-134945854D01*
X33247710Y-134910431D01*
X33213805Y-134828576D01*
X33196520Y-134741679D01*
X33196520Y-134653081D01*
X33213805Y-134566184D01*
X33247710Y-134484329D01*
X33296933Y-134410662D01*
X33296935Y-134410659D01*
X33359579Y-134348015D01*
X33360077Y-134347682D01*
X33433249Y-134298790D01*
X33515104Y-134264885D01*
X33602001Y-134247600D01*
X33690599Y-134247600D01*
X33777496Y-134264885D01*
X33777496Y-134264885D01*
G37*
G36*
X117679653Y-130449304D02*
X117916362Y-130547352D01*
X118129398Y-130689698D01*
X118310562Y-130870862D01*
X118452908Y-131083898D01*
X118550956Y-131320607D01*
X118600940Y-131571893D01*
X118600940Y-131828107D01*
X118550956Y-132079393D01*
X118452908Y-132316102D01*
X118310562Y-132529138D01*
X118129398Y-132710302D01*
X117916362Y-132852648D01*
X117679653Y-132950696D01*
X117428367Y-133000680D01*
X117172153Y-133000680D01*
X116920867Y-132950696D01*
X116684158Y-132852648D01*
X116471122Y-132710302D01*
X116289958Y-132529138D01*
X116147612Y-132316102D01*
X116049564Y-132079393D01*
X115999580Y-131828107D01*
X115999580Y-131571893D01*
X116049564Y-131320607D01*
X116147612Y-131083898D01*
X116289958Y-130870862D01*
X116471122Y-130689698D01*
X116684158Y-130547352D01*
X116920867Y-130449304D01*
X117172153Y-130399320D01*
X117428367Y-130399320D01*
X117679653Y-130449304D01*
X117679653Y-130449304D01*
G37*
G36*
X33780036Y-130467585D02*
X33861891Y-130501490D01*
X33930528Y-130547352D01*
X33935561Y-130550715D01*
X33998205Y-130613359D01*
X33998207Y-130613362D01*
X34047430Y-130687029D01*
X34081335Y-130768884D01*
X34098620Y-130855781D01*
X34098620Y-130944379D01*
X34081335Y-131031276D01*
X34047430Y-131113131D01*
X33998538Y-131186303D01*
X33998205Y-131186801D01*
X33935561Y-131249445D01*
X33935558Y-131249447D01*
X33861891Y-131298670D01*
X33780036Y-131332575D01*
X33693139Y-131349860D01*
X33604541Y-131349860D01*
X33517644Y-131332575D01*
X33435789Y-131298670D01*
X33362122Y-131249447D01*
X33362119Y-131249445D01*
X33299475Y-131186801D01*
X33299142Y-131186303D01*
X33250250Y-131113131D01*
X33216345Y-131031276D01*
X33199060Y-130944379D01*
X33199060Y-130855781D01*
X33216345Y-130768884D01*
X33250250Y-130687029D01*
X33299473Y-130613362D01*
X33299475Y-130613359D01*
X33362119Y-130550715D01*
X33367152Y-130547352D01*
X33435789Y-130501490D01*
X33517644Y-130467585D01*
X33604541Y-130450300D01*
X33693139Y-130450300D01*
X33780036Y-130467585D01*
X33780036Y-130467585D01*
G37*
G36*
X37348228Y-128781703D02*
X37503100Y-128845853D01*
X37642481Y-128938985D01*
X37761015Y-129057519D01*
X37854147Y-129196900D01*
X37918297Y-129351772D01*
X37951000Y-129516184D01*
X37951000Y-129683816D01*
X37918297Y-129848228D01*
X37854147Y-130003100D01*
X37761015Y-130142481D01*
X37642481Y-130261015D01*
X37503100Y-130354147D01*
X37348228Y-130418297D01*
X37183816Y-130451000D01*
X37016184Y-130451000D01*
X36851772Y-130418297D01*
X36696900Y-130354147D01*
X36557519Y-130261015D01*
X36438985Y-130142481D01*
X36345853Y-130003100D01*
X36281703Y-129848228D01*
X36249000Y-129683816D01*
X36249000Y-129516184D01*
X36281703Y-129351772D01*
X36345853Y-129196900D01*
X36438985Y-129057519D01*
X36557519Y-128938985D01*
X36696900Y-128845853D01*
X36851772Y-128781703D01*
X37016184Y-128749000D01*
X37183816Y-128749000D01*
X37348228Y-128781703D01*
X37348228Y-128781703D01*
G37*
G36*
X50048228Y-127261703D02*
X50203100Y-127325853D01*
X50342481Y-127418985D01*
X50461015Y-127537519D01*
X50554147Y-127676900D01*
X50618297Y-127831772D01*
X50651000Y-127996184D01*
X50651000Y-128163816D01*
X50618297Y-128328228D01*
X50554147Y-128483100D01*
X50461015Y-128622481D01*
X50342481Y-128741015D01*
X50203100Y-128834147D01*
X50048228Y-128898297D01*
X49883816Y-128931000D01*
X49716184Y-128931000D01*
X49551772Y-128898297D01*
X49396900Y-128834147D01*
X49257519Y-128741015D01*
X49138985Y-128622481D01*
X49045853Y-128483100D01*
X48981703Y-128328228D01*
X48949000Y-128163816D01*
X48949000Y-127996184D01*
X48981703Y-127831772D01*
X49045853Y-127676900D01*
X49138985Y-127537519D01*
X49257519Y-127418985D01*
X49396900Y-127325853D01*
X49551772Y-127261703D01*
X49716184Y-127229000D01*
X49883816Y-127229000D01*
X50048228Y-127261703D01*
X50048228Y-127261703D01*
G37*
G36*
X60571821Y-127241313D02*
X60571824Y-127241314D01*
X60571825Y-127241314D01*
X60732239Y-127289975D01*
X60732241Y-127289976D01*
X60732244Y-127289977D01*
X60880078Y-127368995D01*
X61009659Y-127475341D01*
X61116005Y-127604922D01*
X61195023Y-127752756D01*
X61195024Y-127752759D01*
X61195025Y-127752761D01*
X61228520Y-127863179D01*
X61243687Y-127913179D01*
X61260117Y-128080000D01*
X61243687Y-128246821D01*
X61243686Y-128246824D01*
X61243686Y-128246825D01*
X61210191Y-128357244D01*
X61195023Y-128407244D01*
X61116005Y-128555078D01*
X61009659Y-128684659D01*
X60880078Y-128791005D01*
X60732244Y-128870023D01*
X60732241Y-128870024D01*
X60732239Y-128870025D01*
X60571825Y-128918686D01*
X60571824Y-128918686D01*
X60571821Y-128918687D01*
X60446804Y-128931000D01*
X60363196Y-128931000D01*
X60238179Y-128918687D01*
X60238176Y-128918686D01*
X60238175Y-128918686D01*
X60077761Y-128870025D01*
X60077759Y-128870024D01*
X60077756Y-128870023D01*
X59929922Y-128791005D01*
X59800341Y-128684659D01*
X59693995Y-128555078D01*
X59614977Y-128407244D01*
X59599810Y-128357244D01*
X59566314Y-128246825D01*
X59566314Y-128246824D01*
X59566313Y-128246821D01*
X59549883Y-128080000D01*
X59566313Y-127913179D01*
X59581480Y-127863179D01*
X59614975Y-127752761D01*
X59614976Y-127752759D01*
X59614977Y-127752756D01*
X59693995Y-127604922D01*
X59800341Y-127475341D01*
X59929922Y-127368995D01*
X60077756Y-127289977D01*
X60077759Y-127289976D01*
X60077761Y-127289975D01*
X60238175Y-127241314D01*
X60238176Y-127241314D01*
X60238179Y-127241313D01*
X60363196Y-127229000D01*
X60446804Y-127229000D01*
X60571821Y-127241313D01*
X60571821Y-127241313D01*
G37*
G36*
X53583228Y-127261703D02*
X53738100Y-127325853D01*
X53877481Y-127418985D01*
X53996015Y-127537519D01*
X54089147Y-127676900D01*
X54153297Y-127831772D01*
X54186000Y-127996184D01*
X54186000Y-128163816D01*
X54153297Y-128328228D01*
X54089147Y-128483100D01*
X53996015Y-128622481D01*
X53877481Y-128741015D01*
X53738100Y-128834147D01*
X53583228Y-128898297D01*
X53418816Y-128931000D01*
X53251184Y-128931000D01*
X53086772Y-128898297D01*
X52931900Y-128834147D01*
X52792519Y-128741015D01*
X52673985Y-128622481D01*
X52580853Y-128483100D01*
X52516703Y-128328228D01*
X52484000Y-128163816D01*
X52484000Y-127996184D01*
X52516703Y-127831772D01*
X52580853Y-127676900D01*
X52673985Y-127537519D01*
X52792519Y-127418985D01*
X52931900Y-127325853D01*
X53086772Y-127261703D01*
X53251184Y-127229000D01*
X53418816Y-127229000D01*
X53583228Y-127261703D01*
X53583228Y-127261703D01*
G37*
G36*
X97743228Y-127261703D02*
X97898100Y-127325853D01*
X98037481Y-127418985D01*
X98156015Y-127537519D01*
X98249147Y-127676900D01*
X98313297Y-127831772D01*
X98346000Y-127996184D01*
X98346000Y-128163816D01*
X98313297Y-128328228D01*
X98249147Y-128483100D01*
X98156015Y-128622481D01*
X98037481Y-128741015D01*
X97898100Y-128834147D01*
X97743228Y-128898297D01*
X97578816Y-128931000D01*
X97411184Y-128931000D01*
X97246772Y-128898297D01*
X97091900Y-128834147D01*
X96952519Y-128741015D01*
X96833985Y-128622481D01*
X96740853Y-128483100D01*
X96676703Y-128328228D01*
X96644000Y-128163816D01*
X96644000Y-127996184D01*
X96676703Y-127831772D01*
X96740853Y-127676900D01*
X96833985Y-127537519D01*
X96952519Y-127418985D01*
X97091900Y-127325853D01*
X97246772Y-127261703D01*
X97411184Y-127229000D01*
X97578816Y-127229000D01*
X97743228Y-127261703D01*
X97743228Y-127261703D01*
G37*
G36*
X94208228Y-127261703D02*
X94363100Y-127325853D01*
X94502481Y-127418985D01*
X94621015Y-127537519D01*
X94714147Y-127676900D01*
X94778297Y-127831772D01*
X94811000Y-127996184D01*
X94811000Y-128163816D01*
X94778297Y-128328228D01*
X94714147Y-128483100D01*
X94621015Y-128622481D01*
X94502481Y-128741015D01*
X94363100Y-128834147D01*
X94208228Y-128898297D01*
X94043816Y-128931000D01*
X93876184Y-128931000D01*
X93711772Y-128898297D01*
X93556900Y-128834147D01*
X93417519Y-128741015D01*
X93298985Y-128622481D01*
X93205853Y-128483100D01*
X93141703Y-128328228D01*
X93109000Y-128163816D01*
X93109000Y-127996184D01*
X93141703Y-127831772D01*
X93205853Y-127676900D01*
X93298985Y-127537519D01*
X93417519Y-127418985D01*
X93556900Y-127325853D01*
X93711772Y-127261703D01*
X93876184Y-127229000D01*
X94043816Y-127229000D01*
X94208228Y-127261703D01*
X94208228Y-127261703D01*
G37*
G36*
X64188228Y-127261703D02*
X64343100Y-127325853D01*
X64482481Y-127418985D01*
X64601015Y-127537519D01*
X64694147Y-127676900D01*
X64758297Y-127831772D01*
X64791000Y-127996184D01*
X64791000Y-128163816D01*
X64758297Y-128328228D01*
X64694147Y-128483100D01*
X64601015Y-128622481D01*
X64482481Y-128741015D01*
X64343100Y-128834147D01*
X64188228Y-128898297D01*
X64023816Y-128931000D01*
X63856184Y-128931000D01*
X63691772Y-128898297D01*
X63536900Y-128834147D01*
X63397519Y-128741015D01*
X63278985Y-128622481D01*
X63185853Y-128483100D01*
X63121703Y-128328228D01*
X63089000Y-128163816D01*
X63089000Y-127996184D01*
X63121703Y-127831772D01*
X63185853Y-127676900D01*
X63278985Y-127537519D01*
X63397519Y-127418985D01*
X63536900Y-127325853D01*
X63691772Y-127261703D01*
X63856184Y-127229000D01*
X64023816Y-127229000D01*
X64188228Y-127261703D01*
X64188228Y-127261703D01*
G37*
G36*
X57036821Y-127241313D02*
X57036824Y-127241314D01*
X57036825Y-127241314D01*
X57197239Y-127289975D01*
X57197241Y-127289976D01*
X57197244Y-127289977D01*
X57345078Y-127368995D01*
X57474659Y-127475341D01*
X57581005Y-127604922D01*
X57660023Y-127752756D01*
X57660024Y-127752759D01*
X57660025Y-127752761D01*
X57693520Y-127863179D01*
X57708687Y-127913179D01*
X57725117Y-128080000D01*
X57708687Y-128246821D01*
X57708686Y-128246824D01*
X57708686Y-128246825D01*
X57675191Y-128357244D01*
X57660023Y-128407244D01*
X57581005Y-128555078D01*
X57474659Y-128684659D01*
X57345078Y-128791005D01*
X57197244Y-128870023D01*
X57197241Y-128870024D01*
X57197239Y-128870025D01*
X57036825Y-128918686D01*
X57036824Y-128918686D01*
X57036821Y-128918687D01*
X56911804Y-128931000D01*
X56828196Y-128931000D01*
X56703179Y-128918687D01*
X56703176Y-128918686D01*
X56703175Y-128918686D01*
X56542761Y-128870025D01*
X56542759Y-128870024D01*
X56542756Y-128870023D01*
X56394922Y-128791005D01*
X56265341Y-128684659D01*
X56158995Y-128555078D01*
X56079977Y-128407244D01*
X56064810Y-128357244D01*
X56031314Y-128246825D01*
X56031314Y-128246824D01*
X56031313Y-128246821D01*
X56014883Y-128080000D01*
X56031313Y-127913179D01*
X56046480Y-127863179D01*
X56079975Y-127752761D01*
X56079976Y-127752759D01*
X56079977Y-127752756D01*
X56158995Y-127604922D01*
X56265341Y-127475341D01*
X56394922Y-127368995D01*
X56542756Y-127289977D01*
X56542759Y-127289976D01*
X56542761Y-127289975D01*
X56703175Y-127241314D01*
X56703176Y-127241314D01*
X56703179Y-127241313D01*
X56828196Y-127229000D01*
X56911804Y-127229000D01*
X57036821Y-127241313D01*
X57036821Y-127241313D01*
G37*
G36*
X101196821Y-127241313D02*
X101196824Y-127241314D01*
X101196825Y-127241314D01*
X101357239Y-127289975D01*
X101357241Y-127289976D01*
X101357244Y-127289977D01*
X101505078Y-127368995D01*
X101634659Y-127475341D01*
X101741005Y-127604922D01*
X101820023Y-127752756D01*
X101820024Y-127752759D01*
X101820025Y-127752761D01*
X101853520Y-127863179D01*
X101868687Y-127913179D01*
X101885117Y-128080000D01*
X101868687Y-128246821D01*
X101868686Y-128246824D01*
X101868686Y-128246825D01*
X101835191Y-128357244D01*
X101820023Y-128407244D01*
X101741005Y-128555078D01*
X101634659Y-128684659D01*
X101505078Y-128791005D01*
X101357244Y-128870023D01*
X101357241Y-128870024D01*
X101357239Y-128870025D01*
X101196825Y-128918686D01*
X101196824Y-128918686D01*
X101196821Y-128918687D01*
X101071804Y-128931000D01*
X100988196Y-128931000D01*
X100863179Y-128918687D01*
X100863176Y-128918686D01*
X100863175Y-128918686D01*
X100702761Y-128870025D01*
X100702759Y-128870024D01*
X100702756Y-128870023D01*
X100554922Y-128791005D01*
X100425341Y-128684659D01*
X100318995Y-128555078D01*
X100239977Y-128407244D01*
X100224810Y-128357244D01*
X100191314Y-128246825D01*
X100191314Y-128246824D01*
X100191313Y-128246821D01*
X100174883Y-128080000D01*
X100191313Y-127913179D01*
X100206480Y-127863179D01*
X100239975Y-127752761D01*
X100239976Y-127752759D01*
X100239977Y-127752756D01*
X100318995Y-127604922D01*
X100425341Y-127475341D01*
X100554922Y-127368995D01*
X100702756Y-127289977D01*
X100702759Y-127289976D01*
X100702761Y-127289975D01*
X100863175Y-127241314D01*
X100863176Y-127241314D01*
X100863179Y-127241313D01*
X100988196Y-127229000D01*
X101071804Y-127229000D01*
X101196821Y-127241313D01*
X101196821Y-127241313D01*
G37*
G36*
X108266821Y-127241313D02*
X108266824Y-127241314D01*
X108266825Y-127241314D01*
X108427239Y-127289975D01*
X108427241Y-127289976D01*
X108427244Y-127289977D01*
X108575078Y-127368995D01*
X108704659Y-127475341D01*
X108811005Y-127604922D01*
X108890023Y-127752756D01*
X108890024Y-127752759D01*
X108890025Y-127752761D01*
X108923520Y-127863179D01*
X108938687Y-127913179D01*
X108955117Y-128080000D01*
X108938687Y-128246821D01*
X108938686Y-128246824D01*
X108938686Y-128246825D01*
X108905191Y-128357244D01*
X108890023Y-128407244D01*
X108811005Y-128555078D01*
X108704659Y-128684659D01*
X108575078Y-128791005D01*
X108427244Y-128870023D01*
X108427241Y-128870024D01*
X108427239Y-128870025D01*
X108266825Y-128918686D01*
X108266824Y-128918686D01*
X108266821Y-128918687D01*
X108141804Y-128931000D01*
X108058196Y-128931000D01*
X107933179Y-128918687D01*
X107933176Y-128918686D01*
X107933175Y-128918686D01*
X107772761Y-128870025D01*
X107772759Y-128870024D01*
X107772756Y-128870023D01*
X107624922Y-128791005D01*
X107495341Y-128684659D01*
X107388995Y-128555078D01*
X107309977Y-128407244D01*
X107294810Y-128357244D01*
X107261314Y-128246825D01*
X107261314Y-128246824D01*
X107261313Y-128246821D01*
X107244883Y-128080000D01*
X107261313Y-127913179D01*
X107276480Y-127863179D01*
X107309975Y-127752761D01*
X107309976Y-127752759D01*
X107309977Y-127752756D01*
X107388995Y-127604922D01*
X107495341Y-127475341D01*
X107624922Y-127368995D01*
X107772756Y-127289977D01*
X107772759Y-127289976D01*
X107772761Y-127289975D01*
X107933175Y-127241314D01*
X107933176Y-127241314D01*
X107933179Y-127241313D01*
X108058196Y-127229000D01*
X108141804Y-127229000D01*
X108266821Y-127241313D01*
X108266821Y-127241313D01*
G37*
G36*
X104813228Y-127261703D02*
X104968100Y-127325853D01*
X105107481Y-127418985D01*
X105226015Y-127537519D01*
X105319147Y-127676900D01*
X105383297Y-127831772D01*
X105416000Y-127996184D01*
X105416000Y-128163816D01*
X105383297Y-128328228D01*
X105319147Y-128483100D01*
X105226015Y-128622481D01*
X105107481Y-128741015D01*
X104968100Y-128834147D01*
X104813228Y-128898297D01*
X104648816Y-128931000D01*
X104481184Y-128931000D01*
X104316772Y-128898297D01*
X104161900Y-128834147D01*
X104022519Y-128741015D01*
X103903985Y-128622481D01*
X103810853Y-128483100D01*
X103746703Y-128328228D01*
X103714000Y-128163816D01*
X103714000Y-127996184D01*
X103746703Y-127831772D01*
X103810853Y-127676900D01*
X103903985Y-127537519D01*
X104022519Y-127418985D01*
X104161900Y-127325853D01*
X104316772Y-127261703D01*
X104481184Y-127229000D01*
X104648816Y-127229000D01*
X104813228Y-127261703D01*
X104813228Y-127261703D01*
G37*
G36*
X90551821Y-127191313D02*
X90551824Y-127191314D01*
X90551825Y-127191314D01*
X90712239Y-127239975D01*
X90712241Y-127239976D01*
X90712244Y-127239977D01*
X90860078Y-127318995D01*
X90989659Y-127425341D01*
X91096005Y-127554922D01*
X91175023Y-127702756D01*
X91175024Y-127702759D01*
X91175025Y-127702761D01*
X91190192Y-127752761D01*
X91223687Y-127863179D01*
X91240117Y-128030000D01*
X91223687Y-128196821D01*
X91223686Y-128196824D01*
X91223686Y-128196825D01*
X91208519Y-128246825D01*
X91175023Y-128357244D01*
X91096005Y-128505078D01*
X90989659Y-128634659D01*
X90860078Y-128741005D01*
X90712244Y-128820023D01*
X90712241Y-128820024D01*
X90712239Y-128820025D01*
X90551825Y-128868686D01*
X90551824Y-128868686D01*
X90551821Y-128868687D01*
X90426804Y-128881000D01*
X90343196Y-128881000D01*
X90218179Y-128868687D01*
X90218176Y-128868686D01*
X90218175Y-128868686D01*
X90057761Y-128820025D01*
X90057759Y-128820024D01*
X90057756Y-128820023D01*
X89909922Y-128741005D01*
X89780341Y-128634659D01*
X89673995Y-128505078D01*
X89594977Y-128357244D01*
X89561482Y-128246825D01*
X89546314Y-128196825D01*
X89546314Y-128196824D01*
X89546313Y-128196821D01*
X89529883Y-128030000D01*
X89546313Y-127863179D01*
X89579808Y-127752761D01*
X89594975Y-127702761D01*
X89594976Y-127702759D01*
X89594977Y-127702756D01*
X89673995Y-127554922D01*
X89780341Y-127425341D01*
X89909922Y-127318995D01*
X90057756Y-127239977D01*
X90057759Y-127239976D01*
X90057761Y-127239975D01*
X90218175Y-127191314D01*
X90218176Y-127191314D01*
X90218179Y-127191313D01*
X90343196Y-127179000D01*
X90426804Y-127179000D01*
X90551821Y-127191313D01*
X90551821Y-127191313D01*
G37*
G36*
X70231821Y-127191313D02*
X70231824Y-127191314D01*
X70231825Y-127191314D01*
X70392239Y-127239975D01*
X70392241Y-127239976D01*
X70392244Y-127239977D01*
X70540078Y-127318995D01*
X70669659Y-127425341D01*
X70776005Y-127554922D01*
X70855023Y-127702756D01*
X70855024Y-127702759D01*
X70855025Y-127702761D01*
X70870192Y-127752761D01*
X70903687Y-127863179D01*
X70920117Y-128030000D01*
X70903687Y-128196821D01*
X70903686Y-128196824D01*
X70903686Y-128196825D01*
X70888519Y-128246825D01*
X70855023Y-128357244D01*
X70776005Y-128505078D01*
X70669659Y-128634659D01*
X70540078Y-128741005D01*
X70392244Y-128820023D01*
X70392241Y-128820024D01*
X70392239Y-128820025D01*
X70231825Y-128868686D01*
X70231824Y-128868686D01*
X70231821Y-128868687D01*
X70106804Y-128881000D01*
X70023196Y-128881000D01*
X69898179Y-128868687D01*
X69898176Y-128868686D01*
X69898175Y-128868686D01*
X69737761Y-128820025D01*
X69737759Y-128820024D01*
X69737756Y-128820023D01*
X69589922Y-128741005D01*
X69460341Y-128634659D01*
X69353995Y-128505078D01*
X69274977Y-128357244D01*
X69241482Y-128246825D01*
X69226314Y-128196825D01*
X69226314Y-128196824D01*
X69226313Y-128196821D01*
X69209883Y-128030000D01*
X69226313Y-127863179D01*
X69259808Y-127752761D01*
X69274975Y-127702761D01*
X69274976Y-127702759D01*
X69274977Y-127702756D01*
X69353995Y-127554922D01*
X69460341Y-127425341D01*
X69589922Y-127318995D01*
X69737756Y-127239977D01*
X69737759Y-127239976D01*
X69737761Y-127239975D01*
X69898175Y-127191314D01*
X69898176Y-127191314D01*
X69898179Y-127191313D01*
X70023196Y-127179000D01*
X70106804Y-127179000D01*
X70231821Y-127191313D01*
X70231821Y-127191313D01*
G37*
G36*
X72771821Y-127191313D02*
X72771824Y-127191314D01*
X72771825Y-127191314D01*
X72932239Y-127239975D01*
X72932241Y-127239976D01*
X72932244Y-127239977D01*
X73080078Y-127318995D01*
X73209659Y-127425341D01*
X73316005Y-127554922D01*
X73395023Y-127702756D01*
X73395024Y-127702759D01*
X73395025Y-127702761D01*
X73410192Y-127752761D01*
X73443687Y-127863179D01*
X73460117Y-128030000D01*
X73443687Y-128196821D01*
X73443686Y-128196824D01*
X73443686Y-128196825D01*
X73428519Y-128246825D01*
X73395023Y-128357244D01*
X73316005Y-128505078D01*
X73209659Y-128634659D01*
X73080078Y-128741005D01*
X72932244Y-128820023D01*
X72932241Y-128820024D01*
X72932239Y-128820025D01*
X72771825Y-128868686D01*
X72771824Y-128868686D01*
X72771821Y-128868687D01*
X72646804Y-128881000D01*
X72563196Y-128881000D01*
X72438179Y-128868687D01*
X72438176Y-128868686D01*
X72438175Y-128868686D01*
X72277761Y-128820025D01*
X72277759Y-128820024D01*
X72277756Y-128820023D01*
X72129922Y-128741005D01*
X72000341Y-128634659D01*
X71893995Y-128505078D01*
X71814977Y-128357244D01*
X71781482Y-128246825D01*
X71766314Y-128196825D01*
X71766314Y-128196824D01*
X71766313Y-128196821D01*
X71749883Y-128030000D01*
X71766313Y-127863179D01*
X71799808Y-127752761D01*
X71814975Y-127702761D01*
X71814976Y-127702759D01*
X71814977Y-127702756D01*
X71893995Y-127554922D01*
X72000341Y-127425341D01*
X72129922Y-127318995D01*
X72277756Y-127239977D01*
X72277759Y-127239976D01*
X72277761Y-127239975D01*
X72438175Y-127191314D01*
X72438176Y-127191314D01*
X72438179Y-127191313D01*
X72563196Y-127179000D01*
X72646804Y-127179000D01*
X72771821Y-127191313D01*
X72771821Y-127191313D01*
G37*
G36*
X75311821Y-127191313D02*
X75311824Y-127191314D01*
X75311825Y-127191314D01*
X75472239Y-127239975D01*
X75472241Y-127239976D01*
X75472244Y-127239977D01*
X75620078Y-127318995D01*
X75749659Y-127425341D01*
X75856005Y-127554922D01*
X75935023Y-127702756D01*
X75935024Y-127702759D01*
X75935025Y-127702761D01*
X75950192Y-127752761D01*
X75983687Y-127863179D01*
X76000117Y-128030000D01*
X75983687Y-128196821D01*
X75983686Y-128196824D01*
X75983686Y-128196825D01*
X75968519Y-128246825D01*
X75935023Y-128357244D01*
X75856005Y-128505078D01*
X75749659Y-128634659D01*
X75620078Y-128741005D01*
X75472244Y-128820023D01*
X75472241Y-128820024D01*
X75472239Y-128820025D01*
X75311825Y-128868686D01*
X75311824Y-128868686D01*
X75311821Y-128868687D01*
X75186804Y-128881000D01*
X75103196Y-128881000D01*
X74978179Y-128868687D01*
X74978176Y-128868686D01*
X74978175Y-128868686D01*
X74817761Y-128820025D01*
X74817759Y-128820024D01*
X74817756Y-128820023D01*
X74669922Y-128741005D01*
X74540341Y-128634659D01*
X74433995Y-128505078D01*
X74354977Y-128357244D01*
X74321482Y-128246825D01*
X74306314Y-128196825D01*
X74306314Y-128196824D01*
X74306313Y-128196821D01*
X74289883Y-128030000D01*
X74306313Y-127863179D01*
X74339808Y-127752761D01*
X74354975Y-127702761D01*
X74354976Y-127702759D01*
X74354977Y-127702756D01*
X74433995Y-127554922D01*
X74540341Y-127425341D01*
X74669922Y-127318995D01*
X74817756Y-127239977D01*
X74817759Y-127239976D01*
X74817761Y-127239975D01*
X74978175Y-127191314D01*
X74978176Y-127191314D01*
X74978179Y-127191313D01*
X75103196Y-127179000D01*
X75186804Y-127179000D01*
X75311821Y-127191313D01*
X75311821Y-127191313D01*
G37*
G36*
X77851821Y-127191313D02*
X77851824Y-127191314D01*
X77851825Y-127191314D01*
X78012239Y-127239975D01*
X78012241Y-127239976D01*
X78012244Y-127239977D01*
X78160078Y-127318995D01*
X78289659Y-127425341D01*
X78396005Y-127554922D01*
X78475023Y-127702756D01*
X78475024Y-127702759D01*
X78475025Y-127702761D01*
X78490192Y-127752761D01*
X78523687Y-127863179D01*
X78540117Y-128030000D01*
X78523687Y-128196821D01*
X78523686Y-128196824D01*
X78523686Y-128196825D01*
X78508519Y-128246825D01*
X78475023Y-128357244D01*
X78396005Y-128505078D01*
X78289659Y-128634659D01*
X78160078Y-128741005D01*
X78012244Y-128820023D01*
X78012241Y-128820024D01*
X78012239Y-128820025D01*
X77851825Y-128868686D01*
X77851824Y-128868686D01*
X77851821Y-128868687D01*
X77726804Y-128881000D01*
X77643196Y-128881000D01*
X77518179Y-128868687D01*
X77518176Y-128868686D01*
X77518175Y-128868686D01*
X77357761Y-128820025D01*
X77357759Y-128820024D01*
X77357756Y-128820023D01*
X77209922Y-128741005D01*
X77080341Y-128634659D01*
X76973995Y-128505078D01*
X76894977Y-128357244D01*
X76861482Y-128246825D01*
X76846314Y-128196825D01*
X76846314Y-128196824D01*
X76846313Y-128196821D01*
X76829883Y-128030000D01*
X76846313Y-127863179D01*
X76879808Y-127752761D01*
X76894975Y-127702761D01*
X76894976Y-127702759D01*
X76894977Y-127702756D01*
X76973995Y-127554922D01*
X77080341Y-127425341D01*
X77209922Y-127318995D01*
X77357756Y-127239977D01*
X77357759Y-127239976D01*
X77357761Y-127239975D01*
X77518175Y-127191314D01*
X77518176Y-127191314D01*
X77518179Y-127191313D01*
X77643196Y-127179000D01*
X77726804Y-127179000D01*
X77851821Y-127191313D01*
X77851821Y-127191313D01*
G37*
G36*
X80391821Y-127191313D02*
X80391824Y-127191314D01*
X80391825Y-127191314D01*
X80552239Y-127239975D01*
X80552241Y-127239976D01*
X80552244Y-127239977D01*
X80700078Y-127318995D01*
X80829659Y-127425341D01*
X80936005Y-127554922D01*
X81015023Y-127702756D01*
X81015024Y-127702759D01*
X81015025Y-127702761D01*
X81030192Y-127752761D01*
X81063687Y-127863179D01*
X81080117Y-128030000D01*
X81063687Y-128196821D01*
X81063686Y-128196824D01*
X81063686Y-128196825D01*
X81048519Y-128246825D01*
X81015023Y-128357244D01*
X80936005Y-128505078D01*
X80829659Y-128634659D01*
X80700078Y-128741005D01*
X80552244Y-128820023D01*
X80552241Y-128820024D01*
X80552239Y-128820025D01*
X80391825Y-128868686D01*
X80391824Y-128868686D01*
X80391821Y-128868687D01*
X80266804Y-128881000D01*
X80183196Y-128881000D01*
X80058179Y-128868687D01*
X80058176Y-128868686D01*
X80058175Y-128868686D01*
X79897761Y-128820025D01*
X79897759Y-128820024D01*
X79897756Y-128820023D01*
X79749922Y-128741005D01*
X79620341Y-128634659D01*
X79513995Y-128505078D01*
X79434977Y-128357244D01*
X79401482Y-128246825D01*
X79386314Y-128196825D01*
X79386314Y-128196824D01*
X79386313Y-128196821D01*
X79369883Y-128030000D01*
X79386313Y-127863179D01*
X79419808Y-127752761D01*
X79434975Y-127702761D01*
X79434976Y-127702759D01*
X79434977Y-127702756D01*
X79513995Y-127554922D01*
X79620341Y-127425341D01*
X79749922Y-127318995D01*
X79897756Y-127239977D01*
X79897759Y-127239976D01*
X79897761Y-127239975D01*
X80058175Y-127191314D01*
X80058176Y-127191314D01*
X80058179Y-127191313D01*
X80183196Y-127179000D01*
X80266804Y-127179000D01*
X80391821Y-127191313D01*
X80391821Y-127191313D01*
G37*
G36*
X82931821Y-127191313D02*
X82931824Y-127191314D01*
X82931825Y-127191314D01*
X83092239Y-127239975D01*
X83092241Y-127239976D01*
X83092244Y-127239977D01*
X83240078Y-127318995D01*
X83369659Y-127425341D01*
X83476005Y-127554922D01*
X83555023Y-127702756D01*
X83555024Y-127702759D01*
X83555025Y-127702761D01*
X83570192Y-127752761D01*
X83603687Y-127863179D01*
X83620117Y-128030000D01*
X83603687Y-128196821D01*
X83603686Y-128196824D01*
X83603686Y-128196825D01*
X83588519Y-128246825D01*
X83555023Y-128357244D01*
X83476005Y-128505078D01*
X83369659Y-128634659D01*
X83240078Y-128741005D01*
X83092244Y-128820023D01*
X83092241Y-128820024D01*
X83092239Y-128820025D01*
X82931825Y-128868686D01*
X82931824Y-128868686D01*
X82931821Y-128868687D01*
X82806804Y-128881000D01*
X82723196Y-128881000D01*
X82598179Y-128868687D01*
X82598176Y-128868686D01*
X82598175Y-128868686D01*
X82437761Y-128820025D01*
X82437759Y-128820024D01*
X82437756Y-128820023D01*
X82289922Y-128741005D01*
X82160341Y-128634659D01*
X82053995Y-128505078D01*
X81974977Y-128357244D01*
X81941482Y-128246825D01*
X81926314Y-128196825D01*
X81926314Y-128196824D01*
X81926313Y-128196821D01*
X81909883Y-128030000D01*
X81926313Y-127863179D01*
X81959808Y-127752761D01*
X81974975Y-127702761D01*
X81974976Y-127702759D01*
X81974977Y-127702756D01*
X82053995Y-127554922D01*
X82160341Y-127425341D01*
X82289922Y-127318995D01*
X82437756Y-127239977D01*
X82437759Y-127239976D01*
X82437761Y-127239975D01*
X82598175Y-127191314D01*
X82598176Y-127191314D01*
X82598179Y-127191313D01*
X82723196Y-127179000D01*
X82806804Y-127179000D01*
X82931821Y-127191313D01*
X82931821Y-127191313D01*
G37*
G36*
X85471821Y-127191313D02*
X85471824Y-127191314D01*
X85471825Y-127191314D01*
X85632239Y-127239975D01*
X85632241Y-127239976D01*
X85632244Y-127239977D01*
X85780078Y-127318995D01*
X85909659Y-127425341D01*
X86016005Y-127554922D01*
X86095023Y-127702756D01*
X86095024Y-127702759D01*
X86095025Y-127702761D01*
X86110192Y-127752761D01*
X86143687Y-127863179D01*
X86160117Y-128030000D01*
X86143687Y-128196821D01*
X86143686Y-128196824D01*
X86143686Y-128196825D01*
X86128519Y-128246825D01*
X86095023Y-128357244D01*
X86016005Y-128505078D01*
X85909659Y-128634659D01*
X85780078Y-128741005D01*
X85632244Y-128820023D01*
X85632241Y-128820024D01*
X85632239Y-128820025D01*
X85471825Y-128868686D01*
X85471824Y-128868686D01*
X85471821Y-128868687D01*
X85346804Y-128881000D01*
X85263196Y-128881000D01*
X85138179Y-128868687D01*
X85138176Y-128868686D01*
X85138175Y-128868686D01*
X84977761Y-128820025D01*
X84977759Y-128820024D01*
X84977756Y-128820023D01*
X84829922Y-128741005D01*
X84700341Y-128634659D01*
X84593995Y-128505078D01*
X84514977Y-128357244D01*
X84481482Y-128246825D01*
X84466314Y-128196825D01*
X84466314Y-128196824D01*
X84466313Y-128196821D01*
X84449883Y-128030000D01*
X84466313Y-127863179D01*
X84499808Y-127752761D01*
X84514975Y-127702761D01*
X84514976Y-127702759D01*
X84514977Y-127702756D01*
X84593995Y-127554922D01*
X84700341Y-127425341D01*
X84829922Y-127318995D01*
X84977756Y-127239977D01*
X84977759Y-127239976D01*
X84977761Y-127239975D01*
X85138175Y-127191314D01*
X85138176Y-127191314D01*
X85138179Y-127191313D01*
X85263196Y-127179000D01*
X85346804Y-127179000D01*
X85471821Y-127191313D01*
X85471821Y-127191313D01*
G37*
G36*
X88011821Y-127191313D02*
X88011824Y-127191314D01*
X88011825Y-127191314D01*
X88172239Y-127239975D01*
X88172241Y-127239976D01*
X88172244Y-127239977D01*
X88320078Y-127318995D01*
X88449659Y-127425341D01*
X88556005Y-127554922D01*
X88635023Y-127702756D01*
X88635024Y-127702759D01*
X88635025Y-127702761D01*
X88650192Y-127752761D01*
X88683687Y-127863179D01*
X88700117Y-128030000D01*
X88683687Y-128196821D01*
X88683686Y-128196824D01*
X88683686Y-128196825D01*
X88668519Y-128246825D01*
X88635023Y-128357244D01*
X88556005Y-128505078D01*
X88449659Y-128634659D01*
X88320078Y-128741005D01*
X88172244Y-128820023D01*
X88172241Y-128820024D01*
X88172239Y-128820025D01*
X88011825Y-128868686D01*
X88011824Y-128868686D01*
X88011821Y-128868687D01*
X87886804Y-128881000D01*
X87803196Y-128881000D01*
X87678179Y-128868687D01*
X87678176Y-128868686D01*
X87678175Y-128868686D01*
X87517761Y-128820025D01*
X87517759Y-128820024D01*
X87517756Y-128820023D01*
X87369922Y-128741005D01*
X87240341Y-128634659D01*
X87133995Y-128505078D01*
X87054977Y-128357244D01*
X87021482Y-128246825D01*
X87006314Y-128196825D01*
X87006314Y-128196824D01*
X87006313Y-128196821D01*
X86989883Y-128030000D01*
X87006313Y-127863179D01*
X87039808Y-127752761D01*
X87054975Y-127702761D01*
X87054976Y-127702759D01*
X87054977Y-127702756D01*
X87133995Y-127554922D01*
X87240341Y-127425341D01*
X87369922Y-127318995D01*
X87517756Y-127239977D01*
X87517759Y-127239976D01*
X87517761Y-127239975D01*
X87678175Y-127191314D01*
X87678176Y-127191314D01*
X87678179Y-127191313D01*
X87803196Y-127179000D01*
X87886804Y-127179000D01*
X88011821Y-127191313D01*
X88011821Y-127191313D01*
G37*
G36*
X67691821Y-127191313D02*
X67691824Y-127191314D01*
X67691825Y-127191314D01*
X67852239Y-127239975D01*
X67852241Y-127239976D01*
X67852244Y-127239977D01*
X68000078Y-127318995D01*
X68129659Y-127425341D01*
X68236005Y-127554922D01*
X68315023Y-127702756D01*
X68315024Y-127702759D01*
X68315025Y-127702761D01*
X68330192Y-127752761D01*
X68363687Y-127863179D01*
X68380117Y-128030000D01*
X68363687Y-128196821D01*
X68363686Y-128196824D01*
X68363686Y-128196825D01*
X68348519Y-128246825D01*
X68315023Y-128357244D01*
X68236005Y-128505078D01*
X68129659Y-128634659D01*
X68000078Y-128741005D01*
X67852244Y-128820023D01*
X67852241Y-128820024D01*
X67852239Y-128820025D01*
X67691825Y-128868686D01*
X67691824Y-128868686D01*
X67691821Y-128868687D01*
X67566804Y-128881000D01*
X67483196Y-128881000D01*
X67358179Y-128868687D01*
X67358176Y-128868686D01*
X67358175Y-128868686D01*
X67197761Y-128820025D01*
X67197759Y-128820024D01*
X67197756Y-128820023D01*
X67049922Y-128741005D01*
X66920341Y-128634659D01*
X66813995Y-128505078D01*
X66734977Y-128357244D01*
X66701482Y-128246825D01*
X66686314Y-128196825D01*
X66686314Y-128196824D01*
X66686313Y-128196821D01*
X66669883Y-128030000D01*
X66686313Y-127863179D01*
X66719808Y-127752761D01*
X66734975Y-127702761D01*
X66734976Y-127702759D01*
X66734977Y-127702756D01*
X66813995Y-127554922D01*
X66920341Y-127425341D01*
X67049922Y-127318995D01*
X67197756Y-127239977D01*
X67197759Y-127239976D01*
X67197761Y-127239975D01*
X67358175Y-127191314D01*
X67358176Y-127191314D01*
X67358179Y-127191313D01*
X67483196Y-127179000D01*
X67566804Y-127179000D01*
X67691821Y-127191313D01*
X67691821Y-127191313D01*
G37*
G36*
X115180293Y-125453124D02*
X115417002Y-125551172D01*
X115630038Y-125693518D01*
X115811202Y-125874682D01*
X115953548Y-126087718D01*
X116051596Y-126324427D01*
X116101580Y-126575713D01*
X116101580Y-126831927D01*
X116051596Y-127083213D01*
X115953548Y-127319922D01*
X115811202Y-127532958D01*
X115630038Y-127714122D01*
X115417002Y-127856468D01*
X115180293Y-127954516D01*
X114929007Y-128004500D01*
X114672793Y-128004500D01*
X114421507Y-127954516D01*
X114184798Y-127856468D01*
X113971762Y-127714122D01*
X113790598Y-127532958D01*
X113648252Y-127319922D01*
X113550204Y-127083213D01*
X113500220Y-126831927D01*
X113500220Y-126575713D01*
X113550204Y-126324427D01*
X113648252Y-126087718D01*
X113790598Y-125874682D01*
X113971762Y-125693518D01*
X114184798Y-125551172D01*
X114421507Y-125453124D01*
X114672793Y-125403140D01*
X114929007Y-125403140D01*
X115180293Y-125453124D01*
X115180293Y-125453124D01*
G37*
G36*
X127677093Y-125448044D02*
X127913802Y-125546092D01*
X128126838Y-125688438D01*
X128308002Y-125869602D01*
X128450348Y-126082638D01*
X128548396Y-126319347D01*
X128598380Y-126570633D01*
X128598380Y-126826847D01*
X128548396Y-127078133D01*
X128450348Y-127314842D01*
X128308002Y-127527878D01*
X128126838Y-127709042D01*
X127913802Y-127851388D01*
X127677093Y-127949436D01*
X127425807Y-127999420D01*
X127169593Y-127999420D01*
X126918307Y-127949436D01*
X126681598Y-127851388D01*
X126468562Y-127709042D01*
X126287398Y-127527878D01*
X126145052Y-127314842D01*
X126047004Y-127078133D01*
X125997020Y-126826847D01*
X125997020Y-126570633D01*
X126047004Y-126319347D01*
X126145052Y-126082638D01*
X126287398Y-125869602D01*
X126468562Y-125688438D01*
X126681598Y-125546092D01*
X126918307Y-125448044D01*
X127169593Y-125398060D01*
X127425807Y-125398060D01*
X127677093Y-125448044D01*
X127677093Y-125448044D01*
G37*
G36*
X74848228Y-124281703D02*
X75003100Y-124345853D01*
X75142481Y-124438985D01*
X75261015Y-124557519D01*
X75354147Y-124696900D01*
X75418297Y-124851772D01*
X75451000Y-125016184D01*
X75451000Y-125183816D01*
X75418297Y-125348228D01*
X75354147Y-125503100D01*
X75261015Y-125642481D01*
X75142481Y-125761015D01*
X75003100Y-125854147D01*
X74848228Y-125918297D01*
X74683816Y-125951000D01*
X74516184Y-125951000D01*
X74351772Y-125918297D01*
X74196900Y-125854147D01*
X74057519Y-125761015D01*
X73938985Y-125642481D01*
X73845853Y-125503100D01*
X73781703Y-125348228D01*
X73749000Y-125183816D01*
X73749000Y-125016184D01*
X73781703Y-124851772D01*
X73845853Y-124696900D01*
X73938985Y-124557519D01*
X74057519Y-124438985D01*
X74196900Y-124345853D01*
X74351772Y-124281703D01*
X74516184Y-124249000D01*
X74683816Y-124249000D01*
X74848228Y-124281703D01*
X74848228Y-124281703D01*
G37*
G36*
X60881560Y-124281703D02*
X61036432Y-124345853D01*
X61175813Y-124438985D01*
X61294347Y-124557519D01*
X61387479Y-124696900D01*
X61451629Y-124851772D01*
X61484332Y-125016184D01*
X61484332Y-125183816D01*
X61451629Y-125348228D01*
X61387479Y-125503100D01*
X61294347Y-125642481D01*
X61175813Y-125761015D01*
X61036432Y-125854147D01*
X60881560Y-125918297D01*
X60717148Y-125951000D01*
X60549516Y-125951000D01*
X60385104Y-125918297D01*
X60230232Y-125854147D01*
X60090851Y-125761015D01*
X59972317Y-125642481D01*
X59879185Y-125503100D01*
X59815035Y-125348228D01*
X59782332Y-125183816D01*
X59782332Y-125016184D01*
X59815035Y-124851772D01*
X59879185Y-124696900D01*
X59972317Y-124557519D01*
X60090851Y-124438985D01*
X60230232Y-124345853D01*
X60385104Y-124281703D01*
X60549516Y-124249000D01*
X60717148Y-124249000D01*
X60881560Y-124281703D01*
X60881560Y-124281703D01*
G37*
G36*
X65881560Y-124281703D02*
X66036432Y-124345853D01*
X66175813Y-124438985D01*
X66294347Y-124557519D01*
X66387479Y-124696900D01*
X66451629Y-124851772D01*
X66484332Y-125016184D01*
X66484332Y-125183816D01*
X66451629Y-125348228D01*
X66387479Y-125503100D01*
X66294347Y-125642481D01*
X66175813Y-125761015D01*
X66036432Y-125854147D01*
X65881560Y-125918297D01*
X65717148Y-125951000D01*
X65549516Y-125951000D01*
X65385104Y-125918297D01*
X65230232Y-125854147D01*
X65090851Y-125761015D01*
X64972317Y-125642481D01*
X64879185Y-125503100D01*
X64815035Y-125348228D01*
X64782332Y-125183816D01*
X64782332Y-125016184D01*
X64815035Y-124851772D01*
X64879185Y-124696900D01*
X64972317Y-124557519D01*
X65090851Y-124438985D01*
X65230232Y-124345853D01*
X65385104Y-124281703D01*
X65549516Y-124249000D01*
X65717148Y-124249000D01*
X65881560Y-124281703D01*
X65881560Y-124281703D01*
G37*
G36*
X56914894Y-124281703D02*
X57069766Y-124345853D01*
X57209147Y-124438985D01*
X57327681Y-124557519D01*
X57420813Y-124696900D01*
X57484963Y-124851772D01*
X57517666Y-125016184D01*
X57517666Y-125183816D01*
X57484963Y-125348228D01*
X57420813Y-125503100D01*
X57327681Y-125642481D01*
X57209147Y-125761015D01*
X57069766Y-125854147D01*
X56914894Y-125918297D01*
X56750482Y-125951000D01*
X56582850Y-125951000D01*
X56418438Y-125918297D01*
X56263566Y-125854147D01*
X56124185Y-125761015D01*
X56005651Y-125642481D01*
X55912519Y-125503100D01*
X55848369Y-125348228D01*
X55815666Y-125183816D01*
X55815666Y-125016184D01*
X55848369Y-124851772D01*
X55912519Y-124696900D01*
X56005651Y-124557519D01*
X56124185Y-124438985D01*
X56263566Y-124345853D01*
X56418438Y-124281703D01*
X56582850Y-124249000D01*
X56750482Y-124249000D01*
X56914894Y-124281703D01*
X56914894Y-124281703D01*
G37*
G36*
X51914894Y-124281703D02*
X52069766Y-124345853D01*
X52209147Y-124438985D01*
X52327681Y-124557519D01*
X52420813Y-124696900D01*
X52484963Y-124851772D01*
X52517666Y-125016184D01*
X52517666Y-125183816D01*
X52484963Y-125348228D01*
X52420813Y-125503100D01*
X52327681Y-125642481D01*
X52209147Y-125761015D01*
X52069766Y-125854147D01*
X51914894Y-125918297D01*
X51750482Y-125951000D01*
X51582850Y-125951000D01*
X51418438Y-125918297D01*
X51263566Y-125854147D01*
X51124185Y-125761015D01*
X51005651Y-125642481D01*
X50912519Y-125503100D01*
X50848369Y-125348228D01*
X50815666Y-125183816D01*
X50815666Y-125016184D01*
X50848369Y-124851772D01*
X50912519Y-124696900D01*
X51005651Y-124557519D01*
X51124185Y-124438985D01*
X51263566Y-124345853D01*
X51418438Y-124281703D01*
X51582850Y-124249000D01*
X51750482Y-124249000D01*
X51914894Y-124281703D01*
X51914894Y-124281703D01*
G37*
G36*
X42948228Y-124281703D02*
X43103100Y-124345853D01*
X43242481Y-124438985D01*
X43361015Y-124557519D01*
X43454147Y-124696900D01*
X43518297Y-124851772D01*
X43551000Y-125016184D01*
X43551000Y-125183816D01*
X43518297Y-125348228D01*
X43454147Y-125503100D01*
X43361015Y-125642481D01*
X43242481Y-125761015D01*
X43103100Y-125854147D01*
X42948228Y-125918297D01*
X42783816Y-125951000D01*
X42616184Y-125951000D01*
X42451772Y-125918297D01*
X42296900Y-125854147D01*
X42157519Y-125761015D01*
X42038985Y-125642481D01*
X41945853Y-125503100D01*
X41881703Y-125348228D01*
X41849000Y-125183816D01*
X41849000Y-125016184D01*
X41881703Y-124851772D01*
X41945853Y-124696900D01*
X42038985Y-124557519D01*
X42157519Y-124438985D01*
X42296900Y-124345853D01*
X42451772Y-124281703D01*
X42616184Y-124249000D01*
X42783816Y-124249000D01*
X42948228Y-124281703D01*
X42948228Y-124281703D01*
G37*
G36*
X47948228Y-124281703D02*
X48103100Y-124345853D01*
X48242481Y-124438985D01*
X48361015Y-124557519D01*
X48454147Y-124696900D01*
X48518297Y-124851772D01*
X48551000Y-125016184D01*
X48551000Y-125183816D01*
X48518297Y-125348228D01*
X48454147Y-125503100D01*
X48361015Y-125642481D01*
X48242481Y-125761015D01*
X48103100Y-125854147D01*
X47948228Y-125918297D01*
X47783816Y-125951000D01*
X47616184Y-125951000D01*
X47451772Y-125918297D01*
X47296900Y-125854147D01*
X47157519Y-125761015D01*
X47038985Y-125642481D01*
X46945853Y-125503100D01*
X46881703Y-125348228D01*
X46849000Y-125183816D01*
X46849000Y-125016184D01*
X46881703Y-124851772D01*
X46945853Y-124696900D01*
X47038985Y-124557519D01*
X47157519Y-124438985D01*
X47296900Y-124345853D01*
X47451772Y-124281703D01*
X47616184Y-124249000D01*
X47783816Y-124249000D01*
X47948228Y-124281703D01*
X47948228Y-124281703D01*
G37*
G36*
X69848228Y-124281703D02*
X70003100Y-124345853D01*
X70142481Y-124438985D01*
X70261015Y-124557519D01*
X70354147Y-124696900D01*
X70418297Y-124851772D01*
X70451000Y-125016184D01*
X70451000Y-125183816D01*
X70418297Y-125348228D01*
X70354147Y-125503100D01*
X70261015Y-125642481D01*
X70142481Y-125761015D01*
X70003100Y-125854147D01*
X69848228Y-125918297D01*
X69683816Y-125951000D01*
X69516184Y-125951000D01*
X69351772Y-125918297D01*
X69196900Y-125854147D01*
X69057519Y-125761015D01*
X68938985Y-125642481D01*
X68845853Y-125503100D01*
X68781703Y-125348228D01*
X68749000Y-125183816D01*
X68749000Y-125016184D01*
X68781703Y-124851772D01*
X68845853Y-124696900D01*
X68938985Y-124557519D01*
X69057519Y-124438985D01*
X69196900Y-124345853D01*
X69351772Y-124281703D01*
X69516184Y-124249000D01*
X69683816Y-124249000D01*
X69848228Y-124281703D01*
X69848228Y-124281703D01*
G37*
G36*
X117682193Y-122951224D02*
X117918902Y-123049272D01*
X118131938Y-123191618D01*
X118313102Y-123372782D01*
X118455448Y-123585818D01*
X118553496Y-123822527D01*
X118603480Y-124073813D01*
X118603480Y-124330027D01*
X118553496Y-124581313D01*
X118455448Y-124818022D01*
X118313102Y-125031058D01*
X118131938Y-125212222D01*
X117918902Y-125354568D01*
X117682193Y-125452616D01*
X117430907Y-125502600D01*
X117174693Y-125502600D01*
X116923407Y-125452616D01*
X116686698Y-125354568D01*
X116473662Y-125212222D01*
X116292498Y-125031058D01*
X116150152Y-124818022D01*
X116052104Y-124581313D01*
X116002120Y-124330027D01*
X116002120Y-124073813D01*
X116052104Y-123822527D01*
X116150152Y-123585818D01*
X116292498Y-123372782D01*
X116473662Y-123191618D01*
X116686698Y-123049272D01*
X116923407Y-122951224D01*
X117174693Y-122901240D01*
X117430907Y-122901240D01*
X117682193Y-122951224D01*
X117682193Y-122951224D01*
G37*
G36*
X39630442Y-123605518D02*
X39696627Y-123612037D01*
X39809853Y-123646384D01*
X39866467Y-123663557D01*
X40005087Y-123737652D01*
X40022991Y-123747222D01*
X40058729Y-123776552D01*
X40160186Y-123859814D01*
X40243448Y-123961271D01*
X40272778Y-123997009D01*
X40272779Y-123997011D01*
X40356443Y-124153533D01*
X40356443Y-124153534D01*
X40407963Y-124323373D01*
X40425359Y-124500000D01*
X40407963Y-124676627D01*
X40401813Y-124696900D01*
X40356443Y-124846467D01*
X40353607Y-124851772D01*
X40272778Y-125002991D01*
X40249746Y-125031055D01*
X40160186Y-125140186D01*
X40072406Y-125212224D01*
X40022991Y-125252778D01*
X40022989Y-125252779D01*
X39866467Y-125336443D01*
X39827616Y-125348228D01*
X39696627Y-125387963D01*
X39630442Y-125394482D01*
X39564260Y-125401000D01*
X39475740Y-125401000D01*
X39409558Y-125394482D01*
X39343373Y-125387963D01*
X39212384Y-125348228D01*
X39173533Y-125336443D01*
X39017011Y-125252779D01*
X39017009Y-125252778D01*
X38967594Y-125212224D01*
X38879814Y-125140186D01*
X38790254Y-125031055D01*
X38767222Y-125002991D01*
X38686393Y-124851772D01*
X38683557Y-124846467D01*
X38638187Y-124696900D01*
X38632037Y-124676627D01*
X38614641Y-124500000D01*
X38632037Y-124323373D01*
X38683557Y-124153534D01*
X38683557Y-124153533D01*
X38767221Y-123997011D01*
X38767222Y-123997009D01*
X38796552Y-123961271D01*
X38879814Y-123859814D01*
X38981271Y-123776552D01*
X39017009Y-123747222D01*
X39034913Y-123737652D01*
X39173533Y-123663557D01*
X39230147Y-123646384D01*
X39343373Y-123612037D01*
X39409558Y-123605518D01*
X39475740Y-123599000D01*
X39564260Y-123599000D01*
X39630442Y-123605518D01*
X39630442Y-123605518D01*
G37*
G36*
X37090442Y-123605518D02*
X37156627Y-123612037D01*
X37269853Y-123646384D01*
X37326467Y-123663557D01*
X37465087Y-123737652D01*
X37482991Y-123747222D01*
X37518729Y-123776552D01*
X37620186Y-123859814D01*
X37703448Y-123961271D01*
X37732778Y-123997009D01*
X37732779Y-123997011D01*
X37816443Y-124153533D01*
X37816443Y-124153534D01*
X37867963Y-124323373D01*
X37885359Y-124500000D01*
X37867963Y-124676627D01*
X37861813Y-124696900D01*
X37816443Y-124846467D01*
X37813607Y-124851772D01*
X37732778Y-125002991D01*
X37709746Y-125031055D01*
X37620186Y-125140186D01*
X37532406Y-125212224D01*
X37482991Y-125252778D01*
X37482989Y-125252779D01*
X37326467Y-125336443D01*
X37287616Y-125348228D01*
X37156627Y-125387963D01*
X37090442Y-125394482D01*
X37024260Y-125401000D01*
X36935740Y-125401000D01*
X36869558Y-125394482D01*
X36803373Y-125387963D01*
X36672384Y-125348228D01*
X36633533Y-125336443D01*
X36477011Y-125252779D01*
X36477009Y-125252778D01*
X36427594Y-125212224D01*
X36339814Y-125140186D01*
X36250254Y-125031055D01*
X36227222Y-125002991D01*
X36146393Y-124851772D01*
X36143557Y-124846467D01*
X36098187Y-124696900D01*
X36092037Y-124676627D01*
X36074641Y-124500000D01*
X36092037Y-124323373D01*
X36143557Y-124153534D01*
X36143557Y-124153533D01*
X36227221Y-123997011D01*
X36227222Y-123997009D01*
X36256552Y-123961271D01*
X36339814Y-123859814D01*
X36441271Y-123776552D01*
X36477009Y-123747222D01*
X36494913Y-123737652D01*
X36633533Y-123663557D01*
X36690147Y-123646384D01*
X36803373Y-123612037D01*
X36869558Y-123605518D01*
X36935740Y-123599000D01*
X37024260Y-123599000D01*
X37090442Y-123605518D01*
X37090442Y-123605518D01*
G37*
G36*
X34550442Y-123605518D02*
X34616627Y-123612037D01*
X34729853Y-123646384D01*
X34786467Y-123663557D01*
X34925087Y-123737652D01*
X34942991Y-123747222D01*
X34978729Y-123776552D01*
X35080186Y-123859814D01*
X35163448Y-123961271D01*
X35192778Y-123997009D01*
X35192779Y-123997011D01*
X35276443Y-124153533D01*
X35276443Y-124153534D01*
X35327963Y-124323373D01*
X35345359Y-124500000D01*
X35327963Y-124676627D01*
X35321813Y-124696900D01*
X35276443Y-124846467D01*
X35273607Y-124851772D01*
X35192778Y-125002991D01*
X35169746Y-125031055D01*
X35080186Y-125140186D01*
X34992406Y-125212224D01*
X34942991Y-125252778D01*
X34942989Y-125252779D01*
X34786467Y-125336443D01*
X34747616Y-125348228D01*
X34616627Y-125387963D01*
X34550442Y-125394482D01*
X34484260Y-125401000D01*
X34395740Y-125401000D01*
X34329558Y-125394482D01*
X34263373Y-125387963D01*
X34132384Y-125348228D01*
X34093533Y-125336443D01*
X33937011Y-125252779D01*
X33937009Y-125252778D01*
X33887594Y-125212224D01*
X33799814Y-125140186D01*
X33710254Y-125031055D01*
X33687222Y-125002991D01*
X33606393Y-124851772D01*
X33603557Y-124846467D01*
X33558187Y-124696900D01*
X33552037Y-124676627D01*
X33534641Y-124500000D01*
X33552037Y-124323373D01*
X33603557Y-124153534D01*
X33603557Y-124153533D01*
X33687221Y-123997011D01*
X33687222Y-123997009D01*
X33716552Y-123961271D01*
X33799814Y-123859814D01*
X33901271Y-123776552D01*
X33937009Y-123747222D01*
X33954913Y-123737652D01*
X34093533Y-123663557D01*
X34150147Y-123646384D01*
X34263373Y-123612037D01*
X34329558Y-123605518D01*
X34395740Y-123599000D01*
X34484260Y-123599000D01*
X34550442Y-123605518D01*
X34550442Y-123605518D01*
G37*
G36*
X32801000Y-125401000D02*
X30999000Y-125401000D01*
X30999000Y-123599000D01*
X32801000Y-123599000D01*
X32801000Y-125401000D01*
X32801000Y-125401000D01*
G37*
M02*
