G04 #@! TF.GenerationSoftware,KiCad,Pcbnew,(5.0.2)-1*
G04 #@! TF.CreationDate,2019-03-30T18:10:54+01:00*
G04 #@! TF.ProjectId,CCdrum,43436472-756d-42e6-9b69-6361645f7063,rev?*
G04 #@! TF.SameCoordinates,Original*
G04 #@! TF.FileFunction,Copper,L2,Bot*
G04 #@! TF.FilePolarity,Positive*
%FSLAX46Y46*%
G04 Gerber Fmt 4.6, Leading zero omitted, Abs format (unit mm)*
G04 Created by KiCad (PCBNEW (5.0.2)-1) date 30/03/2019 18:10:54*
%MOMM*%
%LPD*%
G01*
G04 APERTURE LIST*
G04 #@! TA.AperFunction,ComponentPad*
%ADD10C,2.000000*%
G04 #@! TD*
G04 #@! TA.AperFunction,ComponentPad*
%ADD11C,1.600000*%
G04 #@! TD*
G04 #@! TA.AperFunction,ComponentPad*
%ADD12R,1.700000X1.700000*%
G04 #@! TD*
G04 #@! TA.AperFunction,ComponentPad*
%ADD13O,1.700000X1.700000*%
G04 #@! TD*
G04 #@! TA.AperFunction,ComponentPad*
%ADD14O,1.900000X1.050000*%
G04 #@! TD*
G04 #@! TA.AperFunction,ComponentPad*
%ADD15R,1.600000X1.600000*%
G04 #@! TD*
G04 #@! TA.AperFunction,ComponentPad*
%ADD16O,1.600000X1.600000*%
G04 #@! TD*
G04 #@! TA.AperFunction,ComponentPad*
%ADD17C,2.499360*%
G04 #@! TD*
G04 #@! TA.AperFunction,ComponentPad*
%ADD18C,3.500000*%
G04 #@! TD*
G04 #@! TA.AperFunction,ComponentPad*
%ADD19O,1.500000X2.000000*%
G04 #@! TD*
G04 #@! TA.AperFunction,ViaPad*
%ADD20C,0.800000*%
G04 #@! TD*
G04 #@! TA.AperFunction,Conductor*
%ADD21C,0.250000*%
G04 #@! TD*
G04 #@! TA.AperFunction,Conductor*
%ADD22C,0.200000*%
G04 #@! TD*
G04 APERTURE END LIST*
D10*
G04 #@! TO.P,SW2,1*
G04 #@! TO.N,GND*
X127150000Y-157500000D03*
G04 #@! TO.P,SW2,2*
G04 #@! TO.N,PUSH_L2*
X122650000Y-157500000D03*
G04 #@! TO.P,SW2,1*
G04 #@! TO.N,GND*
X127150000Y-151000000D03*
G04 #@! TO.P,SW2,2*
G04 #@! TO.N,PUSH_L2*
X122650000Y-151000000D03*
G04 #@! TD*
G04 #@! TO.P,SW1,2*
G04 #@! TO.N,PUSH_L1*
X114700000Y-151000000D03*
G04 #@! TO.P,SW1,1*
G04 #@! TO.N,GND*
X119200000Y-151000000D03*
G04 #@! TO.P,SW1,2*
G04 #@! TO.N,PUSH_L1*
X114700000Y-157500000D03*
G04 #@! TO.P,SW1,1*
G04 #@! TO.N,GND*
X119200000Y-157500000D03*
G04 #@! TD*
D11*
G04 #@! TO.P,C1,2*
G04 #@! TO.N,GND*
X37200000Y-132500000D03*
G04 #@! TO.P,C1,1*
G04 #@! TO.N,+5V*
X37200000Y-137500000D03*
G04 #@! TD*
G04 #@! TO.P,C2,1*
G04 #@! TO.N,+3V3*
X47700000Y-127800000D03*
G04 #@! TO.P,C2,2*
G04 #@! TO.N,GND*
X42700000Y-127800000D03*
G04 #@! TD*
D12*
G04 #@! TO.P,J2,1*
G04 #@! TO.N,+3V3*
X32000000Y-126800000D03*
D13*
G04 #@! TO.P,J2,2*
G04 #@! TO.N,TEST*
X34540000Y-126800000D03*
G04 #@! TO.P,J2,3*
G04 #@! TO.N,RST*
X37080000Y-126800000D03*
G04 #@! TO.P,J2,4*
G04 #@! TO.N,GND*
X39620000Y-126800000D03*
G04 #@! TD*
D14*
G04 #@! TO.P,J1,6*
G04 #@! TO.N,GND*
X31600000Y-131225000D03*
X31600000Y-138375000D03*
G04 #@! TD*
D15*
G04 #@! TO.P,U1,1*
G04 #@! TO.N,GND*
X64030000Y-137150000D03*
D16*
G04 #@! TO.P,U1,11*
G04 #@! TO.N,LED_P3*
X86890000Y-129530000D03*
G04 #@! TO.P,U1,2*
G04 #@! TO.N,BIT*
X66570000Y-137150000D03*
G04 #@! TO.P,U1,12*
G04 #@! TO.N,LED_P2*
X84350000Y-129530000D03*
G04 #@! TO.P,U1,3*
G04 #@! TO.N,RXD*
X69110000Y-137150000D03*
G04 #@! TO.P,U1,13*
G04 #@! TO.N,LED_P1*
X81810000Y-129530000D03*
G04 #@! TO.P,U1,4*
G04 #@! TO.N,TXD*
X71650000Y-137150000D03*
G04 #@! TO.P,U1,14*
G04 #@! TO.N,GAN*
X79270000Y-129530000D03*
G04 #@! TO.P,U1,5*
G04 #@! TO.N,FLD*
X74190000Y-137150000D03*
G04 #@! TO.P,U1,15*
G04 #@! TO.N,PART*
X76730000Y-129530000D03*
G04 #@! TO.P,U1,6*
G04 #@! TO.N,DRV*
X76730000Y-137150000D03*
G04 #@! TO.P,U1,16*
G04 #@! TO.N,RST*
X74190000Y-129530000D03*
G04 #@! TO.P,U1,7*
G04 #@! TO.N,PAN*
X79270000Y-137150000D03*
G04 #@! TO.P,U1,17*
G04 #@! TO.N,TEST*
X71650000Y-129530000D03*
G04 #@! TO.P,U1,8*
G04 #@! TO.N,LED_P6*
X81810000Y-137150000D03*
G04 #@! TO.P,U1,18*
G04 #@! TO.N,PUSH_L1*
X69110000Y-129530000D03*
G04 #@! TO.P,U1,9*
G04 #@! TO.N,LED_P5*
X84350000Y-137150000D03*
G04 #@! TO.P,U1,19*
G04 #@! TO.N,PUSH_L2*
X66570000Y-129530000D03*
G04 #@! TO.P,U1,10*
G04 #@! TO.N,LED_P4*
X86890000Y-137150000D03*
G04 #@! TO.P,U1,20*
G04 #@! TO.N,+3V3*
X64030000Y-129530000D03*
G04 #@! TD*
D11*
G04 #@! TO.P,R3,1*
G04 #@! TO.N,LED_P2*
X53345000Y-137200000D03*
D16*
G04 #@! TO.P,R3,2*
G04 #@! TO.N,Net-(D2-Pad2)*
X53345000Y-129580000D03*
G04 #@! TD*
G04 #@! TO.P,R9,2*
G04 #@! TO.N,GND*
X104655000Y-129580000D03*
D11*
G04 #@! TO.P,R9,1*
G04 #@! TO.N,Net-(J3-Pad4)*
X104655000Y-137200000D03*
G04 #@! TD*
G04 #@! TO.P,R8,1*
G04 #@! TO.N,Net-(J3-Pad5)*
X101110000Y-137200000D03*
D16*
G04 #@! TO.P,R8,2*
G04 #@! TO.N,Net-(R8-Pad2)*
X101110000Y-129580000D03*
G04 #@! TD*
G04 #@! TO.P,R7,2*
G04 #@! TO.N,Net-(D6-Pad2)*
X97565000Y-129580000D03*
D11*
G04 #@! TO.P,R7,1*
G04 #@! TO.N,LED_P6*
X97565000Y-137200000D03*
G04 #@! TD*
G04 #@! TO.P,R1,1*
G04 #@! TO.N,+3V3*
X60435000Y-137200000D03*
D16*
G04 #@! TO.P,R1,2*
G04 #@! TO.N,RST*
X60435000Y-129580000D03*
G04 #@! TD*
G04 #@! TO.P,R4,2*
G04 #@! TO.N,Net-(D3-Pad2)*
X56890000Y-129580000D03*
D11*
G04 #@! TO.P,R4,1*
G04 #@! TO.N,LED_P3*
X56890000Y-137200000D03*
G04 #@! TD*
G04 #@! TO.P,R5,1*
G04 #@! TO.N,LED_P4*
X90475000Y-137200000D03*
D16*
G04 #@! TO.P,R5,2*
G04 #@! TO.N,Net-(D4-Pad2)*
X90475000Y-129580000D03*
G04 #@! TD*
G04 #@! TO.P,R6,2*
G04 #@! TO.N,Net-(D5-Pad2)*
X94020000Y-129580000D03*
D11*
G04 #@! TO.P,R6,1*
G04 #@! TO.N,LED_P5*
X94020000Y-137200000D03*
G04 #@! TD*
G04 #@! TO.P,R2,1*
G04 #@! TO.N,LED_P1*
X49800000Y-137200000D03*
D16*
G04 #@! TO.P,R2,2*
G04 #@! TO.N,Net-(D1-Pad2)*
X49800000Y-129580000D03*
G04 #@! TD*
D17*
G04 #@! TO.P,J3,3*
G04 #@! TO.N,Net-(J3-Pad3)*
X117402800Y-143298080D03*
G04 #@! TO.P,J3,4*
G04 #@! TO.N,Net-(J3-Pad4)*
X114900900Y-130803820D03*
G04 #@! TO.P,J3,2*
G04 #@! TO.N,Net-(J3-Pad2)*
X117400260Y-135800000D03*
G04 #@! TO.P,J3,1*
G04 #@! TO.N,Net-(J3-Pad1)*
X117402800Y-128301920D03*
G04 #@! TO.P,J3,5*
G04 #@! TO.N,Net-(J3-Pad5)*
X114900900Y-140796180D03*
G04 #@! TO.P,J3,*
G04 #@! TO.N,*
X127397700Y-130798740D03*
X127397700Y-140801260D03*
G04 #@! TD*
D18*
G04 #@! TO.P,RV5,*
G04 #@! TO.N,*
X101700000Y-154200000D03*
X111300000Y-154200000D03*
D19*
G04 #@! TO.P,RV5,3*
G04 #@! TO.N,GND*
X104000000Y-147200000D03*
G04 #@! TO.P,RV5,2*
G04 #@! TO.N,GAN*
X106500000Y-147200000D03*
G04 #@! TO.P,RV5,1*
G04 #@! TO.N,+3V3*
X109000000Y-147200000D03*
G04 #@! TD*
G04 #@! TO.P,RV6,1*
G04 #@! TO.N,+3V3*
X39800000Y-147200000D03*
G04 #@! TO.P,RV6,2*
G04 #@! TO.N,PART*
X37300000Y-147200000D03*
G04 #@! TO.P,RV6,3*
G04 #@! TO.N,GND*
X34800000Y-147200000D03*
D18*
G04 #@! TO.P,RV6,*
G04 #@! TO.N,*
X42100000Y-154200000D03*
X32500000Y-154200000D03*
G04 #@! TD*
G04 #@! TO.P,RV1,*
G04 #@! TO.N,*
X46340000Y-154200000D03*
X55940000Y-154200000D03*
D19*
G04 #@! TO.P,RV1,3*
G04 #@! TO.N,GND*
X48640000Y-147200000D03*
G04 #@! TO.P,RV1,2*
G04 #@! TO.N,BIT*
X51140000Y-147200000D03*
G04 #@! TO.P,RV1,1*
G04 #@! TO.N,+3V3*
X53640000Y-147200000D03*
G04 #@! TD*
G04 #@! TO.P,RV2,1*
G04 #@! TO.N,+3V3*
X67480000Y-147200000D03*
G04 #@! TO.P,RV2,2*
G04 #@! TO.N,FLD*
X64980000Y-147200000D03*
G04 #@! TO.P,RV2,3*
G04 #@! TO.N,GND*
X62480000Y-147200000D03*
D18*
G04 #@! TO.P,RV2,*
G04 #@! TO.N,*
X69780000Y-154200000D03*
X60180000Y-154200000D03*
G04 #@! TD*
G04 #@! TO.P,RV3,*
G04 #@! TO.N,*
X74020000Y-154200000D03*
X83620000Y-154200000D03*
D19*
G04 #@! TO.P,RV3,3*
G04 #@! TO.N,GND*
X76320000Y-147200000D03*
G04 #@! TO.P,RV3,2*
G04 #@! TO.N,DRV*
X78820000Y-147200000D03*
G04 #@! TO.P,RV3,1*
G04 #@! TO.N,+3V3*
X81320000Y-147200000D03*
G04 #@! TD*
G04 #@! TO.P,RV4,1*
G04 #@! TO.N,+3V3*
X95160000Y-147200000D03*
G04 #@! TO.P,RV4,2*
G04 #@! TO.N,PAN*
X92660000Y-147200000D03*
G04 #@! TO.P,RV4,3*
G04 #@! TO.N,GND*
X90160000Y-147200000D03*
D18*
G04 #@! TO.P,RV4,*
G04 #@! TO.N,*
X97460000Y-154200000D03*
X87860000Y-154200000D03*
G04 #@! TD*
D20*
G04 #@! TO.N,TXD*
X86900000Y-133500000D03*
X108500000Y-132500000D03*
G04 #@! TO.N,LED_P1*
X65200000Y-133000000D03*
G04 #@! TO.N,LED_P5*
X94000000Y-132100000D03*
G04 #@! TO.N,LED_P4*
X87500000Y-134800000D03*
G04 #@! TO.N,LED_P3*
X66800000Y-134900000D03*
G04 #@! TO.N,LED_P2*
X65900000Y-134000000D03*
G04 #@! TD*
D21*
G04 #@! TO.N,TXD*
X86900000Y-133500000D02*
X106200000Y-133500000D01*
X106200000Y-133500000D02*
X107200000Y-132500000D01*
X107200000Y-132500000D02*
X108500000Y-132500000D01*
X108500000Y-132500000D02*
X108500000Y-132500000D01*
G04 #@! TO.N,BIT*
X51140000Y-146950000D02*
X58190000Y-139900000D01*
X51140000Y-147200000D02*
X51140000Y-146950000D01*
X63820000Y-139900000D02*
X66570000Y-137150000D01*
X58190000Y-139900000D02*
X63820000Y-139900000D01*
G04 #@! TO.N,FLD*
X73390001Y-137949999D02*
X74190000Y-137150000D01*
X64980000Y-146360000D02*
X73390001Y-137949999D01*
X64980000Y-147200000D02*
X64980000Y-146360000D01*
G04 #@! TO.N,GAN*
X106500000Y-145950000D02*
X99750000Y-139200000D01*
X106500000Y-147200000D02*
X106500000Y-145950000D01*
X90605002Y-139200000D02*
X83805002Y-132400000D01*
X99750000Y-139200000D02*
X90605002Y-139200000D01*
X82140000Y-132400000D02*
X79270000Y-129530000D01*
X83805002Y-132400000D02*
X82140000Y-132400000D01*
G04 #@! TO.N,DRV*
X78820000Y-139240000D02*
X76730000Y-137150000D01*
X78820000Y-147200000D02*
X78820000Y-139240000D01*
G04 #@! TO.N,PAN*
X92660000Y-145950000D02*
X86710000Y-140000000D01*
X92660000Y-147200000D02*
X92660000Y-145950000D01*
X82120000Y-140000000D02*
X79270000Y-137150000D01*
X86710000Y-140000000D02*
X82120000Y-140000000D01*
G04 #@! TO.N,Net-(J3-Pad5)*
X104706180Y-140796180D02*
X114900900Y-140796180D01*
X101110000Y-137200000D02*
X104706180Y-140796180D01*
G04 #@! TO.N,Net-(J3-Pad4)*
X108504720Y-137200000D02*
X114900900Y-130803820D01*
X104655000Y-137200000D02*
X108504720Y-137200000D01*
G04 #@! TO.N,RST*
X60435000Y-129580000D02*
X61915000Y-128100000D01*
X72760000Y-128100000D02*
X74190000Y-129530000D01*
X61915000Y-128100000D02*
X72760000Y-128100000D01*
X40859997Y-127975001D02*
X43034998Y-125800000D01*
X37080000Y-126800000D02*
X38255001Y-127975001D01*
X38255001Y-127975001D02*
X40859997Y-127975001D01*
X56655000Y-125800000D02*
X60435000Y-129580000D01*
X43034998Y-125800000D02*
X56655000Y-125800000D01*
G04 #@! TO.N,TEST*
X70280000Y-130900000D02*
X71650000Y-129530000D01*
X36840000Y-129100000D02*
X44500000Y-129100000D01*
X34540000Y-126800000D02*
X36840000Y-129100000D01*
X44500000Y-129100000D02*
X46925001Y-126674999D01*
X46925001Y-126674999D02*
X55650001Y-126674999D01*
X55650001Y-126674999D02*
X59875002Y-130900000D01*
X59875002Y-130900000D02*
X70280000Y-130900000D01*
G04 #@! TO.N,PART*
X37300000Y-145950000D02*
X51750000Y-131500000D01*
X37300000Y-147200000D02*
X37300000Y-145950000D01*
X74760000Y-131500000D02*
X76730000Y-129530000D01*
X51750000Y-131500000D02*
X74760000Y-131500000D01*
G04 #@! TO.N,LED_P1*
X49800000Y-137200000D02*
X54000000Y-133000000D01*
X54000000Y-133000000D02*
X60000000Y-133000000D01*
X60000000Y-133000000D02*
X65200000Y-133000000D01*
X65200000Y-133000000D02*
X65200000Y-133000000D01*
G04 #@! TO.N,LED_P5*
X84350000Y-136018630D02*
X79331370Y-131000000D01*
X84350000Y-137150000D02*
X84350000Y-136018630D01*
X79074998Y-131000000D02*
X78000000Y-129925002D01*
X79331370Y-131000000D02*
X79074998Y-131000000D01*
X78729999Y-128404999D02*
X94804999Y-128404999D01*
X78000000Y-129925002D02*
X78000000Y-129134998D01*
X78000000Y-129134998D02*
X78729999Y-128404999D01*
X94804999Y-128404999D02*
X95800000Y-129400000D01*
X95800000Y-129400000D02*
X95800000Y-130300000D01*
X95800000Y-130300000D02*
X94000000Y-132100000D01*
X94000000Y-132100000D02*
X94000000Y-132100000D01*
G04 #@! TO.N,LED_P4*
X88075000Y-134800000D02*
X90475000Y-137200000D01*
X87500000Y-134800000D02*
X88075000Y-134800000D01*
G04 #@! TO.N,LED_P3*
X56890000Y-137200000D02*
X59190000Y-134900000D01*
X59190000Y-134900000D02*
X66800000Y-134900000D01*
X66800000Y-134900000D02*
X66800000Y-134900000D01*
G04 #@! TO.N,LED_P6*
X98700000Y-137200000D02*
X97565000Y-137200000D01*
X103300000Y-141800000D02*
X98700000Y-137200000D01*
X105370293Y-141800000D02*
X103300000Y-141800000D01*
X110800000Y-148500000D02*
X110800000Y-147229707D01*
X81810000Y-138281370D02*
X82328630Y-138800000D01*
X81810000Y-137150000D02*
X81810000Y-138281370D01*
X82328630Y-138800000D02*
X89568592Y-138800000D01*
X89568592Y-138800000D02*
X100868592Y-150100000D01*
X110800000Y-147229707D02*
X105370293Y-141800000D01*
X100868592Y-150100000D02*
X109200000Y-150100000D01*
X109200000Y-150100000D02*
X110800000Y-148500000D01*
G04 #@! TO.N,LED_P2*
X53345000Y-137200000D02*
X56545000Y-134000000D01*
X56545000Y-134000000D02*
X60600000Y-134000000D01*
X60600000Y-134000000D02*
X65900000Y-134000000D01*
X65900000Y-134000000D02*
X65900000Y-134000000D01*
G04 #@! TD*
D22*
G04 #@! TO.N,+3V3*
G36*
X30805596Y-125434562D02*
X30634563Y-125605595D01*
X30542000Y-125829061D01*
X30542000Y-126494000D01*
X30694000Y-126646000D01*
X31846000Y-126646000D01*
X31846000Y-126626000D01*
X32154000Y-126626000D01*
X32154000Y-126646000D01*
X32174000Y-126646000D01*
X32174000Y-126954000D01*
X32154000Y-126954000D01*
X32154000Y-128106000D01*
X32306000Y-128258000D01*
X32970938Y-128258000D01*
X33194404Y-128165438D01*
X33365437Y-127994405D01*
X33458000Y-127770939D01*
X33458000Y-127250617D01*
X33710897Y-127629103D01*
X34091293Y-127883276D01*
X34426739Y-127950000D01*
X34653261Y-127950000D01*
X34988707Y-127883276D01*
X35008806Y-127869846D01*
X36509881Y-129370922D01*
X36533592Y-129406408D01*
X36569077Y-129430118D01*
X36674173Y-129500341D01*
X36839999Y-129533326D01*
X36881857Y-129525000D01*
X44458143Y-129525000D01*
X44500000Y-129533326D01*
X44541857Y-129525000D01*
X44541858Y-129525000D01*
X44665827Y-129500341D01*
X44806408Y-129406408D01*
X44830121Y-129370919D01*
X45391071Y-128809969D01*
X46907820Y-128809969D01*
X46985643Y-129045229D01*
X47516548Y-129223815D01*
X48075382Y-129185637D01*
X48414357Y-129045229D01*
X48492180Y-128809969D01*
X47700000Y-128017789D01*
X46907820Y-128809969D01*
X45391071Y-128809969D01*
X46295901Y-127905140D01*
X46314363Y-128175382D01*
X46454771Y-128514357D01*
X46690031Y-128592180D01*
X47482211Y-127800000D01*
X47468069Y-127785858D01*
X47685858Y-127568069D01*
X47700000Y-127582211D01*
X47714142Y-127568069D01*
X47931931Y-127785858D01*
X47917789Y-127800000D01*
X48709969Y-128592180D01*
X48945229Y-128514357D01*
X49123815Y-127983452D01*
X49085637Y-127424618D01*
X48951175Y-127099999D01*
X55473961Y-127099999D01*
X56853962Y-128480000D01*
X56781661Y-128480000D01*
X56460801Y-128543823D01*
X56096944Y-128786944D01*
X55853823Y-129150801D01*
X55768450Y-129580000D01*
X55853823Y-130009199D01*
X56096944Y-130373056D01*
X56460801Y-130616177D01*
X56781661Y-130680000D01*
X56998339Y-130680000D01*
X57319199Y-130616177D01*
X57683056Y-130373056D01*
X57926177Y-130009199D01*
X58001995Y-129628034D01*
X59448961Y-131075000D01*
X51791857Y-131075000D01*
X51750000Y-131066674D01*
X51708142Y-131075000D01*
X51584173Y-131099659D01*
X51443592Y-131193592D01*
X51419881Y-131229078D01*
X37029079Y-145619881D01*
X36993593Y-145643592D01*
X36969883Y-145679077D01*
X36969882Y-145679078D01*
X36899659Y-145784174D01*
X36866674Y-145950000D01*
X36871365Y-145973582D01*
X36542994Y-146192993D01*
X36310922Y-146540311D01*
X36250000Y-146846587D01*
X36250000Y-147553412D01*
X36310922Y-147859688D01*
X36542993Y-148207007D01*
X36890311Y-148439078D01*
X37300000Y-148520570D01*
X37709688Y-148439078D01*
X38057007Y-148207007D01*
X38289078Y-147859689D01*
X38347005Y-147568469D01*
X38438343Y-147568469D01*
X38587329Y-148080535D01*
X38920933Y-148496607D01*
X39388367Y-148753343D01*
X39436828Y-148758538D01*
X39646000Y-148646127D01*
X39646000Y-147354000D01*
X39954000Y-147354000D01*
X39954000Y-148646127D01*
X40163172Y-148758538D01*
X40211633Y-148753343D01*
X40679067Y-148496607D01*
X41012671Y-148080535D01*
X41161657Y-147568469D01*
X41011425Y-147354000D01*
X39954000Y-147354000D01*
X39646000Y-147354000D01*
X38588575Y-147354000D01*
X38438343Y-147568469D01*
X38347005Y-147568469D01*
X38350000Y-147553413D01*
X38350000Y-146846588D01*
X38347005Y-146831531D01*
X38438343Y-146831531D01*
X38588575Y-147046000D01*
X39646000Y-147046000D01*
X39646000Y-145753873D01*
X39954000Y-145753873D01*
X39954000Y-147046000D01*
X41011425Y-147046000D01*
X41151110Y-146846587D01*
X47590000Y-146846587D01*
X47590000Y-147553412D01*
X47650922Y-147859688D01*
X47882993Y-148207007D01*
X48230311Y-148439078D01*
X48640000Y-148520570D01*
X49049688Y-148439078D01*
X49397007Y-148207007D01*
X49629078Y-147859689D01*
X49690000Y-147553413D01*
X49690000Y-146846588D01*
X49690000Y-146846587D01*
X50090000Y-146846587D01*
X50090000Y-147553412D01*
X50150922Y-147859688D01*
X50382993Y-148207007D01*
X50730311Y-148439078D01*
X51140000Y-148520570D01*
X51549688Y-148439078D01*
X51897007Y-148207007D01*
X52129078Y-147859689D01*
X52187005Y-147568469D01*
X52278343Y-147568469D01*
X52427329Y-148080535D01*
X52760933Y-148496607D01*
X53228367Y-148753343D01*
X53276828Y-148758538D01*
X53486000Y-148646127D01*
X53486000Y-147354000D01*
X53794000Y-147354000D01*
X53794000Y-148646127D01*
X54003172Y-148758538D01*
X54051633Y-148753343D01*
X54519067Y-148496607D01*
X54852671Y-148080535D01*
X55001657Y-147568469D01*
X54851425Y-147354000D01*
X53794000Y-147354000D01*
X53486000Y-147354000D01*
X52428575Y-147354000D01*
X52278343Y-147568469D01*
X52187005Y-147568469D01*
X52190000Y-147553413D01*
X52190000Y-146846588D01*
X52132670Y-146558370D01*
X52652867Y-146038173D01*
X52427329Y-146319465D01*
X52278343Y-146831531D01*
X52428575Y-147046000D01*
X53486000Y-147046000D01*
X53486000Y-145753873D01*
X53794000Y-145753873D01*
X53794000Y-147046000D01*
X54851425Y-147046000D01*
X54991110Y-146846587D01*
X61430000Y-146846587D01*
X61430000Y-147553412D01*
X61490922Y-147859688D01*
X61722993Y-148207007D01*
X62070311Y-148439078D01*
X62480000Y-148520570D01*
X62889688Y-148439078D01*
X63237007Y-148207007D01*
X63469078Y-147859689D01*
X63530000Y-147553413D01*
X63530000Y-146846588D01*
X63530000Y-146846587D01*
X63930000Y-146846587D01*
X63930000Y-147553412D01*
X63990922Y-147859688D01*
X64222993Y-148207007D01*
X64570311Y-148439078D01*
X64980000Y-148520570D01*
X65389688Y-148439078D01*
X65737007Y-148207007D01*
X65969078Y-147859689D01*
X66027005Y-147568469D01*
X66118343Y-147568469D01*
X66267329Y-148080535D01*
X66600933Y-148496607D01*
X67068367Y-148753343D01*
X67116828Y-148758538D01*
X67326000Y-148646127D01*
X67326000Y-147354000D01*
X67634000Y-147354000D01*
X67634000Y-148646127D01*
X67843172Y-148758538D01*
X67891633Y-148753343D01*
X68359067Y-148496607D01*
X68692671Y-148080535D01*
X68841657Y-147568469D01*
X68691425Y-147354000D01*
X67634000Y-147354000D01*
X67326000Y-147354000D01*
X66268575Y-147354000D01*
X66118343Y-147568469D01*
X66027005Y-147568469D01*
X66030000Y-147553413D01*
X66030000Y-146846588D01*
X66027005Y-146831531D01*
X66118343Y-146831531D01*
X66268575Y-147046000D01*
X67326000Y-147046000D01*
X67326000Y-145753873D01*
X67634000Y-145753873D01*
X67634000Y-147046000D01*
X68691425Y-147046000D01*
X68831110Y-146846587D01*
X75270000Y-146846587D01*
X75270000Y-147553412D01*
X75330922Y-147859688D01*
X75562993Y-148207007D01*
X75910311Y-148439078D01*
X76320000Y-148520570D01*
X76729688Y-148439078D01*
X77077007Y-148207007D01*
X77309078Y-147859689D01*
X77370000Y-147553413D01*
X77370000Y-146846588D01*
X77309078Y-146540312D01*
X77077007Y-146192993D01*
X76729689Y-145960922D01*
X76320000Y-145879430D01*
X75910312Y-145960922D01*
X75562994Y-146192993D01*
X75330922Y-146540311D01*
X75270000Y-146846587D01*
X68831110Y-146846587D01*
X68841657Y-146831531D01*
X68692671Y-146319465D01*
X68359067Y-145903393D01*
X67891633Y-145646657D01*
X67843172Y-145641462D01*
X67634000Y-145753873D01*
X67326000Y-145753873D01*
X67116828Y-145641462D01*
X67068367Y-145646657D01*
X66600933Y-145903393D01*
X66267329Y-146319465D01*
X66118343Y-146831531D01*
X66027005Y-146831531D01*
X65969078Y-146540312D01*
X65741429Y-146199611D01*
X73720119Y-138220922D01*
X73720121Y-138220919D01*
X73757241Y-138183799D01*
X73760801Y-138186177D01*
X74081661Y-138250000D01*
X74298339Y-138250000D01*
X74619199Y-138186177D01*
X74983056Y-137943056D01*
X75226177Y-137579199D01*
X75311550Y-137150000D01*
X75608450Y-137150000D01*
X75693823Y-137579199D01*
X75936944Y-137943056D01*
X76300801Y-138186177D01*
X76621661Y-138250000D01*
X76838339Y-138250000D01*
X77159199Y-138186177D01*
X77162758Y-138183799D01*
X78395001Y-139416042D01*
X78395000Y-145971153D01*
X78062994Y-146192993D01*
X77830922Y-146540311D01*
X77770000Y-146846587D01*
X77770000Y-147553412D01*
X77830922Y-147859688D01*
X78062993Y-148207007D01*
X78410311Y-148439078D01*
X78820000Y-148520570D01*
X79229688Y-148439078D01*
X79577007Y-148207007D01*
X79809078Y-147859689D01*
X79867005Y-147568469D01*
X79958343Y-147568469D01*
X80107329Y-148080535D01*
X80440933Y-148496607D01*
X80908367Y-148753343D01*
X80956828Y-148758538D01*
X81166000Y-148646127D01*
X81166000Y-147354000D01*
X81474000Y-147354000D01*
X81474000Y-148646127D01*
X81683172Y-148758538D01*
X81731633Y-148753343D01*
X82199067Y-148496607D01*
X82532671Y-148080535D01*
X82681657Y-147568469D01*
X82531425Y-147354000D01*
X81474000Y-147354000D01*
X81166000Y-147354000D01*
X80108575Y-147354000D01*
X79958343Y-147568469D01*
X79867005Y-147568469D01*
X79870000Y-147553413D01*
X79870000Y-146846588D01*
X79867005Y-146831531D01*
X79958343Y-146831531D01*
X80108575Y-147046000D01*
X81166000Y-147046000D01*
X81166000Y-145753873D01*
X81474000Y-145753873D01*
X81474000Y-147046000D01*
X82531425Y-147046000D01*
X82671110Y-146846587D01*
X89110000Y-146846587D01*
X89110000Y-147553412D01*
X89170922Y-147859688D01*
X89402993Y-148207007D01*
X89750311Y-148439078D01*
X90160000Y-148520570D01*
X90569688Y-148439078D01*
X90917007Y-148207007D01*
X91149078Y-147859689D01*
X91210000Y-147553413D01*
X91210000Y-146846588D01*
X91149078Y-146540312D01*
X90917007Y-146192993D01*
X90569689Y-145960922D01*
X90160000Y-145879430D01*
X89750312Y-145960922D01*
X89402994Y-146192993D01*
X89170922Y-146540311D01*
X89110000Y-146846587D01*
X82671110Y-146846587D01*
X82681657Y-146831531D01*
X82532671Y-146319465D01*
X82199067Y-145903393D01*
X81731633Y-145646657D01*
X81683172Y-145641462D01*
X81474000Y-145753873D01*
X81166000Y-145753873D01*
X80956828Y-145641462D01*
X80908367Y-145646657D01*
X80440933Y-145903393D01*
X80107329Y-146319465D01*
X79958343Y-146831531D01*
X79867005Y-146831531D01*
X79809078Y-146540312D01*
X79577007Y-146192993D01*
X79245000Y-145971153D01*
X79245000Y-139281855D01*
X79253326Y-139239999D01*
X79231469Y-139130118D01*
X79220341Y-139074173D01*
X79126408Y-138933592D01*
X79090922Y-138909881D01*
X77763799Y-137582758D01*
X77766177Y-137579199D01*
X77851550Y-137150000D01*
X78148450Y-137150000D01*
X78233823Y-137579199D01*
X78476944Y-137943056D01*
X78840801Y-138186177D01*
X79161661Y-138250000D01*
X79378339Y-138250000D01*
X79699199Y-138186177D01*
X79702758Y-138183799D01*
X81789881Y-140270922D01*
X81813592Y-140306408D01*
X81947435Y-140395839D01*
X81954173Y-140400341D01*
X82120000Y-140433326D01*
X82161857Y-140425000D01*
X86533960Y-140425000D01*
X92142152Y-146033193D01*
X91902994Y-146192993D01*
X91670922Y-146540311D01*
X91610000Y-146846587D01*
X91610000Y-147553412D01*
X91670922Y-147859688D01*
X91902993Y-148207007D01*
X92250311Y-148439078D01*
X92660000Y-148520570D01*
X93069688Y-148439078D01*
X93417007Y-148207007D01*
X93649078Y-147859689D01*
X93707005Y-147568469D01*
X93798343Y-147568469D01*
X93947329Y-148080535D01*
X94280933Y-148496607D01*
X94748367Y-148753343D01*
X94796828Y-148758538D01*
X95006000Y-148646127D01*
X95006000Y-147354000D01*
X95314000Y-147354000D01*
X95314000Y-148646127D01*
X95523172Y-148758538D01*
X95571633Y-148753343D01*
X96039067Y-148496607D01*
X96372671Y-148080535D01*
X96521657Y-147568469D01*
X96371425Y-147354000D01*
X95314000Y-147354000D01*
X95006000Y-147354000D01*
X93948575Y-147354000D01*
X93798343Y-147568469D01*
X93707005Y-147568469D01*
X93710000Y-147553413D01*
X93710000Y-146846588D01*
X93707005Y-146831531D01*
X93798343Y-146831531D01*
X93948575Y-147046000D01*
X95006000Y-147046000D01*
X95006000Y-145753873D01*
X95314000Y-145753873D01*
X95314000Y-147046000D01*
X96371425Y-147046000D01*
X96521657Y-146831531D01*
X96372671Y-146319465D01*
X96039067Y-145903393D01*
X95571633Y-145646657D01*
X95523172Y-145641462D01*
X95314000Y-145753873D01*
X95006000Y-145753873D01*
X94796828Y-145641462D01*
X94748367Y-145646657D01*
X94280933Y-145903393D01*
X93947329Y-146319465D01*
X93798343Y-146831531D01*
X93707005Y-146831531D01*
X93649078Y-146540312D01*
X93417007Y-146192993D01*
X93088635Y-145973582D01*
X93093326Y-145950000D01*
X93060341Y-145784173D01*
X92990118Y-145679077D01*
X92966408Y-145643592D01*
X92930922Y-145619881D01*
X87040121Y-139729081D01*
X87016408Y-139693592D01*
X86875827Y-139599659D01*
X86751858Y-139575000D01*
X86751857Y-139575000D01*
X86710000Y-139566674D01*
X86668143Y-139575000D01*
X82296041Y-139575000D01*
X80303799Y-137582758D01*
X80306177Y-137579199D01*
X80391550Y-137150000D01*
X80306177Y-136720801D01*
X80063056Y-136356944D01*
X79699199Y-136113823D01*
X79378339Y-136050000D01*
X79161661Y-136050000D01*
X78840801Y-136113823D01*
X78476944Y-136356944D01*
X78233823Y-136720801D01*
X78148450Y-137150000D01*
X77851550Y-137150000D01*
X77766177Y-136720801D01*
X77523056Y-136356944D01*
X77159199Y-136113823D01*
X76838339Y-136050000D01*
X76621661Y-136050000D01*
X76300801Y-136113823D01*
X75936944Y-136356944D01*
X75693823Y-136720801D01*
X75608450Y-137150000D01*
X75311550Y-137150000D01*
X75226177Y-136720801D01*
X74983056Y-136356944D01*
X74619199Y-136113823D01*
X74298339Y-136050000D01*
X74081661Y-136050000D01*
X73760801Y-136113823D01*
X73396944Y-136356944D01*
X73153823Y-136720801D01*
X73068450Y-137150000D01*
X73153823Y-137579199D01*
X73156201Y-137582759D01*
X73119081Y-137619879D01*
X73119078Y-137619881D01*
X64829617Y-145909343D01*
X64570312Y-145960922D01*
X64222994Y-146192993D01*
X63990922Y-146540311D01*
X63930000Y-146846587D01*
X63530000Y-146846587D01*
X63469078Y-146540312D01*
X63237007Y-146192993D01*
X62889689Y-145960922D01*
X62480000Y-145879430D01*
X62070312Y-145960922D01*
X61722994Y-146192993D01*
X61490922Y-146540311D01*
X61430000Y-146846587D01*
X54991110Y-146846587D01*
X55001657Y-146831531D01*
X54852671Y-146319465D01*
X54519067Y-145903393D01*
X54051633Y-145646657D01*
X54003172Y-145641462D01*
X53794000Y-145753873D01*
X53486000Y-145753873D01*
X53276828Y-145641462D01*
X53228367Y-145646657D01*
X52820199Y-145870842D01*
X58366041Y-140325000D01*
X63778143Y-140325000D01*
X63820000Y-140333326D01*
X63861857Y-140325000D01*
X63861858Y-140325000D01*
X63985827Y-140300341D01*
X64126408Y-140206408D01*
X64150121Y-140170919D01*
X66137242Y-138183799D01*
X66140801Y-138186177D01*
X66461661Y-138250000D01*
X66678339Y-138250000D01*
X66999199Y-138186177D01*
X67363056Y-137943056D01*
X67606177Y-137579199D01*
X67691550Y-137150000D01*
X67988450Y-137150000D01*
X68073823Y-137579199D01*
X68316944Y-137943056D01*
X68680801Y-138186177D01*
X69001661Y-138250000D01*
X69218339Y-138250000D01*
X69539199Y-138186177D01*
X69903056Y-137943056D01*
X70146177Y-137579199D01*
X70231550Y-137150000D01*
X70528450Y-137150000D01*
X70613823Y-137579199D01*
X70856944Y-137943056D01*
X71220801Y-138186177D01*
X71541661Y-138250000D01*
X71758339Y-138250000D01*
X72079199Y-138186177D01*
X72443056Y-137943056D01*
X72686177Y-137579199D01*
X72771550Y-137150000D01*
X72686177Y-136720801D01*
X72443056Y-136356944D01*
X72079199Y-136113823D01*
X71758339Y-136050000D01*
X71541661Y-136050000D01*
X71220801Y-136113823D01*
X70856944Y-136356944D01*
X70613823Y-136720801D01*
X70528450Y-137150000D01*
X70231550Y-137150000D01*
X70146177Y-136720801D01*
X69903056Y-136356944D01*
X69539199Y-136113823D01*
X69218339Y-136050000D01*
X69001661Y-136050000D01*
X68680801Y-136113823D01*
X68316944Y-136356944D01*
X68073823Y-136720801D01*
X67988450Y-137150000D01*
X67691550Y-137150000D01*
X67606177Y-136720801D01*
X67363056Y-136356944D01*
X66999199Y-136113823D01*
X66678339Y-136050000D01*
X66461661Y-136050000D01*
X66140801Y-136113823D01*
X65776944Y-136356944D01*
X65533823Y-136720801D01*
X65448450Y-137150000D01*
X65533823Y-137579199D01*
X65536201Y-137582758D01*
X65127662Y-137991297D01*
X65135877Y-137950000D01*
X65135877Y-136350000D01*
X65112593Y-136232946D01*
X65046288Y-136133712D01*
X64947054Y-136067407D01*
X64830000Y-136044123D01*
X63230000Y-136044123D01*
X63112946Y-136067407D01*
X63013712Y-136133712D01*
X62947407Y-136232946D01*
X62924123Y-136350000D01*
X62924123Y-137950000D01*
X62947407Y-138067054D01*
X63013712Y-138166288D01*
X63112946Y-138232593D01*
X63230000Y-138255877D01*
X64830000Y-138255877D01*
X64871297Y-138247662D01*
X63643960Y-139475000D01*
X58231857Y-139475000D01*
X58190000Y-139466674D01*
X58148142Y-139475000D01*
X58024173Y-139499659D01*
X57883592Y-139593592D01*
X57859881Y-139629078D01*
X51531630Y-145957330D01*
X51140000Y-145879430D01*
X50730312Y-145960922D01*
X50382994Y-146192993D01*
X50150922Y-146540311D01*
X50090000Y-146846587D01*
X49690000Y-146846587D01*
X49629078Y-146540312D01*
X49397007Y-146192993D01*
X49049689Y-145960922D01*
X48640000Y-145879430D01*
X48230312Y-145960922D01*
X47882994Y-146192993D01*
X47650922Y-146540311D01*
X47590000Y-146846587D01*
X41151110Y-146846587D01*
X41161657Y-146831531D01*
X41012671Y-146319465D01*
X40679067Y-145903393D01*
X40211633Y-145646657D01*
X40163172Y-145641462D01*
X39954000Y-145753873D01*
X39646000Y-145753873D01*
X39436828Y-145641462D01*
X39388367Y-145646657D01*
X38920933Y-145903393D01*
X38587329Y-146319465D01*
X38438343Y-146831531D01*
X38347005Y-146831531D01*
X38289078Y-146540312D01*
X38057007Y-146192993D01*
X37817848Y-146033192D01*
X46869844Y-136981196D01*
X48700000Y-136981196D01*
X48700000Y-137418804D01*
X48867465Y-137823100D01*
X49176900Y-138132535D01*
X49581196Y-138300000D01*
X50018804Y-138300000D01*
X50423100Y-138132535D01*
X50732535Y-137823100D01*
X50900000Y-137418804D01*
X50900000Y-136981196D01*
X50817944Y-136783096D01*
X54176041Y-133425000D01*
X64635050Y-133425000D01*
X64785050Y-133575000D01*
X56586855Y-133575000D01*
X56544999Y-133566674D01*
X56503143Y-133575000D01*
X56503142Y-133575000D01*
X56379173Y-133599659D01*
X56238592Y-133693592D01*
X56214881Y-133729078D01*
X53761904Y-136182056D01*
X53563804Y-136100000D01*
X53126196Y-136100000D01*
X52721900Y-136267465D01*
X52412465Y-136576900D01*
X52245000Y-136981196D01*
X52245000Y-137418804D01*
X52412465Y-137823100D01*
X52721900Y-138132535D01*
X53126196Y-138300000D01*
X53563804Y-138300000D01*
X53968100Y-138132535D01*
X54277535Y-137823100D01*
X54445000Y-137418804D01*
X54445000Y-136981196D01*
X54362944Y-136783096D01*
X56721041Y-134425000D01*
X65335050Y-134425000D01*
X65385050Y-134475000D01*
X59231857Y-134475000D01*
X59189999Y-134466674D01*
X59054674Y-134493592D01*
X59024173Y-134499659D01*
X58883592Y-134593592D01*
X58859881Y-134629078D01*
X57306904Y-136182056D01*
X57108804Y-136100000D01*
X56671196Y-136100000D01*
X56266900Y-136267465D01*
X55957465Y-136576900D01*
X55790000Y-136981196D01*
X55790000Y-137418804D01*
X55957465Y-137823100D01*
X56266900Y-138132535D01*
X56671196Y-138300000D01*
X57108804Y-138300000D01*
X57326157Y-138209969D01*
X59642820Y-138209969D01*
X59720643Y-138445229D01*
X60251548Y-138623815D01*
X60810382Y-138585637D01*
X61149357Y-138445229D01*
X61227180Y-138209969D01*
X60435000Y-137417789D01*
X59642820Y-138209969D01*
X57326157Y-138209969D01*
X57513100Y-138132535D01*
X57822535Y-137823100D01*
X57990000Y-137418804D01*
X57990000Y-137016548D01*
X59011185Y-137016548D01*
X59049363Y-137575382D01*
X59189771Y-137914357D01*
X59425031Y-137992180D01*
X60217211Y-137200000D01*
X60652789Y-137200000D01*
X61444969Y-137992180D01*
X61680229Y-137914357D01*
X61858815Y-137383452D01*
X61820637Y-136824618D01*
X61680229Y-136485643D01*
X61444969Y-136407820D01*
X60652789Y-137200000D01*
X60217211Y-137200000D01*
X59425031Y-136407820D01*
X59189771Y-136485643D01*
X59011185Y-137016548D01*
X57990000Y-137016548D01*
X57990000Y-136981196D01*
X57907944Y-136783096D01*
X58501009Y-136190031D01*
X59642820Y-136190031D01*
X60435000Y-136982211D01*
X61227180Y-136190031D01*
X61149357Y-135954771D01*
X60618452Y-135776185D01*
X60059618Y-135814363D01*
X59720643Y-135954771D01*
X59642820Y-136190031D01*
X58501009Y-136190031D01*
X59366041Y-135325000D01*
X66235050Y-135325000D01*
X66403482Y-135493432D01*
X66660761Y-135600000D01*
X66939239Y-135600000D01*
X67196518Y-135493432D01*
X67393432Y-135296518D01*
X67500000Y-135039239D01*
X67500000Y-134760761D01*
X67393432Y-134503482D01*
X67196518Y-134306568D01*
X66939239Y-134200000D01*
X66660761Y-134200000D01*
X66557036Y-134242964D01*
X66600000Y-134139239D01*
X66600000Y-133860761D01*
X66493432Y-133603482D01*
X66296518Y-133406568D01*
X66039239Y-133300000D01*
X65833411Y-133300000D01*
X65900000Y-133139239D01*
X65900000Y-132860761D01*
X65793432Y-132603482D01*
X65596518Y-132406568D01*
X65339239Y-132300000D01*
X65060761Y-132300000D01*
X64803482Y-132406568D01*
X64635050Y-132575000D01*
X54041857Y-132575000D01*
X54000000Y-132566674D01*
X53958142Y-132575000D01*
X53834173Y-132599659D01*
X53693592Y-132693592D01*
X53669881Y-132729078D01*
X50216904Y-136182056D01*
X50018804Y-136100000D01*
X49581196Y-136100000D01*
X49176900Y-136267465D01*
X48867465Y-136576900D01*
X48700000Y-136981196D01*
X46869844Y-136981196D01*
X51926041Y-131925000D01*
X74718143Y-131925000D01*
X74760000Y-131933326D01*
X74801857Y-131925000D01*
X74801858Y-131925000D01*
X74925827Y-131900341D01*
X75066408Y-131806408D01*
X75090121Y-131770919D01*
X76297242Y-130563799D01*
X76300801Y-130566177D01*
X76621661Y-130630000D01*
X76838339Y-130630000D01*
X77159199Y-130566177D01*
X77523056Y-130323056D01*
X77638942Y-130149620D01*
X77693592Y-130231410D01*
X77729081Y-130255123D01*
X78744879Y-131270922D01*
X78768590Y-131306408D01*
X78810145Y-131334174D01*
X78909171Y-131400341D01*
X79074998Y-131433326D01*
X79116855Y-131425000D01*
X79155330Y-131425000D01*
X83874853Y-136144524D01*
X83556944Y-136356944D01*
X83313823Y-136720801D01*
X83228450Y-137150000D01*
X83313823Y-137579199D01*
X83556944Y-137943056D01*
X83920801Y-138186177D01*
X84241661Y-138250000D01*
X84458339Y-138250000D01*
X84779199Y-138186177D01*
X85143056Y-137943056D01*
X85386177Y-137579199D01*
X85471550Y-137150000D01*
X85386177Y-136720801D01*
X85143056Y-136356944D01*
X84779199Y-136113823D01*
X84775000Y-136112988D01*
X84775000Y-136060487D01*
X84783326Y-136018630D01*
X84750341Y-135852803D01*
X84724656Y-135814363D01*
X84656408Y-135712222D01*
X84620922Y-135688511D01*
X79661491Y-130729081D01*
X79637778Y-130693592D01*
X79504922Y-130604821D01*
X79699199Y-130566177D01*
X79702758Y-130563799D01*
X81809881Y-132670922D01*
X81833592Y-132706408D01*
X81869077Y-132730118D01*
X81974173Y-132800341D01*
X82140000Y-132833326D01*
X82181857Y-132825000D01*
X83628962Y-132825000D01*
X86853962Y-136050000D01*
X86781661Y-136050000D01*
X86460801Y-136113823D01*
X86096944Y-136356944D01*
X85853823Y-136720801D01*
X85768450Y-137150000D01*
X85853823Y-137579199D01*
X86096944Y-137943056D01*
X86460801Y-138186177D01*
X86781661Y-138250000D01*
X86998339Y-138250000D01*
X87319199Y-138186177D01*
X87683056Y-137943056D01*
X87926177Y-137579199D01*
X88001995Y-137198034D01*
X89178961Y-138375000D01*
X82504671Y-138375000D01*
X82285146Y-138155476D01*
X82603056Y-137943056D01*
X82846177Y-137579199D01*
X82931550Y-137150000D01*
X82846177Y-136720801D01*
X82603056Y-136356944D01*
X82239199Y-136113823D01*
X81918339Y-136050000D01*
X81701661Y-136050000D01*
X81380801Y-136113823D01*
X81016944Y-136356944D01*
X80773823Y-136720801D01*
X80688450Y-137150000D01*
X80773823Y-137579199D01*
X81016944Y-137943056D01*
X81380801Y-138186177D01*
X81385001Y-138187012D01*
X81385001Y-138239508D01*
X81376674Y-138281370D01*
X81409659Y-138447196D01*
X81440660Y-138493592D01*
X81503593Y-138587778D01*
X81539078Y-138611489D01*
X81998511Y-139070922D01*
X82022222Y-139106408D01*
X82057707Y-139130118D01*
X82162803Y-139200341D01*
X82328630Y-139233326D01*
X82370487Y-139225000D01*
X89392552Y-139225000D01*
X100538473Y-150370922D01*
X100562184Y-150406408D01*
X100597669Y-150430118D01*
X100702765Y-150500341D01*
X100868591Y-150533326D01*
X100910449Y-150525000D01*
X109158143Y-150525000D01*
X109200000Y-150533326D01*
X109241857Y-150525000D01*
X109241858Y-150525000D01*
X109365827Y-150500341D01*
X109506408Y-150406408D01*
X109530121Y-150370919D01*
X111070923Y-148830118D01*
X111106408Y-148806408D01*
X111200341Y-148665827D01*
X111225000Y-148541858D01*
X111225000Y-148541857D01*
X111233326Y-148500000D01*
X111225000Y-148458143D01*
X111225000Y-147271564D01*
X111233326Y-147229706D01*
X111200341Y-147063880D01*
X111130118Y-146958784D01*
X111106408Y-146923299D01*
X111070922Y-146899588D01*
X107161163Y-142989829D01*
X115853120Y-142989829D01*
X115853120Y-143606331D01*
X116089045Y-144175903D01*
X116524977Y-144611835D01*
X117094549Y-144847760D01*
X117711051Y-144847760D01*
X118280623Y-144611835D01*
X118716555Y-144175903D01*
X118952480Y-143606331D01*
X118952480Y-142989829D01*
X118716555Y-142420257D01*
X118280623Y-141984325D01*
X117711051Y-141748400D01*
X117094549Y-141748400D01*
X116524977Y-141984325D01*
X116089045Y-142420257D01*
X115853120Y-142989829D01*
X107161163Y-142989829D01*
X105700414Y-141529081D01*
X105676701Y-141493592D01*
X105536120Y-141399659D01*
X105412151Y-141375000D01*
X105412150Y-141375000D01*
X105370293Y-141366674D01*
X105328436Y-141375000D01*
X103476041Y-141375000D01*
X99082237Y-136981196D01*
X100010000Y-136981196D01*
X100010000Y-137418804D01*
X100177465Y-137823100D01*
X100486900Y-138132535D01*
X100891196Y-138300000D01*
X101328804Y-138300000D01*
X101526904Y-138217944D01*
X104376059Y-141067099D01*
X104399772Y-141102588D01*
X104540353Y-141196521D01*
X104706180Y-141229506D01*
X104748037Y-141221180D01*
X113399579Y-141221180D01*
X113587145Y-141674003D01*
X114023077Y-142109935D01*
X114592649Y-142345860D01*
X115209151Y-142345860D01*
X115778723Y-142109935D01*
X116214655Y-141674003D01*
X116450580Y-141104431D01*
X116450580Y-140493009D01*
X125848020Y-140493009D01*
X125848020Y-141109511D01*
X126083945Y-141679083D01*
X126519877Y-142115015D01*
X127089449Y-142350940D01*
X127705951Y-142350940D01*
X128275523Y-142115015D01*
X128711455Y-141679083D01*
X128947380Y-141109511D01*
X128947380Y-140493009D01*
X128711455Y-139923437D01*
X128275523Y-139487505D01*
X127705951Y-139251580D01*
X127089449Y-139251580D01*
X126519877Y-139487505D01*
X126083945Y-139923437D01*
X125848020Y-140493009D01*
X116450580Y-140493009D01*
X116450580Y-140487929D01*
X116214655Y-139918357D01*
X115778723Y-139482425D01*
X115209151Y-139246500D01*
X114592649Y-139246500D01*
X114023077Y-139482425D01*
X113587145Y-139918357D01*
X113399579Y-140371180D01*
X104882220Y-140371180D01*
X102127944Y-137616904D01*
X102210000Y-137418804D01*
X102210000Y-136981196D01*
X103555000Y-136981196D01*
X103555000Y-137418804D01*
X103722465Y-137823100D01*
X104031900Y-138132535D01*
X104436196Y-138300000D01*
X104873804Y-138300000D01*
X105278100Y-138132535D01*
X105587535Y-137823100D01*
X105669591Y-137625000D01*
X108462863Y-137625000D01*
X108504720Y-137633326D01*
X108546577Y-137625000D01*
X108546578Y-137625000D01*
X108670547Y-137600341D01*
X108811128Y-137506408D01*
X108834841Y-137470919D01*
X110814011Y-135491749D01*
X115850580Y-135491749D01*
X115850580Y-136108251D01*
X116086505Y-136677823D01*
X116522437Y-137113755D01*
X117092009Y-137349680D01*
X117708511Y-137349680D01*
X118278083Y-137113755D01*
X118714015Y-136677823D01*
X118949940Y-136108251D01*
X118949940Y-135491749D01*
X118714015Y-134922177D01*
X118278083Y-134486245D01*
X117708511Y-134250320D01*
X117092009Y-134250320D01*
X116522437Y-134486245D01*
X116086505Y-134922177D01*
X115850580Y-135491749D01*
X110814011Y-135491749D01*
X114139826Y-132165934D01*
X114592649Y-132353500D01*
X115209151Y-132353500D01*
X115778723Y-132117575D01*
X116214655Y-131681643D01*
X116450580Y-131112071D01*
X116450580Y-130495569D01*
X116448476Y-130490489D01*
X125848020Y-130490489D01*
X125848020Y-131106991D01*
X126083945Y-131676563D01*
X126519877Y-132112495D01*
X127089449Y-132348420D01*
X127705951Y-132348420D01*
X128275523Y-132112495D01*
X128711455Y-131676563D01*
X128947380Y-131106991D01*
X128947380Y-130490489D01*
X128711455Y-129920917D01*
X128275523Y-129484985D01*
X127705951Y-129249060D01*
X127089449Y-129249060D01*
X126519877Y-129484985D01*
X126083945Y-129920917D01*
X125848020Y-130490489D01*
X116448476Y-130490489D01*
X116214655Y-129925997D01*
X115778723Y-129490065D01*
X115209151Y-129254140D01*
X114592649Y-129254140D01*
X114023077Y-129490065D01*
X113587145Y-129925997D01*
X113351220Y-130495569D01*
X113351220Y-131112071D01*
X113538786Y-131564894D01*
X108328680Y-136775000D01*
X105669591Y-136775000D01*
X105587535Y-136576900D01*
X105278100Y-136267465D01*
X104873804Y-136100000D01*
X104436196Y-136100000D01*
X104031900Y-136267465D01*
X103722465Y-136576900D01*
X103555000Y-136981196D01*
X102210000Y-136981196D01*
X102042535Y-136576900D01*
X101733100Y-136267465D01*
X101328804Y-136100000D01*
X100891196Y-136100000D01*
X100486900Y-136267465D01*
X100177465Y-136576900D01*
X100010000Y-136981196D01*
X99082237Y-136981196D01*
X99030121Y-136929081D01*
X99006408Y-136893592D01*
X98865827Y-136799659D01*
X98741858Y-136775000D01*
X98741857Y-136775000D01*
X98700000Y-136766674D01*
X98658143Y-136775000D01*
X98579591Y-136775000D01*
X98497535Y-136576900D01*
X98188100Y-136267465D01*
X97783804Y-136100000D01*
X97346196Y-136100000D01*
X96941900Y-136267465D01*
X96632465Y-136576900D01*
X96465000Y-136981196D01*
X96465000Y-137418804D01*
X96632465Y-137823100D01*
X96941900Y-138132535D01*
X97346196Y-138300000D01*
X97783804Y-138300000D01*
X98188100Y-138132535D01*
X98497535Y-137823100D01*
X98563297Y-137664337D01*
X99673960Y-138775000D01*
X90781043Y-138775000D01*
X90306043Y-138300000D01*
X90693804Y-138300000D01*
X91098100Y-138132535D01*
X91407535Y-137823100D01*
X91575000Y-137418804D01*
X91575000Y-136981196D01*
X92920000Y-136981196D01*
X92920000Y-137418804D01*
X93087465Y-137823100D01*
X93396900Y-138132535D01*
X93801196Y-138300000D01*
X94238804Y-138300000D01*
X94643100Y-138132535D01*
X94952535Y-137823100D01*
X95120000Y-137418804D01*
X95120000Y-136981196D01*
X94952535Y-136576900D01*
X94643100Y-136267465D01*
X94238804Y-136100000D01*
X93801196Y-136100000D01*
X93396900Y-136267465D01*
X93087465Y-136576900D01*
X92920000Y-136981196D01*
X91575000Y-136981196D01*
X91407535Y-136576900D01*
X91098100Y-136267465D01*
X90693804Y-136100000D01*
X90256196Y-136100000D01*
X90058096Y-136182056D01*
X88405121Y-134529081D01*
X88381408Y-134493592D01*
X88240827Y-134399659D01*
X88116858Y-134375000D01*
X88116857Y-134375000D01*
X88075000Y-134366674D01*
X88059673Y-134369723D01*
X87896518Y-134206568D01*
X87639239Y-134100000D01*
X87360761Y-134100000D01*
X87103482Y-134206568D01*
X86906568Y-134403482D01*
X86800000Y-134660761D01*
X86800000Y-134793958D01*
X85366803Y-133360761D01*
X86200000Y-133360761D01*
X86200000Y-133639239D01*
X86306568Y-133896518D01*
X86503482Y-134093432D01*
X86760761Y-134200000D01*
X87039239Y-134200000D01*
X87296518Y-134093432D01*
X87464950Y-133925000D01*
X106158143Y-133925000D01*
X106200000Y-133933326D01*
X106241857Y-133925000D01*
X106241858Y-133925000D01*
X106365827Y-133900341D01*
X106506408Y-133806408D01*
X106530121Y-133770919D01*
X107376040Y-132925000D01*
X107935050Y-132925000D01*
X108103482Y-133093432D01*
X108360761Y-133200000D01*
X108639239Y-133200000D01*
X108896518Y-133093432D01*
X109093432Y-132896518D01*
X109200000Y-132639239D01*
X109200000Y-132360761D01*
X109093432Y-132103482D01*
X108896518Y-131906568D01*
X108639239Y-131800000D01*
X108360761Y-131800000D01*
X108103482Y-131906568D01*
X107935050Y-132075000D01*
X107241857Y-132075000D01*
X107200000Y-132066674D01*
X107158142Y-132075000D01*
X107034173Y-132099659D01*
X106893592Y-132193592D01*
X106869879Y-132229081D01*
X106023960Y-133075000D01*
X87464950Y-133075000D01*
X87296518Y-132906568D01*
X87039239Y-132800000D01*
X86760761Y-132800000D01*
X86503482Y-132906568D01*
X86306568Y-133103482D01*
X86200000Y-133360761D01*
X85366803Y-133360761D01*
X84135123Y-132129081D01*
X84111410Y-132093592D01*
X83970829Y-131999659D01*
X83846860Y-131975000D01*
X83846859Y-131975000D01*
X83805002Y-131966674D01*
X83763145Y-131975000D01*
X82316041Y-131975000D01*
X80303799Y-129962758D01*
X80306177Y-129959199D01*
X80391550Y-129530000D01*
X80306177Y-129100801D01*
X80125233Y-128829999D01*
X80954767Y-128829999D01*
X80773823Y-129100801D01*
X80688450Y-129530000D01*
X80773823Y-129959199D01*
X81016944Y-130323056D01*
X81380801Y-130566177D01*
X81701661Y-130630000D01*
X81918339Y-130630000D01*
X82239199Y-130566177D01*
X82603056Y-130323056D01*
X82846177Y-129959199D01*
X82931550Y-129530000D01*
X82846177Y-129100801D01*
X82665233Y-128829999D01*
X83494767Y-128829999D01*
X83313823Y-129100801D01*
X83228450Y-129530000D01*
X83313823Y-129959199D01*
X83556944Y-130323056D01*
X83920801Y-130566177D01*
X84241661Y-130630000D01*
X84458339Y-130630000D01*
X84779199Y-130566177D01*
X85143056Y-130323056D01*
X85386177Y-129959199D01*
X85471550Y-129530000D01*
X85386177Y-129100801D01*
X85205233Y-128829999D01*
X86034767Y-128829999D01*
X85853823Y-129100801D01*
X85768450Y-129530000D01*
X85853823Y-129959199D01*
X86096944Y-130323056D01*
X86460801Y-130566177D01*
X86781661Y-130630000D01*
X86998339Y-130630000D01*
X87319199Y-130566177D01*
X87683056Y-130323056D01*
X87926177Y-129959199D01*
X88011550Y-129530000D01*
X87926177Y-129100801D01*
X87745233Y-128829999D01*
X89653176Y-128829999D01*
X89438823Y-129150801D01*
X89353450Y-129580000D01*
X89438823Y-130009199D01*
X89681944Y-130373056D01*
X90045801Y-130616177D01*
X90366661Y-130680000D01*
X90583339Y-130680000D01*
X90904199Y-130616177D01*
X91268056Y-130373056D01*
X91511177Y-130009199D01*
X91596550Y-129580000D01*
X91511177Y-129150801D01*
X91296824Y-128829999D01*
X93198176Y-128829999D01*
X92983823Y-129150801D01*
X92898450Y-129580000D01*
X92983823Y-130009199D01*
X93226944Y-130373056D01*
X93590801Y-130616177D01*
X93911661Y-130680000D01*
X94128339Y-130680000D01*
X94449199Y-130616177D01*
X94813056Y-130373056D01*
X95056177Y-130009199D01*
X95141550Y-129580000D01*
X95082601Y-129283641D01*
X95375000Y-129576041D01*
X95375001Y-130123958D01*
X94098960Y-131400000D01*
X93860761Y-131400000D01*
X93603482Y-131506568D01*
X93406568Y-131703482D01*
X93300000Y-131960761D01*
X93300000Y-132239239D01*
X93406568Y-132496518D01*
X93603482Y-132693432D01*
X93860761Y-132800000D01*
X94139239Y-132800000D01*
X94396518Y-132693432D01*
X94593432Y-132496518D01*
X94700000Y-132239239D01*
X94700000Y-132001040D01*
X96070922Y-130630119D01*
X96106408Y-130606408D01*
X96200341Y-130465827D01*
X96225000Y-130341858D01*
X96225000Y-130341857D01*
X96233326Y-130300001D01*
X96225000Y-130258145D01*
X96225000Y-129580000D01*
X96443450Y-129580000D01*
X96528823Y-130009199D01*
X96771944Y-130373056D01*
X97135801Y-130616177D01*
X97456661Y-130680000D01*
X97673339Y-130680000D01*
X97994199Y-130616177D01*
X98358056Y-130373056D01*
X98601177Y-130009199D01*
X98686550Y-129580000D01*
X99988450Y-129580000D01*
X100073823Y-130009199D01*
X100316944Y-130373056D01*
X100680801Y-130616177D01*
X101001661Y-130680000D01*
X101218339Y-130680000D01*
X101539199Y-130616177D01*
X101903056Y-130373056D01*
X102146177Y-130009199D01*
X102231550Y-129580000D01*
X103533450Y-129580000D01*
X103618823Y-130009199D01*
X103861944Y-130373056D01*
X104225801Y-130616177D01*
X104546661Y-130680000D01*
X104763339Y-130680000D01*
X105084199Y-130616177D01*
X105448056Y-130373056D01*
X105691177Y-130009199D01*
X105776550Y-129580000D01*
X105691177Y-129150801D01*
X105448056Y-128786944D01*
X105084199Y-128543823D01*
X104763339Y-128480000D01*
X104546661Y-128480000D01*
X104225801Y-128543823D01*
X103861944Y-128786944D01*
X103618823Y-129150801D01*
X103533450Y-129580000D01*
X102231550Y-129580000D01*
X102146177Y-129150801D01*
X101903056Y-128786944D01*
X101539199Y-128543823D01*
X101218339Y-128480000D01*
X101001661Y-128480000D01*
X100680801Y-128543823D01*
X100316944Y-128786944D01*
X100073823Y-129150801D01*
X99988450Y-129580000D01*
X98686550Y-129580000D01*
X98601177Y-129150801D01*
X98358056Y-128786944D01*
X97994199Y-128543823D01*
X97673339Y-128480000D01*
X97456661Y-128480000D01*
X97135801Y-128543823D01*
X96771944Y-128786944D01*
X96528823Y-129150801D01*
X96443450Y-129580000D01*
X96225000Y-129580000D01*
X96225000Y-129441857D01*
X96233326Y-129400000D01*
X96200341Y-129234173D01*
X96193271Y-129223592D01*
X96106408Y-129093592D01*
X96070923Y-129069882D01*
X95135120Y-128134080D01*
X95111407Y-128098591D01*
X94970826Y-128004658D01*
X94915581Y-127993669D01*
X115853120Y-127993669D01*
X115853120Y-128610171D01*
X116089045Y-129179743D01*
X116524977Y-129615675D01*
X117094549Y-129851600D01*
X117711051Y-129851600D01*
X118280623Y-129615675D01*
X118716555Y-129179743D01*
X118952480Y-128610171D01*
X118952480Y-127993669D01*
X118716555Y-127424097D01*
X118280623Y-126988165D01*
X117711051Y-126752240D01*
X117094549Y-126752240D01*
X116524977Y-126988165D01*
X116089045Y-127424097D01*
X115853120Y-127993669D01*
X94915581Y-127993669D01*
X94846857Y-127979999D01*
X94846856Y-127979999D01*
X94804999Y-127971673D01*
X94763142Y-127979999D01*
X78771854Y-127979999D01*
X78729998Y-127971673D01*
X78688142Y-127979999D01*
X78688141Y-127979999D01*
X78564172Y-128004658D01*
X78423591Y-128098591D01*
X78399880Y-128134077D01*
X77729079Y-128804879D01*
X77693593Y-128828590D01*
X77669882Y-128864076D01*
X77638942Y-128910380D01*
X77523056Y-128736944D01*
X77159199Y-128493823D01*
X76838339Y-128430000D01*
X76621661Y-128430000D01*
X76300801Y-128493823D01*
X75936944Y-128736944D01*
X75693823Y-129100801D01*
X75608450Y-129530000D01*
X75693823Y-129959199D01*
X75696201Y-129962758D01*
X74583960Y-131075000D01*
X70706040Y-131075000D01*
X71217242Y-130563799D01*
X71220801Y-130566177D01*
X71541661Y-130630000D01*
X71758339Y-130630000D01*
X72079199Y-130566177D01*
X72443056Y-130323056D01*
X72686177Y-129959199D01*
X72771550Y-129530000D01*
X72686177Y-129100801D01*
X72443056Y-128736944D01*
X72125859Y-128525000D01*
X72583960Y-128525000D01*
X73156201Y-129097242D01*
X73153823Y-129100801D01*
X73068450Y-129530000D01*
X73153823Y-129959199D01*
X73396944Y-130323056D01*
X73760801Y-130566177D01*
X74081661Y-130630000D01*
X74298339Y-130630000D01*
X74619199Y-130566177D01*
X74983056Y-130323056D01*
X75226177Y-129959199D01*
X75311550Y-129530000D01*
X75226177Y-129100801D01*
X74983056Y-128736944D01*
X74619199Y-128493823D01*
X74298339Y-128430000D01*
X74081661Y-128430000D01*
X73760801Y-128493823D01*
X73757242Y-128496201D01*
X73090121Y-127829081D01*
X73066408Y-127793592D01*
X72925827Y-127699659D01*
X72801858Y-127675000D01*
X72801857Y-127675000D01*
X72760000Y-127666674D01*
X72718143Y-127675000D01*
X61956857Y-127675000D01*
X61914999Y-127666674D01*
X61873142Y-127675000D01*
X61749173Y-127699659D01*
X61608592Y-127793592D01*
X61584881Y-127829078D01*
X60867758Y-128546201D01*
X60864199Y-128543823D01*
X60543339Y-128480000D01*
X60326661Y-128480000D01*
X60005801Y-128543823D01*
X60002242Y-128546201D01*
X56985121Y-125529081D01*
X56961408Y-125493592D01*
X56821337Y-125400000D01*
X129600001Y-125400000D01*
X129600000Y-159600000D01*
X30400000Y-159600000D01*
X30400000Y-157241414D01*
X113400000Y-157241414D01*
X113400000Y-157758586D01*
X113597913Y-158236391D01*
X113963609Y-158602087D01*
X114441414Y-158800000D01*
X114958586Y-158800000D01*
X115436391Y-158602087D01*
X115802087Y-158236391D01*
X116000000Y-157758586D01*
X116000000Y-157241414D01*
X117900000Y-157241414D01*
X117900000Y-157758586D01*
X118097913Y-158236391D01*
X118463609Y-158602087D01*
X118941414Y-158800000D01*
X119458586Y-158800000D01*
X119936391Y-158602087D01*
X120302087Y-158236391D01*
X120500000Y-157758586D01*
X120500000Y-157241414D01*
X121350000Y-157241414D01*
X121350000Y-157758586D01*
X121547913Y-158236391D01*
X121913609Y-158602087D01*
X122391414Y-158800000D01*
X122908586Y-158800000D01*
X123386391Y-158602087D01*
X123752087Y-158236391D01*
X123950000Y-157758586D01*
X123950000Y-157241414D01*
X125850000Y-157241414D01*
X125850000Y-157758586D01*
X126047913Y-158236391D01*
X126413609Y-158602087D01*
X126891414Y-158800000D01*
X127408586Y-158800000D01*
X127886391Y-158602087D01*
X128252087Y-158236391D01*
X128450000Y-157758586D01*
X128450000Y-157241414D01*
X128252087Y-156763609D01*
X127886391Y-156397913D01*
X127408586Y-156200000D01*
X126891414Y-156200000D01*
X126413609Y-156397913D01*
X126047913Y-156763609D01*
X125850000Y-157241414D01*
X123950000Y-157241414D01*
X123752087Y-156763609D01*
X123386391Y-156397913D01*
X122908586Y-156200000D01*
X122391414Y-156200000D01*
X121913609Y-156397913D01*
X121547913Y-156763609D01*
X121350000Y-157241414D01*
X120500000Y-157241414D01*
X120302087Y-156763609D01*
X119936391Y-156397913D01*
X119458586Y-156200000D01*
X118941414Y-156200000D01*
X118463609Y-156397913D01*
X118097913Y-156763609D01*
X117900000Y-157241414D01*
X116000000Y-157241414D01*
X115802087Y-156763609D01*
X115436391Y-156397913D01*
X114958586Y-156200000D01*
X114441414Y-156200000D01*
X113963609Y-156397913D01*
X113597913Y-156763609D01*
X113400000Y-157241414D01*
X30400000Y-157241414D01*
X30400000Y-153792230D01*
X30450000Y-153792230D01*
X30450000Y-154607770D01*
X30762094Y-155361232D01*
X31338768Y-155937906D01*
X32092230Y-156250000D01*
X32907770Y-156250000D01*
X33661232Y-155937906D01*
X34237906Y-155361232D01*
X34550000Y-154607770D01*
X34550000Y-153792230D01*
X40050000Y-153792230D01*
X40050000Y-154607770D01*
X40362094Y-155361232D01*
X40938768Y-155937906D01*
X41692230Y-156250000D01*
X42507770Y-156250000D01*
X43261232Y-155937906D01*
X43837906Y-155361232D01*
X44150000Y-154607770D01*
X44150000Y-153792230D01*
X44290000Y-153792230D01*
X44290000Y-154607770D01*
X44602094Y-155361232D01*
X45178768Y-155937906D01*
X45932230Y-156250000D01*
X46747770Y-156250000D01*
X47501232Y-155937906D01*
X48077906Y-155361232D01*
X48390000Y-154607770D01*
X48390000Y-153792230D01*
X53890000Y-153792230D01*
X53890000Y-154607770D01*
X54202094Y-155361232D01*
X54778768Y-155937906D01*
X55532230Y-156250000D01*
X56347770Y-156250000D01*
X57101232Y-155937906D01*
X57677906Y-155361232D01*
X57990000Y-154607770D01*
X57990000Y-153792230D01*
X58130000Y-153792230D01*
X58130000Y-154607770D01*
X58442094Y-155361232D01*
X59018768Y-155937906D01*
X59772230Y-156250000D01*
X60587770Y-156250000D01*
X61341232Y-155937906D01*
X61917906Y-155361232D01*
X62230000Y-154607770D01*
X62230000Y-153792230D01*
X67730000Y-153792230D01*
X67730000Y-154607770D01*
X68042094Y-155361232D01*
X68618768Y-155937906D01*
X69372230Y-156250000D01*
X70187770Y-156250000D01*
X70941232Y-155937906D01*
X71517906Y-155361232D01*
X71830000Y-154607770D01*
X71830000Y-153792230D01*
X71970000Y-153792230D01*
X71970000Y-154607770D01*
X72282094Y-155361232D01*
X72858768Y-155937906D01*
X73612230Y-156250000D01*
X74427770Y-156250000D01*
X75181232Y-155937906D01*
X75757906Y-155361232D01*
X76070000Y-154607770D01*
X76070000Y-153792230D01*
X81570000Y-153792230D01*
X81570000Y-154607770D01*
X81882094Y-155361232D01*
X82458768Y-155937906D01*
X83212230Y-156250000D01*
X84027770Y-156250000D01*
X84781232Y-155937906D01*
X85357906Y-155361232D01*
X85670000Y-154607770D01*
X85670000Y-153792230D01*
X85810000Y-153792230D01*
X85810000Y-154607770D01*
X86122094Y-155361232D01*
X86698768Y-155937906D01*
X87452230Y-156250000D01*
X88267770Y-156250000D01*
X89021232Y-155937906D01*
X89597906Y-155361232D01*
X89910000Y-154607770D01*
X89910000Y-153792230D01*
X95410000Y-153792230D01*
X95410000Y-154607770D01*
X95722094Y-155361232D01*
X96298768Y-155937906D01*
X97052230Y-156250000D01*
X97867770Y-156250000D01*
X98621232Y-155937906D01*
X99197906Y-155361232D01*
X99510000Y-154607770D01*
X99510000Y-153792230D01*
X99650000Y-153792230D01*
X99650000Y-154607770D01*
X99962094Y-155361232D01*
X100538768Y-155937906D01*
X101292230Y-156250000D01*
X102107770Y-156250000D01*
X102861232Y-155937906D01*
X103437906Y-155361232D01*
X103750000Y-154607770D01*
X103750000Y-153792230D01*
X109250000Y-153792230D01*
X109250000Y-154607770D01*
X109562094Y-155361232D01*
X110138768Y-155937906D01*
X110892230Y-156250000D01*
X111707770Y-156250000D01*
X112461232Y-155937906D01*
X113037906Y-155361232D01*
X113350000Y-154607770D01*
X113350000Y-153792230D01*
X113037906Y-153038768D01*
X112461232Y-152462094D01*
X111707770Y-152150000D01*
X110892230Y-152150000D01*
X110138768Y-152462094D01*
X109562094Y-153038768D01*
X109250000Y-153792230D01*
X103750000Y-153792230D01*
X103437906Y-153038768D01*
X102861232Y-152462094D01*
X102107770Y-152150000D01*
X101292230Y-152150000D01*
X100538768Y-152462094D01*
X99962094Y-153038768D01*
X99650000Y-153792230D01*
X99510000Y-153792230D01*
X99197906Y-153038768D01*
X98621232Y-152462094D01*
X97867770Y-152150000D01*
X97052230Y-152150000D01*
X96298768Y-152462094D01*
X95722094Y-153038768D01*
X95410000Y-153792230D01*
X89910000Y-153792230D01*
X89597906Y-153038768D01*
X89021232Y-152462094D01*
X88267770Y-152150000D01*
X87452230Y-152150000D01*
X86698768Y-152462094D01*
X86122094Y-153038768D01*
X85810000Y-153792230D01*
X85670000Y-153792230D01*
X85357906Y-153038768D01*
X84781232Y-152462094D01*
X84027770Y-152150000D01*
X83212230Y-152150000D01*
X82458768Y-152462094D01*
X81882094Y-153038768D01*
X81570000Y-153792230D01*
X76070000Y-153792230D01*
X75757906Y-153038768D01*
X75181232Y-152462094D01*
X74427770Y-152150000D01*
X73612230Y-152150000D01*
X72858768Y-152462094D01*
X72282094Y-153038768D01*
X71970000Y-153792230D01*
X71830000Y-153792230D01*
X71517906Y-153038768D01*
X70941232Y-152462094D01*
X70187770Y-152150000D01*
X69372230Y-152150000D01*
X68618768Y-152462094D01*
X68042094Y-153038768D01*
X67730000Y-153792230D01*
X62230000Y-153792230D01*
X61917906Y-153038768D01*
X61341232Y-152462094D01*
X60587770Y-152150000D01*
X59772230Y-152150000D01*
X59018768Y-152462094D01*
X58442094Y-153038768D01*
X58130000Y-153792230D01*
X57990000Y-153792230D01*
X57677906Y-153038768D01*
X57101232Y-152462094D01*
X56347770Y-152150000D01*
X55532230Y-152150000D01*
X54778768Y-152462094D01*
X54202094Y-153038768D01*
X53890000Y-153792230D01*
X48390000Y-153792230D01*
X48077906Y-153038768D01*
X47501232Y-152462094D01*
X46747770Y-152150000D01*
X45932230Y-152150000D01*
X45178768Y-152462094D01*
X44602094Y-153038768D01*
X44290000Y-153792230D01*
X44150000Y-153792230D01*
X43837906Y-153038768D01*
X43261232Y-152462094D01*
X42507770Y-152150000D01*
X41692230Y-152150000D01*
X40938768Y-152462094D01*
X40362094Y-153038768D01*
X40050000Y-153792230D01*
X34550000Y-153792230D01*
X34237906Y-153038768D01*
X33661232Y-152462094D01*
X32907770Y-152150000D01*
X32092230Y-152150000D01*
X31338768Y-152462094D01*
X30762094Y-153038768D01*
X30450000Y-153792230D01*
X30400000Y-153792230D01*
X30400000Y-150741414D01*
X113400000Y-150741414D01*
X113400000Y-151258586D01*
X113597913Y-151736391D01*
X113963609Y-152102087D01*
X114441414Y-152300000D01*
X114958586Y-152300000D01*
X115436391Y-152102087D01*
X115802087Y-151736391D01*
X116000000Y-151258586D01*
X116000000Y-150741414D01*
X117900000Y-150741414D01*
X117900000Y-151258586D01*
X118097913Y-151736391D01*
X118463609Y-152102087D01*
X118941414Y-152300000D01*
X119458586Y-152300000D01*
X119936391Y-152102087D01*
X120302087Y-151736391D01*
X120500000Y-151258586D01*
X120500000Y-150741414D01*
X121350000Y-150741414D01*
X121350000Y-151258586D01*
X121547913Y-151736391D01*
X121913609Y-152102087D01*
X122391414Y-152300000D01*
X122908586Y-152300000D01*
X123386391Y-152102087D01*
X123752087Y-151736391D01*
X123950000Y-151258586D01*
X123950000Y-150741414D01*
X125850000Y-150741414D01*
X125850000Y-151258586D01*
X126047913Y-151736391D01*
X126413609Y-152102087D01*
X126891414Y-152300000D01*
X127408586Y-152300000D01*
X127886391Y-152102087D01*
X128252087Y-151736391D01*
X128450000Y-151258586D01*
X128450000Y-150741414D01*
X128252087Y-150263609D01*
X127886391Y-149897913D01*
X127408586Y-149700000D01*
X126891414Y-149700000D01*
X126413609Y-149897913D01*
X126047913Y-150263609D01*
X125850000Y-150741414D01*
X123950000Y-150741414D01*
X123752087Y-150263609D01*
X123386391Y-149897913D01*
X122908586Y-149700000D01*
X122391414Y-149700000D01*
X121913609Y-149897913D01*
X121547913Y-150263609D01*
X121350000Y-150741414D01*
X120500000Y-150741414D01*
X120302087Y-150263609D01*
X119936391Y-149897913D01*
X119458586Y-149700000D01*
X118941414Y-149700000D01*
X118463609Y-149897913D01*
X118097913Y-150263609D01*
X117900000Y-150741414D01*
X116000000Y-150741414D01*
X115802087Y-150263609D01*
X115436391Y-149897913D01*
X114958586Y-149700000D01*
X114441414Y-149700000D01*
X113963609Y-149897913D01*
X113597913Y-150263609D01*
X113400000Y-150741414D01*
X30400000Y-150741414D01*
X30400000Y-146846587D01*
X33750000Y-146846587D01*
X33750000Y-147553412D01*
X33810922Y-147859688D01*
X34042993Y-148207007D01*
X34390311Y-148439078D01*
X34800000Y-148520570D01*
X35209688Y-148439078D01*
X35557007Y-148207007D01*
X35789078Y-147859689D01*
X35850000Y-147553413D01*
X35850000Y-146846588D01*
X35789078Y-146540312D01*
X35557007Y-146192993D01*
X35209689Y-145960922D01*
X34800000Y-145879430D01*
X34390312Y-145960922D01*
X34042994Y-146192993D01*
X33810922Y-146540311D01*
X33750000Y-146846587D01*
X30400000Y-146846587D01*
X30400000Y-138700090D01*
X30580209Y-138969791D01*
X30853101Y-139152132D01*
X31093749Y-139200000D01*
X32106251Y-139200000D01*
X32346899Y-139152132D01*
X32619791Y-138969791D01*
X32802132Y-138696899D01*
X32866162Y-138375000D01*
X32802132Y-138053101D01*
X32619791Y-137780209D01*
X32346899Y-137597868D01*
X32106251Y-137550000D01*
X31093749Y-137550000D01*
X30853101Y-137597868D01*
X30580209Y-137780209D01*
X30400000Y-138049910D01*
X30400000Y-137281196D01*
X36100000Y-137281196D01*
X36100000Y-137718804D01*
X36267465Y-138123100D01*
X36576900Y-138432535D01*
X36981196Y-138600000D01*
X37418804Y-138600000D01*
X37823100Y-138432535D01*
X38132535Y-138123100D01*
X38300000Y-137718804D01*
X38300000Y-137281196D01*
X38132535Y-136876900D01*
X37823100Y-136567465D01*
X37418804Y-136400000D01*
X36981196Y-136400000D01*
X36576900Y-136567465D01*
X36267465Y-136876900D01*
X36100000Y-137281196D01*
X30400000Y-137281196D01*
X30400000Y-132281196D01*
X36100000Y-132281196D01*
X36100000Y-132718804D01*
X36267465Y-133123100D01*
X36576900Y-133432535D01*
X36981196Y-133600000D01*
X37418804Y-133600000D01*
X37823100Y-133432535D01*
X38132535Y-133123100D01*
X38300000Y-132718804D01*
X38300000Y-132281196D01*
X38132535Y-131876900D01*
X37823100Y-131567465D01*
X37418804Y-131400000D01*
X36981196Y-131400000D01*
X36576900Y-131567465D01*
X36267465Y-131876900D01*
X36100000Y-132281196D01*
X30400000Y-132281196D01*
X30400000Y-131550090D01*
X30580209Y-131819791D01*
X30853101Y-132002132D01*
X31093749Y-132050000D01*
X32106251Y-132050000D01*
X32346899Y-132002132D01*
X32619791Y-131819791D01*
X32802132Y-131546899D01*
X32866162Y-131225000D01*
X32802132Y-130903101D01*
X32619791Y-130630209D01*
X32346899Y-130447868D01*
X32106251Y-130400000D01*
X31093749Y-130400000D01*
X30853101Y-130447868D01*
X30580209Y-130630209D01*
X30400000Y-130899910D01*
X30400000Y-129580000D01*
X48678450Y-129580000D01*
X48763823Y-130009199D01*
X49006944Y-130373056D01*
X49370801Y-130616177D01*
X49691661Y-130680000D01*
X49908339Y-130680000D01*
X50229199Y-130616177D01*
X50593056Y-130373056D01*
X50836177Y-130009199D01*
X50921550Y-129580000D01*
X52223450Y-129580000D01*
X52308823Y-130009199D01*
X52551944Y-130373056D01*
X52915801Y-130616177D01*
X53236661Y-130680000D01*
X53453339Y-130680000D01*
X53774199Y-130616177D01*
X54138056Y-130373056D01*
X54381177Y-130009199D01*
X54466550Y-129580000D01*
X54381177Y-129150801D01*
X54138056Y-128786944D01*
X53774199Y-128543823D01*
X53453339Y-128480000D01*
X53236661Y-128480000D01*
X52915801Y-128543823D01*
X52551944Y-128786944D01*
X52308823Y-129150801D01*
X52223450Y-129580000D01*
X50921550Y-129580000D01*
X50836177Y-129150801D01*
X50593056Y-128786944D01*
X50229199Y-128543823D01*
X49908339Y-128480000D01*
X49691661Y-128480000D01*
X49370801Y-128543823D01*
X49006944Y-128786944D01*
X48763823Y-129150801D01*
X48678450Y-129580000D01*
X30400000Y-129580000D01*
X30400000Y-127106000D01*
X30542000Y-127106000D01*
X30542000Y-127770939D01*
X30634563Y-127994405D01*
X30805596Y-128165438D01*
X31029062Y-128258000D01*
X31694000Y-128258000D01*
X31846000Y-128106000D01*
X31846000Y-126954000D01*
X30694000Y-126954000D01*
X30542000Y-127106000D01*
X30400000Y-127106000D01*
X30400000Y-125400000D01*
X30889037Y-125400000D01*
X30805596Y-125434562D01*
X30805596Y-125434562D01*
G37*
X30805596Y-125434562D02*
X30634563Y-125605595D01*
X30542000Y-125829061D01*
X30542000Y-126494000D01*
X30694000Y-126646000D01*
X31846000Y-126646000D01*
X31846000Y-126626000D01*
X32154000Y-126626000D01*
X32154000Y-126646000D01*
X32174000Y-126646000D01*
X32174000Y-126954000D01*
X32154000Y-126954000D01*
X32154000Y-128106000D01*
X32306000Y-128258000D01*
X32970938Y-128258000D01*
X33194404Y-128165438D01*
X33365437Y-127994405D01*
X33458000Y-127770939D01*
X33458000Y-127250617D01*
X33710897Y-127629103D01*
X34091293Y-127883276D01*
X34426739Y-127950000D01*
X34653261Y-127950000D01*
X34988707Y-127883276D01*
X35008806Y-127869846D01*
X36509881Y-129370922D01*
X36533592Y-129406408D01*
X36569077Y-129430118D01*
X36674173Y-129500341D01*
X36839999Y-129533326D01*
X36881857Y-129525000D01*
X44458143Y-129525000D01*
X44500000Y-129533326D01*
X44541857Y-129525000D01*
X44541858Y-129525000D01*
X44665827Y-129500341D01*
X44806408Y-129406408D01*
X44830121Y-129370919D01*
X45391071Y-128809969D01*
X46907820Y-128809969D01*
X46985643Y-129045229D01*
X47516548Y-129223815D01*
X48075382Y-129185637D01*
X48414357Y-129045229D01*
X48492180Y-128809969D01*
X47700000Y-128017789D01*
X46907820Y-128809969D01*
X45391071Y-128809969D01*
X46295901Y-127905140D01*
X46314363Y-128175382D01*
X46454771Y-128514357D01*
X46690031Y-128592180D01*
X47482211Y-127800000D01*
X47468069Y-127785858D01*
X47685858Y-127568069D01*
X47700000Y-127582211D01*
X47714142Y-127568069D01*
X47931931Y-127785858D01*
X47917789Y-127800000D01*
X48709969Y-128592180D01*
X48945229Y-128514357D01*
X49123815Y-127983452D01*
X49085637Y-127424618D01*
X48951175Y-127099999D01*
X55473961Y-127099999D01*
X56853962Y-128480000D01*
X56781661Y-128480000D01*
X56460801Y-128543823D01*
X56096944Y-128786944D01*
X55853823Y-129150801D01*
X55768450Y-129580000D01*
X55853823Y-130009199D01*
X56096944Y-130373056D01*
X56460801Y-130616177D01*
X56781661Y-130680000D01*
X56998339Y-130680000D01*
X57319199Y-130616177D01*
X57683056Y-130373056D01*
X57926177Y-130009199D01*
X58001995Y-129628034D01*
X59448961Y-131075000D01*
X51791857Y-131075000D01*
X51750000Y-131066674D01*
X51708142Y-131075000D01*
X51584173Y-131099659D01*
X51443592Y-131193592D01*
X51419881Y-131229078D01*
X37029079Y-145619881D01*
X36993593Y-145643592D01*
X36969883Y-145679077D01*
X36969882Y-145679078D01*
X36899659Y-145784174D01*
X36866674Y-145950000D01*
X36871365Y-145973582D01*
X36542994Y-146192993D01*
X36310922Y-146540311D01*
X36250000Y-146846587D01*
X36250000Y-147553412D01*
X36310922Y-147859688D01*
X36542993Y-148207007D01*
X36890311Y-148439078D01*
X37300000Y-148520570D01*
X37709688Y-148439078D01*
X38057007Y-148207007D01*
X38289078Y-147859689D01*
X38347005Y-147568469D01*
X38438343Y-147568469D01*
X38587329Y-148080535D01*
X38920933Y-148496607D01*
X39388367Y-148753343D01*
X39436828Y-148758538D01*
X39646000Y-148646127D01*
X39646000Y-147354000D01*
X39954000Y-147354000D01*
X39954000Y-148646127D01*
X40163172Y-148758538D01*
X40211633Y-148753343D01*
X40679067Y-148496607D01*
X41012671Y-148080535D01*
X41161657Y-147568469D01*
X41011425Y-147354000D01*
X39954000Y-147354000D01*
X39646000Y-147354000D01*
X38588575Y-147354000D01*
X38438343Y-147568469D01*
X38347005Y-147568469D01*
X38350000Y-147553413D01*
X38350000Y-146846588D01*
X38347005Y-146831531D01*
X38438343Y-146831531D01*
X38588575Y-147046000D01*
X39646000Y-147046000D01*
X39646000Y-145753873D01*
X39954000Y-145753873D01*
X39954000Y-147046000D01*
X41011425Y-147046000D01*
X41151110Y-146846587D01*
X47590000Y-146846587D01*
X47590000Y-147553412D01*
X47650922Y-147859688D01*
X47882993Y-148207007D01*
X48230311Y-148439078D01*
X48640000Y-148520570D01*
X49049688Y-148439078D01*
X49397007Y-148207007D01*
X49629078Y-147859689D01*
X49690000Y-147553413D01*
X49690000Y-146846588D01*
X49690000Y-146846587D01*
X50090000Y-146846587D01*
X50090000Y-147553412D01*
X50150922Y-147859688D01*
X50382993Y-148207007D01*
X50730311Y-148439078D01*
X51140000Y-148520570D01*
X51549688Y-148439078D01*
X51897007Y-148207007D01*
X52129078Y-147859689D01*
X52187005Y-147568469D01*
X52278343Y-147568469D01*
X52427329Y-148080535D01*
X52760933Y-148496607D01*
X53228367Y-148753343D01*
X53276828Y-148758538D01*
X53486000Y-148646127D01*
X53486000Y-147354000D01*
X53794000Y-147354000D01*
X53794000Y-148646127D01*
X54003172Y-148758538D01*
X54051633Y-148753343D01*
X54519067Y-148496607D01*
X54852671Y-148080535D01*
X55001657Y-147568469D01*
X54851425Y-147354000D01*
X53794000Y-147354000D01*
X53486000Y-147354000D01*
X52428575Y-147354000D01*
X52278343Y-147568469D01*
X52187005Y-147568469D01*
X52190000Y-147553413D01*
X52190000Y-146846588D01*
X52132670Y-146558370D01*
X52652867Y-146038173D01*
X52427329Y-146319465D01*
X52278343Y-146831531D01*
X52428575Y-147046000D01*
X53486000Y-147046000D01*
X53486000Y-145753873D01*
X53794000Y-145753873D01*
X53794000Y-147046000D01*
X54851425Y-147046000D01*
X54991110Y-146846587D01*
X61430000Y-146846587D01*
X61430000Y-147553412D01*
X61490922Y-147859688D01*
X61722993Y-148207007D01*
X62070311Y-148439078D01*
X62480000Y-148520570D01*
X62889688Y-148439078D01*
X63237007Y-148207007D01*
X63469078Y-147859689D01*
X63530000Y-147553413D01*
X63530000Y-146846588D01*
X63530000Y-146846587D01*
X63930000Y-146846587D01*
X63930000Y-147553412D01*
X63990922Y-147859688D01*
X64222993Y-148207007D01*
X64570311Y-148439078D01*
X64980000Y-148520570D01*
X65389688Y-148439078D01*
X65737007Y-148207007D01*
X65969078Y-147859689D01*
X66027005Y-147568469D01*
X66118343Y-147568469D01*
X66267329Y-148080535D01*
X66600933Y-148496607D01*
X67068367Y-148753343D01*
X67116828Y-148758538D01*
X67326000Y-148646127D01*
X67326000Y-147354000D01*
X67634000Y-147354000D01*
X67634000Y-148646127D01*
X67843172Y-148758538D01*
X67891633Y-148753343D01*
X68359067Y-148496607D01*
X68692671Y-148080535D01*
X68841657Y-147568469D01*
X68691425Y-147354000D01*
X67634000Y-147354000D01*
X67326000Y-147354000D01*
X66268575Y-147354000D01*
X66118343Y-147568469D01*
X66027005Y-147568469D01*
X66030000Y-147553413D01*
X66030000Y-146846588D01*
X66027005Y-146831531D01*
X66118343Y-146831531D01*
X66268575Y-147046000D01*
X67326000Y-147046000D01*
X67326000Y-145753873D01*
X67634000Y-145753873D01*
X67634000Y-147046000D01*
X68691425Y-147046000D01*
X68831110Y-146846587D01*
X75270000Y-146846587D01*
X75270000Y-147553412D01*
X75330922Y-147859688D01*
X75562993Y-148207007D01*
X75910311Y-148439078D01*
X76320000Y-148520570D01*
X76729688Y-148439078D01*
X77077007Y-148207007D01*
X77309078Y-147859689D01*
X77370000Y-147553413D01*
X77370000Y-146846588D01*
X77309078Y-146540312D01*
X77077007Y-146192993D01*
X76729689Y-145960922D01*
X76320000Y-145879430D01*
X75910312Y-145960922D01*
X75562994Y-146192993D01*
X75330922Y-146540311D01*
X75270000Y-146846587D01*
X68831110Y-146846587D01*
X68841657Y-146831531D01*
X68692671Y-146319465D01*
X68359067Y-145903393D01*
X67891633Y-145646657D01*
X67843172Y-145641462D01*
X67634000Y-145753873D01*
X67326000Y-145753873D01*
X67116828Y-145641462D01*
X67068367Y-145646657D01*
X66600933Y-145903393D01*
X66267329Y-146319465D01*
X66118343Y-146831531D01*
X66027005Y-146831531D01*
X65969078Y-146540312D01*
X65741429Y-146199611D01*
X73720119Y-138220922D01*
X73720121Y-138220919D01*
X73757241Y-138183799D01*
X73760801Y-138186177D01*
X74081661Y-138250000D01*
X74298339Y-138250000D01*
X74619199Y-138186177D01*
X74983056Y-137943056D01*
X75226177Y-137579199D01*
X75311550Y-137150000D01*
X75608450Y-137150000D01*
X75693823Y-137579199D01*
X75936944Y-137943056D01*
X76300801Y-138186177D01*
X76621661Y-138250000D01*
X76838339Y-138250000D01*
X77159199Y-138186177D01*
X77162758Y-138183799D01*
X78395001Y-139416042D01*
X78395000Y-145971153D01*
X78062994Y-146192993D01*
X77830922Y-146540311D01*
X77770000Y-146846587D01*
X77770000Y-147553412D01*
X77830922Y-147859688D01*
X78062993Y-148207007D01*
X78410311Y-148439078D01*
X78820000Y-148520570D01*
X79229688Y-148439078D01*
X79577007Y-148207007D01*
X79809078Y-147859689D01*
X79867005Y-147568469D01*
X79958343Y-147568469D01*
X80107329Y-148080535D01*
X80440933Y-148496607D01*
X80908367Y-148753343D01*
X80956828Y-148758538D01*
X81166000Y-148646127D01*
X81166000Y-147354000D01*
X81474000Y-147354000D01*
X81474000Y-148646127D01*
X81683172Y-148758538D01*
X81731633Y-148753343D01*
X82199067Y-148496607D01*
X82532671Y-148080535D01*
X82681657Y-147568469D01*
X82531425Y-147354000D01*
X81474000Y-147354000D01*
X81166000Y-147354000D01*
X80108575Y-147354000D01*
X79958343Y-147568469D01*
X79867005Y-147568469D01*
X79870000Y-147553413D01*
X79870000Y-146846588D01*
X79867005Y-146831531D01*
X79958343Y-146831531D01*
X80108575Y-147046000D01*
X81166000Y-147046000D01*
X81166000Y-145753873D01*
X81474000Y-145753873D01*
X81474000Y-147046000D01*
X82531425Y-147046000D01*
X82671110Y-146846587D01*
X89110000Y-146846587D01*
X89110000Y-147553412D01*
X89170922Y-147859688D01*
X89402993Y-148207007D01*
X89750311Y-148439078D01*
X90160000Y-148520570D01*
X90569688Y-148439078D01*
X90917007Y-148207007D01*
X91149078Y-147859689D01*
X91210000Y-147553413D01*
X91210000Y-146846588D01*
X91149078Y-146540312D01*
X90917007Y-146192993D01*
X90569689Y-145960922D01*
X90160000Y-145879430D01*
X89750312Y-145960922D01*
X89402994Y-146192993D01*
X89170922Y-146540311D01*
X89110000Y-146846587D01*
X82671110Y-146846587D01*
X82681657Y-146831531D01*
X82532671Y-146319465D01*
X82199067Y-145903393D01*
X81731633Y-145646657D01*
X81683172Y-145641462D01*
X81474000Y-145753873D01*
X81166000Y-145753873D01*
X80956828Y-145641462D01*
X80908367Y-145646657D01*
X80440933Y-145903393D01*
X80107329Y-146319465D01*
X79958343Y-146831531D01*
X79867005Y-146831531D01*
X79809078Y-146540312D01*
X79577007Y-146192993D01*
X79245000Y-145971153D01*
X79245000Y-139281855D01*
X79253326Y-139239999D01*
X79231469Y-139130118D01*
X79220341Y-139074173D01*
X79126408Y-138933592D01*
X79090922Y-138909881D01*
X77763799Y-137582758D01*
X77766177Y-137579199D01*
X77851550Y-137150000D01*
X78148450Y-137150000D01*
X78233823Y-137579199D01*
X78476944Y-137943056D01*
X78840801Y-138186177D01*
X79161661Y-138250000D01*
X79378339Y-138250000D01*
X79699199Y-138186177D01*
X79702758Y-138183799D01*
X81789881Y-140270922D01*
X81813592Y-140306408D01*
X81947435Y-140395839D01*
X81954173Y-140400341D01*
X82120000Y-140433326D01*
X82161857Y-140425000D01*
X86533960Y-140425000D01*
X92142152Y-146033193D01*
X91902994Y-146192993D01*
X91670922Y-146540311D01*
X91610000Y-146846587D01*
X91610000Y-147553412D01*
X91670922Y-147859688D01*
X91902993Y-148207007D01*
X92250311Y-148439078D01*
X92660000Y-148520570D01*
X93069688Y-148439078D01*
X93417007Y-148207007D01*
X93649078Y-147859689D01*
X93707005Y-147568469D01*
X93798343Y-147568469D01*
X93947329Y-148080535D01*
X94280933Y-148496607D01*
X94748367Y-148753343D01*
X94796828Y-148758538D01*
X95006000Y-148646127D01*
X95006000Y-147354000D01*
X95314000Y-147354000D01*
X95314000Y-148646127D01*
X95523172Y-148758538D01*
X95571633Y-148753343D01*
X96039067Y-148496607D01*
X96372671Y-148080535D01*
X96521657Y-147568469D01*
X96371425Y-147354000D01*
X95314000Y-147354000D01*
X95006000Y-147354000D01*
X93948575Y-147354000D01*
X93798343Y-147568469D01*
X93707005Y-147568469D01*
X93710000Y-147553413D01*
X93710000Y-146846588D01*
X93707005Y-146831531D01*
X93798343Y-146831531D01*
X93948575Y-147046000D01*
X95006000Y-147046000D01*
X95006000Y-145753873D01*
X95314000Y-145753873D01*
X95314000Y-147046000D01*
X96371425Y-147046000D01*
X96521657Y-146831531D01*
X96372671Y-146319465D01*
X96039067Y-145903393D01*
X95571633Y-145646657D01*
X95523172Y-145641462D01*
X95314000Y-145753873D01*
X95006000Y-145753873D01*
X94796828Y-145641462D01*
X94748367Y-145646657D01*
X94280933Y-145903393D01*
X93947329Y-146319465D01*
X93798343Y-146831531D01*
X93707005Y-146831531D01*
X93649078Y-146540312D01*
X93417007Y-146192993D01*
X93088635Y-145973582D01*
X93093326Y-145950000D01*
X93060341Y-145784173D01*
X92990118Y-145679077D01*
X92966408Y-145643592D01*
X92930922Y-145619881D01*
X87040121Y-139729081D01*
X87016408Y-139693592D01*
X86875827Y-139599659D01*
X86751858Y-139575000D01*
X86751857Y-139575000D01*
X86710000Y-139566674D01*
X86668143Y-139575000D01*
X82296041Y-139575000D01*
X80303799Y-137582758D01*
X80306177Y-137579199D01*
X80391550Y-137150000D01*
X80306177Y-136720801D01*
X80063056Y-136356944D01*
X79699199Y-136113823D01*
X79378339Y-136050000D01*
X79161661Y-136050000D01*
X78840801Y-136113823D01*
X78476944Y-136356944D01*
X78233823Y-136720801D01*
X78148450Y-137150000D01*
X77851550Y-137150000D01*
X77766177Y-136720801D01*
X77523056Y-136356944D01*
X77159199Y-136113823D01*
X76838339Y-136050000D01*
X76621661Y-136050000D01*
X76300801Y-136113823D01*
X75936944Y-136356944D01*
X75693823Y-136720801D01*
X75608450Y-137150000D01*
X75311550Y-137150000D01*
X75226177Y-136720801D01*
X74983056Y-136356944D01*
X74619199Y-136113823D01*
X74298339Y-136050000D01*
X74081661Y-136050000D01*
X73760801Y-136113823D01*
X73396944Y-136356944D01*
X73153823Y-136720801D01*
X73068450Y-137150000D01*
X73153823Y-137579199D01*
X73156201Y-137582759D01*
X73119081Y-137619879D01*
X73119078Y-137619881D01*
X64829617Y-145909343D01*
X64570312Y-145960922D01*
X64222994Y-146192993D01*
X63990922Y-146540311D01*
X63930000Y-146846587D01*
X63530000Y-146846587D01*
X63469078Y-146540312D01*
X63237007Y-146192993D01*
X62889689Y-145960922D01*
X62480000Y-145879430D01*
X62070312Y-145960922D01*
X61722994Y-146192993D01*
X61490922Y-146540311D01*
X61430000Y-146846587D01*
X54991110Y-146846587D01*
X55001657Y-146831531D01*
X54852671Y-146319465D01*
X54519067Y-145903393D01*
X54051633Y-145646657D01*
X54003172Y-145641462D01*
X53794000Y-145753873D01*
X53486000Y-145753873D01*
X53276828Y-145641462D01*
X53228367Y-145646657D01*
X52820199Y-145870842D01*
X58366041Y-140325000D01*
X63778143Y-140325000D01*
X63820000Y-140333326D01*
X63861857Y-140325000D01*
X63861858Y-140325000D01*
X63985827Y-140300341D01*
X64126408Y-140206408D01*
X64150121Y-140170919D01*
X66137242Y-138183799D01*
X66140801Y-138186177D01*
X66461661Y-138250000D01*
X66678339Y-138250000D01*
X66999199Y-138186177D01*
X67363056Y-137943056D01*
X67606177Y-137579199D01*
X67691550Y-137150000D01*
X67988450Y-137150000D01*
X68073823Y-137579199D01*
X68316944Y-137943056D01*
X68680801Y-138186177D01*
X69001661Y-138250000D01*
X69218339Y-138250000D01*
X69539199Y-138186177D01*
X69903056Y-137943056D01*
X70146177Y-137579199D01*
X70231550Y-137150000D01*
X70528450Y-137150000D01*
X70613823Y-137579199D01*
X70856944Y-137943056D01*
X71220801Y-138186177D01*
X71541661Y-138250000D01*
X71758339Y-138250000D01*
X72079199Y-138186177D01*
X72443056Y-137943056D01*
X72686177Y-137579199D01*
X72771550Y-137150000D01*
X72686177Y-136720801D01*
X72443056Y-136356944D01*
X72079199Y-136113823D01*
X71758339Y-136050000D01*
X71541661Y-136050000D01*
X71220801Y-136113823D01*
X70856944Y-136356944D01*
X70613823Y-136720801D01*
X70528450Y-137150000D01*
X70231550Y-137150000D01*
X70146177Y-136720801D01*
X69903056Y-136356944D01*
X69539199Y-136113823D01*
X69218339Y-136050000D01*
X69001661Y-136050000D01*
X68680801Y-136113823D01*
X68316944Y-136356944D01*
X68073823Y-136720801D01*
X67988450Y-137150000D01*
X67691550Y-137150000D01*
X67606177Y-136720801D01*
X67363056Y-136356944D01*
X66999199Y-136113823D01*
X66678339Y-136050000D01*
X66461661Y-136050000D01*
X66140801Y-136113823D01*
X65776944Y-136356944D01*
X65533823Y-136720801D01*
X65448450Y-137150000D01*
X65533823Y-137579199D01*
X65536201Y-137582758D01*
X65127662Y-137991297D01*
X65135877Y-137950000D01*
X65135877Y-136350000D01*
X65112593Y-136232946D01*
X65046288Y-136133712D01*
X64947054Y-136067407D01*
X64830000Y-136044123D01*
X63230000Y-136044123D01*
X63112946Y-136067407D01*
X63013712Y-136133712D01*
X62947407Y-136232946D01*
X62924123Y-136350000D01*
X62924123Y-137950000D01*
X62947407Y-138067054D01*
X63013712Y-138166288D01*
X63112946Y-138232593D01*
X63230000Y-138255877D01*
X64830000Y-138255877D01*
X64871297Y-138247662D01*
X63643960Y-139475000D01*
X58231857Y-139475000D01*
X58190000Y-139466674D01*
X58148142Y-139475000D01*
X58024173Y-139499659D01*
X57883592Y-139593592D01*
X57859881Y-139629078D01*
X51531630Y-145957330D01*
X51140000Y-145879430D01*
X50730312Y-145960922D01*
X50382994Y-146192993D01*
X50150922Y-146540311D01*
X50090000Y-146846587D01*
X49690000Y-146846587D01*
X49629078Y-146540312D01*
X49397007Y-146192993D01*
X49049689Y-145960922D01*
X48640000Y-145879430D01*
X48230312Y-145960922D01*
X47882994Y-146192993D01*
X47650922Y-146540311D01*
X47590000Y-146846587D01*
X41151110Y-146846587D01*
X41161657Y-146831531D01*
X41012671Y-146319465D01*
X40679067Y-145903393D01*
X40211633Y-145646657D01*
X40163172Y-145641462D01*
X39954000Y-145753873D01*
X39646000Y-145753873D01*
X39436828Y-145641462D01*
X39388367Y-145646657D01*
X38920933Y-145903393D01*
X38587329Y-146319465D01*
X38438343Y-146831531D01*
X38347005Y-146831531D01*
X38289078Y-146540312D01*
X38057007Y-146192993D01*
X37817848Y-146033192D01*
X46869844Y-136981196D01*
X48700000Y-136981196D01*
X48700000Y-137418804D01*
X48867465Y-137823100D01*
X49176900Y-138132535D01*
X49581196Y-138300000D01*
X50018804Y-138300000D01*
X50423100Y-138132535D01*
X50732535Y-137823100D01*
X50900000Y-137418804D01*
X50900000Y-136981196D01*
X50817944Y-136783096D01*
X54176041Y-133425000D01*
X64635050Y-133425000D01*
X64785050Y-133575000D01*
X56586855Y-133575000D01*
X56544999Y-133566674D01*
X56503143Y-133575000D01*
X56503142Y-133575000D01*
X56379173Y-133599659D01*
X56238592Y-133693592D01*
X56214881Y-133729078D01*
X53761904Y-136182056D01*
X53563804Y-136100000D01*
X53126196Y-136100000D01*
X52721900Y-136267465D01*
X52412465Y-136576900D01*
X52245000Y-136981196D01*
X52245000Y-137418804D01*
X52412465Y-137823100D01*
X52721900Y-138132535D01*
X53126196Y-138300000D01*
X53563804Y-138300000D01*
X53968100Y-138132535D01*
X54277535Y-137823100D01*
X54445000Y-137418804D01*
X54445000Y-136981196D01*
X54362944Y-136783096D01*
X56721041Y-134425000D01*
X65335050Y-134425000D01*
X65385050Y-134475000D01*
X59231857Y-134475000D01*
X59189999Y-134466674D01*
X59054674Y-134493592D01*
X59024173Y-134499659D01*
X58883592Y-134593592D01*
X58859881Y-134629078D01*
X57306904Y-136182056D01*
X57108804Y-136100000D01*
X56671196Y-136100000D01*
X56266900Y-136267465D01*
X55957465Y-136576900D01*
X55790000Y-136981196D01*
X55790000Y-137418804D01*
X55957465Y-137823100D01*
X56266900Y-138132535D01*
X56671196Y-138300000D01*
X57108804Y-138300000D01*
X57326157Y-138209969D01*
X59642820Y-138209969D01*
X59720643Y-138445229D01*
X60251548Y-138623815D01*
X60810382Y-138585637D01*
X61149357Y-138445229D01*
X61227180Y-138209969D01*
X60435000Y-137417789D01*
X59642820Y-138209969D01*
X57326157Y-138209969D01*
X57513100Y-138132535D01*
X57822535Y-137823100D01*
X57990000Y-137418804D01*
X57990000Y-137016548D01*
X59011185Y-137016548D01*
X59049363Y-137575382D01*
X59189771Y-137914357D01*
X59425031Y-137992180D01*
X60217211Y-137200000D01*
X60652789Y-137200000D01*
X61444969Y-137992180D01*
X61680229Y-137914357D01*
X61858815Y-137383452D01*
X61820637Y-136824618D01*
X61680229Y-136485643D01*
X61444969Y-136407820D01*
X60652789Y-137200000D01*
X60217211Y-137200000D01*
X59425031Y-136407820D01*
X59189771Y-136485643D01*
X59011185Y-137016548D01*
X57990000Y-137016548D01*
X57990000Y-136981196D01*
X57907944Y-136783096D01*
X58501009Y-136190031D01*
X59642820Y-136190031D01*
X60435000Y-136982211D01*
X61227180Y-136190031D01*
X61149357Y-135954771D01*
X60618452Y-135776185D01*
X60059618Y-135814363D01*
X59720643Y-135954771D01*
X59642820Y-136190031D01*
X58501009Y-136190031D01*
X59366041Y-135325000D01*
X66235050Y-135325000D01*
X66403482Y-135493432D01*
X66660761Y-135600000D01*
X66939239Y-135600000D01*
X67196518Y-135493432D01*
X67393432Y-135296518D01*
X67500000Y-135039239D01*
X67500000Y-134760761D01*
X67393432Y-134503482D01*
X67196518Y-134306568D01*
X66939239Y-134200000D01*
X66660761Y-134200000D01*
X66557036Y-134242964D01*
X66600000Y-134139239D01*
X66600000Y-133860761D01*
X66493432Y-133603482D01*
X66296518Y-133406568D01*
X66039239Y-133300000D01*
X65833411Y-133300000D01*
X65900000Y-133139239D01*
X65900000Y-132860761D01*
X65793432Y-132603482D01*
X65596518Y-132406568D01*
X65339239Y-132300000D01*
X65060761Y-132300000D01*
X64803482Y-132406568D01*
X64635050Y-132575000D01*
X54041857Y-132575000D01*
X54000000Y-132566674D01*
X53958142Y-132575000D01*
X53834173Y-132599659D01*
X53693592Y-132693592D01*
X53669881Y-132729078D01*
X50216904Y-136182056D01*
X50018804Y-136100000D01*
X49581196Y-136100000D01*
X49176900Y-136267465D01*
X48867465Y-136576900D01*
X48700000Y-136981196D01*
X46869844Y-136981196D01*
X51926041Y-131925000D01*
X74718143Y-131925000D01*
X74760000Y-131933326D01*
X74801857Y-131925000D01*
X74801858Y-131925000D01*
X74925827Y-131900341D01*
X75066408Y-131806408D01*
X75090121Y-131770919D01*
X76297242Y-130563799D01*
X76300801Y-130566177D01*
X76621661Y-130630000D01*
X76838339Y-130630000D01*
X77159199Y-130566177D01*
X77523056Y-130323056D01*
X77638942Y-130149620D01*
X77693592Y-130231410D01*
X77729081Y-130255123D01*
X78744879Y-131270922D01*
X78768590Y-131306408D01*
X78810145Y-131334174D01*
X78909171Y-131400341D01*
X79074998Y-131433326D01*
X79116855Y-131425000D01*
X79155330Y-131425000D01*
X83874853Y-136144524D01*
X83556944Y-136356944D01*
X83313823Y-136720801D01*
X83228450Y-137150000D01*
X83313823Y-137579199D01*
X83556944Y-137943056D01*
X83920801Y-138186177D01*
X84241661Y-138250000D01*
X84458339Y-138250000D01*
X84779199Y-138186177D01*
X85143056Y-137943056D01*
X85386177Y-137579199D01*
X85471550Y-137150000D01*
X85386177Y-136720801D01*
X85143056Y-136356944D01*
X84779199Y-136113823D01*
X84775000Y-136112988D01*
X84775000Y-136060487D01*
X84783326Y-136018630D01*
X84750341Y-135852803D01*
X84724656Y-135814363D01*
X84656408Y-135712222D01*
X84620922Y-135688511D01*
X79661491Y-130729081D01*
X79637778Y-130693592D01*
X79504922Y-130604821D01*
X79699199Y-130566177D01*
X79702758Y-130563799D01*
X81809881Y-132670922D01*
X81833592Y-132706408D01*
X81869077Y-132730118D01*
X81974173Y-132800341D01*
X82140000Y-132833326D01*
X82181857Y-132825000D01*
X83628962Y-132825000D01*
X86853962Y-136050000D01*
X86781661Y-136050000D01*
X86460801Y-136113823D01*
X86096944Y-136356944D01*
X85853823Y-136720801D01*
X85768450Y-137150000D01*
X85853823Y-137579199D01*
X86096944Y-137943056D01*
X86460801Y-138186177D01*
X86781661Y-138250000D01*
X86998339Y-138250000D01*
X87319199Y-138186177D01*
X87683056Y-137943056D01*
X87926177Y-137579199D01*
X88001995Y-137198034D01*
X89178961Y-138375000D01*
X82504671Y-138375000D01*
X82285146Y-138155476D01*
X82603056Y-137943056D01*
X82846177Y-137579199D01*
X82931550Y-137150000D01*
X82846177Y-136720801D01*
X82603056Y-136356944D01*
X82239199Y-136113823D01*
X81918339Y-136050000D01*
X81701661Y-136050000D01*
X81380801Y-136113823D01*
X81016944Y-136356944D01*
X80773823Y-136720801D01*
X80688450Y-137150000D01*
X80773823Y-137579199D01*
X81016944Y-137943056D01*
X81380801Y-138186177D01*
X81385001Y-138187012D01*
X81385001Y-138239508D01*
X81376674Y-138281370D01*
X81409659Y-138447196D01*
X81440660Y-138493592D01*
X81503593Y-138587778D01*
X81539078Y-138611489D01*
X81998511Y-139070922D01*
X82022222Y-139106408D01*
X82057707Y-139130118D01*
X82162803Y-139200341D01*
X82328630Y-139233326D01*
X82370487Y-139225000D01*
X89392552Y-139225000D01*
X100538473Y-150370922D01*
X100562184Y-150406408D01*
X100597669Y-150430118D01*
X100702765Y-150500341D01*
X100868591Y-150533326D01*
X100910449Y-150525000D01*
X109158143Y-150525000D01*
X109200000Y-150533326D01*
X109241857Y-150525000D01*
X109241858Y-150525000D01*
X109365827Y-150500341D01*
X109506408Y-150406408D01*
X109530121Y-150370919D01*
X111070923Y-148830118D01*
X111106408Y-148806408D01*
X111200341Y-148665827D01*
X111225000Y-148541858D01*
X111225000Y-148541857D01*
X111233326Y-148500000D01*
X111225000Y-148458143D01*
X111225000Y-147271564D01*
X111233326Y-147229706D01*
X111200341Y-147063880D01*
X111130118Y-146958784D01*
X111106408Y-146923299D01*
X111070922Y-146899588D01*
X107161163Y-142989829D01*
X115853120Y-142989829D01*
X115853120Y-143606331D01*
X116089045Y-144175903D01*
X116524977Y-144611835D01*
X117094549Y-144847760D01*
X117711051Y-144847760D01*
X118280623Y-144611835D01*
X118716555Y-144175903D01*
X118952480Y-143606331D01*
X118952480Y-142989829D01*
X118716555Y-142420257D01*
X118280623Y-141984325D01*
X117711051Y-141748400D01*
X117094549Y-141748400D01*
X116524977Y-141984325D01*
X116089045Y-142420257D01*
X115853120Y-142989829D01*
X107161163Y-142989829D01*
X105700414Y-141529081D01*
X105676701Y-141493592D01*
X105536120Y-141399659D01*
X105412151Y-141375000D01*
X105412150Y-141375000D01*
X105370293Y-141366674D01*
X105328436Y-141375000D01*
X103476041Y-141375000D01*
X99082237Y-136981196D01*
X100010000Y-136981196D01*
X100010000Y-137418804D01*
X100177465Y-137823100D01*
X100486900Y-138132535D01*
X100891196Y-138300000D01*
X101328804Y-138300000D01*
X101526904Y-138217944D01*
X104376059Y-141067099D01*
X104399772Y-141102588D01*
X104540353Y-141196521D01*
X104706180Y-141229506D01*
X104748037Y-141221180D01*
X113399579Y-141221180D01*
X113587145Y-141674003D01*
X114023077Y-142109935D01*
X114592649Y-142345860D01*
X115209151Y-142345860D01*
X115778723Y-142109935D01*
X116214655Y-141674003D01*
X116450580Y-141104431D01*
X116450580Y-140493009D01*
X125848020Y-140493009D01*
X125848020Y-141109511D01*
X126083945Y-141679083D01*
X126519877Y-142115015D01*
X127089449Y-142350940D01*
X127705951Y-142350940D01*
X128275523Y-142115015D01*
X128711455Y-141679083D01*
X128947380Y-141109511D01*
X128947380Y-140493009D01*
X128711455Y-139923437D01*
X128275523Y-139487505D01*
X127705951Y-139251580D01*
X127089449Y-139251580D01*
X126519877Y-139487505D01*
X126083945Y-139923437D01*
X125848020Y-140493009D01*
X116450580Y-140493009D01*
X116450580Y-140487929D01*
X116214655Y-139918357D01*
X115778723Y-139482425D01*
X115209151Y-139246500D01*
X114592649Y-139246500D01*
X114023077Y-139482425D01*
X113587145Y-139918357D01*
X113399579Y-140371180D01*
X104882220Y-140371180D01*
X102127944Y-137616904D01*
X102210000Y-137418804D01*
X102210000Y-136981196D01*
X103555000Y-136981196D01*
X103555000Y-137418804D01*
X103722465Y-137823100D01*
X104031900Y-138132535D01*
X104436196Y-138300000D01*
X104873804Y-138300000D01*
X105278100Y-138132535D01*
X105587535Y-137823100D01*
X105669591Y-137625000D01*
X108462863Y-137625000D01*
X108504720Y-137633326D01*
X108546577Y-137625000D01*
X108546578Y-137625000D01*
X108670547Y-137600341D01*
X108811128Y-137506408D01*
X108834841Y-137470919D01*
X110814011Y-135491749D01*
X115850580Y-135491749D01*
X115850580Y-136108251D01*
X116086505Y-136677823D01*
X116522437Y-137113755D01*
X117092009Y-137349680D01*
X117708511Y-137349680D01*
X118278083Y-137113755D01*
X118714015Y-136677823D01*
X118949940Y-136108251D01*
X118949940Y-135491749D01*
X118714015Y-134922177D01*
X118278083Y-134486245D01*
X117708511Y-134250320D01*
X117092009Y-134250320D01*
X116522437Y-134486245D01*
X116086505Y-134922177D01*
X115850580Y-135491749D01*
X110814011Y-135491749D01*
X114139826Y-132165934D01*
X114592649Y-132353500D01*
X115209151Y-132353500D01*
X115778723Y-132117575D01*
X116214655Y-131681643D01*
X116450580Y-131112071D01*
X116450580Y-130495569D01*
X116448476Y-130490489D01*
X125848020Y-130490489D01*
X125848020Y-131106991D01*
X126083945Y-131676563D01*
X126519877Y-132112495D01*
X127089449Y-132348420D01*
X127705951Y-132348420D01*
X128275523Y-132112495D01*
X128711455Y-131676563D01*
X128947380Y-131106991D01*
X128947380Y-130490489D01*
X128711455Y-129920917D01*
X128275523Y-129484985D01*
X127705951Y-129249060D01*
X127089449Y-129249060D01*
X126519877Y-129484985D01*
X126083945Y-129920917D01*
X125848020Y-130490489D01*
X116448476Y-130490489D01*
X116214655Y-129925997D01*
X115778723Y-129490065D01*
X115209151Y-129254140D01*
X114592649Y-129254140D01*
X114023077Y-129490065D01*
X113587145Y-129925997D01*
X113351220Y-130495569D01*
X113351220Y-131112071D01*
X113538786Y-131564894D01*
X108328680Y-136775000D01*
X105669591Y-136775000D01*
X105587535Y-136576900D01*
X105278100Y-136267465D01*
X104873804Y-136100000D01*
X104436196Y-136100000D01*
X104031900Y-136267465D01*
X103722465Y-136576900D01*
X103555000Y-136981196D01*
X102210000Y-136981196D01*
X102042535Y-136576900D01*
X101733100Y-136267465D01*
X101328804Y-136100000D01*
X100891196Y-136100000D01*
X100486900Y-136267465D01*
X100177465Y-136576900D01*
X100010000Y-136981196D01*
X99082237Y-136981196D01*
X99030121Y-136929081D01*
X99006408Y-136893592D01*
X98865827Y-136799659D01*
X98741858Y-136775000D01*
X98741857Y-136775000D01*
X98700000Y-136766674D01*
X98658143Y-136775000D01*
X98579591Y-136775000D01*
X98497535Y-136576900D01*
X98188100Y-136267465D01*
X97783804Y-136100000D01*
X97346196Y-136100000D01*
X96941900Y-136267465D01*
X96632465Y-136576900D01*
X96465000Y-136981196D01*
X96465000Y-137418804D01*
X96632465Y-137823100D01*
X96941900Y-138132535D01*
X97346196Y-138300000D01*
X97783804Y-138300000D01*
X98188100Y-138132535D01*
X98497535Y-137823100D01*
X98563297Y-137664337D01*
X99673960Y-138775000D01*
X90781043Y-138775000D01*
X90306043Y-138300000D01*
X90693804Y-138300000D01*
X91098100Y-138132535D01*
X91407535Y-137823100D01*
X91575000Y-137418804D01*
X91575000Y-136981196D01*
X92920000Y-136981196D01*
X92920000Y-137418804D01*
X93087465Y-137823100D01*
X93396900Y-138132535D01*
X93801196Y-138300000D01*
X94238804Y-138300000D01*
X94643100Y-138132535D01*
X94952535Y-137823100D01*
X95120000Y-137418804D01*
X95120000Y-136981196D01*
X94952535Y-136576900D01*
X94643100Y-136267465D01*
X94238804Y-136100000D01*
X93801196Y-136100000D01*
X93396900Y-136267465D01*
X93087465Y-136576900D01*
X92920000Y-136981196D01*
X91575000Y-136981196D01*
X91407535Y-136576900D01*
X91098100Y-136267465D01*
X90693804Y-136100000D01*
X90256196Y-136100000D01*
X90058096Y-136182056D01*
X88405121Y-134529081D01*
X88381408Y-134493592D01*
X88240827Y-134399659D01*
X88116858Y-134375000D01*
X88116857Y-134375000D01*
X88075000Y-134366674D01*
X88059673Y-134369723D01*
X87896518Y-134206568D01*
X87639239Y-134100000D01*
X87360761Y-134100000D01*
X87103482Y-134206568D01*
X86906568Y-134403482D01*
X86800000Y-134660761D01*
X86800000Y-134793958D01*
X85366803Y-133360761D01*
X86200000Y-133360761D01*
X86200000Y-133639239D01*
X86306568Y-133896518D01*
X86503482Y-134093432D01*
X86760761Y-134200000D01*
X87039239Y-134200000D01*
X87296518Y-134093432D01*
X87464950Y-133925000D01*
X106158143Y-133925000D01*
X106200000Y-133933326D01*
X106241857Y-133925000D01*
X106241858Y-133925000D01*
X106365827Y-133900341D01*
X106506408Y-133806408D01*
X106530121Y-133770919D01*
X107376040Y-132925000D01*
X107935050Y-132925000D01*
X108103482Y-133093432D01*
X108360761Y-133200000D01*
X108639239Y-133200000D01*
X108896518Y-133093432D01*
X109093432Y-132896518D01*
X109200000Y-132639239D01*
X109200000Y-132360761D01*
X109093432Y-132103482D01*
X108896518Y-131906568D01*
X108639239Y-131800000D01*
X108360761Y-131800000D01*
X108103482Y-131906568D01*
X107935050Y-132075000D01*
X107241857Y-132075000D01*
X107200000Y-132066674D01*
X107158142Y-132075000D01*
X107034173Y-132099659D01*
X106893592Y-132193592D01*
X106869879Y-132229081D01*
X106023960Y-133075000D01*
X87464950Y-133075000D01*
X87296518Y-132906568D01*
X87039239Y-132800000D01*
X86760761Y-132800000D01*
X86503482Y-132906568D01*
X86306568Y-133103482D01*
X86200000Y-133360761D01*
X85366803Y-133360761D01*
X84135123Y-132129081D01*
X84111410Y-132093592D01*
X83970829Y-131999659D01*
X83846860Y-131975000D01*
X83846859Y-131975000D01*
X83805002Y-131966674D01*
X83763145Y-131975000D01*
X82316041Y-131975000D01*
X80303799Y-129962758D01*
X80306177Y-129959199D01*
X80391550Y-129530000D01*
X80306177Y-129100801D01*
X80125233Y-128829999D01*
X80954767Y-128829999D01*
X80773823Y-129100801D01*
X80688450Y-129530000D01*
X80773823Y-129959199D01*
X81016944Y-130323056D01*
X81380801Y-130566177D01*
X81701661Y-130630000D01*
X81918339Y-130630000D01*
X82239199Y-130566177D01*
X82603056Y-130323056D01*
X82846177Y-129959199D01*
X82931550Y-129530000D01*
X82846177Y-129100801D01*
X82665233Y-128829999D01*
X83494767Y-128829999D01*
X83313823Y-129100801D01*
X83228450Y-129530000D01*
X83313823Y-129959199D01*
X83556944Y-130323056D01*
X83920801Y-130566177D01*
X84241661Y-130630000D01*
X84458339Y-130630000D01*
X84779199Y-130566177D01*
X85143056Y-130323056D01*
X85386177Y-129959199D01*
X85471550Y-129530000D01*
X85386177Y-129100801D01*
X85205233Y-128829999D01*
X86034767Y-128829999D01*
X85853823Y-129100801D01*
X85768450Y-129530000D01*
X85853823Y-129959199D01*
X86096944Y-130323056D01*
X86460801Y-130566177D01*
X86781661Y-130630000D01*
X86998339Y-130630000D01*
X87319199Y-130566177D01*
X87683056Y-130323056D01*
X87926177Y-129959199D01*
X88011550Y-129530000D01*
X87926177Y-129100801D01*
X87745233Y-128829999D01*
X89653176Y-128829999D01*
X89438823Y-129150801D01*
X89353450Y-129580000D01*
X89438823Y-130009199D01*
X89681944Y-130373056D01*
X90045801Y-130616177D01*
X90366661Y-130680000D01*
X90583339Y-130680000D01*
X90904199Y-130616177D01*
X91268056Y-130373056D01*
X91511177Y-130009199D01*
X91596550Y-129580000D01*
X91511177Y-129150801D01*
X91296824Y-128829999D01*
X93198176Y-128829999D01*
X92983823Y-129150801D01*
X92898450Y-129580000D01*
X92983823Y-130009199D01*
X93226944Y-130373056D01*
X93590801Y-130616177D01*
X93911661Y-130680000D01*
X94128339Y-130680000D01*
X94449199Y-130616177D01*
X94813056Y-130373056D01*
X95056177Y-130009199D01*
X95141550Y-129580000D01*
X95082601Y-129283641D01*
X95375000Y-129576041D01*
X95375001Y-130123958D01*
X94098960Y-131400000D01*
X93860761Y-131400000D01*
X93603482Y-131506568D01*
X93406568Y-131703482D01*
X93300000Y-131960761D01*
X93300000Y-132239239D01*
X93406568Y-132496518D01*
X93603482Y-132693432D01*
X93860761Y-132800000D01*
X94139239Y-132800000D01*
X94396518Y-132693432D01*
X94593432Y-132496518D01*
X94700000Y-132239239D01*
X94700000Y-132001040D01*
X96070922Y-130630119D01*
X96106408Y-130606408D01*
X96200341Y-130465827D01*
X96225000Y-130341858D01*
X96225000Y-130341857D01*
X96233326Y-130300001D01*
X96225000Y-130258145D01*
X96225000Y-129580000D01*
X96443450Y-129580000D01*
X96528823Y-130009199D01*
X96771944Y-130373056D01*
X97135801Y-130616177D01*
X97456661Y-130680000D01*
X97673339Y-130680000D01*
X97994199Y-130616177D01*
X98358056Y-130373056D01*
X98601177Y-130009199D01*
X98686550Y-129580000D01*
X99988450Y-129580000D01*
X100073823Y-130009199D01*
X100316944Y-130373056D01*
X100680801Y-130616177D01*
X101001661Y-130680000D01*
X101218339Y-130680000D01*
X101539199Y-130616177D01*
X101903056Y-130373056D01*
X102146177Y-130009199D01*
X102231550Y-129580000D01*
X103533450Y-129580000D01*
X103618823Y-130009199D01*
X103861944Y-130373056D01*
X104225801Y-130616177D01*
X104546661Y-130680000D01*
X104763339Y-130680000D01*
X105084199Y-130616177D01*
X105448056Y-130373056D01*
X105691177Y-130009199D01*
X105776550Y-129580000D01*
X105691177Y-129150801D01*
X105448056Y-128786944D01*
X105084199Y-128543823D01*
X104763339Y-128480000D01*
X104546661Y-128480000D01*
X104225801Y-128543823D01*
X103861944Y-128786944D01*
X103618823Y-129150801D01*
X103533450Y-129580000D01*
X102231550Y-129580000D01*
X102146177Y-129150801D01*
X101903056Y-128786944D01*
X101539199Y-128543823D01*
X101218339Y-128480000D01*
X101001661Y-128480000D01*
X100680801Y-128543823D01*
X100316944Y-128786944D01*
X100073823Y-129150801D01*
X99988450Y-129580000D01*
X98686550Y-129580000D01*
X98601177Y-129150801D01*
X98358056Y-128786944D01*
X97994199Y-128543823D01*
X97673339Y-128480000D01*
X97456661Y-128480000D01*
X97135801Y-128543823D01*
X96771944Y-128786944D01*
X96528823Y-129150801D01*
X96443450Y-129580000D01*
X96225000Y-129580000D01*
X96225000Y-129441857D01*
X96233326Y-129400000D01*
X96200341Y-129234173D01*
X96193271Y-129223592D01*
X96106408Y-129093592D01*
X96070923Y-129069882D01*
X95135120Y-128134080D01*
X95111407Y-128098591D01*
X94970826Y-128004658D01*
X94915581Y-127993669D01*
X115853120Y-127993669D01*
X115853120Y-128610171D01*
X116089045Y-129179743D01*
X116524977Y-129615675D01*
X117094549Y-129851600D01*
X117711051Y-129851600D01*
X118280623Y-129615675D01*
X118716555Y-129179743D01*
X118952480Y-128610171D01*
X118952480Y-127993669D01*
X118716555Y-127424097D01*
X118280623Y-126988165D01*
X117711051Y-126752240D01*
X117094549Y-126752240D01*
X116524977Y-126988165D01*
X116089045Y-127424097D01*
X115853120Y-127993669D01*
X94915581Y-127993669D01*
X94846857Y-127979999D01*
X94846856Y-127979999D01*
X94804999Y-127971673D01*
X94763142Y-127979999D01*
X78771854Y-127979999D01*
X78729998Y-127971673D01*
X78688142Y-127979999D01*
X78688141Y-127979999D01*
X78564172Y-128004658D01*
X78423591Y-128098591D01*
X78399880Y-128134077D01*
X77729079Y-128804879D01*
X77693593Y-128828590D01*
X77669882Y-128864076D01*
X77638942Y-128910380D01*
X77523056Y-128736944D01*
X77159199Y-128493823D01*
X76838339Y-128430000D01*
X76621661Y-128430000D01*
X76300801Y-128493823D01*
X75936944Y-128736944D01*
X75693823Y-129100801D01*
X75608450Y-129530000D01*
X75693823Y-129959199D01*
X75696201Y-129962758D01*
X74583960Y-131075000D01*
X70706040Y-131075000D01*
X71217242Y-130563799D01*
X71220801Y-130566177D01*
X71541661Y-130630000D01*
X71758339Y-130630000D01*
X72079199Y-130566177D01*
X72443056Y-130323056D01*
X72686177Y-129959199D01*
X72771550Y-129530000D01*
X72686177Y-129100801D01*
X72443056Y-128736944D01*
X72125859Y-128525000D01*
X72583960Y-128525000D01*
X73156201Y-129097242D01*
X73153823Y-129100801D01*
X73068450Y-129530000D01*
X73153823Y-129959199D01*
X73396944Y-130323056D01*
X73760801Y-130566177D01*
X74081661Y-130630000D01*
X74298339Y-130630000D01*
X74619199Y-130566177D01*
X74983056Y-130323056D01*
X75226177Y-129959199D01*
X75311550Y-129530000D01*
X75226177Y-129100801D01*
X74983056Y-128736944D01*
X74619199Y-128493823D01*
X74298339Y-128430000D01*
X74081661Y-128430000D01*
X73760801Y-128493823D01*
X73757242Y-128496201D01*
X73090121Y-127829081D01*
X73066408Y-127793592D01*
X72925827Y-127699659D01*
X72801858Y-127675000D01*
X72801857Y-127675000D01*
X72760000Y-127666674D01*
X72718143Y-127675000D01*
X61956857Y-127675000D01*
X61914999Y-127666674D01*
X61873142Y-127675000D01*
X61749173Y-127699659D01*
X61608592Y-127793592D01*
X61584881Y-127829078D01*
X60867758Y-128546201D01*
X60864199Y-128543823D01*
X60543339Y-128480000D01*
X60326661Y-128480000D01*
X60005801Y-128543823D01*
X60002242Y-128546201D01*
X56985121Y-125529081D01*
X56961408Y-125493592D01*
X56821337Y-125400000D01*
X129600001Y-125400000D01*
X129600000Y-159600000D01*
X30400000Y-159600000D01*
X30400000Y-157241414D01*
X113400000Y-157241414D01*
X113400000Y-157758586D01*
X113597913Y-158236391D01*
X113963609Y-158602087D01*
X114441414Y-158800000D01*
X114958586Y-158800000D01*
X115436391Y-158602087D01*
X115802087Y-158236391D01*
X116000000Y-157758586D01*
X116000000Y-157241414D01*
X117900000Y-157241414D01*
X117900000Y-157758586D01*
X118097913Y-158236391D01*
X118463609Y-158602087D01*
X118941414Y-158800000D01*
X119458586Y-158800000D01*
X119936391Y-158602087D01*
X120302087Y-158236391D01*
X120500000Y-157758586D01*
X120500000Y-157241414D01*
X121350000Y-157241414D01*
X121350000Y-157758586D01*
X121547913Y-158236391D01*
X121913609Y-158602087D01*
X122391414Y-158800000D01*
X122908586Y-158800000D01*
X123386391Y-158602087D01*
X123752087Y-158236391D01*
X123950000Y-157758586D01*
X123950000Y-157241414D01*
X125850000Y-157241414D01*
X125850000Y-157758586D01*
X126047913Y-158236391D01*
X126413609Y-158602087D01*
X126891414Y-158800000D01*
X127408586Y-158800000D01*
X127886391Y-158602087D01*
X128252087Y-158236391D01*
X128450000Y-157758586D01*
X128450000Y-157241414D01*
X128252087Y-156763609D01*
X127886391Y-156397913D01*
X127408586Y-156200000D01*
X126891414Y-156200000D01*
X126413609Y-156397913D01*
X126047913Y-156763609D01*
X125850000Y-157241414D01*
X123950000Y-157241414D01*
X123752087Y-156763609D01*
X123386391Y-156397913D01*
X122908586Y-156200000D01*
X122391414Y-156200000D01*
X121913609Y-156397913D01*
X121547913Y-156763609D01*
X121350000Y-157241414D01*
X120500000Y-157241414D01*
X120302087Y-156763609D01*
X119936391Y-156397913D01*
X119458586Y-156200000D01*
X118941414Y-156200000D01*
X118463609Y-156397913D01*
X118097913Y-156763609D01*
X117900000Y-157241414D01*
X116000000Y-157241414D01*
X115802087Y-156763609D01*
X115436391Y-156397913D01*
X114958586Y-156200000D01*
X114441414Y-156200000D01*
X113963609Y-156397913D01*
X113597913Y-156763609D01*
X113400000Y-157241414D01*
X30400000Y-157241414D01*
X30400000Y-153792230D01*
X30450000Y-153792230D01*
X30450000Y-154607770D01*
X30762094Y-155361232D01*
X31338768Y-155937906D01*
X32092230Y-156250000D01*
X32907770Y-156250000D01*
X33661232Y-155937906D01*
X34237906Y-155361232D01*
X34550000Y-154607770D01*
X34550000Y-153792230D01*
X40050000Y-153792230D01*
X40050000Y-154607770D01*
X40362094Y-155361232D01*
X40938768Y-155937906D01*
X41692230Y-156250000D01*
X42507770Y-156250000D01*
X43261232Y-155937906D01*
X43837906Y-155361232D01*
X44150000Y-154607770D01*
X44150000Y-153792230D01*
X44290000Y-153792230D01*
X44290000Y-154607770D01*
X44602094Y-155361232D01*
X45178768Y-155937906D01*
X45932230Y-156250000D01*
X46747770Y-156250000D01*
X47501232Y-155937906D01*
X48077906Y-155361232D01*
X48390000Y-154607770D01*
X48390000Y-153792230D01*
X53890000Y-153792230D01*
X53890000Y-154607770D01*
X54202094Y-155361232D01*
X54778768Y-155937906D01*
X55532230Y-156250000D01*
X56347770Y-156250000D01*
X57101232Y-155937906D01*
X57677906Y-155361232D01*
X57990000Y-154607770D01*
X57990000Y-153792230D01*
X58130000Y-153792230D01*
X58130000Y-154607770D01*
X58442094Y-155361232D01*
X59018768Y-155937906D01*
X59772230Y-156250000D01*
X60587770Y-156250000D01*
X61341232Y-155937906D01*
X61917906Y-155361232D01*
X62230000Y-154607770D01*
X62230000Y-153792230D01*
X67730000Y-153792230D01*
X67730000Y-154607770D01*
X68042094Y-155361232D01*
X68618768Y-155937906D01*
X69372230Y-156250000D01*
X70187770Y-156250000D01*
X70941232Y-155937906D01*
X71517906Y-155361232D01*
X71830000Y-154607770D01*
X71830000Y-153792230D01*
X71970000Y-153792230D01*
X71970000Y-154607770D01*
X72282094Y-155361232D01*
X72858768Y-155937906D01*
X73612230Y-156250000D01*
X74427770Y-156250000D01*
X75181232Y-155937906D01*
X75757906Y-155361232D01*
X76070000Y-154607770D01*
X76070000Y-153792230D01*
X81570000Y-153792230D01*
X81570000Y-154607770D01*
X81882094Y-155361232D01*
X82458768Y-155937906D01*
X83212230Y-156250000D01*
X84027770Y-156250000D01*
X84781232Y-155937906D01*
X85357906Y-155361232D01*
X85670000Y-154607770D01*
X85670000Y-153792230D01*
X85810000Y-153792230D01*
X85810000Y-154607770D01*
X86122094Y-155361232D01*
X86698768Y-155937906D01*
X87452230Y-156250000D01*
X88267770Y-156250000D01*
X89021232Y-155937906D01*
X89597906Y-155361232D01*
X89910000Y-154607770D01*
X89910000Y-153792230D01*
X95410000Y-153792230D01*
X95410000Y-154607770D01*
X95722094Y-155361232D01*
X96298768Y-155937906D01*
X97052230Y-156250000D01*
X97867770Y-156250000D01*
X98621232Y-155937906D01*
X99197906Y-155361232D01*
X99510000Y-154607770D01*
X99510000Y-153792230D01*
X99650000Y-153792230D01*
X99650000Y-154607770D01*
X99962094Y-155361232D01*
X100538768Y-155937906D01*
X101292230Y-156250000D01*
X102107770Y-156250000D01*
X102861232Y-155937906D01*
X103437906Y-155361232D01*
X103750000Y-154607770D01*
X103750000Y-153792230D01*
X109250000Y-153792230D01*
X109250000Y-154607770D01*
X109562094Y-155361232D01*
X110138768Y-155937906D01*
X110892230Y-156250000D01*
X111707770Y-156250000D01*
X112461232Y-155937906D01*
X113037906Y-155361232D01*
X113350000Y-154607770D01*
X113350000Y-153792230D01*
X113037906Y-153038768D01*
X112461232Y-152462094D01*
X111707770Y-152150000D01*
X110892230Y-152150000D01*
X110138768Y-152462094D01*
X109562094Y-153038768D01*
X109250000Y-153792230D01*
X103750000Y-153792230D01*
X103437906Y-153038768D01*
X102861232Y-152462094D01*
X102107770Y-152150000D01*
X101292230Y-152150000D01*
X100538768Y-152462094D01*
X99962094Y-153038768D01*
X99650000Y-153792230D01*
X99510000Y-153792230D01*
X99197906Y-153038768D01*
X98621232Y-152462094D01*
X97867770Y-152150000D01*
X97052230Y-152150000D01*
X96298768Y-152462094D01*
X95722094Y-153038768D01*
X95410000Y-153792230D01*
X89910000Y-153792230D01*
X89597906Y-153038768D01*
X89021232Y-152462094D01*
X88267770Y-152150000D01*
X87452230Y-152150000D01*
X86698768Y-152462094D01*
X86122094Y-153038768D01*
X85810000Y-153792230D01*
X85670000Y-153792230D01*
X85357906Y-153038768D01*
X84781232Y-152462094D01*
X84027770Y-152150000D01*
X83212230Y-152150000D01*
X82458768Y-152462094D01*
X81882094Y-153038768D01*
X81570000Y-153792230D01*
X76070000Y-153792230D01*
X75757906Y-153038768D01*
X75181232Y-152462094D01*
X74427770Y-152150000D01*
X73612230Y-152150000D01*
X72858768Y-152462094D01*
X72282094Y-153038768D01*
X71970000Y-153792230D01*
X71830000Y-153792230D01*
X71517906Y-153038768D01*
X70941232Y-152462094D01*
X70187770Y-152150000D01*
X69372230Y-152150000D01*
X68618768Y-152462094D01*
X68042094Y-153038768D01*
X67730000Y-153792230D01*
X62230000Y-153792230D01*
X61917906Y-153038768D01*
X61341232Y-152462094D01*
X60587770Y-152150000D01*
X59772230Y-152150000D01*
X59018768Y-152462094D01*
X58442094Y-153038768D01*
X58130000Y-153792230D01*
X57990000Y-153792230D01*
X57677906Y-153038768D01*
X57101232Y-152462094D01*
X56347770Y-152150000D01*
X55532230Y-152150000D01*
X54778768Y-152462094D01*
X54202094Y-153038768D01*
X53890000Y-153792230D01*
X48390000Y-153792230D01*
X48077906Y-153038768D01*
X47501232Y-152462094D01*
X46747770Y-152150000D01*
X45932230Y-152150000D01*
X45178768Y-152462094D01*
X44602094Y-153038768D01*
X44290000Y-153792230D01*
X44150000Y-153792230D01*
X43837906Y-153038768D01*
X43261232Y-152462094D01*
X42507770Y-152150000D01*
X41692230Y-152150000D01*
X40938768Y-152462094D01*
X40362094Y-153038768D01*
X40050000Y-153792230D01*
X34550000Y-153792230D01*
X34237906Y-153038768D01*
X33661232Y-152462094D01*
X32907770Y-152150000D01*
X32092230Y-152150000D01*
X31338768Y-152462094D01*
X30762094Y-153038768D01*
X30450000Y-153792230D01*
X30400000Y-153792230D01*
X30400000Y-150741414D01*
X113400000Y-150741414D01*
X113400000Y-151258586D01*
X113597913Y-151736391D01*
X113963609Y-152102087D01*
X114441414Y-152300000D01*
X114958586Y-152300000D01*
X115436391Y-152102087D01*
X115802087Y-151736391D01*
X116000000Y-151258586D01*
X116000000Y-150741414D01*
X117900000Y-150741414D01*
X117900000Y-151258586D01*
X118097913Y-151736391D01*
X118463609Y-152102087D01*
X118941414Y-152300000D01*
X119458586Y-152300000D01*
X119936391Y-152102087D01*
X120302087Y-151736391D01*
X120500000Y-151258586D01*
X120500000Y-150741414D01*
X121350000Y-150741414D01*
X121350000Y-151258586D01*
X121547913Y-151736391D01*
X121913609Y-152102087D01*
X122391414Y-152300000D01*
X122908586Y-152300000D01*
X123386391Y-152102087D01*
X123752087Y-151736391D01*
X123950000Y-151258586D01*
X123950000Y-150741414D01*
X125850000Y-150741414D01*
X125850000Y-151258586D01*
X126047913Y-151736391D01*
X126413609Y-152102087D01*
X126891414Y-152300000D01*
X127408586Y-152300000D01*
X127886391Y-152102087D01*
X128252087Y-151736391D01*
X128450000Y-151258586D01*
X128450000Y-150741414D01*
X128252087Y-150263609D01*
X127886391Y-149897913D01*
X127408586Y-149700000D01*
X126891414Y-149700000D01*
X126413609Y-149897913D01*
X126047913Y-150263609D01*
X125850000Y-150741414D01*
X123950000Y-150741414D01*
X123752087Y-150263609D01*
X123386391Y-149897913D01*
X122908586Y-149700000D01*
X122391414Y-149700000D01*
X121913609Y-149897913D01*
X121547913Y-150263609D01*
X121350000Y-150741414D01*
X120500000Y-150741414D01*
X120302087Y-150263609D01*
X119936391Y-149897913D01*
X119458586Y-149700000D01*
X118941414Y-149700000D01*
X118463609Y-149897913D01*
X118097913Y-150263609D01*
X117900000Y-150741414D01*
X116000000Y-150741414D01*
X115802087Y-150263609D01*
X115436391Y-149897913D01*
X114958586Y-149700000D01*
X114441414Y-149700000D01*
X113963609Y-149897913D01*
X113597913Y-150263609D01*
X113400000Y-150741414D01*
X30400000Y-150741414D01*
X30400000Y-146846587D01*
X33750000Y-146846587D01*
X33750000Y-147553412D01*
X33810922Y-147859688D01*
X34042993Y-148207007D01*
X34390311Y-148439078D01*
X34800000Y-148520570D01*
X35209688Y-148439078D01*
X35557007Y-148207007D01*
X35789078Y-147859689D01*
X35850000Y-147553413D01*
X35850000Y-146846588D01*
X35789078Y-146540312D01*
X35557007Y-146192993D01*
X35209689Y-145960922D01*
X34800000Y-145879430D01*
X34390312Y-145960922D01*
X34042994Y-146192993D01*
X33810922Y-146540311D01*
X33750000Y-146846587D01*
X30400000Y-146846587D01*
X30400000Y-138700090D01*
X30580209Y-138969791D01*
X30853101Y-139152132D01*
X31093749Y-139200000D01*
X32106251Y-139200000D01*
X32346899Y-139152132D01*
X32619791Y-138969791D01*
X32802132Y-138696899D01*
X32866162Y-138375000D01*
X32802132Y-138053101D01*
X32619791Y-137780209D01*
X32346899Y-137597868D01*
X32106251Y-137550000D01*
X31093749Y-137550000D01*
X30853101Y-137597868D01*
X30580209Y-137780209D01*
X30400000Y-138049910D01*
X30400000Y-137281196D01*
X36100000Y-137281196D01*
X36100000Y-137718804D01*
X36267465Y-138123100D01*
X36576900Y-138432535D01*
X36981196Y-138600000D01*
X37418804Y-138600000D01*
X37823100Y-138432535D01*
X38132535Y-138123100D01*
X38300000Y-137718804D01*
X38300000Y-137281196D01*
X38132535Y-136876900D01*
X37823100Y-136567465D01*
X37418804Y-136400000D01*
X36981196Y-136400000D01*
X36576900Y-136567465D01*
X36267465Y-136876900D01*
X36100000Y-137281196D01*
X30400000Y-137281196D01*
X30400000Y-132281196D01*
X36100000Y-132281196D01*
X36100000Y-132718804D01*
X36267465Y-133123100D01*
X36576900Y-133432535D01*
X36981196Y-133600000D01*
X37418804Y-133600000D01*
X37823100Y-133432535D01*
X38132535Y-133123100D01*
X38300000Y-132718804D01*
X38300000Y-132281196D01*
X38132535Y-131876900D01*
X37823100Y-131567465D01*
X37418804Y-131400000D01*
X36981196Y-131400000D01*
X36576900Y-131567465D01*
X36267465Y-131876900D01*
X36100000Y-132281196D01*
X30400000Y-132281196D01*
X30400000Y-131550090D01*
X30580209Y-131819791D01*
X30853101Y-132002132D01*
X31093749Y-132050000D01*
X32106251Y-132050000D01*
X32346899Y-132002132D01*
X32619791Y-131819791D01*
X32802132Y-131546899D01*
X32866162Y-131225000D01*
X32802132Y-130903101D01*
X32619791Y-130630209D01*
X32346899Y-130447868D01*
X32106251Y-130400000D01*
X31093749Y-130400000D01*
X30853101Y-130447868D01*
X30580209Y-130630209D01*
X30400000Y-130899910D01*
X30400000Y-129580000D01*
X48678450Y-129580000D01*
X48763823Y-130009199D01*
X49006944Y-130373056D01*
X49370801Y-130616177D01*
X49691661Y-130680000D01*
X49908339Y-130680000D01*
X50229199Y-130616177D01*
X50593056Y-130373056D01*
X50836177Y-130009199D01*
X50921550Y-129580000D01*
X52223450Y-129580000D01*
X52308823Y-130009199D01*
X52551944Y-130373056D01*
X52915801Y-130616177D01*
X53236661Y-130680000D01*
X53453339Y-130680000D01*
X53774199Y-130616177D01*
X54138056Y-130373056D01*
X54381177Y-130009199D01*
X54466550Y-129580000D01*
X54381177Y-129150801D01*
X54138056Y-128786944D01*
X53774199Y-128543823D01*
X53453339Y-128480000D01*
X53236661Y-128480000D01*
X52915801Y-128543823D01*
X52551944Y-128786944D01*
X52308823Y-129150801D01*
X52223450Y-129580000D01*
X50921550Y-129580000D01*
X50836177Y-129150801D01*
X50593056Y-128786944D01*
X50229199Y-128543823D01*
X49908339Y-128480000D01*
X49691661Y-128480000D01*
X49370801Y-128543823D01*
X49006944Y-128786944D01*
X48763823Y-129150801D01*
X48678450Y-129580000D01*
X30400000Y-129580000D01*
X30400000Y-127106000D01*
X30542000Y-127106000D01*
X30542000Y-127770939D01*
X30634563Y-127994405D01*
X30805596Y-128165438D01*
X31029062Y-128258000D01*
X31694000Y-128258000D01*
X31846000Y-128106000D01*
X31846000Y-126954000D01*
X30694000Y-126954000D01*
X30542000Y-127106000D01*
X30400000Y-127106000D01*
X30400000Y-125400000D01*
X30889037Y-125400000D01*
X30805596Y-125434562D01*
G36*
X105982152Y-146033192D02*
X105742994Y-146192993D01*
X105510922Y-146540311D01*
X105450000Y-146846587D01*
X105450000Y-147553412D01*
X105510922Y-147859688D01*
X105742993Y-148207007D01*
X106090311Y-148439078D01*
X106500000Y-148520570D01*
X106909688Y-148439078D01*
X107257007Y-148207007D01*
X107489078Y-147859689D01*
X107547005Y-147568469D01*
X107638343Y-147568469D01*
X107787329Y-148080535D01*
X108120933Y-148496607D01*
X108588367Y-148753343D01*
X108636828Y-148758538D01*
X108846000Y-148646127D01*
X108846000Y-147354000D01*
X107788575Y-147354000D01*
X107638343Y-147568469D01*
X107547005Y-147568469D01*
X107550000Y-147553413D01*
X107550000Y-146846588D01*
X107489078Y-146540312D01*
X107257007Y-146192993D01*
X106928635Y-145973582D01*
X106933326Y-145950000D01*
X106900341Y-145784173D01*
X106880095Y-145753873D01*
X106806408Y-145643592D01*
X106770919Y-145619879D01*
X103376040Y-142225000D01*
X105194253Y-142225000D01*
X108613243Y-145643990D01*
X108588367Y-145646657D01*
X108120933Y-145903393D01*
X107787329Y-146319465D01*
X107638343Y-146831531D01*
X107788575Y-147046000D01*
X108846000Y-147046000D01*
X108846000Y-147026000D01*
X109154000Y-147026000D01*
X109154000Y-147046000D01*
X109174000Y-147046000D01*
X109174000Y-147354000D01*
X109154000Y-147354000D01*
X109154000Y-148646127D01*
X109363172Y-148758538D01*
X109411633Y-148753343D01*
X109879067Y-148496607D01*
X110212671Y-148080535D01*
X110361657Y-147568469D01*
X110211426Y-147354002D01*
X110323254Y-147354002D01*
X110375001Y-147405749D01*
X110375000Y-148323959D01*
X109023960Y-149675000D01*
X101044633Y-149675000D01*
X98216220Y-146846587D01*
X102950000Y-146846587D01*
X102950000Y-147553412D01*
X103010922Y-147859688D01*
X103242993Y-148207007D01*
X103590311Y-148439078D01*
X104000000Y-148520570D01*
X104409688Y-148439078D01*
X104757007Y-148207007D01*
X104989078Y-147859689D01*
X105050000Y-147553413D01*
X105050000Y-146846588D01*
X104989078Y-146540312D01*
X104757007Y-146192993D01*
X104409689Y-145960922D01*
X104000000Y-145879430D01*
X103590312Y-145960922D01*
X103242994Y-146192993D01*
X103010922Y-146540311D01*
X102950000Y-146846587D01*
X98216220Y-146846587D01*
X90994632Y-139625000D01*
X99573960Y-139625000D01*
X105982152Y-146033192D01*
X105982152Y-146033192D01*
G37*
X105982152Y-146033192D02*
X105742994Y-146192993D01*
X105510922Y-146540311D01*
X105450000Y-146846587D01*
X105450000Y-147553412D01*
X105510922Y-147859688D01*
X105742993Y-148207007D01*
X106090311Y-148439078D01*
X106500000Y-148520570D01*
X106909688Y-148439078D01*
X107257007Y-148207007D01*
X107489078Y-147859689D01*
X107547005Y-147568469D01*
X107638343Y-147568469D01*
X107787329Y-148080535D01*
X108120933Y-148496607D01*
X108588367Y-148753343D01*
X108636828Y-148758538D01*
X108846000Y-148646127D01*
X108846000Y-147354000D01*
X107788575Y-147354000D01*
X107638343Y-147568469D01*
X107547005Y-147568469D01*
X107550000Y-147553413D01*
X107550000Y-146846588D01*
X107489078Y-146540312D01*
X107257007Y-146192993D01*
X106928635Y-145973582D01*
X106933326Y-145950000D01*
X106900341Y-145784173D01*
X106880095Y-145753873D01*
X106806408Y-145643592D01*
X106770919Y-145619879D01*
X103376040Y-142225000D01*
X105194253Y-142225000D01*
X108613243Y-145643990D01*
X108588367Y-145646657D01*
X108120933Y-145903393D01*
X107787329Y-146319465D01*
X107638343Y-146831531D01*
X107788575Y-147046000D01*
X108846000Y-147046000D01*
X108846000Y-147026000D01*
X109154000Y-147026000D01*
X109154000Y-147046000D01*
X109174000Y-147046000D01*
X109174000Y-147354000D01*
X109154000Y-147354000D01*
X109154000Y-148646127D01*
X109363172Y-148758538D01*
X109411633Y-148753343D01*
X109879067Y-148496607D01*
X110212671Y-148080535D01*
X110361657Y-147568469D01*
X110211426Y-147354002D01*
X110323254Y-147354002D01*
X110375001Y-147405749D01*
X110375000Y-148323959D01*
X109023960Y-149675000D01*
X101044633Y-149675000D01*
X98216220Y-146846587D01*
X102950000Y-146846587D01*
X102950000Y-147553412D01*
X103010922Y-147859688D01*
X103242993Y-148207007D01*
X103590311Y-148439078D01*
X104000000Y-148520570D01*
X104409688Y-148439078D01*
X104757007Y-148207007D01*
X104989078Y-147859689D01*
X105050000Y-147553413D01*
X105050000Y-146846588D01*
X104989078Y-146540312D01*
X104757007Y-146192993D01*
X104409689Y-145960922D01*
X104000000Y-145879430D01*
X103590312Y-145960922D01*
X103242994Y-146192993D01*
X103010922Y-146540311D01*
X102950000Y-146846587D01*
X98216220Y-146846587D01*
X90994632Y-139625000D01*
X99573960Y-139625000D01*
X105982152Y-146033192D01*
G36*
X62917139Y-128667423D02*
X62671757Y-129158956D01*
X62782435Y-129376000D01*
X63876000Y-129376000D01*
X63876000Y-129356000D01*
X64184000Y-129356000D01*
X64184000Y-129376000D01*
X65277565Y-129376000D01*
X65388243Y-129158956D01*
X65142861Y-128667423D01*
X64978854Y-128525000D01*
X66094141Y-128525000D01*
X65776944Y-128736944D01*
X65533823Y-129100801D01*
X65448450Y-129530000D01*
X65533823Y-129959199D01*
X65776944Y-130323056D01*
X66004345Y-130475000D01*
X65047947Y-130475000D01*
X65142861Y-130392577D01*
X65388243Y-129901044D01*
X65277565Y-129684000D01*
X64184000Y-129684000D01*
X64184000Y-129704000D01*
X63876000Y-129704000D01*
X63876000Y-129684000D01*
X62782435Y-129684000D01*
X62671757Y-129901044D01*
X62917139Y-130392577D01*
X63012053Y-130475000D01*
X61075486Y-130475000D01*
X61228056Y-130373056D01*
X61471177Y-130009199D01*
X61556550Y-129580000D01*
X61471177Y-129150801D01*
X61468799Y-129147242D01*
X62091041Y-128525000D01*
X63081146Y-128525000D01*
X62917139Y-128667423D01*
X62917139Y-128667423D01*
G37*
X62917139Y-128667423D02*
X62671757Y-129158956D01*
X62782435Y-129376000D01*
X63876000Y-129376000D01*
X63876000Y-129356000D01*
X64184000Y-129356000D01*
X64184000Y-129376000D01*
X65277565Y-129376000D01*
X65388243Y-129158956D01*
X65142861Y-128667423D01*
X64978854Y-128525000D01*
X66094141Y-128525000D01*
X65776944Y-128736944D01*
X65533823Y-129100801D01*
X65448450Y-129530000D01*
X65533823Y-129959199D01*
X65776944Y-130323056D01*
X66004345Y-130475000D01*
X65047947Y-130475000D01*
X65142861Y-130392577D01*
X65388243Y-129901044D01*
X65277565Y-129684000D01*
X64184000Y-129684000D01*
X64184000Y-129704000D01*
X63876000Y-129704000D01*
X63876000Y-129684000D01*
X62782435Y-129684000D01*
X62671757Y-129901044D01*
X62917139Y-130392577D01*
X63012053Y-130475000D01*
X61075486Y-130475000D01*
X61228056Y-130373056D01*
X61471177Y-130009199D01*
X61556550Y-129580000D01*
X61471177Y-129150801D01*
X61468799Y-129147242D01*
X62091041Y-128525000D01*
X63081146Y-128525000D01*
X62917139Y-128667423D01*
G04 #@! TD*
M02*
