G04 #@! TF.GenerationSoftware,KiCad,Pcbnew,(5.0.2)-1*
G04 #@! TF.CreationDate,2019-03-15T15:40:50+01:00*
G04 #@! TF.ProjectId,CCdrum,43436472-756d-42e6-9b69-6361645f7063,rev?*
G04 #@! TF.SameCoordinates,Original*
G04 #@! TF.FileFunction,Copper,L2,Bot*
G04 #@! TF.FilePolarity,Positive*
%FSLAX46Y46*%
G04 Gerber Fmt 4.6, Leading zero omitted, Abs format (unit mm)*
G04 Created by KiCad (PCBNEW (5.0.2)-1) date 15/03/2019 15:40:50*
%MOMM*%
%LPD*%
G01*
G04 APERTURE LIST*
G04 #@! TA.AperFunction,ComponentPad*
%ADD10R,1.600000X1.600000*%
G04 #@! TD*
G04 #@! TA.AperFunction,ComponentPad*
%ADD11O,1.600000X1.600000*%
G04 #@! TD*
G04 #@! TA.AperFunction,ComponentPad*
%ADD12C,1.600000*%
G04 #@! TD*
G04 #@! TA.AperFunction,ComponentPad*
%ADD13R,1.700000X1.700000*%
G04 #@! TD*
G04 #@! TA.AperFunction,ComponentPad*
%ADD14O,1.700000X1.700000*%
G04 #@! TD*
G04 #@! TA.AperFunction,ComponentPad*
%ADD15C,2.499360*%
G04 #@! TD*
G04 #@! TA.AperFunction,ComponentPad*
%ADD16O,1.500000X2.000000*%
G04 #@! TD*
G04 #@! TA.AperFunction,ComponentPad*
%ADD17C,3.500000*%
G04 #@! TD*
G04 #@! TA.AperFunction,ComponentPad*
%ADD18O,1.900000X1.050000*%
G04 #@! TD*
G04 #@! TA.AperFunction,ViaPad*
%ADD19C,0.800000*%
G04 #@! TD*
G04 #@! TA.AperFunction,Conductor*
%ADD20C,0.250000*%
G04 #@! TD*
G04 #@! TA.AperFunction,Conductor*
%ADD21C,0.200000*%
G04 #@! TD*
G04 APERTURE END LIST*
D10*
G04 #@! TO.P,U1,1*
G04 #@! TO.N,GND*
X128016000Y-86868000D03*
D11*
G04 #@! TO.P,U1,11*
G04 #@! TO.N,LED_DRV*
X150876000Y-79248000D03*
G04 #@! TO.P,U1,2*
G04 #@! TO.N,BIT*
X130556000Y-86868000D03*
G04 #@! TO.P,U1,12*
G04 #@! TO.N,LED_PAN*
X148336000Y-79248000D03*
G04 #@! TO.P,U1,3*
G04 #@! TO.N,RXD*
X133096000Y-86868000D03*
G04 #@! TO.P,U1,13*
G04 #@! TO.N,LED_STATUS*
X145796000Y-79248000D03*
G04 #@! TO.P,U1,4*
G04 #@! TO.N,TXD*
X135636000Y-86868000D03*
G04 #@! TO.P,U1,14*
G04 #@! TO.N,Net-(U1-Pad14)*
X143256000Y-79248000D03*
G04 #@! TO.P,U1,5*
G04 #@! TO.N,FLD*
X138176000Y-86868000D03*
G04 #@! TO.P,U1,15*
G04 #@! TO.N,GAN*
X140716000Y-79248000D03*
G04 #@! TO.P,U1,6*
G04 #@! TO.N,DRV*
X140716000Y-86868000D03*
G04 #@! TO.P,U1,16*
G04 #@! TO.N,RST*
X138176000Y-79248000D03*
G04 #@! TO.P,U1,7*
G04 #@! TO.N,PAN*
X143256000Y-86868000D03*
G04 #@! TO.P,U1,17*
G04 #@! TO.N,TEST*
X135636000Y-79248000D03*
G04 #@! TO.P,U1,8*
G04 #@! TO.N,LED_BIT*
X145796000Y-86868000D03*
G04 #@! TO.P,U1,18*
G04 #@! TO.N,Net-(U1-Pad18)*
X133096000Y-79248000D03*
G04 #@! TO.P,U1,9*
G04 #@! TO.N,LED_GAN*
X148336000Y-86868000D03*
G04 #@! TO.P,U1,19*
G04 #@! TO.N,Net-(U1-Pad19)*
X130556000Y-79248000D03*
G04 #@! TO.P,U1,10*
G04 #@! TO.N,LED_FLD*
X150876000Y-86868000D03*
G04 #@! TO.P,U1,20*
G04 #@! TO.N,+3V3*
X128016000Y-79248000D03*
G04 #@! TD*
D12*
G04 #@! TO.P,R13,1*
G04 #@! TO.N,LED_GAN*
X157988000Y-79248000D03*
D11*
G04 #@! TO.P,R13,2*
G04 #@! TO.N,Net-(D5-Pad2)*
X157988000Y-86868000D03*
G04 #@! TD*
G04 #@! TO.P,R15,2*
G04 #@! TO.N,Net-(D7-Pad2)*
X133351752Y-72390000D03*
D12*
G04 #@! TO.P,R15,1*
G04 #@! TO.N,LED_STATUS*
X140971752Y-72390000D03*
G04 #@! TD*
G04 #@! TO.P,R12,1*
G04 #@! TO.N,LED_PAN*
X154686000Y-79248000D03*
D11*
G04 #@! TO.P,R12,2*
G04 #@! TO.N,Net-(D4-Pad2)*
X154686000Y-86868000D03*
G04 #@! TD*
D13*
G04 #@! TO.P,J4,1*
G04 #@! TO.N,+3V3*
X110776000Y-72100000D03*
D14*
G04 #@! TO.P,J4,2*
G04 #@! TO.N,TEST*
X113316000Y-72100000D03*
G04 #@! TO.P,J4,3*
G04 #@! TO.N,RST*
X115856000Y-72100000D03*
G04 #@! TO.P,J4,4*
G04 #@! TO.N,GND*
X118396000Y-72100000D03*
G04 #@! TD*
D15*
G04 #@! TO.P,J3,3*
G04 #@! TO.N,Net-(J3-Pad3)*
X166902800Y-88398080D03*
G04 #@! TO.P,J3,4*
G04 #@! TO.N,Net-(J3-Pad4)*
X164400900Y-75903820D03*
G04 #@! TO.P,J3,2*
G04 #@! TO.N,Net-(J3-Pad2)*
X166900260Y-80900000D03*
G04 #@! TO.P,J3,1*
G04 #@! TO.N,Net-(J3-Pad1)*
X166902800Y-73401920D03*
G04 #@! TO.P,J3,5*
G04 #@! TO.N,Net-(J3-Pad5)*
X164400900Y-85896180D03*
G04 #@! TO.P,J3,*
G04 #@! TO.N,*
X176897700Y-75898740D03*
X176897700Y-85901260D03*
G04 #@! TD*
D16*
G04 #@! TO.P,RV4,1*
G04 #@! TO.N,+3V3*
X160070000Y-97264000D03*
G04 #@! TO.P,RV4,2*
G04 #@! TO.N,PAN*
X157570000Y-97264000D03*
G04 #@! TO.P,RV4,3*
G04 #@! TO.N,GND*
X155070000Y-97264000D03*
D17*
G04 #@! TO.P,RV4,*
G04 #@! TO.N,*
X162370000Y-104264000D03*
X152770000Y-104264000D03*
G04 #@! TD*
G04 #@! TO.P,RV5,*
G04 #@! TO.N,*
X167970000Y-104264000D03*
X177570000Y-104264000D03*
D16*
G04 #@! TO.P,RV5,3*
G04 #@! TO.N,GND*
X170270000Y-97264000D03*
G04 #@! TO.P,RV5,2*
G04 #@! TO.N,GAN*
X172770000Y-97264000D03*
G04 #@! TO.P,RV5,1*
G04 #@! TO.N,+3V3*
X175270000Y-97264000D03*
G04 #@! TD*
G04 #@! TO.P,RV1,1*
G04 #@! TO.N,+3V3*
X114470000Y-97264000D03*
G04 #@! TO.P,RV1,2*
G04 #@! TO.N,BIT*
X111970000Y-97264000D03*
G04 #@! TO.P,RV1,3*
G04 #@! TO.N,GND*
X109470000Y-97264000D03*
D17*
G04 #@! TO.P,RV1,*
G04 #@! TO.N,*
X116770000Y-104264000D03*
X107170000Y-104264000D03*
G04 #@! TD*
G04 #@! TO.P,RV2,*
G04 #@! TO.N,*
X122370000Y-104264000D03*
X131970000Y-104264000D03*
D16*
G04 #@! TO.P,RV2,3*
G04 #@! TO.N,GND*
X124670000Y-97264000D03*
G04 #@! TO.P,RV2,2*
G04 #@! TO.N,FLD*
X127170000Y-97264000D03*
G04 #@! TO.P,RV2,1*
G04 #@! TO.N,+3V3*
X129670000Y-97264000D03*
G04 #@! TD*
G04 #@! TO.P,RV3,1*
G04 #@! TO.N,+3V3*
X144870000Y-97264000D03*
G04 #@! TO.P,RV3,2*
G04 #@! TO.N,DRV*
X142370000Y-97264000D03*
G04 #@! TO.P,RV3,3*
G04 #@! TO.N,GND*
X139870000Y-97264000D03*
D17*
G04 #@! TO.P,RV3,*
G04 #@! TO.N,*
X147170000Y-104264000D03*
X137570000Y-104264000D03*
G04 #@! TD*
D12*
G04 #@! TO.P,C1,2*
G04 #@! TO.N,GND*
X107700000Y-79200000D03*
G04 #@! TO.P,C1,1*
G04 #@! TO.N,+5V*
X112700000Y-79200000D03*
G04 #@! TD*
G04 #@! TO.P,C2,1*
G04 #@! TO.N,+3V3*
X115700000Y-79100000D03*
G04 #@! TO.P,C2,2*
G04 #@! TO.N,GND*
X120700000Y-79100000D03*
G04 #@! TD*
D18*
G04 #@! TO.P,J1,6*
G04 #@! TO.N,GND*
X106200000Y-82425000D03*
X106200000Y-89575000D03*
G04 #@! TD*
D11*
G04 #@! TO.P,R10,2*
G04 #@! TO.N,GND*
X143510000Y-72390000D03*
D12*
G04 #@! TO.P,R10,1*
G04 #@! TO.N,Net-(J3-Pad4)*
X151130000Y-72390000D03*
G04 #@! TD*
G04 #@! TO.P,R9,1*
G04 #@! TO.N,Net-(J3-Pad5)*
X151130000Y-75836653D03*
D11*
G04 #@! TO.P,R9,2*
G04 #@! TO.N,Net-(R9-Pad2)*
X143510000Y-75836653D03*
G04 #@! TD*
G04 #@! TO.P,R11,2*
G04 #@! TO.N,Net-(D3-Pad2)*
X133351752Y-75836653D03*
D12*
G04 #@! TO.P,R11,1*
G04 #@! TO.N,LED_DRV*
X140971752Y-75836653D03*
G04 #@! TD*
G04 #@! TO.P,R7,1*
G04 #@! TO.N,LED_BIT*
X130810000Y-75836653D03*
D11*
G04 #@! TO.P,R7,2*
G04 #@! TO.N,Net-(D1-Pad2)*
X123190000Y-75836653D03*
G04 #@! TD*
G04 #@! TO.P,R8,2*
G04 #@! TO.N,Net-(D2-Pad2)*
X123191752Y-72390000D03*
D12*
G04 #@! TO.P,R8,1*
G04 #@! TO.N,LED_FLD*
X130811752Y-72390000D03*
G04 #@! TD*
G04 #@! TO.P,R1,1*
G04 #@! TO.N,+3V3*
X124206000Y-86868000D03*
D11*
G04 #@! TO.P,R1,2*
G04 #@! TO.N,RST*
X124206000Y-79248000D03*
G04 #@! TD*
D19*
G04 #@! TO.N,LED_BIT*
X140208000Y-81534000D03*
G04 #@! TO.N,+3V3*
X116100000Y-86000000D03*
G04 #@! TO.N,Net-(D7-Pad2)*
X108966000Y-74930000D03*
G04 #@! TO.N,RST*
X120904000Y-76200000D03*
X138400000Y-85100000D03*
G04 #@! TD*
D20*
G04 #@! TO.N,LED_FLD*
X148336000Y-84328000D02*
X150876000Y-86868000D01*
X133970998Y-84328000D02*
X148336000Y-84328000D01*
X129141001Y-79498003D02*
X133970998Y-84328000D01*
X130811752Y-72390000D02*
X129141001Y-74060751D01*
X129141001Y-74060751D02*
X129141001Y-79498003D01*
G04 #@! TO.N,LED_BIT*
X131935001Y-76961654D02*
X132841654Y-76961654D01*
X130810000Y-75836653D02*
X131935001Y-76961654D01*
X134510999Y-79788001D02*
X136256998Y-81534000D01*
X132841654Y-76961654D02*
X134510999Y-78630999D01*
X134510999Y-78630999D02*
X134510999Y-79788001D01*
X136256998Y-81534000D02*
X140208000Y-81534000D01*
X140208000Y-81534000D02*
X140208000Y-81534000D01*
G04 #@! TO.N,LED_DRV*
X150876000Y-79248000D02*
X149098000Y-77470000D01*
X142605099Y-77470000D02*
X140971752Y-75836653D01*
X149098000Y-77470000D02*
X142605099Y-77470000D01*
G04 #@! TO.N,BIT*
X111970000Y-97014000D02*
X119068000Y-89916000D01*
X111970000Y-97264000D02*
X111970000Y-97014000D01*
X127508000Y-89916000D02*
X130556000Y-86868000D01*
X119068000Y-89916000D02*
X127508000Y-89916000D01*
G04 #@! TO.N,LED_PAN*
X153554630Y-79248000D02*
X151384000Y-81418630D01*
X154686000Y-79248000D02*
X153554630Y-79248000D01*
X150506630Y-81418630D02*
X148336000Y-79248000D01*
X151384000Y-81418630D02*
X150506630Y-81418630D01*
G04 #@! TO.N,LED_STATUS*
X139446000Y-73915752D02*
X140971752Y-72390000D01*
X139446000Y-76708000D02*
X139446000Y-73915752D01*
X140658010Y-77920010D02*
X139446000Y-76708000D01*
X145796000Y-79248000D02*
X144468010Y-77920010D01*
X144468010Y-77920010D02*
X140658010Y-77920010D01*
G04 #@! TO.N,FLD*
X127170000Y-96014000D02*
X131236000Y-91948000D01*
X127170000Y-97264000D02*
X127170000Y-96014000D01*
X133096000Y-91948000D02*
X138176000Y-86868000D01*
X131236000Y-91948000D02*
X133096000Y-91948000D01*
G04 #@! TO.N,GAN*
X172770000Y-97014000D02*
X164910000Y-89154000D01*
X172770000Y-97264000D02*
X172770000Y-97014000D01*
X155306998Y-89154000D02*
X148702998Y-82550000D01*
X164910000Y-89154000D02*
X155306998Y-89154000D01*
X144018000Y-82550000D02*
X140716000Y-79248000D01*
X148702998Y-82550000D02*
X144018000Y-82550000D01*
G04 #@! TO.N,DRV*
X142370000Y-88522000D02*
X140716000Y-86868000D01*
X142370000Y-97264000D02*
X142370000Y-88522000D01*
G04 #@! TO.N,PAN*
X157570000Y-96014000D02*
X151726000Y-90170000D01*
X157570000Y-97264000D02*
X157570000Y-96014000D01*
X146558000Y-90170000D02*
X143256000Y-86868000D01*
X151726000Y-90170000D02*
X146558000Y-90170000D01*
G04 #@! TO.N,Net-(D7-Pad2)*
X108966000Y-74930000D02*
X119634000Y-74930000D01*
X119634000Y-74930000D02*
X121666000Y-72898000D01*
X121666000Y-72898000D02*
X121666000Y-71882000D01*
X121666000Y-71882000D02*
X122682000Y-70866000D01*
X131827752Y-70866000D02*
X133351752Y-72390000D01*
X122682000Y-70866000D02*
X131827752Y-70866000D01*
G04 #@! TO.N,Net-(J3-Pad5)*
X163151221Y-84646501D02*
X163151221Y-80855221D01*
X164400900Y-85896180D02*
X163151221Y-84646501D01*
X158132653Y-75836653D02*
X151130000Y-75836653D01*
X163151221Y-80855221D02*
X158132653Y-75836653D01*
G04 #@! TO.N,RST*
X123952000Y-79248000D02*
X124206000Y-79248000D01*
X120904000Y-76200000D02*
X123952000Y-79248000D01*
X124206000Y-79248000D02*
X130058000Y-85100000D01*
X130058000Y-85100000D02*
X138400000Y-85100000D01*
G04 #@! TD*
D21*
G04 #@! TO.N,+3V3*
G36*
X122303496Y-70487496D02*
X122274205Y-70531333D01*
X121331333Y-71474205D01*
X121287497Y-71503496D01*
X121214813Y-71612275D01*
X121171461Y-71677156D01*
X121130715Y-71882000D01*
X121141001Y-71933711D01*
X121141000Y-72680538D01*
X119416539Y-74405000D01*
X109572371Y-74405000D01*
X109419164Y-74251793D01*
X109125130Y-74130000D01*
X108806870Y-74130000D01*
X108512836Y-74251793D01*
X108287793Y-74476836D01*
X108166000Y-74770870D01*
X108166000Y-75089130D01*
X108287793Y-75383164D01*
X108512836Y-75608207D01*
X108806870Y-75730000D01*
X109125130Y-75730000D01*
X109419164Y-75608207D01*
X109572371Y-75455000D01*
X119582294Y-75455000D01*
X119634000Y-75465285D01*
X119685706Y-75455000D01*
X119838845Y-75424539D01*
X120012504Y-75308504D01*
X120041797Y-75264664D01*
X122000668Y-73305794D01*
X122044504Y-73276504D01*
X122160539Y-73102845D01*
X122167123Y-73069745D01*
X122175288Y-73028697D01*
X122326600Y-73255152D01*
X122723535Y-73520375D01*
X123073564Y-73590000D01*
X123309940Y-73590000D01*
X123659969Y-73520375D01*
X124056904Y-73255152D01*
X124322127Y-72858217D01*
X124415261Y-72390000D01*
X124322127Y-71921783D01*
X124056904Y-71524848D01*
X123856586Y-71391000D01*
X130113696Y-71391000D01*
X129794441Y-71710255D01*
X129611752Y-72151305D01*
X129611752Y-72628695D01*
X129675850Y-72783441D01*
X128806337Y-73652954D01*
X128762497Y-73682247D01*
X128646463Y-73855906D01*
X128646462Y-73855907D01*
X128605716Y-74060751D01*
X128616001Y-74112457D01*
X128616002Y-77984598D01*
X128387042Y-77889769D01*
X128170000Y-78001477D01*
X128170000Y-79094000D01*
X128190000Y-79094000D01*
X128190000Y-79402000D01*
X128170000Y-79402000D01*
X128170000Y-80494523D01*
X128387042Y-80606231D01*
X128714056Y-80470791D01*
X129065841Y-80165304D01*
X133475536Y-84575000D01*
X130275462Y-84575000D01*
X125349698Y-79649237D01*
X125355703Y-79619044D01*
X126657757Y-79619044D01*
X126903139Y-80110577D01*
X127317944Y-80470791D01*
X127644958Y-80606231D01*
X127862000Y-80494523D01*
X127862000Y-79402000D01*
X126768435Y-79402000D01*
X126657757Y-79619044D01*
X125355703Y-79619044D01*
X125429509Y-79248000D01*
X125355704Y-78876956D01*
X126657757Y-78876956D01*
X126768435Y-79094000D01*
X127862000Y-79094000D01*
X127862000Y-78001477D01*
X127644958Y-77889769D01*
X127317944Y-78025209D01*
X126903139Y-78385423D01*
X126657757Y-78876956D01*
X125355704Y-78876956D01*
X125336375Y-78779783D01*
X125071152Y-78382848D01*
X124674217Y-78117625D01*
X124324188Y-78048000D01*
X124087812Y-78048000D01*
X123737783Y-78117625D01*
X123633660Y-78187198D01*
X121704000Y-76257539D01*
X121704000Y-76040870D01*
X121619411Y-75836653D01*
X121966491Y-75836653D01*
X122059625Y-76304870D01*
X122324848Y-76701805D01*
X122721783Y-76967028D01*
X123071812Y-77036653D01*
X123308188Y-77036653D01*
X123658217Y-76967028D01*
X124055152Y-76701805D01*
X124320375Y-76304870D01*
X124413509Y-75836653D01*
X124320375Y-75368436D01*
X124055152Y-74971501D01*
X123658217Y-74706278D01*
X123308188Y-74636653D01*
X123071812Y-74636653D01*
X122721783Y-74706278D01*
X122324848Y-74971501D01*
X122059625Y-75368436D01*
X121966491Y-75836653D01*
X121619411Y-75836653D01*
X121582207Y-75746836D01*
X121357164Y-75521793D01*
X121063130Y-75400000D01*
X120744870Y-75400000D01*
X120450836Y-75521793D01*
X120225793Y-75746836D01*
X120104000Y-76040870D01*
X120104000Y-76359130D01*
X120225793Y-76653164D01*
X120450836Y-76878207D01*
X120744870Y-77000000D01*
X120961539Y-77000000D01*
X123020161Y-79058622D01*
X122982491Y-79248000D01*
X123075625Y-79716217D01*
X123340848Y-80113152D01*
X123737783Y-80378375D01*
X124087812Y-80448000D01*
X124324188Y-80448000D01*
X124607237Y-80391698D01*
X129650205Y-85434667D01*
X129679496Y-85478504D01*
X129821096Y-85573118D01*
X129853155Y-85594539D01*
X130058000Y-85635285D01*
X130109706Y-85625000D01*
X137793629Y-85625000D01*
X137873326Y-85704697D01*
X137707783Y-85737625D01*
X137310848Y-86002848D01*
X137045625Y-86399783D01*
X136952491Y-86868000D01*
X137032302Y-87269236D01*
X132878539Y-91423000D01*
X131287704Y-91423000D01*
X131235999Y-91412715D01*
X131184294Y-91423000D01*
X131031155Y-91453461D01*
X130857496Y-91569496D01*
X130828205Y-91613333D01*
X126835334Y-95606205D01*
X126791497Y-95635496D01*
X126741276Y-95710657D01*
X126675461Y-95809156D01*
X126640548Y-95984677D01*
X126340898Y-96184897D01*
X126086724Y-96565293D01*
X126020000Y-96900739D01*
X126020000Y-97627260D01*
X126086724Y-97962706D01*
X126340897Y-98343103D01*
X126721293Y-98597276D01*
X127170000Y-98686529D01*
X127618706Y-98597276D01*
X127999103Y-98343103D01*
X128253276Y-97962707D01*
X128314651Y-97654151D01*
X128457329Y-98144535D01*
X128790933Y-98560607D01*
X129258367Y-98817343D01*
X129306828Y-98822538D01*
X129516000Y-98710127D01*
X129516000Y-97418000D01*
X129824000Y-97418000D01*
X129824000Y-98710127D01*
X130033172Y-98822538D01*
X130081633Y-98817343D01*
X130549067Y-98560607D01*
X130882671Y-98144535D01*
X131031657Y-97632469D01*
X130881425Y-97418000D01*
X129824000Y-97418000D01*
X129516000Y-97418000D01*
X129496000Y-97418000D01*
X129496000Y-97110000D01*
X129516000Y-97110000D01*
X129516000Y-95817873D01*
X129824000Y-95817873D01*
X129824000Y-97110000D01*
X130881425Y-97110000D01*
X131028008Y-96900739D01*
X138720000Y-96900739D01*
X138720000Y-97627260D01*
X138786724Y-97962706D01*
X139040897Y-98343103D01*
X139421293Y-98597276D01*
X139870000Y-98686529D01*
X140318706Y-98597276D01*
X140699103Y-98343103D01*
X140953276Y-97962707D01*
X141020000Y-97627261D01*
X141020000Y-96900740D01*
X140953276Y-96565294D01*
X140699103Y-96184897D01*
X140318707Y-95930724D01*
X139870000Y-95841471D01*
X139421294Y-95930724D01*
X139040898Y-96184897D01*
X138786724Y-96565293D01*
X138720000Y-96900739D01*
X131028008Y-96900739D01*
X131031657Y-96895531D01*
X130882671Y-96383465D01*
X130549067Y-95967393D01*
X130081633Y-95710657D01*
X130033172Y-95705462D01*
X129824000Y-95817873D01*
X129516000Y-95817873D01*
X129306828Y-95705462D01*
X129258367Y-95710657D01*
X128790933Y-95967393D01*
X128457329Y-96383465D01*
X128314651Y-96873850D01*
X128253276Y-96565294D01*
X127999103Y-96184897D01*
X127844720Y-96081741D01*
X131453462Y-92473000D01*
X133044294Y-92473000D01*
X133096000Y-92483285D01*
X133147706Y-92473000D01*
X133300845Y-92442539D01*
X133474504Y-92326504D01*
X133503797Y-92282664D01*
X137774764Y-88011698D01*
X138057812Y-88068000D01*
X138294188Y-88068000D01*
X138644217Y-87998375D01*
X139041152Y-87733152D01*
X139306375Y-87336217D01*
X139399509Y-86868000D01*
X139492491Y-86868000D01*
X139585625Y-87336217D01*
X139850848Y-87733152D01*
X140247783Y-87998375D01*
X140597812Y-88068000D01*
X140834188Y-88068000D01*
X141117237Y-88011698D01*
X141845001Y-88739463D01*
X141845000Y-95981702D01*
X141540898Y-96184897D01*
X141286724Y-96565293D01*
X141220000Y-96900739D01*
X141220000Y-97627260D01*
X141286724Y-97962706D01*
X141540897Y-98343103D01*
X141921293Y-98597276D01*
X142370000Y-98686529D01*
X142818706Y-98597276D01*
X143199103Y-98343103D01*
X143453276Y-97962707D01*
X143514651Y-97654151D01*
X143657329Y-98144535D01*
X143990933Y-98560607D01*
X144458367Y-98817343D01*
X144506828Y-98822538D01*
X144716000Y-98710127D01*
X144716000Y-97418000D01*
X145024000Y-97418000D01*
X145024000Y-98710127D01*
X145233172Y-98822538D01*
X145281633Y-98817343D01*
X145749067Y-98560607D01*
X146082671Y-98144535D01*
X146231657Y-97632469D01*
X146081425Y-97418000D01*
X145024000Y-97418000D01*
X144716000Y-97418000D01*
X144696000Y-97418000D01*
X144696000Y-97110000D01*
X144716000Y-97110000D01*
X144716000Y-95817873D01*
X145024000Y-95817873D01*
X145024000Y-97110000D01*
X146081425Y-97110000D01*
X146228008Y-96900739D01*
X153920000Y-96900739D01*
X153920000Y-97627260D01*
X153986724Y-97962706D01*
X154240897Y-98343103D01*
X154621293Y-98597276D01*
X155070000Y-98686529D01*
X155518706Y-98597276D01*
X155899103Y-98343103D01*
X156153276Y-97962707D01*
X156220000Y-97627261D01*
X156220000Y-96900740D01*
X156153276Y-96565294D01*
X155899103Y-96184897D01*
X155518707Y-95930724D01*
X155070000Y-95841471D01*
X154621294Y-95930724D01*
X154240898Y-96184897D01*
X153986724Y-96565293D01*
X153920000Y-96900739D01*
X146228008Y-96900739D01*
X146231657Y-96895531D01*
X146082671Y-96383465D01*
X145749067Y-95967393D01*
X145281633Y-95710657D01*
X145233172Y-95705462D01*
X145024000Y-95817873D01*
X144716000Y-95817873D01*
X144506828Y-95705462D01*
X144458367Y-95710657D01*
X143990933Y-95967393D01*
X143657329Y-96383465D01*
X143514651Y-96873850D01*
X143453276Y-96565294D01*
X143199103Y-96184897D01*
X142895000Y-95981701D01*
X142895000Y-88573705D01*
X142905285Y-88521999D01*
X142864539Y-88317155D01*
X142847607Y-88291815D01*
X142748504Y-88143496D01*
X142704667Y-88114205D01*
X141859698Y-87269237D01*
X141939509Y-86868000D01*
X142032491Y-86868000D01*
X142125625Y-87336217D01*
X142390848Y-87733152D01*
X142787783Y-87998375D01*
X143137812Y-88068000D01*
X143374188Y-88068000D01*
X143657237Y-88011698D01*
X146150205Y-90504667D01*
X146179496Y-90548504D01*
X146353155Y-90664539D01*
X146557999Y-90705285D01*
X146609705Y-90695000D01*
X151508539Y-90695000D01*
X156895280Y-96081742D01*
X156740898Y-96184897D01*
X156486724Y-96565293D01*
X156420000Y-96900739D01*
X156420000Y-97627260D01*
X156486724Y-97962706D01*
X156740897Y-98343103D01*
X157121293Y-98597276D01*
X157570000Y-98686529D01*
X158018706Y-98597276D01*
X158399103Y-98343103D01*
X158653276Y-97962707D01*
X158714651Y-97654151D01*
X158857329Y-98144535D01*
X159190933Y-98560607D01*
X159658367Y-98817343D01*
X159706828Y-98822538D01*
X159916000Y-98710127D01*
X159916000Y-97418000D01*
X160224000Y-97418000D01*
X160224000Y-98710127D01*
X160433172Y-98822538D01*
X160481633Y-98817343D01*
X160949067Y-98560607D01*
X161282671Y-98144535D01*
X161431657Y-97632469D01*
X161281425Y-97418000D01*
X160224000Y-97418000D01*
X159916000Y-97418000D01*
X159896000Y-97418000D01*
X159896000Y-97110000D01*
X159916000Y-97110000D01*
X159916000Y-95817873D01*
X160224000Y-95817873D01*
X160224000Y-97110000D01*
X161281425Y-97110000D01*
X161428008Y-96900739D01*
X169120000Y-96900739D01*
X169120000Y-97627260D01*
X169186724Y-97962706D01*
X169440897Y-98343103D01*
X169821293Y-98597276D01*
X170270000Y-98686529D01*
X170718706Y-98597276D01*
X171099103Y-98343103D01*
X171353276Y-97962707D01*
X171420000Y-97627261D01*
X171420000Y-96900740D01*
X171353276Y-96565294D01*
X171099103Y-96184897D01*
X170718707Y-95930724D01*
X170270000Y-95841471D01*
X169821294Y-95930724D01*
X169440898Y-96184897D01*
X169186724Y-96565293D01*
X169120000Y-96900739D01*
X161428008Y-96900739D01*
X161431657Y-96895531D01*
X161282671Y-96383465D01*
X160949067Y-95967393D01*
X160481633Y-95710657D01*
X160433172Y-95705462D01*
X160224000Y-95817873D01*
X159916000Y-95817873D01*
X159706828Y-95705462D01*
X159658367Y-95710657D01*
X159190933Y-95967393D01*
X158857329Y-96383465D01*
X158714651Y-96873850D01*
X158653276Y-96565294D01*
X158399103Y-96184897D01*
X158099452Y-95984676D01*
X158064539Y-95809155D01*
X157948504Y-95635496D01*
X157904667Y-95606205D01*
X152133797Y-89835336D01*
X152104504Y-89791496D01*
X151930845Y-89675461D01*
X151777706Y-89645000D01*
X151726000Y-89634715D01*
X151674294Y-89645000D01*
X146775462Y-89645000D01*
X144399698Y-87269237D01*
X144479509Y-86868000D01*
X144572491Y-86868000D01*
X144665625Y-87336217D01*
X144930848Y-87733152D01*
X145327783Y-87998375D01*
X145677812Y-88068000D01*
X145914188Y-88068000D01*
X146264217Y-87998375D01*
X146661152Y-87733152D01*
X146926375Y-87336217D01*
X147019509Y-86868000D01*
X147112491Y-86868000D01*
X147205625Y-87336217D01*
X147470848Y-87733152D01*
X147867783Y-87998375D01*
X148217812Y-88068000D01*
X148454188Y-88068000D01*
X148804217Y-87998375D01*
X149201152Y-87733152D01*
X149466375Y-87336217D01*
X149559509Y-86868000D01*
X149466375Y-86399783D01*
X149201152Y-86002848D01*
X148804217Y-85737625D01*
X148454188Y-85668000D01*
X148217812Y-85668000D01*
X147867783Y-85737625D01*
X147470848Y-86002848D01*
X147205625Y-86399783D01*
X147112491Y-86868000D01*
X147019509Y-86868000D01*
X146926375Y-86399783D01*
X146661152Y-86002848D01*
X146264217Y-85737625D01*
X145914188Y-85668000D01*
X145677812Y-85668000D01*
X145327783Y-85737625D01*
X144930848Y-86002848D01*
X144665625Y-86399783D01*
X144572491Y-86868000D01*
X144479509Y-86868000D01*
X144386375Y-86399783D01*
X144121152Y-86002848D01*
X143724217Y-85737625D01*
X143374188Y-85668000D01*
X143137812Y-85668000D01*
X142787783Y-85737625D01*
X142390848Y-86002848D01*
X142125625Y-86399783D01*
X142032491Y-86868000D01*
X141939509Y-86868000D01*
X141846375Y-86399783D01*
X141581152Y-86002848D01*
X141184217Y-85737625D01*
X140834188Y-85668000D01*
X140597812Y-85668000D01*
X140247783Y-85737625D01*
X139850848Y-86002848D01*
X139585625Y-86399783D01*
X139492491Y-86868000D01*
X139399509Y-86868000D01*
X139306375Y-86399783D01*
X139041152Y-86002848D01*
X138761671Y-85816105D01*
X138853164Y-85778207D01*
X139078207Y-85553164D01*
X139200000Y-85259130D01*
X139200000Y-84940870D01*
X139163603Y-84853000D01*
X148118539Y-84853000D01*
X149732302Y-86466763D01*
X149652491Y-86868000D01*
X149745625Y-87336217D01*
X150010848Y-87733152D01*
X150407783Y-87998375D01*
X150757812Y-88068000D01*
X150994188Y-88068000D01*
X151344217Y-87998375D01*
X151741152Y-87733152D01*
X152006375Y-87336217D01*
X152099509Y-86868000D01*
X152055056Y-86644520D01*
X154899203Y-89488667D01*
X154928494Y-89532504D01*
X155102153Y-89648539D01*
X155255292Y-89679000D01*
X155306997Y-89689285D01*
X155358702Y-89679000D01*
X164692539Y-89679000D01*
X171668823Y-96655286D01*
X171620000Y-96900739D01*
X171620000Y-97627260D01*
X171686724Y-97962706D01*
X171940897Y-98343103D01*
X172321293Y-98597276D01*
X172770000Y-98686529D01*
X173218706Y-98597276D01*
X173599103Y-98343103D01*
X173853276Y-97962707D01*
X173914651Y-97654151D01*
X174057329Y-98144535D01*
X174390933Y-98560607D01*
X174858367Y-98817343D01*
X174906828Y-98822538D01*
X175116000Y-98710127D01*
X175116000Y-97418000D01*
X175424000Y-97418000D01*
X175424000Y-98710127D01*
X175633172Y-98822538D01*
X175681633Y-98817343D01*
X176149067Y-98560607D01*
X176482671Y-98144535D01*
X176631657Y-97632469D01*
X176481425Y-97418000D01*
X175424000Y-97418000D01*
X175116000Y-97418000D01*
X175096000Y-97418000D01*
X175096000Y-97110000D01*
X175116000Y-97110000D01*
X175116000Y-95817873D01*
X175424000Y-95817873D01*
X175424000Y-97110000D01*
X176481425Y-97110000D01*
X176631657Y-96895531D01*
X176482671Y-96383465D01*
X176149067Y-95967393D01*
X175681633Y-95710657D01*
X175633172Y-95705462D01*
X175424000Y-95817873D01*
X175116000Y-95817873D01*
X174906828Y-95705462D01*
X174858367Y-95710657D01*
X174390933Y-95967393D01*
X174057329Y-96383465D01*
X173914651Y-96873850D01*
X173853276Y-96565294D01*
X173599103Y-96184897D01*
X173218707Y-95930724D01*
X172770000Y-95841471D01*
X172411286Y-95912823D01*
X166526114Y-90027652D01*
X166574658Y-90047760D01*
X167230942Y-90047760D01*
X167837269Y-89796611D01*
X168301331Y-89332549D01*
X168552480Y-88726222D01*
X168552480Y-88069938D01*
X168301331Y-87463611D01*
X167837269Y-86999549D01*
X167230942Y-86748400D01*
X166574658Y-86748400D01*
X165968331Y-86999549D01*
X165504269Y-87463611D01*
X165253120Y-88069938D01*
X165253120Y-88726222D01*
X165267800Y-88761662D01*
X165114845Y-88659461D01*
X164961706Y-88629000D01*
X164910000Y-88618715D01*
X164858294Y-88629000D01*
X155524460Y-88629000D01*
X154937035Y-88041575D01*
X155154217Y-87998375D01*
X155551152Y-87733152D01*
X155816375Y-87336217D01*
X155909509Y-86868000D01*
X156764491Y-86868000D01*
X156857625Y-87336217D01*
X157122848Y-87733152D01*
X157519783Y-87998375D01*
X157869812Y-88068000D01*
X158106188Y-88068000D01*
X158456217Y-87998375D01*
X158853152Y-87733152D01*
X159118375Y-87336217D01*
X159211509Y-86868000D01*
X159118375Y-86399783D01*
X158853152Y-86002848D01*
X158456217Y-85737625D01*
X158106188Y-85668000D01*
X157869812Y-85668000D01*
X157519783Y-85737625D01*
X157122848Y-86002848D01*
X156857625Y-86399783D01*
X156764491Y-86868000D01*
X155909509Y-86868000D01*
X155816375Y-86399783D01*
X155551152Y-86002848D01*
X155154217Y-85737625D01*
X154804188Y-85668000D01*
X154567812Y-85668000D01*
X154217783Y-85737625D01*
X153820848Y-86002848D01*
X153555625Y-86399783D01*
X153512425Y-86616965D01*
X149110795Y-82215336D01*
X149081502Y-82171496D01*
X148907843Y-82055461D01*
X148754704Y-82025000D01*
X148702998Y-82014715D01*
X148651292Y-82025000D01*
X144235462Y-82025000D01*
X141859698Y-79649237D01*
X141939509Y-79248000D01*
X141846375Y-78779783D01*
X141622687Y-78445010D01*
X142349313Y-78445010D01*
X142125625Y-78779783D01*
X142032491Y-79248000D01*
X142125625Y-79716217D01*
X142390848Y-80113152D01*
X142787783Y-80378375D01*
X143137812Y-80448000D01*
X143374188Y-80448000D01*
X143724217Y-80378375D01*
X144121152Y-80113152D01*
X144386375Y-79716217D01*
X144479509Y-79248000D01*
X144386375Y-78779783D01*
X144162687Y-78445010D01*
X144250549Y-78445010D01*
X144652302Y-78846763D01*
X144572491Y-79248000D01*
X144665625Y-79716217D01*
X144930848Y-80113152D01*
X145327783Y-80378375D01*
X145677812Y-80448000D01*
X145914188Y-80448000D01*
X146264217Y-80378375D01*
X146661152Y-80113152D01*
X146926375Y-79716217D01*
X147019509Y-79248000D01*
X147112491Y-79248000D01*
X147205625Y-79716217D01*
X147470848Y-80113152D01*
X147867783Y-80378375D01*
X148217812Y-80448000D01*
X148454188Y-80448000D01*
X148737237Y-80391698D01*
X150098835Y-81753297D01*
X150128126Y-81797134D01*
X150301785Y-81913169D01*
X150454924Y-81943630D01*
X150506629Y-81953915D01*
X150558334Y-81943630D01*
X151332294Y-81943630D01*
X151384000Y-81953915D01*
X151435706Y-81943630D01*
X151588845Y-81913169D01*
X151762504Y-81797134D01*
X151791797Y-81753294D01*
X153653651Y-79891441D01*
X153668689Y-79927745D01*
X154006255Y-80265311D01*
X154447305Y-80448000D01*
X154924695Y-80448000D01*
X155365745Y-80265311D01*
X155703311Y-79927745D01*
X155886000Y-79486695D01*
X155886000Y-79009305D01*
X156788000Y-79009305D01*
X156788000Y-79486695D01*
X156970689Y-79927745D01*
X157308255Y-80265311D01*
X157749305Y-80448000D01*
X158226695Y-80448000D01*
X158667745Y-80265311D01*
X159005311Y-79927745D01*
X159188000Y-79486695D01*
X159188000Y-79009305D01*
X159005311Y-78568255D01*
X158667745Y-78230689D01*
X158226695Y-78048000D01*
X157749305Y-78048000D01*
X157308255Y-78230689D01*
X156970689Y-78568255D01*
X156788000Y-79009305D01*
X155886000Y-79009305D01*
X155703311Y-78568255D01*
X155365745Y-78230689D01*
X154924695Y-78048000D01*
X154447305Y-78048000D01*
X154006255Y-78230689D01*
X153668689Y-78568255D01*
X153604724Y-78722680D01*
X153554629Y-78712715D01*
X153502924Y-78723000D01*
X153349785Y-78753461D01*
X153176126Y-78869496D01*
X153146835Y-78913333D01*
X151166539Y-80893630D01*
X150724092Y-80893630D01*
X149479698Y-79649237D01*
X149559509Y-79248000D01*
X149466375Y-78779783D01*
X149201152Y-78382848D01*
X148804217Y-78117625D01*
X148454188Y-78048000D01*
X148217812Y-78048000D01*
X147867783Y-78117625D01*
X147470848Y-78382848D01*
X147205625Y-78779783D01*
X147112491Y-79248000D01*
X147019509Y-79248000D01*
X146926375Y-78779783D01*
X146661152Y-78382848D01*
X146264217Y-78117625D01*
X145914188Y-78048000D01*
X145677812Y-78048000D01*
X145394763Y-78104302D01*
X145285461Y-77995000D01*
X148880539Y-77995000D01*
X149732302Y-78846763D01*
X149652491Y-79248000D01*
X149745625Y-79716217D01*
X150010848Y-80113152D01*
X150407783Y-80378375D01*
X150757812Y-80448000D01*
X150994188Y-80448000D01*
X151344217Y-80378375D01*
X151741152Y-80113152D01*
X152006375Y-79716217D01*
X152099509Y-79248000D01*
X152006375Y-78779783D01*
X151741152Y-78382848D01*
X151344217Y-78117625D01*
X150994188Y-78048000D01*
X150757812Y-78048000D01*
X150474763Y-78104302D01*
X149505797Y-77135336D01*
X149476504Y-77091496D01*
X149302845Y-76975461D01*
X149149706Y-76945000D01*
X149098000Y-76934715D01*
X149046294Y-76945000D01*
X144011184Y-76945000D01*
X144375152Y-76701805D01*
X144640375Y-76304870D01*
X144733509Y-75836653D01*
X144686030Y-75597958D01*
X149930000Y-75597958D01*
X149930000Y-76075348D01*
X150112689Y-76516398D01*
X150450255Y-76853964D01*
X150891305Y-77036653D01*
X151368695Y-77036653D01*
X151809745Y-76853964D01*
X152147311Y-76516398D01*
X152211409Y-76361653D01*
X157915192Y-76361653D01*
X162626222Y-81072684D01*
X162626221Y-84594795D01*
X162615936Y-84646501D01*
X162633697Y-84735792D01*
X162656682Y-84851345D01*
X162772717Y-85025005D01*
X162816557Y-85054298D01*
X162920828Y-85158569D01*
X162751220Y-85568038D01*
X162751220Y-86224322D01*
X163002369Y-86830649D01*
X163466431Y-87294711D01*
X164072758Y-87545860D01*
X164729042Y-87545860D01*
X165335369Y-87294711D01*
X165799431Y-86830649D01*
X166050580Y-86224322D01*
X166050580Y-85573118D01*
X175248020Y-85573118D01*
X175248020Y-86229402D01*
X175499169Y-86835729D01*
X175963231Y-87299791D01*
X176569558Y-87550940D01*
X177225842Y-87550940D01*
X177832169Y-87299791D01*
X178296231Y-86835729D01*
X178547380Y-86229402D01*
X178547380Y-85573118D01*
X178296231Y-84966791D01*
X177832169Y-84502729D01*
X177225842Y-84251580D01*
X176569558Y-84251580D01*
X175963231Y-84502729D01*
X175499169Y-84966791D01*
X175248020Y-85573118D01*
X166050580Y-85573118D01*
X166050580Y-85568038D01*
X165799431Y-84961711D01*
X165335369Y-84497649D01*
X164729042Y-84246500D01*
X164072758Y-84246500D01*
X163676221Y-84410751D01*
X163676221Y-80906927D01*
X163686506Y-80855221D01*
X163645760Y-80650376D01*
X163593296Y-80571858D01*
X165250580Y-80571858D01*
X165250580Y-81228142D01*
X165501729Y-81834469D01*
X165965791Y-82298531D01*
X166572118Y-82549680D01*
X167228402Y-82549680D01*
X167834729Y-82298531D01*
X168298791Y-81834469D01*
X168549940Y-81228142D01*
X168549940Y-80571858D01*
X168298791Y-79965531D01*
X167834729Y-79501469D01*
X167228402Y-79250320D01*
X166572118Y-79250320D01*
X165965791Y-79501469D01*
X165501729Y-79965531D01*
X165250580Y-80571858D01*
X163593296Y-80571858D01*
X163529725Y-80476717D01*
X163485888Y-80447426D01*
X158614140Y-75575678D01*
X162751220Y-75575678D01*
X162751220Y-76231962D01*
X163002369Y-76838289D01*
X163466431Y-77302351D01*
X164072758Y-77553500D01*
X164729042Y-77553500D01*
X165335369Y-77302351D01*
X165799431Y-76838289D01*
X166050580Y-76231962D01*
X166050580Y-75575678D01*
X166048476Y-75570598D01*
X175248020Y-75570598D01*
X175248020Y-76226882D01*
X175499169Y-76833209D01*
X175963231Y-77297271D01*
X176569558Y-77548420D01*
X177225842Y-77548420D01*
X177832169Y-77297271D01*
X178296231Y-76833209D01*
X178547380Y-76226882D01*
X178547380Y-75570598D01*
X178296231Y-74964271D01*
X177832169Y-74500209D01*
X177225842Y-74249060D01*
X176569558Y-74249060D01*
X175963231Y-74500209D01*
X175499169Y-74964271D01*
X175248020Y-75570598D01*
X166048476Y-75570598D01*
X165799431Y-74969351D01*
X165335369Y-74505289D01*
X164729042Y-74254140D01*
X164072758Y-74254140D01*
X163466431Y-74505289D01*
X163002369Y-74969351D01*
X162751220Y-75575678D01*
X158614140Y-75575678D01*
X158540450Y-75501989D01*
X158511157Y-75458149D01*
X158337498Y-75342114D01*
X158184359Y-75311653D01*
X158132653Y-75301368D01*
X158080947Y-75311653D01*
X152211409Y-75311653D01*
X152147311Y-75156908D01*
X151809745Y-74819342D01*
X151368695Y-74636653D01*
X150891305Y-74636653D01*
X150450255Y-74819342D01*
X150112689Y-75156908D01*
X149930000Y-75597958D01*
X144686030Y-75597958D01*
X144640375Y-75368436D01*
X144375152Y-74971501D01*
X143978217Y-74706278D01*
X143628188Y-74636653D01*
X143391812Y-74636653D01*
X143041783Y-74706278D01*
X142644848Y-74971501D01*
X142379625Y-75368436D01*
X142286491Y-75836653D01*
X142379625Y-76304870D01*
X142644848Y-76701805D01*
X143008816Y-76945000D01*
X142822561Y-76945000D01*
X142107654Y-76230094D01*
X142171752Y-76075348D01*
X142171752Y-75597958D01*
X141989063Y-75156908D01*
X141651497Y-74819342D01*
X141210447Y-74636653D01*
X140733057Y-74636653D01*
X140292007Y-74819342D01*
X139971000Y-75140349D01*
X139971000Y-74133213D01*
X140578311Y-73525902D01*
X140733057Y-73590000D01*
X141210447Y-73590000D01*
X141651497Y-73407311D01*
X141989063Y-73069745D01*
X142171752Y-72628695D01*
X142171752Y-72390000D01*
X142286491Y-72390000D01*
X142379625Y-72858217D01*
X142644848Y-73255152D01*
X143041783Y-73520375D01*
X143391812Y-73590000D01*
X143628188Y-73590000D01*
X143978217Y-73520375D01*
X144375152Y-73255152D01*
X144640375Y-72858217D01*
X144733509Y-72390000D01*
X144686030Y-72151305D01*
X149930000Y-72151305D01*
X149930000Y-72628695D01*
X150112689Y-73069745D01*
X150450255Y-73407311D01*
X150891305Y-73590000D01*
X151368695Y-73590000D01*
X151809745Y-73407311D01*
X152143278Y-73073778D01*
X165253120Y-73073778D01*
X165253120Y-73730062D01*
X165504269Y-74336389D01*
X165968331Y-74800451D01*
X166574658Y-75051600D01*
X167230942Y-75051600D01*
X167837269Y-74800451D01*
X168301331Y-74336389D01*
X168552480Y-73730062D01*
X168552480Y-73073778D01*
X168301331Y-72467451D01*
X167837269Y-72003389D01*
X167230942Y-71752240D01*
X166574658Y-71752240D01*
X165968331Y-72003389D01*
X165504269Y-72467451D01*
X165253120Y-73073778D01*
X152143278Y-73073778D01*
X152147311Y-73069745D01*
X152330000Y-72628695D01*
X152330000Y-72151305D01*
X152147311Y-71710255D01*
X151809745Y-71372689D01*
X151368695Y-71190000D01*
X150891305Y-71190000D01*
X150450255Y-71372689D01*
X150112689Y-71710255D01*
X149930000Y-72151305D01*
X144686030Y-72151305D01*
X144640375Y-71921783D01*
X144375152Y-71524848D01*
X143978217Y-71259625D01*
X143628188Y-71190000D01*
X143391812Y-71190000D01*
X143041783Y-71259625D01*
X142644848Y-71524848D01*
X142379625Y-71921783D01*
X142286491Y-72390000D01*
X142171752Y-72390000D01*
X142171752Y-72151305D01*
X141989063Y-71710255D01*
X141651497Y-71372689D01*
X141210447Y-71190000D01*
X140733057Y-71190000D01*
X140292007Y-71372689D01*
X139954441Y-71710255D01*
X139771752Y-72151305D01*
X139771752Y-72628695D01*
X139835850Y-72783441D01*
X139111334Y-73507957D01*
X139067497Y-73537248D01*
X138984048Y-73662139D01*
X138951461Y-73710908D01*
X138910715Y-73915752D01*
X138921001Y-73967463D01*
X138921000Y-76656294D01*
X138910715Y-76708000D01*
X138921000Y-76759705D01*
X138951461Y-76912844D01*
X139067496Y-77086504D01*
X139111336Y-77115797D01*
X140167084Y-78171546D01*
X139850848Y-78382848D01*
X139585625Y-78779783D01*
X139492491Y-79248000D01*
X139585625Y-79716217D01*
X139850848Y-80113152D01*
X140247783Y-80378375D01*
X140597812Y-80448000D01*
X140834188Y-80448000D01*
X141117237Y-80391698D01*
X143610205Y-82884667D01*
X143639496Y-82928504D01*
X143813155Y-83044539D01*
X144017999Y-83085285D01*
X144069705Y-83075000D01*
X148485537Y-83075000D01*
X151099481Y-85688944D01*
X150994188Y-85668000D01*
X150757812Y-85668000D01*
X150474763Y-85724302D01*
X148743797Y-83993336D01*
X148714504Y-83949496D01*
X148540845Y-83833461D01*
X148387706Y-83803000D01*
X148336000Y-83792715D01*
X148284294Y-83803000D01*
X134188460Y-83803000D01*
X130807034Y-80421575D01*
X131024217Y-80378375D01*
X131421152Y-80113152D01*
X131686375Y-79716217D01*
X131779509Y-79248000D01*
X131686375Y-78779783D01*
X131421152Y-78382848D01*
X131024217Y-78117625D01*
X130674188Y-78048000D01*
X130437812Y-78048000D01*
X130087783Y-78117625D01*
X129690848Y-78382848D01*
X129666001Y-78420034D01*
X129666001Y-76210546D01*
X129792689Y-76516398D01*
X130130255Y-76853964D01*
X130571305Y-77036653D01*
X131048695Y-77036653D01*
X131203441Y-76972555D01*
X131527206Y-77296321D01*
X131556497Y-77340158D01*
X131730156Y-77456193D01*
X131935001Y-77496939D01*
X131986707Y-77486654D01*
X132624193Y-77486654D01*
X133185539Y-78048000D01*
X132977812Y-78048000D01*
X132627783Y-78117625D01*
X132230848Y-78382848D01*
X131965625Y-78779783D01*
X131872491Y-79248000D01*
X131965625Y-79716217D01*
X132230848Y-80113152D01*
X132627783Y-80378375D01*
X132977812Y-80448000D01*
X133214188Y-80448000D01*
X133564217Y-80378375D01*
X133961152Y-80113152D01*
X134028999Y-80011611D01*
X134132496Y-80166505D01*
X134176333Y-80195796D01*
X135849203Y-81868667D01*
X135878494Y-81912504D01*
X136052153Y-82028539D01*
X136205292Y-82059000D01*
X136256997Y-82069285D01*
X136308702Y-82059000D01*
X139601629Y-82059000D01*
X139754836Y-82212207D01*
X140048870Y-82334000D01*
X140367130Y-82334000D01*
X140661164Y-82212207D01*
X140886207Y-81987164D01*
X141008000Y-81693130D01*
X141008000Y-81374870D01*
X140886207Y-81080836D01*
X140661164Y-80855793D01*
X140367130Y-80734000D01*
X140048870Y-80734000D01*
X139754836Y-80855793D01*
X139601629Y-81009000D01*
X136474460Y-81009000D01*
X135887035Y-80421575D01*
X136104217Y-80378375D01*
X136501152Y-80113152D01*
X136766375Y-79716217D01*
X136859509Y-79248000D01*
X136952491Y-79248000D01*
X137045625Y-79716217D01*
X137310848Y-80113152D01*
X137707783Y-80378375D01*
X138057812Y-80448000D01*
X138294188Y-80448000D01*
X138644217Y-80378375D01*
X139041152Y-80113152D01*
X139306375Y-79716217D01*
X139399509Y-79248000D01*
X139306375Y-78779783D01*
X139041152Y-78382848D01*
X138644217Y-78117625D01*
X138294188Y-78048000D01*
X138057812Y-78048000D01*
X137707783Y-78117625D01*
X137310848Y-78382848D01*
X137045625Y-78779783D01*
X136952491Y-79248000D01*
X136859509Y-79248000D01*
X136766375Y-78779783D01*
X136501152Y-78382848D01*
X136104217Y-78117625D01*
X135754188Y-78048000D01*
X135517812Y-78048000D01*
X135167783Y-78117625D01*
X134913094Y-78287802D01*
X134889503Y-78252495D01*
X134845667Y-78223205D01*
X133627728Y-77005267D01*
X133819969Y-76967028D01*
X134216904Y-76701805D01*
X134482127Y-76304870D01*
X134575261Y-75836653D01*
X134482127Y-75368436D01*
X134216904Y-74971501D01*
X133819969Y-74706278D01*
X133469940Y-74636653D01*
X133233564Y-74636653D01*
X132883535Y-74706278D01*
X132486600Y-74971501D01*
X132221377Y-75368436D01*
X132128243Y-75836653D01*
X132221377Y-76304870D01*
X132309432Y-76436654D01*
X132152463Y-76436654D01*
X131945902Y-76230094D01*
X132010000Y-76075348D01*
X132010000Y-75597958D01*
X131827311Y-75156908D01*
X131489745Y-74819342D01*
X131048695Y-74636653D01*
X130571305Y-74636653D01*
X130130255Y-74819342D01*
X129792689Y-75156908D01*
X129666001Y-75462760D01*
X129666001Y-74278212D01*
X130418311Y-73525902D01*
X130573057Y-73590000D01*
X131050447Y-73590000D01*
X131491497Y-73407311D01*
X131829063Y-73069745D01*
X132011752Y-72628695D01*
X132011752Y-72151305D01*
X131829063Y-71710255D01*
X131509808Y-71391000D01*
X131610291Y-71391000D01*
X132208054Y-71988763D01*
X132128243Y-72390000D01*
X132221377Y-72858217D01*
X132486600Y-73255152D01*
X132883535Y-73520375D01*
X133233564Y-73590000D01*
X133469940Y-73590000D01*
X133819969Y-73520375D01*
X134216904Y-73255152D01*
X134482127Y-72858217D01*
X134575261Y-72390000D01*
X134482127Y-71921783D01*
X134216904Y-71524848D01*
X133819969Y-71259625D01*
X133469940Y-71190000D01*
X133233564Y-71190000D01*
X132950515Y-71246302D01*
X132235549Y-70531336D01*
X132206256Y-70487496D01*
X132075309Y-70400000D01*
X179270000Y-70400000D01*
X179270001Y-102923442D01*
X178787877Y-102441318D01*
X177997662Y-102114000D01*
X177142338Y-102114000D01*
X176352123Y-102441318D01*
X175747318Y-103046123D01*
X175420000Y-103836338D01*
X175420000Y-104691662D01*
X175747318Y-105481877D01*
X176352123Y-106086682D01*
X177142338Y-106414000D01*
X177997662Y-106414000D01*
X178787877Y-106086682D01*
X179270001Y-105604558D01*
X179270001Y-109410000D01*
X105270000Y-109410000D01*
X105270000Y-105295215D01*
X105347318Y-105481877D01*
X105952123Y-106086682D01*
X106742338Y-106414000D01*
X107597662Y-106414000D01*
X108387877Y-106086682D01*
X108992682Y-105481877D01*
X109320000Y-104691662D01*
X109320000Y-103836338D01*
X114620000Y-103836338D01*
X114620000Y-104691662D01*
X114947318Y-105481877D01*
X115552123Y-106086682D01*
X116342338Y-106414000D01*
X117197662Y-106414000D01*
X117987877Y-106086682D01*
X118592682Y-105481877D01*
X118920000Y-104691662D01*
X118920000Y-103836338D01*
X120220000Y-103836338D01*
X120220000Y-104691662D01*
X120547318Y-105481877D01*
X121152123Y-106086682D01*
X121942338Y-106414000D01*
X122797662Y-106414000D01*
X123587877Y-106086682D01*
X124192682Y-105481877D01*
X124520000Y-104691662D01*
X124520000Y-103836338D01*
X129820000Y-103836338D01*
X129820000Y-104691662D01*
X130147318Y-105481877D01*
X130752123Y-106086682D01*
X131542338Y-106414000D01*
X132397662Y-106414000D01*
X133187877Y-106086682D01*
X133792682Y-105481877D01*
X134120000Y-104691662D01*
X134120000Y-103836338D01*
X135420000Y-103836338D01*
X135420000Y-104691662D01*
X135747318Y-105481877D01*
X136352123Y-106086682D01*
X137142338Y-106414000D01*
X137997662Y-106414000D01*
X138787877Y-106086682D01*
X139392682Y-105481877D01*
X139720000Y-104691662D01*
X139720000Y-103836338D01*
X145020000Y-103836338D01*
X145020000Y-104691662D01*
X145347318Y-105481877D01*
X145952123Y-106086682D01*
X146742338Y-106414000D01*
X147597662Y-106414000D01*
X148387877Y-106086682D01*
X148992682Y-105481877D01*
X149320000Y-104691662D01*
X149320000Y-103836338D01*
X150620000Y-103836338D01*
X150620000Y-104691662D01*
X150947318Y-105481877D01*
X151552123Y-106086682D01*
X152342338Y-106414000D01*
X153197662Y-106414000D01*
X153987877Y-106086682D01*
X154592682Y-105481877D01*
X154920000Y-104691662D01*
X154920000Y-103836338D01*
X160220000Y-103836338D01*
X160220000Y-104691662D01*
X160547318Y-105481877D01*
X161152123Y-106086682D01*
X161942338Y-106414000D01*
X162797662Y-106414000D01*
X163587877Y-106086682D01*
X164192682Y-105481877D01*
X164520000Y-104691662D01*
X164520000Y-103836338D01*
X165820000Y-103836338D01*
X165820000Y-104691662D01*
X166147318Y-105481877D01*
X166752123Y-106086682D01*
X167542338Y-106414000D01*
X168397662Y-106414000D01*
X169187877Y-106086682D01*
X169792682Y-105481877D01*
X170120000Y-104691662D01*
X170120000Y-103836338D01*
X169792682Y-103046123D01*
X169187877Y-102441318D01*
X168397662Y-102114000D01*
X167542338Y-102114000D01*
X166752123Y-102441318D01*
X166147318Y-103046123D01*
X165820000Y-103836338D01*
X164520000Y-103836338D01*
X164192682Y-103046123D01*
X163587877Y-102441318D01*
X162797662Y-102114000D01*
X161942338Y-102114000D01*
X161152123Y-102441318D01*
X160547318Y-103046123D01*
X160220000Y-103836338D01*
X154920000Y-103836338D01*
X154592682Y-103046123D01*
X153987877Y-102441318D01*
X153197662Y-102114000D01*
X152342338Y-102114000D01*
X151552123Y-102441318D01*
X150947318Y-103046123D01*
X150620000Y-103836338D01*
X149320000Y-103836338D01*
X148992682Y-103046123D01*
X148387877Y-102441318D01*
X147597662Y-102114000D01*
X146742338Y-102114000D01*
X145952123Y-102441318D01*
X145347318Y-103046123D01*
X145020000Y-103836338D01*
X139720000Y-103836338D01*
X139392682Y-103046123D01*
X138787877Y-102441318D01*
X137997662Y-102114000D01*
X137142338Y-102114000D01*
X136352123Y-102441318D01*
X135747318Y-103046123D01*
X135420000Y-103836338D01*
X134120000Y-103836338D01*
X133792682Y-103046123D01*
X133187877Y-102441318D01*
X132397662Y-102114000D01*
X131542338Y-102114000D01*
X130752123Y-102441318D01*
X130147318Y-103046123D01*
X129820000Y-103836338D01*
X124520000Y-103836338D01*
X124192682Y-103046123D01*
X123587877Y-102441318D01*
X122797662Y-102114000D01*
X121942338Y-102114000D01*
X121152123Y-102441318D01*
X120547318Y-103046123D01*
X120220000Y-103836338D01*
X118920000Y-103836338D01*
X118592682Y-103046123D01*
X117987877Y-102441318D01*
X117197662Y-102114000D01*
X116342338Y-102114000D01*
X115552123Y-102441318D01*
X114947318Y-103046123D01*
X114620000Y-103836338D01*
X109320000Y-103836338D01*
X108992682Y-103046123D01*
X108387877Y-102441318D01*
X107597662Y-102114000D01*
X106742338Y-102114000D01*
X105952123Y-102441318D01*
X105347318Y-103046123D01*
X105270000Y-103232785D01*
X105270000Y-96900739D01*
X108320000Y-96900739D01*
X108320000Y-97627260D01*
X108386724Y-97962706D01*
X108640897Y-98343103D01*
X109021293Y-98597276D01*
X109470000Y-98686529D01*
X109918706Y-98597276D01*
X110299103Y-98343103D01*
X110553276Y-97962707D01*
X110620000Y-97627261D01*
X110620000Y-96900740D01*
X110620000Y-96900739D01*
X110820000Y-96900739D01*
X110820000Y-97627260D01*
X110886724Y-97962706D01*
X111140897Y-98343103D01*
X111521293Y-98597276D01*
X111970000Y-98686529D01*
X112418706Y-98597276D01*
X112799103Y-98343103D01*
X113053276Y-97962707D01*
X113114651Y-97654151D01*
X113257329Y-98144535D01*
X113590933Y-98560607D01*
X114058367Y-98817343D01*
X114106828Y-98822538D01*
X114316000Y-98710127D01*
X114316000Y-97418000D01*
X114624000Y-97418000D01*
X114624000Y-98710127D01*
X114833172Y-98822538D01*
X114881633Y-98817343D01*
X115349067Y-98560607D01*
X115682671Y-98144535D01*
X115831657Y-97632469D01*
X115681425Y-97418000D01*
X114624000Y-97418000D01*
X114316000Y-97418000D01*
X114296000Y-97418000D01*
X114296000Y-97110000D01*
X114316000Y-97110000D01*
X114316000Y-95817873D01*
X114624000Y-95817873D01*
X114624000Y-97110000D01*
X115681425Y-97110000D01*
X115828008Y-96900739D01*
X123520000Y-96900739D01*
X123520000Y-97627260D01*
X123586724Y-97962706D01*
X123840897Y-98343103D01*
X124221293Y-98597276D01*
X124670000Y-98686529D01*
X125118706Y-98597276D01*
X125499103Y-98343103D01*
X125753276Y-97962707D01*
X125820000Y-97627261D01*
X125820000Y-96900740D01*
X125753276Y-96565294D01*
X125499103Y-96184897D01*
X125118707Y-95930724D01*
X124670000Y-95841471D01*
X124221294Y-95930724D01*
X123840898Y-96184897D01*
X123586724Y-96565293D01*
X123520000Y-96900739D01*
X115828008Y-96900739D01*
X115831657Y-96895531D01*
X115682671Y-96383465D01*
X115349067Y-95967393D01*
X114881633Y-95710657D01*
X114833172Y-95705462D01*
X114624000Y-95817873D01*
X114316000Y-95817873D01*
X114106828Y-95705462D01*
X114058367Y-95710657D01*
X113963941Y-95762520D01*
X119285462Y-90441000D01*
X127456294Y-90441000D01*
X127508000Y-90451285D01*
X127559706Y-90441000D01*
X127712845Y-90410539D01*
X127886504Y-90294504D01*
X127915797Y-90250664D01*
X130154764Y-88011698D01*
X130437812Y-88068000D01*
X130674188Y-88068000D01*
X131024217Y-87998375D01*
X131421152Y-87733152D01*
X131686375Y-87336217D01*
X131779509Y-86868000D01*
X131872491Y-86868000D01*
X131965625Y-87336217D01*
X132230848Y-87733152D01*
X132627783Y-87998375D01*
X132977812Y-88068000D01*
X133214188Y-88068000D01*
X133564217Y-87998375D01*
X133961152Y-87733152D01*
X134226375Y-87336217D01*
X134319509Y-86868000D01*
X134412491Y-86868000D01*
X134505625Y-87336217D01*
X134770848Y-87733152D01*
X135167783Y-87998375D01*
X135517812Y-88068000D01*
X135754188Y-88068000D01*
X136104217Y-87998375D01*
X136501152Y-87733152D01*
X136766375Y-87336217D01*
X136859509Y-86868000D01*
X136766375Y-86399783D01*
X136501152Y-86002848D01*
X136104217Y-85737625D01*
X135754188Y-85668000D01*
X135517812Y-85668000D01*
X135167783Y-85737625D01*
X134770848Y-86002848D01*
X134505625Y-86399783D01*
X134412491Y-86868000D01*
X134319509Y-86868000D01*
X134226375Y-86399783D01*
X133961152Y-86002848D01*
X133564217Y-85737625D01*
X133214188Y-85668000D01*
X132977812Y-85668000D01*
X132627783Y-85737625D01*
X132230848Y-86002848D01*
X131965625Y-86399783D01*
X131872491Y-86868000D01*
X131779509Y-86868000D01*
X131686375Y-86399783D01*
X131421152Y-86002848D01*
X131024217Y-85737625D01*
X130674188Y-85668000D01*
X130437812Y-85668000D01*
X130087783Y-85737625D01*
X129690848Y-86002848D01*
X129425625Y-86399783D01*
X129332491Y-86868000D01*
X129412302Y-87269236D01*
X129223836Y-87457702D01*
X129223836Y-86068000D01*
X129192791Y-85911928D01*
X129104384Y-85779616D01*
X128972072Y-85691209D01*
X128816000Y-85660164D01*
X127216000Y-85660164D01*
X127059928Y-85691209D01*
X126927616Y-85779616D01*
X126839209Y-85911928D01*
X126808164Y-86068000D01*
X126808164Y-87668000D01*
X126839209Y-87824072D01*
X126927616Y-87956384D01*
X127059928Y-88044791D01*
X127216000Y-88075836D01*
X128605703Y-88075836D01*
X127290539Y-89391000D01*
X119119706Y-89391000D01*
X119068000Y-89380715D01*
X119016294Y-89391000D01*
X118863155Y-89421461D01*
X118689496Y-89537496D01*
X118660205Y-89581333D01*
X112328715Y-95912824D01*
X111970000Y-95841471D01*
X111521294Y-95930724D01*
X111140898Y-96184897D01*
X110886724Y-96565293D01*
X110820000Y-96900739D01*
X110620000Y-96900739D01*
X110553276Y-96565294D01*
X110299103Y-96184897D01*
X109918707Y-95930724D01*
X109470000Y-95841471D01*
X109021294Y-95930724D01*
X108640898Y-96184897D01*
X108386724Y-96565293D01*
X108320000Y-96900739D01*
X105270000Y-96900739D01*
X105270000Y-90350057D01*
X105414083Y-90446330D01*
X105683900Y-90500000D01*
X106716100Y-90500000D01*
X106985917Y-90446330D01*
X107291887Y-90241887D01*
X107496330Y-89935917D01*
X107568121Y-89575000D01*
X107496330Y-89214083D01*
X107291887Y-88908113D01*
X106985917Y-88703670D01*
X106716100Y-88650000D01*
X105683900Y-88650000D01*
X105414083Y-88703670D01*
X105270000Y-88799943D01*
X105270000Y-87877969D01*
X123413820Y-87877969D01*
X123491643Y-88113229D01*
X124022548Y-88291815D01*
X124581382Y-88253637D01*
X124920357Y-88113229D01*
X124998180Y-87877969D01*
X124206000Y-87085789D01*
X123413820Y-87877969D01*
X105270000Y-87877969D01*
X105270000Y-86684548D01*
X122782185Y-86684548D01*
X122820363Y-87243382D01*
X122960771Y-87582357D01*
X123196031Y-87660180D01*
X123988211Y-86868000D01*
X124423789Y-86868000D01*
X125215969Y-87660180D01*
X125451229Y-87582357D01*
X125629815Y-87051452D01*
X125591637Y-86492618D01*
X125451229Y-86153643D01*
X125215969Y-86075820D01*
X124423789Y-86868000D01*
X123988211Y-86868000D01*
X123196031Y-86075820D01*
X122960771Y-86153643D01*
X122782185Y-86684548D01*
X105270000Y-86684548D01*
X105270000Y-85858031D01*
X123413820Y-85858031D01*
X124206000Y-86650211D01*
X124998180Y-85858031D01*
X124920357Y-85622771D01*
X124389452Y-85444185D01*
X123830618Y-85482363D01*
X123491643Y-85622771D01*
X123413820Y-85858031D01*
X105270000Y-85858031D01*
X105270000Y-83200057D01*
X105414083Y-83296330D01*
X105683900Y-83350000D01*
X106716100Y-83350000D01*
X106985917Y-83296330D01*
X107291887Y-83091887D01*
X107496330Y-82785917D01*
X107568121Y-82425000D01*
X107496330Y-82064083D01*
X107291887Y-81758113D01*
X106985917Y-81553670D01*
X106716100Y-81500000D01*
X105683900Y-81500000D01*
X105414083Y-81553670D01*
X105270000Y-81649943D01*
X105270000Y-78961305D01*
X106500000Y-78961305D01*
X106500000Y-79438695D01*
X106682689Y-79879745D01*
X107020255Y-80217311D01*
X107461305Y-80400000D01*
X107938695Y-80400000D01*
X108379745Y-80217311D01*
X108717311Y-79879745D01*
X108900000Y-79438695D01*
X108900000Y-78961305D01*
X111500000Y-78961305D01*
X111500000Y-79438695D01*
X111682689Y-79879745D01*
X112020255Y-80217311D01*
X112461305Y-80400000D01*
X112938695Y-80400000D01*
X113379745Y-80217311D01*
X113487087Y-80109969D01*
X114907820Y-80109969D01*
X114985643Y-80345229D01*
X115516548Y-80523815D01*
X116075382Y-80485637D01*
X116414357Y-80345229D01*
X116492180Y-80109969D01*
X115700000Y-79317789D01*
X114907820Y-80109969D01*
X113487087Y-80109969D01*
X113717311Y-79879745D01*
X113900000Y-79438695D01*
X113900000Y-78961305D01*
X113881462Y-78916548D01*
X114276185Y-78916548D01*
X114314363Y-79475382D01*
X114454771Y-79814357D01*
X114690031Y-79892180D01*
X115482211Y-79100000D01*
X115917789Y-79100000D01*
X116709969Y-79892180D01*
X116945229Y-79814357D01*
X117123815Y-79283452D01*
X117094976Y-78861305D01*
X119500000Y-78861305D01*
X119500000Y-79338695D01*
X119682689Y-79779745D01*
X120020255Y-80117311D01*
X120461305Y-80300000D01*
X120938695Y-80300000D01*
X121379745Y-80117311D01*
X121717311Y-79779745D01*
X121900000Y-79338695D01*
X121900000Y-78861305D01*
X121717311Y-78420255D01*
X121379745Y-78082689D01*
X120938695Y-77900000D01*
X120461305Y-77900000D01*
X120020255Y-78082689D01*
X119682689Y-78420255D01*
X119500000Y-78861305D01*
X117094976Y-78861305D01*
X117085637Y-78724618D01*
X116945229Y-78385643D01*
X116709969Y-78307820D01*
X115917789Y-79100000D01*
X115482211Y-79100000D01*
X114690031Y-78307820D01*
X114454771Y-78385643D01*
X114276185Y-78916548D01*
X113881462Y-78916548D01*
X113717311Y-78520255D01*
X113379745Y-78182689D01*
X113156049Y-78090031D01*
X114907820Y-78090031D01*
X115700000Y-78882211D01*
X116492180Y-78090031D01*
X116414357Y-77854771D01*
X115883452Y-77676185D01*
X115324618Y-77714363D01*
X114985643Y-77854771D01*
X114907820Y-78090031D01*
X113156049Y-78090031D01*
X112938695Y-78000000D01*
X112461305Y-78000000D01*
X112020255Y-78182689D01*
X111682689Y-78520255D01*
X111500000Y-78961305D01*
X108900000Y-78961305D01*
X108717311Y-78520255D01*
X108379745Y-78182689D01*
X107938695Y-78000000D01*
X107461305Y-78000000D01*
X107020255Y-78182689D01*
X106682689Y-78520255D01*
X106500000Y-78961305D01*
X105270000Y-78961305D01*
X105270000Y-72406000D01*
X109318000Y-72406000D01*
X109318000Y-73070939D01*
X109410563Y-73294405D01*
X109581596Y-73465438D01*
X109805062Y-73558000D01*
X110470000Y-73558000D01*
X110622000Y-73406000D01*
X110622000Y-72254000D01*
X109470000Y-72254000D01*
X109318000Y-72406000D01*
X105270000Y-72406000D01*
X105270000Y-71129061D01*
X109318000Y-71129061D01*
X109318000Y-71794000D01*
X109470000Y-71946000D01*
X110622000Y-71946000D01*
X110622000Y-70794000D01*
X110930000Y-70794000D01*
X110930000Y-71946000D01*
X110950000Y-71946000D01*
X110950000Y-72254000D01*
X110930000Y-72254000D01*
X110930000Y-73406000D01*
X111082000Y-73558000D01*
X111746938Y-73558000D01*
X111970404Y-73465438D01*
X112141437Y-73294405D01*
X112234000Y-73070939D01*
X112234000Y-72730611D01*
X112414801Y-73001199D01*
X112828275Y-73277473D01*
X113192891Y-73350000D01*
X113439109Y-73350000D01*
X113803725Y-73277473D01*
X114217199Y-73001199D01*
X114493473Y-72587725D01*
X114586000Y-72122563D01*
X114678527Y-72587725D01*
X114954801Y-73001199D01*
X115368275Y-73277473D01*
X115732891Y-73350000D01*
X115979109Y-73350000D01*
X116343725Y-73277473D01*
X116757199Y-73001199D01*
X117033473Y-72587725D01*
X117126000Y-72122563D01*
X117218527Y-72587725D01*
X117494801Y-73001199D01*
X117908275Y-73277473D01*
X118272891Y-73350000D01*
X118519109Y-73350000D01*
X118883725Y-73277473D01*
X119297199Y-73001199D01*
X119573473Y-72587725D01*
X119670488Y-72100000D01*
X119573473Y-71612275D01*
X119297199Y-71198801D01*
X118883725Y-70922527D01*
X118519109Y-70850000D01*
X118272891Y-70850000D01*
X117908275Y-70922527D01*
X117494801Y-71198801D01*
X117218527Y-71612275D01*
X117126000Y-72077437D01*
X117033473Y-71612275D01*
X116757199Y-71198801D01*
X116343725Y-70922527D01*
X115979109Y-70850000D01*
X115732891Y-70850000D01*
X115368275Y-70922527D01*
X114954801Y-71198801D01*
X114678527Y-71612275D01*
X114586000Y-72077437D01*
X114493473Y-71612275D01*
X114217199Y-71198801D01*
X113803725Y-70922527D01*
X113439109Y-70850000D01*
X113192891Y-70850000D01*
X112828275Y-70922527D01*
X112414801Y-71198801D01*
X112234000Y-71469389D01*
X112234000Y-71129061D01*
X112141437Y-70905595D01*
X111970404Y-70734562D01*
X111746938Y-70642000D01*
X111082000Y-70642000D01*
X110930000Y-70794000D01*
X110622000Y-70794000D01*
X110470000Y-70642000D01*
X109805062Y-70642000D01*
X109581596Y-70734562D01*
X109410563Y-70905595D01*
X109318000Y-71129061D01*
X105270000Y-71129061D01*
X105270000Y-70400000D01*
X122434443Y-70400000D01*
X122303496Y-70487496D01*
X122303496Y-70487496D01*
G37*
X122303496Y-70487496D02*
X122274205Y-70531333D01*
X121331333Y-71474205D01*
X121287497Y-71503496D01*
X121214813Y-71612275D01*
X121171461Y-71677156D01*
X121130715Y-71882000D01*
X121141001Y-71933711D01*
X121141000Y-72680538D01*
X119416539Y-74405000D01*
X109572371Y-74405000D01*
X109419164Y-74251793D01*
X109125130Y-74130000D01*
X108806870Y-74130000D01*
X108512836Y-74251793D01*
X108287793Y-74476836D01*
X108166000Y-74770870D01*
X108166000Y-75089130D01*
X108287793Y-75383164D01*
X108512836Y-75608207D01*
X108806870Y-75730000D01*
X109125130Y-75730000D01*
X109419164Y-75608207D01*
X109572371Y-75455000D01*
X119582294Y-75455000D01*
X119634000Y-75465285D01*
X119685706Y-75455000D01*
X119838845Y-75424539D01*
X120012504Y-75308504D01*
X120041797Y-75264664D01*
X122000668Y-73305794D01*
X122044504Y-73276504D01*
X122160539Y-73102845D01*
X122167123Y-73069745D01*
X122175288Y-73028697D01*
X122326600Y-73255152D01*
X122723535Y-73520375D01*
X123073564Y-73590000D01*
X123309940Y-73590000D01*
X123659969Y-73520375D01*
X124056904Y-73255152D01*
X124322127Y-72858217D01*
X124415261Y-72390000D01*
X124322127Y-71921783D01*
X124056904Y-71524848D01*
X123856586Y-71391000D01*
X130113696Y-71391000D01*
X129794441Y-71710255D01*
X129611752Y-72151305D01*
X129611752Y-72628695D01*
X129675850Y-72783441D01*
X128806337Y-73652954D01*
X128762497Y-73682247D01*
X128646463Y-73855906D01*
X128646462Y-73855907D01*
X128605716Y-74060751D01*
X128616001Y-74112457D01*
X128616002Y-77984598D01*
X128387042Y-77889769D01*
X128170000Y-78001477D01*
X128170000Y-79094000D01*
X128190000Y-79094000D01*
X128190000Y-79402000D01*
X128170000Y-79402000D01*
X128170000Y-80494523D01*
X128387042Y-80606231D01*
X128714056Y-80470791D01*
X129065841Y-80165304D01*
X133475536Y-84575000D01*
X130275462Y-84575000D01*
X125349698Y-79649237D01*
X125355703Y-79619044D01*
X126657757Y-79619044D01*
X126903139Y-80110577D01*
X127317944Y-80470791D01*
X127644958Y-80606231D01*
X127862000Y-80494523D01*
X127862000Y-79402000D01*
X126768435Y-79402000D01*
X126657757Y-79619044D01*
X125355703Y-79619044D01*
X125429509Y-79248000D01*
X125355704Y-78876956D01*
X126657757Y-78876956D01*
X126768435Y-79094000D01*
X127862000Y-79094000D01*
X127862000Y-78001477D01*
X127644958Y-77889769D01*
X127317944Y-78025209D01*
X126903139Y-78385423D01*
X126657757Y-78876956D01*
X125355704Y-78876956D01*
X125336375Y-78779783D01*
X125071152Y-78382848D01*
X124674217Y-78117625D01*
X124324188Y-78048000D01*
X124087812Y-78048000D01*
X123737783Y-78117625D01*
X123633660Y-78187198D01*
X121704000Y-76257539D01*
X121704000Y-76040870D01*
X121619411Y-75836653D01*
X121966491Y-75836653D01*
X122059625Y-76304870D01*
X122324848Y-76701805D01*
X122721783Y-76967028D01*
X123071812Y-77036653D01*
X123308188Y-77036653D01*
X123658217Y-76967028D01*
X124055152Y-76701805D01*
X124320375Y-76304870D01*
X124413509Y-75836653D01*
X124320375Y-75368436D01*
X124055152Y-74971501D01*
X123658217Y-74706278D01*
X123308188Y-74636653D01*
X123071812Y-74636653D01*
X122721783Y-74706278D01*
X122324848Y-74971501D01*
X122059625Y-75368436D01*
X121966491Y-75836653D01*
X121619411Y-75836653D01*
X121582207Y-75746836D01*
X121357164Y-75521793D01*
X121063130Y-75400000D01*
X120744870Y-75400000D01*
X120450836Y-75521793D01*
X120225793Y-75746836D01*
X120104000Y-76040870D01*
X120104000Y-76359130D01*
X120225793Y-76653164D01*
X120450836Y-76878207D01*
X120744870Y-77000000D01*
X120961539Y-77000000D01*
X123020161Y-79058622D01*
X122982491Y-79248000D01*
X123075625Y-79716217D01*
X123340848Y-80113152D01*
X123737783Y-80378375D01*
X124087812Y-80448000D01*
X124324188Y-80448000D01*
X124607237Y-80391698D01*
X129650205Y-85434667D01*
X129679496Y-85478504D01*
X129821096Y-85573118D01*
X129853155Y-85594539D01*
X130058000Y-85635285D01*
X130109706Y-85625000D01*
X137793629Y-85625000D01*
X137873326Y-85704697D01*
X137707783Y-85737625D01*
X137310848Y-86002848D01*
X137045625Y-86399783D01*
X136952491Y-86868000D01*
X137032302Y-87269236D01*
X132878539Y-91423000D01*
X131287704Y-91423000D01*
X131235999Y-91412715D01*
X131184294Y-91423000D01*
X131031155Y-91453461D01*
X130857496Y-91569496D01*
X130828205Y-91613333D01*
X126835334Y-95606205D01*
X126791497Y-95635496D01*
X126741276Y-95710657D01*
X126675461Y-95809156D01*
X126640548Y-95984677D01*
X126340898Y-96184897D01*
X126086724Y-96565293D01*
X126020000Y-96900739D01*
X126020000Y-97627260D01*
X126086724Y-97962706D01*
X126340897Y-98343103D01*
X126721293Y-98597276D01*
X127170000Y-98686529D01*
X127618706Y-98597276D01*
X127999103Y-98343103D01*
X128253276Y-97962707D01*
X128314651Y-97654151D01*
X128457329Y-98144535D01*
X128790933Y-98560607D01*
X129258367Y-98817343D01*
X129306828Y-98822538D01*
X129516000Y-98710127D01*
X129516000Y-97418000D01*
X129824000Y-97418000D01*
X129824000Y-98710127D01*
X130033172Y-98822538D01*
X130081633Y-98817343D01*
X130549067Y-98560607D01*
X130882671Y-98144535D01*
X131031657Y-97632469D01*
X130881425Y-97418000D01*
X129824000Y-97418000D01*
X129516000Y-97418000D01*
X129496000Y-97418000D01*
X129496000Y-97110000D01*
X129516000Y-97110000D01*
X129516000Y-95817873D01*
X129824000Y-95817873D01*
X129824000Y-97110000D01*
X130881425Y-97110000D01*
X131028008Y-96900739D01*
X138720000Y-96900739D01*
X138720000Y-97627260D01*
X138786724Y-97962706D01*
X139040897Y-98343103D01*
X139421293Y-98597276D01*
X139870000Y-98686529D01*
X140318706Y-98597276D01*
X140699103Y-98343103D01*
X140953276Y-97962707D01*
X141020000Y-97627261D01*
X141020000Y-96900740D01*
X140953276Y-96565294D01*
X140699103Y-96184897D01*
X140318707Y-95930724D01*
X139870000Y-95841471D01*
X139421294Y-95930724D01*
X139040898Y-96184897D01*
X138786724Y-96565293D01*
X138720000Y-96900739D01*
X131028008Y-96900739D01*
X131031657Y-96895531D01*
X130882671Y-96383465D01*
X130549067Y-95967393D01*
X130081633Y-95710657D01*
X130033172Y-95705462D01*
X129824000Y-95817873D01*
X129516000Y-95817873D01*
X129306828Y-95705462D01*
X129258367Y-95710657D01*
X128790933Y-95967393D01*
X128457329Y-96383465D01*
X128314651Y-96873850D01*
X128253276Y-96565294D01*
X127999103Y-96184897D01*
X127844720Y-96081741D01*
X131453462Y-92473000D01*
X133044294Y-92473000D01*
X133096000Y-92483285D01*
X133147706Y-92473000D01*
X133300845Y-92442539D01*
X133474504Y-92326504D01*
X133503797Y-92282664D01*
X137774764Y-88011698D01*
X138057812Y-88068000D01*
X138294188Y-88068000D01*
X138644217Y-87998375D01*
X139041152Y-87733152D01*
X139306375Y-87336217D01*
X139399509Y-86868000D01*
X139492491Y-86868000D01*
X139585625Y-87336217D01*
X139850848Y-87733152D01*
X140247783Y-87998375D01*
X140597812Y-88068000D01*
X140834188Y-88068000D01*
X141117237Y-88011698D01*
X141845001Y-88739463D01*
X141845000Y-95981702D01*
X141540898Y-96184897D01*
X141286724Y-96565293D01*
X141220000Y-96900739D01*
X141220000Y-97627260D01*
X141286724Y-97962706D01*
X141540897Y-98343103D01*
X141921293Y-98597276D01*
X142370000Y-98686529D01*
X142818706Y-98597276D01*
X143199103Y-98343103D01*
X143453276Y-97962707D01*
X143514651Y-97654151D01*
X143657329Y-98144535D01*
X143990933Y-98560607D01*
X144458367Y-98817343D01*
X144506828Y-98822538D01*
X144716000Y-98710127D01*
X144716000Y-97418000D01*
X145024000Y-97418000D01*
X145024000Y-98710127D01*
X145233172Y-98822538D01*
X145281633Y-98817343D01*
X145749067Y-98560607D01*
X146082671Y-98144535D01*
X146231657Y-97632469D01*
X146081425Y-97418000D01*
X145024000Y-97418000D01*
X144716000Y-97418000D01*
X144696000Y-97418000D01*
X144696000Y-97110000D01*
X144716000Y-97110000D01*
X144716000Y-95817873D01*
X145024000Y-95817873D01*
X145024000Y-97110000D01*
X146081425Y-97110000D01*
X146228008Y-96900739D01*
X153920000Y-96900739D01*
X153920000Y-97627260D01*
X153986724Y-97962706D01*
X154240897Y-98343103D01*
X154621293Y-98597276D01*
X155070000Y-98686529D01*
X155518706Y-98597276D01*
X155899103Y-98343103D01*
X156153276Y-97962707D01*
X156220000Y-97627261D01*
X156220000Y-96900740D01*
X156153276Y-96565294D01*
X155899103Y-96184897D01*
X155518707Y-95930724D01*
X155070000Y-95841471D01*
X154621294Y-95930724D01*
X154240898Y-96184897D01*
X153986724Y-96565293D01*
X153920000Y-96900739D01*
X146228008Y-96900739D01*
X146231657Y-96895531D01*
X146082671Y-96383465D01*
X145749067Y-95967393D01*
X145281633Y-95710657D01*
X145233172Y-95705462D01*
X145024000Y-95817873D01*
X144716000Y-95817873D01*
X144506828Y-95705462D01*
X144458367Y-95710657D01*
X143990933Y-95967393D01*
X143657329Y-96383465D01*
X143514651Y-96873850D01*
X143453276Y-96565294D01*
X143199103Y-96184897D01*
X142895000Y-95981701D01*
X142895000Y-88573705D01*
X142905285Y-88521999D01*
X142864539Y-88317155D01*
X142847607Y-88291815D01*
X142748504Y-88143496D01*
X142704667Y-88114205D01*
X141859698Y-87269237D01*
X141939509Y-86868000D01*
X142032491Y-86868000D01*
X142125625Y-87336217D01*
X142390848Y-87733152D01*
X142787783Y-87998375D01*
X143137812Y-88068000D01*
X143374188Y-88068000D01*
X143657237Y-88011698D01*
X146150205Y-90504667D01*
X146179496Y-90548504D01*
X146353155Y-90664539D01*
X146557999Y-90705285D01*
X146609705Y-90695000D01*
X151508539Y-90695000D01*
X156895280Y-96081742D01*
X156740898Y-96184897D01*
X156486724Y-96565293D01*
X156420000Y-96900739D01*
X156420000Y-97627260D01*
X156486724Y-97962706D01*
X156740897Y-98343103D01*
X157121293Y-98597276D01*
X157570000Y-98686529D01*
X158018706Y-98597276D01*
X158399103Y-98343103D01*
X158653276Y-97962707D01*
X158714651Y-97654151D01*
X158857329Y-98144535D01*
X159190933Y-98560607D01*
X159658367Y-98817343D01*
X159706828Y-98822538D01*
X159916000Y-98710127D01*
X159916000Y-97418000D01*
X160224000Y-97418000D01*
X160224000Y-98710127D01*
X160433172Y-98822538D01*
X160481633Y-98817343D01*
X160949067Y-98560607D01*
X161282671Y-98144535D01*
X161431657Y-97632469D01*
X161281425Y-97418000D01*
X160224000Y-97418000D01*
X159916000Y-97418000D01*
X159896000Y-97418000D01*
X159896000Y-97110000D01*
X159916000Y-97110000D01*
X159916000Y-95817873D01*
X160224000Y-95817873D01*
X160224000Y-97110000D01*
X161281425Y-97110000D01*
X161428008Y-96900739D01*
X169120000Y-96900739D01*
X169120000Y-97627260D01*
X169186724Y-97962706D01*
X169440897Y-98343103D01*
X169821293Y-98597276D01*
X170270000Y-98686529D01*
X170718706Y-98597276D01*
X171099103Y-98343103D01*
X171353276Y-97962707D01*
X171420000Y-97627261D01*
X171420000Y-96900740D01*
X171353276Y-96565294D01*
X171099103Y-96184897D01*
X170718707Y-95930724D01*
X170270000Y-95841471D01*
X169821294Y-95930724D01*
X169440898Y-96184897D01*
X169186724Y-96565293D01*
X169120000Y-96900739D01*
X161428008Y-96900739D01*
X161431657Y-96895531D01*
X161282671Y-96383465D01*
X160949067Y-95967393D01*
X160481633Y-95710657D01*
X160433172Y-95705462D01*
X160224000Y-95817873D01*
X159916000Y-95817873D01*
X159706828Y-95705462D01*
X159658367Y-95710657D01*
X159190933Y-95967393D01*
X158857329Y-96383465D01*
X158714651Y-96873850D01*
X158653276Y-96565294D01*
X158399103Y-96184897D01*
X158099452Y-95984676D01*
X158064539Y-95809155D01*
X157948504Y-95635496D01*
X157904667Y-95606205D01*
X152133797Y-89835336D01*
X152104504Y-89791496D01*
X151930845Y-89675461D01*
X151777706Y-89645000D01*
X151726000Y-89634715D01*
X151674294Y-89645000D01*
X146775462Y-89645000D01*
X144399698Y-87269237D01*
X144479509Y-86868000D01*
X144572491Y-86868000D01*
X144665625Y-87336217D01*
X144930848Y-87733152D01*
X145327783Y-87998375D01*
X145677812Y-88068000D01*
X145914188Y-88068000D01*
X146264217Y-87998375D01*
X146661152Y-87733152D01*
X146926375Y-87336217D01*
X147019509Y-86868000D01*
X147112491Y-86868000D01*
X147205625Y-87336217D01*
X147470848Y-87733152D01*
X147867783Y-87998375D01*
X148217812Y-88068000D01*
X148454188Y-88068000D01*
X148804217Y-87998375D01*
X149201152Y-87733152D01*
X149466375Y-87336217D01*
X149559509Y-86868000D01*
X149466375Y-86399783D01*
X149201152Y-86002848D01*
X148804217Y-85737625D01*
X148454188Y-85668000D01*
X148217812Y-85668000D01*
X147867783Y-85737625D01*
X147470848Y-86002848D01*
X147205625Y-86399783D01*
X147112491Y-86868000D01*
X147019509Y-86868000D01*
X146926375Y-86399783D01*
X146661152Y-86002848D01*
X146264217Y-85737625D01*
X145914188Y-85668000D01*
X145677812Y-85668000D01*
X145327783Y-85737625D01*
X144930848Y-86002848D01*
X144665625Y-86399783D01*
X144572491Y-86868000D01*
X144479509Y-86868000D01*
X144386375Y-86399783D01*
X144121152Y-86002848D01*
X143724217Y-85737625D01*
X143374188Y-85668000D01*
X143137812Y-85668000D01*
X142787783Y-85737625D01*
X142390848Y-86002848D01*
X142125625Y-86399783D01*
X142032491Y-86868000D01*
X141939509Y-86868000D01*
X141846375Y-86399783D01*
X141581152Y-86002848D01*
X141184217Y-85737625D01*
X140834188Y-85668000D01*
X140597812Y-85668000D01*
X140247783Y-85737625D01*
X139850848Y-86002848D01*
X139585625Y-86399783D01*
X139492491Y-86868000D01*
X139399509Y-86868000D01*
X139306375Y-86399783D01*
X139041152Y-86002848D01*
X138761671Y-85816105D01*
X138853164Y-85778207D01*
X139078207Y-85553164D01*
X139200000Y-85259130D01*
X139200000Y-84940870D01*
X139163603Y-84853000D01*
X148118539Y-84853000D01*
X149732302Y-86466763D01*
X149652491Y-86868000D01*
X149745625Y-87336217D01*
X150010848Y-87733152D01*
X150407783Y-87998375D01*
X150757812Y-88068000D01*
X150994188Y-88068000D01*
X151344217Y-87998375D01*
X151741152Y-87733152D01*
X152006375Y-87336217D01*
X152099509Y-86868000D01*
X152055056Y-86644520D01*
X154899203Y-89488667D01*
X154928494Y-89532504D01*
X155102153Y-89648539D01*
X155255292Y-89679000D01*
X155306997Y-89689285D01*
X155358702Y-89679000D01*
X164692539Y-89679000D01*
X171668823Y-96655286D01*
X171620000Y-96900739D01*
X171620000Y-97627260D01*
X171686724Y-97962706D01*
X171940897Y-98343103D01*
X172321293Y-98597276D01*
X172770000Y-98686529D01*
X173218706Y-98597276D01*
X173599103Y-98343103D01*
X173853276Y-97962707D01*
X173914651Y-97654151D01*
X174057329Y-98144535D01*
X174390933Y-98560607D01*
X174858367Y-98817343D01*
X174906828Y-98822538D01*
X175116000Y-98710127D01*
X175116000Y-97418000D01*
X175424000Y-97418000D01*
X175424000Y-98710127D01*
X175633172Y-98822538D01*
X175681633Y-98817343D01*
X176149067Y-98560607D01*
X176482671Y-98144535D01*
X176631657Y-97632469D01*
X176481425Y-97418000D01*
X175424000Y-97418000D01*
X175116000Y-97418000D01*
X175096000Y-97418000D01*
X175096000Y-97110000D01*
X175116000Y-97110000D01*
X175116000Y-95817873D01*
X175424000Y-95817873D01*
X175424000Y-97110000D01*
X176481425Y-97110000D01*
X176631657Y-96895531D01*
X176482671Y-96383465D01*
X176149067Y-95967393D01*
X175681633Y-95710657D01*
X175633172Y-95705462D01*
X175424000Y-95817873D01*
X175116000Y-95817873D01*
X174906828Y-95705462D01*
X174858367Y-95710657D01*
X174390933Y-95967393D01*
X174057329Y-96383465D01*
X173914651Y-96873850D01*
X173853276Y-96565294D01*
X173599103Y-96184897D01*
X173218707Y-95930724D01*
X172770000Y-95841471D01*
X172411286Y-95912823D01*
X166526114Y-90027652D01*
X166574658Y-90047760D01*
X167230942Y-90047760D01*
X167837269Y-89796611D01*
X168301331Y-89332549D01*
X168552480Y-88726222D01*
X168552480Y-88069938D01*
X168301331Y-87463611D01*
X167837269Y-86999549D01*
X167230942Y-86748400D01*
X166574658Y-86748400D01*
X165968331Y-86999549D01*
X165504269Y-87463611D01*
X165253120Y-88069938D01*
X165253120Y-88726222D01*
X165267800Y-88761662D01*
X165114845Y-88659461D01*
X164961706Y-88629000D01*
X164910000Y-88618715D01*
X164858294Y-88629000D01*
X155524460Y-88629000D01*
X154937035Y-88041575D01*
X155154217Y-87998375D01*
X155551152Y-87733152D01*
X155816375Y-87336217D01*
X155909509Y-86868000D01*
X156764491Y-86868000D01*
X156857625Y-87336217D01*
X157122848Y-87733152D01*
X157519783Y-87998375D01*
X157869812Y-88068000D01*
X158106188Y-88068000D01*
X158456217Y-87998375D01*
X158853152Y-87733152D01*
X159118375Y-87336217D01*
X159211509Y-86868000D01*
X159118375Y-86399783D01*
X158853152Y-86002848D01*
X158456217Y-85737625D01*
X158106188Y-85668000D01*
X157869812Y-85668000D01*
X157519783Y-85737625D01*
X157122848Y-86002848D01*
X156857625Y-86399783D01*
X156764491Y-86868000D01*
X155909509Y-86868000D01*
X155816375Y-86399783D01*
X155551152Y-86002848D01*
X155154217Y-85737625D01*
X154804188Y-85668000D01*
X154567812Y-85668000D01*
X154217783Y-85737625D01*
X153820848Y-86002848D01*
X153555625Y-86399783D01*
X153512425Y-86616965D01*
X149110795Y-82215336D01*
X149081502Y-82171496D01*
X148907843Y-82055461D01*
X148754704Y-82025000D01*
X148702998Y-82014715D01*
X148651292Y-82025000D01*
X144235462Y-82025000D01*
X141859698Y-79649237D01*
X141939509Y-79248000D01*
X141846375Y-78779783D01*
X141622687Y-78445010D01*
X142349313Y-78445010D01*
X142125625Y-78779783D01*
X142032491Y-79248000D01*
X142125625Y-79716217D01*
X142390848Y-80113152D01*
X142787783Y-80378375D01*
X143137812Y-80448000D01*
X143374188Y-80448000D01*
X143724217Y-80378375D01*
X144121152Y-80113152D01*
X144386375Y-79716217D01*
X144479509Y-79248000D01*
X144386375Y-78779783D01*
X144162687Y-78445010D01*
X144250549Y-78445010D01*
X144652302Y-78846763D01*
X144572491Y-79248000D01*
X144665625Y-79716217D01*
X144930848Y-80113152D01*
X145327783Y-80378375D01*
X145677812Y-80448000D01*
X145914188Y-80448000D01*
X146264217Y-80378375D01*
X146661152Y-80113152D01*
X146926375Y-79716217D01*
X147019509Y-79248000D01*
X147112491Y-79248000D01*
X147205625Y-79716217D01*
X147470848Y-80113152D01*
X147867783Y-80378375D01*
X148217812Y-80448000D01*
X148454188Y-80448000D01*
X148737237Y-80391698D01*
X150098835Y-81753297D01*
X150128126Y-81797134D01*
X150301785Y-81913169D01*
X150454924Y-81943630D01*
X150506629Y-81953915D01*
X150558334Y-81943630D01*
X151332294Y-81943630D01*
X151384000Y-81953915D01*
X151435706Y-81943630D01*
X151588845Y-81913169D01*
X151762504Y-81797134D01*
X151791797Y-81753294D01*
X153653651Y-79891441D01*
X153668689Y-79927745D01*
X154006255Y-80265311D01*
X154447305Y-80448000D01*
X154924695Y-80448000D01*
X155365745Y-80265311D01*
X155703311Y-79927745D01*
X155886000Y-79486695D01*
X155886000Y-79009305D01*
X156788000Y-79009305D01*
X156788000Y-79486695D01*
X156970689Y-79927745D01*
X157308255Y-80265311D01*
X157749305Y-80448000D01*
X158226695Y-80448000D01*
X158667745Y-80265311D01*
X159005311Y-79927745D01*
X159188000Y-79486695D01*
X159188000Y-79009305D01*
X159005311Y-78568255D01*
X158667745Y-78230689D01*
X158226695Y-78048000D01*
X157749305Y-78048000D01*
X157308255Y-78230689D01*
X156970689Y-78568255D01*
X156788000Y-79009305D01*
X155886000Y-79009305D01*
X155703311Y-78568255D01*
X155365745Y-78230689D01*
X154924695Y-78048000D01*
X154447305Y-78048000D01*
X154006255Y-78230689D01*
X153668689Y-78568255D01*
X153604724Y-78722680D01*
X153554629Y-78712715D01*
X153502924Y-78723000D01*
X153349785Y-78753461D01*
X153176126Y-78869496D01*
X153146835Y-78913333D01*
X151166539Y-80893630D01*
X150724092Y-80893630D01*
X149479698Y-79649237D01*
X149559509Y-79248000D01*
X149466375Y-78779783D01*
X149201152Y-78382848D01*
X148804217Y-78117625D01*
X148454188Y-78048000D01*
X148217812Y-78048000D01*
X147867783Y-78117625D01*
X147470848Y-78382848D01*
X147205625Y-78779783D01*
X147112491Y-79248000D01*
X147019509Y-79248000D01*
X146926375Y-78779783D01*
X146661152Y-78382848D01*
X146264217Y-78117625D01*
X145914188Y-78048000D01*
X145677812Y-78048000D01*
X145394763Y-78104302D01*
X145285461Y-77995000D01*
X148880539Y-77995000D01*
X149732302Y-78846763D01*
X149652491Y-79248000D01*
X149745625Y-79716217D01*
X150010848Y-80113152D01*
X150407783Y-80378375D01*
X150757812Y-80448000D01*
X150994188Y-80448000D01*
X151344217Y-80378375D01*
X151741152Y-80113152D01*
X152006375Y-79716217D01*
X152099509Y-79248000D01*
X152006375Y-78779783D01*
X151741152Y-78382848D01*
X151344217Y-78117625D01*
X150994188Y-78048000D01*
X150757812Y-78048000D01*
X150474763Y-78104302D01*
X149505797Y-77135336D01*
X149476504Y-77091496D01*
X149302845Y-76975461D01*
X149149706Y-76945000D01*
X149098000Y-76934715D01*
X149046294Y-76945000D01*
X144011184Y-76945000D01*
X144375152Y-76701805D01*
X144640375Y-76304870D01*
X144733509Y-75836653D01*
X144686030Y-75597958D01*
X149930000Y-75597958D01*
X149930000Y-76075348D01*
X150112689Y-76516398D01*
X150450255Y-76853964D01*
X150891305Y-77036653D01*
X151368695Y-77036653D01*
X151809745Y-76853964D01*
X152147311Y-76516398D01*
X152211409Y-76361653D01*
X157915192Y-76361653D01*
X162626222Y-81072684D01*
X162626221Y-84594795D01*
X162615936Y-84646501D01*
X162633697Y-84735792D01*
X162656682Y-84851345D01*
X162772717Y-85025005D01*
X162816557Y-85054298D01*
X162920828Y-85158569D01*
X162751220Y-85568038D01*
X162751220Y-86224322D01*
X163002369Y-86830649D01*
X163466431Y-87294711D01*
X164072758Y-87545860D01*
X164729042Y-87545860D01*
X165335369Y-87294711D01*
X165799431Y-86830649D01*
X166050580Y-86224322D01*
X166050580Y-85573118D01*
X175248020Y-85573118D01*
X175248020Y-86229402D01*
X175499169Y-86835729D01*
X175963231Y-87299791D01*
X176569558Y-87550940D01*
X177225842Y-87550940D01*
X177832169Y-87299791D01*
X178296231Y-86835729D01*
X178547380Y-86229402D01*
X178547380Y-85573118D01*
X178296231Y-84966791D01*
X177832169Y-84502729D01*
X177225842Y-84251580D01*
X176569558Y-84251580D01*
X175963231Y-84502729D01*
X175499169Y-84966791D01*
X175248020Y-85573118D01*
X166050580Y-85573118D01*
X166050580Y-85568038D01*
X165799431Y-84961711D01*
X165335369Y-84497649D01*
X164729042Y-84246500D01*
X164072758Y-84246500D01*
X163676221Y-84410751D01*
X163676221Y-80906927D01*
X163686506Y-80855221D01*
X163645760Y-80650376D01*
X163593296Y-80571858D01*
X165250580Y-80571858D01*
X165250580Y-81228142D01*
X165501729Y-81834469D01*
X165965791Y-82298531D01*
X166572118Y-82549680D01*
X167228402Y-82549680D01*
X167834729Y-82298531D01*
X168298791Y-81834469D01*
X168549940Y-81228142D01*
X168549940Y-80571858D01*
X168298791Y-79965531D01*
X167834729Y-79501469D01*
X167228402Y-79250320D01*
X166572118Y-79250320D01*
X165965791Y-79501469D01*
X165501729Y-79965531D01*
X165250580Y-80571858D01*
X163593296Y-80571858D01*
X163529725Y-80476717D01*
X163485888Y-80447426D01*
X158614140Y-75575678D01*
X162751220Y-75575678D01*
X162751220Y-76231962D01*
X163002369Y-76838289D01*
X163466431Y-77302351D01*
X164072758Y-77553500D01*
X164729042Y-77553500D01*
X165335369Y-77302351D01*
X165799431Y-76838289D01*
X166050580Y-76231962D01*
X166050580Y-75575678D01*
X166048476Y-75570598D01*
X175248020Y-75570598D01*
X175248020Y-76226882D01*
X175499169Y-76833209D01*
X175963231Y-77297271D01*
X176569558Y-77548420D01*
X177225842Y-77548420D01*
X177832169Y-77297271D01*
X178296231Y-76833209D01*
X178547380Y-76226882D01*
X178547380Y-75570598D01*
X178296231Y-74964271D01*
X177832169Y-74500209D01*
X177225842Y-74249060D01*
X176569558Y-74249060D01*
X175963231Y-74500209D01*
X175499169Y-74964271D01*
X175248020Y-75570598D01*
X166048476Y-75570598D01*
X165799431Y-74969351D01*
X165335369Y-74505289D01*
X164729042Y-74254140D01*
X164072758Y-74254140D01*
X163466431Y-74505289D01*
X163002369Y-74969351D01*
X162751220Y-75575678D01*
X158614140Y-75575678D01*
X158540450Y-75501989D01*
X158511157Y-75458149D01*
X158337498Y-75342114D01*
X158184359Y-75311653D01*
X158132653Y-75301368D01*
X158080947Y-75311653D01*
X152211409Y-75311653D01*
X152147311Y-75156908D01*
X151809745Y-74819342D01*
X151368695Y-74636653D01*
X150891305Y-74636653D01*
X150450255Y-74819342D01*
X150112689Y-75156908D01*
X149930000Y-75597958D01*
X144686030Y-75597958D01*
X144640375Y-75368436D01*
X144375152Y-74971501D01*
X143978217Y-74706278D01*
X143628188Y-74636653D01*
X143391812Y-74636653D01*
X143041783Y-74706278D01*
X142644848Y-74971501D01*
X142379625Y-75368436D01*
X142286491Y-75836653D01*
X142379625Y-76304870D01*
X142644848Y-76701805D01*
X143008816Y-76945000D01*
X142822561Y-76945000D01*
X142107654Y-76230094D01*
X142171752Y-76075348D01*
X142171752Y-75597958D01*
X141989063Y-75156908D01*
X141651497Y-74819342D01*
X141210447Y-74636653D01*
X140733057Y-74636653D01*
X140292007Y-74819342D01*
X139971000Y-75140349D01*
X139971000Y-74133213D01*
X140578311Y-73525902D01*
X140733057Y-73590000D01*
X141210447Y-73590000D01*
X141651497Y-73407311D01*
X141989063Y-73069745D01*
X142171752Y-72628695D01*
X142171752Y-72390000D01*
X142286491Y-72390000D01*
X142379625Y-72858217D01*
X142644848Y-73255152D01*
X143041783Y-73520375D01*
X143391812Y-73590000D01*
X143628188Y-73590000D01*
X143978217Y-73520375D01*
X144375152Y-73255152D01*
X144640375Y-72858217D01*
X144733509Y-72390000D01*
X144686030Y-72151305D01*
X149930000Y-72151305D01*
X149930000Y-72628695D01*
X150112689Y-73069745D01*
X150450255Y-73407311D01*
X150891305Y-73590000D01*
X151368695Y-73590000D01*
X151809745Y-73407311D01*
X152143278Y-73073778D01*
X165253120Y-73073778D01*
X165253120Y-73730062D01*
X165504269Y-74336389D01*
X165968331Y-74800451D01*
X166574658Y-75051600D01*
X167230942Y-75051600D01*
X167837269Y-74800451D01*
X168301331Y-74336389D01*
X168552480Y-73730062D01*
X168552480Y-73073778D01*
X168301331Y-72467451D01*
X167837269Y-72003389D01*
X167230942Y-71752240D01*
X166574658Y-71752240D01*
X165968331Y-72003389D01*
X165504269Y-72467451D01*
X165253120Y-73073778D01*
X152143278Y-73073778D01*
X152147311Y-73069745D01*
X152330000Y-72628695D01*
X152330000Y-72151305D01*
X152147311Y-71710255D01*
X151809745Y-71372689D01*
X151368695Y-71190000D01*
X150891305Y-71190000D01*
X150450255Y-71372689D01*
X150112689Y-71710255D01*
X149930000Y-72151305D01*
X144686030Y-72151305D01*
X144640375Y-71921783D01*
X144375152Y-71524848D01*
X143978217Y-71259625D01*
X143628188Y-71190000D01*
X143391812Y-71190000D01*
X143041783Y-71259625D01*
X142644848Y-71524848D01*
X142379625Y-71921783D01*
X142286491Y-72390000D01*
X142171752Y-72390000D01*
X142171752Y-72151305D01*
X141989063Y-71710255D01*
X141651497Y-71372689D01*
X141210447Y-71190000D01*
X140733057Y-71190000D01*
X140292007Y-71372689D01*
X139954441Y-71710255D01*
X139771752Y-72151305D01*
X139771752Y-72628695D01*
X139835850Y-72783441D01*
X139111334Y-73507957D01*
X139067497Y-73537248D01*
X138984048Y-73662139D01*
X138951461Y-73710908D01*
X138910715Y-73915752D01*
X138921001Y-73967463D01*
X138921000Y-76656294D01*
X138910715Y-76708000D01*
X138921000Y-76759705D01*
X138951461Y-76912844D01*
X139067496Y-77086504D01*
X139111336Y-77115797D01*
X140167084Y-78171546D01*
X139850848Y-78382848D01*
X139585625Y-78779783D01*
X139492491Y-79248000D01*
X139585625Y-79716217D01*
X139850848Y-80113152D01*
X140247783Y-80378375D01*
X140597812Y-80448000D01*
X140834188Y-80448000D01*
X141117237Y-80391698D01*
X143610205Y-82884667D01*
X143639496Y-82928504D01*
X143813155Y-83044539D01*
X144017999Y-83085285D01*
X144069705Y-83075000D01*
X148485537Y-83075000D01*
X151099481Y-85688944D01*
X150994188Y-85668000D01*
X150757812Y-85668000D01*
X150474763Y-85724302D01*
X148743797Y-83993336D01*
X148714504Y-83949496D01*
X148540845Y-83833461D01*
X148387706Y-83803000D01*
X148336000Y-83792715D01*
X148284294Y-83803000D01*
X134188460Y-83803000D01*
X130807034Y-80421575D01*
X131024217Y-80378375D01*
X131421152Y-80113152D01*
X131686375Y-79716217D01*
X131779509Y-79248000D01*
X131686375Y-78779783D01*
X131421152Y-78382848D01*
X131024217Y-78117625D01*
X130674188Y-78048000D01*
X130437812Y-78048000D01*
X130087783Y-78117625D01*
X129690848Y-78382848D01*
X129666001Y-78420034D01*
X129666001Y-76210546D01*
X129792689Y-76516398D01*
X130130255Y-76853964D01*
X130571305Y-77036653D01*
X131048695Y-77036653D01*
X131203441Y-76972555D01*
X131527206Y-77296321D01*
X131556497Y-77340158D01*
X131730156Y-77456193D01*
X131935001Y-77496939D01*
X131986707Y-77486654D01*
X132624193Y-77486654D01*
X133185539Y-78048000D01*
X132977812Y-78048000D01*
X132627783Y-78117625D01*
X132230848Y-78382848D01*
X131965625Y-78779783D01*
X131872491Y-79248000D01*
X131965625Y-79716217D01*
X132230848Y-80113152D01*
X132627783Y-80378375D01*
X132977812Y-80448000D01*
X133214188Y-80448000D01*
X133564217Y-80378375D01*
X133961152Y-80113152D01*
X134028999Y-80011611D01*
X134132496Y-80166505D01*
X134176333Y-80195796D01*
X135849203Y-81868667D01*
X135878494Y-81912504D01*
X136052153Y-82028539D01*
X136205292Y-82059000D01*
X136256997Y-82069285D01*
X136308702Y-82059000D01*
X139601629Y-82059000D01*
X139754836Y-82212207D01*
X140048870Y-82334000D01*
X140367130Y-82334000D01*
X140661164Y-82212207D01*
X140886207Y-81987164D01*
X141008000Y-81693130D01*
X141008000Y-81374870D01*
X140886207Y-81080836D01*
X140661164Y-80855793D01*
X140367130Y-80734000D01*
X140048870Y-80734000D01*
X139754836Y-80855793D01*
X139601629Y-81009000D01*
X136474460Y-81009000D01*
X135887035Y-80421575D01*
X136104217Y-80378375D01*
X136501152Y-80113152D01*
X136766375Y-79716217D01*
X136859509Y-79248000D01*
X136952491Y-79248000D01*
X137045625Y-79716217D01*
X137310848Y-80113152D01*
X137707783Y-80378375D01*
X138057812Y-80448000D01*
X138294188Y-80448000D01*
X138644217Y-80378375D01*
X139041152Y-80113152D01*
X139306375Y-79716217D01*
X139399509Y-79248000D01*
X139306375Y-78779783D01*
X139041152Y-78382848D01*
X138644217Y-78117625D01*
X138294188Y-78048000D01*
X138057812Y-78048000D01*
X137707783Y-78117625D01*
X137310848Y-78382848D01*
X137045625Y-78779783D01*
X136952491Y-79248000D01*
X136859509Y-79248000D01*
X136766375Y-78779783D01*
X136501152Y-78382848D01*
X136104217Y-78117625D01*
X135754188Y-78048000D01*
X135517812Y-78048000D01*
X135167783Y-78117625D01*
X134913094Y-78287802D01*
X134889503Y-78252495D01*
X134845667Y-78223205D01*
X133627728Y-77005267D01*
X133819969Y-76967028D01*
X134216904Y-76701805D01*
X134482127Y-76304870D01*
X134575261Y-75836653D01*
X134482127Y-75368436D01*
X134216904Y-74971501D01*
X133819969Y-74706278D01*
X133469940Y-74636653D01*
X133233564Y-74636653D01*
X132883535Y-74706278D01*
X132486600Y-74971501D01*
X132221377Y-75368436D01*
X132128243Y-75836653D01*
X132221377Y-76304870D01*
X132309432Y-76436654D01*
X132152463Y-76436654D01*
X131945902Y-76230094D01*
X132010000Y-76075348D01*
X132010000Y-75597958D01*
X131827311Y-75156908D01*
X131489745Y-74819342D01*
X131048695Y-74636653D01*
X130571305Y-74636653D01*
X130130255Y-74819342D01*
X129792689Y-75156908D01*
X129666001Y-75462760D01*
X129666001Y-74278212D01*
X130418311Y-73525902D01*
X130573057Y-73590000D01*
X131050447Y-73590000D01*
X131491497Y-73407311D01*
X131829063Y-73069745D01*
X132011752Y-72628695D01*
X132011752Y-72151305D01*
X131829063Y-71710255D01*
X131509808Y-71391000D01*
X131610291Y-71391000D01*
X132208054Y-71988763D01*
X132128243Y-72390000D01*
X132221377Y-72858217D01*
X132486600Y-73255152D01*
X132883535Y-73520375D01*
X133233564Y-73590000D01*
X133469940Y-73590000D01*
X133819969Y-73520375D01*
X134216904Y-73255152D01*
X134482127Y-72858217D01*
X134575261Y-72390000D01*
X134482127Y-71921783D01*
X134216904Y-71524848D01*
X133819969Y-71259625D01*
X133469940Y-71190000D01*
X133233564Y-71190000D01*
X132950515Y-71246302D01*
X132235549Y-70531336D01*
X132206256Y-70487496D01*
X132075309Y-70400000D01*
X179270000Y-70400000D01*
X179270001Y-102923442D01*
X178787877Y-102441318D01*
X177997662Y-102114000D01*
X177142338Y-102114000D01*
X176352123Y-102441318D01*
X175747318Y-103046123D01*
X175420000Y-103836338D01*
X175420000Y-104691662D01*
X175747318Y-105481877D01*
X176352123Y-106086682D01*
X177142338Y-106414000D01*
X177997662Y-106414000D01*
X178787877Y-106086682D01*
X179270001Y-105604558D01*
X179270001Y-109410000D01*
X105270000Y-109410000D01*
X105270000Y-105295215D01*
X105347318Y-105481877D01*
X105952123Y-106086682D01*
X106742338Y-106414000D01*
X107597662Y-106414000D01*
X108387877Y-106086682D01*
X108992682Y-105481877D01*
X109320000Y-104691662D01*
X109320000Y-103836338D01*
X114620000Y-103836338D01*
X114620000Y-104691662D01*
X114947318Y-105481877D01*
X115552123Y-106086682D01*
X116342338Y-106414000D01*
X117197662Y-106414000D01*
X117987877Y-106086682D01*
X118592682Y-105481877D01*
X118920000Y-104691662D01*
X118920000Y-103836338D01*
X120220000Y-103836338D01*
X120220000Y-104691662D01*
X120547318Y-105481877D01*
X121152123Y-106086682D01*
X121942338Y-106414000D01*
X122797662Y-106414000D01*
X123587877Y-106086682D01*
X124192682Y-105481877D01*
X124520000Y-104691662D01*
X124520000Y-103836338D01*
X129820000Y-103836338D01*
X129820000Y-104691662D01*
X130147318Y-105481877D01*
X130752123Y-106086682D01*
X131542338Y-106414000D01*
X132397662Y-106414000D01*
X133187877Y-106086682D01*
X133792682Y-105481877D01*
X134120000Y-104691662D01*
X134120000Y-103836338D01*
X135420000Y-103836338D01*
X135420000Y-104691662D01*
X135747318Y-105481877D01*
X136352123Y-106086682D01*
X137142338Y-106414000D01*
X137997662Y-106414000D01*
X138787877Y-106086682D01*
X139392682Y-105481877D01*
X139720000Y-104691662D01*
X139720000Y-103836338D01*
X145020000Y-103836338D01*
X145020000Y-104691662D01*
X145347318Y-105481877D01*
X145952123Y-106086682D01*
X146742338Y-106414000D01*
X147597662Y-106414000D01*
X148387877Y-106086682D01*
X148992682Y-105481877D01*
X149320000Y-104691662D01*
X149320000Y-103836338D01*
X150620000Y-103836338D01*
X150620000Y-104691662D01*
X150947318Y-105481877D01*
X151552123Y-106086682D01*
X152342338Y-106414000D01*
X153197662Y-106414000D01*
X153987877Y-106086682D01*
X154592682Y-105481877D01*
X154920000Y-104691662D01*
X154920000Y-103836338D01*
X160220000Y-103836338D01*
X160220000Y-104691662D01*
X160547318Y-105481877D01*
X161152123Y-106086682D01*
X161942338Y-106414000D01*
X162797662Y-106414000D01*
X163587877Y-106086682D01*
X164192682Y-105481877D01*
X164520000Y-104691662D01*
X164520000Y-103836338D01*
X165820000Y-103836338D01*
X165820000Y-104691662D01*
X166147318Y-105481877D01*
X166752123Y-106086682D01*
X167542338Y-106414000D01*
X168397662Y-106414000D01*
X169187877Y-106086682D01*
X169792682Y-105481877D01*
X170120000Y-104691662D01*
X170120000Y-103836338D01*
X169792682Y-103046123D01*
X169187877Y-102441318D01*
X168397662Y-102114000D01*
X167542338Y-102114000D01*
X166752123Y-102441318D01*
X166147318Y-103046123D01*
X165820000Y-103836338D01*
X164520000Y-103836338D01*
X164192682Y-103046123D01*
X163587877Y-102441318D01*
X162797662Y-102114000D01*
X161942338Y-102114000D01*
X161152123Y-102441318D01*
X160547318Y-103046123D01*
X160220000Y-103836338D01*
X154920000Y-103836338D01*
X154592682Y-103046123D01*
X153987877Y-102441318D01*
X153197662Y-102114000D01*
X152342338Y-102114000D01*
X151552123Y-102441318D01*
X150947318Y-103046123D01*
X150620000Y-103836338D01*
X149320000Y-103836338D01*
X148992682Y-103046123D01*
X148387877Y-102441318D01*
X147597662Y-102114000D01*
X146742338Y-102114000D01*
X145952123Y-102441318D01*
X145347318Y-103046123D01*
X145020000Y-103836338D01*
X139720000Y-103836338D01*
X139392682Y-103046123D01*
X138787877Y-102441318D01*
X137997662Y-102114000D01*
X137142338Y-102114000D01*
X136352123Y-102441318D01*
X135747318Y-103046123D01*
X135420000Y-103836338D01*
X134120000Y-103836338D01*
X133792682Y-103046123D01*
X133187877Y-102441318D01*
X132397662Y-102114000D01*
X131542338Y-102114000D01*
X130752123Y-102441318D01*
X130147318Y-103046123D01*
X129820000Y-103836338D01*
X124520000Y-103836338D01*
X124192682Y-103046123D01*
X123587877Y-102441318D01*
X122797662Y-102114000D01*
X121942338Y-102114000D01*
X121152123Y-102441318D01*
X120547318Y-103046123D01*
X120220000Y-103836338D01*
X118920000Y-103836338D01*
X118592682Y-103046123D01*
X117987877Y-102441318D01*
X117197662Y-102114000D01*
X116342338Y-102114000D01*
X115552123Y-102441318D01*
X114947318Y-103046123D01*
X114620000Y-103836338D01*
X109320000Y-103836338D01*
X108992682Y-103046123D01*
X108387877Y-102441318D01*
X107597662Y-102114000D01*
X106742338Y-102114000D01*
X105952123Y-102441318D01*
X105347318Y-103046123D01*
X105270000Y-103232785D01*
X105270000Y-96900739D01*
X108320000Y-96900739D01*
X108320000Y-97627260D01*
X108386724Y-97962706D01*
X108640897Y-98343103D01*
X109021293Y-98597276D01*
X109470000Y-98686529D01*
X109918706Y-98597276D01*
X110299103Y-98343103D01*
X110553276Y-97962707D01*
X110620000Y-97627261D01*
X110620000Y-96900740D01*
X110620000Y-96900739D01*
X110820000Y-96900739D01*
X110820000Y-97627260D01*
X110886724Y-97962706D01*
X111140897Y-98343103D01*
X111521293Y-98597276D01*
X111970000Y-98686529D01*
X112418706Y-98597276D01*
X112799103Y-98343103D01*
X113053276Y-97962707D01*
X113114651Y-97654151D01*
X113257329Y-98144535D01*
X113590933Y-98560607D01*
X114058367Y-98817343D01*
X114106828Y-98822538D01*
X114316000Y-98710127D01*
X114316000Y-97418000D01*
X114624000Y-97418000D01*
X114624000Y-98710127D01*
X114833172Y-98822538D01*
X114881633Y-98817343D01*
X115349067Y-98560607D01*
X115682671Y-98144535D01*
X115831657Y-97632469D01*
X115681425Y-97418000D01*
X114624000Y-97418000D01*
X114316000Y-97418000D01*
X114296000Y-97418000D01*
X114296000Y-97110000D01*
X114316000Y-97110000D01*
X114316000Y-95817873D01*
X114624000Y-95817873D01*
X114624000Y-97110000D01*
X115681425Y-97110000D01*
X115828008Y-96900739D01*
X123520000Y-96900739D01*
X123520000Y-97627260D01*
X123586724Y-97962706D01*
X123840897Y-98343103D01*
X124221293Y-98597276D01*
X124670000Y-98686529D01*
X125118706Y-98597276D01*
X125499103Y-98343103D01*
X125753276Y-97962707D01*
X125820000Y-97627261D01*
X125820000Y-96900740D01*
X125753276Y-96565294D01*
X125499103Y-96184897D01*
X125118707Y-95930724D01*
X124670000Y-95841471D01*
X124221294Y-95930724D01*
X123840898Y-96184897D01*
X123586724Y-96565293D01*
X123520000Y-96900739D01*
X115828008Y-96900739D01*
X115831657Y-96895531D01*
X115682671Y-96383465D01*
X115349067Y-95967393D01*
X114881633Y-95710657D01*
X114833172Y-95705462D01*
X114624000Y-95817873D01*
X114316000Y-95817873D01*
X114106828Y-95705462D01*
X114058367Y-95710657D01*
X113963941Y-95762520D01*
X119285462Y-90441000D01*
X127456294Y-90441000D01*
X127508000Y-90451285D01*
X127559706Y-90441000D01*
X127712845Y-90410539D01*
X127886504Y-90294504D01*
X127915797Y-90250664D01*
X130154764Y-88011698D01*
X130437812Y-88068000D01*
X130674188Y-88068000D01*
X131024217Y-87998375D01*
X131421152Y-87733152D01*
X131686375Y-87336217D01*
X131779509Y-86868000D01*
X131872491Y-86868000D01*
X131965625Y-87336217D01*
X132230848Y-87733152D01*
X132627783Y-87998375D01*
X132977812Y-88068000D01*
X133214188Y-88068000D01*
X133564217Y-87998375D01*
X133961152Y-87733152D01*
X134226375Y-87336217D01*
X134319509Y-86868000D01*
X134412491Y-86868000D01*
X134505625Y-87336217D01*
X134770848Y-87733152D01*
X135167783Y-87998375D01*
X135517812Y-88068000D01*
X135754188Y-88068000D01*
X136104217Y-87998375D01*
X136501152Y-87733152D01*
X136766375Y-87336217D01*
X136859509Y-86868000D01*
X136766375Y-86399783D01*
X136501152Y-86002848D01*
X136104217Y-85737625D01*
X135754188Y-85668000D01*
X135517812Y-85668000D01*
X135167783Y-85737625D01*
X134770848Y-86002848D01*
X134505625Y-86399783D01*
X134412491Y-86868000D01*
X134319509Y-86868000D01*
X134226375Y-86399783D01*
X133961152Y-86002848D01*
X133564217Y-85737625D01*
X133214188Y-85668000D01*
X132977812Y-85668000D01*
X132627783Y-85737625D01*
X132230848Y-86002848D01*
X131965625Y-86399783D01*
X131872491Y-86868000D01*
X131779509Y-86868000D01*
X131686375Y-86399783D01*
X131421152Y-86002848D01*
X131024217Y-85737625D01*
X130674188Y-85668000D01*
X130437812Y-85668000D01*
X130087783Y-85737625D01*
X129690848Y-86002848D01*
X129425625Y-86399783D01*
X129332491Y-86868000D01*
X129412302Y-87269236D01*
X129223836Y-87457702D01*
X129223836Y-86068000D01*
X129192791Y-85911928D01*
X129104384Y-85779616D01*
X128972072Y-85691209D01*
X128816000Y-85660164D01*
X127216000Y-85660164D01*
X127059928Y-85691209D01*
X126927616Y-85779616D01*
X126839209Y-85911928D01*
X126808164Y-86068000D01*
X126808164Y-87668000D01*
X126839209Y-87824072D01*
X126927616Y-87956384D01*
X127059928Y-88044791D01*
X127216000Y-88075836D01*
X128605703Y-88075836D01*
X127290539Y-89391000D01*
X119119706Y-89391000D01*
X119068000Y-89380715D01*
X119016294Y-89391000D01*
X118863155Y-89421461D01*
X118689496Y-89537496D01*
X118660205Y-89581333D01*
X112328715Y-95912824D01*
X111970000Y-95841471D01*
X111521294Y-95930724D01*
X111140898Y-96184897D01*
X110886724Y-96565293D01*
X110820000Y-96900739D01*
X110620000Y-96900739D01*
X110553276Y-96565294D01*
X110299103Y-96184897D01*
X109918707Y-95930724D01*
X109470000Y-95841471D01*
X109021294Y-95930724D01*
X108640898Y-96184897D01*
X108386724Y-96565293D01*
X108320000Y-96900739D01*
X105270000Y-96900739D01*
X105270000Y-90350057D01*
X105414083Y-90446330D01*
X105683900Y-90500000D01*
X106716100Y-90500000D01*
X106985917Y-90446330D01*
X107291887Y-90241887D01*
X107496330Y-89935917D01*
X107568121Y-89575000D01*
X107496330Y-89214083D01*
X107291887Y-88908113D01*
X106985917Y-88703670D01*
X106716100Y-88650000D01*
X105683900Y-88650000D01*
X105414083Y-88703670D01*
X105270000Y-88799943D01*
X105270000Y-87877969D01*
X123413820Y-87877969D01*
X123491643Y-88113229D01*
X124022548Y-88291815D01*
X124581382Y-88253637D01*
X124920357Y-88113229D01*
X124998180Y-87877969D01*
X124206000Y-87085789D01*
X123413820Y-87877969D01*
X105270000Y-87877969D01*
X105270000Y-86684548D01*
X122782185Y-86684548D01*
X122820363Y-87243382D01*
X122960771Y-87582357D01*
X123196031Y-87660180D01*
X123988211Y-86868000D01*
X124423789Y-86868000D01*
X125215969Y-87660180D01*
X125451229Y-87582357D01*
X125629815Y-87051452D01*
X125591637Y-86492618D01*
X125451229Y-86153643D01*
X125215969Y-86075820D01*
X124423789Y-86868000D01*
X123988211Y-86868000D01*
X123196031Y-86075820D01*
X122960771Y-86153643D01*
X122782185Y-86684548D01*
X105270000Y-86684548D01*
X105270000Y-85858031D01*
X123413820Y-85858031D01*
X124206000Y-86650211D01*
X124998180Y-85858031D01*
X124920357Y-85622771D01*
X124389452Y-85444185D01*
X123830618Y-85482363D01*
X123491643Y-85622771D01*
X123413820Y-85858031D01*
X105270000Y-85858031D01*
X105270000Y-83200057D01*
X105414083Y-83296330D01*
X105683900Y-83350000D01*
X106716100Y-83350000D01*
X106985917Y-83296330D01*
X107291887Y-83091887D01*
X107496330Y-82785917D01*
X107568121Y-82425000D01*
X107496330Y-82064083D01*
X107291887Y-81758113D01*
X106985917Y-81553670D01*
X106716100Y-81500000D01*
X105683900Y-81500000D01*
X105414083Y-81553670D01*
X105270000Y-81649943D01*
X105270000Y-78961305D01*
X106500000Y-78961305D01*
X106500000Y-79438695D01*
X106682689Y-79879745D01*
X107020255Y-80217311D01*
X107461305Y-80400000D01*
X107938695Y-80400000D01*
X108379745Y-80217311D01*
X108717311Y-79879745D01*
X108900000Y-79438695D01*
X108900000Y-78961305D01*
X111500000Y-78961305D01*
X111500000Y-79438695D01*
X111682689Y-79879745D01*
X112020255Y-80217311D01*
X112461305Y-80400000D01*
X112938695Y-80400000D01*
X113379745Y-80217311D01*
X113487087Y-80109969D01*
X114907820Y-80109969D01*
X114985643Y-80345229D01*
X115516548Y-80523815D01*
X116075382Y-80485637D01*
X116414357Y-80345229D01*
X116492180Y-80109969D01*
X115700000Y-79317789D01*
X114907820Y-80109969D01*
X113487087Y-80109969D01*
X113717311Y-79879745D01*
X113900000Y-79438695D01*
X113900000Y-78961305D01*
X113881462Y-78916548D01*
X114276185Y-78916548D01*
X114314363Y-79475382D01*
X114454771Y-79814357D01*
X114690031Y-79892180D01*
X115482211Y-79100000D01*
X115917789Y-79100000D01*
X116709969Y-79892180D01*
X116945229Y-79814357D01*
X117123815Y-79283452D01*
X117094976Y-78861305D01*
X119500000Y-78861305D01*
X119500000Y-79338695D01*
X119682689Y-79779745D01*
X120020255Y-80117311D01*
X120461305Y-80300000D01*
X120938695Y-80300000D01*
X121379745Y-80117311D01*
X121717311Y-79779745D01*
X121900000Y-79338695D01*
X121900000Y-78861305D01*
X121717311Y-78420255D01*
X121379745Y-78082689D01*
X120938695Y-77900000D01*
X120461305Y-77900000D01*
X120020255Y-78082689D01*
X119682689Y-78420255D01*
X119500000Y-78861305D01*
X117094976Y-78861305D01*
X117085637Y-78724618D01*
X116945229Y-78385643D01*
X116709969Y-78307820D01*
X115917789Y-79100000D01*
X115482211Y-79100000D01*
X114690031Y-78307820D01*
X114454771Y-78385643D01*
X114276185Y-78916548D01*
X113881462Y-78916548D01*
X113717311Y-78520255D01*
X113379745Y-78182689D01*
X113156049Y-78090031D01*
X114907820Y-78090031D01*
X115700000Y-78882211D01*
X116492180Y-78090031D01*
X116414357Y-77854771D01*
X115883452Y-77676185D01*
X115324618Y-77714363D01*
X114985643Y-77854771D01*
X114907820Y-78090031D01*
X113156049Y-78090031D01*
X112938695Y-78000000D01*
X112461305Y-78000000D01*
X112020255Y-78182689D01*
X111682689Y-78520255D01*
X111500000Y-78961305D01*
X108900000Y-78961305D01*
X108717311Y-78520255D01*
X108379745Y-78182689D01*
X107938695Y-78000000D01*
X107461305Y-78000000D01*
X107020255Y-78182689D01*
X106682689Y-78520255D01*
X106500000Y-78961305D01*
X105270000Y-78961305D01*
X105270000Y-72406000D01*
X109318000Y-72406000D01*
X109318000Y-73070939D01*
X109410563Y-73294405D01*
X109581596Y-73465438D01*
X109805062Y-73558000D01*
X110470000Y-73558000D01*
X110622000Y-73406000D01*
X110622000Y-72254000D01*
X109470000Y-72254000D01*
X109318000Y-72406000D01*
X105270000Y-72406000D01*
X105270000Y-71129061D01*
X109318000Y-71129061D01*
X109318000Y-71794000D01*
X109470000Y-71946000D01*
X110622000Y-71946000D01*
X110622000Y-70794000D01*
X110930000Y-70794000D01*
X110930000Y-71946000D01*
X110950000Y-71946000D01*
X110950000Y-72254000D01*
X110930000Y-72254000D01*
X110930000Y-73406000D01*
X111082000Y-73558000D01*
X111746938Y-73558000D01*
X111970404Y-73465438D01*
X112141437Y-73294405D01*
X112234000Y-73070939D01*
X112234000Y-72730611D01*
X112414801Y-73001199D01*
X112828275Y-73277473D01*
X113192891Y-73350000D01*
X113439109Y-73350000D01*
X113803725Y-73277473D01*
X114217199Y-73001199D01*
X114493473Y-72587725D01*
X114586000Y-72122563D01*
X114678527Y-72587725D01*
X114954801Y-73001199D01*
X115368275Y-73277473D01*
X115732891Y-73350000D01*
X115979109Y-73350000D01*
X116343725Y-73277473D01*
X116757199Y-73001199D01*
X117033473Y-72587725D01*
X117126000Y-72122563D01*
X117218527Y-72587725D01*
X117494801Y-73001199D01*
X117908275Y-73277473D01*
X118272891Y-73350000D01*
X118519109Y-73350000D01*
X118883725Y-73277473D01*
X119297199Y-73001199D01*
X119573473Y-72587725D01*
X119670488Y-72100000D01*
X119573473Y-71612275D01*
X119297199Y-71198801D01*
X118883725Y-70922527D01*
X118519109Y-70850000D01*
X118272891Y-70850000D01*
X117908275Y-70922527D01*
X117494801Y-71198801D01*
X117218527Y-71612275D01*
X117126000Y-72077437D01*
X117033473Y-71612275D01*
X116757199Y-71198801D01*
X116343725Y-70922527D01*
X115979109Y-70850000D01*
X115732891Y-70850000D01*
X115368275Y-70922527D01*
X114954801Y-71198801D01*
X114678527Y-71612275D01*
X114586000Y-72077437D01*
X114493473Y-71612275D01*
X114217199Y-71198801D01*
X113803725Y-70922527D01*
X113439109Y-70850000D01*
X113192891Y-70850000D01*
X112828275Y-70922527D01*
X112414801Y-71198801D01*
X112234000Y-71469389D01*
X112234000Y-71129061D01*
X112141437Y-70905595D01*
X111970404Y-70734562D01*
X111746938Y-70642000D01*
X111082000Y-70642000D01*
X110930000Y-70794000D01*
X110622000Y-70794000D01*
X110470000Y-70642000D01*
X109805062Y-70642000D01*
X109581596Y-70734562D01*
X109410563Y-70905595D01*
X109318000Y-71129061D01*
X105270000Y-71129061D01*
X105270000Y-70400000D01*
X122434443Y-70400000D01*
X122303496Y-70487496D01*
G04 #@! TD*
M02*
