M48
INCH,TZ
T1C0.0157
T2C0.0177
T3C0.0315
T4C0.0394
T5C0.0433
T6C0.0550
T7C0.0866
%
G90
G05
T1
X14724Y-52008
X17047Y-52992
X22441Y-51969
X25157Y-52323
X28142Y-52488
X29045Y-52805
X30039Y-59252
X30394Y-58898
X31496Y-51299
X32402Y-51063
X34843Y-58425
X35039Y-52126
X35827Y-51614
X42756Y-59370
T3
X36992Y-50425
X36992Y-53425
X20341Y-49252
X22310Y-49252
X23871Y-49252
X25840Y-49252
X25173Y-50425
X25173Y-53425
X20998Y-50425
X20998Y-53425
X27402Y-49252
X29370Y-49252
X16811Y-49252
X18780Y-49252
X23781Y-50425
X23781Y-53425
X42559Y-50425
X42559Y-53425
X14606Y-51024
X14606Y-52992
X19606Y-50425
X19606Y-53425
X22390Y-50425
X22390Y-53425
X39776Y-50425
X39776Y-53425
X41167Y-50425
X41167Y-53425
X38384Y-50425
X38384Y-53425
X26585Y-50406
X26585Y-53406
X27585Y-50406
X27585Y-53406
X28585Y-50406
X28585Y-53406
X29585Y-50406
X29585Y-53406
X30585Y-50406
X30585Y-53406
X31585Y-50406
X31585Y-53406
X32585Y-50406
X32585Y-53406
X33585Y-50406
X33585Y-53406
X34585Y-50406
X34585Y-53406
X35585Y-50406
X35585Y-53406
T4
X19150Y-57953
X20134Y-57953
X21118Y-57953
X12559Y-49016
X13559Y-49016
X14559Y-49016
X15559Y-49016
X24598Y-57953
X25583Y-57953
X26567Y-57953
X40945Y-57953
X41929Y-57953
X42913Y-57953
X13701Y-57953
X14685Y-57953
X15669Y-57953
X35496Y-57953
X36480Y-57953
X37465Y-57953
X30047Y-57953
X31031Y-57953
X32016Y-57953
T5
X45157Y-59449
X45157Y-62008
X46929Y-59449
X46929Y-62008
X48287Y-59449
X48287Y-62008
X50059Y-59449
X50059Y-62008
T6
X45197Y-49883
X45197Y-53817
X46181Y-51850
X46182Y-48898
X46182Y-54802
X50117Y-49881
X50117Y-53819
T7
X18244Y-60709
X22024Y-60709
X23693Y-60709
X27472Y-60709
X40039Y-60709
X43819Y-60709
X12795Y-60709
X16575Y-60709
X34591Y-60709
X38370Y-60709
X29142Y-60709
X32921Y-60709
T2
X12244Y-50522G85X12559Y-50522
G05
X12559Y-53337G85X12244Y-53337
G05
T0
M30
