G04 #@! TF.GenerationSoftware,KiCad,Pcbnew,(5.0.2)-1*
G04 #@! TF.CreationDate,2019-03-30T18:10:54+01:00*
G04 #@! TF.ProjectId,CCdrum,43436472-756d-42e6-9b69-6361645f7063,rev?*
G04 #@! TF.SameCoordinates,Original*
G04 #@! TF.FileFunction,Copper,L1,Top*
G04 #@! TF.FilePolarity,Positive*
%FSLAX46Y46*%
G04 Gerber Fmt 4.6, Leading zero omitted, Abs format (unit mm)*
G04 Created by KiCad (PCBNEW (5.0.2)-1) date 30/03/2019 18:10:54*
%MOMM*%
%LPD*%
G01*
G04 APERTURE LIST*
G04 #@! TA.AperFunction,ComponentPad*
%ADD10C,2.000000*%
G04 #@! TD*
G04 #@! TA.AperFunction,ComponentPad*
%ADD11C,1.600000*%
G04 #@! TD*
G04 #@! TA.AperFunction,ComponentPad*
%ADD12R,1.700000X1.700000*%
G04 #@! TD*
G04 #@! TA.AperFunction,ComponentPad*
%ADD13O,1.700000X1.700000*%
G04 #@! TD*
G04 #@! TA.AperFunction,SMDPad,CuDef*
%ADD14R,1.900000X1.750000*%
G04 #@! TD*
G04 #@! TA.AperFunction,SMDPad,CuDef*
%ADD15R,1.400000X0.400000*%
G04 #@! TD*
G04 #@! TA.AperFunction,ComponentPad*
%ADD16O,1.900000X1.050000*%
G04 #@! TD*
G04 #@! TA.AperFunction,SMDPad,CuDef*
%ADD17R,1.450000X1.150000*%
G04 #@! TD*
G04 #@! TA.AperFunction,Conductor*
%ADD18C,0.100000*%
G04 #@! TD*
G04 #@! TA.AperFunction,SMDPad,CuDef*
%ADD19C,1.150000*%
G04 #@! TD*
G04 #@! TA.AperFunction,ComponentPad*
%ADD20R,1.600000X1.600000*%
G04 #@! TD*
G04 #@! TA.AperFunction,ComponentPad*
%ADD21O,1.600000X1.600000*%
G04 #@! TD*
G04 #@! TA.AperFunction,SMDPad,CuDef*
%ADD22R,2.000000X3.800000*%
G04 #@! TD*
G04 #@! TA.AperFunction,SMDPad,CuDef*
%ADD23R,2.000000X1.500000*%
G04 #@! TD*
G04 #@! TA.AperFunction,SMDPad,CuDef*
%ADD24R,0.650000X1.560000*%
G04 #@! TD*
G04 #@! TA.AperFunction,ComponentPad*
%ADD25C,2.499360*%
G04 #@! TD*
G04 #@! TA.AperFunction,ComponentPad*
%ADD26C,3.500000*%
G04 #@! TD*
G04 #@! TA.AperFunction,ComponentPad*
%ADD27O,1.500000X2.000000*%
G04 #@! TD*
G04 #@! TA.AperFunction,ViaPad*
%ADD28C,0.800000*%
G04 #@! TD*
G04 #@! TA.AperFunction,Conductor*
%ADD29C,0.400000*%
G04 #@! TD*
G04 #@! TA.AperFunction,Conductor*
%ADD30C,0.250000*%
G04 #@! TD*
G04 #@! TA.AperFunction,Conductor*
%ADD31C,0.200000*%
G04 #@! TD*
G04 APERTURE END LIST*
D10*
G04 #@! TO.P,SW2,1*
G04 #@! TO.N,GND*
X127150000Y-157500000D03*
G04 #@! TO.P,SW2,2*
G04 #@! TO.N,PUSH_L2*
X122650000Y-157500000D03*
G04 #@! TO.P,SW2,1*
G04 #@! TO.N,GND*
X127150000Y-151000000D03*
G04 #@! TO.P,SW2,2*
G04 #@! TO.N,PUSH_L2*
X122650000Y-151000000D03*
G04 #@! TD*
G04 #@! TO.P,SW1,2*
G04 #@! TO.N,PUSH_L1*
X114700000Y-151000000D03*
G04 #@! TO.P,SW1,1*
G04 #@! TO.N,GND*
X119200000Y-151000000D03*
G04 #@! TO.P,SW1,2*
G04 #@! TO.N,PUSH_L1*
X114700000Y-157500000D03*
G04 #@! TO.P,SW1,1*
G04 #@! TO.N,GND*
X119200000Y-157500000D03*
G04 #@! TD*
D11*
G04 #@! TO.P,C1,2*
G04 #@! TO.N,GND*
X37200000Y-132500000D03*
G04 #@! TO.P,C1,1*
G04 #@! TO.N,+5V*
X37200000Y-137500000D03*
G04 #@! TD*
G04 #@! TO.P,C2,1*
G04 #@! TO.N,+3V3*
X47700000Y-127800000D03*
G04 #@! TO.P,C2,2*
G04 #@! TO.N,GND*
X42700000Y-127800000D03*
G04 #@! TD*
D12*
G04 #@! TO.P,J2,1*
G04 #@! TO.N,+3V3*
X32000000Y-126800000D03*
D13*
G04 #@! TO.P,J2,2*
G04 #@! TO.N,TEST*
X34540000Y-126800000D03*
G04 #@! TO.P,J2,3*
G04 #@! TO.N,RST*
X37080000Y-126800000D03*
G04 #@! TO.P,J2,4*
G04 #@! TO.N,GND*
X39620000Y-126800000D03*
G04 #@! TD*
D14*
G04 #@! TO.P,J1,6*
G04 #@! TO.N,GND*
X31600000Y-135925000D03*
D15*
G04 #@! TO.P,J1,2*
G04 #@! TO.N,Net-(J1-Pad2)*
X34250000Y-134150000D03*
G04 #@! TO.P,J1,1*
G04 #@! TO.N,+5V*
X34250000Y-133500000D03*
G04 #@! TO.P,J1,5*
G04 #@! TO.N,GND*
X34250000Y-136100000D03*
G04 #@! TO.P,J1,4*
G04 #@! TO.N,Net-(J1-Pad4)*
X34250000Y-135450000D03*
G04 #@! TO.P,J1,3*
G04 #@! TO.N,Net-(J1-Pad3)*
X34250000Y-134800000D03*
D14*
G04 #@! TO.P,J1,6*
G04 #@! TO.N,GND*
X31600000Y-133675000D03*
D16*
X31600000Y-131225000D03*
X31600000Y-138375000D03*
D17*
X33830000Y-137120000D03*
X33830000Y-132480000D03*
G04 #@! TD*
D18*
G04 #@! TO.N,Net-(D4-Pad2)*
G04 #@! TO.C,D4*
G36*
X80194505Y-141501204D02*
X80218773Y-141504804D01*
X80242572Y-141510765D01*
X80265671Y-141519030D01*
X80287850Y-141529520D01*
X80308893Y-141542132D01*
X80328599Y-141556747D01*
X80346777Y-141573223D01*
X80363253Y-141591401D01*
X80377868Y-141611107D01*
X80390480Y-141632150D01*
X80400970Y-141654329D01*
X80409235Y-141677428D01*
X80415196Y-141701227D01*
X80418796Y-141725495D01*
X80420000Y-141749999D01*
X80420000Y-142650001D01*
X80418796Y-142674505D01*
X80415196Y-142698773D01*
X80409235Y-142722572D01*
X80400970Y-142745671D01*
X80390480Y-142767850D01*
X80377868Y-142788893D01*
X80363253Y-142808599D01*
X80346777Y-142826777D01*
X80328599Y-142843253D01*
X80308893Y-142857868D01*
X80287850Y-142870480D01*
X80265671Y-142880970D01*
X80242572Y-142889235D01*
X80218773Y-142895196D01*
X80194505Y-142898796D01*
X80170001Y-142900000D01*
X79519999Y-142900000D01*
X79495495Y-142898796D01*
X79471227Y-142895196D01*
X79447428Y-142889235D01*
X79424329Y-142880970D01*
X79402150Y-142870480D01*
X79381107Y-142857868D01*
X79361401Y-142843253D01*
X79343223Y-142826777D01*
X79326747Y-142808599D01*
X79312132Y-142788893D01*
X79299520Y-142767850D01*
X79289030Y-142745671D01*
X79280765Y-142722572D01*
X79274804Y-142698773D01*
X79271204Y-142674505D01*
X79270000Y-142650001D01*
X79270000Y-141749999D01*
X79271204Y-141725495D01*
X79274804Y-141701227D01*
X79280765Y-141677428D01*
X79289030Y-141654329D01*
X79299520Y-141632150D01*
X79312132Y-141611107D01*
X79326747Y-141591401D01*
X79343223Y-141573223D01*
X79361401Y-141556747D01*
X79381107Y-141542132D01*
X79402150Y-141529520D01*
X79424329Y-141519030D01*
X79447428Y-141510765D01*
X79471227Y-141504804D01*
X79495495Y-141501204D01*
X79519999Y-141500000D01*
X80170001Y-141500000D01*
X80194505Y-141501204D01*
X80194505Y-141501204D01*
G37*
D19*
G04 #@! TD*
G04 #@! TO.P,D4,2*
G04 #@! TO.N,Net-(D4-Pad2)*
X79845000Y-142200000D03*
D18*
G04 #@! TO.N,GND*
G04 #@! TO.C,D4*
G36*
X78144505Y-141501204D02*
X78168773Y-141504804D01*
X78192572Y-141510765D01*
X78215671Y-141519030D01*
X78237850Y-141529520D01*
X78258893Y-141542132D01*
X78278599Y-141556747D01*
X78296777Y-141573223D01*
X78313253Y-141591401D01*
X78327868Y-141611107D01*
X78340480Y-141632150D01*
X78350970Y-141654329D01*
X78359235Y-141677428D01*
X78365196Y-141701227D01*
X78368796Y-141725495D01*
X78370000Y-141749999D01*
X78370000Y-142650001D01*
X78368796Y-142674505D01*
X78365196Y-142698773D01*
X78359235Y-142722572D01*
X78350970Y-142745671D01*
X78340480Y-142767850D01*
X78327868Y-142788893D01*
X78313253Y-142808599D01*
X78296777Y-142826777D01*
X78278599Y-142843253D01*
X78258893Y-142857868D01*
X78237850Y-142870480D01*
X78215671Y-142880970D01*
X78192572Y-142889235D01*
X78168773Y-142895196D01*
X78144505Y-142898796D01*
X78120001Y-142900000D01*
X77469999Y-142900000D01*
X77445495Y-142898796D01*
X77421227Y-142895196D01*
X77397428Y-142889235D01*
X77374329Y-142880970D01*
X77352150Y-142870480D01*
X77331107Y-142857868D01*
X77311401Y-142843253D01*
X77293223Y-142826777D01*
X77276747Y-142808599D01*
X77262132Y-142788893D01*
X77249520Y-142767850D01*
X77239030Y-142745671D01*
X77230765Y-142722572D01*
X77224804Y-142698773D01*
X77221204Y-142674505D01*
X77220000Y-142650001D01*
X77220000Y-141749999D01*
X77221204Y-141725495D01*
X77224804Y-141701227D01*
X77230765Y-141677428D01*
X77239030Y-141654329D01*
X77249520Y-141632150D01*
X77262132Y-141611107D01*
X77276747Y-141591401D01*
X77293223Y-141573223D01*
X77311401Y-141556747D01*
X77331107Y-141542132D01*
X77352150Y-141529520D01*
X77374329Y-141519030D01*
X77397428Y-141510765D01*
X77421227Y-141504804D01*
X77445495Y-141501204D01*
X77469999Y-141500000D01*
X78120001Y-141500000D01*
X78144505Y-141501204D01*
X78144505Y-141501204D01*
G37*
D19*
G04 #@! TD*
G04 #@! TO.P,D4,1*
G04 #@! TO.N,GND*
X77795000Y-142200000D03*
D18*
G04 #@! TO.N,GND*
G04 #@! TO.C,D1*
G36*
X36624505Y-141501204D02*
X36648773Y-141504804D01*
X36672572Y-141510765D01*
X36695671Y-141519030D01*
X36717850Y-141529520D01*
X36738893Y-141542132D01*
X36758599Y-141556747D01*
X36776777Y-141573223D01*
X36793253Y-141591401D01*
X36807868Y-141611107D01*
X36820480Y-141632150D01*
X36830970Y-141654329D01*
X36839235Y-141677428D01*
X36845196Y-141701227D01*
X36848796Y-141725495D01*
X36850000Y-141749999D01*
X36850000Y-142650001D01*
X36848796Y-142674505D01*
X36845196Y-142698773D01*
X36839235Y-142722572D01*
X36830970Y-142745671D01*
X36820480Y-142767850D01*
X36807868Y-142788893D01*
X36793253Y-142808599D01*
X36776777Y-142826777D01*
X36758599Y-142843253D01*
X36738893Y-142857868D01*
X36717850Y-142870480D01*
X36695671Y-142880970D01*
X36672572Y-142889235D01*
X36648773Y-142895196D01*
X36624505Y-142898796D01*
X36600001Y-142900000D01*
X35949999Y-142900000D01*
X35925495Y-142898796D01*
X35901227Y-142895196D01*
X35877428Y-142889235D01*
X35854329Y-142880970D01*
X35832150Y-142870480D01*
X35811107Y-142857868D01*
X35791401Y-142843253D01*
X35773223Y-142826777D01*
X35756747Y-142808599D01*
X35742132Y-142788893D01*
X35729520Y-142767850D01*
X35719030Y-142745671D01*
X35710765Y-142722572D01*
X35704804Y-142698773D01*
X35701204Y-142674505D01*
X35700000Y-142650001D01*
X35700000Y-141749999D01*
X35701204Y-141725495D01*
X35704804Y-141701227D01*
X35710765Y-141677428D01*
X35719030Y-141654329D01*
X35729520Y-141632150D01*
X35742132Y-141611107D01*
X35756747Y-141591401D01*
X35773223Y-141573223D01*
X35791401Y-141556747D01*
X35811107Y-141542132D01*
X35832150Y-141529520D01*
X35854329Y-141519030D01*
X35877428Y-141510765D01*
X35901227Y-141504804D01*
X35925495Y-141501204D01*
X35949999Y-141500000D01*
X36600001Y-141500000D01*
X36624505Y-141501204D01*
X36624505Y-141501204D01*
G37*
D19*
G04 #@! TD*
G04 #@! TO.P,D1,1*
G04 #@! TO.N,GND*
X36275000Y-142200000D03*
D18*
G04 #@! TO.N,Net-(D1-Pad2)*
G04 #@! TO.C,D1*
G36*
X38674505Y-141501204D02*
X38698773Y-141504804D01*
X38722572Y-141510765D01*
X38745671Y-141519030D01*
X38767850Y-141529520D01*
X38788893Y-141542132D01*
X38808599Y-141556747D01*
X38826777Y-141573223D01*
X38843253Y-141591401D01*
X38857868Y-141611107D01*
X38870480Y-141632150D01*
X38880970Y-141654329D01*
X38889235Y-141677428D01*
X38895196Y-141701227D01*
X38898796Y-141725495D01*
X38900000Y-141749999D01*
X38900000Y-142650001D01*
X38898796Y-142674505D01*
X38895196Y-142698773D01*
X38889235Y-142722572D01*
X38880970Y-142745671D01*
X38870480Y-142767850D01*
X38857868Y-142788893D01*
X38843253Y-142808599D01*
X38826777Y-142826777D01*
X38808599Y-142843253D01*
X38788893Y-142857868D01*
X38767850Y-142870480D01*
X38745671Y-142880970D01*
X38722572Y-142889235D01*
X38698773Y-142895196D01*
X38674505Y-142898796D01*
X38650001Y-142900000D01*
X37999999Y-142900000D01*
X37975495Y-142898796D01*
X37951227Y-142895196D01*
X37927428Y-142889235D01*
X37904329Y-142880970D01*
X37882150Y-142870480D01*
X37861107Y-142857868D01*
X37841401Y-142843253D01*
X37823223Y-142826777D01*
X37806747Y-142808599D01*
X37792132Y-142788893D01*
X37779520Y-142767850D01*
X37769030Y-142745671D01*
X37760765Y-142722572D01*
X37754804Y-142698773D01*
X37751204Y-142674505D01*
X37750000Y-142650001D01*
X37750000Y-141749999D01*
X37751204Y-141725495D01*
X37754804Y-141701227D01*
X37760765Y-141677428D01*
X37769030Y-141654329D01*
X37779520Y-141632150D01*
X37792132Y-141611107D01*
X37806747Y-141591401D01*
X37823223Y-141573223D01*
X37841401Y-141556747D01*
X37861107Y-141542132D01*
X37882150Y-141529520D01*
X37904329Y-141519030D01*
X37927428Y-141510765D01*
X37951227Y-141504804D01*
X37975495Y-141501204D01*
X37999999Y-141500000D01*
X38650001Y-141500000D01*
X38674505Y-141501204D01*
X38674505Y-141501204D01*
G37*
D19*
G04 #@! TD*
G04 #@! TO.P,D1,2*
G04 #@! TO.N,Net-(D1-Pad2)*
X38325000Y-142200000D03*
D18*
G04 #@! TO.N,Net-(D3-Pad2)*
G04 #@! TO.C,D3*
G36*
X66354505Y-141501204D02*
X66378773Y-141504804D01*
X66402572Y-141510765D01*
X66425671Y-141519030D01*
X66447850Y-141529520D01*
X66468893Y-141542132D01*
X66488599Y-141556747D01*
X66506777Y-141573223D01*
X66523253Y-141591401D01*
X66537868Y-141611107D01*
X66550480Y-141632150D01*
X66560970Y-141654329D01*
X66569235Y-141677428D01*
X66575196Y-141701227D01*
X66578796Y-141725495D01*
X66580000Y-141749999D01*
X66580000Y-142650001D01*
X66578796Y-142674505D01*
X66575196Y-142698773D01*
X66569235Y-142722572D01*
X66560970Y-142745671D01*
X66550480Y-142767850D01*
X66537868Y-142788893D01*
X66523253Y-142808599D01*
X66506777Y-142826777D01*
X66488599Y-142843253D01*
X66468893Y-142857868D01*
X66447850Y-142870480D01*
X66425671Y-142880970D01*
X66402572Y-142889235D01*
X66378773Y-142895196D01*
X66354505Y-142898796D01*
X66330001Y-142900000D01*
X65679999Y-142900000D01*
X65655495Y-142898796D01*
X65631227Y-142895196D01*
X65607428Y-142889235D01*
X65584329Y-142880970D01*
X65562150Y-142870480D01*
X65541107Y-142857868D01*
X65521401Y-142843253D01*
X65503223Y-142826777D01*
X65486747Y-142808599D01*
X65472132Y-142788893D01*
X65459520Y-142767850D01*
X65449030Y-142745671D01*
X65440765Y-142722572D01*
X65434804Y-142698773D01*
X65431204Y-142674505D01*
X65430000Y-142650001D01*
X65430000Y-141749999D01*
X65431204Y-141725495D01*
X65434804Y-141701227D01*
X65440765Y-141677428D01*
X65449030Y-141654329D01*
X65459520Y-141632150D01*
X65472132Y-141611107D01*
X65486747Y-141591401D01*
X65503223Y-141573223D01*
X65521401Y-141556747D01*
X65541107Y-141542132D01*
X65562150Y-141529520D01*
X65584329Y-141519030D01*
X65607428Y-141510765D01*
X65631227Y-141504804D01*
X65655495Y-141501204D01*
X65679999Y-141500000D01*
X66330001Y-141500000D01*
X66354505Y-141501204D01*
X66354505Y-141501204D01*
G37*
D19*
G04 #@! TD*
G04 #@! TO.P,D3,2*
G04 #@! TO.N,Net-(D3-Pad2)*
X66005000Y-142200000D03*
D18*
G04 #@! TO.N,GND*
G04 #@! TO.C,D3*
G36*
X64304505Y-141501204D02*
X64328773Y-141504804D01*
X64352572Y-141510765D01*
X64375671Y-141519030D01*
X64397850Y-141529520D01*
X64418893Y-141542132D01*
X64438599Y-141556747D01*
X64456777Y-141573223D01*
X64473253Y-141591401D01*
X64487868Y-141611107D01*
X64500480Y-141632150D01*
X64510970Y-141654329D01*
X64519235Y-141677428D01*
X64525196Y-141701227D01*
X64528796Y-141725495D01*
X64530000Y-141749999D01*
X64530000Y-142650001D01*
X64528796Y-142674505D01*
X64525196Y-142698773D01*
X64519235Y-142722572D01*
X64510970Y-142745671D01*
X64500480Y-142767850D01*
X64487868Y-142788893D01*
X64473253Y-142808599D01*
X64456777Y-142826777D01*
X64438599Y-142843253D01*
X64418893Y-142857868D01*
X64397850Y-142870480D01*
X64375671Y-142880970D01*
X64352572Y-142889235D01*
X64328773Y-142895196D01*
X64304505Y-142898796D01*
X64280001Y-142900000D01*
X63629999Y-142900000D01*
X63605495Y-142898796D01*
X63581227Y-142895196D01*
X63557428Y-142889235D01*
X63534329Y-142880970D01*
X63512150Y-142870480D01*
X63491107Y-142857868D01*
X63471401Y-142843253D01*
X63453223Y-142826777D01*
X63436747Y-142808599D01*
X63422132Y-142788893D01*
X63409520Y-142767850D01*
X63399030Y-142745671D01*
X63390765Y-142722572D01*
X63384804Y-142698773D01*
X63381204Y-142674505D01*
X63380000Y-142650001D01*
X63380000Y-141749999D01*
X63381204Y-141725495D01*
X63384804Y-141701227D01*
X63390765Y-141677428D01*
X63399030Y-141654329D01*
X63409520Y-141632150D01*
X63422132Y-141611107D01*
X63436747Y-141591401D01*
X63453223Y-141573223D01*
X63471401Y-141556747D01*
X63491107Y-141542132D01*
X63512150Y-141529520D01*
X63534329Y-141519030D01*
X63557428Y-141510765D01*
X63581227Y-141504804D01*
X63605495Y-141501204D01*
X63629999Y-141500000D01*
X64280001Y-141500000D01*
X64304505Y-141501204D01*
X64304505Y-141501204D01*
G37*
D19*
G04 #@! TD*
G04 #@! TO.P,D3,1*
G04 #@! TO.N,GND*
X63955000Y-142200000D03*
D18*
G04 #@! TO.N,GND*
G04 #@! TO.C,D5*
G36*
X91984505Y-141501204D02*
X92008773Y-141504804D01*
X92032572Y-141510765D01*
X92055671Y-141519030D01*
X92077850Y-141529520D01*
X92098893Y-141542132D01*
X92118599Y-141556747D01*
X92136777Y-141573223D01*
X92153253Y-141591401D01*
X92167868Y-141611107D01*
X92180480Y-141632150D01*
X92190970Y-141654329D01*
X92199235Y-141677428D01*
X92205196Y-141701227D01*
X92208796Y-141725495D01*
X92210000Y-141749999D01*
X92210000Y-142650001D01*
X92208796Y-142674505D01*
X92205196Y-142698773D01*
X92199235Y-142722572D01*
X92190970Y-142745671D01*
X92180480Y-142767850D01*
X92167868Y-142788893D01*
X92153253Y-142808599D01*
X92136777Y-142826777D01*
X92118599Y-142843253D01*
X92098893Y-142857868D01*
X92077850Y-142870480D01*
X92055671Y-142880970D01*
X92032572Y-142889235D01*
X92008773Y-142895196D01*
X91984505Y-142898796D01*
X91960001Y-142900000D01*
X91309999Y-142900000D01*
X91285495Y-142898796D01*
X91261227Y-142895196D01*
X91237428Y-142889235D01*
X91214329Y-142880970D01*
X91192150Y-142870480D01*
X91171107Y-142857868D01*
X91151401Y-142843253D01*
X91133223Y-142826777D01*
X91116747Y-142808599D01*
X91102132Y-142788893D01*
X91089520Y-142767850D01*
X91079030Y-142745671D01*
X91070765Y-142722572D01*
X91064804Y-142698773D01*
X91061204Y-142674505D01*
X91060000Y-142650001D01*
X91060000Y-141749999D01*
X91061204Y-141725495D01*
X91064804Y-141701227D01*
X91070765Y-141677428D01*
X91079030Y-141654329D01*
X91089520Y-141632150D01*
X91102132Y-141611107D01*
X91116747Y-141591401D01*
X91133223Y-141573223D01*
X91151401Y-141556747D01*
X91171107Y-141542132D01*
X91192150Y-141529520D01*
X91214329Y-141519030D01*
X91237428Y-141510765D01*
X91261227Y-141504804D01*
X91285495Y-141501204D01*
X91309999Y-141500000D01*
X91960001Y-141500000D01*
X91984505Y-141501204D01*
X91984505Y-141501204D01*
G37*
D19*
G04 #@! TD*
G04 #@! TO.P,D5,1*
G04 #@! TO.N,GND*
X91635000Y-142200000D03*
D18*
G04 #@! TO.N,Net-(D5-Pad2)*
G04 #@! TO.C,D5*
G36*
X94034505Y-141501204D02*
X94058773Y-141504804D01*
X94082572Y-141510765D01*
X94105671Y-141519030D01*
X94127850Y-141529520D01*
X94148893Y-141542132D01*
X94168599Y-141556747D01*
X94186777Y-141573223D01*
X94203253Y-141591401D01*
X94217868Y-141611107D01*
X94230480Y-141632150D01*
X94240970Y-141654329D01*
X94249235Y-141677428D01*
X94255196Y-141701227D01*
X94258796Y-141725495D01*
X94260000Y-141749999D01*
X94260000Y-142650001D01*
X94258796Y-142674505D01*
X94255196Y-142698773D01*
X94249235Y-142722572D01*
X94240970Y-142745671D01*
X94230480Y-142767850D01*
X94217868Y-142788893D01*
X94203253Y-142808599D01*
X94186777Y-142826777D01*
X94168599Y-142843253D01*
X94148893Y-142857868D01*
X94127850Y-142870480D01*
X94105671Y-142880970D01*
X94082572Y-142889235D01*
X94058773Y-142895196D01*
X94034505Y-142898796D01*
X94010001Y-142900000D01*
X93359999Y-142900000D01*
X93335495Y-142898796D01*
X93311227Y-142895196D01*
X93287428Y-142889235D01*
X93264329Y-142880970D01*
X93242150Y-142870480D01*
X93221107Y-142857868D01*
X93201401Y-142843253D01*
X93183223Y-142826777D01*
X93166747Y-142808599D01*
X93152132Y-142788893D01*
X93139520Y-142767850D01*
X93129030Y-142745671D01*
X93120765Y-142722572D01*
X93114804Y-142698773D01*
X93111204Y-142674505D01*
X93110000Y-142650001D01*
X93110000Y-141749999D01*
X93111204Y-141725495D01*
X93114804Y-141701227D01*
X93120765Y-141677428D01*
X93129030Y-141654329D01*
X93139520Y-141632150D01*
X93152132Y-141611107D01*
X93166747Y-141591401D01*
X93183223Y-141573223D01*
X93201401Y-141556747D01*
X93221107Y-141542132D01*
X93242150Y-141529520D01*
X93264329Y-141519030D01*
X93287428Y-141510765D01*
X93311227Y-141504804D01*
X93335495Y-141501204D01*
X93359999Y-141500000D01*
X94010001Y-141500000D01*
X94034505Y-141501204D01*
X94034505Y-141501204D01*
G37*
D19*
G04 #@! TD*
G04 #@! TO.P,D5,2*
G04 #@! TO.N,Net-(D5-Pad2)*
X93685000Y-142200000D03*
D18*
G04 #@! TO.N,Net-(D6-Pad2)*
G04 #@! TO.C,D6*
G36*
X107874505Y-141501204D02*
X107898773Y-141504804D01*
X107922572Y-141510765D01*
X107945671Y-141519030D01*
X107967850Y-141529520D01*
X107988893Y-141542132D01*
X108008599Y-141556747D01*
X108026777Y-141573223D01*
X108043253Y-141591401D01*
X108057868Y-141611107D01*
X108070480Y-141632150D01*
X108080970Y-141654329D01*
X108089235Y-141677428D01*
X108095196Y-141701227D01*
X108098796Y-141725495D01*
X108100000Y-141749999D01*
X108100000Y-142650001D01*
X108098796Y-142674505D01*
X108095196Y-142698773D01*
X108089235Y-142722572D01*
X108080970Y-142745671D01*
X108070480Y-142767850D01*
X108057868Y-142788893D01*
X108043253Y-142808599D01*
X108026777Y-142826777D01*
X108008599Y-142843253D01*
X107988893Y-142857868D01*
X107967850Y-142870480D01*
X107945671Y-142880970D01*
X107922572Y-142889235D01*
X107898773Y-142895196D01*
X107874505Y-142898796D01*
X107850001Y-142900000D01*
X107199999Y-142900000D01*
X107175495Y-142898796D01*
X107151227Y-142895196D01*
X107127428Y-142889235D01*
X107104329Y-142880970D01*
X107082150Y-142870480D01*
X107061107Y-142857868D01*
X107041401Y-142843253D01*
X107023223Y-142826777D01*
X107006747Y-142808599D01*
X106992132Y-142788893D01*
X106979520Y-142767850D01*
X106969030Y-142745671D01*
X106960765Y-142722572D01*
X106954804Y-142698773D01*
X106951204Y-142674505D01*
X106950000Y-142650001D01*
X106950000Y-141749999D01*
X106951204Y-141725495D01*
X106954804Y-141701227D01*
X106960765Y-141677428D01*
X106969030Y-141654329D01*
X106979520Y-141632150D01*
X106992132Y-141611107D01*
X107006747Y-141591401D01*
X107023223Y-141573223D01*
X107041401Y-141556747D01*
X107061107Y-141542132D01*
X107082150Y-141529520D01*
X107104329Y-141519030D01*
X107127428Y-141510765D01*
X107151227Y-141504804D01*
X107175495Y-141501204D01*
X107199999Y-141500000D01*
X107850001Y-141500000D01*
X107874505Y-141501204D01*
X107874505Y-141501204D01*
G37*
D19*
G04 #@! TD*
G04 #@! TO.P,D6,2*
G04 #@! TO.N,Net-(D6-Pad2)*
X107525000Y-142200000D03*
D18*
G04 #@! TO.N,GND*
G04 #@! TO.C,D6*
G36*
X105824505Y-141501204D02*
X105848773Y-141504804D01*
X105872572Y-141510765D01*
X105895671Y-141519030D01*
X105917850Y-141529520D01*
X105938893Y-141542132D01*
X105958599Y-141556747D01*
X105976777Y-141573223D01*
X105993253Y-141591401D01*
X106007868Y-141611107D01*
X106020480Y-141632150D01*
X106030970Y-141654329D01*
X106039235Y-141677428D01*
X106045196Y-141701227D01*
X106048796Y-141725495D01*
X106050000Y-141749999D01*
X106050000Y-142650001D01*
X106048796Y-142674505D01*
X106045196Y-142698773D01*
X106039235Y-142722572D01*
X106030970Y-142745671D01*
X106020480Y-142767850D01*
X106007868Y-142788893D01*
X105993253Y-142808599D01*
X105976777Y-142826777D01*
X105958599Y-142843253D01*
X105938893Y-142857868D01*
X105917850Y-142870480D01*
X105895671Y-142880970D01*
X105872572Y-142889235D01*
X105848773Y-142895196D01*
X105824505Y-142898796D01*
X105800001Y-142900000D01*
X105149999Y-142900000D01*
X105125495Y-142898796D01*
X105101227Y-142895196D01*
X105077428Y-142889235D01*
X105054329Y-142880970D01*
X105032150Y-142870480D01*
X105011107Y-142857868D01*
X104991401Y-142843253D01*
X104973223Y-142826777D01*
X104956747Y-142808599D01*
X104942132Y-142788893D01*
X104929520Y-142767850D01*
X104919030Y-142745671D01*
X104910765Y-142722572D01*
X104904804Y-142698773D01*
X104901204Y-142674505D01*
X104900000Y-142650001D01*
X104900000Y-141749999D01*
X104901204Y-141725495D01*
X104904804Y-141701227D01*
X104910765Y-141677428D01*
X104919030Y-141654329D01*
X104929520Y-141632150D01*
X104942132Y-141611107D01*
X104956747Y-141591401D01*
X104973223Y-141573223D01*
X104991401Y-141556747D01*
X105011107Y-141542132D01*
X105032150Y-141529520D01*
X105054329Y-141519030D01*
X105077428Y-141510765D01*
X105101227Y-141504804D01*
X105125495Y-141501204D01*
X105149999Y-141500000D01*
X105800001Y-141500000D01*
X105824505Y-141501204D01*
X105824505Y-141501204D01*
G37*
D19*
G04 #@! TD*
G04 #@! TO.P,D6,1*
G04 #@! TO.N,GND*
X105475000Y-142200000D03*
D18*
G04 #@! TO.N,GND*
G04 #@! TO.C,D2*
G36*
X50464505Y-141501204D02*
X50488773Y-141504804D01*
X50512572Y-141510765D01*
X50535671Y-141519030D01*
X50557850Y-141529520D01*
X50578893Y-141542132D01*
X50598599Y-141556747D01*
X50616777Y-141573223D01*
X50633253Y-141591401D01*
X50647868Y-141611107D01*
X50660480Y-141632150D01*
X50670970Y-141654329D01*
X50679235Y-141677428D01*
X50685196Y-141701227D01*
X50688796Y-141725495D01*
X50690000Y-141749999D01*
X50690000Y-142650001D01*
X50688796Y-142674505D01*
X50685196Y-142698773D01*
X50679235Y-142722572D01*
X50670970Y-142745671D01*
X50660480Y-142767850D01*
X50647868Y-142788893D01*
X50633253Y-142808599D01*
X50616777Y-142826777D01*
X50598599Y-142843253D01*
X50578893Y-142857868D01*
X50557850Y-142870480D01*
X50535671Y-142880970D01*
X50512572Y-142889235D01*
X50488773Y-142895196D01*
X50464505Y-142898796D01*
X50440001Y-142900000D01*
X49789999Y-142900000D01*
X49765495Y-142898796D01*
X49741227Y-142895196D01*
X49717428Y-142889235D01*
X49694329Y-142880970D01*
X49672150Y-142870480D01*
X49651107Y-142857868D01*
X49631401Y-142843253D01*
X49613223Y-142826777D01*
X49596747Y-142808599D01*
X49582132Y-142788893D01*
X49569520Y-142767850D01*
X49559030Y-142745671D01*
X49550765Y-142722572D01*
X49544804Y-142698773D01*
X49541204Y-142674505D01*
X49540000Y-142650001D01*
X49540000Y-141749999D01*
X49541204Y-141725495D01*
X49544804Y-141701227D01*
X49550765Y-141677428D01*
X49559030Y-141654329D01*
X49569520Y-141632150D01*
X49582132Y-141611107D01*
X49596747Y-141591401D01*
X49613223Y-141573223D01*
X49631401Y-141556747D01*
X49651107Y-141542132D01*
X49672150Y-141529520D01*
X49694329Y-141519030D01*
X49717428Y-141510765D01*
X49741227Y-141504804D01*
X49765495Y-141501204D01*
X49789999Y-141500000D01*
X50440001Y-141500000D01*
X50464505Y-141501204D01*
X50464505Y-141501204D01*
G37*
D19*
G04 #@! TD*
G04 #@! TO.P,D2,1*
G04 #@! TO.N,GND*
X50115000Y-142200000D03*
D18*
G04 #@! TO.N,Net-(D2-Pad2)*
G04 #@! TO.C,D2*
G36*
X52514505Y-141501204D02*
X52538773Y-141504804D01*
X52562572Y-141510765D01*
X52585671Y-141519030D01*
X52607850Y-141529520D01*
X52628893Y-141542132D01*
X52648599Y-141556747D01*
X52666777Y-141573223D01*
X52683253Y-141591401D01*
X52697868Y-141611107D01*
X52710480Y-141632150D01*
X52720970Y-141654329D01*
X52729235Y-141677428D01*
X52735196Y-141701227D01*
X52738796Y-141725495D01*
X52740000Y-141749999D01*
X52740000Y-142650001D01*
X52738796Y-142674505D01*
X52735196Y-142698773D01*
X52729235Y-142722572D01*
X52720970Y-142745671D01*
X52710480Y-142767850D01*
X52697868Y-142788893D01*
X52683253Y-142808599D01*
X52666777Y-142826777D01*
X52648599Y-142843253D01*
X52628893Y-142857868D01*
X52607850Y-142870480D01*
X52585671Y-142880970D01*
X52562572Y-142889235D01*
X52538773Y-142895196D01*
X52514505Y-142898796D01*
X52490001Y-142900000D01*
X51839999Y-142900000D01*
X51815495Y-142898796D01*
X51791227Y-142895196D01*
X51767428Y-142889235D01*
X51744329Y-142880970D01*
X51722150Y-142870480D01*
X51701107Y-142857868D01*
X51681401Y-142843253D01*
X51663223Y-142826777D01*
X51646747Y-142808599D01*
X51632132Y-142788893D01*
X51619520Y-142767850D01*
X51609030Y-142745671D01*
X51600765Y-142722572D01*
X51594804Y-142698773D01*
X51591204Y-142674505D01*
X51590000Y-142650001D01*
X51590000Y-141749999D01*
X51591204Y-141725495D01*
X51594804Y-141701227D01*
X51600765Y-141677428D01*
X51609030Y-141654329D01*
X51619520Y-141632150D01*
X51632132Y-141611107D01*
X51646747Y-141591401D01*
X51663223Y-141573223D01*
X51681401Y-141556747D01*
X51701107Y-141542132D01*
X51722150Y-141529520D01*
X51744329Y-141519030D01*
X51767428Y-141510765D01*
X51791227Y-141504804D01*
X51815495Y-141501204D01*
X51839999Y-141500000D01*
X52490001Y-141500000D01*
X52514505Y-141501204D01*
X52514505Y-141501204D01*
G37*
D19*
G04 #@! TD*
G04 #@! TO.P,D2,2*
G04 #@! TO.N,Net-(D2-Pad2)*
X52165000Y-142200000D03*
D20*
G04 #@! TO.P,U1,1*
G04 #@! TO.N,GND*
X64030000Y-137150000D03*
D21*
G04 #@! TO.P,U1,11*
G04 #@! TO.N,LED_P3*
X86890000Y-129530000D03*
G04 #@! TO.P,U1,2*
G04 #@! TO.N,BIT*
X66570000Y-137150000D03*
G04 #@! TO.P,U1,12*
G04 #@! TO.N,LED_P2*
X84350000Y-129530000D03*
G04 #@! TO.P,U1,3*
G04 #@! TO.N,RXD*
X69110000Y-137150000D03*
G04 #@! TO.P,U1,13*
G04 #@! TO.N,LED_P1*
X81810000Y-129530000D03*
G04 #@! TO.P,U1,4*
G04 #@! TO.N,TXD*
X71650000Y-137150000D03*
G04 #@! TO.P,U1,14*
G04 #@! TO.N,GAN*
X79270000Y-129530000D03*
G04 #@! TO.P,U1,5*
G04 #@! TO.N,FLD*
X74190000Y-137150000D03*
G04 #@! TO.P,U1,15*
G04 #@! TO.N,PART*
X76730000Y-129530000D03*
G04 #@! TO.P,U1,6*
G04 #@! TO.N,DRV*
X76730000Y-137150000D03*
G04 #@! TO.P,U1,16*
G04 #@! TO.N,RST*
X74190000Y-129530000D03*
G04 #@! TO.P,U1,7*
G04 #@! TO.N,PAN*
X79270000Y-137150000D03*
G04 #@! TO.P,U1,17*
G04 #@! TO.N,TEST*
X71650000Y-129530000D03*
G04 #@! TO.P,U1,8*
G04 #@! TO.N,LED_P6*
X81810000Y-137150000D03*
G04 #@! TO.P,U1,18*
G04 #@! TO.N,PUSH_L1*
X69110000Y-129530000D03*
G04 #@! TO.P,U1,9*
G04 #@! TO.N,LED_P5*
X84350000Y-137150000D03*
G04 #@! TO.P,U1,19*
G04 #@! TO.N,PUSH_L2*
X66570000Y-129530000D03*
G04 #@! TO.P,U1,10*
G04 #@! TO.N,LED_P4*
X86890000Y-137150000D03*
G04 #@! TO.P,U1,20*
G04 #@! TO.N,+3V3*
X64030000Y-129530000D03*
G04 #@! TD*
D22*
G04 #@! TO.P,U2,2*
G04 #@! TO.N,+3V3*
X46550000Y-134900000D03*
D23*
X40250000Y-134900000D03*
G04 #@! TO.P,U2,3*
G04 #@! TO.N,+5V*
X40250000Y-137200000D03*
G04 #@! TO.P,U2,1*
G04 #@! TO.N,GND*
X40250000Y-132600000D03*
G04 #@! TD*
D24*
G04 #@! TO.P,U3,1*
G04 #@! TO.N,N/C*
X109450000Y-134520000D03*
G04 #@! TO.P,U3,2*
G04 #@! TO.N,TXD*
X108500000Y-134520000D03*
G04 #@! TO.P,U3,3*
G04 #@! TO.N,GND*
X107550000Y-134520000D03*
G04 #@! TO.P,U3,4*
G04 #@! TO.N,Net-(R8-Pad2)*
X107550000Y-137220000D03*
G04 #@! TO.P,U3,5*
G04 #@! TO.N,VCC*
X109450000Y-137220000D03*
G04 #@! TD*
D11*
G04 #@! TO.P,R3,1*
G04 #@! TO.N,LED_P2*
X53345000Y-137200000D03*
D21*
G04 #@! TO.P,R3,2*
G04 #@! TO.N,Net-(D2-Pad2)*
X53345000Y-129580000D03*
G04 #@! TD*
G04 #@! TO.P,R9,2*
G04 #@! TO.N,GND*
X104655000Y-129580000D03*
D11*
G04 #@! TO.P,R9,1*
G04 #@! TO.N,Net-(J3-Pad4)*
X104655000Y-137200000D03*
G04 #@! TD*
G04 #@! TO.P,R8,1*
G04 #@! TO.N,Net-(J3-Pad5)*
X101110000Y-137200000D03*
D21*
G04 #@! TO.P,R8,2*
G04 #@! TO.N,Net-(R8-Pad2)*
X101110000Y-129580000D03*
G04 #@! TD*
G04 #@! TO.P,R7,2*
G04 #@! TO.N,Net-(D6-Pad2)*
X97565000Y-129580000D03*
D11*
G04 #@! TO.P,R7,1*
G04 #@! TO.N,LED_P6*
X97565000Y-137200000D03*
G04 #@! TD*
G04 #@! TO.P,R1,1*
G04 #@! TO.N,+3V3*
X60435000Y-137200000D03*
D21*
G04 #@! TO.P,R1,2*
G04 #@! TO.N,RST*
X60435000Y-129580000D03*
G04 #@! TD*
G04 #@! TO.P,R4,2*
G04 #@! TO.N,Net-(D3-Pad2)*
X56890000Y-129580000D03*
D11*
G04 #@! TO.P,R4,1*
G04 #@! TO.N,LED_P3*
X56890000Y-137200000D03*
G04 #@! TD*
G04 #@! TO.P,R5,1*
G04 #@! TO.N,LED_P4*
X90475000Y-137200000D03*
D21*
G04 #@! TO.P,R5,2*
G04 #@! TO.N,Net-(D4-Pad2)*
X90475000Y-129580000D03*
G04 #@! TD*
G04 #@! TO.P,R6,2*
G04 #@! TO.N,Net-(D5-Pad2)*
X94020000Y-129580000D03*
D11*
G04 #@! TO.P,R6,1*
G04 #@! TO.N,LED_P5*
X94020000Y-137200000D03*
G04 #@! TD*
G04 #@! TO.P,R2,1*
G04 #@! TO.N,LED_P1*
X49800000Y-137200000D03*
D21*
G04 #@! TO.P,R2,2*
G04 #@! TO.N,Net-(D1-Pad2)*
X49800000Y-129580000D03*
G04 #@! TD*
D25*
G04 #@! TO.P,J3,3*
G04 #@! TO.N,Net-(J3-Pad3)*
X117402800Y-143298080D03*
G04 #@! TO.P,J3,4*
G04 #@! TO.N,Net-(J3-Pad4)*
X114900900Y-130803820D03*
G04 #@! TO.P,J3,2*
G04 #@! TO.N,Net-(J3-Pad2)*
X117400260Y-135800000D03*
G04 #@! TO.P,J3,1*
G04 #@! TO.N,Net-(J3-Pad1)*
X117402800Y-128301920D03*
G04 #@! TO.P,J3,5*
G04 #@! TO.N,Net-(J3-Pad5)*
X114900900Y-140796180D03*
G04 #@! TO.P,J3,*
G04 #@! TO.N,*
X127397700Y-130798740D03*
X127397700Y-140801260D03*
G04 #@! TD*
D26*
G04 #@! TO.P,RV5,*
G04 #@! TO.N,*
X101700000Y-154200000D03*
X111300000Y-154200000D03*
D27*
G04 #@! TO.P,RV5,3*
G04 #@! TO.N,GND*
X104000000Y-147200000D03*
G04 #@! TO.P,RV5,2*
G04 #@! TO.N,GAN*
X106500000Y-147200000D03*
G04 #@! TO.P,RV5,1*
G04 #@! TO.N,+3V3*
X109000000Y-147200000D03*
G04 #@! TD*
G04 #@! TO.P,RV6,1*
G04 #@! TO.N,+3V3*
X39800000Y-147200000D03*
G04 #@! TO.P,RV6,2*
G04 #@! TO.N,PART*
X37300000Y-147200000D03*
G04 #@! TO.P,RV6,3*
G04 #@! TO.N,GND*
X34800000Y-147200000D03*
D26*
G04 #@! TO.P,RV6,*
G04 #@! TO.N,*
X42100000Y-154200000D03*
X32500000Y-154200000D03*
G04 #@! TD*
G04 #@! TO.P,RV1,*
G04 #@! TO.N,*
X46340000Y-154200000D03*
X55940000Y-154200000D03*
D27*
G04 #@! TO.P,RV1,3*
G04 #@! TO.N,GND*
X48640000Y-147200000D03*
G04 #@! TO.P,RV1,2*
G04 #@! TO.N,BIT*
X51140000Y-147200000D03*
G04 #@! TO.P,RV1,1*
G04 #@! TO.N,+3V3*
X53640000Y-147200000D03*
G04 #@! TD*
G04 #@! TO.P,RV2,1*
G04 #@! TO.N,+3V3*
X67480000Y-147200000D03*
G04 #@! TO.P,RV2,2*
G04 #@! TO.N,FLD*
X64980000Y-147200000D03*
G04 #@! TO.P,RV2,3*
G04 #@! TO.N,GND*
X62480000Y-147200000D03*
D26*
G04 #@! TO.P,RV2,*
G04 #@! TO.N,*
X69780000Y-154200000D03*
X60180000Y-154200000D03*
G04 #@! TD*
G04 #@! TO.P,RV3,*
G04 #@! TO.N,*
X74020000Y-154200000D03*
X83620000Y-154200000D03*
D27*
G04 #@! TO.P,RV3,3*
G04 #@! TO.N,GND*
X76320000Y-147200000D03*
G04 #@! TO.P,RV3,2*
G04 #@! TO.N,DRV*
X78820000Y-147200000D03*
G04 #@! TO.P,RV3,1*
G04 #@! TO.N,+3V3*
X81320000Y-147200000D03*
G04 #@! TD*
G04 #@! TO.P,RV4,1*
G04 #@! TO.N,+3V3*
X95160000Y-147200000D03*
G04 #@! TO.P,RV4,2*
G04 #@! TO.N,PAN*
X92660000Y-147200000D03*
G04 #@! TO.P,RV4,3*
G04 #@! TO.N,GND*
X90160000Y-147200000D03*
D26*
G04 #@! TO.P,RV4,*
G04 #@! TO.N,*
X97460000Y-154200000D03*
X87860000Y-154200000D03*
G04 #@! TD*
D28*
G04 #@! TO.N,TXD*
X86900000Y-133500000D03*
X108500000Y-132500000D03*
G04 #@! TO.N,LED_P1*
X65200000Y-133000000D03*
G04 #@! TO.N,LED_P5*
X94000000Y-132100000D03*
G04 #@! TO.N,LED_P4*
X87500000Y-134800000D03*
G04 #@! TO.N,LED_P3*
X66800000Y-134900000D03*
G04 #@! TO.N,LED_P2*
X65900000Y-134000000D03*
G04 #@! TD*
D29*
G04 #@! TO.N,GND*
X34250000Y-136700000D02*
X33830000Y-137120000D01*
X34250000Y-136100000D02*
X34250000Y-136700000D01*
D30*
G04 #@! TO.N,Net-(D2-Pad2)*
X52165000Y-130760000D02*
X53345000Y-129580000D01*
X52165000Y-142200000D02*
X52165000Y-130760000D01*
G04 #@! TO.N,Net-(D1-Pad2)*
X49800000Y-130711370D02*
X49800000Y-129580000D01*
X49800000Y-135135002D02*
X49800000Y-130711370D01*
X42735002Y-142200000D02*
X49800000Y-135135002D01*
X38325000Y-142200000D02*
X42735002Y-142200000D01*
D29*
G04 #@! TO.N,+5V*
X37500000Y-137200000D02*
X37200000Y-137500000D01*
X40250000Y-137200000D02*
X37500000Y-137200000D01*
X37200000Y-136368630D02*
X36200000Y-135368630D01*
X37200000Y-137500000D02*
X37200000Y-136368630D01*
X35350000Y-133500000D02*
X34250000Y-133500000D01*
X36200000Y-134350000D02*
X35350000Y-133500000D01*
X36200000Y-135368630D02*
X36200000Y-134350000D01*
G04 #@! TO.N,+3V3*
X46550000Y-128950000D02*
X47700000Y-127800000D01*
X46550000Y-134900000D02*
X46550000Y-128950000D01*
X46550000Y-134900000D02*
X40250000Y-134900000D01*
X64030000Y-133605000D02*
X64030000Y-129530000D01*
X60435000Y-137200000D02*
X64030000Y-133605000D01*
X96310000Y-147200000D02*
X98210000Y-149100000D01*
X95160000Y-147200000D02*
X96310000Y-147200000D01*
X109000000Y-147450000D02*
X109000000Y-147200000D01*
X107350000Y-149100000D02*
X109000000Y-147450000D01*
X98210000Y-149100000D02*
X107350000Y-149100000D01*
D30*
G04 #@! TO.N,TXD*
X71650000Y-137150000D02*
X73100000Y-135700000D01*
X73100000Y-135700000D02*
X84700000Y-135700000D01*
X84700000Y-135700000D02*
X86900000Y-133500000D01*
X86900000Y-133500000D02*
X86900000Y-133500000D01*
X108500000Y-132500000D02*
X108500000Y-134520000D01*
G04 #@! TO.N,Net-(D4-Pad2)*
X80520000Y-142200000D02*
X82920000Y-139800000D01*
X79845000Y-142200000D02*
X80520000Y-142200000D01*
X82920000Y-139800000D02*
X87400000Y-139800000D01*
X87400000Y-139800000D02*
X88400000Y-138800000D01*
X88400000Y-131655000D02*
X90475000Y-129580000D01*
X88400000Y-138800000D02*
X88400000Y-131655000D01*
G04 #@! TO.N,Net-(D3-Pad2)*
X66005000Y-141400000D02*
X64005000Y-139400000D01*
X66005000Y-142200000D02*
X66005000Y-141400000D01*
X60100000Y-139400000D02*
X58500000Y-137800000D01*
X64005000Y-139400000D02*
X60100000Y-139400000D01*
X58500000Y-131190000D02*
X56890000Y-129580000D01*
X58500000Y-137800000D02*
X58500000Y-131190000D01*
G04 #@! TO.N,Net-(D5-Pad2)*
X93685000Y-141400000D02*
X92400000Y-140115000D01*
X93685000Y-142200000D02*
X93685000Y-141400000D01*
X92400000Y-131200000D02*
X94020000Y-129580000D01*
X92400000Y-140115000D02*
X92400000Y-131200000D01*
G04 #@! TO.N,Net-(D6-Pad2)*
X107525000Y-141400000D02*
X105225000Y-139100000D01*
X107525000Y-142200000D02*
X107525000Y-141400000D01*
X97565000Y-130711370D02*
X97565000Y-129580000D01*
X97565000Y-135320002D02*
X97565000Y-130711370D01*
X101344998Y-139100000D02*
X97565000Y-135320002D01*
X105225000Y-139100000D02*
X101344998Y-139100000D01*
G04 #@! TO.N,LED_P1*
X81010001Y-130329999D02*
X81810000Y-129530000D01*
X78739999Y-132600001D02*
X81010001Y-130329999D01*
X65599999Y-132600001D02*
X78739999Y-132600001D01*
X65200000Y-133000000D02*
X65599999Y-132600001D01*
G04 #@! TO.N,LED_P5*
X94000000Y-137180000D02*
X94020000Y-137200000D01*
X94000000Y-132100000D02*
X94000000Y-137180000D01*
G04 #@! TO.N,LED_P4*
X86890000Y-136018630D02*
X87500000Y-135408630D01*
X86890000Y-137150000D02*
X86890000Y-136018630D01*
X87500000Y-135408630D02*
X87500000Y-134800000D01*
X87500000Y-134800000D02*
X87500000Y-134800000D01*
G04 #@! TO.N,LED_P3*
X81520000Y-134900000D02*
X86890000Y-129530000D01*
X66800000Y-134900000D02*
X81520000Y-134900000D01*
G04 #@! TO.N,Net-(R8-Pad2)*
X101110000Y-130711370D02*
X101110000Y-129580000D01*
X101110000Y-131355000D02*
X101110000Y-130711370D01*
X106975000Y-137220000D02*
X101110000Y-131355000D01*
X107550000Y-137220000D02*
X106975000Y-137220000D01*
G04 #@! TO.N,LED_P2*
X79880000Y-134000000D02*
X84350000Y-129530000D01*
X65900000Y-134000000D02*
X79880000Y-134000000D01*
G04 #@! TO.N,PUSH_L1*
X114700000Y-156085787D02*
X114700000Y-151000000D01*
X114700000Y-157500000D02*
X114700000Y-156085787D01*
X111300000Y-147600000D02*
X114700000Y-151000000D01*
X111300000Y-129900000D02*
X111300000Y-147600000D01*
X109795001Y-128404999D02*
X109800000Y-128400000D01*
X70235001Y-128404999D02*
X109795001Y-128404999D01*
X69110000Y-129530000D02*
X70235001Y-128404999D01*
X109800000Y-128400000D02*
X111300000Y-129900000D01*
G04 #@! TO.N,PUSH_L2*
X122650000Y-156085787D02*
X122650000Y-151000000D01*
X122650000Y-157500000D02*
X122650000Y-156085787D01*
X119050000Y-147400000D02*
X122650000Y-151000000D01*
X66570000Y-129530000D02*
X69700000Y-126400000D01*
X109000000Y-126400000D02*
X112300000Y-129700000D01*
X112300000Y-129700000D02*
X112300000Y-143500000D01*
X112300000Y-143500000D02*
X116200000Y-147400000D01*
X116200000Y-147400000D02*
X119050000Y-147400000D01*
X69700000Y-126400000D02*
X70300000Y-125800000D01*
X109000000Y-126400000D02*
X108400000Y-125800000D01*
X70300000Y-125800000D02*
X108400000Y-125800000D01*
G04 #@! TD*
D31*
G04 #@! TO.N,GND*
G36*
X38892384Y-125536523D02*
X38464259Y-125911146D01*
X38212085Y-126421089D01*
X38322143Y-126645998D01*
X38221896Y-126645998D01*
X38163276Y-126351293D01*
X37909103Y-125970897D01*
X37528707Y-125716724D01*
X37193261Y-125650000D01*
X36966739Y-125650000D01*
X36631293Y-125716724D01*
X36250897Y-125970897D01*
X35996724Y-126351293D01*
X35907471Y-126800000D01*
X35996724Y-127248707D01*
X36250897Y-127629103D01*
X36631293Y-127883276D01*
X36966739Y-127950000D01*
X37193261Y-127950000D01*
X37528707Y-127883276D01*
X37909103Y-127629103D01*
X38163276Y-127248707D01*
X38221896Y-126954002D01*
X38322143Y-126954002D01*
X38212085Y-127178911D01*
X38464259Y-127688854D01*
X38892384Y-128063477D01*
X39241090Y-128207903D01*
X39466000Y-128096889D01*
X39466000Y-126954000D01*
X39774000Y-126954000D01*
X39774000Y-128096889D01*
X39998910Y-128207903D01*
X40347616Y-128063477D01*
X40775741Y-127688854D01*
X40811497Y-127616548D01*
X41276185Y-127616548D01*
X41314363Y-128175382D01*
X41454771Y-128514357D01*
X41690031Y-128592180D01*
X42482211Y-127800000D01*
X42917789Y-127800000D01*
X43709969Y-128592180D01*
X43945229Y-128514357D01*
X44123815Y-127983452D01*
X44085637Y-127424618D01*
X43945229Y-127085643D01*
X43709969Y-127007820D01*
X42917789Y-127800000D01*
X42482211Y-127800000D01*
X41690031Y-127007820D01*
X41454771Y-127085643D01*
X41276185Y-127616548D01*
X40811497Y-127616548D01*
X41027915Y-127178911D01*
X40917856Y-126954000D01*
X39774000Y-126954000D01*
X39466000Y-126954000D01*
X39446000Y-126954000D01*
X39446000Y-126790031D01*
X41907820Y-126790031D01*
X42700000Y-127582211D01*
X43492180Y-126790031D01*
X43414357Y-126554771D01*
X42883452Y-126376185D01*
X42324618Y-126414363D01*
X41985643Y-126554771D01*
X41907820Y-126790031D01*
X39446000Y-126790031D01*
X39446000Y-126646000D01*
X39466000Y-126646000D01*
X39466000Y-126626000D01*
X39774000Y-126626000D01*
X39774000Y-126646000D01*
X40917856Y-126646000D01*
X41027915Y-126421089D01*
X40775741Y-125911146D01*
X40347616Y-125536523D01*
X40017991Y-125400000D01*
X70133663Y-125400000D01*
X69993592Y-125493592D01*
X69969881Y-125529078D01*
X69429080Y-126069880D01*
X69429077Y-126069882D01*
X67002758Y-128496201D01*
X66999199Y-128493823D01*
X66678339Y-128430000D01*
X66461661Y-128430000D01*
X66140801Y-128493823D01*
X65776944Y-128736944D01*
X65533823Y-129100801D01*
X65448450Y-129530000D01*
X65533823Y-129959199D01*
X65776944Y-130323056D01*
X66140801Y-130566177D01*
X66461661Y-130630000D01*
X66678339Y-130630000D01*
X66999199Y-130566177D01*
X67363056Y-130323056D01*
X67606177Y-129959199D01*
X67691550Y-129530000D01*
X67606177Y-129100801D01*
X67603799Y-129097242D01*
X70030118Y-126670923D01*
X70030120Y-126670920D01*
X70476041Y-126225000D01*
X108223960Y-126225000D01*
X108729077Y-126730118D01*
X108729080Y-126730120D01*
X110064652Y-128065693D01*
X109965826Y-127999659D01*
X109800000Y-127966674D01*
X109733011Y-127979999D01*
X70276858Y-127979999D01*
X70235001Y-127971673D01*
X70193143Y-127979999D01*
X70069174Y-128004658D01*
X69928593Y-128098591D01*
X69904882Y-128134077D01*
X69542758Y-128496201D01*
X69539199Y-128493823D01*
X69218339Y-128430000D01*
X69001661Y-128430000D01*
X68680801Y-128493823D01*
X68316944Y-128736944D01*
X68073823Y-129100801D01*
X67988450Y-129530000D01*
X68073823Y-129959199D01*
X68316944Y-130323056D01*
X68680801Y-130566177D01*
X69001661Y-130630000D01*
X69218339Y-130630000D01*
X69539199Y-130566177D01*
X69903056Y-130323056D01*
X70146177Y-129959199D01*
X70231550Y-129530000D01*
X70146177Y-129100801D01*
X70143799Y-129097242D01*
X70411042Y-128829999D01*
X70794767Y-128829999D01*
X70613823Y-129100801D01*
X70528450Y-129530000D01*
X70613823Y-129959199D01*
X70856944Y-130323056D01*
X71220801Y-130566177D01*
X71541661Y-130630000D01*
X71758339Y-130630000D01*
X72079199Y-130566177D01*
X72443056Y-130323056D01*
X72686177Y-129959199D01*
X72771550Y-129530000D01*
X72686177Y-129100801D01*
X72505233Y-128829999D01*
X73334767Y-128829999D01*
X73153823Y-129100801D01*
X73068450Y-129530000D01*
X73153823Y-129959199D01*
X73396944Y-130323056D01*
X73760801Y-130566177D01*
X74081661Y-130630000D01*
X74298339Y-130630000D01*
X74619199Y-130566177D01*
X74983056Y-130323056D01*
X75226177Y-129959199D01*
X75311550Y-129530000D01*
X75226177Y-129100801D01*
X75045233Y-128829999D01*
X75874767Y-128829999D01*
X75693823Y-129100801D01*
X75608450Y-129530000D01*
X75693823Y-129959199D01*
X75936944Y-130323056D01*
X76300801Y-130566177D01*
X76621661Y-130630000D01*
X76838339Y-130630000D01*
X77159199Y-130566177D01*
X77523056Y-130323056D01*
X77766177Y-129959199D01*
X77851550Y-129530000D01*
X77766177Y-129100801D01*
X77585233Y-128829999D01*
X78414767Y-128829999D01*
X78233823Y-129100801D01*
X78148450Y-129530000D01*
X78233823Y-129959199D01*
X78476944Y-130323056D01*
X78840801Y-130566177D01*
X79161661Y-130630000D01*
X79378339Y-130630000D01*
X79699199Y-130566177D01*
X80063056Y-130323056D01*
X80306177Y-129959199D01*
X80391550Y-129530000D01*
X80306177Y-129100801D01*
X80125233Y-128829999D01*
X80954767Y-128829999D01*
X80773823Y-129100801D01*
X80688450Y-129530000D01*
X80773823Y-129959199D01*
X80776201Y-129962759D01*
X80739081Y-129999879D01*
X80739078Y-129999881D01*
X78563959Y-132175001D01*
X65641856Y-132175001D01*
X65599998Y-132166675D01*
X65558141Y-132175001D01*
X65434172Y-132199660D01*
X65293591Y-132293593D01*
X65289310Y-132300000D01*
X65060761Y-132300000D01*
X64803482Y-132406568D01*
X64606568Y-132603482D01*
X64530000Y-132788334D01*
X64530000Y-130518869D01*
X64823056Y-130323056D01*
X65066177Y-129959199D01*
X65151550Y-129530000D01*
X65066177Y-129100801D01*
X64823056Y-128736944D01*
X64459199Y-128493823D01*
X64138339Y-128430000D01*
X63921661Y-128430000D01*
X63600801Y-128493823D01*
X63236944Y-128736944D01*
X62993823Y-129100801D01*
X62908450Y-129530000D01*
X62993823Y-129959199D01*
X63236944Y-130323056D01*
X63530001Y-130518870D01*
X63530000Y-133397893D01*
X60776904Y-136150990D01*
X60653804Y-136100000D01*
X60216196Y-136100000D01*
X59811900Y-136267465D01*
X59502465Y-136576900D01*
X59335000Y-136981196D01*
X59335000Y-137418804D01*
X59502465Y-137823100D01*
X59811900Y-138132535D01*
X60216196Y-138300000D01*
X60653804Y-138300000D01*
X61058100Y-138132535D01*
X61367535Y-137823100D01*
X61519592Y-137456000D01*
X62622000Y-137456000D01*
X62622000Y-138070939D01*
X62714563Y-138294405D01*
X62885596Y-138465438D01*
X63109062Y-138558000D01*
X63724000Y-138558000D01*
X63876000Y-138406000D01*
X63876000Y-137304000D01*
X64184000Y-137304000D01*
X64184000Y-138406000D01*
X64336000Y-138558000D01*
X64950938Y-138558000D01*
X65174404Y-138465438D01*
X65345437Y-138294405D01*
X65438000Y-138070939D01*
X65438000Y-137456000D01*
X65286000Y-137304000D01*
X64184000Y-137304000D01*
X63876000Y-137304000D01*
X62774000Y-137304000D01*
X62622000Y-137456000D01*
X61519592Y-137456000D01*
X61535000Y-137418804D01*
X61535000Y-137150000D01*
X65448450Y-137150000D01*
X65533823Y-137579199D01*
X65776944Y-137943056D01*
X66140801Y-138186177D01*
X66461661Y-138250000D01*
X66678339Y-138250000D01*
X66999199Y-138186177D01*
X67363056Y-137943056D01*
X67606177Y-137579199D01*
X67691550Y-137150000D01*
X67988450Y-137150000D01*
X68073823Y-137579199D01*
X68316944Y-137943056D01*
X68680801Y-138186177D01*
X69001661Y-138250000D01*
X69218339Y-138250000D01*
X69539199Y-138186177D01*
X69903056Y-137943056D01*
X70146177Y-137579199D01*
X70231550Y-137150000D01*
X70146177Y-136720801D01*
X69903056Y-136356944D01*
X69539199Y-136113823D01*
X69218339Y-136050000D01*
X69001661Y-136050000D01*
X68680801Y-136113823D01*
X68316944Y-136356944D01*
X68073823Y-136720801D01*
X67988450Y-137150000D01*
X67691550Y-137150000D01*
X67606177Y-136720801D01*
X67363056Y-136356944D01*
X66999199Y-136113823D01*
X66678339Y-136050000D01*
X66461661Y-136050000D01*
X66140801Y-136113823D01*
X65776944Y-136356944D01*
X65533823Y-136720801D01*
X65448450Y-137150000D01*
X61535000Y-137150000D01*
X61535000Y-136981196D01*
X61484010Y-136858096D01*
X62113045Y-136229061D01*
X62622000Y-136229061D01*
X62622000Y-136844000D01*
X62774000Y-136996000D01*
X63876000Y-136996000D01*
X63876000Y-135894000D01*
X64184000Y-135894000D01*
X64184000Y-136996000D01*
X65286000Y-136996000D01*
X65438000Y-136844000D01*
X65438000Y-136229061D01*
X65345437Y-136005595D01*
X65174404Y-135834562D01*
X64950938Y-135742000D01*
X64336000Y-135742000D01*
X64184000Y-135894000D01*
X63876000Y-135894000D01*
X63724000Y-135742000D01*
X63109062Y-135742000D01*
X62885596Y-135834562D01*
X62714563Y-136005595D01*
X62622000Y-136229061D01*
X62113045Y-136229061D01*
X64348733Y-133993374D01*
X64390480Y-133965480D01*
X64500989Y-133800090D01*
X64530000Y-133654243D01*
X64530000Y-133654242D01*
X64539795Y-133605000D01*
X64530000Y-133555757D01*
X64530000Y-133211666D01*
X64606568Y-133396518D01*
X64803482Y-133593432D01*
X65060761Y-133700000D01*
X65266589Y-133700000D01*
X65200000Y-133860761D01*
X65200000Y-134139239D01*
X65306568Y-134396518D01*
X65503482Y-134593432D01*
X65760761Y-134700000D01*
X66039239Y-134700000D01*
X66142964Y-134657036D01*
X66100000Y-134760761D01*
X66100000Y-135039239D01*
X66206568Y-135296518D01*
X66403482Y-135493432D01*
X66660761Y-135600000D01*
X66939239Y-135600000D01*
X67196518Y-135493432D01*
X67364950Y-135325000D01*
X72896247Y-135325000D01*
X72793592Y-135393592D01*
X72769881Y-135429078D01*
X72082758Y-136116201D01*
X72079199Y-136113823D01*
X71758339Y-136050000D01*
X71541661Y-136050000D01*
X71220801Y-136113823D01*
X70856944Y-136356944D01*
X70613823Y-136720801D01*
X70528450Y-137150000D01*
X70613823Y-137579199D01*
X70856944Y-137943056D01*
X71220801Y-138186177D01*
X71541661Y-138250000D01*
X71758339Y-138250000D01*
X72079199Y-138186177D01*
X72443056Y-137943056D01*
X72686177Y-137579199D01*
X72771550Y-137150000D01*
X72686177Y-136720801D01*
X72683799Y-136717242D01*
X73276041Y-136125000D01*
X73744073Y-136125000D01*
X73396944Y-136356944D01*
X73153823Y-136720801D01*
X73068450Y-137150000D01*
X73153823Y-137579199D01*
X73396944Y-137943056D01*
X73760801Y-138186177D01*
X74081661Y-138250000D01*
X74298339Y-138250000D01*
X74619199Y-138186177D01*
X74983056Y-137943056D01*
X75226177Y-137579199D01*
X75311550Y-137150000D01*
X75226177Y-136720801D01*
X74983056Y-136356944D01*
X74635927Y-136125000D01*
X76284073Y-136125000D01*
X75936944Y-136356944D01*
X75693823Y-136720801D01*
X75608450Y-137150000D01*
X75693823Y-137579199D01*
X75936944Y-137943056D01*
X76300801Y-138186177D01*
X76621661Y-138250000D01*
X76838339Y-138250000D01*
X77159199Y-138186177D01*
X77523056Y-137943056D01*
X77766177Y-137579199D01*
X77851550Y-137150000D01*
X77766177Y-136720801D01*
X77523056Y-136356944D01*
X77175927Y-136125000D01*
X78824073Y-136125000D01*
X78476944Y-136356944D01*
X78233823Y-136720801D01*
X78148450Y-137150000D01*
X78233823Y-137579199D01*
X78476944Y-137943056D01*
X78840801Y-138186177D01*
X79161661Y-138250000D01*
X79378339Y-138250000D01*
X79699199Y-138186177D01*
X80063056Y-137943056D01*
X80306177Y-137579199D01*
X80391550Y-137150000D01*
X80306177Y-136720801D01*
X80063056Y-136356944D01*
X79715927Y-136125000D01*
X81364073Y-136125000D01*
X81016944Y-136356944D01*
X80773823Y-136720801D01*
X80688450Y-137150000D01*
X80773823Y-137579199D01*
X81016944Y-137943056D01*
X81380801Y-138186177D01*
X81701661Y-138250000D01*
X81918339Y-138250000D01*
X82239199Y-138186177D01*
X82603056Y-137943056D01*
X82846177Y-137579199D01*
X82931550Y-137150000D01*
X82846177Y-136720801D01*
X82603056Y-136356944D01*
X82255927Y-136125000D01*
X83904073Y-136125000D01*
X83556944Y-136356944D01*
X83313823Y-136720801D01*
X83228450Y-137150000D01*
X83313823Y-137579199D01*
X83556944Y-137943056D01*
X83920801Y-138186177D01*
X84241661Y-138250000D01*
X84458339Y-138250000D01*
X84779199Y-138186177D01*
X85143056Y-137943056D01*
X85386177Y-137579199D01*
X85471550Y-137150000D01*
X85386177Y-136720801D01*
X85143056Y-136356944D01*
X84783523Y-136116712D01*
X84865827Y-136100341D01*
X85006408Y-136006408D01*
X85030121Y-135970919D01*
X86801041Y-134200000D01*
X87039239Y-134200000D01*
X87296518Y-134093432D01*
X87493432Y-133896518D01*
X87600000Y-133639239D01*
X87600000Y-133360761D01*
X87493432Y-133103482D01*
X87296518Y-132906568D01*
X87039239Y-132800000D01*
X86760761Y-132800000D01*
X86503482Y-132906568D01*
X86306568Y-133103482D01*
X86200000Y-133360761D01*
X86200000Y-133598959D01*
X84523960Y-135275000D01*
X81723753Y-135275000D01*
X81826408Y-135206408D01*
X81850121Y-135170919D01*
X86457242Y-130563799D01*
X86460801Y-130566177D01*
X86781661Y-130630000D01*
X86998339Y-130630000D01*
X87319199Y-130566177D01*
X87683056Y-130323056D01*
X87926177Y-129959199D01*
X88011550Y-129530000D01*
X87926177Y-129100801D01*
X87745233Y-128829999D01*
X89653176Y-128829999D01*
X89438823Y-129150801D01*
X89353450Y-129580000D01*
X89438823Y-130009199D01*
X89441201Y-130012758D01*
X88129079Y-131324881D01*
X88093593Y-131348592D01*
X88069882Y-131384078D01*
X87999659Y-131489174D01*
X87966674Y-131655000D01*
X87975001Y-131696862D01*
X87975001Y-134285051D01*
X87896518Y-134206568D01*
X87639239Y-134100000D01*
X87360761Y-134100000D01*
X87103482Y-134206568D01*
X86906568Y-134403482D01*
X86800000Y-134660761D01*
X86800000Y-134939239D01*
X86906568Y-135196518D01*
X87008820Y-135298770D01*
X86619079Y-135688511D01*
X86583593Y-135712222D01*
X86559882Y-135747708D01*
X86489659Y-135852804D01*
X86456674Y-136018630D01*
X86465001Y-136060492D01*
X86465001Y-136112988D01*
X86460801Y-136113823D01*
X86096944Y-136356944D01*
X85853823Y-136720801D01*
X85768450Y-137150000D01*
X85853823Y-137579199D01*
X86096944Y-137943056D01*
X86460801Y-138186177D01*
X86781661Y-138250000D01*
X86998339Y-138250000D01*
X87319199Y-138186177D01*
X87683056Y-137943056D01*
X87926177Y-137579199D01*
X87975000Y-137333748D01*
X87975000Y-138623960D01*
X87223960Y-139375000D01*
X82961857Y-139375000D01*
X82920000Y-139366674D01*
X82878142Y-139375000D01*
X82754173Y-139399659D01*
X82613592Y-139493592D01*
X82589879Y-139529081D01*
X80642757Y-141476203D01*
X80563065Y-141356935D01*
X80382726Y-141236437D01*
X80170001Y-141194123D01*
X79519999Y-141194123D01*
X79307274Y-141236437D01*
X79126935Y-141356935D01*
X79006437Y-141537274D01*
X78978000Y-141680235D01*
X78978000Y-141379062D01*
X78885438Y-141155596D01*
X78714405Y-140984563D01*
X78490939Y-140892000D01*
X78101000Y-140892000D01*
X77949000Y-141044000D01*
X77949000Y-142046000D01*
X77969000Y-142046000D01*
X77969000Y-142354000D01*
X77949000Y-142354000D01*
X77949000Y-143356000D01*
X78101000Y-143508000D01*
X78490939Y-143508000D01*
X78714405Y-143415437D01*
X78885438Y-143244404D01*
X78978000Y-143020938D01*
X78978000Y-142719765D01*
X79006437Y-142862726D01*
X79126935Y-143043065D01*
X79307274Y-143163563D01*
X79519999Y-143205877D01*
X80170001Y-143205877D01*
X80382726Y-143163563D01*
X80563065Y-143043065D01*
X80683563Y-142862726D01*
X80725877Y-142650001D01*
X80725877Y-142573581D01*
X80826408Y-142506408D01*
X80826680Y-142506000D01*
X90452000Y-142506000D01*
X90452000Y-143020938D01*
X90544562Y-143244404D01*
X90715595Y-143415437D01*
X90939061Y-143508000D01*
X91329000Y-143508000D01*
X91481000Y-143356000D01*
X91481000Y-142354000D01*
X90604000Y-142354000D01*
X90452000Y-142506000D01*
X80826680Y-142506000D01*
X80850121Y-142470919D01*
X81941978Y-141379062D01*
X90452000Y-141379062D01*
X90452000Y-141894000D01*
X90604000Y-142046000D01*
X91481000Y-142046000D01*
X91481000Y-141044000D01*
X91329000Y-140892000D01*
X90939061Y-140892000D01*
X90715595Y-140984563D01*
X90544562Y-141155596D01*
X90452000Y-141379062D01*
X81941978Y-141379062D01*
X83096040Y-140225000D01*
X87358143Y-140225000D01*
X87400000Y-140233326D01*
X87441857Y-140225000D01*
X87441858Y-140225000D01*
X87565827Y-140200341D01*
X87706408Y-140106408D01*
X87730121Y-140070919D01*
X88670920Y-139130120D01*
X88706408Y-139106408D01*
X88800341Y-138965827D01*
X88825000Y-138841858D01*
X88825000Y-138841857D01*
X88833326Y-138800000D01*
X88825000Y-138758143D01*
X88825000Y-136981196D01*
X89375000Y-136981196D01*
X89375000Y-137418804D01*
X89542465Y-137823100D01*
X89851900Y-138132535D01*
X90256196Y-138300000D01*
X90693804Y-138300000D01*
X91098100Y-138132535D01*
X91407535Y-137823100D01*
X91575000Y-137418804D01*
X91575000Y-136981196D01*
X91407535Y-136576900D01*
X91098100Y-136267465D01*
X90693804Y-136100000D01*
X90256196Y-136100000D01*
X89851900Y-136267465D01*
X89542465Y-136576900D01*
X89375000Y-136981196D01*
X88825000Y-136981196D01*
X88825000Y-131831040D01*
X90042242Y-130613799D01*
X90045801Y-130616177D01*
X90366661Y-130680000D01*
X90583339Y-130680000D01*
X90904199Y-130616177D01*
X91268056Y-130373056D01*
X91511177Y-130009199D01*
X91596550Y-129580000D01*
X91511177Y-129150801D01*
X91296824Y-128829999D01*
X93198176Y-128829999D01*
X92983823Y-129150801D01*
X92898450Y-129580000D01*
X92983823Y-130009199D01*
X92986201Y-130012758D01*
X92129079Y-130869881D01*
X92093593Y-130893592D01*
X92069882Y-130929078D01*
X91999659Y-131034174D01*
X91966674Y-131200000D01*
X91975001Y-131241862D01*
X91975000Y-140073143D01*
X91966674Y-140115000D01*
X91990211Y-140233326D01*
X91999659Y-140280826D01*
X92093592Y-140421408D01*
X92129081Y-140445121D01*
X93011270Y-141327311D01*
X92966935Y-141356935D01*
X92846437Y-141537274D01*
X92818000Y-141680235D01*
X92818000Y-141379062D01*
X92725438Y-141155596D01*
X92554405Y-140984563D01*
X92330939Y-140892000D01*
X91941000Y-140892000D01*
X91789000Y-141044000D01*
X91789000Y-142046000D01*
X91809000Y-142046000D01*
X91809000Y-142354000D01*
X91789000Y-142354000D01*
X91789000Y-143356000D01*
X91941000Y-143508000D01*
X92330939Y-143508000D01*
X92554405Y-143415437D01*
X92725438Y-143244404D01*
X92818000Y-143020938D01*
X92818000Y-142719765D01*
X92846437Y-142862726D01*
X92966935Y-143043065D01*
X93147274Y-143163563D01*
X93359999Y-143205877D01*
X94010001Y-143205877D01*
X94222726Y-143163563D01*
X94403065Y-143043065D01*
X94523563Y-142862726D01*
X94565877Y-142650001D01*
X94565877Y-142506000D01*
X104292000Y-142506000D01*
X104292000Y-143020938D01*
X104384562Y-143244404D01*
X104555595Y-143415437D01*
X104779061Y-143508000D01*
X105169000Y-143508000D01*
X105321000Y-143356000D01*
X105321000Y-142354000D01*
X104444000Y-142354000D01*
X104292000Y-142506000D01*
X94565877Y-142506000D01*
X94565877Y-141749999D01*
X94523563Y-141537274D01*
X94417850Y-141379062D01*
X104292000Y-141379062D01*
X104292000Y-141894000D01*
X104444000Y-142046000D01*
X105321000Y-142046000D01*
X105321000Y-141044000D01*
X105169000Y-140892000D01*
X104779061Y-140892000D01*
X104555595Y-140984563D01*
X104384562Y-141155596D01*
X104292000Y-141379062D01*
X94417850Y-141379062D01*
X94403065Y-141356935D01*
X94222726Y-141236437D01*
X94066027Y-141205267D01*
X93991408Y-141093592D01*
X93955922Y-141069881D01*
X92825000Y-139938960D01*
X92825000Y-136981196D01*
X92920000Y-136981196D01*
X92920000Y-137418804D01*
X93087465Y-137823100D01*
X93396900Y-138132535D01*
X93801196Y-138300000D01*
X94238804Y-138300000D01*
X94643100Y-138132535D01*
X94952535Y-137823100D01*
X95120000Y-137418804D01*
X95120000Y-136981196D01*
X94952535Y-136576900D01*
X94643100Y-136267465D01*
X94425000Y-136177125D01*
X94425000Y-132664950D01*
X94593432Y-132496518D01*
X94700000Y-132239239D01*
X94700000Y-131960761D01*
X94593432Y-131703482D01*
X94396518Y-131506568D01*
X94139239Y-131400000D01*
X93860761Y-131400000D01*
X93603482Y-131506568D01*
X93406568Y-131703482D01*
X93300000Y-131960761D01*
X93300000Y-132239239D01*
X93406568Y-132496518D01*
X93575000Y-132664950D01*
X93575001Y-136193693D01*
X93396900Y-136267465D01*
X93087465Y-136576900D01*
X92920000Y-136981196D01*
X92825000Y-136981196D01*
X92825000Y-131376040D01*
X93587242Y-130613799D01*
X93590801Y-130616177D01*
X93911661Y-130680000D01*
X94128339Y-130680000D01*
X94449199Y-130616177D01*
X94813056Y-130373056D01*
X95056177Y-130009199D01*
X95141550Y-129580000D01*
X95056177Y-129150801D01*
X94841824Y-128829999D01*
X96743176Y-128829999D01*
X96528823Y-129150801D01*
X96443450Y-129580000D01*
X96528823Y-130009199D01*
X96771944Y-130373056D01*
X97135801Y-130616177D01*
X97140000Y-130617012D01*
X97140000Y-130753227D01*
X97140001Y-130753232D01*
X97140000Y-135278144D01*
X97131674Y-135320002D01*
X97149535Y-135409795D01*
X97164659Y-135485828D01*
X97258592Y-135626410D01*
X97294081Y-135650123D01*
X97743958Y-136100000D01*
X97346196Y-136100000D01*
X96941900Y-136267465D01*
X96632465Y-136576900D01*
X96465000Y-136981196D01*
X96465000Y-137418804D01*
X96632465Y-137823100D01*
X96941900Y-138132535D01*
X97346196Y-138300000D01*
X97783804Y-138300000D01*
X98188100Y-138132535D01*
X98497535Y-137823100D01*
X98665000Y-137418804D01*
X98665000Y-137021042D01*
X101014879Y-139370922D01*
X101038590Y-139406408D01*
X101179171Y-139500341D01*
X101303140Y-139525000D01*
X101303141Y-139525000D01*
X101344997Y-139533326D01*
X101386853Y-139525000D01*
X105048960Y-139525000D01*
X106851270Y-141327311D01*
X106806935Y-141356935D01*
X106686437Y-141537274D01*
X106658000Y-141680235D01*
X106658000Y-141379062D01*
X106565438Y-141155596D01*
X106394405Y-140984563D01*
X106170939Y-140892000D01*
X105781000Y-140892000D01*
X105629000Y-141044000D01*
X105629000Y-142046000D01*
X105649000Y-142046000D01*
X105649000Y-142354000D01*
X105629000Y-142354000D01*
X105629000Y-143356000D01*
X105781000Y-143508000D01*
X106170939Y-143508000D01*
X106394405Y-143415437D01*
X106565438Y-143244404D01*
X106658000Y-143020938D01*
X106658000Y-142719765D01*
X106686437Y-142862726D01*
X106806935Y-143043065D01*
X106987274Y-143163563D01*
X107199999Y-143205877D01*
X107850001Y-143205877D01*
X108062726Y-143163563D01*
X108243065Y-143043065D01*
X108363563Y-142862726D01*
X108405877Y-142650001D01*
X108405877Y-141749999D01*
X108363563Y-141537274D01*
X108243065Y-141356935D01*
X108062726Y-141236437D01*
X107906027Y-141205267D01*
X107831408Y-141093592D01*
X107795922Y-141069881D01*
X105555121Y-138829081D01*
X105531408Y-138793592D01*
X105390827Y-138699659D01*
X105266858Y-138675000D01*
X105266857Y-138675000D01*
X105225000Y-138666674D01*
X105183143Y-138675000D01*
X101521039Y-138675000D01*
X101146039Y-138300000D01*
X101328804Y-138300000D01*
X101733100Y-138132535D01*
X102042535Y-137823100D01*
X102210000Y-137418804D01*
X102210000Y-136981196D01*
X103555000Y-136981196D01*
X103555000Y-137418804D01*
X103722465Y-137823100D01*
X104031900Y-138132535D01*
X104436196Y-138300000D01*
X104873804Y-138300000D01*
X105278100Y-138132535D01*
X105587535Y-137823100D01*
X105755000Y-137418804D01*
X105755000Y-136981196D01*
X105587535Y-136576900D01*
X105278100Y-136267465D01*
X104873804Y-136100000D01*
X104436196Y-136100000D01*
X104031900Y-136267465D01*
X103722465Y-136576900D01*
X103555000Y-136981196D01*
X102210000Y-136981196D01*
X102042535Y-136576900D01*
X101733100Y-136267465D01*
X101328804Y-136100000D01*
X100891196Y-136100000D01*
X100486900Y-136267465D01*
X100177465Y-136576900D01*
X100010000Y-136981196D01*
X100010000Y-137163961D01*
X97990000Y-135143962D01*
X97990000Y-130617012D01*
X97994199Y-130616177D01*
X98358056Y-130373056D01*
X98601177Y-130009199D01*
X98686550Y-129580000D01*
X98601177Y-129150801D01*
X98386824Y-128829999D01*
X100288176Y-128829999D01*
X100073823Y-129150801D01*
X99988450Y-129580000D01*
X100073823Y-130009199D01*
X100316944Y-130373056D01*
X100680801Y-130616177D01*
X100685000Y-130617012D01*
X100685000Y-130753227D01*
X100685001Y-130753231D01*
X100685000Y-131313142D01*
X100676674Y-131355000D01*
X100685000Y-131396857D01*
X100709659Y-131520826D01*
X100803592Y-131661408D01*
X100839081Y-131685121D01*
X106644879Y-137490919D01*
X106668592Y-137526408D01*
X106779241Y-137600341D01*
X106809173Y-137620341D01*
X106919123Y-137642211D01*
X106919123Y-138000000D01*
X106942407Y-138117054D01*
X107008712Y-138216288D01*
X107107946Y-138282593D01*
X107225000Y-138305877D01*
X107875000Y-138305877D01*
X107992054Y-138282593D01*
X108091288Y-138216288D01*
X108157593Y-138117054D01*
X108180877Y-138000000D01*
X108180877Y-136440000D01*
X108819123Y-136440000D01*
X108819123Y-138000000D01*
X108842407Y-138117054D01*
X108908712Y-138216288D01*
X109007946Y-138282593D01*
X109125000Y-138305877D01*
X109775000Y-138305877D01*
X109892054Y-138282593D01*
X109991288Y-138216288D01*
X110057593Y-138117054D01*
X110080877Y-138000000D01*
X110080877Y-136440000D01*
X110057593Y-136322946D01*
X109991288Y-136223712D01*
X109892054Y-136157407D01*
X109775000Y-136134123D01*
X109125000Y-136134123D01*
X109007946Y-136157407D01*
X108908712Y-136223712D01*
X108842407Y-136322946D01*
X108819123Y-136440000D01*
X108180877Y-136440000D01*
X108157593Y-136322946D01*
X108091288Y-136223712D01*
X107992054Y-136157407D01*
X107875000Y-136134123D01*
X107225000Y-136134123D01*
X107107946Y-136157407D01*
X107008712Y-136223712D01*
X106942407Y-136322946D01*
X106919123Y-136440000D01*
X106919123Y-136563083D01*
X105182040Y-134826000D01*
X106617000Y-134826000D01*
X106617000Y-135420939D01*
X106709563Y-135644405D01*
X106880596Y-135815438D01*
X107104062Y-135908000D01*
X107244000Y-135908000D01*
X107396000Y-135756000D01*
X107396000Y-134674000D01*
X106769000Y-134674000D01*
X106617000Y-134826000D01*
X105182040Y-134826000D01*
X103975101Y-133619061D01*
X106617000Y-133619061D01*
X106617000Y-134214000D01*
X106769000Y-134366000D01*
X107396000Y-134366000D01*
X107396000Y-133284000D01*
X107704000Y-133284000D01*
X107704000Y-134366000D01*
X107724000Y-134366000D01*
X107724000Y-134674000D01*
X107704000Y-134674000D01*
X107704000Y-135756000D01*
X107856000Y-135908000D01*
X107995938Y-135908000D01*
X108219404Y-135815438D01*
X108390437Y-135644405D01*
X108406396Y-135605877D01*
X108825000Y-135605877D01*
X108942054Y-135582593D01*
X108975000Y-135560580D01*
X109007946Y-135582593D01*
X109125000Y-135605877D01*
X109775000Y-135605877D01*
X109892054Y-135582593D01*
X109991288Y-135516288D01*
X110057593Y-135417054D01*
X110080877Y-135300000D01*
X110080877Y-133740000D01*
X110057593Y-133622946D01*
X109991288Y-133523712D01*
X109892054Y-133457407D01*
X109775000Y-133434123D01*
X109125000Y-133434123D01*
X109007946Y-133457407D01*
X108975000Y-133479420D01*
X108942054Y-133457407D01*
X108925000Y-133454015D01*
X108925000Y-133064950D01*
X109093432Y-132896518D01*
X109200000Y-132639239D01*
X109200000Y-132360761D01*
X109093432Y-132103482D01*
X108896518Y-131906568D01*
X108639239Y-131800000D01*
X108360761Y-131800000D01*
X108103482Y-131906568D01*
X107906568Y-132103482D01*
X107800000Y-132360761D01*
X107800000Y-132639239D01*
X107906568Y-132896518D01*
X108075000Y-133064950D01*
X108075000Y-133164748D01*
X107995938Y-133132000D01*
X107856000Y-133132000D01*
X107704000Y-133284000D01*
X107396000Y-133284000D01*
X107244000Y-133132000D01*
X107104062Y-133132000D01*
X106880596Y-133224562D01*
X106709563Y-133395595D01*
X106617000Y-133619061D01*
X103975101Y-133619061D01*
X101535000Y-131178960D01*
X101535000Y-130617012D01*
X101539199Y-130616177D01*
X101903056Y-130373056D01*
X102146177Y-130009199D01*
X102157744Y-129951044D01*
X103296757Y-129951044D01*
X103542139Y-130442577D01*
X103956944Y-130802791D01*
X104283958Y-130938231D01*
X104501000Y-130826523D01*
X104501000Y-129734000D01*
X104809000Y-129734000D01*
X104809000Y-130826523D01*
X105026042Y-130938231D01*
X105353056Y-130802791D01*
X105767861Y-130442577D01*
X106013243Y-129951044D01*
X105902565Y-129734000D01*
X104809000Y-129734000D01*
X104501000Y-129734000D01*
X103407435Y-129734000D01*
X103296757Y-129951044D01*
X102157744Y-129951044D01*
X102231550Y-129580000D01*
X102146177Y-129150801D01*
X101931824Y-128829999D01*
X103485939Y-128829999D01*
X103296757Y-129208956D01*
X103407435Y-129426000D01*
X104501000Y-129426000D01*
X104501000Y-129406000D01*
X104809000Y-129406000D01*
X104809000Y-129426000D01*
X105902565Y-129426000D01*
X106013243Y-129208956D01*
X105824061Y-128829999D01*
X109628959Y-128829999D01*
X110875000Y-130076041D01*
X110875001Y-147558138D01*
X110866674Y-147600000D01*
X110899659Y-147765826D01*
X110899660Y-147765827D01*
X110993593Y-147906408D01*
X111029079Y-147930119D01*
X113528982Y-150430023D01*
X113400000Y-150741414D01*
X113400000Y-151258586D01*
X113597913Y-151736391D01*
X113963609Y-152102087D01*
X114275001Y-152231069D01*
X114275000Y-156127644D01*
X114275001Y-156127649D01*
X114275001Y-156268930D01*
X113963609Y-156397913D01*
X113597913Y-156763609D01*
X113400000Y-157241414D01*
X113400000Y-157758586D01*
X113597913Y-158236391D01*
X113963609Y-158602087D01*
X114441414Y-158800000D01*
X114958586Y-158800000D01*
X115308488Y-158655066D01*
X118262723Y-158655066D01*
X118365174Y-158911040D01*
X118968703Y-159123105D01*
X119607445Y-159088067D01*
X120034826Y-158911040D01*
X120137277Y-158655066D01*
X119200000Y-157717789D01*
X118262723Y-158655066D01*
X115308488Y-158655066D01*
X115436391Y-158602087D01*
X115802087Y-158236391D01*
X116000000Y-157758586D01*
X116000000Y-157268703D01*
X117576895Y-157268703D01*
X117611933Y-157907445D01*
X117788960Y-158334826D01*
X118044934Y-158437277D01*
X118982211Y-157500000D01*
X119417789Y-157500000D01*
X120355066Y-158437277D01*
X120611040Y-158334826D01*
X120823105Y-157731297D01*
X120788067Y-157092555D01*
X120611040Y-156665174D01*
X120355066Y-156562723D01*
X119417789Y-157500000D01*
X118982211Y-157500000D01*
X118044934Y-156562723D01*
X117788960Y-156665174D01*
X117576895Y-157268703D01*
X116000000Y-157268703D01*
X116000000Y-157241414D01*
X115802087Y-156763609D01*
X115436391Y-156397913D01*
X115308489Y-156344934D01*
X118262723Y-156344934D01*
X119200000Y-157282211D01*
X120137277Y-156344934D01*
X120034826Y-156088960D01*
X119431297Y-155876895D01*
X118792555Y-155911933D01*
X118365174Y-156088960D01*
X118262723Y-156344934D01*
X115308489Y-156344934D01*
X115125000Y-156268931D01*
X115125000Y-152231069D01*
X115308488Y-152155066D01*
X118262723Y-152155066D01*
X118365174Y-152411040D01*
X118968703Y-152623105D01*
X119607445Y-152588067D01*
X120034826Y-152411040D01*
X120137277Y-152155066D01*
X119200000Y-151217789D01*
X118262723Y-152155066D01*
X115308488Y-152155066D01*
X115436391Y-152102087D01*
X115802087Y-151736391D01*
X116000000Y-151258586D01*
X116000000Y-150768703D01*
X117576895Y-150768703D01*
X117611933Y-151407445D01*
X117788960Y-151834826D01*
X118044934Y-151937277D01*
X118982211Y-151000000D01*
X119417789Y-151000000D01*
X120355066Y-151937277D01*
X120611040Y-151834826D01*
X120823105Y-151231297D01*
X120788067Y-150592555D01*
X120611040Y-150165174D01*
X120355066Y-150062723D01*
X119417789Y-151000000D01*
X118982211Y-151000000D01*
X118044934Y-150062723D01*
X117788960Y-150165174D01*
X117576895Y-150768703D01*
X116000000Y-150768703D01*
X116000000Y-150741414D01*
X115802087Y-150263609D01*
X115436391Y-149897913D01*
X115308489Y-149844934D01*
X118262723Y-149844934D01*
X119200000Y-150782211D01*
X120137277Y-149844934D01*
X120034826Y-149588960D01*
X119431297Y-149376895D01*
X118792555Y-149411933D01*
X118365174Y-149588960D01*
X118262723Y-149844934D01*
X115308489Y-149844934D01*
X114958586Y-149700000D01*
X114441414Y-149700000D01*
X114130023Y-149828982D01*
X111725000Y-147423960D01*
X111725000Y-129941855D01*
X111733326Y-129899999D01*
X111723564Y-129850922D01*
X111700341Y-129734173D01*
X111634311Y-129635352D01*
X111875000Y-129876041D01*
X111875001Y-143458138D01*
X111866674Y-143500000D01*
X111899659Y-143665826D01*
X111899660Y-143665827D01*
X111993593Y-143806408D01*
X112029079Y-143830119D01*
X115869881Y-147670922D01*
X115893592Y-147706408D01*
X115929077Y-147730118D01*
X116034173Y-147800341D01*
X116200000Y-147833326D01*
X116241857Y-147825000D01*
X118873960Y-147825000D01*
X121478982Y-150430023D01*
X121350000Y-150741414D01*
X121350000Y-151258586D01*
X121547913Y-151736391D01*
X121913609Y-152102087D01*
X122225001Y-152231069D01*
X122225000Y-156127644D01*
X122225001Y-156127649D01*
X122225001Y-156268930D01*
X121913609Y-156397913D01*
X121547913Y-156763609D01*
X121350000Y-157241414D01*
X121350000Y-157758586D01*
X121547913Y-158236391D01*
X121913609Y-158602087D01*
X122391414Y-158800000D01*
X122908586Y-158800000D01*
X123258488Y-158655066D01*
X126212723Y-158655066D01*
X126315174Y-158911040D01*
X126918703Y-159123105D01*
X127557445Y-159088067D01*
X127984826Y-158911040D01*
X128087277Y-158655066D01*
X127150000Y-157717789D01*
X126212723Y-158655066D01*
X123258488Y-158655066D01*
X123386391Y-158602087D01*
X123752087Y-158236391D01*
X123950000Y-157758586D01*
X123950000Y-157268703D01*
X125526895Y-157268703D01*
X125561933Y-157907445D01*
X125738960Y-158334826D01*
X125994934Y-158437277D01*
X126932211Y-157500000D01*
X127367789Y-157500000D01*
X128305066Y-158437277D01*
X128561040Y-158334826D01*
X128773105Y-157731297D01*
X128738067Y-157092555D01*
X128561040Y-156665174D01*
X128305066Y-156562723D01*
X127367789Y-157500000D01*
X126932211Y-157500000D01*
X125994934Y-156562723D01*
X125738960Y-156665174D01*
X125526895Y-157268703D01*
X123950000Y-157268703D01*
X123950000Y-157241414D01*
X123752087Y-156763609D01*
X123386391Y-156397913D01*
X123258489Y-156344934D01*
X126212723Y-156344934D01*
X127150000Y-157282211D01*
X128087277Y-156344934D01*
X127984826Y-156088960D01*
X127381297Y-155876895D01*
X126742555Y-155911933D01*
X126315174Y-156088960D01*
X126212723Y-156344934D01*
X123258489Y-156344934D01*
X123075000Y-156268931D01*
X123075000Y-152231069D01*
X123258488Y-152155066D01*
X126212723Y-152155066D01*
X126315174Y-152411040D01*
X126918703Y-152623105D01*
X127557445Y-152588067D01*
X127984826Y-152411040D01*
X128087277Y-152155066D01*
X127150000Y-151217789D01*
X126212723Y-152155066D01*
X123258488Y-152155066D01*
X123386391Y-152102087D01*
X123752087Y-151736391D01*
X123950000Y-151258586D01*
X123950000Y-150768703D01*
X125526895Y-150768703D01*
X125561933Y-151407445D01*
X125738960Y-151834826D01*
X125994934Y-151937277D01*
X126932211Y-151000000D01*
X127367789Y-151000000D01*
X128305066Y-151937277D01*
X128561040Y-151834826D01*
X128773105Y-151231297D01*
X128738067Y-150592555D01*
X128561040Y-150165174D01*
X128305066Y-150062723D01*
X127367789Y-151000000D01*
X126932211Y-151000000D01*
X125994934Y-150062723D01*
X125738960Y-150165174D01*
X125526895Y-150768703D01*
X123950000Y-150768703D01*
X123950000Y-150741414D01*
X123752087Y-150263609D01*
X123386391Y-149897913D01*
X123258489Y-149844934D01*
X126212723Y-149844934D01*
X127150000Y-150782211D01*
X128087277Y-149844934D01*
X127984826Y-149588960D01*
X127381297Y-149376895D01*
X126742555Y-149411933D01*
X126315174Y-149588960D01*
X126212723Y-149844934D01*
X123258489Y-149844934D01*
X122908586Y-149700000D01*
X122391414Y-149700000D01*
X122080023Y-149828982D01*
X119380121Y-147129081D01*
X119356408Y-147093592D01*
X119215827Y-146999659D01*
X119091858Y-146975000D01*
X119091857Y-146975000D01*
X119050000Y-146966674D01*
X119008143Y-146975000D01*
X116376041Y-146975000D01*
X112725000Y-143323960D01*
X112725000Y-142989829D01*
X115853120Y-142989829D01*
X115853120Y-143606331D01*
X116089045Y-144175903D01*
X116524977Y-144611835D01*
X117094549Y-144847760D01*
X117711051Y-144847760D01*
X118280623Y-144611835D01*
X118716555Y-144175903D01*
X118952480Y-143606331D01*
X118952480Y-142989829D01*
X118716555Y-142420257D01*
X118280623Y-141984325D01*
X117711051Y-141748400D01*
X117094549Y-141748400D01*
X116524977Y-141984325D01*
X116089045Y-142420257D01*
X115853120Y-142989829D01*
X112725000Y-142989829D01*
X112725000Y-140487929D01*
X113351220Y-140487929D01*
X113351220Y-141104431D01*
X113587145Y-141674003D01*
X114023077Y-142109935D01*
X114592649Y-142345860D01*
X115209151Y-142345860D01*
X115778723Y-142109935D01*
X116214655Y-141674003D01*
X116450580Y-141104431D01*
X116450580Y-140493009D01*
X125848020Y-140493009D01*
X125848020Y-141109511D01*
X126083945Y-141679083D01*
X126519877Y-142115015D01*
X127089449Y-142350940D01*
X127705951Y-142350940D01*
X128275523Y-142115015D01*
X128711455Y-141679083D01*
X128947380Y-141109511D01*
X128947380Y-140493009D01*
X128711455Y-139923437D01*
X128275523Y-139487505D01*
X127705951Y-139251580D01*
X127089449Y-139251580D01*
X126519877Y-139487505D01*
X126083945Y-139923437D01*
X125848020Y-140493009D01*
X116450580Y-140493009D01*
X116450580Y-140487929D01*
X116214655Y-139918357D01*
X115778723Y-139482425D01*
X115209151Y-139246500D01*
X114592649Y-139246500D01*
X114023077Y-139482425D01*
X113587145Y-139918357D01*
X113351220Y-140487929D01*
X112725000Y-140487929D01*
X112725000Y-135491749D01*
X115850580Y-135491749D01*
X115850580Y-136108251D01*
X116086505Y-136677823D01*
X116522437Y-137113755D01*
X117092009Y-137349680D01*
X117708511Y-137349680D01*
X118278083Y-137113755D01*
X118714015Y-136677823D01*
X118949940Y-136108251D01*
X118949940Y-135491749D01*
X118714015Y-134922177D01*
X118278083Y-134486245D01*
X117708511Y-134250320D01*
X117092009Y-134250320D01*
X116522437Y-134486245D01*
X116086505Y-134922177D01*
X115850580Y-135491749D01*
X112725000Y-135491749D01*
X112725000Y-130495569D01*
X113351220Y-130495569D01*
X113351220Y-131112071D01*
X113587145Y-131681643D01*
X114023077Y-132117575D01*
X114592649Y-132353500D01*
X115209151Y-132353500D01*
X115778723Y-132117575D01*
X116214655Y-131681643D01*
X116450580Y-131112071D01*
X116450580Y-130495569D01*
X116448476Y-130490489D01*
X125848020Y-130490489D01*
X125848020Y-131106991D01*
X126083945Y-131676563D01*
X126519877Y-132112495D01*
X127089449Y-132348420D01*
X127705951Y-132348420D01*
X128275523Y-132112495D01*
X128711455Y-131676563D01*
X128947380Y-131106991D01*
X128947380Y-130490489D01*
X128711455Y-129920917D01*
X128275523Y-129484985D01*
X127705951Y-129249060D01*
X127089449Y-129249060D01*
X126519877Y-129484985D01*
X126083945Y-129920917D01*
X125848020Y-130490489D01*
X116448476Y-130490489D01*
X116214655Y-129925997D01*
X115778723Y-129490065D01*
X115209151Y-129254140D01*
X114592649Y-129254140D01*
X114023077Y-129490065D01*
X113587145Y-129925997D01*
X113351220Y-130495569D01*
X112725000Y-130495569D01*
X112725000Y-129741857D01*
X112733326Y-129700000D01*
X112700341Y-129534173D01*
X112697553Y-129530000D01*
X112606408Y-129393592D01*
X112570923Y-129369882D01*
X111194710Y-127993669D01*
X115853120Y-127993669D01*
X115853120Y-128610171D01*
X116089045Y-129179743D01*
X116524977Y-129615675D01*
X117094549Y-129851600D01*
X117711051Y-129851600D01*
X118280623Y-129615675D01*
X118716555Y-129179743D01*
X118952480Y-128610171D01*
X118952480Y-127993669D01*
X118716555Y-127424097D01*
X118280623Y-126988165D01*
X117711051Y-126752240D01*
X117094549Y-126752240D01*
X116524977Y-126988165D01*
X116089045Y-127424097D01*
X115853120Y-127993669D01*
X111194710Y-127993669D01*
X109330120Y-126129080D01*
X109330118Y-126129077D01*
X108730121Y-125529081D01*
X108706408Y-125493592D01*
X108566337Y-125400000D01*
X129600001Y-125400000D01*
X129600000Y-159600000D01*
X30400000Y-159600000D01*
X30400000Y-153792230D01*
X30450000Y-153792230D01*
X30450000Y-154607770D01*
X30762094Y-155361232D01*
X31338768Y-155937906D01*
X32092230Y-156250000D01*
X32907770Y-156250000D01*
X33661232Y-155937906D01*
X34237906Y-155361232D01*
X34550000Y-154607770D01*
X34550000Y-153792230D01*
X40050000Y-153792230D01*
X40050000Y-154607770D01*
X40362094Y-155361232D01*
X40938768Y-155937906D01*
X41692230Y-156250000D01*
X42507770Y-156250000D01*
X43261232Y-155937906D01*
X43837906Y-155361232D01*
X44150000Y-154607770D01*
X44150000Y-153792230D01*
X44290000Y-153792230D01*
X44290000Y-154607770D01*
X44602094Y-155361232D01*
X45178768Y-155937906D01*
X45932230Y-156250000D01*
X46747770Y-156250000D01*
X47501232Y-155937906D01*
X48077906Y-155361232D01*
X48390000Y-154607770D01*
X48390000Y-153792230D01*
X53890000Y-153792230D01*
X53890000Y-154607770D01*
X54202094Y-155361232D01*
X54778768Y-155937906D01*
X55532230Y-156250000D01*
X56347770Y-156250000D01*
X57101232Y-155937906D01*
X57677906Y-155361232D01*
X57990000Y-154607770D01*
X57990000Y-153792230D01*
X58130000Y-153792230D01*
X58130000Y-154607770D01*
X58442094Y-155361232D01*
X59018768Y-155937906D01*
X59772230Y-156250000D01*
X60587770Y-156250000D01*
X61341232Y-155937906D01*
X61917906Y-155361232D01*
X62230000Y-154607770D01*
X62230000Y-153792230D01*
X67730000Y-153792230D01*
X67730000Y-154607770D01*
X68042094Y-155361232D01*
X68618768Y-155937906D01*
X69372230Y-156250000D01*
X70187770Y-156250000D01*
X70941232Y-155937906D01*
X71517906Y-155361232D01*
X71830000Y-154607770D01*
X71830000Y-153792230D01*
X71970000Y-153792230D01*
X71970000Y-154607770D01*
X72282094Y-155361232D01*
X72858768Y-155937906D01*
X73612230Y-156250000D01*
X74427770Y-156250000D01*
X75181232Y-155937906D01*
X75757906Y-155361232D01*
X76070000Y-154607770D01*
X76070000Y-153792230D01*
X81570000Y-153792230D01*
X81570000Y-154607770D01*
X81882094Y-155361232D01*
X82458768Y-155937906D01*
X83212230Y-156250000D01*
X84027770Y-156250000D01*
X84781232Y-155937906D01*
X85357906Y-155361232D01*
X85670000Y-154607770D01*
X85670000Y-153792230D01*
X85810000Y-153792230D01*
X85810000Y-154607770D01*
X86122094Y-155361232D01*
X86698768Y-155937906D01*
X87452230Y-156250000D01*
X88267770Y-156250000D01*
X89021232Y-155937906D01*
X89597906Y-155361232D01*
X89910000Y-154607770D01*
X89910000Y-153792230D01*
X95410000Y-153792230D01*
X95410000Y-154607770D01*
X95722094Y-155361232D01*
X96298768Y-155937906D01*
X97052230Y-156250000D01*
X97867770Y-156250000D01*
X98621232Y-155937906D01*
X99197906Y-155361232D01*
X99510000Y-154607770D01*
X99510000Y-153792230D01*
X99650000Y-153792230D01*
X99650000Y-154607770D01*
X99962094Y-155361232D01*
X100538768Y-155937906D01*
X101292230Y-156250000D01*
X102107770Y-156250000D01*
X102861232Y-155937906D01*
X103437906Y-155361232D01*
X103750000Y-154607770D01*
X103750000Y-153792230D01*
X109250000Y-153792230D01*
X109250000Y-154607770D01*
X109562094Y-155361232D01*
X110138768Y-155937906D01*
X110892230Y-156250000D01*
X111707770Y-156250000D01*
X112461232Y-155937906D01*
X113037906Y-155361232D01*
X113350000Y-154607770D01*
X113350000Y-153792230D01*
X113037906Y-153038768D01*
X112461232Y-152462094D01*
X111707770Y-152150000D01*
X110892230Y-152150000D01*
X110138768Y-152462094D01*
X109562094Y-153038768D01*
X109250000Y-153792230D01*
X103750000Y-153792230D01*
X103437906Y-153038768D01*
X102861232Y-152462094D01*
X102107770Y-152150000D01*
X101292230Y-152150000D01*
X100538768Y-152462094D01*
X99962094Y-153038768D01*
X99650000Y-153792230D01*
X99510000Y-153792230D01*
X99197906Y-153038768D01*
X98621232Y-152462094D01*
X97867770Y-152150000D01*
X97052230Y-152150000D01*
X96298768Y-152462094D01*
X95722094Y-153038768D01*
X95410000Y-153792230D01*
X89910000Y-153792230D01*
X89597906Y-153038768D01*
X89021232Y-152462094D01*
X88267770Y-152150000D01*
X87452230Y-152150000D01*
X86698768Y-152462094D01*
X86122094Y-153038768D01*
X85810000Y-153792230D01*
X85670000Y-153792230D01*
X85357906Y-153038768D01*
X84781232Y-152462094D01*
X84027770Y-152150000D01*
X83212230Y-152150000D01*
X82458768Y-152462094D01*
X81882094Y-153038768D01*
X81570000Y-153792230D01*
X76070000Y-153792230D01*
X75757906Y-153038768D01*
X75181232Y-152462094D01*
X74427770Y-152150000D01*
X73612230Y-152150000D01*
X72858768Y-152462094D01*
X72282094Y-153038768D01*
X71970000Y-153792230D01*
X71830000Y-153792230D01*
X71517906Y-153038768D01*
X70941232Y-152462094D01*
X70187770Y-152150000D01*
X69372230Y-152150000D01*
X68618768Y-152462094D01*
X68042094Y-153038768D01*
X67730000Y-153792230D01*
X62230000Y-153792230D01*
X61917906Y-153038768D01*
X61341232Y-152462094D01*
X60587770Y-152150000D01*
X59772230Y-152150000D01*
X59018768Y-152462094D01*
X58442094Y-153038768D01*
X58130000Y-153792230D01*
X57990000Y-153792230D01*
X57677906Y-153038768D01*
X57101232Y-152462094D01*
X56347770Y-152150000D01*
X55532230Y-152150000D01*
X54778768Y-152462094D01*
X54202094Y-153038768D01*
X53890000Y-153792230D01*
X48390000Y-153792230D01*
X48077906Y-153038768D01*
X47501232Y-152462094D01*
X46747770Y-152150000D01*
X45932230Y-152150000D01*
X45178768Y-152462094D01*
X44602094Y-153038768D01*
X44290000Y-153792230D01*
X44150000Y-153792230D01*
X43837906Y-153038768D01*
X43261232Y-152462094D01*
X42507770Y-152150000D01*
X41692230Y-152150000D01*
X40938768Y-152462094D01*
X40362094Y-153038768D01*
X40050000Y-153792230D01*
X34550000Y-153792230D01*
X34237906Y-153038768D01*
X33661232Y-152462094D01*
X32907770Y-152150000D01*
X32092230Y-152150000D01*
X31338768Y-152462094D01*
X30762094Y-153038768D01*
X30450000Y-153792230D01*
X30400000Y-153792230D01*
X30400000Y-147568469D01*
X33438343Y-147568469D01*
X33587329Y-148080535D01*
X33920933Y-148496607D01*
X34388367Y-148753343D01*
X34436828Y-148758538D01*
X34646000Y-148646127D01*
X34646000Y-147354000D01*
X34954000Y-147354000D01*
X34954000Y-148646127D01*
X35163172Y-148758538D01*
X35211633Y-148753343D01*
X35679067Y-148496607D01*
X36012671Y-148080535D01*
X36161657Y-147568469D01*
X36011425Y-147354000D01*
X34954000Y-147354000D01*
X34646000Y-147354000D01*
X33588575Y-147354000D01*
X33438343Y-147568469D01*
X30400000Y-147568469D01*
X30400000Y-146831531D01*
X33438343Y-146831531D01*
X33588575Y-147046000D01*
X34646000Y-147046000D01*
X34646000Y-145753873D01*
X34954000Y-145753873D01*
X34954000Y-147046000D01*
X36011425Y-147046000D01*
X36151110Y-146846587D01*
X36250000Y-146846587D01*
X36250000Y-147553412D01*
X36310922Y-147859688D01*
X36542993Y-148207007D01*
X36890311Y-148439078D01*
X37300000Y-148520570D01*
X37709688Y-148439078D01*
X38057007Y-148207007D01*
X38289078Y-147859689D01*
X38350000Y-147553413D01*
X38350000Y-146846588D01*
X38350000Y-146846587D01*
X38750000Y-146846587D01*
X38750000Y-147553412D01*
X38810922Y-147859688D01*
X39042993Y-148207007D01*
X39390311Y-148439078D01*
X39800000Y-148520570D01*
X40209688Y-148439078D01*
X40557007Y-148207007D01*
X40789078Y-147859689D01*
X40847005Y-147568469D01*
X47278343Y-147568469D01*
X47427329Y-148080535D01*
X47760933Y-148496607D01*
X48228367Y-148753343D01*
X48276828Y-148758538D01*
X48486000Y-148646127D01*
X48486000Y-147354000D01*
X48794000Y-147354000D01*
X48794000Y-148646127D01*
X49003172Y-148758538D01*
X49051633Y-148753343D01*
X49519067Y-148496607D01*
X49852671Y-148080535D01*
X50001657Y-147568469D01*
X49851425Y-147354000D01*
X48794000Y-147354000D01*
X48486000Y-147354000D01*
X47428575Y-147354000D01*
X47278343Y-147568469D01*
X40847005Y-147568469D01*
X40850000Y-147553413D01*
X40850000Y-146846588D01*
X40847005Y-146831531D01*
X47278343Y-146831531D01*
X47428575Y-147046000D01*
X48486000Y-147046000D01*
X48486000Y-145753873D01*
X48794000Y-145753873D01*
X48794000Y-147046000D01*
X49851425Y-147046000D01*
X49991110Y-146846587D01*
X50090000Y-146846587D01*
X50090000Y-147553412D01*
X50150922Y-147859688D01*
X50382993Y-148207007D01*
X50730311Y-148439078D01*
X51140000Y-148520570D01*
X51549688Y-148439078D01*
X51897007Y-148207007D01*
X52129078Y-147859689D01*
X52190000Y-147553413D01*
X52190000Y-146846588D01*
X52190000Y-146846587D01*
X52590000Y-146846587D01*
X52590000Y-147553412D01*
X52650922Y-147859688D01*
X52882993Y-148207007D01*
X53230311Y-148439078D01*
X53640000Y-148520570D01*
X54049688Y-148439078D01*
X54397007Y-148207007D01*
X54629078Y-147859689D01*
X54687005Y-147568469D01*
X61118343Y-147568469D01*
X61267329Y-148080535D01*
X61600933Y-148496607D01*
X62068367Y-148753343D01*
X62116828Y-148758538D01*
X62326000Y-148646127D01*
X62326000Y-147354000D01*
X62634000Y-147354000D01*
X62634000Y-148646127D01*
X62843172Y-148758538D01*
X62891633Y-148753343D01*
X63359067Y-148496607D01*
X63692671Y-148080535D01*
X63841657Y-147568469D01*
X63691425Y-147354000D01*
X62634000Y-147354000D01*
X62326000Y-147354000D01*
X61268575Y-147354000D01*
X61118343Y-147568469D01*
X54687005Y-147568469D01*
X54690000Y-147553413D01*
X54690000Y-146846588D01*
X54687005Y-146831531D01*
X61118343Y-146831531D01*
X61268575Y-147046000D01*
X62326000Y-147046000D01*
X62326000Y-145753873D01*
X62634000Y-145753873D01*
X62634000Y-147046000D01*
X63691425Y-147046000D01*
X63831110Y-146846587D01*
X63930000Y-146846587D01*
X63930000Y-147553412D01*
X63990922Y-147859688D01*
X64222993Y-148207007D01*
X64570311Y-148439078D01*
X64980000Y-148520570D01*
X65389688Y-148439078D01*
X65737007Y-148207007D01*
X65969078Y-147859689D01*
X66030000Y-147553413D01*
X66030000Y-146846588D01*
X66030000Y-146846587D01*
X66430000Y-146846587D01*
X66430000Y-147553412D01*
X66490922Y-147859688D01*
X66722993Y-148207007D01*
X67070311Y-148439078D01*
X67480000Y-148520570D01*
X67889688Y-148439078D01*
X68237007Y-148207007D01*
X68469078Y-147859689D01*
X68527005Y-147568469D01*
X74958343Y-147568469D01*
X75107329Y-148080535D01*
X75440933Y-148496607D01*
X75908367Y-148753343D01*
X75956828Y-148758538D01*
X76166000Y-148646127D01*
X76166000Y-147354000D01*
X76474000Y-147354000D01*
X76474000Y-148646127D01*
X76683172Y-148758538D01*
X76731633Y-148753343D01*
X77199067Y-148496607D01*
X77532671Y-148080535D01*
X77681657Y-147568469D01*
X77531425Y-147354000D01*
X76474000Y-147354000D01*
X76166000Y-147354000D01*
X75108575Y-147354000D01*
X74958343Y-147568469D01*
X68527005Y-147568469D01*
X68530000Y-147553413D01*
X68530000Y-146846588D01*
X68527005Y-146831531D01*
X74958343Y-146831531D01*
X75108575Y-147046000D01*
X76166000Y-147046000D01*
X76166000Y-145753873D01*
X76474000Y-145753873D01*
X76474000Y-147046000D01*
X77531425Y-147046000D01*
X77671110Y-146846587D01*
X77770000Y-146846587D01*
X77770000Y-147553412D01*
X77830922Y-147859688D01*
X78062993Y-148207007D01*
X78410311Y-148439078D01*
X78820000Y-148520570D01*
X79229688Y-148439078D01*
X79577007Y-148207007D01*
X79809078Y-147859689D01*
X79870000Y-147553413D01*
X79870000Y-146846588D01*
X79870000Y-146846587D01*
X80270000Y-146846587D01*
X80270000Y-147553412D01*
X80330922Y-147859688D01*
X80562993Y-148207007D01*
X80910311Y-148439078D01*
X81320000Y-148520570D01*
X81729688Y-148439078D01*
X82077007Y-148207007D01*
X82309078Y-147859689D01*
X82367005Y-147568469D01*
X88798343Y-147568469D01*
X88947329Y-148080535D01*
X89280933Y-148496607D01*
X89748367Y-148753343D01*
X89796828Y-148758538D01*
X90006000Y-148646127D01*
X90006000Y-147354000D01*
X90314000Y-147354000D01*
X90314000Y-148646127D01*
X90523172Y-148758538D01*
X90571633Y-148753343D01*
X91039067Y-148496607D01*
X91372671Y-148080535D01*
X91521657Y-147568469D01*
X91371425Y-147354000D01*
X90314000Y-147354000D01*
X90006000Y-147354000D01*
X88948575Y-147354000D01*
X88798343Y-147568469D01*
X82367005Y-147568469D01*
X82370000Y-147553413D01*
X82370000Y-146846588D01*
X82367005Y-146831531D01*
X88798343Y-146831531D01*
X88948575Y-147046000D01*
X90006000Y-147046000D01*
X90006000Y-145753873D01*
X90314000Y-145753873D01*
X90314000Y-147046000D01*
X91371425Y-147046000D01*
X91511110Y-146846587D01*
X91610000Y-146846587D01*
X91610000Y-147553412D01*
X91670922Y-147859688D01*
X91902993Y-148207007D01*
X92250311Y-148439078D01*
X92660000Y-148520570D01*
X93069688Y-148439078D01*
X93417007Y-148207007D01*
X93649078Y-147859689D01*
X93710000Y-147553413D01*
X93710000Y-146846588D01*
X93710000Y-146846587D01*
X94110000Y-146846587D01*
X94110000Y-147553412D01*
X94170922Y-147859688D01*
X94402993Y-148207007D01*
X94750311Y-148439078D01*
X95160000Y-148520570D01*
X95569688Y-148439078D01*
X95917007Y-148207007D01*
X96149078Y-147859689D01*
X96167910Y-147765016D01*
X97821625Y-149418732D01*
X97849520Y-149460480D01*
X98014909Y-149570988D01*
X98014910Y-149570989D01*
X98210000Y-149609795D01*
X98259243Y-149600000D01*
X107300759Y-149600000D01*
X107350000Y-149609795D01*
X107399241Y-149600000D01*
X107399243Y-149600000D01*
X107545090Y-149570989D01*
X107710480Y-149460480D01*
X107738376Y-149418730D01*
X108696839Y-148460268D01*
X109000000Y-148520570D01*
X109409688Y-148439078D01*
X109757007Y-148207007D01*
X109989078Y-147859689D01*
X110050000Y-147553413D01*
X110050000Y-146846588D01*
X109989078Y-146540312D01*
X109757007Y-146192993D01*
X109409689Y-145960922D01*
X109000000Y-145879430D01*
X108590312Y-145960922D01*
X108242994Y-146192993D01*
X108010922Y-146540311D01*
X107950000Y-146846587D01*
X107950000Y-147553412D01*
X107989732Y-147753161D01*
X107142894Y-148600000D01*
X104690821Y-148600000D01*
X104879067Y-148496607D01*
X105212671Y-148080535D01*
X105361657Y-147568469D01*
X105211425Y-147354000D01*
X104154000Y-147354000D01*
X104154000Y-147374000D01*
X103846000Y-147374000D01*
X103846000Y-147354000D01*
X102788575Y-147354000D01*
X102638343Y-147568469D01*
X102787329Y-148080535D01*
X103120933Y-148496607D01*
X103309179Y-148600000D01*
X98417107Y-148600000D01*
X96698376Y-146881270D01*
X96670480Y-146839520D01*
X96658524Y-146831531D01*
X102638343Y-146831531D01*
X102788575Y-147046000D01*
X103846000Y-147046000D01*
X103846000Y-145753873D01*
X104154000Y-145753873D01*
X104154000Y-147046000D01*
X105211425Y-147046000D01*
X105351110Y-146846587D01*
X105450000Y-146846587D01*
X105450000Y-147553412D01*
X105510922Y-147859688D01*
X105742993Y-148207007D01*
X106090311Y-148439078D01*
X106500000Y-148520570D01*
X106909688Y-148439078D01*
X107257007Y-148207007D01*
X107489078Y-147859689D01*
X107550000Y-147553413D01*
X107550000Y-146846588D01*
X107489078Y-146540312D01*
X107257007Y-146192993D01*
X106909689Y-145960922D01*
X106500000Y-145879430D01*
X106090312Y-145960922D01*
X105742994Y-146192993D01*
X105510922Y-146540311D01*
X105450000Y-146846587D01*
X105351110Y-146846587D01*
X105361657Y-146831531D01*
X105212671Y-146319465D01*
X104879067Y-145903393D01*
X104411633Y-145646657D01*
X104363172Y-145641462D01*
X104154000Y-145753873D01*
X103846000Y-145753873D01*
X103636828Y-145641462D01*
X103588367Y-145646657D01*
X103120933Y-145903393D01*
X102787329Y-146319465D01*
X102638343Y-146831531D01*
X96658524Y-146831531D01*
X96505090Y-146729011D01*
X96359243Y-146700000D01*
X96359241Y-146700000D01*
X96310000Y-146690205D01*
X96260759Y-146700000D01*
X96180842Y-146700000D01*
X96149078Y-146540312D01*
X95917007Y-146192993D01*
X95569689Y-145960922D01*
X95160000Y-145879430D01*
X94750312Y-145960922D01*
X94402994Y-146192993D01*
X94170922Y-146540311D01*
X94110000Y-146846587D01*
X93710000Y-146846587D01*
X93649078Y-146540312D01*
X93417007Y-146192993D01*
X93069689Y-145960922D01*
X92660000Y-145879430D01*
X92250312Y-145960922D01*
X91902994Y-146192993D01*
X91670922Y-146540311D01*
X91610000Y-146846587D01*
X91511110Y-146846587D01*
X91521657Y-146831531D01*
X91372671Y-146319465D01*
X91039067Y-145903393D01*
X90571633Y-145646657D01*
X90523172Y-145641462D01*
X90314000Y-145753873D01*
X90006000Y-145753873D01*
X89796828Y-145641462D01*
X89748367Y-145646657D01*
X89280933Y-145903393D01*
X88947329Y-146319465D01*
X88798343Y-146831531D01*
X82367005Y-146831531D01*
X82309078Y-146540312D01*
X82077007Y-146192993D01*
X81729689Y-145960922D01*
X81320000Y-145879430D01*
X80910312Y-145960922D01*
X80562994Y-146192993D01*
X80330922Y-146540311D01*
X80270000Y-146846587D01*
X79870000Y-146846587D01*
X79809078Y-146540312D01*
X79577007Y-146192993D01*
X79229689Y-145960922D01*
X78820000Y-145879430D01*
X78410312Y-145960922D01*
X78062994Y-146192993D01*
X77830922Y-146540311D01*
X77770000Y-146846587D01*
X77671110Y-146846587D01*
X77681657Y-146831531D01*
X77532671Y-146319465D01*
X77199067Y-145903393D01*
X76731633Y-145646657D01*
X76683172Y-145641462D01*
X76474000Y-145753873D01*
X76166000Y-145753873D01*
X75956828Y-145641462D01*
X75908367Y-145646657D01*
X75440933Y-145903393D01*
X75107329Y-146319465D01*
X74958343Y-146831531D01*
X68527005Y-146831531D01*
X68469078Y-146540312D01*
X68237007Y-146192993D01*
X67889689Y-145960922D01*
X67480000Y-145879430D01*
X67070312Y-145960922D01*
X66722994Y-146192993D01*
X66490922Y-146540311D01*
X66430000Y-146846587D01*
X66030000Y-146846587D01*
X65969078Y-146540312D01*
X65737007Y-146192993D01*
X65389689Y-145960922D01*
X64980000Y-145879430D01*
X64570312Y-145960922D01*
X64222994Y-146192993D01*
X63990922Y-146540311D01*
X63930000Y-146846587D01*
X63831110Y-146846587D01*
X63841657Y-146831531D01*
X63692671Y-146319465D01*
X63359067Y-145903393D01*
X62891633Y-145646657D01*
X62843172Y-145641462D01*
X62634000Y-145753873D01*
X62326000Y-145753873D01*
X62116828Y-145641462D01*
X62068367Y-145646657D01*
X61600933Y-145903393D01*
X61267329Y-146319465D01*
X61118343Y-146831531D01*
X54687005Y-146831531D01*
X54629078Y-146540312D01*
X54397007Y-146192993D01*
X54049689Y-145960922D01*
X53640000Y-145879430D01*
X53230312Y-145960922D01*
X52882994Y-146192993D01*
X52650922Y-146540311D01*
X52590000Y-146846587D01*
X52190000Y-146846587D01*
X52129078Y-146540312D01*
X51897007Y-146192993D01*
X51549689Y-145960922D01*
X51140000Y-145879430D01*
X50730312Y-145960922D01*
X50382994Y-146192993D01*
X50150922Y-146540311D01*
X50090000Y-146846587D01*
X49991110Y-146846587D01*
X50001657Y-146831531D01*
X49852671Y-146319465D01*
X49519067Y-145903393D01*
X49051633Y-145646657D01*
X49003172Y-145641462D01*
X48794000Y-145753873D01*
X48486000Y-145753873D01*
X48276828Y-145641462D01*
X48228367Y-145646657D01*
X47760933Y-145903393D01*
X47427329Y-146319465D01*
X47278343Y-146831531D01*
X40847005Y-146831531D01*
X40789078Y-146540312D01*
X40557007Y-146192993D01*
X40209689Y-145960922D01*
X39800000Y-145879430D01*
X39390312Y-145960922D01*
X39042994Y-146192993D01*
X38810922Y-146540311D01*
X38750000Y-146846587D01*
X38350000Y-146846587D01*
X38289078Y-146540312D01*
X38057007Y-146192993D01*
X37709689Y-145960922D01*
X37300000Y-145879430D01*
X36890312Y-145960922D01*
X36542994Y-146192993D01*
X36310922Y-146540311D01*
X36250000Y-146846587D01*
X36151110Y-146846587D01*
X36161657Y-146831531D01*
X36012671Y-146319465D01*
X35679067Y-145903393D01*
X35211633Y-145646657D01*
X35163172Y-145641462D01*
X34954000Y-145753873D01*
X34646000Y-145753873D01*
X34436828Y-145641462D01*
X34388367Y-145646657D01*
X33920933Y-145903393D01*
X33587329Y-146319465D01*
X33438343Y-146831531D01*
X30400000Y-146831531D01*
X30400000Y-142506000D01*
X35092000Y-142506000D01*
X35092000Y-143020938D01*
X35184562Y-143244404D01*
X35355595Y-143415437D01*
X35579061Y-143508000D01*
X35969000Y-143508000D01*
X36121000Y-143356000D01*
X36121000Y-142354000D01*
X35244000Y-142354000D01*
X35092000Y-142506000D01*
X30400000Y-142506000D01*
X30400000Y-141379062D01*
X35092000Y-141379062D01*
X35092000Y-141894000D01*
X35244000Y-142046000D01*
X36121000Y-142046000D01*
X36121000Y-141044000D01*
X36429000Y-141044000D01*
X36429000Y-142046000D01*
X36449000Y-142046000D01*
X36449000Y-142354000D01*
X36429000Y-142354000D01*
X36429000Y-143356000D01*
X36581000Y-143508000D01*
X36970939Y-143508000D01*
X37194405Y-143415437D01*
X37365438Y-143244404D01*
X37458000Y-143020938D01*
X37458000Y-142719765D01*
X37486437Y-142862726D01*
X37606935Y-143043065D01*
X37787274Y-143163563D01*
X37999999Y-143205877D01*
X38650001Y-143205877D01*
X38862726Y-143163563D01*
X39043065Y-143043065D01*
X39163563Y-142862726D01*
X39205877Y-142650001D01*
X39205877Y-142625000D01*
X42693145Y-142625000D01*
X42735002Y-142633326D01*
X42776859Y-142625000D01*
X42776860Y-142625000D01*
X42900829Y-142600341D01*
X43041410Y-142506408D01*
X43041682Y-142506000D01*
X48932000Y-142506000D01*
X48932000Y-143020938D01*
X49024562Y-143244404D01*
X49195595Y-143415437D01*
X49419061Y-143508000D01*
X49809000Y-143508000D01*
X49961000Y-143356000D01*
X49961000Y-142354000D01*
X49084000Y-142354000D01*
X48932000Y-142506000D01*
X43041682Y-142506000D01*
X43065123Y-142470919D01*
X44156980Y-141379062D01*
X48932000Y-141379062D01*
X48932000Y-141894000D01*
X49084000Y-142046000D01*
X49961000Y-142046000D01*
X49961000Y-141044000D01*
X50269000Y-141044000D01*
X50269000Y-142046000D01*
X50289000Y-142046000D01*
X50289000Y-142354000D01*
X50269000Y-142354000D01*
X50269000Y-143356000D01*
X50421000Y-143508000D01*
X50810939Y-143508000D01*
X51034405Y-143415437D01*
X51205438Y-143244404D01*
X51298000Y-143020938D01*
X51298000Y-142719765D01*
X51326437Y-142862726D01*
X51446935Y-143043065D01*
X51627274Y-143163563D01*
X51839999Y-143205877D01*
X52490001Y-143205877D01*
X52702726Y-143163563D01*
X52883065Y-143043065D01*
X53003563Y-142862726D01*
X53045877Y-142650001D01*
X53045877Y-142506000D01*
X62772000Y-142506000D01*
X62772000Y-143020938D01*
X62864562Y-143244404D01*
X63035595Y-143415437D01*
X63259061Y-143508000D01*
X63649000Y-143508000D01*
X63801000Y-143356000D01*
X63801000Y-142354000D01*
X62924000Y-142354000D01*
X62772000Y-142506000D01*
X53045877Y-142506000D01*
X53045877Y-141749999D01*
X53003563Y-141537274D01*
X52897850Y-141379062D01*
X62772000Y-141379062D01*
X62772000Y-141894000D01*
X62924000Y-142046000D01*
X63801000Y-142046000D01*
X63801000Y-141044000D01*
X63649000Y-140892000D01*
X63259061Y-140892000D01*
X63035595Y-140984563D01*
X62864562Y-141155596D01*
X62772000Y-141379062D01*
X52897850Y-141379062D01*
X52883065Y-141356935D01*
X52702726Y-141236437D01*
X52590000Y-141214014D01*
X52590000Y-138000635D01*
X52721900Y-138132535D01*
X53126196Y-138300000D01*
X53563804Y-138300000D01*
X53968100Y-138132535D01*
X54277535Y-137823100D01*
X54445000Y-137418804D01*
X54445000Y-136981196D01*
X55790000Y-136981196D01*
X55790000Y-137418804D01*
X55957465Y-137823100D01*
X56266900Y-138132535D01*
X56671196Y-138300000D01*
X57108804Y-138300000D01*
X57513100Y-138132535D01*
X57822535Y-137823100D01*
X57990000Y-137418804D01*
X57990000Y-136981196D01*
X57822535Y-136576900D01*
X57513100Y-136267465D01*
X57108804Y-136100000D01*
X56671196Y-136100000D01*
X56266900Y-136267465D01*
X55957465Y-136576900D01*
X55790000Y-136981196D01*
X54445000Y-136981196D01*
X54277535Y-136576900D01*
X53968100Y-136267465D01*
X53563804Y-136100000D01*
X53126196Y-136100000D01*
X52721900Y-136267465D01*
X52590000Y-136399365D01*
X52590000Y-130936040D01*
X52912242Y-130613799D01*
X52915801Y-130616177D01*
X53236661Y-130680000D01*
X53453339Y-130680000D01*
X53774199Y-130616177D01*
X54138056Y-130373056D01*
X54381177Y-130009199D01*
X54466550Y-129580000D01*
X55768450Y-129580000D01*
X55853823Y-130009199D01*
X56096944Y-130373056D01*
X56460801Y-130616177D01*
X56781661Y-130680000D01*
X56998339Y-130680000D01*
X57319199Y-130616177D01*
X57322758Y-130613799D01*
X58075001Y-131366042D01*
X58075000Y-137758143D01*
X58066674Y-137800000D01*
X58075000Y-137841857D01*
X58099659Y-137965826D01*
X58193592Y-138106408D01*
X58229081Y-138130121D01*
X59769881Y-139670922D01*
X59793592Y-139706408D01*
X59829077Y-139730118D01*
X59934173Y-139800341D01*
X60100000Y-139833326D01*
X60141857Y-139825000D01*
X63828960Y-139825000D01*
X65331270Y-141327311D01*
X65286935Y-141356935D01*
X65166437Y-141537274D01*
X65138000Y-141680235D01*
X65138000Y-141379062D01*
X65045438Y-141155596D01*
X64874405Y-140984563D01*
X64650939Y-140892000D01*
X64261000Y-140892000D01*
X64109000Y-141044000D01*
X64109000Y-142046000D01*
X64129000Y-142046000D01*
X64129000Y-142354000D01*
X64109000Y-142354000D01*
X64109000Y-143356000D01*
X64261000Y-143508000D01*
X64650939Y-143508000D01*
X64874405Y-143415437D01*
X65045438Y-143244404D01*
X65138000Y-143020938D01*
X65138000Y-142719765D01*
X65166437Y-142862726D01*
X65286935Y-143043065D01*
X65467274Y-143163563D01*
X65679999Y-143205877D01*
X66330001Y-143205877D01*
X66542726Y-143163563D01*
X66723065Y-143043065D01*
X66843563Y-142862726D01*
X66885877Y-142650001D01*
X66885877Y-142506000D01*
X76612000Y-142506000D01*
X76612000Y-143020938D01*
X76704562Y-143244404D01*
X76875595Y-143415437D01*
X77099061Y-143508000D01*
X77489000Y-143508000D01*
X77641000Y-143356000D01*
X77641000Y-142354000D01*
X76764000Y-142354000D01*
X76612000Y-142506000D01*
X66885877Y-142506000D01*
X66885877Y-141749999D01*
X66843563Y-141537274D01*
X66737850Y-141379062D01*
X76612000Y-141379062D01*
X76612000Y-141894000D01*
X76764000Y-142046000D01*
X77641000Y-142046000D01*
X77641000Y-141044000D01*
X77489000Y-140892000D01*
X77099061Y-140892000D01*
X76875595Y-140984563D01*
X76704562Y-141155596D01*
X76612000Y-141379062D01*
X66737850Y-141379062D01*
X66723065Y-141356935D01*
X66542726Y-141236437D01*
X66386027Y-141205267D01*
X66311408Y-141093592D01*
X66275922Y-141069881D01*
X64335121Y-139129081D01*
X64311408Y-139093592D01*
X64170827Y-138999659D01*
X64046858Y-138975000D01*
X64046857Y-138975000D01*
X64005000Y-138966674D01*
X63963143Y-138975000D01*
X60276041Y-138975000D01*
X58925000Y-137623960D01*
X58925000Y-131231857D01*
X58933326Y-131190000D01*
X58924315Y-131144696D01*
X58900341Y-131024173D01*
X58806408Y-130883592D01*
X58770922Y-130859881D01*
X57923799Y-130012758D01*
X57926177Y-130009199D01*
X58011550Y-129580000D01*
X59313450Y-129580000D01*
X59398823Y-130009199D01*
X59641944Y-130373056D01*
X60005801Y-130616177D01*
X60326661Y-130680000D01*
X60543339Y-130680000D01*
X60864199Y-130616177D01*
X61228056Y-130373056D01*
X61471177Y-130009199D01*
X61556550Y-129580000D01*
X61471177Y-129150801D01*
X61228056Y-128786944D01*
X60864199Y-128543823D01*
X60543339Y-128480000D01*
X60326661Y-128480000D01*
X60005801Y-128543823D01*
X59641944Y-128786944D01*
X59398823Y-129150801D01*
X59313450Y-129580000D01*
X58011550Y-129580000D01*
X57926177Y-129150801D01*
X57683056Y-128786944D01*
X57319199Y-128543823D01*
X56998339Y-128480000D01*
X56781661Y-128480000D01*
X56460801Y-128543823D01*
X56096944Y-128786944D01*
X55853823Y-129150801D01*
X55768450Y-129580000D01*
X54466550Y-129580000D01*
X54381177Y-129150801D01*
X54138056Y-128786944D01*
X53774199Y-128543823D01*
X53453339Y-128480000D01*
X53236661Y-128480000D01*
X52915801Y-128543823D01*
X52551944Y-128786944D01*
X52308823Y-129150801D01*
X52223450Y-129580000D01*
X52308823Y-130009199D01*
X52311201Y-130012758D01*
X51894079Y-130429881D01*
X51858593Y-130453592D01*
X51834882Y-130489078D01*
X51764659Y-130594174D01*
X51731674Y-130760000D01*
X51740001Y-130801862D01*
X51740000Y-141214014D01*
X51627274Y-141236437D01*
X51446935Y-141356935D01*
X51326437Y-141537274D01*
X51298000Y-141680235D01*
X51298000Y-141379062D01*
X51205438Y-141155596D01*
X51034405Y-140984563D01*
X50810939Y-140892000D01*
X50421000Y-140892000D01*
X50269000Y-141044000D01*
X49961000Y-141044000D01*
X49809000Y-140892000D01*
X49419061Y-140892000D01*
X49195595Y-140984563D01*
X49024562Y-141155596D01*
X48932000Y-141379062D01*
X44156980Y-141379062D01*
X48802639Y-136733404D01*
X48700000Y-136981196D01*
X48700000Y-137418804D01*
X48867465Y-137823100D01*
X49176900Y-138132535D01*
X49581196Y-138300000D01*
X50018804Y-138300000D01*
X50423100Y-138132535D01*
X50732535Y-137823100D01*
X50900000Y-137418804D01*
X50900000Y-136981196D01*
X50732535Y-136576900D01*
X50423100Y-136267465D01*
X50018804Y-136100000D01*
X49581196Y-136100000D01*
X49333404Y-136202639D01*
X50070923Y-135465120D01*
X50106408Y-135441410D01*
X50200341Y-135300829D01*
X50225000Y-135176860D01*
X50225000Y-135176859D01*
X50233326Y-135135002D01*
X50225000Y-135093145D01*
X50225000Y-130617012D01*
X50229199Y-130616177D01*
X50593056Y-130373056D01*
X50836177Y-130009199D01*
X50921550Y-129580000D01*
X50836177Y-129150801D01*
X50593056Y-128786944D01*
X50229199Y-128543823D01*
X49908339Y-128480000D01*
X49691661Y-128480000D01*
X49370801Y-128543823D01*
X49006944Y-128786944D01*
X48763823Y-129150801D01*
X48678450Y-129580000D01*
X48763823Y-130009199D01*
X49006944Y-130373056D01*
X49370801Y-130616177D01*
X49375000Y-130617012D01*
X49375000Y-130753227D01*
X49375001Y-130753232D01*
X49375000Y-134958961D01*
X47855877Y-136478084D01*
X47855877Y-133000000D01*
X47832593Y-132882946D01*
X47766288Y-132783712D01*
X47667054Y-132717407D01*
X47550000Y-132694123D01*
X47050000Y-132694123D01*
X47050000Y-129157106D01*
X47358096Y-128849010D01*
X47481196Y-128900000D01*
X47918804Y-128900000D01*
X48323100Y-128732535D01*
X48632535Y-128423100D01*
X48800000Y-128018804D01*
X48800000Y-127581196D01*
X48632535Y-127176900D01*
X48323100Y-126867465D01*
X47918804Y-126700000D01*
X47481196Y-126700000D01*
X47076900Y-126867465D01*
X46767465Y-127176900D01*
X46600000Y-127581196D01*
X46600000Y-128018804D01*
X46650990Y-128141904D01*
X46231268Y-128561626D01*
X46189521Y-128589520D01*
X46104060Y-128717423D01*
X46079012Y-128754910D01*
X46040205Y-128950000D01*
X46050001Y-128999246D01*
X46050000Y-132694123D01*
X45550000Y-132694123D01*
X45432946Y-132717407D01*
X45333712Y-132783712D01*
X45267407Y-132882946D01*
X45244123Y-133000000D01*
X45244123Y-134400000D01*
X41555877Y-134400000D01*
X41555877Y-134150000D01*
X41532593Y-134032946D01*
X41466288Y-133933712D01*
X41452238Y-133924325D01*
X41594405Y-133865437D01*
X41765438Y-133694404D01*
X41858000Y-133470938D01*
X41858000Y-132906000D01*
X41706000Y-132754000D01*
X40404000Y-132754000D01*
X40404000Y-132774000D01*
X40096000Y-132774000D01*
X40096000Y-132754000D01*
X38794000Y-132754000D01*
X38642000Y-132906000D01*
X38642000Y-133470938D01*
X38734562Y-133694404D01*
X38905595Y-133865437D01*
X39047762Y-133924325D01*
X39033712Y-133933712D01*
X38967407Y-134032946D01*
X38944123Y-134150000D01*
X38944123Y-135650000D01*
X38967407Y-135767054D01*
X39033712Y-135866288D01*
X39132946Y-135932593D01*
X39250000Y-135955877D01*
X41250000Y-135955877D01*
X41367054Y-135932593D01*
X41466288Y-135866288D01*
X41532593Y-135767054D01*
X41555877Y-135650000D01*
X41555877Y-135400000D01*
X45244123Y-135400000D01*
X45244123Y-136800000D01*
X45267407Y-136917054D01*
X45333712Y-137016288D01*
X45432946Y-137082593D01*
X45550000Y-137105877D01*
X47228084Y-137105877D01*
X42558962Y-141775000D01*
X39205877Y-141775000D01*
X39205877Y-141749999D01*
X39163563Y-141537274D01*
X39043065Y-141356935D01*
X38862726Y-141236437D01*
X38650001Y-141194123D01*
X37999999Y-141194123D01*
X37787274Y-141236437D01*
X37606935Y-141356935D01*
X37486437Y-141537274D01*
X37458000Y-141680235D01*
X37458000Y-141379062D01*
X37365438Y-141155596D01*
X37194405Y-140984563D01*
X36970939Y-140892000D01*
X36581000Y-140892000D01*
X36429000Y-141044000D01*
X36121000Y-141044000D01*
X35969000Y-140892000D01*
X35579061Y-140892000D01*
X35355595Y-140984563D01*
X35184562Y-141155596D01*
X35092000Y-141379062D01*
X30400000Y-141379062D01*
X30400000Y-139186696D01*
X30599142Y-139362822D01*
X31021000Y-139508000D01*
X31446000Y-139508000D01*
X31446000Y-138529000D01*
X31754000Y-138529000D01*
X31754000Y-139508000D01*
X32179000Y-139508000D01*
X32600858Y-139362822D01*
X32935047Y-139067257D01*
X33109574Y-138702699D01*
X32993837Y-138529000D01*
X31754000Y-138529000D01*
X31446000Y-138529000D01*
X31426000Y-138529000D01*
X31426000Y-138221000D01*
X31446000Y-138221000D01*
X31446000Y-136079000D01*
X31426000Y-136079000D01*
X31426000Y-135771000D01*
X31446000Y-135771000D01*
X31446000Y-133829000D01*
X31426000Y-133829000D01*
X31426000Y-133521000D01*
X31446000Y-133521000D01*
X31446000Y-131379000D01*
X31754000Y-131379000D01*
X31754000Y-133521000D01*
X32711158Y-133521000D01*
X32760596Y-133570438D01*
X32984062Y-133663000D01*
X33244123Y-133663000D01*
X33244123Y-133700000D01*
X33267407Y-133817054D01*
X33272716Y-133825000D01*
X33267407Y-133832946D01*
X33244123Y-133950000D01*
X33244123Y-134350000D01*
X33267407Y-134467054D01*
X33272716Y-134475000D01*
X33267407Y-134482946D01*
X33244123Y-134600000D01*
X33244123Y-135000000D01*
X33267407Y-135117054D01*
X33272716Y-135125000D01*
X33267407Y-135132946D01*
X33244123Y-135250000D01*
X33244123Y-135368604D01*
X33205596Y-135384562D01*
X33158000Y-135432158D01*
X33158000Y-134929061D01*
X33104541Y-134800000D01*
X33158000Y-134670939D01*
X33158000Y-133981000D01*
X33006000Y-133829000D01*
X31754000Y-133829000D01*
X31754000Y-135771000D01*
X31774000Y-135771000D01*
X31774000Y-136079000D01*
X31754000Y-136079000D01*
X31754000Y-138221000D01*
X32786095Y-138221000D01*
X32984062Y-138303000D01*
X33524000Y-138303000D01*
X33676000Y-138151000D01*
X33676000Y-137274000D01*
X33984000Y-137274000D01*
X33984000Y-138151000D01*
X34136000Y-138303000D01*
X34675938Y-138303000D01*
X34899404Y-138210438D01*
X35070437Y-138039405D01*
X35163000Y-137815939D01*
X35163000Y-137426000D01*
X35011000Y-137274000D01*
X33984000Y-137274000D01*
X33676000Y-137274000D01*
X33656000Y-137274000D01*
X33656000Y-136966000D01*
X33676000Y-136966000D01*
X33676000Y-136946000D01*
X33984000Y-136946000D01*
X33984000Y-136966000D01*
X35011000Y-136966000D01*
X35069000Y-136908000D01*
X35070938Y-136908000D01*
X35294404Y-136815438D01*
X35465437Y-136644405D01*
X35558000Y-136420939D01*
X35558000Y-136352000D01*
X35406000Y-136200000D01*
X35069842Y-136200000D01*
X34899404Y-136029562D01*
X34828035Y-136000000D01*
X35406000Y-136000000D01*
X35558000Y-135848000D01*
X35558000Y-135779061D01*
X35465437Y-135555595D01*
X35294404Y-135384562D01*
X35255877Y-135368604D01*
X35255877Y-135250000D01*
X35232593Y-135132946D01*
X35227284Y-135125000D01*
X35232593Y-135117054D01*
X35255877Y-135000000D01*
X35255877Y-134600000D01*
X35232593Y-134482946D01*
X35227284Y-134475000D01*
X35232593Y-134467054D01*
X35255877Y-134350000D01*
X35255877Y-134112983D01*
X35700001Y-134557107D01*
X35700000Y-135319388D01*
X35690205Y-135368630D01*
X35700000Y-135417871D01*
X35700000Y-135417872D01*
X35729011Y-135563719D01*
X35839520Y-135729110D01*
X35881270Y-135757006D01*
X36658096Y-136533833D01*
X36576900Y-136567465D01*
X36267465Y-136876900D01*
X36100000Y-137281196D01*
X36100000Y-137718804D01*
X36267465Y-138123100D01*
X36576900Y-138432535D01*
X36981196Y-138600000D01*
X37418804Y-138600000D01*
X37823100Y-138432535D01*
X38132535Y-138123100D01*
X38300000Y-137718804D01*
X38300000Y-137700000D01*
X38944123Y-137700000D01*
X38944123Y-137950000D01*
X38967407Y-138067054D01*
X39033712Y-138166288D01*
X39132946Y-138232593D01*
X39250000Y-138255877D01*
X41250000Y-138255877D01*
X41367054Y-138232593D01*
X41466288Y-138166288D01*
X41532593Y-138067054D01*
X41555877Y-137950000D01*
X41555877Y-136450000D01*
X41532593Y-136332946D01*
X41466288Y-136233712D01*
X41367054Y-136167407D01*
X41250000Y-136144123D01*
X39250000Y-136144123D01*
X39132946Y-136167407D01*
X39033712Y-136233712D01*
X38967407Y-136332946D01*
X38944123Y-136450000D01*
X38944123Y-136700000D01*
X37955635Y-136700000D01*
X37823100Y-136567465D01*
X37700000Y-136516475D01*
X37700000Y-136417876D01*
X37709796Y-136368630D01*
X37670989Y-136173540D01*
X37651333Y-136144123D01*
X37560480Y-136008150D01*
X37518732Y-135980255D01*
X36700000Y-135161524D01*
X36700000Y-134399246D01*
X36709796Y-134350000D01*
X36670989Y-134154910D01*
X36644185Y-134114795D01*
X36560480Y-133989520D01*
X36518729Y-133961623D01*
X36067075Y-133509969D01*
X36407820Y-133509969D01*
X36485643Y-133745229D01*
X37016548Y-133923815D01*
X37575382Y-133885637D01*
X37914357Y-133745229D01*
X37992180Y-133509969D01*
X37200000Y-132717789D01*
X36407820Y-133509969D01*
X36067075Y-133509969D01*
X35738377Y-133181271D01*
X35710480Y-133139520D01*
X35545090Y-133029011D01*
X35399243Y-133000000D01*
X35399241Y-133000000D01*
X35350000Y-132990205D01*
X35300759Y-133000000D01*
X35163000Y-133000000D01*
X35163000Y-132786000D01*
X35011000Y-132634000D01*
X33984000Y-132634000D01*
X33984000Y-132654000D01*
X33676000Y-132654000D01*
X33676000Y-132634000D01*
X33656000Y-132634000D01*
X33656000Y-132326000D01*
X33676000Y-132326000D01*
X33676000Y-131449000D01*
X33984000Y-131449000D01*
X33984000Y-132326000D01*
X35011000Y-132326000D01*
X35020452Y-132316548D01*
X35776185Y-132316548D01*
X35814363Y-132875382D01*
X35954771Y-133214357D01*
X36190031Y-133292180D01*
X36982211Y-132500000D01*
X37417789Y-132500000D01*
X38209969Y-133292180D01*
X38445229Y-133214357D01*
X38623815Y-132683452D01*
X38585637Y-132124618D01*
X38445229Y-131785643D01*
X38274184Y-131729062D01*
X38642000Y-131729062D01*
X38642000Y-132294000D01*
X38794000Y-132446000D01*
X40096000Y-132446000D01*
X40096000Y-131394000D01*
X40404000Y-131394000D01*
X40404000Y-132446000D01*
X41706000Y-132446000D01*
X41858000Y-132294000D01*
X41858000Y-131729062D01*
X41765438Y-131505596D01*
X41594405Y-131334563D01*
X41370939Y-131242000D01*
X40556000Y-131242000D01*
X40404000Y-131394000D01*
X40096000Y-131394000D01*
X39944000Y-131242000D01*
X39129061Y-131242000D01*
X38905595Y-131334563D01*
X38734562Y-131505596D01*
X38642000Y-131729062D01*
X38274184Y-131729062D01*
X38209969Y-131707820D01*
X37417789Y-132500000D01*
X36982211Y-132500000D01*
X36190031Y-131707820D01*
X35954771Y-131785643D01*
X35776185Y-132316548D01*
X35020452Y-132316548D01*
X35163000Y-132174000D01*
X35163000Y-131784061D01*
X35070437Y-131560595D01*
X34999873Y-131490031D01*
X36407820Y-131490031D01*
X37200000Y-132282211D01*
X37992180Y-131490031D01*
X37914357Y-131254771D01*
X37383452Y-131076185D01*
X36824618Y-131114363D01*
X36485643Y-131254771D01*
X36407820Y-131490031D01*
X34999873Y-131490031D01*
X34899404Y-131389562D01*
X34675938Y-131297000D01*
X34136000Y-131297000D01*
X33984000Y-131449000D01*
X33676000Y-131449000D01*
X33524000Y-131297000D01*
X32984062Y-131297000D01*
X32786095Y-131379000D01*
X31754000Y-131379000D01*
X31446000Y-131379000D01*
X31426000Y-131379000D01*
X31426000Y-131071000D01*
X31446000Y-131071000D01*
X31446000Y-130092000D01*
X31754000Y-130092000D01*
X31754000Y-131071000D01*
X32993837Y-131071000D01*
X33109574Y-130897301D01*
X32935047Y-130532743D01*
X32600858Y-130237178D01*
X32179000Y-130092000D01*
X31754000Y-130092000D01*
X31446000Y-130092000D01*
X31021000Y-130092000D01*
X30599142Y-130237178D01*
X30400000Y-130413304D01*
X30400000Y-128809969D01*
X41907820Y-128809969D01*
X41985643Y-129045229D01*
X42516548Y-129223815D01*
X43075382Y-129185637D01*
X43414357Y-129045229D01*
X43492180Y-128809969D01*
X42700000Y-128017789D01*
X41907820Y-128809969D01*
X30400000Y-128809969D01*
X30400000Y-125950000D01*
X30844123Y-125950000D01*
X30844123Y-127650000D01*
X30867407Y-127767054D01*
X30933712Y-127866288D01*
X31032946Y-127932593D01*
X31150000Y-127955877D01*
X32850000Y-127955877D01*
X32967054Y-127932593D01*
X33066288Y-127866288D01*
X33132593Y-127767054D01*
X33155877Y-127650000D01*
X33155877Y-126800000D01*
X33367471Y-126800000D01*
X33456724Y-127248707D01*
X33710897Y-127629103D01*
X34091293Y-127883276D01*
X34426739Y-127950000D01*
X34653261Y-127950000D01*
X34988707Y-127883276D01*
X35369103Y-127629103D01*
X35623276Y-127248707D01*
X35712529Y-126800000D01*
X35623276Y-126351293D01*
X35369103Y-125970897D01*
X34988707Y-125716724D01*
X34653261Y-125650000D01*
X34426739Y-125650000D01*
X34091293Y-125716724D01*
X33710897Y-125970897D01*
X33456724Y-126351293D01*
X33367471Y-126800000D01*
X33155877Y-126800000D01*
X33155877Y-125950000D01*
X33132593Y-125832946D01*
X33066288Y-125733712D01*
X32967054Y-125667407D01*
X32850000Y-125644123D01*
X31150000Y-125644123D01*
X31032946Y-125667407D01*
X30933712Y-125733712D01*
X30867407Y-125832946D01*
X30844123Y-125950000D01*
X30400000Y-125950000D01*
X30400000Y-125400000D01*
X39222009Y-125400000D01*
X38892384Y-125536523D01*
X38892384Y-125536523D01*
G37*
X38892384Y-125536523D02*
X38464259Y-125911146D01*
X38212085Y-126421089D01*
X38322143Y-126645998D01*
X38221896Y-126645998D01*
X38163276Y-126351293D01*
X37909103Y-125970897D01*
X37528707Y-125716724D01*
X37193261Y-125650000D01*
X36966739Y-125650000D01*
X36631293Y-125716724D01*
X36250897Y-125970897D01*
X35996724Y-126351293D01*
X35907471Y-126800000D01*
X35996724Y-127248707D01*
X36250897Y-127629103D01*
X36631293Y-127883276D01*
X36966739Y-127950000D01*
X37193261Y-127950000D01*
X37528707Y-127883276D01*
X37909103Y-127629103D01*
X38163276Y-127248707D01*
X38221896Y-126954002D01*
X38322143Y-126954002D01*
X38212085Y-127178911D01*
X38464259Y-127688854D01*
X38892384Y-128063477D01*
X39241090Y-128207903D01*
X39466000Y-128096889D01*
X39466000Y-126954000D01*
X39774000Y-126954000D01*
X39774000Y-128096889D01*
X39998910Y-128207903D01*
X40347616Y-128063477D01*
X40775741Y-127688854D01*
X40811497Y-127616548D01*
X41276185Y-127616548D01*
X41314363Y-128175382D01*
X41454771Y-128514357D01*
X41690031Y-128592180D01*
X42482211Y-127800000D01*
X42917789Y-127800000D01*
X43709969Y-128592180D01*
X43945229Y-128514357D01*
X44123815Y-127983452D01*
X44085637Y-127424618D01*
X43945229Y-127085643D01*
X43709969Y-127007820D01*
X42917789Y-127800000D01*
X42482211Y-127800000D01*
X41690031Y-127007820D01*
X41454771Y-127085643D01*
X41276185Y-127616548D01*
X40811497Y-127616548D01*
X41027915Y-127178911D01*
X40917856Y-126954000D01*
X39774000Y-126954000D01*
X39466000Y-126954000D01*
X39446000Y-126954000D01*
X39446000Y-126790031D01*
X41907820Y-126790031D01*
X42700000Y-127582211D01*
X43492180Y-126790031D01*
X43414357Y-126554771D01*
X42883452Y-126376185D01*
X42324618Y-126414363D01*
X41985643Y-126554771D01*
X41907820Y-126790031D01*
X39446000Y-126790031D01*
X39446000Y-126646000D01*
X39466000Y-126646000D01*
X39466000Y-126626000D01*
X39774000Y-126626000D01*
X39774000Y-126646000D01*
X40917856Y-126646000D01*
X41027915Y-126421089D01*
X40775741Y-125911146D01*
X40347616Y-125536523D01*
X40017991Y-125400000D01*
X70133663Y-125400000D01*
X69993592Y-125493592D01*
X69969881Y-125529078D01*
X69429080Y-126069880D01*
X69429077Y-126069882D01*
X67002758Y-128496201D01*
X66999199Y-128493823D01*
X66678339Y-128430000D01*
X66461661Y-128430000D01*
X66140801Y-128493823D01*
X65776944Y-128736944D01*
X65533823Y-129100801D01*
X65448450Y-129530000D01*
X65533823Y-129959199D01*
X65776944Y-130323056D01*
X66140801Y-130566177D01*
X66461661Y-130630000D01*
X66678339Y-130630000D01*
X66999199Y-130566177D01*
X67363056Y-130323056D01*
X67606177Y-129959199D01*
X67691550Y-129530000D01*
X67606177Y-129100801D01*
X67603799Y-129097242D01*
X70030118Y-126670923D01*
X70030120Y-126670920D01*
X70476041Y-126225000D01*
X108223960Y-126225000D01*
X108729077Y-126730118D01*
X108729080Y-126730120D01*
X110064652Y-128065693D01*
X109965826Y-127999659D01*
X109800000Y-127966674D01*
X109733011Y-127979999D01*
X70276858Y-127979999D01*
X70235001Y-127971673D01*
X70193143Y-127979999D01*
X70069174Y-128004658D01*
X69928593Y-128098591D01*
X69904882Y-128134077D01*
X69542758Y-128496201D01*
X69539199Y-128493823D01*
X69218339Y-128430000D01*
X69001661Y-128430000D01*
X68680801Y-128493823D01*
X68316944Y-128736944D01*
X68073823Y-129100801D01*
X67988450Y-129530000D01*
X68073823Y-129959199D01*
X68316944Y-130323056D01*
X68680801Y-130566177D01*
X69001661Y-130630000D01*
X69218339Y-130630000D01*
X69539199Y-130566177D01*
X69903056Y-130323056D01*
X70146177Y-129959199D01*
X70231550Y-129530000D01*
X70146177Y-129100801D01*
X70143799Y-129097242D01*
X70411042Y-128829999D01*
X70794767Y-128829999D01*
X70613823Y-129100801D01*
X70528450Y-129530000D01*
X70613823Y-129959199D01*
X70856944Y-130323056D01*
X71220801Y-130566177D01*
X71541661Y-130630000D01*
X71758339Y-130630000D01*
X72079199Y-130566177D01*
X72443056Y-130323056D01*
X72686177Y-129959199D01*
X72771550Y-129530000D01*
X72686177Y-129100801D01*
X72505233Y-128829999D01*
X73334767Y-128829999D01*
X73153823Y-129100801D01*
X73068450Y-129530000D01*
X73153823Y-129959199D01*
X73396944Y-130323056D01*
X73760801Y-130566177D01*
X74081661Y-130630000D01*
X74298339Y-130630000D01*
X74619199Y-130566177D01*
X74983056Y-130323056D01*
X75226177Y-129959199D01*
X75311550Y-129530000D01*
X75226177Y-129100801D01*
X75045233Y-128829999D01*
X75874767Y-128829999D01*
X75693823Y-129100801D01*
X75608450Y-129530000D01*
X75693823Y-129959199D01*
X75936944Y-130323056D01*
X76300801Y-130566177D01*
X76621661Y-130630000D01*
X76838339Y-130630000D01*
X77159199Y-130566177D01*
X77523056Y-130323056D01*
X77766177Y-129959199D01*
X77851550Y-129530000D01*
X77766177Y-129100801D01*
X77585233Y-128829999D01*
X78414767Y-128829999D01*
X78233823Y-129100801D01*
X78148450Y-129530000D01*
X78233823Y-129959199D01*
X78476944Y-130323056D01*
X78840801Y-130566177D01*
X79161661Y-130630000D01*
X79378339Y-130630000D01*
X79699199Y-130566177D01*
X80063056Y-130323056D01*
X80306177Y-129959199D01*
X80391550Y-129530000D01*
X80306177Y-129100801D01*
X80125233Y-128829999D01*
X80954767Y-128829999D01*
X80773823Y-129100801D01*
X80688450Y-129530000D01*
X80773823Y-129959199D01*
X80776201Y-129962759D01*
X80739081Y-129999879D01*
X80739078Y-129999881D01*
X78563959Y-132175001D01*
X65641856Y-132175001D01*
X65599998Y-132166675D01*
X65558141Y-132175001D01*
X65434172Y-132199660D01*
X65293591Y-132293593D01*
X65289310Y-132300000D01*
X65060761Y-132300000D01*
X64803482Y-132406568D01*
X64606568Y-132603482D01*
X64530000Y-132788334D01*
X64530000Y-130518869D01*
X64823056Y-130323056D01*
X65066177Y-129959199D01*
X65151550Y-129530000D01*
X65066177Y-129100801D01*
X64823056Y-128736944D01*
X64459199Y-128493823D01*
X64138339Y-128430000D01*
X63921661Y-128430000D01*
X63600801Y-128493823D01*
X63236944Y-128736944D01*
X62993823Y-129100801D01*
X62908450Y-129530000D01*
X62993823Y-129959199D01*
X63236944Y-130323056D01*
X63530001Y-130518870D01*
X63530000Y-133397893D01*
X60776904Y-136150990D01*
X60653804Y-136100000D01*
X60216196Y-136100000D01*
X59811900Y-136267465D01*
X59502465Y-136576900D01*
X59335000Y-136981196D01*
X59335000Y-137418804D01*
X59502465Y-137823100D01*
X59811900Y-138132535D01*
X60216196Y-138300000D01*
X60653804Y-138300000D01*
X61058100Y-138132535D01*
X61367535Y-137823100D01*
X61519592Y-137456000D01*
X62622000Y-137456000D01*
X62622000Y-138070939D01*
X62714563Y-138294405D01*
X62885596Y-138465438D01*
X63109062Y-138558000D01*
X63724000Y-138558000D01*
X63876000Y-138406000D01*
X63876000Y-137304000D01*
X64184000Y-137304000D01*
X64184000Y-138406000D01*
X64336000Y-138558000D01*
X64950938Y-138558000D01*
X65174404Y-138465438D01*
X65345437Y-138294405D01*
X65438000Y-138070939D01*
X65438000Y-137456000D01*
X65286000Y-137304000D01*
X64184000Y-137304000D01*
X63876000Y-137304000D01*
X62774000Y-137304000D01*
X62622000Y-137456000D01*
X61519592Y-137456000D01*
X61535000Y-137418804D01*
X61535000Y-137150000D01*
X65448450Y-137150000D01*
X65533823Y-137579199D01*
X65776944Y-137943056D01*
X66140801Y-138186177D01*
X66461661Y-138250000D01*
X66678339Y-138250000D01*
X66999199Y-138186177D01*
X67363056Y-137943056D01*
X67606177Y-137579199D01*
X67691550Y-137150000D01*
X67988450Y-137150000D01*
X68073823Y-137579199D01*
X68316944Y-137943056D01*
X68680801Y-138186177D01*
X69001661Y-138250000D01*
X69218339Y-138250000D01*
X69539199Y-138186177D01*
X69903056Y-137943056D01*
X70146177Y-137579199D01*
X70231550Y-137150000D01*
X70146177Y-136720801D01*
X69903056Y-136356944D01*
X69539199Y-136113823D01*
X69218339Y-136050000D01*
X69001661Y-136050000D01*
X68680801Y-136113823D01*
X68316944Y-136356944D01*
X68073823Y-136720801D01*
X67988450Y-137150000D01*
X67691550Y-137150000D01*
X67606177Y-136720801D01*
X67363056Y-136356944D01*
X66999199Y-136113823D01*
X66678339Y-136050000D01*
X66461661Y-136050000D01*
X66140801Y-136113823D01*
X65776944Y-136356944D01*
X65533823Y-136720801D01*
X65448450Y-137150000D01*
X61535000Y-137150000D01*
X61535000Y-136981196D01*
X61484010Y-136858096D01*
X62113045Y-136229061D01*
X62622000Y-136229061D01*
X62622000Y-136844000D01*
X62774000Y-136996000D01*
X63876000Y-136996000D01*
X63876000Y-135894000D01*
X64184000Y-135894000D01*
X64184000Y-136996000D01*
X65286000Y-136996000D01*
X65438000Y-136844000D01*
X65438000Y-136229061D01*
X65345437Y-136005595D01*
X65174404Y-135834562D01*
X64950938Y-135742000D01*
X64336000Y-135742000D01*
X64184000Y-135894000D01*
X63876000Y-135894000D01*
X63724000Y-135742000D01*
X63109062Y-135742000D01*
X62885596Y-135834562D01*
X62714563Y-136005595D01*
X62622000Y-136229061D01*
X62113045Y-136229061D01*
X64348733Y-133993374D01*
X64390480Y-133965480D01*
X64500989Y-133800090D01*
X64530000Y-133654243D01*
X64530000Y-133654242D01*
X64539795Y-133605000D01*
X64530000Y-133555757D01*
X64530000Y-133211666D01*
X64606568Y-133396518D01*
X64803482Y-133593432D01*
X65060761Y-133700000D01*
X65266589Y-133700000D01*
X65200000Y-133860761D01*
X65200000Y-134139239D01*
X65306568Y-134396518D01*
X65503482Y-134593432D01*
X65760761Y-134700000D01*
X66039239Y-134700000D01*
X66142964Y-134657036D01*
X66100000Y-134760761D01*
X66100000Y-135039239D01*
X66206568Y-135296518D01*
X66403482Y-135493432D01*
X66660761Y-135600000D01*
X66939239Y-135600000D01*
X67196518Y-135493432D01*
X67364950Y-135325000D01*
X72896247Y-135325000D01*
X72793592Y-135393592D01*
X72769881Y-135429078D01*
X72082758Y-136116201D01*
X72079199Y-136113823D01*
X71758339Y-136050000D01*
X71541661Y-136050000D01*
X71220801Y-136113823D01*
X70856944Y-136356944D01*
X70613823Y-136720801D01*
X70528450Y-137150000D01*
X70613823Y-137579199D01*
X70856944Y-137943056D01*
X71220801Y-138186177D01*
X71541661Y-138250000D01*
X71758339Y-138250000D01*
X72079199Y-138186177D01*
X72443056Y-137943056D01*
X72686177Y-137579199D01*
X72771550Y-137150000D01*
X72686177Y-136720801D01*
X72683799Y-136717242D01*
X73276041Y-136125000D01*
X73744073Y-136125000D01*
X73396944Y-136356944D01*
X73153823Y-136720801D01*
X73068450Y-137150000D01*
X73153823Y-137579199D01*
X73396944Y-137943056D01*
X73760801Y-138186177D01*
X74081661Y-138250000D01*
X74298339Y-138250000D01*
X74619199Y-138186177D01*
X74983056Y-137943056D01*
X75226177Y-137579199D01*
X75311550Y-137150000D01*
X75226177Y-136720801D01*
X74983056Y-136356944D01*
X74635927Y-136125000D01*
X76284073Y-136125000D01*
X75936944Y-136356944D01*
X75693823Y-136720801D01*
X75608450Y-137150000D01*
X75693823Y-137579199D01*
X75936944Y-137943056D01*
X76300801Y-138186177D01*
X76621661Y-138250000D01*
X76838339Y-138250000D01*
X77159199Y-138186177D01*
X77523056Y-137943056D01*
X77766177Y-137579199D01*
X77851550Y-137150000D01*
X77766177Y-136720801D01*
X77523056Y-136356944D01*
X77175927Y-136125000D01*
X78824073Y-136125000D01*
X78476944Y-136356944D01*
X78233823Y-136720801D01*
X78148450Y-137150000D01*
X78233823Y-137579199D01*
X78476944Y-137943056D01*
X78840801Y-138186177D01*
X79161661Y-138250000D01*
X79378339Y-138250000D01*
X79699199Y-138186177D01*
X80063056Y-137943056D01*
X80306177Y-137579199D01*
X80391550Y-137150000D01*
X80306177Y-136720801D01*
X80063056Y-136356944D01*
X79715927Y-136125000D01*
X81364073Y-136125000D01*
X81016944Y-136356944D01*
X80773823Y-136720801D01*
X80688450Y-137150000D01*
X80773823Y-137579199D01*
X81016944Y-137943056D01*
X81380801Y-138186177D01*
X81701661Y-138250000D01*
X81918339Y-138250000D01*
X82239199Y-138186177D01*
X82603056Y-137943056D01*
X82846177Y-137579199D01*
X82931550Y-137150000D01*
X82846177Y-136720801D01*
X82603056Y-136356944D01*
X82255927Y-136125000D01*
X83904073Y-136125000D01*
X83556944Y-136356944D01*
X83313823Y-136720801D01*
X83228450Y-137150000D01*
X83313823Y-137579199D01*
X83556944Y-137943056D01*
X83920801Y-138186177D01*
X84241661Y-138250000D01*
X84458339Y-138250000D01*
X84779199Y-138186177D01*
X85143056Y-137943056D01*
X85386177Y-137579199D01*
X85471550Y-137150000D01*
X85386177Y-136720801D01*
X85143056Y-136356944D01*
X84783523Y-136116712D01*
X84865827Y-136100341D01*
X85006408Y-136006408D01*
X85030121Y-135970919D01*
X86801041Y-134200000D01*
X87039239Y-134200000D01*
X87296518Y-134093432D01*
X87493432Y-133896518D01*
X87600000Y-133639239D01*
X87600000Y-133360761D01*
X87493432Y-133103482D01*
X87296518Y-132906568D01*
X87039239Y-132800000D01*
X86760761Y-132800000D01*
X86503482Y-132906568D01*
X86306568Y-133103482D01*
X86200000Y-133360761D01*
X86200000Y-133598959D01*
X84523960Y-135275000D01*
X81723753Y-135275000D01*
X81826408Y-135206408D01*
X81850121Y-135170919D01*
X86457242Y-130563799D01*
X86460801Y-130566177D01*
X86781661Y-130630000D01*
X86998339Y-130630000D01*
X87319199Y-130566177D01*
X87683056Y-130323056D01*
X87926177Y-129959199D01*
X88011550Y-129530000D01*
X87926177Y-129100801D01*
X87745233Y-128829999D01*
X89653176Y-128829999D01*
X89438823Y-129150801D01*
X89353450Y-129580000D01*
X89438823Y-130009199D01*
X89441201Y-130012758D01*
X88129079Y-131324881D01*
X88093593Y-131348592D01*
X88069882Y-131384078D01*
X87999659Y-131489174D01*
X87966674Y-131655000D01*
X87975001Y-131696862D01*
X87975001Y-134285051D01*
X87896518Y-134206568D01*
X87639239Y-134100000D01*
X87360761Y-134100000D01*
X87103482Y-134206568D01*
X86906568Y-134403482D01*
X86800000Y-134660761D01*
X86800000Y-134939239D01*
X86906568Y-135196518D01*
X87008820Y-135298770D01*
X86619079Y-135688511D01*
X86583593Y-135712222D01*
X86559882Y-135747708D01*
X86489659Y-135852804D01*
X86456674Y-136018630D01*
X86465001Y-136060492D01*
X86465001Y-136112988D01*
X86460801Y-136113823D01*
X86096944Y-136356944D01*
X85853823Y-136720801D01*
X85768450Y-137150000D01*
X85853823Y-137579199D01*
X86096944Y-137943056D01*
X86460801Y-138186177D01*
X86781661Y-138250000D01*
X86998339Y-138250000D01*
X87319199Y-138186177D01*
X87683056Y-137943056D01*
X87926177Y-137579199D01*
X87975000Y-137333748D01*
X87975000Y-138623960D01*
X87223960Y-139375000D01*
X82961857Y-139375000D01*
X82920000Y-139366674D01*
X82878142Y-139375000D01*
X82754173Y-139399659D01*
X82613592Y-139493592D01*
X82589879Y-139529081D01*
X80642757Y-141476203D01*
X80563065Y-141356935D01*
X80382726Y-141236437D01*
X80170001Y-141194123D01*
X79519999Y-141194123D01*
X79307274Y-141236437D01*
X79126935Y-141356935D01*
X79006437Y-141537274D01*
X78978000Y-141680235D01*
X78978000Y-141379062D01*
X78885438Y-141155596D01*
X78714405Y-140984563D01*
X78490939Y-140892000D01*
X78101000Y-140892000D01*
X77949000Y-141044000D01*
X77949000Y-142046000D01*
X77969000Y-142046000D01*
X77969000Y-142354000D01*
X77949000Y-142354000D01*
X77949000Y-143356000D01*
X78101000Y-143508000D01*
X78490939Y-143508000D01*
X78714405Y-143415437D01*
X78885438Y-143244404D01*
X78978000Y-143020938D01*
X78978000Y-142719765D01*
X79006437Y-142862726D01*
X79126935Y-143043065D01*
X79307274Y-143163563D01*
X79519999Y-143205877D01*
X80170001Y-143205877D01*
X80382726Y-143163563D01*
X80563065Y-143043065D01*
X80683563Y-142862726D01*
X80725877Y-142650001D01*
X80725877Y-142573581D01*
X80826408Y-142506408D01*
X80826680Y-142506000D01*
X90452000Y-142506000D01*
X90452000Y-143020938D01*
X90544562Y-143244404D01*
X90715595Y-143415437D01*
X90939061Y-143508000D01*
X91329000Y-143508000D01*
X91481000Y-143356000D01*
X91481000Y-142354000D01*
X90604000Y-142354000D01*
X90452000Y-142506000D01*
X80826680Y-142506000D01*
X80850121Y-142470919D01*
X81941978Y-141379062D01*
X90452000Y-141379062D01*
X90452000Y-141894000D01*
X90604000Y-142046000D01*
X91481000Y-142046000D01*
X91481000Y-141044000D01*
X91329000Y-140892000D01*
X90939061Y-140892000D01*
X90715595Y-140984563D01*
X90544562Y-141155596D01*
X90452000Y-141379062D01*
X81941978Y-141379062D01*
X83096040Y-140225000D01*
X87358143Y-140225000D01*
X87400000Y-140233326D01*
X87441857Y-140225000D01*
X87441858Y-140225000D01*
X87565827Y-140200341D01*
X87706408Y-140106408D01*
X87730121Y-140070919D01*
X88670920Y-139130120D01*
X88706408Y-139106408D01*
X88800341Y-138965827D01*
X88825000Y-138841858D01*
X88825000Y-138841857D01*
X88833326Y-138800000D01*
X88825000Y-138758143D01*
X88825000Y-136981196D01*
X89375000Y-136981196D01*
X89375000Y-137418804D01*
X89542465Y-137823100D01*
X89851900Y-138132535D01*
X90256196Y-138300000D01*
X90693804Y-138300000D01*
X91098100Y-138132535D01*
X91407535Y-137823100D01*
X91575000Y-137418804D01*
X91575000Y-136981196D01*
X91407535Y-136576900D01*
X91098100Y-136267465D01*
X90693804Y-136100000D01*
X90256196Y-136100000D01*
X89851900Y-136267465D01*
X89542465Y-136576900D01*
X89375000Y-136981196D01*
X88825000Y-136981196D01*
X88825000Y-131831040D01*
X90042242Y-130613799D01*
X90045801Y-130616177D01*
X90366661Y-130680000D01*
X90583339Y-130680000D01*
X90904199Y-130616177D01*
X91268056Y-130373056D01*
X91511177Y-130009199D01*
X91596550Y-129580000D01*
X91511177Y-129150801D01*
X91296824Y-128829999D01*
X93198176Y-128829999D01*
X92983823Y-129150801D01*
X92898450Y-129580000D01*
X92983823Y-130009199D01*
X92986201Y-130012758D01*
X92129079Y-130869881D01*
X92093593Y-130893592D01*
X92069882Y-130929078D01*
X91999659Y-131034174D01*
X91966674Y-131200000D01*
X91975001Y-131241862D01*
X91975000Y-140073143D01*
X91966674Y-140115000D01*
X91990211Y-140233326D01*
X91999659Y-140280826D01*
X92093592Y-140421408D01*
X92129081Y-140445121D01*
X93011270Y-141327311D01*
X92966935Y-141356935D01*
X92846437Y-141537274D01*
X92818000Y-141680235D01*
X92818000Y-141379062D01*
X92725438Y-141155596D01*
X92554405Y-140984563D01*
X92330939Y-140892000D01*
X91941000Y-140892000D01*
X91789000Y-141044000D01*
X91789000Y-142046000D01*
X91809000Y-142046000D01*
X91809000Y-142354000D01*
X91789000Y-142354000D01*
X91789000Y-143356000D01*
X91941000Y-143508000D01*
X92330939Y-143508000D01*
X92554405Y-143415437D01*
X92725438Y-143244404D01*
X92818000Y-143020938D01*
X92818000Y-142719765D01*
X92846437Y-142862726D01*
X92966935Y-143043065D01*
X93147274Y-143163563D01*
X93359999Y-143205877D01*
X94010001Y-143205877D01*
X94222726Y-143163563D01*
X94403065Y-143043065D01*
X94523563Y-142862726D01*
X94565877Y-142650001D01*
X94565877Y-142506000D01*
X104292000Y-142506000D01*
X104292000Y-143020938D01*
X104384562Y-143244404D01*
X104555595Y-143415437D01*
X104779061Y-143508000D01*
X105169000Y-143508000D01*
X105321000Y-143356000D01*
X105321000Y-142354000D01*
X104444000Y-142354000D01*
X104292000Y-142506000D01*
X94565877Y-142506000D01*
X94565877Y-141749999D01*
X94523563Y-141537274D01*
X94417850Y-141379062D01*
X104292000Y-141379062D01*
X104292000Y-141894000D01*
X104444000Y-142046000D01*
X105321000Y-142046000D01*
X105321000Y-141044000D01*
X105169000Y-140892000D01*
X104779061Y-140892000D01*
X104555595Y-140984563D01*
X104384562Y-141155596D01*
X104292000Y-141379062D01*
X94417850Y-141379062D01*
X94403065Y-141356935D01*
X94222726Y-141236437D01*
X94066027Y-141205267D01*
X93991408Y-141093592D01*
X93955922Y-141069881D01*
X92825000Y-139938960D01*
X92825000Y-136981196D01*
X92920000Y-136981196D01*
X92920000Y-137418804D01*
X93087465Y-137823100D01*
X93396900Y-138132535D01*
X93801196Y-138300000D01*
X94238804Y-138300000D01*
X94643100Y-138132535D01*
X94952535Y-137823100D01*
X95120000Y-137418804D01*
X95120000Y-136981196D01*
X94952535Y-136576900D01*
X94643100Y-136267465D01*
X94425000Y-136177125D01*
X94425000Y-132664950D01*
X94593432Y-132496518D01*
X94700000Y-132239239D01*
X94700000Y-131960761D01*
X94593432Y-131703482D01*
X94396518Y-131506568D01*
X94139239Y-131400000D01*
X93860761Y-131400000D01*
X93603482Y-131506568D01*
X93406568Y-131703482D01*
X93300000Y-131960761D01*
X93300000Y-132239239D01*
X93406568Y-132496518D01*
X93575000Y-132664950D01*
X93575001Y-136193693D01*
X93396900Y-136267465D01*
X93087465Y-136576900D01*
X92920000Y-136981196D01*
X92825000Y-136981196D01*
X92825000Y-131376040D01*
X93587242Y-130613799D01*
X93590801Y-130616177D01*
X93911661Y-130680000D01*
X94128339Y-130680000D01*
X94449199Y-130616177D01*
X94813056Y-130373056D01*
X95056177Y-130009199D01*
X95141550Y-129580000D01*
X95056177Y-129150801D01*
X94841824Y-128829999D01*
X96743176Y-128829999D01*
X96528823Y-129150801D01*
X96443450Y-129580000D01*
X96528823Y-130009199D01*
X96771944Y-130373056D01*
X97135801Y-130616177D01*
X97140000Y-130617012D01*
X97140000Y-130753227D01*
X97140001Y-130753232D01*
X97140000Y-135278144D01*
X97131674Y-135320002D01*
X97149535Y-135409795D01*
X97164659Y-135485828D01*
X97258592Y-135626410D01*
X97294081Y-135650123D01*
X97743958Y-136100000D01*
X97346196Y-136100000D01*
X96941900Y-136267465D01*
X96632465Y-136576900D01*
X96465000Y-136981196D01*
X96465000Y-137418804D01*
X96632465Y-137823100D01*
X96941900Y-138132535D01*
X97346196Y-138300000D01*
X97783804Y-138300000D01*
X98188100Y-138132535D01*
X98497535Y-137823100D01*
X98665000Y-137418804D01*
X98665000Y-137021042D01*
X101014879Y-139370922D01*
X101038590Y-139406408D01*
X101179171Y-139500341D01*
X101303140Y-139525000D01*
X101303141Y-139525000D01*
X101344997Y-139533326D01*
X101386853Y-139525000D01*
X105048960Y-139525000D01*
X106851270Y-141327311D01*
X106806935Y-141356935D01*
X106686437Y-141537274D01*
X106658000Y-141680235D01*
X106658000Y-141379062D01*
X106565438Y-141155596D01*
X106394405Y-140984563D01*
X106170939Y-140892000D01*
X105781000Y-140892000D01*
X105629000Y-141044000D01*
X105629000Y-142046000D01*
X105649000Y-142046000D01*
X105649000Y-142354000D01*
X105629000Y-142354000D01*
X105629000Y-143356000D01*
X105781000Y-143508000D01*
X106170939Y-143508000D01*
X106394405Y-143415437D01*
X106565438Y-143244404D01*
X106658000Y-143020938D01*
X106658000Y-142719765D01*
X106686437Y-142862726D01*
X106806935Y-143043065D01*
X106987274Y-143163563D01*
X107199999Y-143205877D01*
X107850001Y-143205877D01*
X108062726Y-143163563D01*
X108243065Y-143043065D01*
X108363563Y-142862726D01*
X108405877Y-142650001D01*
X108405877Y-141749999D01*
X108363563Y-141537274D01*
X108243065Y-141356935D01*
X108062726Y-141236437D01*
X107906027Y-141205267D01*
X107831408Y-141093592D01*
X107795922Y-141069881D01*
X105555121Y-138829081D01*
X105531408Y-138793592D01*
X105390827Y-138699659D01*
X105266858Y-138675000D01*
X105266857Y-138675000D01*
X105225000Y-138666674D01*
X105183143Y-138675000D01*
X101521039Y-138675000D01*
X101146039Y-138300000D01*
X101328804Y-138300000D01*
X101733100Y-138132535D01*
X102042535Y-137823100D01*
X102210000Y-137418804D01*
X102210000Y-136981196D01*
X103555000Y-136981196D01*
X103555000Y-137418804D01*
X103722465Y-137823100D01*
X104031900Y-138132535D01*
X104436196Y-138300000D01*
X104873804Y-138300000D01*
X105278100Y-138132535D01*
X105587535Y-137823100D01*
X105755000Y-137418804D01*
X105755000Y-136981196D01*
X105587535Y-136576900D01*
X105278100Y-136267465D01*
X104873804Y-136100000D01*
X104436196Y-136100000D01*
X104031900Y-136267465D01*
X103722465Y-136576900D01*
X103555000Y-136981196D01*
X102210000Y-136981196D01*
X102042535Y-136576900D01*
X101733100Y-136267465D01*
X101328804Y-136100000D01*
X100891196Y-136100000D01*
X100486900Y-136267465D01*
X100177465Y-136576900D01*
X100010000Y-136981196D01*
X100010000Y-137163961D01*
X97990000Y-135143962D01*
X97990000Y-130617012D01*
X97994199Y-130616177D01*
X98358056Y-130373056D01*
X98601177Y-130009199D01*
X98686550Y-129580000D01*
X98601177Y-129150801D01*
X98386824Y-128829999D01*
X100288176Y-128829999D01*
X100073823Y-129150801D01*
X99988450Y-129580000D01*
X100073823Y-130009199D01*
X100316944Y-130373056D01*
X100680801Y-130616177D01*
X100685000Y-130617012D01*
X100685000Y-130753227D01*
X100685001Y-130753231D01*
X100685000Y-131313142D01*
X100676674Y-131355000D01*
X100685000Y-131396857D01*
X100709659Y-131520826D01*
X100803592Y-131661408D01*
X100839081Y-131685121D01*
X106644879Y-137490919D01*
X106668592Y-137526408D01*
X106779241Y-137600341D01*
X106809173Y-137620341D01*
X106919123Y-137642211D01*
X106919123Y-138000000D01*
X106942407Y-138117054D01*
X107008712Y-138216288D01*
X107107946Y-138282593D01*
X107225000Y-138305877D01*
X107875000Y-138305877D01*
X107992054Y-138282593D01*
X108091288Y-138216288D01*
X108157593Y-138117054D01*
X108180877Y-138000000D01*
X108180877Y-136440000D01*
X108819123Y-136440000D01*
X108819123Y-138000000D01*
X108842407Y-138117054D01*
X108908712Y-138216288D01*
X109007946Y-138282593D01*
X109125000Y-138305877D01*
X109775000Y-138305877D01*
X109892054Y-138282593D01*
X109991288Y-138216288D01*
X110057593Y-138117054D01*
X110080877Y-138000000D01*
X110080877Y-136440000D01*
X110057593Y-136322946D01*
X109991288Y-136223712D01*
X109892054Y-136157407D01*
X109775000Y-136134123D01*
X109125000Y-136134123D01*
X109007946Y-136157407D01*
X108908712Y-136223712D01*
X108842407Y-136322946D01*
X108819123Y-136440000D01*
X108180877Y-136440000D01*
X108157593Y-136322946D01*
X108091288Y-136223712D01*
X107992054Y-136157407D01*
X107875000Y-136134123D01*
X107225000Y-136134123D01*
X107107946Y-136157407D01*
X107008712Y-136223712D01*
X106942407Y-136322946D01*
X106919123Y-136440000D01*
X106919123Y-136563083D01*
X105182040Y-134826000D01*
X106617000Y-134826000D01*
X106617000Y-135420939D01*
X106709563Y-135644405D01*
X106880596Y-135815438D01*
X107104062Y-135908000D01*
X107244000Y-135908000D01*
X107396000Y-135756000D01*
X107396000Y-134674000D01*
X106769000Y-134674000D01*
X106617000Y-134826000D01*
X105182040Y-134826000D01*
X103975101Y-133619061D01*
X106617000Y-133619061D01*
X106617000Y-134214000D01*
X106769000Y-134366000D01*
X107396000Y-134366000D01*
X107396000Y-133284000D01*
X107704000Y-133284000D01*
X107704000Y-134366000D01*
X107724000Y-134366000D01*
X107724000Y-134674000D01*
X107704000Y-134674000D01*
X107704000Y-135756000D01*
X107856000Y-135908000D01*
X107995938Y-135908000D01*
X108219404Y-135815438D01*
X108390437Y-135644405D01*
X108406396Y-135605877D01*
X108825000Y-135605877D01*
X108942054Y-135582593D01*
X108975000Y-135560580D01*
X109007946Y-135582593D01*
X109125000Y-135605877D01*
X109775000Y-135605877D01*
X109892054Y-135582593D01*
X109991288Y-135516288D01*
X110057593Y-135417054D01*
X110080877Y-135300000D01*
X110080877Y-133740000D01*
X110057593Y-133622946D01*
X109991288Y-133523712D01*
X109892054Y-133457407D01*
X109775000Y-133434123D01*
X109125000Y-133434123D01*
X109007946Y-133457407D01*
X108975000Y-133479420D01*
X108942054Y-133457407D01*
X108925000Y-133454015D01*
X108925000Y-133064950D01*
X109093432Y-132896518D01*
X109200000Y-132639239D01*
X109200000Y-132360761D01*
X109093432Y-132103482D01*
X108896518Y-131906568D01*
X108639239Y-131800000D01*
X108360761Y-131800000D01*
X108103482Y-131906568D01*
X107906568Y-132103482D01*
X107800000Y-132360761D01*
X107800000Y-132639239D01*
X107906568Y-132896518D01*
X108075000Y-133064950D01*
X108075000Y-133164748D01*
X107995938Y-133132000D01*
X107856000Y-133132000D01*
X107704000Y-133284000D01*
X107396000Y-133284000D01*
X107244000Y-133132000D01*
X107104062Y-133132000D01*
X106880596Y-133224562D01*
X106709563Y-133395595D01*
X106617000Y-133619061D01*
X103975101Y-133619061D01*
X101535000Y-131178960D01*
X101535000Y-130617012D01*
X101539199Y-130616177D01*
X101903056Y-130373056D01*
X102146177Y-130009199D01*
X102157744Y-129951044D01*
X103296757Y-129951044D01*
X103542139Y-130442577D01*
X103956944Y-130802791D01*
X104283958Y-130938231D01*
X104501000Y-130826523D01*
X104501000Y-129734000D01*
X104809000Y-129734000D01*
X104809000Y-130826523D01*
X105026042Y-130938231D01*
X105353056Y-130802791D01*
X105767861Y-130442577D01*
X106013243Y-129951044D01*
X105902565Y-129734000D01*
X104809000Y-129734000D01*
X104501000Y-129734000D01*
X103407435Y-129734000D01*
X103296757Y-129951044D01*
X102157744Y-129951044D01*
X102231550Y-129580000D01*
X102146177Y-129150801D01*
X101931824Y-128829999D01*
X103485939Y-128829999D01*
X103296757Y-129208956D01*
X103407435Y-129426000D01*
X104501000Y-129426000D01*
X104501000Y-129406000D01*
X104809000Y-129406000D01*
X104809000Y-129426000D01*
X105902565Y-129426000D01*
X106013243Y-129208956D01*
X105824061Y-128829999D01*
X109628959Y-128829999D01*
X110875000Y-130076041D01*
X110875001Y-147558138D01*
X110866674Y-147600000D01*
X110899659Y-147765826D01*
X110899660Y-147765827D01*
X110993593Y-147906408D01*
X111029079Y-147930119D01*
X113528982Y-150430023D01*
X113400000Y-150741414D01*
X113400000Y-151258586D01*
X113597913Y-151736391D01*
X113963609Y-152102087D01*
X114275001Y-152231069D01*
X114275000Y-156127644D01*
X114275001Y-156127649D01*
X114275001Y-156268930D01*
X113963609Y-156397913D01*
X113597913Y-156763609D01*
X113400000Y-157241414D01*
X113400000Y-157758586D01*
X113597913Y-158236391D01*
X113963609Y-158602087D01*
X114441414Y-158800000D01*
X114958586Y-158800000D01*
X115308488Y-158655066D01*
X118262723Y-158655066D01*
X118365174Y-158911040D01*
X118968703Y-159123105D01*
X119607445Y-159088067D01*
X120034826Y-158911040D01*
X120137277Y-158655066D01*
X119200000Y-157717789D01*
X118262723Y-158655066D01*
X115308488Y-158655066D01*
X115436391Y-158602087D01*
X115802087Y-158236391D01*
X116000000Y-157758586D01*
X116000000Y-157268703D01*
X117576895Y-157268703D01*
X117611933Y-157907445D01*
X117788960Y-158334826D01*
X118044934Y-158437277D01*
X118982211Y-157500000D01*
X119417789Y-157500000D01*
X120355066Y-158437277D01*
X120611040Y-158334826D01*
X120823105Y-157731297D01*
X120788067Y-157092555D01*
X120611040Y-156665174D01*
X120355066Y-156562723D01*
X119417789Y-157500000D01*
X118982211Y-157500000D01*
X118044934Y-156562723D01*
X117788960Y-156665174D01*
X117576895Y-157268703D01*
X116000000Y-157268703D01*
X116000000Y-157241414D01*
X115802087Y-156763609D01*
X115436391Y-156397913D01*
X115308489Y-156344934D01*
X118262723Y-156344934D01*
X119200000Y-157282211D01*
X120137277Y-156344934D01*
X120034826Y-156088960D01*
X119431297Y-155876895D01*
X118792555Y-155911933D01*
X118365174Y-156088960D01*
X118262723Y-156344934D01*
X115308489Y-156344934D01*
X115125000Y-156268931D01*
X115125000Y-152231069D01*
X115308488Y-152155066D01*
X118262723Y-152155066D01*
X118365174Y-152411040D01*
X118968703Y-152623105D01*
X119607445Y-152588067D01*
X120034826Y-152411040D01*
X120137277Y-152155066D01*
X119200000Y-151217789D01*
X118262723Y-152155066D01*
X115308488Y-152155066D01*
X115436391Y-152102087D01*
X115802087Y-151736391D01*
X116000000Y-151258586D01*
X116000000Y-150768703D01*
X117576895Y-150768703D01*
X117611933Y-151407445D01*
X117788960Y-151834826D01*
X118044934Y-151937277D01*
X118982211Y-151000000D01*
X119417789Y-151000000D01*
X120355066Y-151937277D01*
X120611040Y-151834826D01*
X120823105Y-151231297D01*
X120788067Y-150592555D01*
X120611040Y-150165174D01*
X120355066Y-150062723D01*
X119417789Y-151000000D01*
X118982211Y-151000000D01*
X118044934Y-150062723D01*
X117788960Y-150165174D01*
X117576895Y-150768703D01*
X116000000Y-150768703D01*
X116000000Y-150741414D01*
X115802087Y-150263609D01*
X115436391Y-149897913D01*
X115308489Y-149844934D01*
X118262723Y-149844934D01*
X119200000Y-150782211D01*
X120137277Y-149844934D01*
X120034826Y-149588960D01*
X119431297Y-149376895D01*
X118792555Y-149411933D01*
X118365174Y-149588960D01*
X118262723Y-149844934D01*
X115308489Y-149844934D01*
X114958586Y-149700000D01*
X114441414Y-149700000D01*
X114130023Y-149828982D01*
X111725000Y-147423960D01*
X111725000Y-129941855D01*
X111733326Y-129899999D01*
X111723564Y-129850922D01*
X111700341Y-129734173D01*
X111634311Y-129635352D01*
X111875000Y-129876041D01*
X111875001Y-143458138D01*
X111866674Y-143500000D01*
X111899659Y-143665826D01*
X111899660Y-143665827D01*
X111993593Y-143806408D01*
X112029079Y-143830119D01*
X115869881Y-147670922D01*
X115893592Y-147706408D01*
X115929077Y-147730118D01*
X116034173Y-147800341D01*
X116200000Y-147833326D01*
X116241857Y-147825000D01*
X118873960Y-147825000D01*
X121478982Y-150430023D01*
X121350000Y-150741414D01*
X121350000Y-151258586D01*
X121547913Y-151736391D01*
X121913609Y-152102087D01*
X122225001Y-152231069D01*
X122225000Y-156127644D01*
X122225001Y-156127649D01*
X122225001Y-156268930D01*
X121913609Y-156397913D01*
X121547913Y-156763609D01*
X121350000Y-157241414D01*
X121350000Y-157758586D01*
X121547913Y-158236391D01*
X121913609Y-158602087D01*
X122391414Y-158800000D01*
X122908586Y-158800000D01*
X123258488Y-158655066D01*
X126212723Y-158655066D01*
X126315174Y-158911040D01*
X126918703Y-159123105D01*
X127557445Y-159088067D01*
X127984826Y-158911040D01*
X128087277Y-158655066D01*
X127150000Y-157717789D01*
X126212723Y-158655066D01*
X123258488Y-158655066D01*
X123386391Y-158602087D01*
X123752087Y-158236391D01*
X123950000Y-157758586D01*
X123950000Y-157268703D01*
X125526895Y-157268703D01*
X125561933Y-157907445D01*
X125738960Y-158334826D01*
X125994934Y-158437277D01*
X126932211Y-157500000D01*
X127367789Y-157500000D01*
X128305066Y-158437277D01*
X128561040Y-158334826D01*
X128773105Y-157731297D01*
X128738067Y-157092555D01*
X128561040Y-156665174D01*
X128305066Y-156562723D01*
X127367789Y-157500000D01*
X126932211Y-157500000D01*
X125994934Y-156562723D01*
X125738960Y-156665174D01*
X125526895Y-157268703D01*
X123950000Y-157268703D01*
X123950000Y-157241414D01*
X123752087Y-156763609D01*
X123386391Y-156397913D01*
X123258489Y-156344934D01*
X126212723Y-156344934D01*
X127150000Y-157282211D01*
X128087277Y-156344934D01*
X127984826Y-156088960D01*
X127381297Y-155876895D01*
X126742555Y-155911933D01*
X126315174Y-156088960D01*
X126212723Y-156344934D01*
X123258489Y-156344934D01*
X123075000Y-156268931D01*
X123075000Y-152231069D01*
X123258488Y-152155066D01*
X126212723Y-152155066D01*
X126315174Y-152411040D01*
X126918703Y-152623105D01*
X127557445Y-152588067D01*
X127984826Y-152411040D01*
X128087277Y-152155066D01*
X127150000Y-151217789D01*
X126212723Y-152155066D01*
X123258488Y-152155066D01*
X123386391Y-152102087D01*
X123752087Y-151736391D01*
X123950000Y-151258586D01*
X123950000Y-150768703D01*
X125526895Y-150768703D01*
X125561933Y-151407445D01*
X125738960Y-151834826D01*
X125994934Y-151937277D01*
X126932211Y-151000000D01*
X127367789Y-151000000D01*
X128305066Y-151937277D01*
X128561040Y-151834826D01*
X128773105Y-151231297D01*
X128738067Y-150592555D01*
X128561040Y-150165174D01*
X128305066Y-150062723D01*
X127367789Y-151000000D01*
X126932211Y-151000000D01*
X125994934Y-150062723D01*
X125738960Y-150165174D01*
X125526895Y-150768703D01*
X123950000Y-150768703D01*
X123950000Y-150741414D01*
X123752087Y-150263609D01*
X123386391Y-149897913D01*
X123258489Y-149844934D01*
X126212723Y-149844934D01*
X127150000Y-150782211D01*
X128087277Y-149844934D01*
X127984826Y-149588960D01*
X127381297Y-149376895D01*
X126742555Y-149411933D01*
X126315174Y-149588960D01*
X126212723Y-149844934D01*
X123258489Y-149844934D01*
X122908586Y-149700000D01*
X122391414Y-149700000D01*
X122080023Y-149828982D01*
X119380121Y-147129081D01*
X119356408Y-147093592D01*
X119215827Y-146999659D01*
X119091858Y-146975000D01*
X119091857Y-146975000D01*
X119050000Y-146966674D01*
X119008143Y-146975000D01*
X116376041Y-146975000D01*
X112725000Y-143323960D01*
X112725000Y-142989829D01*
X115853120Y-142989829D01*
X115853120Y-143606331D01*
X116089045Y-144175903D01*
X116524977Y-144611835D01*
X117094549Y-144847760D01*
X117711051Y-144847760D01*
X118280623Y-144611835D01*
X118716555Y-144175903D01*
X118952480Y-143606331D01*
X118952480Y-142989829D01*
X118716555Y-142420257D01*
X118280623Y-141984325D01*
X117711051Y-141748400D01*
X117094549Y-141748400D01*
X116524977Y-141984325D01*
X116089045Y-142420257D01*
X115853120Y-142989829D01*
X112725000Y-142989829D01*
X112725000Y-140487929D01*
X113351220Y-140487929D01*
X113351220Y-141104431D01*
X113587145Y-141674003D01*
X114023077Y-142109935D01*
X114592649Y-142345860D01*
X115209151Y-142345860D01*
X115778723Y-142109935D01*
X116214655Y-141674003D01*
X116450580Y-141104431D01*
X116450580Y-140493009D01*
X125848020Y-140493009D01*
X125848020Y-141109511D01*
X126083945Y-141679083D01*
X126519877Y-142115015D01*
X127089449Y-142350940D01*
X127705951Y-142350940D01*
X128275523Y-142115015D01*
X128711455Y-141679083D01*
X128947380Y-141109511D01*
X128947380Y-140493009D01*
X128711455Y-139923437D01*
X128275523Y-139487505D01*
X127705951Y-139251580D01*
X127089449Y-139251580D01*
X126519877Y-139487505D01*
X126083945Y-139923437D01*
X125848020Y-140493009D01*
X116450580Y-140493009D01*
X116450580Y-140487929D01*
X116214655Y-139918357D01*
X115778723Y-139482425D01*
X115209151Y-139246500D01*
X114592649Y-139246500D01*
X114023077Y-139482425D01*
X113587145Y-139918357D01*
X113351220Y-140487929D01*
X112725000Y-140487929D01*
X112725000Y-135491749D01*
X115850580Y-135491749D01*
X115850580Y-136108251D01*
X116086505Y-136677823D01*
X116522437Y-137113755D01*
X117092009Y-137349680D01*
X117708511Y-137349680D01*
X118278083Y-137113755D01*
X118714015Y-136677823D01*
X118949940Y-136108251D01*
X118949940Y-135491749D01*
X118714015Y-134922177D01*
X118278083Y-134486245D01*
X117708511Y-134250320D01*
X117092009Y-134250320D01*
X116522437Y-134486245D01*
X116086505Y-134922177D01*
X115850580Y-135491749D01*
X112725000Y-135491749D01*
X112725000Y-130495569D01*
X113351220Y-130495569D01*
X113351220Y-131112071D01*
X113587145Y-131681643D01*
X114023077Y-132117575D01*
X114592649Y-132353500D01*
X115209151Y-132353500D01*
X115778723Y-132117575D01*
X116214655Y-131681643D01*
X116450580Y-131112071D01*
X116450580Y-130495569D01*
X116448476Y-130490489D01*
X125848020Y-130490489D01*
X125848020Y-131106991D01*
X126083945Y-131676563D01*
X126519877Y-132112495D01*
X127089449Y-132348420D01*
X127705951Y-132348420D01*
X128275523Y-132112495D01*
X128711455Y-131676563D01*
X128947380Y-131106991D01*
X128947380Y-130490489D01*
X128711455Y-129920917D01*
X128275523Y-129484985D01*
X127705951Y-129249060D01*
X127089449Y-129249060D01*
X126519877Y-129484985D01*
X126083945Y-129920917D01*
X125848020Y-130490489D01*
X116448476Y-130490489D01*
X116214655Y-129925997D01*
X115778723Y-129490065D01*
X115209151Y-129254140D01*
X114592649Y-129254140D01*
X114023077Y-129490065D01*
X113587145Y-129925997D01*
X113351220Y-130495569D01*
X112725000Y-130495569D01*
X112725000Y-129741857D01*
X112733326Y-129700000D01*
X112700341Y-129534173D01*
X112697553Y-129530000D01*
X112606408Y-129393592D01*
X112570923Y-129369882D01*
X111194710Y-127993669D01*
X115853120Y-127993669D01*
X115853120Y-128610171D01*
X116089045Y-129179743D01*
X116524977Y-129615675D01*
X117094549Y-129851600D01*
X117711051Y-129851600D01*
X118280623Y-129615675D01*
X118716555Y-129179743D01*
X118952480Y-128610171D01*
X118952480Y-127993669D01*
X118716555Y-127424097D01*
X118280623Y-126988165D01*
X117711051Y-126752240D01*
X117094549Y-126752240D01*
X116524977Y-126988165D01*
X116089045Y-127424097D01*
X115853120Y-127993669D01*
X111194710Y-127993669D01*
X109330120Y-126129080D01*
X109330118Y-126129077D01*
X108730121Y-125529081D01*
X108706408Y-125493592D01*
X108566337Y-125400000D01*
X129600001Y-125400000D01*
X129600000Y-159600000D01*
X30400000Y-159600000D01*
X30400000Y-153792230D01*
X30450000Y-153792230D01*
X30450000Y-154607770D01*
X30762094Y-155361232D01*
X31338768Y-155937906D01*
X32092230Y-156250000D01*
X32907770Y-156250000D01*
X33661232Y-155937906D01*
X34237906Y-155361232D01*
X34550000Y-154607770D01*
X34550000Y-153792230D01*
X40050000Y-153792230D01*
X40050000Y-154607770D01*
X40362094Y-155361232D01*
X40938768Y-155937906D01*
X41692230Y-156250000D01*
X42507770Y-156250000D01*
X43261232Y-155937906D01*
X43837906Y-155361232D01*
X44150000Y-154607770D01*
X44150000Y-153792230D01*
X44290000Y-153792230D01*
X44290000Y-154607770D01*
X44602094Y-155361232D01*
X45178768Y-155937906D01*
X45932230Y-156250000D01*
X46747770Y-156250000D01*
X47501232Y-155937906D01*
X48077906Y-155361232D01*
X48390000Y-154607770D01*
X48390000Y-153792230D01*
X53890000Y-153792230D01*
X53890000Y-154607770D01*
X54202094Y-155361232D01*
X54778768Y-155937906D01*
X55532230Y-156250000D01*
X56347770Y-156250000D01*
X57101232Y-155937906D01*
X57677906Y-155361232D01*
X57990000Y-154607770D01*
X57990000Y-153792230D01*
X58130000Y-153792230D01*
X58130000Y-154607770D01*
X58442094Y-155361232D01*
X59018768Y-155937906D01*
X59772230Y-156250000D01*
X60587770Y-156250000D01*
X61341232Y-155937906D01*
X61917906Y-155361232D01*
X62230000Y-154607770D01*
X62230000Y-153792230D01*
X67730000Y-153792230D01*
X67730000Y-154607770D01*
X68042094Y-155361232D01*
X68618768Y-155937906D01*
X69372230Y-156250000D01*
X70187770Y-156250000D01*
X70941232Y-155937906D01*
X71517906Y-155361232D01*
X71830000Y-154607770D01*
X71830000Y-153792230D01*
X71970000Y-153792230D01*
X71970000Y-154607770D01*
X72282094Y-155361232D01*
X72858768Y-155937906D01*
X73612230Y-156250000D01*
X74427770Y-156250000D01*
X75181232Y-155937906D01*
X75757906Y-155361232D01*
X76070000Y-154607770D01*
X76070000Y-153792230D01*
X81570000Y-153792230D01*
X81570000Y-154607770D01*
X81882094Y-155361232D01*
X82458768Y-155937906D01*
X83212230Y-156250000D01*
X84027770Y-156250000D01*
X84781232Y-155937906D01*
X85357906Y-155361232D01*
X85670000Y-154607770D01*
X85670000Y-153792230D01*
X85810000Y-153792230D01*
X85810000Y-154607770D01*
X86122094Y-155361232D01*
X86698768Y-155937906D01*
X87452230Y-156250000D01*
X88267770Y-156250000D01*
X89021232Y-155937906D01*
X89597906Y-155361232D01*
X89910000Y-154607770D01*
X89910000Y-153792230D01*
X95410000Y-153792230D01*
X95410000Y-154607770D01*
X95722094Y-155361232D01*
X96298768Y-155937906D01*
X97052230Y-156250000D01*
X97867770Y-156250000D01*
X98621232Y-155937906D01*
X99197906Y-155361232D01*
X99510000Y-154607770D01*
X99510000Y-153792230D01*
X99650000Y-153792230D01*
X99650000Y-154607770D01*
X99962094Y-155361232D01*
X100538768Y-155937906D01*
X101292230Y-156250000D01*
X102107770Y-156250000D01*
X102861232Y-155937906D01*
X103437906Y-155361232D01*
X103750000Y-154607770D01*
X103750000Y-153792230D01*
X109250000Y-153792230D01*
X109250000Y-154607770D01*
X109562094Y-155361232D01*
X110138768Y-155937906D01*
X110892230Y-156250000D01*
X111707770Y-156250000D01*
X112461232Y-155937906D01*
X113037906Y-155361232D01*
X113350000Y-154607770D01*
X113350000Y-153792230D01*
X113037906Y-153038768D01*
X112461232Y-152462094D01*
X111707770Y-152150000D01*
X110892230Y-152150000D01*
X110138768Y-152462094D01*
X109562094Y-153038768D01*
X109250000Y-153792230D01*
X103750000Y-153792230D01*
X103437906Y-153038768D01*
X102861232Y-152462094D01*
X102107770Y-152150000D01*
X101292230Y-152150000D01*
X100538768Y-152462094D01*
X99962094Y-153038768D01*
X99650000Y-153792230D01*
X99510000Y-153792230D01*
X99197906Y-153038768D01*
X98621232Y-152462094D01*
X97867770Y-152150000D01*
X97052230Y-152150000D01*
X96298768Y-152462094D01*
X95722094Y-153038768D01*
X95410000Y-153792230D01*
X89910000Y-153792230D01*
X89597906Y-153038768D01*
X89021232Y-152462094D01*
X88267770Y-152150000D01*
X87452230Y-152150000D01*
X86698768Y-152462094D01*
X86122094Y-153038768D01*
X85810000Y-153792230D01*
X85670000Y-153792230D01*
X85357906Y-153038768D01*
X84781232Y-152462094D01*
X84027770Y-152150000D01*
X83212230Y-152150000D01*
X82458768Y-152462094D01*
X81882094Y-153038768D01*
X81570000Y-153792230D01*
X76070000Y-153792230D01*
X75757906Y-153038768D01*
X75181232Y-152462094D01*
X74427770Y-152150000D01*
X73612230Y-152150000D01*
X72858768Y-152462094D01*
X72282094Y-153038768D01*
X71970000Y-153792230D01*
X71830000Y-153792230D01*
X71517906Y-153038768D01*
X70941232Y-152462094D01*
X70187770Y-152150000D01*
X69372230Y-152150000D01*
X68618768Y-152462094D01*
X68042094Y-153038768D01*
X67730000Y-153792230D01*
X62230000Y-153792230D01*
X61917906Y-153038768D01*
X61341232Y-152462094D01*
X60587770Y-152150000D01*
X59772230Y-152150000D01*
X59018768Y-152462094D01*
X58442094Y-153038768D01*
X58130000Y-153792230D01*
X57990000Y-153792230D01*
X57677906Y-153038768D01*
X57101232Y-152462094D01*
X56347770Y-152150000D01*
X55532230Y-152150000D01*
X54778768Y-152462094D01*
X54202094Y-153038768D01*
X53890000Y-153792230D01*
X48390000Y-153792230D01*
X48077906Y-153038768D01*
X47501232Y-152462094D01*
X46747770Y-152150000D01*
X45932230Y-152150000D01*
X45178768Y-152462094D01*
X44602094Y-153038768D01*
X44290000Y-153792230D01*
X44150000Y-153792230D01*
X43837906Y-153038768D01*
X43261232Y-152462094D01*
X42507770Y-152150000D01*
X41692230Y-152150000D01*
X40938768Y-152462094D01*
X40362094Y-153038768D01*
X40050000Y-153792230D01*
X34550000Y-153792230D01*
X34237906Y-153038768D01*
X33661232Y-152462094D01*
X32907770Y-152150000D01*
X32092230Y-152150000D01*
X31338768Y-152462094D01*
X30762094Y-153038768D01*
X30450000Y-153792230D01*
X30400000Y-153792230D01*
X30400000Y-147568469D01*
X33438343Y-147568469D01*
X33587329Y-148080535D01*
X33920933Y-148496607D01*
X34388367Y-148753343D01*
X34436828Y-148758538D01*
X34646000Y-148646127D01*
X34646000Y-147354000D01*
X34954000Y-147354000D01*
X34954000Y-148646127D01*
X35163172Y-148758538D01*
X35211633Y-148753343D01*
X35679067Y-148496607D01*
X36012671Y-148080535D01*
X36161657Y-147568469D01*
X36011425Y-147354000D01*
X34954000Y-147354000D01*
X34646000Y-147354000D01*
X33588575Y-147354000D01*
X33438343Y-147568469D01*
X30400000Y-147568469D01*
X30400000Y-146831531D01*
X33438343Y-146831531D01*
X33588575Y-147046000D01*
X34646000Y-147046000D01*
X34646000Y-145753873D01*
X34954000Y-145753873D01*
X34954000Y-147046000D01*
X36011425Y-147046000D01*
X36151110Y-146846587D01*
X36250000Y-146846587D01*
X36250000Y-147553412D01*
X36310922Y-147859688D01*
X36542993Y-148207007D01*
X36890311Y-148439078D01*
X37300000Y-148520570D01*
X37709688Y-148439078D01*
X38057007Y-148207007D01*
X38289078Y-147859689D01*
X38350000Y-147553413D01*
X38350000Y-146846588D01*
X38350000Y-146846587D01*
X38750000Y-146846587D01*
X38750000Y-147553412D01*
X38810922Y-147859688D01*
X39042993Y-148207007D01*
X39390311Y-148439078D01*
X39800000Y-148520570D01*
X40209688Y-148439078D01*
X40557007Y-148207007D01*
X40789078Y-147859689D01*
X40847005Y-147568469D01*
X47278343Y-147568469D01*
X47427329Y-148080535D01*
X47760933Y-148496607D01*
X48228367Y-148753343D01*
X48276828Y-148758538D01*
X48486000Y-148646127D01*
X48486000Y-147354000D01*
X48794000Y-147354000D01*
X48794000Y-148646127D01*
X49003172Y-148758538D01*
X49051633Y-148753343D01*
X49519067Y-148496607D01*
X49852671Y-148080535D01*
X50001657Y-147568469D01*
X49851425Y-147354000D01*
X48794000Y-147354000D01*
X48486000Y-147354000D01*
X47428575Y-147354000D01*
X47278343Y-147568469D01*
X40847005Y-147568469D01*
X40850000Y-147553413D01*
X40850000Y-146846588D01*
X40847005Y-146831531D01*
X47278343Y-146831531D01*
X47428575Y-147046000D01*
X48486000Y-147046000D01*
X48486000Y-145753873D01*
X48794000Y-145753873D01*
X48794000Y-147046000D01*
X49851425Y-147046000D01*
X49991110Y-146846587D01*
X50090000Y-146846587D01*
X50090000Y-147553412D01*
X50150922Y-147859688D01*
X50382993Y-148207007D01*
X50730311Y-148439078D01*
X51140000Y-148520570D01*
X51549688Y-148439078D01*
X51897007Y-148207007D01*
X52129078Y-147859689D01*
X52190000Y-147553413D01*
X52190000Y-146846588D01*
X52190000Y-146846587D01*
X52590000Y-146846587D01*
X52590000Y-147553412D01*
X52650922Y-147859688D01*
X52882993Y-148207007D01*
X53230311Y-148439078D01*
X53640000Y-148520570D01*
X54049688Y-148439078D01*
X54397007Y-148207007D01*
X54629078Y-147859689D01*
X54687005Y-147568469D01*
X61118343Y-147568469D01*
X61267329Y-148080535D01*
X61600933Y-148496607D01*
X62068367Y-148753343D01*
X62116828Y-148758538D01*
X62326000Y-148646127D01*
X62326000Y-147354000D01*
X62634000Y-147354000D01*
X62634000Y-148646127D01*
X62843172Y-148758538D01*
X62891633Y-148753343D01*
X63359067Y-148496607D01*
X63692671Y-148080535D01*
X63841657Y-147568469D01*
X63691425Y-147354000D01*
X62634000Y-147354000D01*
X62326000Y-147354000D01*
X61268575Y-147354000D01*
X61118343Y-147568469D01*
X54687005Y-147568469D01*
X54690000Y-147553413D01*
X54690000Y-146846588D01*
X54687005Y-146831531D01*
X61118343Y-146831531D01*
X61268575Y-147046000D01*
X62326000Y-147046000D01*
X62326000Y-145753873D01*
X62634000Y-145753873D01*
X62634000Y-147046000D01*
X63691425Y-147046000D01*
X63831110Y-146846587D01*
X63930000Y-146846587D01*
X63930000Y-147553412D01*
X63990922Y-147859688D01*
X64222993Y-148207007D01*
X64570311Y-148439078D01*
X64980000Y-148520570D01*
X65389688Y-148439078D01*
X65737007Y-148207007D01*
X65969078Y-147859689D01*
X66030000Y-147553413D01*
X66030000Y-146846588D01*
X66030000Y-146846587D01*
X66430000Y-146846587D01*
X66430000Y-147553412D01*
X66490922Y-147859688D01*
X66722993Y-148207007D01*
X67070311Y-148439078D01*
X67480000Y-148520570D01*
X67889688Y-148439078D01*
X68237007Y-148207007D01*
X68469078Y-147859689D01*
X68527005Y-147568469D01*
X74958343Y-147568469D01*
X75107329Y-148080535D01*
X75440933Y-148496607D01*
X75908367Y-148753343D01*
X75956828Y-148758538D01*
X76166000Y-148646127D01*
X76166000Y-147354000D01*
X76474000Y-147354000D01*
X76474000Y-148646127D01*
X76683172Y-148758538D01*
X76731633Y-148753343D01*
X77199067Y-148496607D01*
X77532671Y-148080535D01*
X77681657Y-147568469D01*
X77531425Y-147354000D01*
X76474000Y-147354000D01*
X76166000Y-147354000D01*
X75108575Y-147354000D01*
X74958343Y-147568469D01*
X68527005Y-147568469D01*
X68530000Y-147553413D01*
X68530000Y-146846588D01*
X68527005Y-146831531D01*
X74958343Y-146831531D01*
X75108575Y-147046000D01*
X76166000Y-147046000D01*
X76166000Y-145753873D01*
X76474000Y-145753873D01*
X76474000Y-147046000D01*
X77531425Y-147046000D01*
X77671110Y-146846587D01*
X77770000Y-146846587D01*
X77770000Y-147553412D01*
X77830922Y-147859688D01*
X78062993Y-148207007D01*
X78410311Y-148439078D01*
X78820000Y-148520570D01*
X79229688Y-148439078D01*
X79577007Y-148207007D01*
X79809078Y-147859689D01*
X79870000Y-147553413D01*
X79870000Y-146846588D01*
X79870000Y-146846587D01*
X80270000Y-146846587D01*
X80270000Y-147553412D01*
X80330922Y-147859688D01*
X80562993Y-148207007D01*
X80910311Y-148439078D01*
X81320000Y-148520570D01*
X81729688Y-148439078D01*
X82077007Y-148207007D01*
X82309078Y-147859689D01*
X82367005Y-147568469D01*
X88798343Y-147568469D01*
X88947329Y-148080535D01*
X89280933Y-148496607D01*
X89748367Y-148753343D01*
X89796828Y-148758538D01*
X90006000Y-148646127D01*
X90006000Y-147354000D01*
X90314000Y-147354000D01*
X90314000Y-148646127D01*
X90523172Y-148758538D01*
X90571633Y-148753343D01*
X91039067Y-148496607D01*
X91372671Y-148080535D01*
X91521657Y-147568469D01*
X91371425Y-147354000D01*
X90314000Y-147354000D01*
X90006000Y-147354000D01*
X88948575Y-147354000D01*
X88798343Y-147568469D01*
X82367005Y-147568469D01*
X82370000Y-147553413D01*
X82370000Y-146846588D01*
X82367005Y-146831531D01*
X88798343Y-146831531D01*
X88948575Y-147046000D01*
X90006000Y-147046000D01*
X90006000Y-145753873D01*
X90314000Y-145753873D01*
X90314000Y-147046000D01*
X91371425Y-147046000D01*
X91511110Y-146846587D01*
X91610000Y-146846587D01*
X91610000Y-147553412D01*
X91670922Y-147859688D01*
X91902993Y-148207007D01*
X92250311Y-148439078D01*
X92660000Y-148520570D01*
X93069688Y-148439078D01*
X93417007Y-148207007D01*
X93649078Y-147859689D01*
X93710000Y-147553413D01*
X93710000Y-146846588D01*
X93710000Y-146846587D01*
X94110000Y-146846587D01*
X94110000Y-147553412D01*
X94170922Y-147859688D01*
X94402993Y-148207007D01*
X94750311Y-148439078D01*
X95160000Y-148520570D01*
X95569688Y-148439078D01*
X95917007Y-148207007D01*
X96149078Y-147859689D01*
X96167910Y-147765016D01*
X97821625Y-149418732D01*
X97849520Y-149460480D01*
X98014909Y-149570988D01*
X98014910Y-149570989D01*
X98210000Y-149609795D01*
X98259243Y-149600000D01*
X107300759Y-149600000D01*
X107350000Y-149609795D01*
X107399241Y-149600000D01*
X107399243Y-149600000D01*
X107545090Y-149570989D01*
X107710480Y-149460480D01*
X107738376Y-149418730D01*
X108696839Y-148460268D01*
X109000000Y-148520570D01*
X109409688Y-148439078D01*
X109757007Y-148207007D01*
X109989078Y-147859689D01*
X110050000Y-147553413D01*
X110050000Y-146846588D01*
X109989078Y-146540312D01*
X109757007Y-146192993D01*
X109409689Y-145960922D01*
X109000000Y-145879430D01*
X108590312Y-145960922D01*
X108242994Y-146192993D01*
X108010922Y-146540311D01*
X107950000Y-146846587D01*
X107950000Y-147553412D01*
X107989732Y-147753161D01*
X107142894Y-148600000D01*
X104690821Y-148600000D01*
X104879067Y-148496607D01*
X105212671Y-148080535D01*
X105361657Y-147568469D01*
X105211425Y-147354000D01*
X104154000Y-147354000D01*
X104154000Y-147374000D01*
X103846000Y-147374000D01*
X103846000Y-147354000D01*
X102788575Y-147354000D01*
X102638343Y-147568469D01*
X102787329Y-148080535D01*
X103120933Y-148496607D01*
X103309179Y-148600000D01*
X98417107Y-148600000D01*
X96698376Y-146881270D01*
X96670480Y-146839520D01*
X96658524Y-146831531D01*
X102638343Y-146831531D01*
X102788575Y-147046000D01*
X103846000Y-147046000D01*
X103846000Y-145753873D01*
X104154000Y-145753873D01*
X104154000Y-147046000D01*
X105211425Y-147046000D01*
X105351110Y-146846587D01*
X105450000Y-146846587D01*
X105450000Y-147553412D01*
X105510922Y-147859688D01*
X105742993Y-148207007D01*
X106090311Y-148439078D01*
X106500000Y-148520570D01*
X106909688Y-148439078D01*
X107257007Y-148207007D01*
X107489078Y-147859689D01*
X107550000Y-147553413D01*
X107550000Y-146846588D01*
X107489078Y-146540312D01*
X107257007Y-146192993D01*
X106909689Y-145960922D01*
X106500000Y-145879430D01*
X106090312Y-145960922D01*
X105742994Y-146192993D01*
X105510922Y-146540311D01*
X105450000Y-146846587D01*
X105351110Y-146846587D01*
X105361657Y-146831531D01*
X105212671Y-146319465D01*
X104879067Y-145903393D01*
X104411633Y-145646657D01*
X104363172Y-145641462D01*
X104154000Y-145753873D01*
X103846000Y-145753873D01*
X103636828Y-145641462D01*
X103588367Y-145646657D01*
X103120933Y-145903393D01*
X102787329Y-146319465D01*
X102638343Y-146831531D01*
X96658524Y-146831531D01*
X96505090Y-146729011D01*
X96359243Y-146700000D01*
X96359241Y-146700000D01*
X96310000Y-146690205D01*
X96260759Y-146700000D01*
X96180842Y-146700000D01*
X96149078Y-146540312D01*
X95917007Y-146192993D01*
X95569689Y-145960922D01*
X95160000Y-145879430D01*
X94750312Y-145960922D01*
X94402994Y-146192993D01*
X94170922Y-146540311D01*
X94110000Y-146846587D01*
X93710000Y-146846587D01*
X93649078Y-146540312D01*
X93417007Y-146192993D01*
X93069689Y-145960922D01*
X92660000Y-145879430D01*
X92250312Y-145960922D01*
X91902994Y-146192993D01*
X91670922Y-146540311D01*
X91610000Y-146846587D01*
X91511110Y-146846587D01*
X91521657Y-146831531D01*
X91372671Y-146319465D01*
X91039067Y-145903393D01*
X90571633Y-145646657D01*
X90523172Y-145641462D01*
X90314000Y-145753873D01*
X90006000Y-145753873D01*
X89796828Y-145641462D01*
X89748367Y-145646657D01*
X89280933Y-145903393D01*
X88947329Y-146319465D01*
X88798343Y-146831531D01*
X82367005Y-146831531D01*
X82309078Y-146540312D01*
X82077007Y-146192993D01*
X81729689Y-145960922D01*
X81320000Y-145879430D01*
X80910312Y-145960922D01*
X80562994Y-146192993D01*
X80330922Y-146540311D01*
X80270000Y-146846587D01*
X79870000Y-146846587D01*
X79809078Y-146540312D01*
X79577007Y-146192993D01*
X79229689Y-145960922D01*
X78820000Y-145879430D01*
X78410312Y-145960922D01*
X78062994Y-146192993D01*
X77830922Y-146540311D01*
X77770000Y-146846587D01*
X77671110Y-146846587D01*
X77681657Y-146831531D01*
X77532671Y-146319465D01*
X77199067Y-145903393D01*
X76731633Y-145646657D01*
X76683172Y-145641462D01*
X76474000Y-145753873D01*
X76166000Y-145753873D01*
X75956828Y-145641462D01*
X75908367Y-145646657D01*
X75440933Y-145903393D01*
X75107329Y-146319465D01*
X74958343Y-146831531D01*
X68527005Y-146831531D01*
X68469078Y-146540312D01*
X68237007Y-146192993D01*
X67889689Y-145960922D01*
X67480000Y-145879430D01*
X67070312Y-145960922D01*
X66722994Y-146192993D01*
X66490922Y-146540311D01*
X66430000Y-146846587D01*
X66030000Y-146846587D01*
X65969078Y-146540312D01*
X65737007Y-146192993D01*
X65389689Y-145960922D01*
X64980000Y-145879430D01*
X64570312Y-145960922D01*
X64222994Y-146192993D01*
X63990922Y-146540311D01*
X63930000Y-146846587D01*
X63831110Y-146846587D01*
X63841657Y-146831531D01*
X63692671Y-146319465D01*
X63359067Y-145903393D01*
X62891633Y-145646657D01*
X62843172Y-145641462D01*
X62634000Y-145753873D01*
X62326000Y-145753873D01*
X62116828Y-145641462D01*
X62068367Y-145646657D01*
X61600933Y-145903393D01*
X61267329Y-146319465D01*
X61118343Y-146831531D01*
X54687005Y-146831531D01*
X54629078Y-146540312D01*
X54397007Y-146192993D01*
X54049689Y-145960922D01*
X53640000Y-145879430D01*
X53230312Y-145960922D01*
X52882994Y-146192993D01*
X52650922Y-146540311D01*
X52590000Y-146846587D01*
X52190000Y-146846587D01*
X52129078Y-146540312D01*
X51897007Y-146192993D01*
X51549689Y-145960922D01*
X51140000Y-145879430D01*
X50730312Y-145960922D01*
X50382994Y-146192993D01*
X50150922Y-146540311D01*
X50090000Y-146846587D01*
X49991110Y-146846587D01*
X50001657Y-146831531D01*
X49852671Y-146319465D01*
X49519067Y-145903393D01*
X49051633Y-145646657D01*
X49003172Y-145641462D01*
X48794000Y-145753873D01*
X48486000Y-145753873D01*
X48276828Y-145641462D01*
X48228367Y-145646657D01*
X47760933Y-145903393D01*
X47427329Y-146319465D01*
X47278343Y-146831531D01*
X40847005Y-146831531D01*
X40789078Y-146540312D01*
X40557007Y-146192993D01*
X40209689Y-145960922D01*
X39800000Y-145879430D01*
X39390312Y-145960922D01*
X39042994Y-146192993D01*
X38810922Y-146540311D01*
X38750000Y-146846587D01*
X38350000Y-146846587D01*
X38289078Y-146540312D01*
X38057007Y-146192993D01*
X37709689Y-145960922D01*
X37300000Y-145879430D01*
X36890312Y-145960922D01*
X36542994Y-146192993D01*
X36310922Y-146540311D01*
X36250000Y-146846587D01*
X36151110Y-146846587D01*
X36161657Y-146831531D01*
X36012671Y-146319465D01*
X35679067Y-145903393D01*
X35211633Y-145646657D01*
X35163172Y-145641462D01*
X34954000Y-145753873D01*
X34646000Y-145753873D01*
X34436828Y-145641462D01*
X34388367Y-145646657D01*
X33920933Y-145903393D01*
X33587329Y-146319465D01*
X33438343Y-146831531D01*
X30400000Y-146831531D01*
X30400000Y-142506000D01*
X35092000Y-142506000D01*
X35092000Y-143020938D01*
X35184562Y-143244404D01*
X35355595Y-143415437D01*
X35579061Y-143508000D01*
X35969000Y-143508000D01*
X36121000Y-143356000D01*
X36121000Y-142354000D01*
X35244000Y-142354000D01*
X35092000Y-142506000D01*
X30400000Y-142506000D01*
X30400000Y-141379062D01*
X35092000Y-141379062D01*
X35092000Y-141894000D01*
X35244000Y-142046000D01*
X36121000Y-142046000D01*
X36121000Y-141044000D01*
X36429000Y-141044000D01*
X36429000Y-142046000D01*
X36449000Y-142046000D01*
X36449000Y-142354000D01*
X36429000Y-142354000D01*
X36429000Y-143356000D01*
X36581000Y-143508000D01*
X36970939Y-143508000D01*
X37194405Y-143415437D01*
X37365438Y-143244404D01*
X37458000Y-143020938D01*
X37458000Y-142719765D01*
X37486437Y-142862726D01*
X37606935Y-143043065D01*
X37787274Y-143163563D01*
X37999999Y-143205877D01*
X38650001Y-143205877D01*
X38862726Y-143163563D01*
X39043065Y-143043065D01*
X39163563Y-142862726D01*
X39205877Y-142650001D01*
X39205877Y-142625000D01*
X42693145Y-142625000D01*
X42735002Y-142633326D01*
X42776859Y-142625000D01*
X42776860Y-142625000D01*
X42900829Y-142600341D01*
X43041410Y-142506408D01*
X43041682Y-142506000D01*
X48932000Y-142506000D01*
X48932000Y-143020938D01*
X49024562Y-143244404D01*
X49195595Y-143415437D01*
X49419061Y-143508000D01*
X49809000Y-143508000D01*
X49961000Y-143356000D01*
X49961000Y-142354000D01*
X49084000Y-142354000D01*
X48932000Y-142506000D01*
X43041682Y-142506000D01*
X43065123Y-142470919D01*
X44156980Y-141379062D01*
X48932000Y-141379062D01*
X48932000Y-141894000D01*
X49084000Y-142046000D01*
X49961000Y-142046000D01*
X49961000Y-141044000D01*
X50269000Y-141044000D01*
X50269000Y-142046000D01*
X50289000Y-142046000D01*
X50289000Y-142354000D01*
X50269000Y-142354000D01*
X50269000Y-143356000D01*
X50421000Y-143508000D01*
X50810939Y-143508000D01*
X51034405Y-143415437D01*
X51205438Y-143244404D01*
X51298000Y-143020938D01*
X51298000Y-142719765D01*
X51326437Y-142862726D01*
X51446935Y-143043065D01*
X51627274Y-143163563D01*
X51839999Y-143205877D01*
X52490001Y-143205877D01*
X52702726Y-143163563D01*
X52883065Y-143043065D01*
X53003563Y-142862726D01*
X53045877Y-142650001D01*
X53045877Y-142506000D01*
X62772000Y-142506000D01*
X62772000Y-143020938D01*
X62864562Y-143244404D01*
X63035595Y-143415437D01*
X63259061Y-143508000D01*
X63649000Y-143508000D01*
X63801000Y-143356000D01*
X63801000Y-142354000D01*
X62924000Y-142354000D01*
X62772000Y-142506000D01*
X53045877Y-142506000D01*
X53045877Y-141749999D01*
X53003563Y-141537274D01*
X52897850Y-141379062D01*
X62772000Y-141379062D01*
X62772000Y-141894000D01*
X62924000Y-142046000D01*
X63801000Y-142046000D01*
X63801000Y-141044000D01*
X63649000Y-140892000D01*
X63259061Y-140892000D01*
X63035595Y-140984563D01*
X62864562Y-141155596D01*
X62772000Y-141379062D01*
X52897850Y-141379062D01*
X52883065Y-141356935D01*
X52702726Y-141236437D01*
X52590000Y-141214014D01*
X52590000Y-138000635D01*
X52721900Y-138132535D01*
X53126196Y-138300000D01*
X53563804Y-138300000D01*
X53968100Y-138132535D01*
X54277535Y-137823100D01*
X54445000Y-137418804D01*
X54445000Y-136981196D01*
X55790000Y-136981196D01*
X55790000Y-137418804D01*
X55957465Y-137823100D01*
X56266900Y-138132535D01*
X56671196Y-138300000D01*
X57108804Y-138300000D01*
X57513100Y-138132535D01*
X57822535Y-137823100D01*
X57990000Y-137418804D01*
X57990000Y-136981196D01*
X57822535Y-136576900D01*
X57513100Y-136267465D01*
X57108804Y-136100000D01*
X56671196Y-136100000D01*
X56266900Y-136267465D01*
X55957465Y-136576900D01*
X55790000Y-136981196D01*
X54445000Y-136981196D01*
X54277535Y-136576900D01*
X53968100Y-136267465D01*
X53563804Y-136100000D01*
X53126196Y-136100000D01*
X52721900Y-136267465D01*
X52590000Y-136399365D01*
X52590000Y-130936040D01*
X52912242Y-130613799D01*
X52915801Y-130616177D01*
X53236661Y-130680000D01*
X53453339Y-130680000D01*
X53774199Y-130616177D01*
X54138056Y-130373056D01*
X54381177Y-130009199D01*
X54466550Y-129580000D01*
X55768450Y-129580000D01*
X55853823Y-130009199D01*
X56096944Y-130373056D01*
X56460801Y-130616177D01*
X56781661Y-130680000D01*
X56998339Y-130680000D01*
X57319199Y-130616177D01*
X57322758Y-130613799D01*
X58075001Y-131366042D01*
X58075000Y-137758143D01*
X58066674Y-137800000D01*
X58075000Y-137841857D01*
X58099659Y-137965826D01*
X58193592Y-138106408D01*
X58229081Y-138130121D01*
X59769881Y-139670922D01*
X59793592Y-139706408D01*
X59829077Y-139730118D01*
X59934173Y-139800341D01*
X60100000Y-139833326D01*
X60141857Y-139825000D01*
X63828960Y-139825000D01*
X65331270Y-141327311D01*
X65286935Y-141356935D01*
X65166437Y-141537274D01*
X65138000Y-141680235D01*
X65138000Y-141379062D01*
X65045438Y-141155596D01*
X64874405Y-140984563D01*
X64650939Y-140892000D01*
X64261000Y-140892000D01*
X64109000Y-141044000D01*
X64109000Y-142046000D01*
X64129000Y-142046000D01*
X64129000Y-142354000D01*
X64109000Y-142354000D01*
X64109000Y-143356000D01*
X64261000Y-143508000D01*
X64650939Y-143508000D01*
X64874405Y-143415437D01*
X65045438Y-143244404D01*
X65138000Y-143020938D01*
X65138000Y-142719765D01*
X65166437Y-142862726D01*
X65286935Y-143043065D01*
X65467274Y-143163563D01*
X65679999Y-143205877D01*
X66330001Y-143205877D01*
X66542726Y-143163563D01*
X66723065Y-143043065D01*
X66843563Y-142862726D01*
X66885877Y-142650001D01*
X66885877Y-142506000D01*
X76612000Y-142506000D01*
X76612000Y-143020938D01*
X76704562Y-143244404D01*
X76875595Y-143415437D01*
X77099061Y-143508000D01*
X77489000Y-143508000D01*
X77641000Y-143356000D01*
X77641000Y-142354000D01*
X76764000Y-142354000D01*
X76612000Y-142506000D01*
X66885877Y-142506000D01*
X66885877Y-141749999D01*
X66843563Y-141537274D01*
X66737850Y-141379062D01*
X76612000Y-141379062D01*
X76612000Y-141894000D01*
X76764000Y-142046000D01*
X77641000Y-142046000D01*
X77641000Y-141044000D01*
X77489000Y-140892000D01*
X77099061Y-140892000D01*
X76875595Y-140984563D01*
X76704562Y-141155596D01*
X76612000Y-141379062D01*
X66737850Y-141379062D01*
X66723065Y-141356935D01*
X66542726Y-141236437D01*
X66386027Y-141205267D01*
X66311408Y-141093592D01*
X66275922Y-141069881D01*
X64335121Y-139129081D01*
X64311408Y-139093592D01*
X64170827Y-138999659D01*
X64046858Y-138975000D01*
X64046857Y-138975000D01*
X64005000Y-138966674D01*
X63963143Y-138975000D01*
X60276041Y-138975000D01*
X58925000Y-137623960D01*
X58925000Y-131231857D01*
X58933326Y-131190000D01*
X58924315Y-131144696D01*
X58900341Y-131024173D01*
X58806408Y-130883592D01*
X58770922Y-130859881D01*
X57923799Y-130012758D01*
X57926177Y-130009199D01*
X58011550Y-129580000D01*
X59313450Y-129580000D01*
X59398823Y-130009199D01*
X59641944Y-130373056D01*
X60005801Y-130616177D01*
X60326661Y-130680000D01*
X60543339Y-130680000D01*
X60864199Y-130616177D01*
X61228056Y-130373056D01*
X61471177Y-130009199D01*
X61556550Y-129580000D01*
X61471177Y-129150801D01*
X61228056Y-128786944D01*
X60864199Y-128543823D01*
X60543339Y-128480000D01*
X60326661Y-128480000D01*
X60005801Y-128543823D01*
X59641944Y-128786944D01*
X59398823Y-129150801D01*
X59313450Y-129580000D01*
X58011550Y-129580000D01*
X57926177Y-129150801D01*
X57683056Y-128786944D01*
X57319199Y-128543823D01*
X56998339Y-128480000D01*
X56781661Y-128480000D01*
X56460801Y-128543823D01*
X56096944Y-128786944D01*
X55853823Y-129150801D01*
X55768450Y-129580000D01*
X54466550Y-129580000D01*
X54381177Y-129150801D01*
X54138056Y-128786944D01*
X53774199Y-128543823D01*
X53453339Y-128480000D01*
X53236661Y-128480000D01*
X52915801Y-128543823D01*
X52551944Y-128786944D01*
X52308823Y-129150801D01*
X52223450Y-129580000D01*
X52308823Y-130009199D01*
X52311201Y-130012758D01*
X51894079Y-130429881D01*
X51858593Y-130453592D01*
X51834882Y-130489078D01*
X51764659Y-130594174D01*
X51731674Y-130760000D01*
X51740001Y-130801862D01*
X51740000Y-141214014D01*
X51627274Y-141236437D01*
X51446935Y-141356935D01*
X51326437Y-141537274D01*
X51298000Y-141680235D01*
X51298000Y-141379062D01*
X51205438Y-141155596D01*
X51034405Y-140984563D01*
X50810939Y-140892000D01*
X50421000Y-140892000D01*
X50269000Y-141044000D01*
X49961000Y-141044000D01*
X49809000Y-140892000D01*
X49419061Y-140892000D01*
X49195595Y-140984563D01*
X49024562Y-141155596D01*
X48932000Y-141379062D01*
X44156980Y-141379062D01*
X48802639Y-136733404D01*
X48700000Y-136981196D01*
X48700000Y-137418804D01*
X48867465Y-137823100D01*
X49176900Y-138132535D01*
X49581196Y-138300000D01*
X50018804Y-138300000D01*
X50423100Y-138132535D01*
X50732535Y-137823100D01*
X50900000Y-137418804D01*
X50900000Y-136981196D01*
X50732535Y-136576900D01*
X50423100Y-136267465D01*
X50018804Y-136100000D01*
X49581196Y-136100000D01*
X49333404Y-136202639D01*
X50070923Y-135465120D01*
X50106408Y-135441410D01*
X50200341Y-135300829D01*
X50225000Y-135176860D01*
X50225000Y-135176859D01*
X50233326Y-135135002D01*
X50225000Y-135093145D01*
X50225000Y-130617012D01*
X50229199Y-130616177D01*
X50593056Y-130373056D01*
X50836177Y-130009199D01*
X50921550Y-129580000D01*
X50836177Y-129150801D01*
X50593056Y-128786944D01*
X50229199Y-128543823D01*
X49908339Y-128480000D01*
X49691661Y-128480000D01*
X49370801Y-128543823D01*
X49006944Y-128786944D01*
X48763823Y-129150801D01*
X48678450Y-129580000D01*
X48763823Y-130009199D01*
X49006944Y-130373056D01*
X49370801Y-130616177D01*
X49375000Y-130617012D01*
X49375000Y-130753227D01*
X49375001Y-130753232D01*
X49375000Y-134958961D01*
X47855877Y-136478084D01*
X47855877Y-133000000D01*
X47832593Y-132882946D01*
X47766288Y-132783712D01*
X47667054Y-132717407D01*
X47550000Y-132694123D01*
X47050000Y-132694123D01*
X47050000Y-129157106D01*
X47358096Y-128849010D01*
X47481196Y-128900000D01*
X47918804Y-128900000D01*
X48323100Y-128732535D01*
X48632535Y-128423100D01*
X48800000Y-128018804D01*
X48800000Y-127581196D01*
X48632535Y-127176900D01*
X48323100Y-126867465D01*
X47918804Y-126700000D01*
X47481196Y-126700000D01*
X47076900Y-126867465D01*
X46767465Y-127176900D01*
X46600000Y-127581196D01*
X46600000Y-128018804D01*
X46650990Y-128141904D01*
X46231268Y-128561626D01*
X46189521Y-128589520D01*
X46104060Y-128717423D01*
X46079012Y-128754910D01*
X46040205Y-128950000D01*
X46050001Y-128999246D01*
X46050000Y-132694123D01*
X45550000Y-132694123D01*
X45432946Y-132717407D01*
X45333712Y-132783712D01*
X45267407Y-132882946D01*
X45244123Y-133000000D01*
X45244123Y-134400000D01*
X41555877Y-134400000D01*
X41555877Y-134150000D01*
X41532593Y-134032946D01*
X41466288Y-133933712D01*
X41452238Y-133924325D01*
X41594405Y-133865437D01*
X41765438Y-133694404D01*
X41858000Y-133470938D01*
X41858000Y-132906000D01*
X41706000Y-132754000D01*
X40404000Y-132754000D01*
X40404000Y-132774000D01*
X40096000Y-132774000D01*
X40096000Y-132754000D01*
X38794000Y-132754000D01*
X38642000Y-132906000D01*
X38642000Y-133470938D01*
X38734562Y-133694404D01*
X38905595Y-133865437D01*
X39047762Y-133924325D01*
X39033712Y-133933712D01*
X38967407Y-134032946D01*
X38944123Y-134150000D01*
X38944123Y-135650000D01*
X38967407Y-135767054D01*
X39033712Y-135866288D01*
X39132946Y-135932593D01*
X39250000Y-135955877D01*
X41250000Y-135955877D01*
X41367054Y-135932593D01*
X41466288Y-135866288D01*
X41532593Y-135767054D01*
X41555877Y-135650000D01*
X41555877Y-135400000D01*
X45244123Y-135400000D01*
X45244123Y-136800000D01*
X45267407Y-136917054D01*
X45333712Y-137016288D01*
X45432946Y-137082593D01*
X45550000Y-137105877D01*
X47228084Y-137105877D01*
X42558962Y-141775000D01*
X39205877Y-141775000D01*
X39205877Y-141749999D01*
X39163563Y-141537274D01*
X39043065Y-141356935D01*
X38862726Y-141236437D01*
X38650001Y-141194123D01*
X37999999Y-141194123D01*
X37787274Y-141236437D01*
X37606935Y-141356935D01*
X37486437Y-141537274D01*
X37458000Y-141680235D01*
X37458000Y-141379062D01*
X37365438Y-141155596D01*
X37194405Y-140984563D01*
X36970939Y-140892000D01*
X36581000Y-140892000D01*
X36429000Y-141044000D01*
X36121000Y-141044000D01*
X35969000Y-140892000D01*
X35579061Y-140892000D01*
X35355595Y-140984563D01*
X35184562Y-141155596D01*
X35092000Y-141379062D01*
X30400000Y-141379062D01*
X30400000Y-139186696D01*
X30599142Y-139362822D01*
X31021000Y-139508000D01*
X31446000Y-139508000D01*
X31446000Y-138529000D01*
X31754000Y-138529000D01*
X31754000Y-139508000D01*
X32179000Y-139508000D01*
X32600858Y-139362822D01*
X32935047Y-139067257D01*
X33109574Y-138702699D01*
X32993837Y-138529000D01*
X31754000Y-138529000D01*
X31446000Y-138529000D01*
X31426000Y-138529000D01*
X31426000Y-138221000D01*
X31446000Y-138221000D01*
X31446000Y-136079000D01*
X31426000Y-136079000D01*
X31426000Y-135771000D01*
X31446000Y-135771000D01*
X31446000Y-133829000D01*
X31426000Y-133829000D01*
X31426000Y-133521000D01*
X31446000Y-133521000D01*
X31446000Y-131379000D01*
X31754000Y-131379000D01*
X31754000Y-133521000D01*
X32711158Y-133521000D01*
X32760596Y-133570438D01*
X32984062Y-133663000D01*
X33244123Y-133663000D01*
X33244123Y-133700000D01*
X33267407Y-133817054D01*
X33272716Y-133825000D01*
X33267407Y-133832946D01*
X33244123Y-133950000D01*
X33244123Y-134350000D01*
X33267407Y-134467054D01*
X33272716Y-134475000D01*
X33267407Y-134482946D01*
X33244123Y-134600000D01*
X33244123Y-135000000D01*
X33267407Y-135117054D01*
X33272716Y-135125000D01*
X33267407Y-135132946D01*
X33244123Y-135250000D01*
X33244123Y-135368604D01*
X33205596Y-135384562D01*
X33158000Y-135432158D01*
X33158000Y-134929061D01*
X33104541Y-134800000D01*
X33158000Y-134670939D01*
X33158000Y-133981000D01*
X33006000Y-133829000D01*
X31754000Y-133829000D01*
X31754000Y-135771000D01*
X31774000Y-135771000D01*
X31774000Y-136079000D01*
X31754000Y-136079000D01*
X31754000Y-138221000D01*
X32786095Y-138221000D01*
X32984062Y-138303000D01*
X33524000Y-138303000D01*
X33676000Y-138151000D01*
X33676000Y-137274000D01*
X33984000Y-137274000D01*
X33984000Y-138151000D01*
X34136000Y-138303000D01*
X34675938Y-138303000D01*
X34899404Y-138210438D01*
X35070437Y-138039405D01*
X35163000Y-137815939D01*
X35163000Y-137426000D01*
X35011000Y-137274000D01*
X33984000Y-137274000D01*
X33676000Y-137274000D01*
X33656000Y-137274000D01*
X33656000Y-136966000D01*
X33676000Y-136966000D01*
X33676000Y-136946000D01*
X33984000Y-136946000D01*
X33984000Y-136966000D01*
X35011000Y-136966000D01*
X35069000Y-136908000D01*
X35070938Y-136908000D01*
X35294404Y-136815438D01*
X35465437Y-136644405D01*
X35558000Y-136420939D01*
X35558000Y-136352000D01*
X35406000Y-136200000D01*
X35069842Y-136200000D01*
X34899404Y-136029562D01*
X34828035Y-136000000D01*
X35406000Y-136000000D01*
X35558000Y-135848000D01*
X35558000Y-135779061D01*
X35465437Y-135555595D01*
X35294404Y-135384562D01*
X35255877Y-135368604D01*
X35255877Y-135250000D01*
X35232593Y-135132946D01*
X35227284Y-135125000D01*
X35232593Y-135117054D01*
X35255877Y-135000000D01*
X35255877Y-134600000D01*
X35232593Y-134482946D01*
X35227284Y-134475000D01*
X35232593Y-134467054D01*
X35255877Y-134350000D01*
X35255877Y-134112983D01*
X35700001Y-134557107D01*
X35700000Y-135319388D01*
X35690205Y-135368630D01*
X35700000Y-135417871D01*
X35700000Y-135417872D01*
X35729011Y-135563719D01*
X35839520Y-135729110D01*
X35881270Y-135757006D01*
X36658096Y-136533833D01*
X36576900Y-136567465D01*
X36267465Y-136876900D01*
X36100000Y-137281196D01*
X36100000Y-137718804D01*
X36267465Y-138123100D01*
X36576900Y-138432535D01*
X36981196Y-138600000D01*
X37418804Y-138600000D01*
X37823100Y-138432535D01*
X38132535Y-138123100D01*
X38300000Y-137718804D01*
X38300000Y-137700000D01*
X38944123Y-137700000D01*
X38944123Y-137950000D01*
X38967407Y-138067054D01*
X39033712Y-138166288D01*
X39132946Y-138232593D01*
X39250000Y-138255877D01*
X41250000Y-138255877D01*
X41367054Y-138232593D01*
X41466288Y-138166288D01*
X41532593Y-138067054D01*
X41555877Y-137950000D01*
X41555877Y-136450000D01*
X41532593Y-136332946D01*
X41466288Y-136233712D01*
X41367054Y-136167407D01*
X41250000Y-136144123D01*
X39250000Y-136144123D01*
X39132946Y-136167407D01*
X39033712Y-136233712D01*
X38967407Y-136332946D01*
X38944123Y-136450000D01*
X38944123Y-136700000D01*
X37955635Y-136700000D01*
X37823100Y-136567465D01*
X37700000Y-136516475D01*
X37700000Y-136417876D01*
X37709796Y-136368630D01*
X37670989Y-136173540D01*
X37651333Y-136144123D01*
X37560480Y-136008150D01*
X37518732Y-135980255D01*
X36700000Y-135161524D01*
X36700000Y-134399246D01*
X36709796Y-134350000D01*
X36670989Y-134154910D01*
X36644185Y-134114795D01*
X36560480Y-133989520D01*
X36518729Y-133961623D01*
X36067075Y-133509969D01*
X36407820Y-133509969D01*
X36485643Y-133745229D01*
X37016548Y-133923815D01*
X37575382Y-133885637D01*
X37914357Y-133745229D01*
X37992180Y-133509969D01*
X37200000Y-132717789D01*
X36407820Y-133509969D01*
X36067075Y-133509969D01*
X35738377Y-133181271D01*
X35710480Y-133139520D01*
X35545090Y-133029011D01*
X35399243Y-133000000D01*
X35399241Y-133000000D01*
X35350000Y-132990205D01*
X35300759Y-133000000D01*
X35163000Y-133000000D01*
X35163000Y-132786000D01*
X35011000Y-132634000D01*
X33984000Y-132634000D01*
X33984000Y-132654000D01*
X33676000Y-132654000D01*
X33676000Y-132634000D01*
X33656000Y-132634000D01*
X33656000Y-132326000D01*
X33676000Y-132326000D01*
X33676000Y-131449000D01*
X33984000Y-131449000D01*
X33984000Y-132326000D01*
X35011000Y-132326000D01*
X35020452Y-132316548D01*
X35776185Y-132316548D01*
X35814363Y-132875382D01*
X35954771Y-133214357D01*
X36190031Y-133292180D01*
X36982211Y-132500000D01*
X37417789Y-132500000D01*
X38209969Y-133292180D01*
X38445229Y-133214357D01*
X38623815Y-132683452D01*
X38585637Y-132124618D01*
X38445229Y-131785643D01*
X38274184Y-131729062D01*
X38642000Y-131729062D01*
X38642000Y-132294000D01*
X38794000Y-132446000D01*
X40096000Y-132446000D01*
X40096000Y-131394000D01*
X40404000Y-131394000D01*
X40404000Y-132446000D01*
X41706000Y-132446000D01*
X41858000Y-132294000D01*
X41858000Y-131729062D01*
X41765438Y-131505596D01*
X41594405Y-131334563D01*
X41370939Y-131242000D01*
X40556000Y-131242000D01*
X40404000Y-131394000D01*
X40096000Y-131394000D01*
X39944000Y-131242000D01*
X39129061Y-131242000D01*
X38905595Y-131334563D01*
X38734562Y-131505596D01*
X38642000Y-131729062D01*
X38274184Y-131729062D01*
X38209969Y-131707820D01*
X37417789Y-132500000D01*
X36982211Y-132500000D01*
X36190031Y-131707820D01*
X35954771Y-131785643D01*
X35776185Y-132316548D01*
X35020452Y-132316548D01*
X35163000Y-132174000D01*
X35163000Y-131784061D01*
X35070437Y-131560595D01*
X34999873Y-131490031D01*
X36407820Y-131490031D01*
X37200000Y-132282211D01*
X37992180Y-131490031D01*
X37914357Y-131254771D01*
X37383452Y-131076185D01*
X36824618Y-131114363D01*
X36485643Y-131254771D01*
X36407820Y-131490031D01*
X34999873Y-131490031D01*
X34899404Y-131389562D01*
X34675938Y-131297000D01*
X34136000Y-131297000D01*
X33984000Y-131449000D01*
X33676000Y-131449000D01*
X33524000Y-131297000D01*
X32984062Y-131297000D01*
X32786095Y-131379000D01*
X31754000Y-131379000D01*
X31446000Y-131379000D01*
X31426000Y-131379000D01*
X31426000Y-131071000D01*
X31446000Y-131071000D01*
X31446000Y-130092000D01*
X31754000Y-130092000D01*
X31754000Y-131071000D01*
X32993837Y-131071000D01*
X33109574Y-130897301D01*
X32935047Y-130532743D01*
X32600858Y-130237178D01*
X32179000Y-130092000D01*
X31754000Y-130092000D01*
X31446000Y-130092000D01*
X31021000Y-130092000D01*
X30599142Y-130237178D01*
X30400000Y-130413304D01*
X30400000Y-128809969D01*
X41907820Y-128809969D01*
X41985643Y-129045229D01*
X42516548Y-129223815D01*
X43075382Y-129185637D01*
X43414357Y-129045229D01*
X43492180Y-128809969D01*
X42700000Y-128017789D01*
X41907820Y-128809969D01*
X30400000Y-128809969D01*
X30400000Y-125950000D01*
X30844123Y-125950000D01*
X30844123Y-127650000D01*
X30867407Y-127767054D01*
X30933712Y-127866288D01*
X31032946Y-127932593D01*
X31150000Y-127955877D01*
X32850000Y-127955877D01*
X32967054Y-127932593D01*
X33066288Y-127866288D01*
X33132593Y-127767054D01*
X33155877Y-127650000D01*
X33155877Y-126800000D01*
X33367471Y-126800000D01*
X33456724Y-127248707D01*
X33710897Y-127629103D01*
X34091293Y-127883276D01*
X34426739Y-127950000D01*
X34653261Y-127950000D01*
X34988707Y-127883276D01*
X35369103Y-127629103D01*
X35623276Y-127248707D01*
X35712529Y-126800000D01*
X35623276Y-126351293D01*
X35369103Y-125970897D01*
X34988707Y-125716724D01*
X34653261Y-125650000D01*
X34426739Y-125650000D01*
X34091293Y-125716724D01*
X33710897Y-125970897D01*
X33456724Y-126351293D01*
X33367471Y-126800000D01*
X33155877Y-126800000D01*
X33155877Y-125950000D01*
X33132593Y-125832946D01*
X33066288Y-125733712D01*
X32967054Y-125667407D01*
X32850000Y-125644123D01*
X31150000Y-125644123D01*
X31032946Y-125667407D01*
X30933712Y-125733712D01*
X30867407Y-125832946D01*
X30844123Y-125950000D01*
X30400000Y-125950000D01*
X30400000Y-125400000D01*
X39222009Y-125400000D01*
X38892384Y-125536523D01*
G36*
X34096000Y-135977000D02*
X34096000Y-135955877D01*
X34117123Y-135955877D01*
X34096000Y-135977000D01*
X34096000Y-135977000D01*
G37*
X34096000Y-135977000D02*
X34096000Y-135955877D01*
X34117123Y-135955877D01*
X34096000Y-135977000D01*
G04 #@! TD*
M02*
