G04 #@! TF.GenerationSoftware,KiCad,Pcbnew,(5.0.2)-1*
G04 #@! TF.CreationDate,2019-03-30T18:10:54+01:00*
G04 #@! TF.ProjectId,CCdrum,43436472-756d-42e6-9b69-6361645f7063,rev?*
G04 #@! TF.SameCoordinates,Original*
G04 #@! TF.FileFunction,Legend,Top*
G04 #@! TF.FilePolarity,Positive*
%FSLAX46Y46*%
G04 Gerber Fmt 4.6, Leading zero omitted, Abs format (unit mm)*
G04 Created by KiCad (PCBNEW (5.0.2)-1) date 30/03/2019 18:10:54*
%MOMM*%
%LPD*%
G01*
G04 APERTURE LIST*
%ADD10C,0.200000*%
%ADD11C,0.300000*%
%ADD12C,0.120000*%
%ADD13C,0.304800*%
%ADD14C,0.381000*%
%ADD15C,0.150000*%
%ADD16C,0.250000*%
%ADD17C,0.200660*%
G04 APERTURE END LIST*
D10*
X50139523Y-127457142D02*
X50091904Y-127504761D01*
X49949047Y-127552380D01*
X49853809Y-127552380D01*
X49710952Y-127504761D01*
X49615714Y-127409523D01*
X49568095Y-127314285D01*
X49520476Y-127123809D01*
X49520476Y-126980952D01*
X49568095Y-126790476D01*
X49615714Y-126695238D01*
X49710952Y-126600000D01*
X49853809Y-126552380D01*
X49949047Y-126552380D01*
X50091904Y-126600000D01*
X50139523Y-126647619D01*
X51139523Y-127457142D02*
X51091904Y-127504761D01*
X50949047Y-127552380D01*
X50853809Y-127552380D01*
X50710952Y-127504761D01*
X50615714Y-127409523D01*
X50568095Y-127314285D01*
X50520476Y-127123809D01*
X50520476Y-126980952D01*
X50568095Y-126790476D01*
X50615714Y-126695238D01*
X50710952Y-126600000D01*
X50853809Y-126552380D01*
X50949047Y-126552380D01*
X51091904Y-126600000D01*
X51139523Y-126647619D01*
X51425238Y-126552380D02*
X51758571Y-127552380D01*
X52091904Y-126552380D01*
X52425238Y-127552380D02*
X52425238Y-126552380D01*
X52663333Y-126552380D01*
X52806190Y-126600000D01*
X52901428Y-126695238D01*
X52949047Y-126790476D01*
X52996666Y-126980952D01*
X52996666Y-127123809D01*
X52949047Y-127314285D01*
X52901428Y-127409523D01*
X52806190Y-127504761D01*
X52663333Y-127552380D01*
X52425238Y-127552380D01*
X53425238Y-127552380D02*
X53425238Y-126885714D01*
X53425238Y-127076190D02*
X53472857Y-126980952D01*
X53520476Y-126933333D01*
X53615714Y-126885714D01*
X53710952Y-126885714D01*
X54472857Y-126885714D02*
X54472857Y-127552380D01*
X54044285Y-126885714D02*
X54044285Y-127409523D01*
X54091904Y-127504761D01*
X54187142Y-127552380D01*
X54330000Y-127552380D01*
X54425238Y-127504761D01*
X54472857Y-127457142D01*
X54949047Y-127552380D02*
X54949047Y-126885714D01*
X54949047Y-126980952D02*
X54996666Y-126933333D01*
X55091904Y-126885714D01*
X55234761Y-126885714D01*
X55330000Y-126933333D01*
X55377619Y-127028571D01*
X55377619Y-127552380D01*
X55377619Y-127028571D02*
X55425238Y-126933333D01*
X55520476Y-126885714D01*
X55663333Y-126885714D01*
X55758571Y-126933333D01*
X55806190Y-127028571D01*
X55806190Y-127552380D01*
X56901428Y-126885714D02*
X57282380Y-126885714D01*
X57044285Y-127552380D02*
X57044285Y-126695238D01*
X57091904Y-126600000D01*
X57187142Y-126552380D01*
X57282380Y-126552380D01*
X57758571Y-127552380D02*
X57663333Y-127504761D01*
X57615714Y-127457142D01*
X57568095Y-127361904D01*
X57568095Y-127076190D01*
X57615714Y-126980952D01*
X57663333Y-126933333D01*
X57758571Y-126885714D01*
X57901428Y-126885714D01*
X57996666Y-126933333D01*
X58044285Y-126980952D01*
X58091904Y-127076190D01*
X58091904Y-127361904D01*
X58044285Y-127457142D01*
X57996666Y-127504761D01*
X57901428Y-127552380D01*
X57758571Y-127552380D01*
X58520476Y-127552380D02*
X58520476Y-126885714D01*
X58520476Y-127076190D02*
X58568095Y-126980952D01*
X58615714Y-126933333D01*
X58710952Y-126885714D01*
X58806190Y-126885714D01*
X59901428Y-127552380D02*
X59901428Y-126552380D01*
X60472857Y-127552380D02*
X60044285Y-126980952D01*
X60472857Y-126552380D02*
X59901428Y-127123809D01*
X61044285Y-127552380D02*
X60949047Y-127504761D01*
X60901428Y-127457142D01*
X60853809Y-127361904D01*
X60853809Y-127076190D01*
X60901428Y-126980952D01*
X60949047Y-126933333D01*
X61044285Y-126885714D01*
X61187142Y-126885714D01*
X61282380Y-126933333D01*
X61330000Y-126980952D01*
X61377619Y-127076190D01*
X61377619Y-127361904D01*
X61330000Y-127457142D01*
X61282380Y-127504761D01*
X61187142Y-127552380D01*
X61044285Y-127552380D01*
X61806190Y-127552380D02*
X61806190Y-126885714D01*
X61806190Y-127076190D02*
X61853809Y-126980952D01*
X61901428Y-126933333D01*
X61996666Y-126885714D01*
X62091904Y-126885714D01*
X62853809Y-126885714D02*
X62853809Y-127695238D01*
X62806190Y-127790476D01*
X62758571Y-127838095D01*
X62663333Y-127885714D01*
X62520476Y-127885714D01*
X62425238Y-127838095D01*
X62853809Y-127504761D02*
X62758571Y-127552380D01*
X62568095Y-127552380D01*
X62472857Y-127504761D01*
X62425238Y-127457142D01*
X62377619Y-127361904D01*
X62377619Y-127076190D01*
X62425238Y-126980952D01*
X62472857Y-126933333D01*
X62568095Y-126885714D01*
X62758571Y-126885714D01*
X62853809Y-126933333D01*
X63949047Y-126552380D02*
X64282380Y-127552380D01*
X64615714Y-126552380D01*
X65091904Y-127552380D02*
X64996666Y-127504761D01*
X64949047Y-127457142D01*
X64901428Y-127361904D01*
X64901428Y-127076190D01*
X64949047Y-126980952D01*
X64996666Y-126933333D01*
X65091904Y-126885714D01*
X65234761Y-126885714D01*
X65330000Y-126933333D01*
X65377619Y-126980952D01*
X65425238Y-127076190D01*
X65425238Y-127361904D01*
X65377619Y-127457142D01*
X65330000Y-127504761D01*
X65234761Y-127552380D01*
X65091904Y-127552380D01*
X65996666Y-127552380D02*
X65901428Y-127504761D01*
X65853809Y-127409523D01*
X65853809Y-126552380D01*
X66806190Y-127504761D02*
X66710952Y-127552380D01*
X66520476Y-127552380D01*
X66425238Y-127504761D01*
X66377619Y-127457142D01*
X66330000Y-127361904D01*
X66330000Y-127076190D01*
X66377619Y-126980952D01*
X66425238Y-126933333D01*
X66520476Y-126885714D01*
X66710952Y-126885714D01*
X66806190Y-126933333D01*
X67663333Y-127552380D02*
X67663333Y-127028571D01*
X67615714Y-126933333D01*
X67520476Y-126885714D01*
X67330000Y-126885714D01*
X67234761Y-126933333D01*
X67663333Y-127504761D02*
X67568095Y-127552380D01*
X67330000Y-127552380D01*
X67234761Y-127504761D01*
X67187142Y-127409523D01*
X67187142Y-127314285D01*
X67234761Y-127219047D01*
X67330000Y-127171428D01*
X67568095Y-127171428D01*
X67663333Y-127123809D01*
X68901428Y-127552380D02*
X68901428Y-126552380D01*
X69139523Y-126552380D01*
X69282380Y-126600000D01*
X69377619Y-126695238D01*
X69425238Y-126790476D01*
X69472857Y-126980952D01*
X69472857Y-127123809D01*
X69425238Y-127314285D01*
X69377619Y-127409523D01*
X69282380Y-127504761D01*
X69139523Y-127552380D01*
X68901428Y-127552380D01*
X69901428Y-127552380D02*
X69901428Y-126885714D01*
X69901428Y-127076190D02*
X69949047Y-126980952D01*
X69996666Y-126933333D01*
X70091904Y-126885714D01*
X70187142Y-126885714D01*
X70949047Y-126885714D02*
X70949047Y-127552380D01*
X70520476Y-126885714D02*
X70520476Y-127409523D01*
X70568095Y-127504761D01*
X70663333Y-127552380D01*
X70806190Y-127552380D01*
X70901428Y-127504761D01*
X70949047Y-127457142D01*
X71425238Y-127552380D02*
X71425238Y-126885714D01*
X71425238Y-126980952D02*
X71472857Y-126933333D01*
X71568095Y-126885714D01*
X71710952Y-126885714D01*
X71806190Y-126933333D01*
X71853809Y-127028571D01*
X71853809Y-127552380D01*
X71853809Y-127028571D02*
X71901428Y-126933333D01*
X71996666Y-126885714D01*
X72139523Y-126885714D01*
X72234761Y-126933333D01*
X72282380Y-127028571D01*
X72282380Y-127552380D01*
X85377619Y-126885714D02*
X85377619Y-127695238D01*
X85329999Y-127790476D01*
X85282380Y-127838095D01*
X85187142Y-127885714D01*
X85044285Y-127885714D01*
X84949047Y-127838095D01*
X85377619Y-127504761D02*
X85282380Y-127552380D01*
X85091904Y-127552380D01*
X84996666Y-127504761D01*
X84949047Y-127457142D01*
X84901428Y-127361904D01*
X84901428Y-127076190D01*
X84949047Y-126980952D01*
X84996666Y-126933333D01*
X85091904Y-126885714D01*
X85282380Y-126885714D01*
X85377619Y-126933333D01*
X85853809Y-127552380D02*
X85853809Y-126885714D01*
X85853809Y-126552380D02*
X85806190Y-126600000D01*
X85853809Y-126647619D01*
X85901428Y-126600000D01*
X85853809Y-126552380D01*
X85853809Y-126647619D01*
X86187142Y-126885714D02*
X86568095Y-126885714D01*
X86329999Y-126552380D02*
X86329999Y-127409523D01*
X86377619Y-127504761D01*
X86472857Y-127552380D01*
X86568095Y-127552380D01*
X86901428Y-127552380D02*
X86901428Y-126552380D01*
X87329999Y-127552380D02*
X87329999Y-127028571D01*
X87282380Y-126933333D01*
X87187142Y-126885714D01*
X87044285Y-126885714D01*
X86949047Y-126933333D01*
X86901428Y-126980952D01*
X88234761Y-126885714D02*
X88234761Y-127552380D01*
X87806190Y-126885714D02*
X87806190Y-127409523D01*
X87853809Y-127504761D01*
X87949047Y-127552380D01*
X88091904Y-127552380D01*
X88187142Y-127504761D01*
X88234761Y-127457142D01*
X88710952Y-127552380D02*
X88710952Y-126552380D01*
X88710952Y-126933333D02*
X88806190Y-126885714D01*
X88996666Y-126885714D01*
X89091904Y-126933333D01*
X89139523Y-126980952D01*
X89187142Y-127076190D01*
X89187142Y-127361904D01*
X89139523Y-127457142D01*
X89091904Y-127504761D01*
X88996666Y-127552380D01*
X88806190Y-127552380D01*
X88710952Y-127504761D01*
X89615714Y-127457142D02*
X89663333Y-127504761D01*
X89615714Y-127552380D01*
X89568095Y-127504761D01*
X89615714Y-127457142D01*
X89615714Y-127552380D01*
X90520476Y-127504761D02*
X90425238Y-127552380D01*
X90234761Y-127552380D01*
X90139523Y-127504761D01*
X90091904Y-127457142D01*
X90044285Y-127361904D01*
X90044285Y-127076190D01*
X90091904Y-126980952D01*
X90139523Y-126933333D01*
X90234761Y-126885714D01*
X90425238Y-126885714D01*
X90520476Y-126933333D01*
X91091904Y-127552380D02*
X90996666Y-127504761D01*
X90949047Y-127457142D01*
X90901428Y-127361904D01*
X90901428Y-127076190D01*
X90949047Y-126980952D01*
X90996666Y-126933333D01*
X91091904Y-126885714D01*
X91234761Y-126885714D01*
X91329999Y-126933333D01*
X91377619Y-126980952D01*
X91425238Y-127076190D01*
X91425238Y-127361904D01*
X91377619Y-127457142D01*
X91329999Y-127504761D01*
X91234761Y-127552380D01*
X91091904Y-127552380D01*
X91853809Y-127552380D02*
X91853809Y-126885714D01*
X91853809Y-126980952D02*
X91901428Y-126933333D01*
X91996666Y-126885714D01*
X92139523Y-126885714D01*
X92234761Y-126933333D01*
X92282380Y-127028571D01*
X92282380Y-127552380D01*
X92282380Y-127028571D02*
X92329999Y-126933333D01*
X92425238Y-126885714D01*
X92568095Y-126885714D01*
X92663333Y-126933333D01*
X92710952Y-127028571D01*
X92710952Y-127552380D01*
X93901428Y-126504761D02*
X93044285Y-127790476D01*
X94187142Y-127504761D02*
X94282380Y-127552380D01*
X94472857Y-127552380D01*
X94568095Y-127504761D01*
X94615714Y-127409523D01*
X94615714Y-127361904D01*
X94568095Y-127266666D01*
X94472857Y-127219047D01*
X94329999Y-127219047D01*
X94234761Y-127171428D01*
X94187142Y-127076190D01*
X94187142Y-127028571D01*
X94234761Y-126933333D01*
X94329999Y-126885714D01*
X94472857Y-126885714D01*
X94568095Y-126933333D01*
X95425238Y-127504761D02*
X95329999Y-127552380D01*
X95139523Y-127552380D01*
X95044285Y-127504761D01*
X94996666Y-127409523D01*
X94996666Y-127028571D01*
X95044285Y-126933333D01*
X95139523Y-126885714D01*
X95329999Y-126885714D01*
X95425238Y-126933333D01*
X95472857Y-127028571D01*
X95472857Y-127123809D01*
X94996666Y-127219047D01*
X95901428Y-126885714D02*
X95901428Y-127552380D01*
X95901428Y-126980952D02*
X95949047Y-126933333D01*
X96044285Y-126885714D01*
X96187142Y-126885714D01*
X96282380Y-126933333D01*
X96329999Y-127028571D01*
X96329999Y-127552380D01*
X96758571Y-127504761D02*
X96853809Y-127552380D01*
X97044285Y-127552380D01*
X97139523Y-127504761D01*
X97187142Y-127409523D01*
X97187142Y-127361904D01*
X97139523Y-127266666D01*
X97044285Y-127219047D01*
X96901428Y-127219047D01*
X96806190Y-127171428D01*
X96758571Y-127076190D01*
X96758571Y-127028571D01*
X96806190Y-126933333D01*
X96901428Y-126885714D01*
X97044285Y-126885714D01*
X97139523Y-126933333D01*
X98044285Y-127552380D02*
X98044285Y-127028571D01*
X97996666Y-126933333D01*
X97901428Y-126885714D01*
X97710952Y-126885714D01*
X97615714Y-126933333D01*
X98044285Y-127504761D02*
X97949047Y-127552380D01*
X97710952Y-127552380D01*
X97615714Y-127504761D01*
X97568095Y-127409523D01*
X97568095Y-127314285D01*
X97615714Y-127219047D01*
X97710952Y-127171428D01*
X97949047Y-127171428D01*
X98044285Y-127123809D01*
X98520476Y-127552380D02*
X98520476Y-126885714D01*
X98520476Y-126552380D02*
X98472857Y-126600000D01*
X98520476Y-126647619D01*
X98568095Y-126600000D01*
X98520476Y-126552380D01*
X98520476Y-126647619D01*
X98901428Y-126552380D02*
X99568095Y-126552380D01*
X99139523Y-127552380D01*
X100663333Y-126504761D02*
X99806190Y-127790476D01*
X101568095Y-127457142D02*
X101520476Y-127504761D01*
X101377619Y-127552380D01*
X101282380Y-127552380D01*
X101139523Y-127504761D01*
X101044285Y-127409523D01*
X100996666Y-127314285D01*
X100949047Y-127123809D01*
X100949047Y-126980952D01*
X100996666Y-126790476D01*
X101044285Y-126695238D01*
X101139523Y-126600000D01*
X101282380Y-126552380D01*
X101377619Y-126552380D01*
X101520476Y-126600000D01*
X101568095Y-126647619D01*
X102568095Y-127457142D02*
X102520476Y-127504761D01*
X102377619Y-127552380D01*
X102282380Y-127552380D01*
X102139523Y-127504761D01*
X102044285Y-127409523D01*
X101996666Y-127314285D01*
X101949047Y-127123809D01*
X101949047Y-126980952D01*
X101996666Y-126790476D01*
X102044285Y-126695238D01*
X102139523Y-126600000D01*
X102282380Y-126552380D01*
X102377619Y-126552380D01*
X102520476Y-126600000D01*
X102568095Y-126647619D01*
X102853809Y-126552380D02*
X103187142Y-127552380D01*
X103520476Y-126552380D01*
X103853809Y-127552380D02*
X103853809Y-126552380D01*
X104091904Y-126552380D01*
X104234761Y-126600000D01*
X104329999Y-126695238D01*
X104377619Y-126790476D01*
X104425238Y-126980952D01*
X104425238Y-127123809D01*
X104377619Y-127314285D01*
X104329999Y-127409523D01*
X104234761Y-127504761D01*
X104091904Y-127552380D01*
X103853809Y-127552380D01*
X104853809Y-127552380D02*
X104853809Y-126885714D01*
X104853809Y-127076190D02*
X104901428Y-126980952D01*
X104949047Y-126933333D01*
X105044285Y-126885714D01*
X105139523Y-126885714D01*
X105901428Y-126885714D02*
X105901428Y-127552380D01*
X105472857Y-126885714D02*
X105472857Y-127409523D01*
X105520476Y-127504761D01*
X105615714Y-127552380D01*
X105758571Y-127552380D01*
X105853809Y-127504761D01*
X105901428Y-127457142D01*
X106377619Y-127552380D02*
X106377619Y-126885714D01*
X106377619Y-126980952D02*
X106425238Y-126933333D01*
X106520476Y-126885714D01*
X106663333Y-126885714D01*
X106758571Y-126933333D01*
X106806190Y-127028571D01*
X106806190Y-127552380D01*
X106806190Y-127028571D02*
X106853809Y-126933333D01*
X106949047Y-126885714D01*
X107091904Y-126885714D01*
X107187142Y-126933333D01*
X107234761Y-127028571D01*
X107234761Y-127552380D01*
D11*
X64400000Y-139042857D02*
X65142857Y-139042857D01*
X64742857Y-139500000D01*
X64914285Y-139500000D01*
X65028571Y-139557142D01*
X65085714Y-139614285D01*
X65142857Y-139728571D01*
X65142857Y-140014285D01*
X65085714Y-140128571D01*
X65028571Y-140185714D01*
X64914285Y-140242857D01*
X64571428Y-140242857D01*
X64457142Y-140185714D01*
X64400000Y-140128571D01*
X50557142Y-139157142D02*
X50614285Y-139100000D01*
X50728571Y-139042857D01*
X51014285Y-139042857D01*
X51128571Y-139100000D01*
X51185714Y-139157142D01*
X51242857Y-139271428D01*
X51242857Y-139385714D01*
X51185714Y-139557142D01*
X50500000Y-140242857D01*
X51242857Y-140242857D01*
X78828571Y-139442857D02*
X78828571Y-140242857D01*
X78542857Y-138985714D02*
X78257142Y-139842857D01*
X79000000Y-139842857D01*
X106528571Y-139042857D02*
X106300000Y-139042857D01*
X106185714Y-139100000D01*
X106128571Y-139157142D01*
X106014285Y-139328571D01*
X105957142Y-139557142D01*
X105957142Y-140014285D01*
X106014285Y-140128571D01*
X106071428Y-140185714D01*
X106185714Y-140242857D01*
X106414285Y-140242857D01*
X106528571Y-140185714D01*
X106585714Y-140128571D01*
X106642857Y-140014285D01*
X106642857Y-139728571D01*
X106585714Y-139614285D01*
X106528571Y-139557142D01*
X106414285Y-139500000D01*
X106185714Y-139500000D01*
X106071428Y-139557142D01*
X106014285Y-139614285D01*
X105957142Y-139728571D01*
X92785714Y-139042857D02*
X92214285Y-139042857D01*
X92157142Y-139614285D01*
X92214285Y-139557142D01*
X92328571Y-139500000D01*
X92614285Y-139500000D01*
X92728571Y-139557142D01*
X92785714Y-139614285D01*
X92842857Y-139728571D01*
X92842857Y-140014285D01*
X92785714Y-140128571D01*
X92728571Y-140185714D01*
X92614285Y-140242857D01*
X92328571Y-140242857D01*
X92214285Y-140185714D01*
X92157142Y-140128571D01*
X37442857Y-140242857D02*
X36757142Y-140242857D01*
X37100000Y-140242857D02*
X37100000Y-139042857D01*
X36985714Y-139214285D01*
X36871428Y-139328571D01*
X36757142Y-139385714D01*
D10*
X39914285Y-128800000D02*
X39800000Y-128742857D01*
X39628571Y-128742857D01*
X39457142Y-128800000D01*
X39342857Y-128914285D01*
X39285714Y-129028571D01*
X39228571Y-129257142D01*
X39228571Y-129428571D01*
X39285714Y-129657142D01*
X39342857Y-129771428D01*
X39457142Y-129885714D01*
X39628571Y-129942857D01*
X39742857Y-129942857D01*
X39914285Y-129885714D01*
X39971428Y-129828571D01*
X39971428Y-129428571D01*
X39742857Y-129428571D01*
X37471428Y-129942857D02*
X37071428Y-129371428D01*
X36785714Y-129942857D02*
X36785714Y-128742857D01*
X37242857Y-128742857D01*
X37357142Y-128800000D01*
X37414285Y-128857142D01*
X37471428Y-128971428D01*
X37471428Y-129142857D01*
X37414285Y-129257142D01*
X37357142Y-129314285D01*
X37242857Y-129371428D01*
X36785714Y-129371428D01*
X34257142Y-128742857D02*
X34942857Y-128742857D01*
X34600000Y-129942857D02*
X34600000Y-128742857D01*
X31600000Y-128742857D02*
X32000000Y-129942857D01*
X32400000Y-128742857D01*
D11*
X124471428Y-147121428D02*
X124542857Y-147050000D01*
X124685714Y-146978571D01*
X125042857Y-146978571D01*
X125185714Y-147050000D01*
X125257142Y-147121428D01*
X125328571Y-147264285D01*
X125328571Y-147407142D01*
X125257142Y-147621428D01*
X124400000Y-148478571D01*
X125328571Y-148478571D01*
X117328571Y-148378571D02*
X116471428Y-148378571D01*
X116900000Y-148378571D02*
X116900000Y-146878571D01*
X116757142Y-147092857D01*
X116614285Y-147235714D01*
X116471428Y-147307142D01*
X105471428Y-144100000D02*
X105357142Y-144042857D01*
X105185714Y-144042857D01*
X105014285Y-144100000D01*
X104900000Y-144214285D01*
X104842857Y-144328571D01*
X104785714Y-144557142D01*
X104785714Y-144728571D01*
X104842857Y-144957142D01*
X104900000Y-145071428D01*
X105014285Y-145185714D01*
X105185714Y-145242857D01*
X105300000Y-145242857D01*
X105471428Y-145185714D01*
X105528571Y-145128571D01*
X105528571Y-144728571D01*
X105300000Y-144728571D01*
X105985714Y-144900000D02*
X106557142Y-144900000D01*
X105871428Y-145242857D02*
X106271428Y-144042857D01*
X106671428Y-145242857D01*
X107071428Y-145242857D02*
X107071428Y-144042857D01*
X107757142Y-145242857D01*
X107757142Y-144042857D01*
X91042857Y-145242857D02*
X91042857Y-144042857D01*
X91500000Y-144042857D01*
X91614285Y-144100000D01*
X91671428Y-144157142D01*
X91728571Y-144271428D01*
X91728571Y-144442857D01*
X91671428Y-144557142D01*
X91614285Y-144614285D01*
X91500000Y-144671428D01*
X91042857Y-144671428D01*
X92185714Y-144900000D02*
X92757142Y-144900000D01*
X92071428Y-145242857D02*
X92471428Y-144042857D01*
X92871428Y-145242857D01*
X93271428Y-145242857D02*
X93271428Y-144042857D01*
X93957142Y-145242857D01*
X93957142Y-144042857D01*
X77171428Y-145242857D02*
X77171428Y-144042857D01*
X77457142Y-144042857D01*
X77628571Y-144100000D01*
X77742857Y-144214285D01*
X77800000Y-144328571D01*
X77857142Y-144557142D01*
X77857142Y-144728571D01*
X77800000Y-144957142D01*
X77742857Y-145071428D01*
X77628571Y-145185714D01*
X77457142Y-145242857D01*
X77171428Y-145242857D01*
X79057142Y-145242857D02*
X78657142Y-144671428D01*
X78371428Y-145242857D02*
X78371428Y-144042857D01*
X78828571Y-144042857D01*
X78942857Y-144100000D01*
X79000000Y-144157142D01*
X79057142Y-144271428D01*
X79057142Y-144442857D01*
X79000000Y-144557142D01*
X78942857Y-144614285D01*
X78828571Y-144671428D01*
X78371428Y-144671428D01*
X79400000Y-144042857D02*
X79800000Y-145242857D01*
X80200000Y-144042857D01*
X63885714Y-144614285D02*
X63485714Y-144614285D01*
X63485714Y-145242857D02*
X63485714Y-144042857D01*
X64057142Y-144042857D01*
X65085714Y-145242857D02*
X64514285Y-145242857D01*
X64514285Y-144042857D01*
X65485714Y-145242857D02*
X65485714Y-144042857D01*
X65771428Y-144042857D01*
X65942857Y-144100000D01*
X66057142Y-144214285D01*
X66114285Y-144328571D01*
X66171428Y-144557142D01*
X66171428Y-144728571D01*
X66114285Y-144957142D01*
X66057142Y-145071428D01*
X65942857Y-145185714D01*
X65771428Y-145242857D01*
X65485714Y-145242857D01*
X50242857Y-144614285D02*
X50414285Y-144671428D01*
X50471428Y-144728571D01*
X50528571Y-144842857D01*
X50528571Y-145014285D01*
X50471428Y-145128571D01*
X50414285Y-145185714D01*
X50300000Y-145242857D01*
X49842857Y-145242857D01*
X49842857Y-144042857D01*
X50242857Y-144042857D01*
X50357142Y-144100000D01*
X50414285Y-144157142D01*
X50471428Y-144271428D01*
X50471428Y-144385714D01*
X50414285Y-144500000D01*
X50357142Y-144557142D01*
X50242857Y-144614285D01*
X49842857Y-144614285D01*
X51042857Y-145242857D02*
X51042857Y-144042857D01*
X51442857Y-144042857D02*
X52128571Y-144042857D01*
X51785714Y-145242857D02*
X51785714Y-144042857D01*
X35214285Y-145242857D02*
X35214285Y-144042857D01*
X35671428Y-144042857D01*
X35785714Y-144100000D01*
X35842857Y-144157142D01*
X35900000Y-144271428D01*
X35900000Y-144442857D01*
X35842857Y-144557142D01*
X35785714Y-144614285D01*
X35671428Y-144671428D01*
X35214285Y-144671428D01*
X36357142Y-144900000D02*
X36928571Y-144900000D01*
X36242857Y-145242857D02*
X36642857Y-144042857D01*
X37042857Y-145242857D01*
X38128571Y-145242857D02*
X37728571Y-144671428D01*
X37442857Y-145242857D02*
X37442857Y-144042857D01*
X37900000Y-144042857D01*
X38014285Y-144100000D01*
X38071428Y-144157142D01*
X38128571Y-144271428D01*
X38128571Y-144442857D01*
X38071428Y-144557142D01*
X38014285Y-144614285D01*
X37900000Y-144671428D01*
X37442857Y-144671428D01*
X38471428Y-144042857D02*
X39157142Y-144042857D01*
X38814285Y-145242857D02*
X38814285Y-144042857D01*
D12*
G04 #@! TO.C,SW2*
X124150000Y-157750000D02*
X125650000Y-157750000D01*
X128150000Y-156500000D02*
X128150000Y-152000000D01*
X125650000Y-150750000D02*
X124150000Y-150750000D01*
X121650000Y-152000000D02*
X121650000Y-156500000D01*
G04 #@! TO.C,SW1*
X113700000Y-152000000D02*
X113700000Y-156500000D01*
X117700000Y-150750000D02*
X116200000Y-150750000D01*
X120200000Y-156500000D02*
X120200000Y-152000000D01*
X116200000Y-157750000D02*
X117700000Y-157750000D01*
G04 #@! TO.C,C1*
X38255000Y-132380000D02*
X38570000Y-132380000D01*
X35830000Y-132380000D02*
X36145000Y-132380000D01*
X38255000Y-137620000D02*
X38570000Y-137620000D01*
X35830000Y-137620000D02*
X36145000Y-137620000D01*
X38570000Y-137620000D02*
X38570000Y-132380000D01*
X35830000Y-137620000D02*
X35830000Y-132380000D01*
G04 #@! TO.C,C2*
X47820000Y-129170000D02*
X42580000Y-129170000D01*
X47820000Y-126430000D02*
X42580000Y-126430000D01*
X47820000Y-129170000D02*
X47820000Y-128855000D01*
X47820000Y-126745000D02*
X47820000Y-126430000D01*
X42580000Y-129170000D02*
X42580000Y-128855000D01*
X42580000Y-126745000D02*
X42580000Y-126430000D01*
G04 #@! TO.C,J2*
X40950000Y-128130000D02*
X40950000Y-125470000D01*
X33270000Y-128130000D02*
X40950000Y-128130000D01*
X33270000Y-125470000D02*
X40950000Y-125470000D01*
X33270000Y-128130000D02*
X33270000Y-125470000D01*
X32000000Y-128130000D02*
X30670000Y-128130000D01*
X30670000Y-128130000D02*
X30670000Y-126800000D01*
G04 #@! TO.C,J1*
X34510000Y-130990000D02*
X34510000Y-131650000D01*
X32780000Y-130990000D02*
X34510000Y-130990000D01*
X30210000Y-138610000D02*
X30420000Y-138610000D01*
X30210000Y-130990000D02*
X30420000Y-130990000D01*
X32780000Y-138610000D02*
X34510000Y-138610000D01*
X34510000Y-138610000D02*
X34510000Y-137960000D01*
X35210000Y-133040000D02*
X35210000Y-133490000D01*
X35210000Y-133040000D02*
X34820000Y-133040000D01*
G04 #@! TO.C,D4*
X76960000Y-143160000D02*
X79820000Y-143160000D01*
X76960000Y-141240000D02*
X76960000Y-143160000D01*
X79820000Y-141240000D02*
X76960000Y-141240000D01*
G04 #@! TO.C,D1*
X38300000Y-141240000D02*
X35440000Y-141240000D01*
X35440000Y-141240000D02*
X35440000Y-143160000D01*
X35440000Y-143160000D02*
X38300000Y-143160000D01*
G04 #@! TO.C,D3*
X63120000Y-143160000D02*
X65980000Y-143160000D01*
X63120000Y-141240000D02*
X63120000Y-143160000D01*
X65980000Y-141240000D02*
X63120000Y-141240000D01*
G04 #@! TO.C,D5*
X93660000Y-141240000D02*
X90800000Y-141240000D01*
X90800000Y-141240000D02*
X90800000Y-143160000D01*
X90800000Y-143160000D02*
X93660000Y-143160000D01*
G04 #@! TO.C,D6*
X104640000Y-143160000D02*
X107500000Y-143160000D01*
X104640000Y-141240000D02*
X104640000Y-143160000D01*
X107500000Y-141240000D02*
X104640000Y-141240000D01*
G04 #@! TO.C,D2*
X52140000Y-141240000D02*
X49280000Y-141240000D01*
X49280000Y-141240000D02*
X49280000Y-143160000D01*
X49280000Y-143160000D02*
X52140000Y-143160000D01*
G04 #@! TO.C,U1*
X62700000Y-132340000D02*
G75*
G02X62700000Y-134340000I0J-1000000D01*
G01*
X62700000Y-134340000D02*
X62700000Y-135990000D01*
X62700000Y-135990000D02*
X88220000Y-135990000D01*
X88220000Y-135990000D02*
X88220000Y-130690000D01*
X88220000Y-130690000D02*
X62700000Y-130690000D01*
X62700000Y-130690000D02*
X62700000Y-132340000D01*
G04 #@! TO.C,U2*
X45310000Y-138310000D02*
X45310000Y-137050000D01*
X45310000Y-131490000D02*
X45310000Y-132750000D01*
X41550000Y-138310000D02*
X45310000Y-138310000D01*
X39300000Y-131490000D02*
X45310000Y-131490000D01*
G04 #@! TO.C,U3*
X106890000Y-134970000D02*
X106890000Y-136770000D01*
X110110000Y-136770000D02*
X110110000Y-134320000D01*
G04 #@! TO.C,R3*
X52305000Y-136660000D02*
X51975000Y-136660000D01*
X51975000Y-136660000D02*
X51975000Y-130120000D01*
X51975000Y-130120000D02*
X52305000Y-130120000D01*
X54385000Y-136660000D02*
X54715000Y-136660000D01*
X54715000Y-136660000D02*
X54715000Y-130120000D01*
X54715000Y-130120000D02*
X54385000Y-130120000D01*
G04 #@! TO.C,R9*
X106025000Y-130120000D02*
X105695000Y-130120000D01*
X106025000Y-136660000D02*
X106025000Y-130120000D01*
X105695000Y-136660000D02*
X106025000Y-136660000D01*
X103285000Y-130120000D02*
X103615000Y-130120000D01*
X103285000Y-136660000D02*
X103285000Y-130120000D01*
X103615000Y-136660000D02*
X103285000Y-136660000D01*
G04 #@! TO.C,R8*
X100070000Y-136660000D02*
X99740000Y-136660000D01*
X99740000Y-136660000D02*
X99740000Y-130120000D01*
X99740000Y-130120000D02*
X100070000Y-130120000D01*
X102150000Y-136660000D02*
X102480000Y-136660000D01*
X102480000Y-136660000D02*
X102480000Y-130120000D01*
X102480000Y-130120000D02*
X102150000Y-130120000D01*
G04 #@! TO.C,R7*
X98935000Y-130120000D02*
X98605000Y-130120000D01*
X98935000Y-136660000D02*
X98935000Y-130120000D01*
X98605000Y-136660000D02*
X98935000Y-136660000D01*
X96195000Y-130120000D02*
X96525000Y-130120000D01*
X96195000Y-136660000D02*
X96195000Y-130120000D01*
X96525000Y-136660000D02*
X96195000Y-136660000D01*
G04 #@! TO.C,R1*
X59395000Y-136660000D02*
X59065000Y-136660000D01*
X59065000Y-136660000D02*
X59065000Y-130120000D01*
X59065000Y-130120000D02*
X59395000Y-130120000D01*
X61475000Y-136660000D02*
X61805000Y-136660000D01*
X61805000Y-136660000D02*
X61805000Y-130120000D01*
X61805000Y-130120000D02*
X61475000Y-130120000D01*
G04 #@! TO.C,R4*
X58260000Y-130120000D02*
X57930000Y-130120000D01*
X58260000Y-136660000D02*
X58260000Y-130120000D01*
X57930000Y-136660000D02*
X58260000Y-136660000D01*
X55520000Y-130120000D02*
X55850000Y-130120000D01*
X55520000Y-136660000D02*
X55520000Y-130120000D01*
X55850000Y-136660000D02*
X55520000Y-136660000D01*
G04 #@! TO.C,R5*
X89435000Y-136660000D02*
X89105000Y-136660000D01*
X89105000Y-136660000D02*
X89105000Y-130120000D01*
X89105000Y-130120000D02*
X89435000Y-130120000D01*
X91515000Y-136660000D02*
X91845000Y-136660000D01*
X91845000Y-136660000D02*
X91845000Y-130120000D01*
X91845000Y-130120000D02*
X91515000Y-130120000D01*
G04 #@! TO.C,R6*
X95390000Y-130120000D02*
X95060000Y-130120000D01*
X95390000Y-136660000D02*
X95390000Y-130120000D01*
X95060000Y-136660000D02*
X95390000Y-136660000D01*
X92650000Y-130120000D02*
X92980000Y-130120000D01*
X92650000Y-136660000D02*
X92650000Y-130120000D01*
X92980000Y-136660000D02*
X92650000Y-136660000D01*
G04 #@! TO.C,R2*
X48760000Y-136660000D02*
X48430000Y-136660000D01*
X48430000Y-136660000D02*
X48430000Y-130120000D01*
X48430000Y-130120000D02*
X48760000Y-130120000D01*
X50840000Y-136660000D02*
X51170000Y-136660000D01*
X51170000Y-136660000D02*
X51170000Y-130120000D01*
X51170000Y-130120000D02*
X50840000Y-130120000D01*
D13*
G04 #@! TO.C,J3*
X129150300Y-144799220D02*
X129150300Y-125299640D01*
X129399220Y-126800780D02*
X129399220Y-144799220D01*
X129650680Y-146300360D02*
X129650680Y-126800780D01*
X111400780Y-144799220D02*
X128401000Y-144799220D01*
X111400780Y-144799220D02*
X110900400Y-144298840D01*
X110900400Y-144298840D02*
X110900400Y-141799480D01*
X110900400Y-141799480D02*
X111400780Y-141299100D01*
X111400780Y-141299100D02*
X113399760Y-141299100D01*
X113399760Y-141299100D02*
X113399760Y-137798980D01*
X111400780Y-126800780D02*
X128401000Y-126800780D01*
X111400780Y-126800780D02*
X110900400Y-127301160D01*
X110900400Y-127301160D02*
X110900400Y-129300140D01*
X110900400Y-129300140D02*
X110900400Y-129800520D01*
X110900400Y-129800520D02*
X111400780Y-130300900D01*
X111400780Y-130300900D02*
X113399760Y-130300900D01*
X113399760Y-130300900D02*
X113399760Y-133801020D01*
X110900400Y-137301140D02*
X111400780Y-137798980D01*
X111400780Y-137798980D02*
X113399760Y-137798980D01*
X110900400Y-137301140D02*
X110900400Y-134298860D01*
X110900400Y-134298860D02*
X111400780Y-133801020D01*
X111400780Y-133801020D02*
X113399760Y-133801020D01*
X129399220Y-125299640D02*
X129399220Y-126800780D01*
X129399220Y-126800780D02*
X129899600Y-126800780D01*
X129899600Y-126800780D02*
X129899600Y-146300360D01*
X129399220Y-146300360D02*
X129399220Y-144799220D01*
X129399220Y-144799220D02*
X128898840Y-144799220D01*
X128898840Y-144799220D02*
X128898840Y-125299640D01*
X128401000Y-126800780D02*
X128401000Y-127301160D01*
X128401000Y-144799220D02*
X128401000Y-144298840D01*
X128898840Y-127301160D02*
X128401000Y-127301160D01*
X128401000Y-144298840D02*
X128898840Y-144298840D01*
X129899600Y-146300360D02*
X129399220Y-146300360D01*
X128898840Y-125299640D02*
X129399220Y-125299640D01*
D14*
G04 #@! TO.C,RV5*
X109901060Y-154200000D02*
G75*
G03X109901060Y-154200000I-3401060J0D01*
G01*
X109499740Y-154200000D02*
G75*
G03X109499740Y-154200000I-2999740J0D01*
G01*
X109100960Y-155701140D02*
X103899040Y-155701140D01*
X110700000Y-158600000D02*
G75*
G03X110700000Y-158600000I-400000J0D01*
G01*
X103100000Y-158600000D02*
G75*
G03X103100000Y-158600000I-400000J0D01*
G01*
X110700000Y-149800000D02*
G75*
G03X110700000Y-149800000I-400000J0D01*
G01*
X103100000Y-149800000D02*
G75*
G03X103100000Y-149800000I-400000J0D01*
G01*
X111400000Y-159700000D02*
X101600000Y-159700000D01*
X111400000Y-147700000D02*
X101600000Y-147700000D01*
X111400000Y-147700000D02*
X111400000Y-159700000D01*
X101600000Y-159700000D02*
X101600000Y-147700000D01*
G04 #@! TO.C,RV6*
X32400000Y-159700000D02*
X32400000Y-147700000D01*
X42200000Y-147700000D02*
X42200000Y-159700000D01*
X42200000Y-147700000D02*
X32400000Y-147700000D01*
X42200000Y-159700000D02*
X32400000Y-159700000D01*
X33900000Y-149800000D02*
G75*
G03X33900000Y-149800000I-400000J0D01*
G01*
X41500000Y-149800000D02*
G75*
G03X41500000Y-149800000I-400000J0D01*
G01*
X33900000Y-158600000D02*
G75*
G03X33900000Y-158600000I-400000J0D01*
G01*
X41500000Y-158600000D02*
G75*
G03X41500000Y-158600000I-400000J0D01*
G01*
X39900960Y-155701140D02*
X34699040Y-155701140D01*
X40299740Y-154200000D02*
G75*
G03X40299740Y-154200000I-2999740J0D01*
G01*
X40701060Y-154200000D02*
G75*
G03X40701060Y-154200000I-3401060J0D01*
G01*
G04 #@! TO.C,RV1*
X54541060Y-154200000D02*
G75*
G03X54541060Y-154200000I-3401060J0D01*
G01*
X54139740Y-154200000D02*
G75*
G03X54139740Y-154200000I-2999740J0D01*
G01*
X53740960Y-155701140D02*
X48539040Y-155701140D01*
X55340000Y-158600000D02*
G75*
G03X55340000Y-158600000I-400000J0D01*
G01*
X47740000Y-158600000D02*
G75*
G03X47740000Y-158600000I-400000J0D01*
G01*
X55340000Y-149800000D02*
G75*
G03X55340000Y-149800000I-400000J0D01*
G01*
X47740000Y-149800000D02*
G75*
G03X47740000Y-149800000I-400000J0D01*
G01*
X56040000Y-159700000D02*
X46240000Y-159700000D01*
X56040000Y-147700000D02*
X46240000Y-147700000D01*
X56040000Y-147700000D02*
X56040000Y-159700000D01*
X46240000Y-159700000D02*
X46240000Y-147700000D01*
G04 #@! TO.C,RV2*
X60080000Y-159700000D02*
X60080000Y-147700000D01*
X69880000Y-147700000D02*
X69880000Y-159700000D01*
X69880000Y-147700000D02*
X60080000Y-147700000D01*
X69880000Y-159700000D02*
X60080000Y-159700000D01*
X61580000Y-149800000D02*
G75*
G03X61580000Y-149800000I-400000J0D01*
G01*
X69180000Y-149800000D02*
G75*
G03X69180000Y-149800000I-400000J0D01*
G01*
X61580000Y-158600000D02*
G75*
G03X61580000Y-158600000I-400000J0D01*
G01*
X69180000Y-158600000D02*
G75*
G03X69180000Y-158600000I-400000J0D01*
G01*
X67580960Y-155701140D02*
X62379040Y-155701140D01*
X67979740Y-154200000D02*
G75*
G03X67979740Y-154200000I-2999740J0D01*
G01*
X68381060Y-154200000D02*
G75*
G03X68381060Y-154200000I-3401060J0D01*
G01*
G04 #@! TO.C,RV3*
X82221060Y-154200000D02*
G75*
G03X82221060Y-154200000I-3401060J0D01*
G01*
X81819740Y-154200000D02*
G75*
G03X81819740Y-154200000I-2999740J0D01*
G01*
X81420960Y-155701140D02*
X76219040Y-155701140D01*
X83020000Y-158600000D02*
G75*
G03X83020000Y-158600000I-400000J0D01*
G01*
X75420000Y-158600000D02*
G75*
G03X75420000Y-158600000I-400000J0D01*
G01*
X83020000Y-149800000D02*
G75*
G03X83020000Y-149800000I-400000J0D01*
G01*
X75420000Y-149800000D02*
G75*
G03X75420000Y-149800000I-400000J0D01*
G01*
X83720000Y-159700000D02*
X73920000Y-159700000D01*
X83720000Y-147700000D02*
X73920000Y-147700000D01*
X83720000Y-147700000D02*
X83720000Y-159700000D01*
X73920000Y-159700000D02*
X73920000Y-147700000D01*
G04 #@! TO.C,RV4*
X87760000Y-159700000D02*
X87760000Y-147700000D01*
X97560000Y-147700000D02*
X97560000Y-159700000D01*
X97560000Y-147700000D02*
X87760000Y-147700000D01*
X97560000Y-159700000D02*
X87760000Y-159700000D01*
X89260000Y-149800000D02*
G75*
G03X89260000Y-149800000I-400000J0D01*
G01*
X96860000Y-149800000D02*
G75*
G03X96860000Y-149800000I-400000J0D01*
G01*
X89260000Y-158600000D02*
G75*
G03X89260000Y-158600000I-400000J0D01*
G01*
X96860000Y-158600000D02*
G75*
G03X96860000Y-158600000I-400000J0D01*
G01*
X95260960Y-155701140D02*
X90059040Y-155701140D01*
X95659740Y-154200000D02*
G75*
G03X95659740Y-154200000I-2999740J0D01*
G01*
X96061060Y-154200000D02*
G75*
G03X96061060Y-154200000I-3401060J0D01*
G01*
G04 #@! TO.C,SW2*
D15*
X129554761Y-155583333D02*
X129602380Y-155440476D01*
X129602380Y-155202380D01*
X129554761Y-155107142D01*
X129507142Y-155059523D01*
X129411904Y-155011904D01*
X129316666Y-155011904D01*
X129221428Y-155059523D01*
X129173809Y-155107142D01*
X129126190Y-155202380D01*
X129078571Y-155392857D01*
X129030952Y-155488095D01*
X128983333Y-155535714D01*
X128888095Y-155583333D01*
X128792857Y-155583333D01*
X128697619Y-155535714D01*
X128650000Y-155488095D01*
X128602380Y-155392857D01*
X128602380Y-155154761D01*
X128650000Y-155011904D01*
X128602380Y-154678571D02*
X129602380Y-154440476D01*
X128888095Y-154250000D01*
X129602380Y-154059523D01*
X128602380Y-153821428D01*
X128697619Y-153488095D02*
X128650000Y-153440476D01*
X128602380Y-153345238D01*
X128602380Y-153107142D01*
X128650000Y-153011904D01*
X128697619Y-152964285D01*
X128792857Y-152916666D01*
X128888095Y-152916666D01*
X129030952Y-152964285D01*
X129602380Y-153535714D01*
X129602380Y-152916666D01*
G04 #@! TO.C,SW1*
X121604761Y-155583333D02*
X121652380Y-155440476D01*
X121652380Y-155202380D01*
X121604761Y-155107142D01*
X121557142Y-155059523D01*
X121461904Y-155011904D01*
X121366666Y-155011904D01*
X121271428Y-155059523D01*
X121223809Y-155107142D01*
X121176190Y-155202380D01*
X121128571Y-155392857D01*
X121080952Y-155488095D01*
X121033333Y-155535714D01*
X120938095Y-155583333D01*
X120842857Y-155583333D01*
X120747619Y-155535714D01*
X120700000Y-155488095D01*
X120652380Y-155392857D01*
X120652380Y-155154761D01*
X120700000Y-155011904D01*
X120652380Y-154678571D02*
X121652380Y-154440476D01*
X120938095Y-154250000D01*
X121652380Y-154059523D01*
X120652380Y-153821428D01*
X121652380Y-152916666D02*
X121652380Y-153488095D01*
X121652380Y-153202380D02*
X120652380Y-153202380D01*
X120795238Y-153297619D01*
X120890476Y-153392857D01*
X120938095Y-153488095D01*
G04 #@! TO.C,C1*
X35057142Y-135166666D02*
X35104761Y-135214285D01*
X35152380Y-135357142D01*
X35152380Y-135452380D01*
X35104761Y-135595238D01*
X35009523Y-135690476D01*
X34914285Y-135738095D01*
X34723809Y-135785714D01*
X34580952Y-135785714D01*
X34390476Y-135738095D01*
X34295238Y-135690476D01*
X34200000Y-135595238D01*
X34152380Y-135452380D01*
X34152380Y-135357142D01*
X34200000Y-135214285D01*
X34247619Y-135166666D01*
X35152380Y-134214285D02*
X35152380Y-134785714D01*
X35152380Y-134500000D02*
X34152380Y-134500000D01*
X34295238Y-134595238D01*
X34390476Y-134690476D01*
X34438095Y-134785714D01*
G04 #@! TO.C,C2*
X45033333Y-130657142D02*
X44985714Y-130704761D01*
X44842857Y-130752380D01*
X44747619Y-130752380D01*
X44604761Y-130704761D01*
X44509523Y-130609523D01*
X44461904Y-130514285D01*
X44414285Y-130323809D01*
X44414285Y-130180952D01*
X44461904Y-129990476D01*
X44509523Y-129895238D01*
X44604761Y-129800000D01*
X44747619Y-129752380D01*
X44842857Y-129752380D01*
X44985714Y-129800000D01*
X45033333Y-129847619D01*
X45414285Y-129847619D02*
X45461904Y-129800000D01*
X45557142Y-129752380D01*
X45795238Y-129752380D01*
X45890476Y-129800000D01*
X45938095Y-129847619D01*
X45985714Y-129942857D01*
X45985714Y-130038095D01*
X45938095Y-130180952D01*
X45366666Y-130752380D01*
X45985714Y-130752380D01*
G04 #@! TO.C,J2*
X29122380Y-127133333D02*
X29836666Y-127133333D01*
X29979523Y-127180952D01*
X30074761Y-127276190D01*
X30122380Y-127419047D01*
X30122380Y-127514285D01*
X29217619Y-126704761D02*
X29170000Y-126657142D01*
X29122380Y-126561904D01*
X29122380Y-126323809D01*
X29170000Y-126228571D01*
X29217619Y-126180952D01*
X29312857Y-126133333D01*
X29408095Y-126133333D01*
X29550952Y-126180952D01*
X30122380Y-126752380D01*
X30122380Y-126133333D01*
G04 #@! TO.C,J1*
X35552380Y-135133333D02*
X36266666Y-135133333D01*
X36409523Y-135180952D01*
X36504761Y-135276190D01*
X36552380Y-135419047D01*
X36552380Y-135514285D01*
X36552380Y-134133333D02*
X36552380Y-134704761D01*
X36552380Y-134419047D02*
X35552380Y-134419047D01*
X35695238Y-134514285D01*
X35790476Y-134609523D01*
X35838095Y-134704761D01*
G04 #@! TO.C,D4*
X78081904Y-141002380D02*
X78081904Y-140002380D01*
X78320000Y-140002380D01*
X78462857Y-140050000D01*
X78558095Y-140145238D01*
X78605714Y-140240476D01*
X78653333Y-140430952D01*
X78653333Y-140573809D01*
X78605714Y-140764285D01*
X78558095Y-140859523D01*
X78462857Y-140954761D01*
X78320000Y-141002380D01*
X78081904Y-141002380D01*
X79510476Y-140335714D02*
X79510476Y-141002380D01*
X79272380Y-139954761D02*
X79034285Y-140669047D01*
X79653333Y-140669047D01*
G04 #@! TO.C,D1*
X36561904Y-141002380D02*
X36561904Y-140002380D01*
X36800000Y-140002380D01*
X36942857Y-140050000D01*
X37038095Y-140145238D01*
X37085714Y-140240476D01*
X37133333Y-140430952D01*
X37133333Y-140573809D01*
X37085714Y-140764285D01*
X37038095Y-140859523D01*
X36942857Y-140954761D01*
X36800000Y-141002380D01*
X36561904Y-141002380D01*
X38085714Y-141002380D02*
X37514285Y-141002380D01*
X37800000Y-141002380D02*
X37800000Y-140002380D01*
X37704761Y-140145238D01*
X37609523Y-140240476D01*
X37514285Y-140288095D01*
G04 #@! TO.C,D3*
X64241904Y-141002380D02*
X64241904Y-140002380D01*
X64480000Y-140002380D01*
X64622857Y-140050000D01*
X64718095Y-140145238D01*
X64765714Y-140240476D01*
X64813333Y-140430952D01*
X64813333Y-140573809D01*
X64765714Y-140764285D01*
X64718095Y-140859523D01*
X64622857Y-140954761D01*
X64480000Y-141002380D01*
X64241904Y-141002380D01*
X65146666Y-140002380D02*
X65765714Y-140002380D01*
X65432380Y-140383333D01*
X65575238Y-140383333D01*
X65670476Y-140430952D01*
X65718095Y-140478571D01*
X65765714Y-140573809D01*
X65765714Y-140811904D01*
X65718095Y-140907142D01*
X65670476Y-140954761D01*
X65575238Y-141002380D01*
X65289523Y-141002380D01*
X65194285Y-140954761D01*
X65146666Y-140907142D01*
G04 #@! TO.C,D5*
X91921904Y-141002380D02*
X91921904Y-140002380D01*
X92160000Y-140002380D01*
X92302857Y-140050000D01*
X92398095Y-140145238D01*
X92445714Y-140240476D01*
X92493333Y-140430952D01*
X92493333Y-140573809D01*
X92445714Y-140764285D01*
X92398095Y-140859523D01*
X92302857Y-140954761D01*
X92160000Y-141002380D01*
X91921904Y-141002380D01*
X93398095Y-140002380D02*
X92921904Y-140002380D01*
X92874285Y-140478571D01*
X92921904Y-140430952D01*
X93017142Y-140383333D01*
X93255238Y-140383333D01*
X93350476Y-140430952D01*
X93398095Y-140478571D01*
X93445714Y-140573809D01*
X93445714Y-140811904D01*
X93398095Y-140907142D01*
X93350476Y-140954761D01*
X93255238Y-141002380D01*
X93017142Y-141002380D01*
X92921904Y-140954761D01*
X92874285Y-140907142D01*
G04 #@! TO.C,D6*
X105761904Y-141002380D02*
X105761904Y-140002380D01*
X106000000Y-140002380D01*
X106142857Y-140050000D01*
X106238095Y-140145238D01*
X106285714Y-140240476D01*
X106333333Y-140430952D01*
X106333333Y-140573809D01*
X106285714Y-140764285D01*
X106238095Y-140859523D01*
X106142857Y-140954761D01*
X106000000Y-141002380D01*
X105761904Y-141002380D01*
X107190476Y-140002380D02*
X107000000Y-140002380D01*
X106904761Y-140050000D01*
X106857142Y-140097619D01*
X106761904Y-140240476D01*
X106714285Y-140430952D01*
X106714285Y-140811904D01*
X106761904Y-140907142D01*
X106809523Y-140954761D01*
X106904761Y-141002380D01*
X107095238Y-141002380D01*
X107190476Y-140954761D01*
X107238095Y-140907142D01*
X107285714Y-140811904D01*
X107285714Y-140573809D01*
X107238095Y-140478571D01*
X107190476Y-140430952D01*
X107095238Y-140383333D01*
X106904761Y-140383333D01*
X106809523Y-140430952D01*
X106761904Y-140478571D01*
X106714285Y-140573809D01*
G04 #@! TO.C,D2*
X50401904Y-141002380D02*
X50401904Y-140002380D01*
X50640000Y-140002380D01*
X50782857Y-140050000D01*
X50878095Y-140145238D01*
X50925714Y-140240476D01*
X50973333Y-140430952D01*
X50973333Y-140573809D01*
X50925714Y-140764285D01*
X50878095Y-140859523D01*
X50782857Y-140954761D01*
X50640000Y-141002380D01*
X50401904Y-141002380D01*
X51354285Y-140097619D02*
X51401904Y-140050000D01*
X51497142Y-140002380D01*
X51735238Y-140002380D01*
X51830476Y-140050000D01*
X51878095Y-140097619D01*
X51925714Y-140192857D01*
X51925714Y-140288095D01*
X51878095Y-140430952D01*
X51306666Y-141002380D01*
X51925714Y-141002380D01*
G04 #@! TO.C,U1*
X61152380Y-134101904D02*
X61961904Y-134101904D01*
X62057142Y-134054285D01*
X62104761Y-134006666D01*
X62152380Y-133911428D01*
X62152380Y-133720952D01*
X62104761Y-133625714D01*
X62057142Y-133578095D01*
X61961904Y-133530476D01*
X61152380Y-133530476D01*
X62152380Y-132530476D02*
X62152380Y-133101904D01*
X62152380Y-132816190D02*
X61152380Y-132816190D01*
X61295238Y-132911428D01*
X61390476Y-133006666D01*
X61438095Y-133101904D01*
G04 #@! TO.C,U2*
X42638095Y-129852380D02*
X42638095Y-130661904D01*
X42685714Y-130757142D01*
X42733333Y-130804761D01*
X42828571Y-130852380D01*
X43019047Y-130852380D01*
X43114285Y-130804761D01*
X43161904Y-130757142D01*
X43209523Y-130661904D01*
X43209523Y-129852380D01*
X43638095Y-129947619D02*
X43685714Y-129900000D01*
X43780952Y-129852380D01*
X44019047Y-129852380D01*
X44114285Y-129900000D01*
X44161904Y-129947619D01*
X44209523Y-130042857D01*
X44209523Y-130138095D01*
X44161904Y-130280952D01*
X43590476Y-130852380D01*
X44209523Y-130852380D01*
G04 #@! TO.C,U3*
X110852380Y-136631904D02*
X111661904Y-136631904D01*
X111757142Y-136584285D01*
X111804761Y-136536666D01*
X111852380Y-136441428D01*
X111852380Y-136250952D01*
X111804761Y-136155714D01*
X111757142Y-136108095D01*
X111661904Y-136060476D01*
X110852380Y-136060476D01*
X110852380Y-135679523D02*
X110852380Y-135060476D01*
X111233333Y-135393809D01*
X111233333Y-135250952D01*
X111280952Y-135155714D01*
X111328571Y-135108095D01*
X111423809Y-135060476D01*
X111661904Y-135060476D01*
X111757142Y-135108095D01*
X111804761Y-135155714D01*
X111852380Y-135250952D01*
X111852380Y-135536666D01*
X111804761Y-135631904D01*
X111757142Y-135679523D01*
G04 #@! TO.C,R3*
X51427380Y-133556666D02*
X50951190Y-133890000D01*
X51427380Y-134128095D02*
X50427380Y-134128095D01*
X50427380Y-133747142D01*
X50475000Y-133651904D01*
X50522619Y-133604285D01*
X50617857Y-133556666D01*
X50760714Y-133556666D01*
X50855952Y-133604285D01*
X50903571Y-133651904D01*
X50951190Y-133747142D01*
X50951190Y-134128095D01*
X50427380Y-133223333D02*
X50427380Y-132604285D01*
X50808333Y-132937619D01*
X50808333Y-132794761D01*
X50855952Y-132699523D01*
X50903571Y-132651904D01*
X50998809Y-132604285D01*
X51236904Y-132604285D01*
X51332142Y-132651904D01*
X51379761Y-132699523D01*
X51427380Y-132794761D01*
X51427380Y-133080476D01*
X51379761Y-133175714D01*
X51332142Y-133223333D01*
G04 #@! TO.C,R9*
X102737380Y-133556666D02*
X102261190Y-133890000D01*
X102737380Y-134128095D02*
X101737380Y-134128095D01*
X101737380Y-133747142D01*
X101785000Y-133651904D01*
X101832619Y-133604285D01*
X101927857Y-133556666D01*
X102070714Y-133556666D01*
X102165952Y-133604285D01*
X102213571Y-133651904D01*
X102261190Y-133747142D01*
X102261190Y-134128095D01*
X102737380Y-133080476D02*
X102737380Y-132890000D01*
X102689761Y-132794761D01*
X102642142Y-132747142D01*
X102499285Y-132651904D01*
X102308809Y-132604285D01*
X101927857Y-132604285D01*
X101832619Y-132651904D01*
X101785000Y-132699523D01*
X101737380Y-132794761D01*
X101737380Y-132985238D01*
X101785000Y-133080476D01*
X101832619Y-133128095D01*
X101927857Y-133175714D01*
X102165952Y-133175714D01*
X102261190Y-133128095D01*
X102308809Y-133080476D01*
X102356428Y-132985238D01*
X102356428Y-132794761D01*
X102308809Y-132699523D01*
X102261190Y-132651904D01*
X102165952Y-132604285D01*
G04 #@! TO.C,R8*
X99192380Y-133556666D02*
X98716190Y-133890000D01*
X99192380Y-134128095D02*
X98192380Y-134128095D01*
X98192380Y-133747142D01*
X98240000Y-133651904D01*
X98287619Y-133604285D01*
X98382857Y-133556666D01*
X98525714Y-133556666D01*
X98620952Y-133604285D01*
X98668571Y-133651904D01*
X98716190Y-133747142D01*
X98716190Y-134128095D01*
X98620952Y-132985238D02*
X98573333Y-133080476D01*
X98525714Y-133128095D01*
X98430476Y-133175714D01*
X98382857Y-133175714D01*
X98287619Y-133128095D01*
X98240000Y-133080476D01*
X98192380Y-132985238D01*
X98192380Y-132794761D01*
X98240000Y-132699523D01*
X98287619Y-132651904D01*
X98382857Y-132604285D01*
X98430476Y-132604285D01*
X98525714Y-132651904D01*
X98573333Y-132699523D01*
X98620952Y-132794761D01*
X98620952Y-132985238D01*
X98668571Y-133080476D01*
X98716190Y-133128095D01*
X98811428Y-133175714D01*
X99001904Y-133175714D01*
X99097142Y-133128095D01*
X99144761Y-133080476D01*
X99192380Y-132985238D01*
X99192380Y-132794761D01*
X99144761Y-132699523D01*
X99097142Y-132651904D01*
X99001904Y-132604285D01*
X98811428Y-132604285D01*
X98716190Y-132651904D01*
X98668571Y-132699523D01*
X98620952Y-132794761D01*
G04 #@! TO.C,R7*
X95647380Y-133556666D02*
X95171190Y-133890000D01*
X95647380Y-134128095D02*
X94647380Y-134128095D01*
X94647380Y-133747142D01*
X94695000Y-133651904D01*
X94742619Y-133604285D01*
X94837857Y-133556666D01*
X94980714Y-133556666D01*
X95075952Y-133604285D01*
X95123571Y-133651904D01*
X95171190Y-133747142D01*
X95171190Y-134128095D01*
X94647380Y-133223333D02*
X94647380Y-132556666D01*
X95647380Y-132985238D01*
G04 #@! TO.C,R1*
X58517380Y-133556666D02*
X58041190Y-133890000D01*
X58517380Y-134128095D02*
X57517380Y-134128095D01*
X57517380Y-133747142D01*
X57565000Y-133651904D01*
X57612619Y-133604285D01*
X57707857Y-133556666D01*
X57850714Y-133556666D01*
X57945952Y-133604285D01*
X57993571Y-133651904D01*
X58041190Y-133747142D01*
X58041190Y-134128095D01*
X58517380Y-132604285D02*
X58517380Y-133175714D01*
X58517380Y-132890000D02*
X57517380Y-132890000D01*
X57660238Y-132985238D01*
X57755476Y-133080476D01*
X57803095Y-133175714D01*
G04 #@! TO.C,R4*
X54972380Y-133556666D02*
X54496190Y-133890000D01*
X54972380Y-134128095D02*
X53972380Y-134128095D01*
X53972380Y-133747142D01*
X54020000Y-133651904D01*
X54067619Y-133604285D01*
X54162857Y-133556666D01*
X54305714Y-133556666D01*
X54400952Y-133604285D01*
X54448571Y-133651904D01*
X54496190Y-133747142D01*
X54496190Y-134128095D01*
X54305714Y-132699523D02*
X54972380Y-132699523D01*
X53924761Y-132937619D02*
X54639047Y-133175714D01*
X54639047Y-132556666D01*
G04 #@! TO.C,R5*
X88557380Y-133556666D02*
X88081190Y-133890000D01*
X88557380Y-134128095D02*
X87557380Y-134128095D01*
X87557380Y-133747142D01*
X87605000Y-133651904D01*
X87652619Y-133604285D01*
X87747857Y-133556666D01*
X87890714Y-133556666D01*
X87985952Y-133604285D01*
X88033571Y-133651904D01*
X88081190Y-133747142D01*
X88081190Y-134128095D01*
X87557380Y-132651904D02*
X87557380Y-133128095D01*
X88033571Y-133175714D01*
X87985952Y-133128095D01*
X87938333Y-133032857D01*
X87938333Y-132794761D01*
X87985952Y-132699523D01*
X88033571Y-132651904D01*
X88128809Y-132604285D01*
X88366904Y-132604285D01*
X88462142Y-132651904D01*
X88509761Y-132699523D01*
X88557380Y-132794761D01*
X88557380Y-133032857D01*
X88509761Y-133128095D01*
X88462142Y-133175714D01*
G04 #@! TO.C,R6*
X92102380Y-133556666D02*
X91626190Y-133890000D01*
X92102380Y-134128095D02*
X91102380Y-134128095D01*
X91102380Y-133747142D01*
X91150000Y-133651904D01*
X91197619Y-133604285D01*
X91292857Y-133556666D01*
X91435714Y-133556666D01*
X91530952Y-133604285D01*
X91578571Y-133651904D01*
X91626190Y-133747142D01*
X91626190Y-134128095D01*
X91102380Y-132699523D02*
X91102380Y-132890000D01*
X91150000Y-132985238D01*
X91197619Y-133032857D01*
X91340476Y-133128095D01*
X91530952Y-133175714D01*
X91911904Y-133175714D01*
X92007142Y-133128095D01*
X92054761Y-133080476D01*
X92102380Y-132985238D01*
X92102380Y-132794761D01*
X92054761Y-132699523D01*
X92007142Y-132651904D01*
X91911904Y-132604285D01*
X91673809Y-132604285D01*
X91578571Y-132651904D01*
X91530952Y-132699523D01*
X91483333Y-132794761D01*
X91483333Y-132985238D01*
X91530952Y-133080476D01*
X91578571Y-133128095D01*
X91673809Y-133175714D01*
G04 #@! TO.C,R2*
X47882380Y-133556666D02*
X47406190Y-133890000D01*
X47882380Y-134128095D02*
X46882380Y-134128095D01*
X46882380Y-133747142D01*
X46930000Y-133651904D01*
X46977619Y-133604285D01*
X47072857Y-133556666D01*
X47215714Y-133556666D01*
X47310952Y-133604285D01*
X47358571Y-133651904D01*
X47406190Y-133747142D01*
X47406190Y-134128095D01*
X46977619Y-133175714D02*
X46930000Y-133128095D01*
X46882380Y-133032857D01*
X46882380Y-132794761D01*
X46930000Y-132699523D01*
X46977619Y-132651904D01*
X47072857Y-132604285D01*
X47168095Y-132604285D01*
X47310952Y-132651904D01*
X47882380Y-133223333D01*
X47882380Y-132604285D01*
G04 #@! TO.C,J3*
D13*
X130566168Y-136308000D02*
X131654740Y-136308000D01*
X131872454Y-136380571D01*
X132017597Y-136525714D01*
X132090168Y-136743428D01*
X132090168Y-136888571D01*
X130566168Y-135727428D02*
X130566168Y-134784000D01*
X131146740Y-135292000D01*
X131146740Y-135074285D01*
X131219311Y-134929142D01*
X131291882Y-134856571D01*
X131437025Y-134784000D01*
X131799882Y-134784000D01*
X131945025Y-134856571D01*
X132017597Y-134929142D01*
X132090168Y-135074285D01*
X132090168Y-135509714D01*
X132017597Y-135654857D01*
X131945025Y-135727428D01*
D16*
X117254761Y-139988095D02*
X117254761Y-138688095D01*
X117688095Y-139616666D01*
X118121428Y-138688095D01*
X118121428Y-139988095D01*
X118740476Y-139988095D02*
X118740476Y-138688095D01*
X119359523Y-139988095D02*
X119359523Y-138688095D01*
X119669047Y-138688095D01*
X119854761Y-138750000D01*
X119978571Y-138873809D01*
X120040476Y-138997619D01*
X120102380Y-139245238D01*
X120102380Y-139430952D01*
X120040476Y-139678571D01*
X119978571Y-139802380D01*
X119854761Y-139926190D01*
X119669047Y-139988095D01*
X119359523Y-139988095D01*
X120659523Y-139988095D02*
X120659523Y-138688095D01*
X120969047Y-140111904D02*
X121959523Y-140111904D01*
X122454761Y-139988095D02*
X122330952Y-139926190D01*
X122269047Y-139864285D01*
X122207142Y-139740476D01*
X122207142Y-139369047D01*
X122269047Y-139245238D01*
X122330952Y-139183333D01*
X122454761Y-139121428D01*
X122640476Y-139121428D01*
X122764285Y-139183333D01*
X122826190Y-139245238D01*
X122888095Y-139369047D01*
X122888095Y-139740476D01*
X122826190Y-139864285D01*
X122764285Y-139926190D01*
X122640476Y-139988095D01*
X122454761Y-139988095D01*
X124002380Y-139121428D02*
X124002380Y-139988095D01*
X123445238Y-139121428D02*
X123445238Y-139802380D01*
X123507142Y-139926190D01*
X123630952Y-139988095D01*
X123816666Y-139988095D01*
X123940476Y-139926190D01*
X124002380Y-139864285D01*
X124435714Y-139121428D02*
X124930952Y-139121428D01*
X124621428Y-138688095D02*
X124621428Y-139802380D01*
X124683333Y-139926190D01*
X124807142Y-139988095D01*
X124930952Y-139988095D01*
G04 #@! TO.C,RV5*
D17*
X105506464Y-150079087D02*
X105006084Y-149364258D01*
X104648670Y-150079087D02*
X104648670Y-148577947D01*
X105220532Y-148577947D01*
X105363498Y-148649430D01*
X105434981Y-148720912D01*
X105506464Y-148863878D01*
X105506464Y-149078327D01*
X105434981Y-149221292D01*
X105363498Y-149292775D01*
X105220532Y-149364258D01*
X104648670Y-149364258D01*
X105935361Y-148577947D02*
X106435741Y-150079087D01*
X106936121Y-148577947D01*
X108151330Y-148577947D02*
X107436501Y-148577947D01*
X107365018Y-149292775D01*
X107436501Y-149221292D01*
X107579467Y-149149810D01*
X107936881Y-149149810D01*
X108079847Y-149221292D01*
X108151330Y-149292775D01*
X108222812Y-149435741D01*
X108222812Y-149793155D01*
X108151330Y-149936121D01*
X108079847Y-150007604D01*
X107936881Y-150079087D01*
X107579467Y-150079087D01*
X107436501Y-150007604D01*
X107365018Y-149936121D01*
X105506464Y-154979427D02*
X104648670Y-154979427D01*
X105077567Y-154979427D02*
X105077567Y-153478287D01*
X104934601Y-153692735D01*
X104791635Y-153835701D01*
X104648670Y-153907184D01*
X106435741Y-153478287D02*
X106578707Y-153478287D01*
X106721672Y-153549770D01*
X106793155Y-153621252D01*
X106864638Y-153764218D01*
X106936121Y-154050150D01*
X106936121Y-154407564D01*
X106864638Y-154693495D01*
X106793155Y-154836461D01*
X106721672Y-154907944D01*
X106578707Y-154979427D01*
X106435741Y-154979427D01*
X106292775Y-154907944D01*
X106221292Y-154836461D01*
X106149810Y-154693495D01*
X106078327Y-154407564D01*
X106078327Y-154050150D01*
X106149810Y-153764218D01*
X106221292Y-153621252D01*
X106292775Y-153549770D01*
X106435741Y-153478287D01*
X107579467Y-154979427D02*
X107579467Y-153478287D01*
X107722432Y-154407564D02*
X108151330Y-154979427D01*
X108151330Y-153978667D02*
X107579467Y-154550530D01*
G04 #@! TO.C,RV6*
X36306464Y-150179087D02*
X35806084Y-149464258D01*
X35448670Y-150179087D02*
X35448670Y-148677947D01*
X36020532Y-148677947D01*
X36163498Y-148749430D01*
X36234981Y-148820912D01*
X36306464Y-148963878D01*
X36306464Y-149178327D01*
X36234981Y-149321292D01*
X36163498Y-149392775D01*
X36020532Y-149464258D01*
X35448670Y-149464258D01*
X36735361Y-148677947D02*
X37235741Y-150179087D01*
X37736121Y-148677947D01*
X38879847Y-148677947D02*
X38593915Y-148677947D01*
X38450950Y-148749430D01*
X38379467Y-148820912D01*
X38236501Y-149035361D01*
X38165018Y-149321292D01*
X38165018Y-149893155D01*
X38236501Y-150036121D01*
X38307984Y-150107604D01*
X38450950Y-150179087D01*
X38736881Y-150179087D01*
X38879847Y-150107604D01*
X38951330Y-150036121D01*
X39022812Y-149893155D01*
X39022812Y-149535741D01*
X38951330Y-149392775D01*
X38879847Y-149321292D01*
X38736881Y-149249810D01*
X38450950Y-149249810D01*
X38307984Y-149321292D01*
X38236501Y-149392775D01*
X38165018Y-149535741D01*
X36306464Y-154979427D02*
X35448670Y-154979427D01*
X35877567Y-154979427D02*
X35877567Y-153478287D01*
X35734601Y-153692735D01*
X35591635Y-153835701D01*
X35448670Y-153907184D01*
X37235741Y-153478287D02*
X37378707Y-153478287D01*
X37521672Y-153549770D01*
X37593155Y-153621252D01*
X37664638Y-153764218D01*
X37736121Y-154050150D01*
X37736121Y-154407564D01*
X37664638Y-154693495D01*
X37593155Y-154836461D01*
X37521672Y-154907944D01*
X37378707Y-154979427D01*
X37235741Y-154979427D01*
X37092775Y-154907944D01*
X37021292Y-154836461D01*
X36949810Y-154693495D01*
X36878327Y-154407564D01*
X36878327Y-154050150D01*
X36949810Y-153764218D01*
X37021292Y-153621252D01*
X37092775Y-153549770D01*
X37235741Y-153478287D01*
X38379467Y-154979427D02*
X38379467Y-153478287D01*
X38522432Y-154407564D02*
X38951330Y-154979427D01*
X38951330Y-153978667D02*
X38379467Y-154550530D01*
G04 #@! TO.C,RV1*
X50406464Y-150179087D02*
X49906084Y-149464258D01*
X49548670Y-150179087D02*
X49548670Y-148677947D01*
X50120532Y-148677947D01*
X50263498Y-148749430D01*
X50334981Y-148820912D01*
X50406464Y-148963878D01*
X50406464Y-149178327D01*
X50334981Y-149321292D01*
X50263498Y-149392775D01*
X50120532Y-149464258D01*
X49548670Y-149464258D01*
X50835361Y-148677947D02*
X51335741Y-150179087D01*
X51836121Y-148677947D01*
X53122812Y-150179087D02*
X52265018Y-150179087D01*
X52693915Y-150179087D02*
X52693915Y-148677947D01*
X52550950Y-148892395D01*
X52407984Y-149035361D01*
X52265018Y-149106844D01*
X50146464Y-154979427D02*
X49288670Y-154979427D01*
X49717567Y-154979427D02*
X49717567Y-153478287D01*
X49574601Y-153692735D01*
X49431635Y-153835701D01*
X49288670Y-153907184D01*
X51075741Y-153478287D02*
X51218707Y-153478287D01*
X51361672Y-153549770D01*
X51433155Y-153621252D01*
X51504638Y-153764218D01*
X51576121Y-154050150D01*
X51576121Y-154407564D01*
X51504638Y-154693495D01*
X51433155Y-154836461D01*
X51361672Y-154907944D01*
X51218707Y-154979427D01*
X51075741Y-154979427D01*
X50932775Y-154907944D01*
X50861292Y-154836461D01*
X50789810Y-154693495D01*
X50718327Y-154407564D01*
X50718327Y-154050150D01*
X50789810Y-153764218D01*
X50861292Y-153621252D01*
X50932775Y-153549770D01*
X51075741Y-153478287D01*
X52219467Y-154979427D02*
X52219467Y-153478287D01*
X52362432Y-154407564D02*
X52791330Y-154979427D01*
X52791330Y-153978667D02*
X52219467Y-154550530D01*
G04 #@! TO.C,RV2*
X64106464Y-150179087D02*
X63606084Y-149464258D01*
X63248670Y-150179087D02*
X63248670Y-148677947D01*
X63820532Y-148677947D01*
X63963498Y-148749430D01*
X64034981Y-148820912D01*
X64106464Y-148963878D01*
X64106464Y-149178327D01*
X64034981Y-149321292D01*
X63963498Y-149392775D01*
X63820532Y-149464258D01*
X63248670Y-149464258D01*
X64535361Y-148677947D02*
X65035741Y-150179087D01*
X65536121Y-148677947D01*
X65965018Y-148820912D02*
X66036501Y-148749430D01*
X66179467Y-148677947D01*
X66536881Y-148677947D01*
X66679847Y-148749430D01*
X66751330Y-148820912D01*
X66822812Y-148963878D01*
X66822812Y-149106844D01*
X66751330Y-149321292D01*
X65893535Y-150179087D01*
X66822812Y-150179087D01*
X63986464Y-154979427D02*
X63128670Y-154979427D01*
X63557567Y-154979427D02*
X63557567Y-153478287D01*
X63414601Y-153692735D01*
X63271635Y-153835701D01*
X63128670Y-153907184D01*
X64915741Y-153478287D02*
X65058707Y-153478287D01*
X65201672Y-153549770D01*
X65273155Y-153621252D01*
X65344638Y-153764218D01*
X65416121Y-154050150D01*
X65416121Y-154407564D01*
X65344638Y-154693495D01*
X65273155Y-154836461D01*
X65201672Y-154907944D01*
X65058707Y-154979427D01*
X64915741Y-154979427D01*
X64772775Y-154907944D01*
X64701292Y-154836461D01*
X64629810Y-154693495D01*
X64558327Y-154407564D01*
X64558327Y-154050150D01*
X64629810Y-153764218D01*
X64701292Y-153621252D01*
X64772775Y-153549770D01*
X64915741Y-153478287D01*
X66059467Y-154979427D02*
X66059467Y-153478287D01*
X66202432Y-154407564D02*
X66631330Y-154979427D01*
X66631330Y-153978667D02*
X66059467Y-154550530D01*
G04 #@! TO.C,RV3*
X77706464Y-150279087D02*
X77206084Y-149564258D01*
X76848670Y-150279087D02*
X76848670Y-148777947D01*
X77420532Y-148777947D01*
X77563498Y-148849430D01*
X77634981Y-148920912D01*
X77706464Y-149063878D01*
X77706464Y-149278327D01*
X77634981Y-149421292D01*
X77563498Y-149492775D01*
X77420532Y-149564258D01*
X76848670Y-149564258D01*
X78135361Y-148777947D02*
X78635741Y-150279087D01*
X79136121Y-148777947D01*
X79493535Y-148777947D02*
X80422812Y-148777947D01*
X79922432Y-149349810D01*
X80136881Y-149349810D01*
X80279847Y-149421292D01*
X80351330Y-149492775D01*
X80422812Y-149635741D01*
X80422812Y-149993155D01*
X80351330Y-150136121D01*
X80279847Y-150207604D01*
X80136881Y-150279087D01*
X79707984Y-150279087D01*
X79565018Y-150207604D01*
X79493535Y-150136121D01*
X77826464Y-154979427D02*
X76968670Y-154979427D01*
X77397567Y-154979427D02*
X77397567Y-153478287D01*
X77254601Y-153692735D01*
X77111635Y-153835701D01*
X76968670Y-153907184D01*
X78755741Y-153478287D02*
X78898707Y-153478287D01*
X79041672Y-153549770D01*
X79113155Y-153621252D01*
X79184638Y-153764218D01*
X79256121Y-154050150D01*
X79256121Y-154407564D01*
X79184638Y-154693495D01*
X79113155Y-154836461D01*
X79041672Y-154907944D01*
X78898707Y-154979427D01*
X78755741Y-154979427D01*
X78612775Y-154907944D01*
X78541292Y-154836461D01*
X78469810Y-154693495D01*
X78398327Y-154407564D01*
X78398327Y-154050150D01*
X78469810Y-153764218D01*
X78541292Y-153621252D01*
X78612775Y-153549770D01*
X78755741Y-153478287D01*
X79899467Y-154979427D02*
X79899467Y-153478287D01*
X80042432Y-154407564D02*
X80471330Y-154979427D01*
X80471330Y-153978667D02*
X79899467Y-154550530D01*
G04 #@! TO.C,RV4*
X91506464Y-150279087D02*
X91006084Y-149564258D01*
X90648670Y-150279087D02*
X90648670Y-148777947D01*
X91220532Y-148777947D01*
X91363498Y-148849430D01*
X91434981Y-148920912D01*
X91506464Y-149063878D01*
X91506464Y-149278327D01*
X91434981Y-149421292D01*
X91363498Y-149492775D01*
X91220532Y-149564258D01*
X90648670Y-149564258D01*
X91935361Y-148777947D02*
X92435741Y-150279087D01*
X92936121Y-148777947D01*
X94079847Y-149278327D02*
X94079847Y-150279087D01*
X93722432Y-148706464D02*
X93365018Y-149778707D01*
X94294295Y-149778707D01*
X91666464Y-154979427D02*
X90808670Y-154979427D01*
X91237567Y-154979427D02*
X91237567Y-153478287D01*
X91094601Y-153692735D01*
X90951635Y-153835701D01*
X90808670Y-153907184D01*
X92595741Y-153478287D02*
X92738707Y-153478287D01*
X92881672Y-153549770D01*
X92953155Y-153621252D01*
X93024638Y-153764218D01*
X93096121Y-154050150D01*
X93096121Y-154407564D01*
X93024638Y-154693495D01*
X92953155Y-154836461D01*
X92881672Y-154907944D01*
X92738707Y-154979427D01*
X92595741Y-154979427D01*
X92452775Y-154907944D01*
X92381292Y-154836461D01*
X92309810Y-154693495D01*
X92238327Y-154407564D01*
X92238327Y-154050150D01*
X92309810Y-153764218D01*
X92381292Y-153621252D01*
X92452775Y-153549770D01*
X92595741Y-153478287D01*
X93739467Y-154979427D02*
X93739467Y-153478287D01*
X93882432Y-154407564D02*
X94311330Y-154979427D01*
X94311330Y-153978667D02*
X93739467Y-154550530D01*
G04 #@! TD*
M02*
