G04 #@! TF.GenerationSoftware,KiCad,Pcbnew,(5.0.2)-1*
G04 #@! TF.CreationDate,2019-03-15T15:40:50+01:00*
G04 #@! TF.ProjectId,CCdrum,43436472-756d-42e6-9b69-6361645f7063,rev?*
G04 #@! TF.SameCoordinates,Original*
G04 #@! TF.FileFunction,Soldermask,Top*
G04 #@! TF.FilePolarity,Negative*
%FSLAX46Y46*%
G04 Gerber Fmt 4.6, Leading zero omitted, Abs format (unit mm)*
G04 Created by KiCad (PCBNEW (5.0.2)-1) date 15/03/2019 15:40:50*
%MOMM*%
%LPD*%
G01*
G04 APERTURE LIST*
%ADD10C,0.100000*%
G04 APERTURE END LIST*
D10*
G36*
X138095331Y-102532211D02*
X138423092Y-102667974D01*
X138718073Y-102865074D01*
X138968926Y-103115927D01*
X139166026Y-103410908D01*
X139301789Y-103738669D01*
X139371000Y-104086616D01*
X139371000Y-104441384D01*
X139301789Y-104789331D01*
X139166026Y-105117092D01*
X138968926Y-105412073D01*
X138718073Y-105662926D01*
X138423092Y-105860026D01*
X138095331Y-105995789D01*
X137747384Y-106065000D01*
X137392616Y-106065000D01*
X137044669Y-105995789D01*
X136716908Y-105860026D01*
X136421927Y-105662926D01*
X136171074Y-105412073D01*
X135973974Y-105117092D01*
X135838211Y-104789331D01*
X135769000Y-104441384D01*
X135769000Y-104086616D01*
X135838211Y-103738669D01*
X135973974Y-103410908D01*
X136171074Y-103115927D01*
X136421927Y-102865074D01*
X136716908Y-102667974D01*
X137044669Y-102532211D01*
X137392616Y-102463000D01*
X137747384Y-102463000D01*
X138095331Y-102532211D01*
X138095331Y-102532211D01*
G37*
G36*
X178095331Y-102532211D02*
X178423092Y-102667974D01*
X178718073Y-102865074D01*
X178968926Y-103115927D01*
X179166026Y-103410908D01*
X179301789Y-103738669D01*
X179371000Y-104086616D01*
X179371000Y-104441384D01*
X179301789Y-104789331D01*
X179166026Y-105117092D01*
X178968926Y-105412073D01*
X178718073Y-105662926D01*
X178423092Y-105860026D01*
X178095331Y-105995789D01*
X177747384Y-106065000D01*
X177392616Y-106065000D01*
X177044669Y-105995789D01*
X176716908Y-105860026D01*
X176421927Y-105662926D01*
X176171074Y-105412073D01*
X175973974Y-105117092D01*
X175838211Y-104789331D01*
X175769000Y-104441384D01*
X175769000Y-104086616D01*
X175838211Y-103738669D01*
X175973974Y-103410908D01*
X176171074Y-103115927D01*
X176421927Y-102865074D01*
X176716908Y-102667974D01*
X177044669Y-102532211D01*
X177392616Y-102463000D01*
X177747384Y-102463000D01*
X178095331Y-102532211D01*
X178095331Y-102532211D01*
G37*
G36*
X162895331Y-102532211D02*
X163223092Y-102667974D01*
X163518073Y-102865074D01*
X163768926Y-103115927D01*
X163966026Y-103410908D01*
X164101789Y-103738669D01*
X164171000Y-104086616D01*
X164171000Y-104441384D01*
X164101789Y-104789331D01*
X163966026Y-105117092D01*
X163768926Y-105412073D01*
X163518073Y-105662926D01*
X163223092Y-105860026D01*
X162895331Y-105995789D01*
X162547384Y-106065000D01*
X162192616Y-106065000D01*
X161844669Y-105995789D01*
X161516908Y-105860026D01*
X161221927Y-105662926D01*
X160971074Y-105412073D01*
X160773974Y-105117092D01*
X160638211Y-104789331D01*
X160569000Y-104441384D01*
X160569000Y-104086616D01*
X160638211Y-103738669D01*
X160773974Y-103410908D01*
X160971074Y-103115927D01*
X161221927Y-102865074D01*
X161516908Y-102667974D01*
X161844669Y-102532211D01*
X162192616Y-102463000D01*
X162547384Y-102463000D01*
X162895331Y-102532211D01*
X162895331Y-102532211D01*
G37*
G36*
X153295331Y-102532211D02*
X153623092Y-102667974D01*
X153918073Y-102865074D01*
X154168926Y-103115927D01*
X154366026Y-103410908D01*
X154501789Y-103738669D01*
X154571000Y-104086616D01*
X154571000Y-104441384D01*
X154501789Y-104789331D01*
X154366026Y-105117092D01*
X154168926Y-105412073D01*
X153918073Y-105662926D01*
X153623092Y-105860026D01*
X153295331Y-105995789D01*
X152947384Y-106065000D01*
X152592616Y-106065000D01*
X152244669Y-105995789D01*
X151916908Y-105860026D01*
X151621927Y-105662926D01*
X151371074Y-105412073D01*
X151173974Y-105117092D01*
X151038211Y-104789331D01*
X150969000Y-104441384D01*
X150969000Y-104086616D01*
X151038211Y-103738669D01*
X151173974Y-103410908D01*
X151371074Y-103115927D01*
X151621927Y-102865074D01*
X151916908Y-102667974D01*
X152244669Y-102532211D01*
X152592616Y-102463000D01*
X152947384Y-102463000D01*
X153295331Y-102532211D01*
X153295331Y-102532211D01*
G37*
G36*
X168495331Y-102532211D02*
X168823092Y-102667974D01*
X169118073Y-102865074D01*
X169368926Y-103115927D01*
X169566026Y-103410908D01*
X169701789Y-103738669D01*
X169771000Y-104086616D01*
X169771000Y-104441384D01*
X169701789Y-104789331D01*
X169566026Y-105117092D01*
X169368926Y-105412073D01*
X169118073Y-105662926D01*
X168823092Y-105860026D01*
X168495331Y-105995789D01*
X168147384Y-106065000D01*
X167792616Y-106065000D01*
X167444669Y-105995789D01*
X167116908Y-105860026D01*
X166821927Y-105662926D01*
X166571074Y-105412073D01*
X166373974Y-105117092D01*
X166238211Y-104789331D01*
X166169000Y-104441384D01*
X166169000Y-104086616D01*
X166238211Y-103738669D01*
X166373974Y-103410908D01*
X166571074Y-103115927D01*
X166821927Y-102865074D01*
X167116908Y-102667974D01*
X167444669Y-102532211D01*
X167792616Y-102463000D01*
X168147384Y-102463000D01*
X168495331Y-102532211D01*
X168495331Y-102532211D01*
G37*
G36*
X117295331Y-102532211D02*
X117623092Y-102667974D01*
X117918073Y-102865074D01*
X118168926Y-103115927D01*
X118366026Y-103410908D01*
X118501789Y-103738669D01*
X118571000Y-104086616D01*
X118571000Y-104441384D01*
X118501789Y-104789331D01*
X118366026Y-105117092D01*
X118168926Y-105412073D01*
X117918073Y-105662926D01*
X117623092Y-105860026D01*
X117295331Y-105995789D01*
X116947384Y-106065000D01*
X116592616Y-106065000D01*
X116244669Y-105995789D01*
X115916908Y-105860026D01*
X115621927Y-105662926D01*
X115371074Y-105412073D01*
X115173974Y-105117092D01*
X115038211Y-104789331D01*
X114969000Y-104441384D01*
X114969000Y-104086616D01*
X115038211Y-103738669D01*
X115173974Y-103410908D01*
X115371074Y-103115927D01*
X115621927Y-102865074D01*
X115916908Y-102667974D01*
X116244669Y-102532211D01*
X116592616Y-102463000D01*
X116947384Y-102463000D01*
X117295331Y-102532211D01*
X117295331Y-102532211D01*
G37*
G36*
X107695331Y-102532211D02*
X108023092Y-102667974D01*
X108318073Y-102865074D01*
X108568926Y-103115927D01*
X108766026Y-103410908D01*
X108901789Y-103738669D01*
X108971000Y-104086616D01*
X108971000Y-104441384D01*
X108901789Y-104789331D01*
X108766026Y-105117092D01*
X108568926Y-105412073D01*
X108318073Y-105662926D01*
X108023092Y-105860026D01*
X107695331Y-105995789D01*
X107347384Y-106065000D01*
X106992616Y-106065000D01*
X106644669Y-105995789D01*
X106316908Y-105860026D01*
X106021927Y-105662926D01*
X105771074Y-105412073D01*
X105573974Y-105117092D01*
X105438211Y-104789331D01*
X105369000Y-104441384D01*
X105369000Y-104086616D01*
X105438211Y-103738669D01*
X105573974Y-103410908D01*
X105771074Y-103115927D01*
X106021927Y-102865074D01*
X106316908Y-102667974D01*
X106644669Y-102532211D01*
X106992616Y-102463000D01*
X107347384Y-102463000D01*
X107695331Y-102532211D01*
X107695331Y-102532211D01*
G37*
G36*
X122895331Y-102532211D02*
X123223092Y-102667974D01*
X123518073Y-102865074D01*
X123768926Y-103115927D01*
X123966026Y-103410908D01*
X124101789Y-103738669D01*
X124171000Y-104086616D01*
X124171000Y-104441384D01*
X124101789Y-104789331D01*
X123966026Y-105117092D01*
X123768926Y-105412073D01*
X123518073Y-105662926D01*
X123223092Y-105860026D01*
X122895331Y-105995789D01*
X122547384Y-106065000D01*
X122192616Y-106065000D01*
X121844669Y-105995789D01*
X121516908Y-105860026D01*
X121221927Y-105662926D01*
X120971074Y-105412073D01*
X120773974Y-105117092D01*
X120638211Y-104789331D01*
X120569000Y-104441384D01*
X120569000Y-104086616D01*
X120638211Y-103738669D01*
X120773974Y-103410908D01*
X120971074Y-103115927D01*
X121221927Y-102865074D01*
X121516908Y-102667974D01*
X121844669Y-102532211D01*
X122192616Y-102463000D01*
X122547384Y-102463000D01*
X122895331Y-102532211D01*
X122895331Y-102532211D01*
G37*
G36*
X132495331Y-102532211D02*
X132823092Y-102667974D01*
X133118073Y-102865074D01*
X133368926Y-103115927D01*
X133566026Y-103410908D01*
X133701789Y-103738669D01*
X133771000Y-104086616D01*
X133771000Y-104441384D01*
X133701789Y-104789331D01*
X133566026Y-105117092D01*
X133368926Y-105412073D01*
X133118073Y-105662926D01*
X132823092Y-105860026D01*
X132495331Y-105995789D01*
X132147384Y-106065000D01*
X131792616Y-106065000D01*
X131444669Y-105995789D01*
X131116908Y-105860026D01*
X130821927Y-105662926D01*
X130571074Y-105412073D01*
X130373974Y-105117092D01*
X130238211Y-104789331D01*
X130169000Y-104441384D01*
X130169000Y-104086616D01*
X130238211Y-103738669D01*
X130373974Y-103410908D01*
X130571074Y-103115927D01*
X130821927Y-102865074D01*
X131116908Y-102667974D01*
X131444669Y-102532211D01*
X131792616Y-102463000D01*
X132147384Y-102463000D01*
X132495331Y-102532211D01*
X132495331Y-102532211D01*
G37*
G36*
X147695331Y-102532211D02*
X148023092Y-102667974D01*
X148318073Y-102865074D01*
X148568926Y-103115927D01*
X148766026Y-103410908D01*
X148901789Y-103738669D01*
X148971000Y-104086616D01*
X148971000Y-104441384D01*
X148901789Y-104789331D01*
X148766026Y-105117092D01*
X148568926Y-105412073D01*
X148318073Y-105662926D01*
X148023092Y-105860026D01*
X147695331Y-105995789D01*
X147347384Y-106065000D01*
X146992616Y-106065000D01*
X146644669Y-105995789D01*
X146316908Y-105860026D01*
X146021927Y-105662926D01*
X145771074Y-105412073D01*
X145573974Y-105117092D01*
X145438211Y-104789331D01*
X145369000Y-104441384D01*
X145369000Y-104086616D01*
X145438211Y-103738669D01*
X145573974Y-103410908D01*
X145771074Y-103115927D01*
X146021927Y-102865074D01*
X146316908Y-102667974D01*
X146644669Y-102532211D01*
X146992616Y-102463000D01*
X147347384Y-102463000D01*
X147695331Y-102532211D01*
X147695331Y-102532211D01*
G37*
G36*
X157727025Y-96224590D02*
X157878012Y-96270392D01*
X158017165Y-96344770D01*
X158139133Y-96444867D01*
X158239230Y-96566835D01*
X158313608Y-96705988D01*
X158359410Y-96856975D01*
X158371000Y-96974654D01*
X158371000Y-97553346D01*
X158359410Y-97671025D01*
X158313608Y-97822012D01*
X158239230Y-97961165D01*
X158139136Y-98083130D01*
X158139134Y-98083131D01*
X158139133Y-98083133D01*
X158139129Y-98083136D01*
X158017161Y-98183232D01*
X157878011Y-98257608D01*
X157727024Y-98303410D01*
X157570000Y-98318875D01*
X157412975Y-98303410D01*
X157261988Y-98257608D01*
X157122835Y-98183230D01*
X157000870Y-98083136D01*
X157000869Y-98083134D01*
X157000867Y-98083133D01*
X156950819Y-98022148D01*
X156900768Y-97961161D01*
X156826392Y-97822011D01*
X156780590Y-97671024D01*
X156769000Y-97553345D01*
X156769000Y-96974654D01*
X156780590Y-96856975D01*
X156803491Y-96781482D01*
X156826392Y-96705988D01*
X156900771Y-96566835D01*
X157000868Y-96444867D01*
X157122836Y-96344770D01*
X157261989Y-96270392D01*
X157412976Y-96224590D01*
X157570000Y-96209125D01*
X157727025Y-96224590D01*
X157727025Y-96224590D01*
G37*
G36*
X160227025Y-96224590D02*
X160378012Y-96270392D01*
X160517165Y-96344770D01*
X160639133Y-96444867D01*
X160739230Y-96566835D01*
X160813608Y-96705988D01*
X160859410Y-96856975D01*
X160871000Y-96974654D01*
X160871000Y-97553346D01*
X160859410Y-97671025D01*
X160813608Y-97822012D01*
X160739230Y-97961165D01*
X160639136Y-98083130D01*
X160639134Y-98083131D01*
X160639133Y-98083133D01*
X160639129Y-98083136D01*
X160517161Y-98183232D01*
X160378011Y-98257608D01*
X160227024Y-98303410D01*
X160070000Y-98318875D01*
X159912975Y-98303410D01*
X159761988Y-98257608D01*
X159622835Y-98183230D01*
X159500870Y-98083136D01*
X159500869Y-98083134D01*
X159500867Y-98083133D01*
X159450819Y-98022148D01*
X159400768Y-97961161D01*
X159326392Y-97822011D01*
X159280590Y-97671024D01*
X159269000Y-97553345D01*
X159269000Y-96974654D01*
X159280590Y-96856975D01*
X159303491Y-96781482D01*
X159326392Y-96705988D01*
X159400771Y-96566835D01*
X159500868Y-96444867D01*
X159622836Y-96344770D01*
X159761989Y-96270392D01*
X159912976Y-96224590D01*
X160070000Y-96209125D01*
X160227025Y-96224590D01*
X160227025Y-96224590D01*
G37*
G36*
X155227025Y-96224590D02*
X155378012Y-96270392D01*
X155517165Y-96344770D01*
X155639133Y-96444867D01*
X155739230Y-96566835D01*
X155813608Y-96705988D01*
X155859410Y-96856975D01*
X155871000Y-96974654D01*
X155871000Y-97553346D01*
X155859410Y-97671025D01*
X155813608Y-97822012D01*
X155739230Y-97961165D01*
X155639136Y-98083130D01*
X155639134Y-98083131D01*
X155639133Y-98083133D01*
X155639129Y-98083136D01*
X155517161Y-98183232D01*
X155378011Y-98257608D01*
X155227024Y-98303410D01*
X155070000Y-98318875D01*
X154912975Y-98303410D01*
X154761988Y-98257608D01*
X154622835Y-98183230D01*
X154500870Y-98083136D01*
X154500869Y-98083134D01*
X154500867Y-98083133D01*
X154450819Y-98022148D01*
X154400768Y-97961161D01*
X154326392Y-97822011D01*
X154280590Y-97671024D01*
X154269000Y-97553345D01*
X154269000Y-96974654D01*
X154280590Y-96856975D01*
X154303491Y-96781482D01*
X154326392Y-96705988D01*
X154400771Y-96566835D01*
X154500868Y-96444867D01*
X154622836Y-96344770D01*
X154761989Y-96270392D01*
X154912976Y-96224590D01*
X155070000Y-96209125D01*
X155227025Y-96224590D01*
X155227025Y-96224590D01*
G37*
G36*
X140027025Y-96224590D02*
X140178012Y-96270392D01*
X140317165Y-96344770D01*
X140439133Y-96444867D01*
X140539230Y-96566835D01*
X140613608Y-96705988D01*
X140659410Y-96856975D01*
X140671000Y-96974654D01*
X140671000Y-97553346D01*
X140659410Y-97671025D01*
X140613608Y-97822012D01*
X140539230Y-97961165D01*
X140439136Y-98083130D01*
X140439134Y-98083131D01*
X140439133Y-98083133D01*
X140439129Y-98083136D01*
X140317161Y-98183232D01*
X140178011Y-98257608D01*
X140027024Y-98303410D01*
X139870000Y-98318875D01*
X139712975Y-98303410D01*
X139561988Y-98257608D01*
X139422835Y-98183230D01*
X139300870Y-98083136D01*
X139300869Y-98083134D01*
X139300867Y-98083133D01*
X139250819Y-98022148D01*
X139200768Y-97961161D01*
X139126392Y-97822011D01*
X139080590Y-97671024D01*
X139069000Y-97553345D01*
X139069000Y-96974654D01*
X139080590Y-96856975D01*
X139103491Y-96781482D01*
X139126392Y-96705988D01*
X139200771Y-96566835D01*
X139300868Y-96444867D01*
X139422836Y-96344770D01*
X139561989Y-96270392D01*
X139712976Y-96224590D01*
X139870000Y-96209125D01*
X140027025Y-96224590D01*
X140027025Y-96224590D01*
G37*
G36*
X170427025Y-96224590D02*
X170578012Y-96270392D01*
X170717165Y-96344770D01*
X170839133Y-96444867D01*
X170939230Y-96566835D01*
X171013608Y-96705988D01*
X171059410Y-96856975D01*
X171071000Y-96974654D01*
X171071000Y-97553346D01*
X171059410Y-97671025D01*
X171013608Y-97822012D01*
X170939230Y-97961165D01*
X170839136Y-98083130D01*
X170839134Y-98083131D01*
X170839133Y-98083133D01*
X170839129Y-98083136D01*
X170717161Y-98183232D01*
X170578011Y-98257608D01*
X170427024Y-98303410D01*
X170270000Y-98318875D01*
X170112975Y-98303410D01*
X169961988Y-98257608D01*
X169822835Y-98183230D01*
X169700870Y-98083136D01*
X169700869Y-98083134D01*
X169700867Y-98083133D01*
X169650819Y-98022148D01*
X169600768Y-97961161D01*
X169526392Y-97822011D01*
X169480590Y-97671024D01*
X169469000Y-97553345D01*
X169469000Y-96974654D01*
X169480590Y-96856975D01*
X169503491Y-96781482D01*
X169526392Y-96705988D01*
X169600771Y-96566835D01*
X169700868Y-96444867D01*
X169822836Y-96344770D01*
X169961989Y-96270392D01*
X170112976Y-96224590D01*
X170270000Y-96209125D01*
X170427025Y-96224590D01*
X170427025Y-96224590D01*
G37*
G36*
X172927025Y-96224590D02*
X173078012Y-96270392D01*
X173217165Y-96344770D01*
X173339133Y-96444867D01*
X173439230Y-96566835D01*
X173513608Y-96705988D01*
X173559410Y-96856975D01*
X173571000Y-96974654D01*
X173571000Y-97553346D01*
X173559410Y-97671025D01*
X173513608Y-97822012D01*
X173439230Y-97961165D01*
X173339136Y-98083130D01*
X173339134Y-98083131D01*
X173339133Y-98083133D01*
X173339129Y-98083136D01*
X173217161Y-98183232D01*
X173078011Y-98257608D01*
X172927024Y-98303410D01*
X172770000Y-98318875D01*
X172612975Y-98303410D01*
X172461988Y-98257608D01*
X172322835Y-98183230D01*
X172200870Y-98083136D01*
X172200869Y-98083134D01*
X172200867Y-98083133D01*
X172150819Y-98022148D01*
X172100768Y-97961161D01*
X172026392Y-97822011D01*
X171980590Y-97671024D01*
X171969000Y-97553345D01*
X171969000Y-96974654D01*
X171980590Y-96856975D01*
X172003491Y-96781482D01*
X172026392Y-96705988D01*
X172100771Y-96566835D01*
X172200868Y-96444867D01*
X172322836Y-96344770D01*
X172461989Y-96270392D01*
X172612976Y-96224590D01*
X172770000Y-96209125D01*
X172927025Y-96224590D01*
X172927025Y-96224590D01*
G37*
G36*
X175427025Y-96224590D02*
X175578012Y-96270392D01*
X175717165Y-96344770D01*
X175839133Y-96444867D01*
X175939230Y-96566835D01*
X176013608Y-96705988D01*
X176059410Y-96856975D01*
X176071000Y-96974654D01*
X176071000Y-97553346D01*
X176059410Y-97671025D01*
X176013608Y-97822012D01*
X175939230Y-97961165D01*
X175839136Y-98083130D01*
X175839134Y-98083131D01*
X175839133Y-98083133D01*
X175839129Y-98083136D01*
X175717161Y-98183232D01*
X175578011Y-98257608D01*
X175427024Y-98303410D01*
X175270000Y-98318875D01*
X175112975Y-98303410D01*
X174961988Y-98257608D01*
X174822835Y-98183230D01*
X174700870Y-98083136D01*
X174700869Y-98083134D01*
X174700867Y-98083133D01*
X174650819Y-98022148D01*
X174600768Y-97961161D01*
X174526392Y-97822011D01*
X174480590Y-97671024D01*
X174469000Y-97553345D01*
X174469000Y-96974654D01*
X174480590Y-96856975D01*
X174503491Y-96781482D01*
X174526392Y-96705988D01*
X174600771Y-96566835D01*
X174700868Y-96444867D01*
X174822836Y-96344770D01*
X174961989Y-96270392D01*
X175112976Y-96224590D01*
X175270000Y-96209125D01*
X175427025Y-96224590D01*
X175427025Y-96224590D01*
G37*
G36*
X109627025Y-96224590D02*
X109778012Y-96270392D01*
X109917165Y-96344770D01*
X110039133Y-96444867D01*
X110139230Y-96566835D01*
X110213608Y-96705988D01*
X110259410Y-96856975D01*
X110271000Y-96974654D01*
X110271000Y-97553346D01*
X110259410Y-97671025D01*
X110213608Y-97822012D01*
X110139230Y-97961165D01*
X110039136Y-98083130D01*
X110039134Y-98083131D01*
X110039133Y-98083133D01*
X110039129Y-98083136D01*
X109917161Y-98183232D01*
X109778011Y-98257608D01*
X109627024Y-98303410D01*
X109470000Y-98318875D01*
X109312975Y-98303410D01*
X109161988Y-98257608D01*
X109022835Y-98183230D01*
X108900870Y-98083136D01*
X108900869Y-98083134D01*
X108900867Y-98083133D01*
X108850819Y-98022148D01*
X108800768Y-97961161D01*
X108726392Y-97822011D01*
X108680590Y-97671024D01*
X108669000Y-97553345D01*
X108669000Y-96974654D01*
X108680590Y-96856975D01*
X108703491Y-96781482D01*
X108726392Y-96705988D01*
X108800771Y-96566835D01*
X108900868Y-96444867D01*
X109022836Y-96344770D01*
X109161989Y-96270392D01*
X109312976Y-96224590D01*
X109470000Y-96209125D01*
X109627025Y-96224590D01*
X109627025Y-96224590D01*
G37*
G36*
X124827025Y-96224590D02*
X124978012Y-96270392D01*
X125117165Y-96344770D01*
X125239133Y-96444867D01*
X125339230Y-96566835D01*
X125413608Y-96705988D01*
X125459410Y-96856975D01*
X125471000Y-96974654D01*
X125471000Y-97553346D01*
X125459410Y-97671025D01*
X125413608Y-97822012D01*
X125339230Y-97961165D01*
X125239136Y-98083130D01*
X125239134Y-98083131D01*
X125239133Y-98083133D01*
X125239129Y-98083136D01*
X125117161Y-98183232D01*
X124978011Y-98257608D01*
X124827024Y-98303410D01*
X124670000Y-98318875D01*
X124512975Y-98303410D01*
X124361988Y-98257608D01*
X124222835Y-98183230D01*
X124100870Y-98083136D01*
X124100869Y-98083134D01*
X124100867Y-98083133D01*
X124050819Y-98022148D01*
X124000768Y-97961161D01*
X123926392Y-97822011D01*
X123880590Y-97671024D01*
X123869000Y-97553345D01*
X123869000Y-96974654D01*
X123880590Y-96856975D01*
X123903491Y-96781482D01*
X123926392Y-96705988D01*
X124000771Y-96566835D01*
X124100868Y-96444867D01*
X124222836Y-96344770D01*
X124361989Y-96270392D01*
X124512976Y-96224590D01*
X124670000Y-96209125D01*
X124827025Y-96224590D01*
X124827025Y-96224590D01*
G37*
G36*
X127327025Y-96224590D02*
X127478012Y-96270392D01*
X127617165Y-96344770D01*
X127739133Y-96444867D01*
X127839230Y-96566835D01*
X127913608Y-96705988D01*
X127959410Y-96856975D01*
X127971000Y-96974654D01*
X127971000Y-97553346D01*
X127959410Y-97671025D01*
X127913608Y-97822012D01*
X127839230Y-97961165D01*
X127739136Y-98083130D01*
X127739134Y-98083131D01*
X127739133Y-98083133D01*
X127739129Y-98083136D01*
X127617161Y-98183232D01*
X127478011Y-98257608D01*
X127327024Y-98303410D01*
X127170000Y-98318875D01*
X127012975Y-98303410D01*
X126861988Y-98257608D01*
X126722835Y-98183230D01*
X126600870Y-98083136D01*
X126600869Y-98083134D01*
X126600867Y-98083133D01*
X126550819Y-98022148D01*
X126500768Y-97961161D01*
X126426392Y-97822011D01*
X126380590Y-97671024D01*
X126369000Y-97553345D01*
X126369000Y-96974654D01*
X126380590Y-96856975D01*
X126403491Y-96781482D01*
X126426392Y-96705988D01*
X126500771Y-96566835D01*
X126600868Y-96444867D01*
X126722836Y-96344770D01*
X126861989Y-96270392D01*
X127012976Y-96224590D01*
X127170000Y-96209125D01*
X127327025Y-96224590D01*
X127327025Y-96224590D01*
G37*
G36*
X129827025Y-96224590D02*
X129978012Y-96270392D01*
X130117165Y-96344770D01*
X130239133Y-96444867D01*
X130339230Y-96566835D01*
X130413608Y-96705988D01*
X130459410Y-96856975D01*
X130471000Y-96974654D01*
X130471000Y-97553346D01*
X130459410Y-97671025D01*
X130413608Y-97822012D01*
X130339230Y-97961165D01*
X130239136Y-98083130D01*
X130239134Y-98083131D01*
X130239133Y-98083133D01*
X130239129Y-98083136D01*
X130117161Y-98183232D01*
X129978011Y-98257608D01*
X129827024Y-98303410D01*
X129670000Y-98318875D01*
X129512975Y-98303410D01*
X129361988Y-98257608D01*
X129222835Y-98183230D01*
X129100870Y-98083136D01*
X129100869Y-98083134D01*
X129100867Y-98083133D01*
X129050819Y-98022148D01*
X129000768Y-97961161D01*
X128926392Y-97822011D01*
X128880590Y-97671024D01*
X128869000Y-97553345D01*
X128869000Y-96974654D01*
X128880590Y-96856975D01*
X128903491Y-96781482D01*
X128926392Y-96705988D01*
X129000771Y-96566835D01*
X129100868Y-96444867D01*
X129222836Y-96344770D01*
X129361989Y-96270392D01*
X129512976Y-96224590D01*
X129670000Y-96209125D01*
X129827025Y-96224590D01*
X129827025Y-96224590D01*
G37*
G36*
X145027025Y-96224590D02*
X145178012Y-96270392D01*
X145317165Y-96344770D01*
X145439133Y-96444867D01*
X145539230Y-96566835D01*
X145613608Y-96705988D01*
X145659410Y-96856975D01*
X145671000Y-96974654D01*
X145671000Y-97553346D01*
X145659410Y-97671025D01*
X145613608Y-97822012D01*
X145539230Y-97961165D01*
X145439136Y-98083130D01*
X145439134Y-98083131D01*
X145439133Y-98083133D01*
X145439129Y-98083136D01*
X145317161Y-98183232D01*
X145178011Y-98257608D01*
X145027024Y-98303410D01*
X144870000Y-98318875D01*
X144712975Y-98303410D01*
X144561988Y-98257608D01*
X144422835Y-98183230D01*
X144300870Y-98083136D01*
X144300869Y-98083134D01*
X144300867Y-98083133D01*
X144250819Y-98022148D01*
X144200768Y-97961161D01*
X144126392Y-97822011D01*
X144080590Y-97671024D01*
X144069000Y-97553345D01*
X144069000Y-96974654D01*
X144080590Y-96856975D01*
X144103491Y-96781482D01*
X144126392Y-96705988D01*
X144200771Y-96566835D01*
X144300868Y-96444867D01*
X144422836Y-96344770D01*
X144561989Y-96270392D01*
X144712976Y-96224590D01*
X144870000Y-96209125D01*
X145027025Y-96224590D01*
X145027025Y-96224590D01*
G37*
G36*
X112127025Y-96224590D02*
X112278012Y-96270392D01*
X112417165Y-96344770D01*
X112539133Y-96444867D01*
X112639230Y-96566835D01*
X112713608Y-96705988D01*
X112759410Y-96856975D01*
X112771000Y-96974654D01*
X112771000Y-97553346D01*
X112759410Y-97671025D01*
X112713608Y-97822012D01*
X112639230Y-97961165D01*
X112539136Y-98083130D01*
X112539134Y-98083131D01*
X112539133Y-98083133D01*
X112539129Y-98083136D01*
X112417161Y-98183232D01*
X112278011Y-98257608D01*
X112127024Y-98303410D01*
X111970000Y-98318875D01*
X111812975Y-98303410D01*
X111661988Y-98257608D01*
X111522835Y-98183230D01*
X111400870Y-98083136D01*
X111400869Y-98083134D01*
X111400867Y-98083133D01*
X111350819Y-98022148D01*
X111300768Y-97961161D01*
X111226392Y-97822011D01*
X111180590Y-97671024D01*
X111169000Y-97553345D01*
X111169000Y-96974654D01*
X111180590Y-96856975D01*
X111203491Y-96781482D01*
X111226392Y-96705988D01*
X111300771Y-96566835D01*
X111400868Y-96444867D01*
X111522836Y-96344770D01*
X111661989Y-96270392D01*
X111812976Y-96224590D01*
X111970000Y-96209125D01*
X112127025Y-96224590D01*
X112127025Y-96224590D01*
G37*
G36*
X142527025Y-96224590D02*
X142678012Y-96270392D01*
X142817165Y-96344770D01*
X142939133Y-96444867D01*
X143039230Y-96566835D01*
X143113608Y-96705988D01*
X143159410Y-96856975D01*
X143171000Y-96974654D01*
X143171000Y-97553346D01*
X143159410Y-97671025D01*
X143113608Y-97822012D01*
X143039230Y-97961165D01*
X142939136Y-98083130D01*
X142939134Y-98083131D01*
X142939133Y-98083133D01*
X142939129Y-98083136D01*
X142817161Y-98183232D01*
X142678011Y-98257608D01*
X142527024Y-98303410D01*
X142370000Y-98318875D01*
X142212975Y-98303410D01*
X142061988Y-98257608D01*
X141922835Y-98183230D01*
X141800870Y-98083136D01*
X141800869Y-98083134D01*
X141800867Y-98083133D01*
X141750819Y-98022148D01*
X141700768Y-97961161D01*
X141626392Y-97822011D01*
X141580590Y-97671024D01*
X141569000Y-97553345D01*
X141569000Y-96974654D01*
X141580590Y-96856975D01*
X141603491Y-96781482D01*
X141626392Y-96705988D01*
X141700771Y-96566835D01*
X141800868Y-96444867D01*
X141922836Y-96344770D01*
X142061989Y-96270392D01*
X142212976Y-96224590D01*
X142370000Y-96209125D01*
X142527025Y-96224590D01*
X142527025Y-96224590D01*
G37*
G36*
X114627025Y-96224590D02*
X114778012Y-96270392D01*
X114917165Y-96344770D01*
X115039133Y-96444867D01*
X115139230Y-96566835D01*
X115213608Y-96705988D01*
X115259410Y-96856975D01*
X115271000Y-96974654D01*
X115271000Y-97553346D01*
X115259410Y-97671025D01*
X115213608Y-97822012D01*
X115139230Y-97961165D01*
X115039136Y-98083130D01*
X115039134Y-98083131D01*
X115039133Y-98083133D01*
X115039129Y-98083136D01*
X114917161Y-98183232D01*
X114778011Y-98257608D01*
X114627024Y-98303410D01*
X114470000Y-98318875D01*
X114312975Y-98303410D01*
X114161988Y-98257608D01*
X114022835Y-98183230D01*
X113900870Y-98083136D01*
X113900869Y-98083134D01*
X113900867Y-98083133D01*
X113850819Y-98022148D01*
X113800768Y-97961161D01*
X113726392Y-97822011D01*
X113680590Y-97671024D01*
X113669000Y-97553345D01*
X113669000Y-96974654D01*
X113680590Y-96856975D01*
X113703491Y-96781482D01*
X113726392Y-96705988D01*
X113800771Y-96566835D01*
X113900868Y-96444867D01*
X114022836Y-96344770D01*
X114161989Y-96270392D01*
X114312976Y-96224590D01*
X114470000Y-96209125D01*
X114627025Y-96224590D01*
X114627025Y-96224590D01*
G37*
G36*
X143881177Y-92417465D02*
X143918864Y-92428898D01*
X143953603Y-92447466D01*
X143984048Y-92472452D01*
X144009034Y-92502897D01*
X144027602Y-92537636D01*
X144039035Y-92575323D01*
X144043500Y-92620661D01*
X144043500Y-93707339D01*
X144039035Y-93752677D01*
X144027602Y-93790364D01*
X144009034Y-93825103D01*
X143984048Y-93855548D01*
X143953603Y-93880534D01*
X143918864Y-93899102D01*
X143881177Y-93910535D01*
X143835839Y-93915000D01*
X142999161Y-93915000D01*
X142953823Y-93910535D01*
X142916136Y-93899102D01*
X142881397Y-93880534D01*
X142850952Y-93855548D01*
X142825966Y-93825103D01*
X142807398Y-93790364D01*
X142795965Y-93752677D01*
X142791500Y-93707339D01*
X142791500Y-92620661D01*
X142795965Y-92575323D01*
X142807398Y-92537636D01*
X142825966Y-92502897D01*
X142850952Y-92472452D01*
X142881397Y-92447466D01*
X142916136Y-92428898D01*
X142953823Y-92417465D01*
X142999161Y-92413000D01*
X143835839Y-92413000D01*
X143881177Y-92417465D01*
X143881177Y-92417465D01*
G37*
G36*
X157031177Y-92417465D02*
X157068864Y-92428898D01*
X157103603Y-92447466D01*
X157134048Y-92472452D01*
X157159034Y-92502897D01*
X157177602Y-92537636D01*
X157189035Y-92575323D01*
X157193500Y-92620661D01*
X157193500Y-93707339D01*
X157189035Y-93752677D01*
X157177602Y-93790364D01*
X157159034Y-93825103D01*
X157134048Y-93855548D01*
X157103603Y-93880534D01*
X157068864Y-93899102D01*
X157031177Y-93910535D01*
X156985839Y-93915000D01*
X156149161Y-93915000D01*
X156103823Y-93910535D01*
X156066136Y-93899102D01*
X156031397Y-93880534D01*
X156000952Y-93855548D01*
X155975966Y-93825103D01*
X155957398Y-93790364D01*
X155945965Y-93752677D01*
X155941500Y-93707339D01*
X155941500Y-92620661D01*
X155945965Y-92575323D01*
X155957398Y-92537636D01*
X155975966Y-92502897D01*
X156000952Y-92472452D01*
X156031397Y-92447466D01*
X156066136Y-92428898D01*
X156103823Y-92417465D01*
X156149161Y-92413000D01*
X156985839Y-92413000D01*
X157031177Y-92417465D01*
X157031177Y-92417465D01*
G37*
G36*
X141831177Y-92417465D02*
X141868864Y-92428898D01*
X141903603Y-92447466D01*
X141934048Y-92472452D01*
X141959034Y-92502897D01*
X141977602Y-92537636D01*
X141989035Y-92575323D01*
X141993500Y-92620661D01*
X141993500Y-93707339D01*
X141989035Y-93752677D01*
X141977602Y-93790364D01*
X141959034Y-93825103D01*
X141934048Y-93855548D01*
X141903603Y-93880534D01*
X141868864Y-93899102D01*
X141831177Y-93910535D01*
X141785839Y-93915000D01*
X140949161Y-93915000D01*
X140903823Y-93910535D01*
X140866136Y-93899102D01*
X140831397Y-93880534D01*
X140800952Y-93855548D01*
X140775966Y-93825103D01*
X140757398Y-93790364D01*
X140745965Y-93752677D01*
X140741500Y-93707339D01*
X140741500Y-92620661D01*
X140745965Y-92575323D01*
X140757398Y-92537636D01*
X140775966Y-92502897D01*
X140800952Y-92472452D01*
X140831397Y-92447466D01*
X140866136Y-92428898D01*
X140903823Y-92417465D01*
X140949161Y-92413000D01*
X141785839Y-92413000D01*
X141831177Y-92417465D01*
X141831177Y-92417465D01*
G37*
G36*
X128681177Y-92417465D02*
X128718864Y-92428898D01*
X128753603Y-92447466D01*
X128784048Y-92472452D01*
X128809034Y-92502897D01*
X128827602Y-92537636D01*
X128839035Y-92575323D01*
X128843500Y-92620661D01*
X128843500Y-93707339D01*
X128839035Y-93752677D01*
X128827602Y-93790364D01*
X128809034Y-93825103D01*
X128784048Y-93855548D01*
X128753603Y-93880534D01*
X128718864Y-93899102D01*
X128681177Y-93910535D01*
X128635839Y-93915000D01*
X127799161Y-93915000D01*
X127753823Y-93910535D01*
X127716136Y-93899102D01*
X127681397Y-93880534D01*
X127650952Y-93855548D01*
X127625966Y-93825103D01*
X127607398Y-93790364D01*
X127595965Y-93752677D01*
X127591500Y-93707339D01*
X127591500Y-92620661D01*
X127595965Y-92575323D01*
X127607398Y-92537636D01*
X127625966Y-92502897D01*
X127650952Y-92472452D01*
X127681397Y-92447466D01*
X127716136Y-92428898D01*
X127753823Y-92417465D01*
X127799161Y-92413000D01*
X128635839Y-92413000D01*
X128681177Y-92417465D01*
X128681177Y-92417465D01*
G37*
G36*
X126631177Y-92417465D02*
X126668864Y-92428898D01*
X126703603Y-92447466D01*
X126734048Y-92472452D01*
X126759034Y-92502897D01*
X126777602Y-92537636D01*
X126789035Y-92575323D01*
X126793500Y-92620661D01*
X126793500Y-93707339D01*
X126789035Y-93752677D01*
X126777602Y-93790364D01*
X126759034Y-93825103D01*
X126734048Y-93855548D01*
X126703603Y-93880534D01*
X126668864Y-93899102D01*
X126631177Y-93910535D01*
X126585839Y-93915000D01*
X125749161Y-93915000D01*
X125703823Y-93910535D01*
X125666136Y-93899102D01*
X125631397Y-93880534D01*
X125600952Y-93855548D01*
X125575966Y-93825103D01*
X125557398Y-93790364D01*
X125545965Y-93752677D01*
X125541500Y-93707339D01*
X125541500Y-92620661D01*
X125545965Y-92575323D01*
X125557398Y-92537636D01*
X125575966Y-92502897D01*
X125600952Y-92472452D01*
X125631397Y-92447466D01*
X125666136Y-92428898D01*
X125703823Y-92417465D01*
X125749161Y-92413000D01*
X126585839Y-92413000D01*
X126631177Y-92417465D01*
X126631177Y-92417465D01*
G37*
G36*
X113481177Y-92417465D02*
X113518864Y-92428898D01*
X113553603Y-92447466D01*
X113584048Y-92472452D01*
X113609034Y-92502897D01*
X113627602Y-92537636D01*
X113639035Y-92575323D01*
X113643500Y-92620661D01*
X113643500Y-93707339D01*
X113639035Y-93752677D01*
X113627602Y-93790364D01*
X113609034Y-93825103D01*
X113584048Y-93855548D01*
X113553603Y-93880534D01*
X113518864Y-93899102D01*
X113481177Y-93910535D01*
X113435839Y-93915000D01*
X112599161Y-93915000D01*
X112553823Y-93910535D01*
X112516136Y-93899102D01*
X112481397Y-93880534D01*
X112450952Y-93855548D01*
X112425966Y-93825103D01*
X112407398Y-93790364D01*
X112395965Y-93752677D01*
X112391500Y-93707339D01*
X112391500Y-92620661D01*
X112395965Y-92575323D01*
X112407398Y-92537636D01*
X112425966Y-92502897D01*
X112450952Y-92472452D01*
X112481397Y-92447466D01*
X112516136Y-92428898D01*
X112553823Y-92417465D01*
X112599161Y-92413000D01*
X113435839Y-92413000D01*
X113481177Y-92417465D01*
X113481177Y-92417465D01*
G37*
G36*
X159081177Y-92417465D02*
X159118864Y-92428898D01*
X159153603Y-92447466D01*
X159184048Y-92472452D01*
X159209034Y-92502897D01*
X159227602Y-92537636D01*
X159239035Y-92575323D01*
X159243500Y-92620661D01*
X159243500Y-93707339D01*
X159239035Y-93752677D01*
X159227602Y-93790364D01*
X159209034Y-93825103D01*
X159184048Y-93855548D01*
X159153603Y-93880534D01*
X159118864Y-93899102D01*
X159081177Y-93910535D01*
X159035839Y-93915000D01*
X158199161Y-93915000D01*
X158153823Y-93910535D01*
X158116136Y-93899102D01*
X158081397Y-93880534D01*
X158050952Y-93855548D01*
X158025966Y-93825103D01*
X158007398Y-93790364D01*
X157995965Y-93752677D01*
X157991500Y-93707339D01*
X157991500Y-92620661D01*
X157995965Y-92575323D01*
X158007398Y-92537636D01*
X158025966Y-92502897D01*
X158050952Y-92472452D01*
X158081397Y-92447466D01*
X158116136Y-92428898D01*
X158153823Y-92417465D01*
X158199161Y-92413000D01*
X159035839Y-92413000D01*
X159081177Y-92417465D01*
X159081177Y-92417465D01*
G37*
G36*
X172231177Y-92417465D02*
X172268864Y-92428898D01*
X172303603Y-92447466D01*
X172334048Y-92472452D01*
X172359034Y-92502897D01*
X172377602Y-92537636D01*
X172389035Y-92575323D01*
X172393500Y-92620661D01*
X172393500Y-93707339D01*
X172389035Y-93752677D01*
X172377602Y-93790364D01*
X172359034Y-93825103D01*
X172334048Y-93855548D01*
X172303603Y-93880534D01*
X172268864Y-93899102D01*
X172231177Y-93910535D01*
X172185839Y-93915000D01*
X171349161Y-93915000D01*
X171303823Y-93910535D01*
X171266136Y-93899102D01*
X171231397Y-93880534D01*
X171200952Y-93855548D01*
X171175966Y-93825103D01*
X171157398Y-93790364D01*
X171145965Y-93752677D01*
X171141500Y-93707339D01*
X171141500Y-92620661D01*
X171145965Y-92575323D01*
X171157398Y-92537636D01*
X171175966Y-92502897D01*
X171200952Y-92472452D01*
X171231397Y-92447466D01*
X171266136Y-92428898D01*
X171303823Y-92417465D01*
X171349161Y-92413000D01*
X172185839Y-92413000D01*
X172231177Y-92417465D01*
X172231177Y-92417465D01*
G37*
G36*
X174281177Y-92417465D02*
X174318864Y-92428898D01*
X174353603Y-92447466D01*
X174384048Y-92472452D01*
X174409034Y-92502897D01*
X174427602Y-92537636D01*
X174439035Y-92575323D01*
X174443500Y-92620661D01*
X174443500Y-93707339D01*
X174439035Y-93752677D01*
X174427602Y-93790364D01*
X174409034Y-93825103D01*
X174384048Y-93855548D01*
X174353603Y-93880534D01*
X174318864Y-93899102D01*
X174281177Y-93910535D01*
X174235839Y-93915000D01*
X173399161Y-93915000D01*
X173353823Y-93910535D01*
X173316136Y-93899102D01*
X173281397Y-93880534D01*
X173250952Y-93855548D01*
X173225966Y-93825103D01*
X173207398Y-93790364D01*
X173195965Y-93752677D01*
X173191500Y-93707339D01*
X173191500Y-92620661D01*
X173195965Y-92575323D01*
X173207398Y-92537636D01*
X173225966Y-92502897D01*
X173250952Y-92472452D01*
X173281397Y-92447466D01*
X173316136Y-92428898D01*
X173353823Y-92417465D01*
X173399161Y-92413000D01*
X174235839Y-92413000D01*
X174281177Y-92417465D01*
X174281177Y-92417465D01*
G37*
G36*
X111431177Y-92417465D02*
X111468864Y-92428898D01*
X111503603Y-92447466D01*
X111534048Y-92472452D01*
X111559034Y-92502897D01*
X111577602Y-92537636D01*
X111589035Y-92575323D01*
X111593500Y-92620661D01*
X111593500Y-93707339D01*
X111589035Y-93752677D01*
X111577602Y-93790364D01*
X111559034Y-93825103D01*
X111534048Y-93855548D01*
X111503603Y-93880534D01*
X111468864Y-93899102D01*
X111431177Y-93910535D01*
X111385839Y-93915000D01*
X110549161Y-93915000D01*
X110503823Y-93910535D01*
X110466136Y-93899102D01*
X110431397Y-93880534D01*
X110400952Y-93855548D01*
X110375966Y-93825103D01*
X110357398Y-93790364D01*
X110345965Y-93752677D01*
X110341500Y-93707339D01*
X110341500Y-92620661D01*
X110345965Y-92575323D01*
X110357398Y-92537636D01*
X110375966Y-92502897D01*
X110400952Y-92472452D01*
X110431397Y-92447466D01*
X110466136Y-92428898D01*
X110503823Y-92417465D01*
X110549161Y-92413000D01*
X111385839Y-92413000D01*
X111431177Y-92417465D01*
X111431177Y-92417465D01*
G37*
G36*
X106737916Y-89007334D02*
X106846492Y-89040271D01*
X106946557Y-89093756D01*
X107034264Y-89165736D01*
X107106244Y-89253443D01*
X107159729Y-89353508D01*
X107192666Y-89462084D01*
X107203787Y-89575000D01*
X107192666Y-89687916D01*
X107159729Y-89796492D01*
X107106244Y-89896557D01*
X107034264Y-89984264D01*
X106946557Y-90056244D01*
X106846492Y-90109729D01*
X106737916Y-90142666D01*
X106653298Y-90151000D01*
X105746702Y-90151000D01*
X105662084Y-90142666D01*
X105553508Y-90109729D01*
X105453443Y-90056244D01*
X105365736Y-89984264D01*
X105293756Y-89896557D01*
X105240271Y-89796492D01*
X105207334Y-89687916D01*
X105196213Y-89575000D01*
X105207334Y-89462084D01*
X105240271Y-89353508D01*
X105293756Y-89253443D01*
X105365736Y-89165736D01*
X105453443Y-89093756D01*
X105553508Y-89040271D01*
X105662084Y-89007334D01*
X105746702Y-88999000D01*
X106653298Y-88999000D01*
X106737916Y-89007334D01*
X106737916Y-89007334D01*
G37*
G36*
X167282193Y-87147384D02*
X167518902Y-87245432D01*
X167731938Y-87387778D01*
X167913102Y-87568942D01*
X168055448Y-87781978D01*
X168153496Y-88018687D01*
X168203480Y-88269973D01*
X168203480Y-88526187D01*
X168153496Y-88777473D01*
X168055448Y-89014182D01*
X167913102Y-89227218D01*
X167731938Y-89408382D01*
X167518902Y-89550728D01*
X167282193Y-89648776D01*
X167030907Y-89698760D01*
X166774693Y-89698760D01*
X166523407Y-89648776D01*
X166286698Y-89550728D01*
X166073662Y-89408382D01*
X165892498Y-89227218D01*
X165750152Y-89014182D01*
X165652104Y-88777473D01*
X165602120Y-88526187D01*
X165602120Y-88269973D01*
X165652104Y-88018687D01*
X165750152Y-87781978D01*
X165892498Y-87568942D01*
X166073662Y-87387778D01*
X166286698Y-87245432D01*
X166523407Y-87147384D01*
X166774693Y-87097400D01*
X167030907Y-87097400D01*
X167282193Y-87147384D01*
X167282193Y-87147384D01*
G37*
G36*
X113979000Y-88953000D02*
X111877000Y-88953000D01*
X111877000Y-87351000D01*
X113979000Y-87351000D01*
X113979000Y-88953000D01*
X113979000Y-88953000D01*
G37*
G36*
X109206000Y-84324000D02*
X109208402Y-84348386D01*
X109215515Y-84371835D01*
X109227066Y-84393446D01*
X109242612Y-84412388D01*
X109261554Y-84427934D01*
X109283165Y-84439485D01*
X109306614Y-84446598D01*
X109331000Y-84449000D01*
X109601000Y-84449000D01*
X109601000Y-87551000D01*
X109331000Y-87551000D01*
X109306614Y-87553402D01*
X109283165Y-87560515D01*
X109261554Y-87572066D01*
X109242612Y-87587612D01*
X109227066Y-87606554D01*
X109215515Y-87628165D01*
X109208402Y-87651614D01*
X109206000Y-87676000D01*
X109206000Y-88946000D01*
X107654000Y-88946000D01*
X107654000Y-87694000D01*
X107974000Y-87694000D01*
X107998386Y-87691598D01*
X108021835Y-87684485D01*
X108043446Y-87672934D01*
X108062388Y-87657388D01*
X108077934Y-87638446D01*
X108089485Y-87616835D01*
X108096598Y-87593386D01*
X108099000Y-87569000D01*
X108099000Y-84431000D01*
X108096598Y-84406614D01*
X108089485Y-84383165D01*
X108077934Y-84361554D01*
X108062388Y-84342612D01*
X108043446Y-84327066D01*
X108021835Y-84315515D01*
X107998386Y-84308402D01*
X107974000Y-84306000D01*
X107654000Y-84306000D01*
X107654000Y-83054000D01*
X109206000Y-83054000D01*
X109206000Y-84324000D01*
X109206000Y-84324000D01*
G37*
G36*
X107201000Y-88051000D02*
X105199000Y-88051000D01*
X105199000Y-86199000D01*
X107201000Y-86199000D01*
X107201000Y-88051000D01*
X107201000Y-88051000D01*
G37*
G36*
X120279000Y-87803000D02*
X118177000Y-87803000D01*
X118177000Y-83901000D01*
X120279000Y-83901000D01*
X120279000Y-87803000D01*
X120279000Y-87803000D01*
G37*
G36*
X133262821Y-86029313D02*
X133262824Y-86029314D01*
X133262825Y-86029314D01*
X133423239Y-86077975D01*
X133423241Y-86077976D01*
X133423244Y-86077977D01*
X133571078Y-86156995D01*
X133700659Y-86263341D01*
X133807005Y-86392922D01*
X133886023Y-86540756D01*
X133886024Y-86540759D01*
X133886025Y-86540761D01*
X133920072Y-86653000D01*
X133934687Y-86701179D01*
X133951117Y-86868000D01*
X133934687Y-87034821D01*
X133934686Y-87034824D01*
X133934686Y-87034825D01*
X133899155Y-87151956D01*
X133886023Y-87195244D01*
X133807005Y-87343078D01*
X133700659Y-87472659D01*
X133571078Y-87579005D01*
X133423244Y-87658023D01*
X133423241Y-87658024D01*
X133423239Y-87658025D01*
X133262825Y-87706686D01*
X133262824Y-87706686D01*
X133262821Y-87706687D01*
X133137804Y-87719000D01*
X133054196Y-87719000D01*
X132929179Y-87706687D01*
X132929176Y-87706686D01*
X132929175Y-87706686D01*
X132768761Y-87658025D01*
X132768759Y-87658024D01*
X132768756Y-87658023D01*
X132620922Y-87579005D01*
X132491341Y-87472659D01*
X132384995Y-87343078D01*
X132305977Y-87195244D01*
X132292846Y-87151956D01*
X132257314Y-87034825D01*
X132257314Y-87034824D01*
X132257313Y-87034821D01*
X132240883Y-86868000D01*
X132257313Y-86701179D01*
X132271928Y-86653000D01*
X132305975Y-86540761D01*
X132305976Y-86540759D01*
X132305977Y-86540756D01*
X132384995Y-86392922D01*
X132491341Y-86263341D01*
X132620922Y-86156995D01*
X132768756Y-86077977D01*
X132768759Y-86077976D01*
X132768761Y-86077975D01*
X132929175Y-86029314D01*
X132929176Y-86029314D01*
X132929179Y-86029313D01*
X133054196Y-86017000D01*
X133137804Y-86017000D01*
X133262821Y-86029313D01*
X133262821Y-86029313D01*
G37*
G36*
X124454228Y-86049703D02*
X124609100Y-86113853D01*
X124748481Y-86206985D01*
X124867015Y-86325519D01*
X124960147Y-86464900D01*
X125024297Y-86619772D01*
X125057000Y-86784184D01*
X125057000Y-86951816D01*
X125024297Y-87116228D01*
X124960147Y-87271100D01*
X124867015Y-87410481D01*
X124748481Y-87529015D01*
X124609100Y-87622147D01*
X124454228Y-87686297D01*
X124289816Y-87719000D01*
X124122184Y-87719000D01*
X123957772Y-87686297D01*
X123802900Y-87622147D01*
X123663519Y-87529015D01*
X123544985Y-87410481D01*
X123451853Y-87271100D01*
X123387703Y-87116228D01*
X123355000Y-86951816D01*
X123355000Y-86784184D01*
X123387703Y-86619772D01*
X123451853Y-86464900D01*
X123544985Y-86325519D01*
X123663519Y-86206985D01*
X123802900Y-86113853D01*
X123957772Y-86049703D01*
X124122184Y-86017000D01*
X124289816Y-86017000D01*
X124454228Y-86049703D01*
X124454228Y-86049703D01*
G37*
G36*
X154852821Y-86029313D02*
X154852824Y-86029314D01*
X154852825Y-86029314D01*
X155013239Y-86077975D01*
X155013241Y-86077976D01*
X155013244Y-86077977D01*
X155161078Y-86156995D01*
X155290659Y-86263341D01*
X155397005Y-86392922D01*
X155476023Y-86540756D01*
X155476024Y-86540759D01*
X155476025Y-86540761D01*
X155510072Y-86653000D01*
X155524687Y-86701179D01*
X155541117Y-86868000D01*
X155524687Y-87034821D01*
X155524686Y-87034824D01*
X155524686Y-87034825D01*
X155489155Y-87151956D01*
X155476023Y-87195244D01*
X155397005Y-87343078D01*
X155290659Y-87472659D01*
X155161078Y-87579005D01*
X155013244Y-87658023D01*
X155013241Y-87658024D01*
X155013239Y-87658025D01*
X154852825Y-87706686D01*
X154852824Y-87706686D01*
X154852821Y-87706687D01*
X154727804Y-87719000D01*
X154644196Y-87719000D01*
X154519179Y-87706687D01*
X154519176Y-87706686D01*
X154519175Y-87706686D01*
X154358761Y-87658025D01*
X154358759Y-87658024D01*
X154358756Y-87658023D01*
X154210922Y-87579005D01*
X154081341Y-87472659D01*
X153974995Y-87343078D01*
X153895977Y-87195244D01*
X153882846Y-87151956D01*
X153847314Y-87034825D01*
X153847314Y-87034824D01*
X153847313Y-87034821D01*
X153830883Y-86868000D01*
X153847313Y-86701179D01*
X153861928Y-86653000D01*
X153895975Y-86540761D01*
X153895976Y-86540759D01*
X153895977Y-86540756D01*
X153974995Y-86392922D01*
X154081341Y-86263341D01*
X154210922Y-86156995D01*
X154358756Y-86077977D01*
X154358759Y-86077976D01*
X154358761Y-86077975D01*
X154519175Y-86029314D01*
X154519176Y-86029314D01*
X154519179Y-86029313D01*
X154644196Y-86017000D01*
X154727804Y-86017000D01*
X154852821Y-86029313D01*
X154852821Y-86029313D01*
G37*
G36*
X158154821Y-86029313D02*
X158154824Y-86029314D01*
X158154825Y-86029314D01*
X158315239Y-86077975D01*
X158315241Y-86077976D01*
X158315244Y-86077977D01*
X158463078Y-86156995D01*
X158592659Y-86263341D01*
X158699005Y-86392922D01*
X158778023Y-86540756D01*
X158778024Y-86540759D01*
X158778025Y-86540761D01*
X158812072Y-86653000D01*
X158826687Y-86701179D01*
X158843117Y-86868000D01*
X158826687Y-87034821D01*
X158826686Y-87034824D01*
X158826686Y-87034825D01*
X158791155Y-87151956D01*
X158778023Y-87195244D01*
X158699005Y-87343078D01*
X158592659Y-87472659D01*
X158463078Y-87579005D01*
X158315244Y-87658023D01*
X158315241Y-87658024D01*
X158315239Y-87658025D01*
X158154825Y-87706686D01*
X158154824Y-87706686D01*
X158154821Y-87706687D01*
X158029804Y-87719000D01*
X157946196Y-87719000D01*
X157821179Y-87706687D01*
X157821176Y-87706686D01*
X157821175Y-87706686D01*
X157660761Y-87658025D01*
X157660759Y-87658024D01*
X157660756Y-87658023D01*
X157512922Y-87579005D01*
X157383341Y-87472659D01*
X157276995Y-87343078D01*
X157197977Y-87195244D01*
X157184846Y-87151956D01*
X157149314Y-87034825D01*
X157149314Y-87034824D01*
X157149313Y-87034821D01*
X157132883Y-86868000D01*
X157149313Y-86701179D01*
X157163928Y-86653000D01*
X157197975Y-86540761D01*
X157197976Y-86540759D01*
X157197977Y-86540756D01*
X157276995Y-86392922D01*
X157383341Y-86263341D01*
X157512922Y-86156995D01*
X157660756Y-86077977D01*
X157660759Y-86077976D01*
X157660761Y-86077975D01*
X157821175Y-86029314D01*
X157821176Y-86029314D01*
X157821179Y-86029313D01*
X157946196Y-86017000D01*
X158029804Y-86017000D01*
X158154821Y-86029313D01*
X158154821Y-86029313D01*
G37*
G36*
X151042821Y-86029313D02*
X151042824Y-86029314D01*
X151042825Y-86029314D01*
X151203239Y-86077975D01*
X151203241Y-86077976D01*
X151203244Y-86077977D01*
X151351078Y-86156995D01*
X151480659Y-86263341D01*
X151587005Y-86392922D01*
X151666023Y-86540756D01*
X151666024Y-86540759D01*
X151666025Y-86540761D01*
X151700072Y-86653000D01*
X151714687Y-86701179D01*
X151731117Y-86868000D01*
X151714687Y-87034821D01*
X151714686Y-87034824D01*
X151714686Y-87034825D01*
X151679155Y-87151956D01*
X151666023Y-87195244D01*
X151587005Y-87343078D01*
X151480659Y-87472659D01*
X151351078Y-87579005D01*
X151203244Y-87658023D01*
X151203241Y-87658024D01*
X151203239Y-87658025D01*
X151042825Y-87706686D01*
X151042824Y-87706686D01*
X151042821Y-87706687D01*
X150917804Y-87719000D01*
X150834196Y-87719000D01*
X150709179Y-87706687D01*
X150709176Y-87706686D01*
X150709175Y-87706686D01*
X150548761Y-87658025D01*
X150548759Y-87658024D01*
X150548756Y-87658023D01*
X150400922Y-87579005D01*
X150271341Y-87472659D01*
X150164995Y-87343078D01*
X150085977Y-87195244D01*
X150072846Y-87151956D01*
X150037314Y-87034825D01*
X150037314Y-87034824D01*
X150037313Y-87034821D01*
X150020883Y-86868000D01*
X150037313Y-86701179D01*
X150051928Y-86653000D01*
X150085975Y-86540761D01*
X150085976Y-86540759D01*
X150085977Y-86540756D01*
X150164995Y-86392922D01*
X150271341Y-86263341D01*
X150400922Y-86156995D01*
X150548756Y-86077977D01*
X150548759Y-86077976D01*
X150548761Y-86077975D01*
X150709175Y-86029314D01*
X150709176Y-86029314D01*
X150709179Y-86029313D01*
X150834196Y-86017000D01*
X150917804Y-86017000D01*
X151042821Y-86029313D01*
X151042821Y-86029313D01*
G37*
G36*
X148502821Y-86029313D02*
X148502824Y-86029314D01*
X148502825Y-86029314D01*
X148663239Y-86077975D01*
X148663241Y-86077976D01*
X148663244Y-86077977D01*
X148811078Y-86156995D01*
X148940659Y-86263341D01*
X149047005Y-86392922D01*
X149126023Y-86540756D01*
X149126024Y-86540759D01*
X149126025Y-86540761D01*
X149160072Y-86653000D01*
X149174687Y-86701179D01*
X149191117Y-86868000D01*
X149174687Y-87034821D01*
X149174686Y-87034824D01*
X149174686Y-87034825D01*
X149139155Y-87151956D01*
X149126023Y-87195244D01*
X149047005Y-87343078D01*
X148940659Y-87472659D01*
X148811078Y-87579005D01*
X148663244Y-87658023D01*
X148663241Y-87658024D01*
X148663239Y-87658025D01*
X148502825Y-87706686D01*
X148502824Y-87706686D01*
X148502821Y-87706687D01*
X148377804Y-87719000D01*
X148294196Y-87719000D01*
X148169179Y-87706687D01*
X148169176Y-87706686D01*
X148169175Y-87706686D01*
X148008761Y-87658025D01*
X148008759Y-87658024D01*
X148008756Y-87658023D01*
X147860922Y-87579005D01*
X147731341Y-87472659D01*
X147624995Y-87343078D01*
X147545977Y-87195244D01*
X147532846Y-87151956D01*
X147497314Y-87034825D01*
X147497314Y-87034824D01*
X147497313Y-87034821D01*
X147480883Y-86868000D01*
X147497313Y-86701179D01*
X147511928Y-86653000D01*
X147545975Y-86540761D01*
X147545976Y-86540759D01*
X147545977Y-86540756D01*
X147624995Y-86392922D01*
X147731341Y-86263341D01*
X147860922Y-86156995D01*
X148008756Y-86077977D01*
X148008759Y-86077976D01*
X148008761Y-86077975D01*
X148169175Y-86029314D01*
X148169176Y-86029314D01*
X148169179Y-86029313D01*
X148294196Y-86017000D01*
X148377804Y-86017000D01*
X148502821Y-86029313D01*
X148502821Y-86029313D01*
G37*
G36*
X143422821Y-86029313D02*
X143422824Y-86029314D01*
X143422825Y-86029314D01*
X143583239Y-86077975D01*
X143583241Y-86077976D01*
X143583244Y-86077977D01*
X143731078Y-86156995D01*
X143860659Y-86263341D01*
X143967005Y-86392922D01*
X144046023Y-86540756D01*
X144046024Y-86540759D01*
X144046025Y-86540761D01*
X144080072Y-86653000D01*
X144094687Y-86701179D01*
X144111117Y-86868000D01*
X144094687Y-87034821D01*
X144094686Y-87034824D01*
X144094686Y-87034825D01*
X144059155Y-87151956D01*
X144046023Y-87195244D01*
X143967005Y-87343078D01*
X143860659Y-87472659D01*
X143731078Y-87579005D01*
X143583244Y-87658023D01*
X143583241Y-87658024D01*
X143583239Y-87658025D01*
X143422825Y-87706686D01*
X143422824Y-87706686D01*
X143422821Y-87706687D01*
X143297804Y-87719000D01*
X143214196Y-87719000D01*
X143089179Y-87706687D01*
X143089176Y-87706686D01*
X143089175Y-87706686D01*
X142928761Y-87658025D01*
X142928759Y-87658024D01*
X142928756Y-87658023D01*
X142780922Y-87579005D01*
X142651341Y-87472659D01*
X142544995Y-87343078D01*
X142465977Y-87195244D01*
X142452846Y-87151956D01*
X142417314Y-87034825D01*
X142417314Y-87034824D01*
X142417313Y-87034821D01*
X142400883Y-86868000D01*
X142417313Y-86701179D01*
X142431928Y-86653000D01*
X142465975Y-86540761D01*
X142465976Y-86540759D01*
X142465977Y-86540756D01*
X142544995Y-86392922D01*
X142651341Y-86263341D01*
X142780922Y-86156995D01*
X142928756Y-86077977D01*
X142928759Y-86077976D01*
X142928761Y-86077975D01*
X143089175Y-86029314D01*
X143089176Y-86029314D01*
X143089179Y-86029313D01*
X143214196Y-86017000D01*
X143297804Y-86017000D01*
X143422821Y-86029313D01*
X143422821Y-86029313D01*
G37*
G36*
X145962821Y-86029313D02*
X145962824Y-86029314D01*
X145962825Y-86029314D01*
X146123239Y-86077975D01*
X146123241Y-86077976D01*
X146123244Y-86077977D01*
X146271078Y-86156995D01*
X146400659Y-86263341D01*
X146507005Y-86392922D01*
X146586023Y-86540756D01*
X146586024Y-86540759D01*
X146586025Y-86540761D01*
X146620072Y-86653000D01*
X146634687Y-86701179D01*
X146651117Y-86868000D01*
X146634687Y-87034821D01*
X146634686Y-87034824D01*
X146634686Y-87034825D01*
X146599155Y-87151956D01*
X146586023Y-87195244D01*
X146507005Y-87343078D01*
X146400659Y-87472659D01*
X146271078Y-87579005D01*
X146123244Y-87658023D01*
X146123241Y-87658024D01*
X146123239Y-87658025D01*
X145962825Y-87706686D01*
X145962824Y-87706686D01*
X145962821Y-87706687D01*
X145837804Y-87719000D01*
X145754196Y-87719000D01*
X145629179Y-87706687D01*
X145629176Y-87706686D01*
X145629175Y-87706686D01*
X145468761Y-87658025D01*
X145468759Y-87658024D01*
X145468756Y-87658023D01*
X145320922Y-87579005D01*
X145191341Y-87472659D01*
X145084995Y-87343078D01*
X145005977Y-87195244D01*
X144992846Y-87151956D01*
X144957314Y-87034825D01*
X144957314Y-87034824D01*
X144957313Y-87034821D01*
X144940883Y-86868000D01*
X144957313Y-86701179D01*
X144971928Y-86653000D01*
X145005975Y-86540761D01*
X145005976Y-86540759D01*
X145005977Y-86540756D01*
X145084995Y-86392922D01*
X145191341Y-86263341D01*
X145320922Y-86156995D01*
X145468756Y-86077977D01*
X145468759Y-86077976D01*
X145468761Y-86077975D01*
X145629175Y-86029314D01*
X145629176Y-86029314D01*
X145629179Y-86029313D01*
X145754196Y-86017000D01*
X145837804Y-86017000D01*
X145962821Y-86029313D01*
X145962821Y-86029313D01*
G37*
G36*
X128867000Y-87719000D02*
X127165000Y-87719000D01*
X127165000Y-86017000D01*
X128867000Y-86017000D01*
X128867000Y-87719000D01*
X128867000Y-87719000D01*
G37*
G36*
X130722821Y-86029313D02*
X130722824Y-86029314D01*
X130722825Y-86029314D01*
X130883239Y-86077975D01*
X130883241Y-86077976D01*
X130883244Y-86077977D01*
X131031078Y-86156995D01*
X131160659Y-86263341D01*
X131267005Y-86392922D01*
X131346023Y-86540756D01*
X131346024Y-86540759D01*
X131346025Y-86540761D01*
X131380072Y-86653000D01*
X131394687Y-86701179D01*
X131411117Y-86868000D01*
X131394687Y-87034821D01*
X131394686Y-87034824D01*
X131394686Y-87034825D01*
X131359155Y-87151956D01*
X131346023Y-87195244D01*
X131267005Y-87343078D01*
X131160659Y-87472659D01*
X131031078Y-87579005D01*
X130883244Y-87658023D01*
X130883241Y-87658024D01*
X130883239Y-87658025D01*
X130722825Y-87706686D01*
X130722824Y-87706686D01*
X130722821Y-87706687D01*
X130597804Y-87719000D01*
X130514196Y-87719000D01*
X130389179Y-87706687D01*
X130389176Y-87706686D01*
X130389175Y-87706686D01*
X130228761Y-87658025D01*
X130228759Y-87658024D01*
X130228756Y-87658023D01*
X130080922Y-87579005D01*
X129951341Y-87472659D01*
X129844995Y-87343078D01*
X129765977Y-87195244D01*
X129752846Y-87151956D01*
X129717314Y-87034825D01*
X129717314Y-87034824D01*
X129717313Y-87034821D01*
X129700883Y-86868000D01*
X129717313Y-86701179D01*
X129731928Y-86653000D01*
X129765975Y-86540761D01*
X129765976Y-86540759D01*
X129765977Y-86540756D01*
X129844995Y-86392922D01*
X129951341Y-86263341D01*
X130080922Y-86156995D01*
X130228756Y-86077977D01*
X130228759Y-86077976D01*
X130228761Y-86077975D01*
X130389175Y-86029314D01*
X130389176Y-86029314D01*
X130389179Y-86029313D01*
X130514196Y-86017000D01*
X130597804Y-86017000D01*
X130722821Y-86029313D01*
X130722821Y-86029313D01*
G37*
G36*
X138342821Y-86029313D02*
X138342824Y-86029314D01*
X138342825Y-86029314D01*
X138503239Y-86077975D01*
X138503241Y-86077976D01*
X138503244Y-86077977D01*
X138651078Y-86156995D01*
X138780659Y-86263341D01*
X138887005Y-86392922D01*
X138966023Y-86540756D01*
X138966024Y-86540759D01*
X138966025Y-86540761D01*
X139000072Y-86653000D01*
X139014687Y-86701179D01*
X139031117Y-86868000D01*
X139014687Y-87034821D01*
X139014686Y-87034824D01*
X139014686Y-87034825D01*
X138979155Y-87151956D01*
X138966023Y-87195244D01*
X138887005Y-87343078D01*
X138780659Y-87472659D01*
X138651078Y-87579005D01*
X138503244Y-87658023D01*
X138503241Y-87658024D01*
X138503239Y-87658025D01*
X138342825Y-87706686D01*
X138342824Y-87706686D01*
X138342821Y-87706687D01*
X138217804Y-87719000D01*
X138134196Y-87719000D01*
X138009179Y-87706687D01*
X138009176Y-87706686D01*
X138009175Y-87706686D01*
X137848761Y-87658025D01*
X137848759Y-87658024D01*
X137848756Y-87658023D01*
X137700922Y-87579005D01*
X137571341Y-87472659D01*
X137464995Y-87343078D01*
X137385977Y-87195244D01*
X137372846Y-87151956D01*
X137337314Y-87034825D01*
X137337314Y-87034824D01*
X137337313Y-87034821D01*
X137320883Y-86868000D01*
X137337313Y-86701179D01*
X137351928Y-86653000D01*
X137385975Y-86540761D01*
X137385976Y-86540759D01*
X137385977Y-86540756D01*
X137464995Y-86392922D01*
X137571341Y-86263341D01*
X137700922Y-86156995D01*
X137848756Y-86077977D01*
X137848759Y-86077976D01*
X137848761Y-86077975D01*
X138009175Y-86029314D01*
X138009176Y-86029314D01*
X138009179Y-86029313D01*
X138134196Y-86017000D01*
X138217804Y-86017000D01*
X138342821Y-86029313D01*
X138342821Y-86029313D01*
G37*
G36*
X140882821Y-86029313D02*
X140882824Y-86029314D01*
X140882825Y-86029314D01*
X141043239Y-86077975D01*
X141043241Y-86077976D01*
X141043244Y-86077977D01*
X141191078Y-86156995D01*
X141320659Y-86263341D01*
X141427005Y-86392922D01*
X141506023Y-86540756D01*
X141506024Y-86540759D01*
X141506025Y-86540761D01*
X141540072Y-86653000D01*
X141554687Y-86701179D01*
X141571117Y-86868000D01*
X141554687Y-87034821D01*
X141554686Y-87034824D01*
X141554686Y-87034825D01*
X141519155Y-87151956D01*
X141506023Y-87195244D01*
X141427005Y-87343078D01*
X141320659Y-87472659D01*
X141191078Y-87579005D01*
X141043244Y-87658023D01*
X141043241Y-87658024D01*
X141043239Y-87658025D01*
X140882825Y-87706686D01*
X140882824Y-87706686D01*
X140882821Y-87706687D01*
X140757804Y-87719000D01*
X140674196Y-87719000D01*
X140549179Y-87706687D01*
X140549176Y-87706686D01*
X140549175Y-87706686D01*
X140388761Y-87658025D01*
X140388759Y-87658024D01*
X140388756Y-87658023D01*
X140240922Y-87579005D01*
X140111341Y-87472659D01*
X140004995Y-87343078D01*
X139925977Y-87195244D01*
X139912846Y-87151956D01*
X139877314Y-87034825D01*
X139877314Y-87034824D01*
X139877313Y-87034821D01*
X139860883Y-86868000D01*
X139877313Y-86701179D01*
X139891928Y-86653000D01*
X139925975Y-86540761D01*
X139925976Y-86540759D01*
X139925977Y-86540756D01*
X140004995Y-86392922D01*
X140111341Y-86263341D01*
X140240922Y-86156995D01*
X140388756Y-86077977D01*
X140388759Y-86077976D01*
X140388761Y-86077975D01*
X140549175Y-86029314D01*
X140549176Y-86029314D01*
X140549179Y-86029313D01*
X140674196Y-86017000D01*
X140757804Y-86017000D01*
X140882821Y-86029313D01*
X140882821Y-86029313D01*
G37*
G36*
X135802821Y-86029313D02*
X135802824Y-86029314D01*
X135802825Y-86029314D01*
X135963239Y-86077975D01*
X135963241Y-86077976D01*
X135963244Y-86077977D01*
X136111078Y-86156995D01*
X136240659Y-86263341D01*
X136347005Y-86392922D01*
X136426023Y-86540756D01*
X136426024Y-86540759D01*
X136426025Y-86540761D01*
X136460072Y-86653000D01*
X136474687Y-86701179D01*
X136491117Y-86868000D01*
X136474687Y-87034821D01*
X136474686Y-87034824D01*
X136474686Y-87034825D01*
X136439155Y-87151956D01*
X136426023Y-87195244D01*
X136347005Y-87343078D01*
X136240659Y-87472659D01*
X136111078Y-87579005D01*
X135963244Y-87658023D01*
X135963241Y-87658024D01*
X135963239Y-87658025D01*
X135802825Y-87706686D01*
X135802824Y-87706686D01*
X135802821Y-87706687D01*
X135677804Y-87719000D01*
X135594196Y-87719000D01*
X135469179Y-87706687D01*
X135469176Y-87706686D01*
X135469175Y-87706686D01*
X135308761Y-87658025D01*
X135308759Y-87658024D01*
X135308756Y-87658023D01*
X135160922Y-87579005D01*
X135031341Y-87472659D01*
X134924995Y-87343078D01*
X134845977Y-87195244D01*
X134832846Y-87151956D01*
X134797314Y-87034825D01*
X134797314Y-87034824D01*
X134797313Y-87034821D01*
X134780883Y-86868000D01*
X134797313Y-86701179D01*
X134811928Y-86653000D01*
X134845975Y-86540761D01*
X134845976Y-86540759D01*
X134845977Y-86540756D01*
X134924995Y-86392922D01*
X135031341Y-86263341D01*
X135160922Y-86156995D01*
X135308756Y-86077977D01*
X135308759Y-86077976D01*
X135308761Y-86077975D01*
X135469175Y-86029314D01*
X135469176Y-86029314D01*
X135469179Y-86029313D01*
X135594196Y-86017000D01*
X135677804Y-86017000D01*
X135802821Y-86029313D01*
X135802821Y-86029313D01*
G37*
G36*
X177277093Y-84650564D02*
X177513802Y-84748612D01*
X177726838Y-84890958D01*
X177908002Y-85072122D01*
X178050348Y-85285158D01*
X178148396Y-85521867D01*
X178198380Y-85773153D01*
X178198380Y-86029367D01*
X178148396Y-86280653D01*
X178050348Y-86517362D01*
X177908002Y-86730398D01*
X177726838Y-86911562D01*
X177513802Y-87053908D01*
X177277093Y-87151956D01*
X177025807Y-87201940D01*
X176769593Y-87201940D01*
X176518307Y-87151956D01*
X176281598Y-87053908D01*
X176068562Y-86911562D01*
X175887398Y-86730398D01*
X175745052Y-86517362D01*
X175647004Y-86280653D01*
X175597020Y-86029367D01*
X175597020Y-85773153D01*
X175647004Y-85521867D01*
X175745052Y-85285158D01*
X175887398Y-85072122D01*
X176068562Y-84890958D01*
X176281598Y-84748612D01*
X176518307Y-84650564D01*
X176769593Y-84600580D01*
X177025807Y-84600580D01*
X177277093Y-84650564D01*
X177277093Y-84650564D01*
G37*
G36*
X164780293Y-84645484D02*
X165017002Y-84743532D01*
X165230038Y-84885878D01*
X165411202Y-85067042D01*
X165553548Y-85280078D01*
X165651596Y-85516787D01*
X165701580Y-85768073D01*
X165701580Y-86024287D01*
X165651596Y-86275573D01*
X165553548Y-86512282D01*
X165411202Y-86725318D01*
X165230038Y-86906482D01*
X165017002Y-87048828D01*
X164780293Y-87146876D01*
X164529007Y-87196860D01*
X164272793Y-87196860D01*
X164021507Y-87146876D01*
X163784798Y-87048828D01*
X163571762Y-86906482D01*
X163390598Y-86725318D01*
X163248252Y-86512282D01*
X163150204Y-86275573D01*
X163100220Y-86024287D01*
X163100220Y-85768073D01*
X163150204Y-85516787D01*
X163248252Y-85280078D01*
X163390598Y-85067042D01*
X163571762Y-84885878D01*
X163784798Y-84743532D01*
X164021507Y-84645484D01*
X164272793Y-84595500D01*
X164529007Y-84595500D01*
X164780293Y-84645484D01*
X164780293Y-84645484D01*
G37*
G36*
X113979000Y-86653000D02*
X111877000Y-86653000D01*
X111877000Y-85051000D01*
X113979000Y-85051000D01*
X113979000Y-86653000D01*
X113979000Y-86653000D01*
G37*
G36*
X107201000Y-85801000D02*
X105199000Y-85801000D01*
X105199000Y-83949000D01*
X107201000Y-83949000D01*
X107201000Y-85801000D01*
X107201000Y-85801000D01*
G37*
G36*
X113979000Y-84353000D02*
X111877000Y-84353000D01*
X111877000Y-82751000D01*
X113979000Y-82751000D01*
X113979000Y-84353000D01*
X113979000Y-84353000D01*
G37*
G36*
X106737916Y-81857334D02*
X106846492Y-81890271D01*
X106946557Y-81943756D01*
X107034264Y-82015736D01*
X107106244Y-82103443D01*
X107159729Y-82203508D01*
X107192666Y-82312084D01*
X107203787Y-82425000D01*
X107192666Y-82537916D01*
X107159729Y-82646492D01*
X107106244Y-82746557D01*
X107034264Y-82834264D01*
X106946557Y-82906244D01*
X106846492Y-82959729D01*
X106737916Y-82992666D01*
X106653298Y-83001000D01*
X105746702Y-83001000D01*
X105662084Y-82992666D01*
X105553508Y-82959729D01*
X105453443Y-82906244D01*
X105365736Y-82834264D01*
X105293756Y-82746557D01*
X105240271Y-82646492D01*
X105207334Y-82537916D01*
X105196213Y-82425000D01*
X105207334Y-82312084D01*
X105240271Y-82203508D01*
X105293756Y-82103443D01*
X105365736Y-82015736D01*
X105453443Y-81943756D01*
X105553508Y-81890271D01*
X105662084Y-81857334D01*
X105746702Y-81849000D01*
X106653298Y-81849000D01*
X106737916Y-81857334D01*
X106737916Y-81857334D01*
G37*
G36*
X167279653Y-79649304D02*
X167516362Y-79747352D01*
X167729398Y-79889698D01*
X167910562Y-80070862D01*
X168052908Y-80283898D01*
X168150956Y-80520607D01*
X168200940Y-80771893D01*
X168200940Y-81028107D01*
X168150956Y-81279393D01*
X168052908Y-81516102D01*
X167910562Y-81729138D01*
X167729398Y-81910302D01*
X167516362Y-82052648D01*
X167279653Y-82150696D01*
X167028367Y-82200680D01*
X166772153Y-82200680D01*
X166520867Y-82150696D01*
X166284158Y-82052648D01*
X166071122Y-81910302D01*
X165889958Y-81729138D01*
X165747612Y-81516102D01*
X165649564Y-81279393D01*
X165599580Y-81028107D01*
X165599580Y-80771893D01*
X165649564Y-80520607D01*
X165747612Y-80283898D01*
X165889958Y-80070862D01*
X166071122Y-79889698D01*
X166284158Y-79747352D01*
X166520867Y-79649304D01*
X166772153Y-79599320D01*
X167028367Y-79599320D01*
X167279653Y-79649304D01*
X167279653Y-79649304D01*
G37*
G36*
X158236228Y-78429703D02*
X158391100Y-78493853D01*
X158530481Y-78586985D01*
X158649015Y-78705519D01*
X158742147Y-78844900D01*
X158806297Y-78999772D01*
X158839000Y-79164184D01*
X158839000Y-79331816D01*
X158806297Y-79496228D01*
X158742147Y-79651100D01*
X158649015Y-79790481D01*
X158530481Y-79909015D01*
X158391100Y-80002147D01*
X158236228Y-80066297D01*
X158071816Y-80099000D01*
X157904184Y-80099000D01*
X157739772Y-80066297D01*
X157584900Y-80002147D01*
X157445519Y-79909015D01*
X157326985Y-79790481D01*
X157233853Y-79651100D01*
X157169703Y-79496228D01*
X157137000Y-79331816D01*
X157137000Y-79164184D01*
X157169703Y-78999772D01*
X157233853Y-78844900D01*
X157326985Y-78705519D01*
X157445519Y-78586985D01*
X157584900Y-78493853D01*
X157739772Y-78429703D01*
X157904184Y-78397000D01*
X158071816Y-78397000D01*
X158236228Y-78429703D01*
X158236228Y-78429703D01*
G37*
G36*
X154934228Y-78429703D02*
X155089100Y-78493853D01*
X155228481Y-78586985D01*
X155347015Y-78705519D01*
X155440147Y-78844900D01*
X155504297Y-78999772D01*
X155537000Y-79164184D01*
X155537000Y-79331816D01*
X155504297Y-79496228D01*
X155440147Y-79651100D01*
X155347015Y-79790481D01*
X155228481Y-79909015D01*
X155089100Y-80002147D01*
X154934228Y-80066297D01*
X154769816Y-80099000D01*
X154602184Y-80099000D01*
X154437772Y-80066297D01*
X154282900Y-80002147D01*
X154143519Y-79909015D01*
X154024985Y-79790481D01*
X153931853Y-79651100D01*
X153867703Y-79496228D01*
X153835000Y-79331816D01*
X153835000Y-79164184D01*
X153867703Y-78999772D01*
X153931853Y-78844900D01*
X154024985Y-78705519D01*
X154143519Y-78586985D01*
X154282900Y-78493853D01*
X154437772Y-78429703D01*
X154602184Y-78397000D01*
X154769816Y-78397000D01*
X154934228Y-78429703D01*
X154934228Y-78429703D01*
G37*
G36*
X148502821Y-78409313D02*
X148502824Y-78409314D01*
X148502825Y-78409314D01*
X148663239Y-78457975D01*
X148663241Y-78457976D01*
X148663244Y-78457977D01*
X148811078Y-78536995D01*
X148940659Y-78643341D01*
X149047005Y-78772922D01*
X149126023Y-78920756D01*
X149126024Y-78920759D01*
X149126025Y-78920761D01*
X149154971Y-79016184D01*
X149174687Y-79081179D01*
X149191117Y-79248000D01*
X149174687Y-79414821D01*
X149174686Y-79414824D01*
X149174686Y-79414825D01*
X149149993Y-79496228D01*
X149126023Y-79575244D01*
X149047005Y-79723078D01*
X148940659Y-79852659D01*
X148811078Y-79959005D01*
X148663244Y-80038023D01*
X148663241Y-80038024D01*
X148663239Y-80038025D01*
X148502825Y-80086686D01*
X148502824Y-80086686D01*
X148502821Y-80086687D01*
X148377804Y-80099000D01*
X148294196Y-80099000D01*
X148169179Y-80086687D01*
X148169176Y-80086686D01*
X148169175Y-80086686D01*
X148008761Y-80038025D01*
X148008759Y-80038024D01*
X148008756Y-80038023D01*
X147860922Y-79959005D01*
X147731341Y-79852659D01*
X147624995Y-79723078D01*
X147545977Y-79575244D01*
X147522008Y-79496228D01*
X147497314Y-79414825D01*
X147497314Y-79414824D01*
X147497313Y-79414821D01*
X147480883Y-79248000D01*
X147497313Y-79081179D01*
X147517029Y-79016184D01*
X147545975Y-78920761D01*
X147545976Y-78920759D01*
X147545977Y-78920756D01*
X147624995Y-78772922D01*
X147731341Y-78643341D01*
X147860922Y-78536995D01*
X148008756Y-78457977D01*
X148008759Y-78457976D01*
X148008761Y-78457975D01*
X148169175Y-78409314D01*
X148169176Y-78409314D01*
X148169179Y-78409313D01*
X148294196Y-78397000D01*
X148377804Y-78397000D01*
X148502821Y-78409313D01*
X148502821Y-78409313D01*
G37*
G36*
X128182821Y-78409313D02*
X128182824Y-78409314D01*
X128182825Y-78409314D01*
X128343239Y-78457975D01*
X128343241Y-78457976D01*
X128343244Y-78457977D01*
X128491078Y-78536995D01*
X128620659Y-78643341D01*
X128727005Y-78772922D01*
X128806023Y-78920756D01*
X128806024Y-78920759D01*
X128806025Y-78920761D01*
X128834971Y-79016184D01*
X128854687Y-79081179D01*
X128871117Y-79248000D01*
X128854687Y-79414821D01*
X128854686Y-79414824D01*
X128854686Y-79414825D01*
X128829993Y-79496228D01*
X128806023Y-79575244D01*
X128727005Y-79723078D01*
X128620659Y-79852659D01*
X128491078Y-79959005D01*
X128343244Y-80038023D01*
X128343241Y-80038024D01*
X128343239Y-80038025D01*
X128182825Y-80086686D01*
X128182824Y-80086686D01*
X128182821Y-80086687D01*
X128057804Y-80099000D01*
X127974196Y-80099000D01*
X127849179Y-80086687D01*
X127849176Y-80086686D01*
X127849175Y-80086686D01*
X127688761Y-80038025D01*
X127688759Y-80038024D01*
X127688756Y-80038023D01*
X127540922Y-79959005D01*
X127411341Y-79852659D01*
X127304995Y-79723078D01*
X127225977Y-79575244D01*
X127202008Y-79496228D01*
X127177314Y-79414825D01*
X127177314Y-79414824D01*
X127177313Y-79414821D01*
X127160883Y-79248000D01*
X127177313Y-79081179D01*
X127197029Y-79016184D01*
X127225975Y-78920761D01*
X127225976Y-78920759D01*
X127225977Y-78920756D01*
X127304995Y-78772922D01*
X127411341Y-78643341D01*
X127540922Y-78536995D01*
X127688756Y-78457977D01*
X127688759Y-78457976D01*
X127688761Y-78457975D01*
X127849175Y-78409314D01*
X127849176Y-78409314D01*
X127849179Y-78409313D01*
X127974196Y-78397000D01*
X128057804Y-78397000D01*
X128182821Y-78409313D01*
X128182821Y-78409313D01*
G37*
G36*
X138342821Y-78409313D02*
X138342824Y-78409314D01*
X138342825Y-78409314D01*
X138503239Y-78457975D01*
X138503241Y-78457976D01*
X138503244Y-78457977D01*
X138651078Y-78536995D01*
X138780659Y-78643341D01*
X138887005Y-78772922D01*
X138966023Y-78920756D01*
X138966024Y-78920759D01*
X138966025Y-78920761D01*
X138994971Y-79016184D01*
X139014687Y-79081179D01*
X139031117Y-79248000D01*
X139014687Y-79414821D01*
X139014686Y-79414824D01*
X139014686Y-79414825D01*
X138989993Y-79496228D01*
X138966023Y-79575244D01*
X138887005Y-79723078D01*
X138780659Y-79852659D01*
X138651078Y-79959005D01*
X138503244Y-80038023D01*
X138503241Y-80038024D01*
X138503239Y-80038025D01*
X138342825Y-80086686D01*
X138342824Y-80086686D01*
X138342821Y-80086687D01*
X138217804Y-80099000D01*
X138134196Y-80099000D01*
X138009179Y-80086687D01*
X138009176Y-80086686D01*
X138009175Y-80086686D01*
X137848761Y-80038025D01*
X137848759Y-80038024D01*
X137848756Y-80038023D01*
X137700922Y-79959005D01*
X137571341Y-79852659D01*
X137464995Y-79723078D01*
X137385977Y-79575244D01*
X137362008Y-79496228D01*
X137337314Y-79414825D01*
X137337314Y-79414824D01*
X137337313Y-79414821D01*
X137320883Y-79248000D01*
X137337313Y-79081179D01*
X137357029Y-79016184D01*
X137385975Y-78920761D01*
X137385976Y-78920759D01*
X137385977Y-78920756D01*
X137464995Y-78772922D01*
X137571341Y-78643341D01*
X137700922Y-78536995D01*
X137848756Y-78457977D01*
X137848759Y-78457976D01*
X137848761Y-78457975D01*
X138009175Y-78409314D01*
X138009176Y-78409314D01*
X138009179Y-78409313D01*
X138134196Y-78397000D01*
X138217804Y-78397000D01*
X138342821Y-78409313D01*
X138342821Y-78409313D01*
G37*
G36*
X130722821Y-78409313D02*
X130722824Y-78409314D01*
X130722825Y-78409314D01*
X130883239Y-78457975D01*
X130883241Y-78457976D01*
X130883244Y-78457977D01*
X131031078Y-78536995D01*
X131160659Y-78643341D01*
X131267005Y-78772922D01*
X131346023Y-78920756D01*
X131346024Y-78920759D01*
X131346025Y-78920761D01*
X131374971Y-79016184D01*
X131394687Y-79081179D01*
X131411117Y-79248000D01*
X131394687Y-79414821D01*
X131394686Y-79414824D01*
X131394686Y-79414825D01*
X131369993Y-79496228D01*
X131346023Y-79575244D01*
X131267005Y-79723078D01*
X131160659Y-79852659D01*
X131031078Y-79959005D01*
X130883244Y-80038023D01*
X130883241Y-80038024D01*
X130883239Y-80038025D01*
X130722825Y-80086686D01*
X130722824Y-80086686D01*
X130722821Y-80086687D01*
X130597804Y-80099000D01*
X130514196Y-80099000D01*
X130389179Y-80086687D01*
X130389176Y-80086686D01*
X130389175Y-80086686D01*
X130228761Y-80038025D01*
X130228759Y-80038024D01*
X130228756Y-80038023D01*
X130080922Y-79959005D01*
X129951341Y-79852659D01*
X129844995Y-79723078D01*
X129765977Y-79575244D01*
X129742008Y-79496228D01*
X129717314Y-79414825D01*
X129717314Y-79414824D01*
X129717313Y-79414821D01*
X129700883Y-79248000D01*
X129717313Y-79081179D01*
X129737029Y-79016184D01*
X129765975Y-78920761D01*
X129765976Y-78920759D01*
X129765977Y-78920756D01*
X129844995Y-78772922D01*
X129951341Y-78643341D01*
X130080922Y-78536995D01*
X130228756Y-78457977D01*
X130228759Y-78457976D01*
X130228761Y-78457975D01*
X130389175Y-78409314D01*
X130389176Y-78409314D01*
X130389179Y-78409313D01*
X130514196Y-78397000D01*
X130597804Y-78397000D01*
X130722821Y-78409313D01*
X130722821Y-78409313D01*
G37*
G36*
X140882821Y-78409313D02*
X140882824Y-78409314D01*
X140882825Y-78409314D01*
X141043239Y-78457975D01*
X141043241Y-78457976D01*
X141043244Y-78457977D01*
X141191078Y-78536995D01*
X141320659Y-78643341D01*
X141427005Y-78772922D01*
X141506023Y-78920756D01*
X141506024Y-78920759D01*
X141506025Y-78920761D01*
X141534971Y-79016184D01*
X141554687Y-79081179D01*
X141571117Y-79248000D01*
X141554687Y-79414821D01*
X141554686Y-79414824D01*
X141554686Y-79414825D01*
X141529993Y-79496228D01*
X141506023Y-79575244D01*
X141427005Y-79723078D01*
X141320659Y-79852659D01*
X141191078Y-79959005D01*
X141043244Y-80038023D01*
X141043241Y-80038024D01*
X141043239Y-80038025D01*
X140882825Y-80086686D01*
X140882824Y-80086686D01*
X140882821Y-80086687D01*
X140757804Y-80099000D01*
X140674196Y-80099000D01*
X140549179Y-80086687D01*
X140549176Y-80086686D01*
X140549175Y-80086686D01*
X140388761Y-80038025D01*
X140388759Y-80038024D01*
X140388756Y-80038023D01*
X140240922Y-79959005D01*
X140111341Y-79852659D01*
X140004995Y-79723078D01*
X139925977Y-79575244D01*
X139902008Y-79496228D01*
X139877314Y-79414825D01*
X139877314Y-79414824D01*
X139877313Y-79414821D01*
X139860883Y-79248000D01*
X139877313Y-79081179D01*
X139897029Y-79016184D01*
X139925975Y-78920761D01*
X139925976Y-78920759D01*
X139925977Y-78920756D01*
X140004995Y-78772922D01*
X140111341Y-78643341D01*
X140240922Y-78536995D01*
X140388756Y-78457977D01*
X140388759Y-78457976D01*
X140388761Y-78457975D01*
X140549175Y-78409314D01*
X140549176Y-78409314D01*
X140549179Y-78409313D01*
X140674196Y-78397000D01*
X140757804Y-78397000D01*
X140882821Y-78409313D01*
X140882821Y-78409313D01*
G37*
G36*
X133262821Y-78409313D02*
X133262824Y-78409314D01*
X133262825Y-78409314D01*
X133423239Y-78457975D01*
X133423241Y-78457976D01*
X133423244Y-78457977D01*
X133571078Y-78536995D01*
X133700659Y-78643341D01*
X133807005Y-78772922D01*
X133886023Y-78920756D01*
X133886024Y-78920759D01*
X133886025Y-78920761D01*
X133914971Y-79016184D01*
X133934687Y-79081179D01*
X133951117Y-79248000D01*
X133934687Y-79414821D01*
X133934686Y-79414824D01*
X133934686Y-79414825D01*
X133909993Y-79496228D01*
X133886023Y-79575244D01*
X133807005Y-79723078D01*
X133700659Y-79852659D01*
X133571078Y-79959005D01*
X133423244Y-80038023D01*
X133423241Y-80038024D01*
X133423239Y-80038025D01*
X133262825Y-80086686D01*
X133262824Y-80086686D01*
X133262821Y-80086687D01*
X133137804Y-80099000D01*
X133054196Y-80099000D01*
X132929179Y-80086687D01*
X132929176Y-80086686D01*
X132929175Y-80086686D01*
X132768761Y-80038025D01*
X132768759Y-80038024D01*
X132768756Y-80038023D01*
X132620922Y-79959005D01*
X132491341Y-79852659D01*
X132384995Y-79723078D01*
X132305977Y-79575244D01*
X132282008Y-79496228D01*
X132257314Y-79414825D01*
X132257314Y-79414824D01*
X132257313Y-79414821D01*
X132240883Y-79248000D01*
X132257313Y-79081179D01*
X132277029Y-79016184D01*
X132305975Y-78920761D01*
X132305976Y-78920759D01*
X132305977Y-78920756D01*
X132384995Y-78772922D01*
X132491341Y-78643341D01*
X132620922Y-78536995D01*
X132768756Y-78457977D01*
X132768759Y-78457976D01*
X132768761Y-78457975D01*
X132929175Y-78409314D01*
X132929176Y-78409314D01*
X132929179Y-78409313D01*
X133054196Y-78397000D01*
X133137804Y-78397000D01*
X133262821Y-78409313D01*
X133262821Y-78409313D01*
G37*
G36*
X135802821Y-78409313D02*
X135802824Y-78409314D01*
X135802825Y-78409314D01*
X135963239Y-78457975D01*
X135963241Y-78457976D01*
X135963244Y-78457977D01*
X136111078Y-78536995D01*
X136240659Y-78643341D01*
X136347005Y-78772922D01*
X136426023Y-78920756D01*
X136426024Y-78920759D01*
X136426025Y-78920761D01*
X136454971Y-79016184D01*
X136474687Y-79081179D01*
X136491117Y-79248000D01*
X136474687Y-79414821D01*
X136474686Y-79414824D01*
X136474686Y-79414825D01*
X136449993Y-79496228D01*
X136426023Y-79575244D01*
X136347005Y-79723078D01*
X136240659Y-79852659D01*
X136111078Y-79959005D01*
X135963244Y-80038023D01*
X135963241Y-80038024D01*
X135963239Y-80038025D01*
X135802825Y-80086686D01*
X135802824Y-80086686D01*
X135802821Y-80086687D01*
X135677804Y-80099000D01*
X135594196Y-80099000D01*
X135469179Y-80086687D01*
X135469176Y-80086686D01*
X135469175Y-80086686D01*
X135308761Y-80038025D01*
X135308759Y-80038024D01*
X135308756Y-80038023D01*
X135160922Y-79959005D01*
X135031341Y-79852659D01*
X134924995Y-79723078D01*
X134845977Y-79575244D01*
X134822008Y-79496228D01*
X134797314Y-79414825D01*
X134797314Y-79414824D01*
X134797313Y-79414821D01*
X134780883Y-79248000D01*
X134797313Y-79081179D01*
X134817029Y-79016184D01*
X134845975Y-78920761D01*
X134845976Y-78920759D01*
X134845977Y-78920756D01*
X134924995Y-78772922D01*
X135031341Y-78643341D01*
X135160922Y-78536995D01*
X135308756Y-78457977D01*
X135308759Y-78457976D01*
X135308761Y-78457975D01*
X135469175Y-78409314D01*
X135469176Y-78409314D01*
X135469179Y-78409313D01*
X135594196Y-78397000D01*
X135677804Y-78397000D01*
X135802821Y-78409313D01*
X135802821Y-78409313D01*
G37*
G36*
X143422821Y-78409313D02*
X143422824Y-78409314D01*
X143422825Y-78409314D01*
X143583239Y-78457975D01*
X143583241Y-78457976D01*
X143583244Y-78457977D01*
X143731078Y-78536995D01*
X143860659Y-78643341D01*
X143967005Y-78772922D01*
X144046023Y-78920756D01*
X144046024Y-78920759D01*
X144046025Y-78920761D01*
X144074971Y-79016184D01*
X144094687Y-79081179D01*
X144111117Y-79248000D01*
X144094687Y-79414821D01*
X144094686Y-79414824D01*
X144094686Y-79414825D01*
X144069993Y-79496228D01*
X144046023Y-79575244D01*
X143967005Y-79723078D01*
X143860659Y-79852659D01*
X143731078Y-79959005D01*
X143583244Y-80038023D01*
X143583241Y-80038024D01*
X143583239Y-80038025D01*
X143422825Y-80086686D01*
X143422824Y-80086686D01*
X143422821Y-80086687D01*
X143297804Y-80099000D01*
X143214196Y-80099000D01*
X143089179Y-80086687D01*
X143089176Y-80086686D01*
X143089175Y-80086686D01*
X142928761Y-80038025D01*
X142928759Y-80038024D01*
X142928756Y-80038023D01*
X142780922Y-79959005D01*
X142651341Y-79852659D01*
X142544995Y-79723078D01*
X142465977Y-79575244D01*
X142442008Y-79496228D01*
X142417314Y-79414825D01*
X142417314Y-79414824D01*
X142417313Y-79414821D01*
X142400883Y-79248000D01*
X142417313Y-79081179D01*
X142437029Y-79016184D01*
X142465975Y-78920761D01*
X142465976Y-78920759D01*
X142465977Y-78920756D01*
X142544995Y-78772922D01*
X142651341Y-78643341D01*
X142780922Y-78536995D01*
X142928756Y-78457977D01*
X142928759Y-78457976D01*
X142928761Y-78457975D01*
X143089175Y-78409314D01*
X143089176Y-78409314D01*
X143089179Y-78409313D01*
X143214196Y-78397000D01*
X143297804Y-78397000D01*
X143422821Y-78409313D01*
X143422821Y-78409313D01*
G37*
G36*
X145962821Y-78409313D02*
X145962824Y-78409314D01*
X145962825Y-78409314D01*
X146123239Y-78457975D01*
X146123241Y-78457976D01*
X146123244Y-78457977D01*
X146271078Y-78536995D01*
X146400659Y-78643341D01*
X146507005Y-78772922D01*
X146586023Y-78920756D01*
X146586024Y-78920759D01*
X146586025Y-78920761D01*
X146614971Y-79016184D01*
X146634687Y-79081179D01*
X146651117Y-79248000D01*
X146634687Y-79414821D01*
X146634686Y-79414824D01*
X146634686Y-79414825D01*
X146609993Y-79496228D01*
X146586023Y-79575244D01*
X146507005Y-79723078D01*
X146400659Y-79852659D01*
X146271078Y-79959005D01*
X146123244Y-80038023D01*
X146123241Y-80038024D01*
X146123239Y-80038025D01*
X145962825Y-80086686D01*
X145962824Y-80086686D01*
X145962821Y-80086687D01*
X145837804Y-80099000D01*
X145754196Y-80099000D01*
X145629179Y-80086687D01*
X145629176Y-80086686D01*
X145629175Y-80086686D01*
X145468761Y-80038025D01*
X145468759Y-80038024D01*
X145468756Y-80038023D01*
X145320922Y-79959005D01*
X145191341Y-79852659D01*
X145084995Y-79723078D01*
X145005977Y-79575244D01*
X144982008Y-79496228D01*
X144957314Y-79414825D01*
X144957314Y-79414824D01*
X144957313Y-79414821D01*
X144940883Y-79248000D01*
X144957313Y-79081179D01*
X144977029Y-79016184D01*
X145005975Y-78920761D01*
X145005976Y-78920759D01*
X145005977Y-78920756D01*
X145084995Y-78772922D01*
X145191341Y-78643341D01*
X145320922Y-78536995D01*
X145468756Y-78457977D01*
X145468759Y-78457976D01*
X145468761Y-78457975D01*
X145629175Y-78409314D01*
X145629176Y-78409314D01*
X145629179Y-78409313D01*
X145754196Y-78397000D01*
X145837804Y-78397000D01*
X145962821Y-78409313D01*
X145962821Y-78409313D01*
G37*
G36*
X151042821Y-78409313D02*
X151042824Y-78409314D01*
X151042825Y-78409314D01*
X151203239Y-78457975D01*
X151203241Y-78457976D01*
X151203244Y-78457977D01*
X151351078Y-78536995D01*
X151480659Y-78643341D01*
X151587005Y-78772922D01*
X151666023Y-78920756D01*
X151666024Y-78920759D01*
X151666025Y-78920761D01*
X151694971Y-79016184D01*
X151714687Y-79081179D01*
X151731117Y-79248000D01*
X151714687Y-79414821D01*
X151714686Y-79414824D01*
X151714686Y-79414825D01*
X151689993Y-79496228D01*
X151666023Y-79575244D01*
X151587005Y-79723078D01*
X151480659Y-79852659D01*
X151351078Y-79959005D01*
X151203244Y-80038023D01*
X151203241Y-80038024D01*
X151203239Y-80038025D01*
X151042825Y-80086686D01*
X151042824Y-80086686D01*
X151042821Y-80086687D01*
X150917804Y-80099000D01*
X150834196Y-80099000D01*
X150709179Y-80086687D01*
X150709176Y-80086686D01*
X150709175Y-80086686D01*
X150548761Y-80038025D01*
X150548759Y-80038024D01*
X150548756Y-80038023D01*
X150400922Y-79959005D01*
X150271341Y-79852659D01*
X150164995Y-79723078D01*
X150085977Y-79575244D01*
X150062008Y-79496228D01*
X150037314Y-79414825D01*
X150037314Y-79414824D01*
X150037313Y-79414821D01*
X150020883Y-79248000D01*
X150037313Y-79081179D01*
X150057029Y-79016184D01*
X150085975Y-78920761D01*
X150085976Y-78920759D01*
X150085977Y-78920756D01*
X150164995Y-78772922D01*
X150271341Y-78643341D01*
X150400922Y-78536995D01*
X150548756Y-78457977D01*
X150548759Y-78457976D01*
X150548761Y-78457975D01*
X150709175Y-78409314D01*
X150709176Y-78409314D01*
X150709179Y-78409313D01*
X150834196Y-78397000D01*
X150917804Y-78397000D01*
X151042821Y-78409313D01*
X151042821Y-78409313D01*
G37*
G36*
X124372821Y-78409313D02*
X124372824Y-78409314D01*
X124372825Y-78409314D01*
X124533239Y-78457975D01*
X124533241Y-78457976D01*
X124533244Y-78457977D01*
X124681078Y-78536995D01*
X124810659Y-78643341D01*
X124917005Y-78772922D01*
X124996023Y-78920756D01*
X124996024Y-78920759D01*
X124996025Y-78920761D01*
X125024971Y-79016184D01*
X125044687Y-79081179D01*
X125061117Y-79248000D01*
X125044687Y-79414821D01*
X125044686Y-79414824D01*
X125044686Y-79414825D01*
X125019993Y-79496228D01*
X124996023Y-79575244D01*
X124917005Y-79723078D01*
X124810659Y-79852659D01*
X124681078Y-79959005D01*
X124533244Y-80038023D01*
X124533241Y-80038024D01*
X124533239Y-80038025D01*
X124372825Y-80086686D01*
X124372824Y-80086686D01*
X124372821Y-80086687D01*
X124247804Y-80099000D01*
X124164196Y-80099000D01*
X124039179Y-80086687D01*
X124039176Y-80086686D01*
X124039175Y-80086686D01*
X123878761Y-80038025D01*
X123878759Y-80038024D01*
X123878756Y-80038023D01*
X123730922Y-79959005D01*
X123601341Y-79852659D01*
X123494995Y-79723078D01*
X123415977Y-79575244D01*
X123392008Y-79496228D01*
X123367314Y-79414825D01*
X123367314Y-79414824D01*
X123367313Y-79414821D01*
X123350883Y-79248000D01*
X123367313Y-79081179D01*
X123387029Y-79016184D01*
X123415975Y-78920761D01*
X123415976Y-78920759D01*
X123415977Y-78920756D01*
X123494995Y-78772922D01*
X123601341Y-78643341D01*
X123730922Y-78536995D01*
X123878756Y-78457977D01*
X123878759Y-78457976D01*
X123878761Y-78457975D01*
X124039175Y-78409314D01*
X124039176Y-78409314D01*
X124039179Y-78409313D01*
X124164196Y-78397000D01*
X124247804Y-78397000D01*
X124372821Y-78409313D01*
X124372821Y-78409313D01*
G37*
G36*
X107948228Y-78381703D02*
X108103100Y-78445853D01*
X108242481Y-78538985D01*
X108361015Y-78657519D01*
X108454147Y-78796900D01*
X108518297Y-78951772D01*
X108551000Y-79116184D01*
X108551000Y-79283816D01*
X108518297Y-79448228D01*
X108454147Y-79603100D01*
X108361015Y-79742481D01*
X108242481Y-79861015D01*
X108103100Y-79954147D01*
X107948228Y-80018297D01*
X107783816Y-80051000D01*
X107616184Y-80051000D01*
X107451772Y-80018297D01*
X107296900Y-79954147D01*
X107157519Y-79861015D01*
X107038985Y-79742481D01*
X106945853Y-79603100D01*
X106881703Y-79448228D01*
X106849000Y-79283816D01*
X106849000Y-79116184D01*
X106881703Y-78951772D01*
X106945853Y-78796900D01*
X107038985Y-78657519D01*
X107157519Y-78538985D01*
X107296900Y-78445853D01*
X107451772Y-78381703D01*
X107616184Y-78349000D01*
X107783816Y-78349000D01*
X107948228Y-78381703D01*
X107948228Y-78381703D01*
G37*
G36*
X112948228Y-78381703D02*
X113103100Y-78445853D01*
X113242481Y-78538985D01*
X113361015Y-78657519D01*
X113454147Y-78796900D01*
X113518297Y-78951772D01*
X113551000Y-79116184D01*
X113551000Y-79283816D01*
X113518297Y-79448228D01*
X113454147Y-79603100D01*
X113361015Y-79742481D01*
X113242481Y-79861015D01*
X113103100Y-79954147D01*
X112948228Y-80018297D01*
X112783816Y-80051000D01*
X112616184Y-80051000D01*
X112451772Y-80018297D01*
X112296900Y-79954147D01*
X112157519Y-79861015D01*
X112038985Y-79742481D01*
X111945853Y-79603100D01*
X111881703Y-79448228D01*
X111849000Y-79283816D01*
X111849000Y-79116184D01*
X111881703Y-78951772D01*
X111945853Y-78796900D01*
X112038985Y-78657519D01*
X112157519Y-78538985D01*
X112296900Y-78445853D01*
X112451772Y-78381703D01*
X112616184Y-78349000D01*
X112783816Y-78349000D01*
X112948228Y-78381703D01*
X112948228Y-78381703D01*
G37*
G36*
X120948228Y-78281703D02*
X121103100Y-78345853D01*
X121242481Y-78438985D01*
X121361015Y-78557519D01*
X121454147Y-78696900D01*
X121518297Y-78851772D01*
X121551000Y-79016184D01*
X121551000Y-79183816D01*
X121518297Y-79348228D01*
X121454147Y-79503100D01*
X121361015Y-79642481D01*
X121242481Y-79761015D01*
X121103100Y-79854147D01*
X120948228Y-79918297D01*
X120783816Y-79951000D01*
X120616184Y-79951000D01*
X120451772Y-79918297D01*
X120296900Y-79854147D01*
X120157519Y-79761015D01*
X120038985Y-79642481D01*
X119945853Y-79503100D01*
X119881703Y-79348228D01*
X119849000Y-79183816D01*
X119849000Y-79016184D01*
X119881703Y-78851772D01*
X119945853Y-78696900D01*
X120038985Y-78557519D01*
X120157519Y-78438985D01*
X120296900Y-78345853D01*
X120451772Y-78281703D01*
X120616184Y-78249000D01*
X120783816Y-78249000D01*
X120948228Y-78281703D01*
X120948228Y-78281703D01*
G37*
G36*
X115948228Y-78281703D02*
X116103100Y-78345853D01*
X116242481Y-78438985D01*
X116361015Y-78557519D01*
X116454147Y-78696900D01*
X116518297Y-78851772D01*
X116551000Y-79016184D01*
X116551000Y-79183816D01*
X116518297Y-79348228D01*
X116454147Y-79503100D01*
X116361015Y-79642481D01*
X116242481Y-79761015D01*
X116103100Y-79854147D01*
X115948228Y-79918297D01*
X115783816Y-79951000D01*
X115616184Y-79951000D01*
X115451772Y-79918297D01*
X115296900Y-79854147D01*
X115157519Y-79761015D01*
X115038985Y-79642481D01*
X114945853Y-79503100D01*
X114881703Y-79348228D01*
X114849000Y-79183816D01*
X114849000Y-79016184D01*
X114881703Y-78851772D01*
X114945853Y-78696900D01*
X115038985Y-78557519D01*
X115157519Y-78438985D01*
X115296900Y-78345853D01*
X115451772Y-78281703D01*
X115616184Y-78249000D01*
X115783816Y-78249000D01*
X115948228Y-78281703D01*
X115948228Y-78281703D01*
G37*
G36*
X164780293Y-74653124D02*
X165017002Y-74751172D01*
X165230038Y-74893518D01*
X165411202Y-75074682D01*
X165553548Y-75287718D01*
X165651596Y-75524427D01*
X165701580Y-75775713D01*
X165701580Y-76031927D01*
X165651596Y-76283213D01*
X165553548Y-76519922D01*
X165411202Y-76732958D01*
X165230038Y-76914122D01*
X165017002Y-77056468D01*
X164780293Y-77154516D01*
X164529007Y-77204500D01*
X164272793Y-77204500D01*
X164021507Y-77154516D01*
X163784798Y-77056468D01*
X163571762Y-76914122D01*
X163390598Y-76732958D01*
X163248252Y-76519922D01*
X163150204Y-76283213D01*
X163100220Y-76031927D01*
X163100220Y-75775713D01*
X163150204Y-75524427D01*
X163248252Y-75287718D01*
X163390598Y-75074682D01*
X163571762Y-74893518D01*
X163784798Y-74751172D01*
X164021507Y-74653124D01*
X164272793Y-74603140D01*
X164529007Y-74603140D01*
X164780293Y-74653124D01*
X164780293Y-74653124D01*
G37*
G36*
X177277093Y-74648044D02*
X177513802Y-74746092D01*
X177726838Y-74888438D01*
X177908002Y-75069602D01*
X178050348Y-75282638D01*
X178148396Y-75519347D01*
X178198380Y-75770633D01*
X178198380Y-76026847D01*
X178148396Y-76278133D01*
X178050348Y-76514842D01*
X177908002Y-76727878D01*
X177726838Y-76909042D01*
X177513802Y-77051388D01*
X177277093Y-77149436D01*
X177025807Y-77199420D01*
X176769593Y-77199420D01*
X176518307Y-77149436D01*
X176281598Y-77051388D01*
X176068562Y-76909042D01*
X175887398Y-76727878D01*
X175745052Y-76514842D01*
X175647004Y-76278133D01*
X175597020Y-76026847D01*
X175597020Y-75770633D01*
X175647004Y-75519347D01*
X175745052Y-75282638D01*
X175887398Y-75069602D01*
X176068562Y-74888438D01*
X176281598Y-74746092D01*
X176518307Y-74648044D01*
X176769593Y-74598060D01*
X177025807Y-74598060D01*
X177277093Y-74648044D01*
X177277093Y-74648044D01*
G37*
G36*
X123356821Y-74997966D02*
X123356824Y-74997967D01*
X123356825Y-74997967D01*
X123517239Y-75046628D01*
X123517241Y-75046629D01*
X123517244Y-75046630D01*
X123665078Y-75125648D01*
X123794659Y-75231994D01*
X123901005Y-75361575D01*
X123980023Y-75509409D01*
X123980024Y-75509412D01*
X123980025Y-75509414D01*
X124028686Y-75669828D01*
X124028687Y-75669832D01*
X124045117Y-75836653D01*
X124028687Y-76003474D01*
X124028686Y-76003477D01*
X124028686Y-76003478D01*
X124003993Y-76084881D01*
X123980023Y-76163897D01*
X123901005Y-76311731D01*
X123794659Y-76441312D01*
X123665078Y-76547658D01*
X123517244Y-76626676D01*
X123517241Y-76626677D01*
X123517239Y-76626678D01*
X123356825Y-76675339D01*
X123356824Y-76675339D01*
X123356821Y-76675340D01*
X123231804Y-76687653D01*
X123148196Y-76687653D01*
X123023179Y-76675340D01*
X123023176Y-76675339D01*
X123023175Y-76675339D01*
X122862761Y-76626678D01*
X122862759Y-76626677D01*
X122862756Y-76626676D01*
X122714922Y-76547658D01*
X122585341Y-76441312D01*
X122478995Y-76311731D01*
X122399977Y-76163897D01*
X122376008Y-76084881D01*
X122351314Y-76003478D01*
X122351314Y-76003477D01*
X122351313Y-76003474D01*
X122334883Y-75836653D01*
X122351313Y-75669832D01*
X122351314Y-75669828D01*
X122399975Y-75509414D01*
X122399976Y-75509412D01*
X122399977Y-75509409D01*
X122478995Y-75361575D01*
X122585341Y-75231994D01*
X122714922Y-75125648D01*
X122862756Y-75046630D01*
X122862759Y-75046629D01*
X122862761Y-75046628D01*
X123023175Y-74997967D01*
X123023176Y-74997967D01*
X123023179Y-74997966D01*
X123148196Y-74985653D01*
X123231804Y-74985653D01*
X123356821Y-74997966D01*
X123356821Y-74997966D01*
G37*
G36*
X151378228Y-75018356D02*
X151533100Y-75082506D01*
X151672481Y-75175638D01*
X151791015Y-75294172D01*
X151884147Y-75433553D01*
X151948297Y-75588425D01*
X151981000Y-75752837D01*
X151981000Y-75920469D01*
X151948297Y-76084881D01*
X151884147Y-76239753D01*
X151791015Y-76379134D01*
X151672481Y-76497668D01*
X151533100Y-76590800D01*
X151378228Y-76654950D01*
X151213816Y-76687653D01*
X151046184Y-76687653D01*
X150881772Y-76654950D01*
X150726900Y-76590800D01*
X150587519Y-76497668D01*
X150468985Y-76379134D01*
X150375853Y-76239753D01*
X150311703Y-76084881D01*
X150279000Y-75920469D01*
X150279000Y-75752837D01*
X150311703Y-75588425D01*
X150375853Y-75433553D01*
X150468985Y-75294172D01*
X150587519Y-75175638D01*
X150726900Y-75082506D01*
X150881772Y-75018356D01*
X151046184Y-74985653D01*
X151213816Y-74985653D01*
X151378228Y-75018356D01*
X151378228Y-75018356D01*
G37*
G36*
X143676821Y-74997966D02*
X143676824Y-74997967D01*
X143676825Y-74997967D01*
X143837239Y-75046628D01*
X143837241Y-75046629D01*
X143837244Y-75046630D01*
X143985078Y-75125648D01*
X144114659Y-75231994D01*
X144221005Y-75361575D01*
X144300023Y-75509409D01*
X144300024Y-75509412D01*
X144300025Y-75509414D01*
X144348686Y-75669828D01*
X144348687Y-75669832D01*
X144365117Y-75836653D01*
X144348687Y-76003474D01*
X144348686Y-76003477D01*
X144348686Y-76003478D01*
X144323993Y-76084881D01*
X144300023Y-76163897D01*
X144221005Y-76311731D01*
X144114659Y-76441312D01*
X143985078Y-76547658D01*
X143837244Y-76626676D01*
X143837241Y-76626677D01*
X143837239Y-76626678D01*
X143676825Y-76675339D01*
X143676824Y-76675339D01*
X143676821Y-76675340D01*
X143551804Y-76687653D01*
X143468196Y-76687653D01*
X143343179Y-76675340D01*
X143343176Y-76675339D01*
X143343175Y-76675339D01*
X143182761Y-76626678D01*
X143182759Y-76626677D01*
X143182756Y-76626676D01*
X143034922Y-76547658D01*
X142905341Y-76441312D01*
X142798995Y-76311731D01*
X142719977Y-76163897D01*
X142696008Y-76084881D01*
X142671314Y-76003478D01*
X142671314Y-76003477D01*
X142671313Y-76003474D01*
X142654883Y-75836653D01*
X142671313Y-75669832D01*
X142671314Y-75669828D01*
X142719975Y-75509414D01*
X142719976Y-75509412D01*
X142719977Y-75509409D01*
X142798995Y-75361575D01*
X142905341Y-75231994D01*
X143034922Y-75125648D01*
X143182756Y-75046630D01*
X143182759Y-75046629D01*
X143182761Y-75046628D01*
X143343175Y-74997967D01*
X143343176Y-74997967D01*
X143343179Y-74997966D01*
X143468196Y-74985653D01*
X143551804Y-74985653D01*
X143676821Y-74997966D01*
X143676821Y-74997966D01*
G37*
G36*
X133518573Y-74997966D02*
X133518576Y-74997967D01*
X133518577Y-74997967D01*
X133678991Y-75046628D01*
X133678993Y-75046629D01*
X133678996Y-75046630D01*
X133826830Y-75125648D01*
X133956411Y-75231994D01*
X134062757Y-75361575D01*
X134141775Y-75509409D01*
X134141776Y-75509412D01*
X134141777Y-75509414D01*
X134190438Y-75669828D01*
X134190439Y-75669832D01*
X134206869Y-75836653D01*
X134190439Y-76003474D01*
X134190438Y-76003477D01*
X134190438Y-76003478D01*
X134165745Y-76084881D01*
X134141775Y-76163897D01*
X134062757Y-76311731D01*
X133956411Y-76441312D01*
X133826830Y-76547658D01*
X133678996Y-76626676D01*
X133678993Y-76626677D01*
X133678991Y-76626678D01*
X133518577Y-76675339D01*
X133518576Y-76675339D01*
X133518573Y-76675340D01*
X133393556Y-76687653D01*
X133309948Y-76687653D01*
X133184931Y-76675340D01*
X133184928Y-76675339D01*
X133184927Y-76675339D01*
X133024513Y-76626678D01*
X133024511Y-76626677D01*
X133024508Y-76626676D01*
X132876674Y-76547658D01*
X132747093Y-76441312D01*
X132640747Y-76311731D01*
X132561729Y-76163897D01*
X132537760Y-76084881D01*
X132513066Y-76003478D01*
X132513066Y-76003477D01*
X132513065Y-76003474D01*
X132496635Y-75836653D01*
X132513065Y-75669832D01*
X132513066Y-75669828D01*
X132561727Y-75509414D01*
X132561728Y-75509412D01*
X132561729Y-75509409D01*
X132640747Y-75361575D01*
X132747093Y-75231994D01*
X132876674Y-75125648D01*
X133024508Y-75046630D01*
X133024511Y-75046629D01*
X133024513Y-75046628D01*
X133184927Y-74997967D01*
X133184928Y-74997967D01*
X133184931Y-74997966D01*
X133309948Y-74985653D01*
X133393556Y-74985653D01*
X133518573Y-74997966D01*
X133518573Y-74997966D01*
G37*
G36*
X141219980Y-75018356D02*
X141374852Y-75082506D01*
X141514233Y-75175638D01*
X141632767Y-75294172D01*
X141725899Y-75433553D01*
X141790049Y-75588425D01*
X141822752Y-75752837D01*
X141822752Y-75920469D01*
X141790049Y-76084881D01*
X141725899Y-76239753D01*
X141632767Y-76379134D01*
X141514233Y-76497668D01*
X141374852Y-76590800D01*
X141219980Y-76654950D01*
X141055568Y-76687653D01*
X140887936Y-76687653D01*
X140723524Y-76654950D01*
X140568652Y-76590800D01*
X140429271Y-76497668D01*
X140310737Y-76379134D01*
X140217605Y-76239753D01*
X140153455Y-76084881D01*
X140120752Y-75920469D01*
X140120752Y-75752837D01*
X140153455Y-75588425D01*
X140217605Y-75433553D01*
X140310737Y-75294172D01*
X140429271Y-75175638D01*
X140568652Y-75082506D01*
X140723524Y-75018356D01*
X140887936Y-74985653D01*
X141055568Y-74985653D01*
X141219980Y-75018356D01*
X141219980Y-75018356D01*
G37*
G36*
X131058228Y-75018356D02*
X131213100Y-75082506D01*
X131352481Y-75175638D01*
X131471015Y-75294172D01*
X131564147Y-75433553D01*
X131628297Y-75588425D01*
X131661000Y-75752837D01*
X131661000Y-75920469D01*
X131628297Y-76084881D01*
X131564147Y-76239753D01*
X131471015Y-76379134D01*
X131352481Y-76497668D01*
X131213100Y-76590800D01*
X131058228Y-76654950D01*
X130893816Y-76687653D01*
X130726184Y-76687653D01*
X130561772Y-76654950D01*
X130406900Y-76590800D01*
X130267519Y-76497668D01*
X130148985Y-76379134D01*
X130055853Y-76239753D01*
X129991703Y-76084881D01*
X129959000Y-75920469D01*
X129959000Y-75752837D01*
X129991703Y-75588425D01*
X130055853Y-75433553D01*
X130148985Y-75294172D01*
X130267519Y-75175638D01*
X130406900Y-75082506D01*
X130561772Y-75018356D01*
X130726184Y-74985653D01*
X130893816Y-74985653D01*
X131058228Y-75018356D01*
X131058228Y-75018356D01*
G37*
G36*
X107776677Y-74825465D02*
X107814364Y-74836898D01*
X107849103Y-74855466D01*
X107879548Y-74880452D01*
X107904534Y-74910897D01*
X107923102Y-74945636D01*
X107934535Y-74983323D01*
X107939000Y-75028661D01*
X107939000Y-75865339D01*
X107934535Y-75910677D01*
X107923102Y-75948364D01*
X107904534Y-75983103D01*
X107879548Y-76013548D01*
X107849103Y-76038534D01*
X107814364Y-76057102D01*
X107776677Y-76068535D01*
X107731339Y-76073000D01*
X106644661Y-76073000D01*
X106599323Y-76068535D01*
X106561636Y-76057102D01*
X106526897Y-76038534D01*
X106496452Y-76013548D01*
X106471466Y-75983103D01*
X106452898Y-75948364D01*
X106441465Y-75910677D01*
X106437000Y-75865339D01*
X106437000Y-75028661D01*
X106441465Y-74983323D01*
X106452898Y-74945636D01*
X106471466Y-74910897D01*
X106496452Y-74880452D01*
X106526897Y-74855466D01*
X106561636Y-74836898D01*
X106599323Y-74825465D01*
X106644661Y-74821000D01*
X107731339Y-74821000D01*
X107776677Y-74825465D01*
X107776677Y-74825465D01*
G37*
G36*
X155945000Y-75240000D02*
X154283000Y-75240000D01*
X154283000Y-72588000D01*
X155945000Y-72588000D01*
X155945000Y-75240000D01*
X155945000Y-75240000D01*
G37*
G36*
X158645000Y-75240000D02*
X156983000Y-75240000D01*
X156983000Y-74488000D01*
X158645000Y-74488000D01*
X158645000Y-75240000D01*
X158645000Y-75240000D01*
G37*
G36*
X167282193Y-72151224D02*
X167518902Y-72249272D01*
X167731938Y-72391618D01*
X167913102Y-72572782D01*
X168055448Y-72785818D01*
X168153496Y-73022527D01*
X168203480Y-73273813D01*
X168203480Y-73530027D01*
X168153496Y-73781313D01*
X168055448Y-74018022D01*
X167913102Y-74231058D01*
X167731938Y-74412222D01*
X167518902Y-74554568D01*
X167282193Y-74652616D01*
X167030907Y-74702600D01*
X166774693Y-74702600D01*
X166523407Y-74652616D01*
X166286698Y-74554568D01*
X166073662Y-74412222D01*
X165892498Y-74231058D01*
X165750152Y-74018022D01*
X165652104Y-73781313D01*
X165602120Y-73530027D01*
X165602120Y-73273813D01*
X165652104Y-73022527D01*
X165750152Y-72785818D01*
X165892498Y-72572782D01*
X166073662Y-72391618D01*
X166286698Y-72249272D01*
X166523407Y-72151224D01*
X166774693Y-72101240D01*
X167030907Y-72101240D01*
X167282193Y-72151224D01*
X167282193Y-72151224D01*
G37*
G36*
X107776677Y-72775465D02*
X107814364Y-72786898D01*
X107849103Y-72805466D01*
X107879548Y-72830452D01*
X107904534Y-72860897D01*
X107923102Y-72895636D01*
X107934535Y-72933323D01*
X107939000Y-72978661D01*
X107939000Y-73815339D01*
X107934535Y-73860677D01*
X107923102Y-73898364D01*
X107904534Y-73933103D01*
X107879548Y-73963548D01*
X107849103Y-73988534D01*
X107814364Y-74007102D01*
X107776677Y-74018535D01*
X107731339Y-74023000D01*
X106644661Y-74023000D01*
X106599323Y-74018535D01*
X106561636Y-74007102D01*
X106526897Y-73988534D01*
X106496452Y-73963548D01*
X106471466Y-73933103D01*
X106452898Y-73898364D01*
X106441465Y-73860677D01*
X106437000Y-73815339D01*
X106437000Y-72978661D01*
X106441465Y-72933323D01*
X106452898Y-72895636D01*
X106471466Y-72860897D01*
X106496452Y-72830452D01*
X106526897Y-72805466D01*
X106561636Y-72786898D01*
X106599323Y-72775465D01*
X106644661Y-72771000D01*
X107731339Y-72771000D01*
X107776677Y-72775465D01*
X107776677Y-72775465D01*
G37*
G36*
X158645000Y-73340000D02*
X156983000Y-73340000D01*
X156983000Y-72588000D01*
X158645000Y-72588000D01*
X158645000Y-73340000D01*
X158645000Y-73340000D01*
G37*
G36*
X131059980Y-71571703D02*
X131214852Y-71635853D01*
X131354233Y-71728985D01*
X131472767Y-71847519D01*
X131565899Y-71986900D01*
X131630049Y-72141772D01*
X131662752Y-72306184D01*
X131662752Y-72473816D01*
X131630049Y-72638228D01*
X131565899Y-72793100D01*
X131472767Y-72932481D01*
X131354233Y-73051015D01*
X131214852Y-73144147D01*
X131059980Y-73208297D01*
X130895568Y-73241000D01*
X130727936Y-73241000D01*
X130563524Y-73208297D01*
X130408652Y-73144147D01*
X130269271Y-73051015D01*
X130150737Y-72932481D01*
X130057605Y-72793100D01*
X129993455Y-72638228D01*
X129960752Y-72473816D01*
X129960752Y-72306184D01*
X129993455Y-72141772D01*
X130057605Y-71986900D01*
X130150737Y-71847519D01*
X130269271Y-71728985D01*
X130408652Y-71635853D01*
X130563524Y-71571703D01*
X130727936Y-71539000D01*
X130895568Y-71539000D01*
X131059980Y-71571703D01*
X131059980Y-71571703D01*
G37*
G36*
X133518573Y-71551313D02*
X133518576Y-71551314D01*
X133518577Y-71551314D01*
X133678991Y-71599975D01*
X133678993Y-71599976D01*
X133678996Y-71599977D01*
X133826830Y-71678995D01*
X133956411Y-71785341D01*
X134062757Y-71914922D01*
X134141775Y-72062756D01*
X134141776Y-72062759D01*
X134141777Y-72062761D01*
X134168612Y-72151224D01*
X134190439Y-72223179D01*
X134206869Y-72390000D01*
X134190439Y-72556821D01*
X134190438Y-72556824D01*
X134190438Y-72556825D01*
X134165745Y-72638228D01*
X134141775Y-72717244D01*
X134062757Y-72865078D01*
X133956411Y-72994659D01*
X133826830Y-73101005D01*
X133678996Y-73180023D01*
X133678993Y-73180024D01*
X133678991Y-73180025D01*
X133518577Y-73228686D01*
X133518576Y-73228686D01*
X133518573Y-73228687D01*
X133393556Y-73241000D01*
X133309948Y-73241000D01*
X133184931Y-73228687D01*
X133184928Y-73228686D01*
X133184927Y-73228686D01*
X133024513Y-73180025D01*
X133024511Y-73180024D01*
X133024508Y-73180023D01*
X132876674Y-73101005D01*
X132747093Y-72994659D01*
X132640747Y-72865078D01*
X132561729Y-72717244D01*
X132537760Y-72638228D01*
X132513066Y-72556825D01*
X132513066Y-72556824D01*
X132513065Y-72556821D01*
X132496635Y-72390000D01*
X132513065Y-72223179D01*
X132534892Y-72151224D01*
X132561727Y-72062761D01*
X132561728Y-72062759D01*
X132561729Y-72062756D01*
X132640747Y-71914922D01*
X132747093Y-71785341D01*
X132876674Y-71678995D01*
X133024508Y-71599977D01*
X133024511Y-71599976D01*
X133024513Y-71599975D01*
X133184927Y-71551314D01*
X133184928Y-71551314D01*
X133184931Y-71551313D01*
X133309948Y-71539000D01*
X133393556Y-71539000D01*
X133518573Y-71551313D01*
X133518573Y-71551313D01*
G37*
G36*
X123358573Y-71551313D02*
X123358576Y-71551314D01*
X123358577Y-71551314D01*
X123518991Y-71599975D01*
X123518993Y-71599976D01*
X123518996Y-71599977D01*
X123666830Y-71678995D01*
X123796411Y-71785341D01*
X123902757Y-71914922D01*
X123981775Y-72062756D01*
X123981776Y-72062759D01*
X123981777Y-72062761D01*
X124008612Y-72151224D01*
X124030439Y-72223179D01*
X124046869Y-72390000D01*
X124030439Y-72556821D01*
X124030438Y-72556824D01*
X124030438Y-72556825D01*
X124005745Y-72638228D01*
X123981775Y-72717244D01*
X123902757Y-72865078D01*
X123796411Y-72994659D01*
X123666830Y-73101005D01*
X123518996Y-73180023D01*
X123518993Y-73180024D01*
X123518991Y-73180025D01*
X123358577Y-73228686D01*
X123358576Y-73228686D01*
X123358573Y-73228687D01*
X123233556Y-73241000D01*
X123149948Y-73241000D01*
X123024931Y-73228687D01*
X123024928Y-73228686D01*
X123024927Y-73228686D01*
X122864513Y-73180025D01*
X122864511Y-73180024D01*
X122864508Y-73180023D01*
X122716674Y-73101005D01*
X122587093Y-72994659D01*
X122480747Y-72865078D01*
X122401729Y-72717244D01*
X122377760Y-72638228D01*
X122353066Y-72556825D01*
X122353066Y-72556824D01*
X122353065Y-72556821D01*
X122336635Y-72390000D01*
X122353065Y-72223179D01*
X122374892Y-72151224D01*
X122401727Y-72062761D01*
X122401728Y-72062759D01*
X122401729Y-72062756D01*
X122480747Y-71914922D01*
X122587093Y-71785341D01*
X122716674Y-71678995D01*
X122864508Y-71599977D01*
X122864511Y-71599976D01*
X122864513Y-71599975D01*
X123024927Y-71551314D01*
X123024928Y-71551314D01*
X123024931Y-71551313D01*
X123149948Y-71539000D01*
X123233556Y-71539000D01*
X123358573Y-71551313D01*
X123358573Y-71551313D01*
G37*
G36*
X151378228Y-71571703D02*
X151533100Y-71635853D01*
X151672481Y-71728985D01*
X151791015Y-71847519D01*
X151884147Y-71986900D01*
X151948297Y-72141772D01*
X151981000Y-72306184D01*
X151981000Y-72473816D01*
X151948297Y-72638228D01*
X151884147Y-72793100D01*
X151791015Y-72932481D01*
X151672481Y-73051015D01*
X151533100Y-73144147D01*
X151378228Y-73208297D01*
X151213816Y-73241000D01*
X151046184Y-73241000D01*
X150881772Y-73208297D01*
X150726900Y-73144147D01*
X150587519Y-73051015D01*
X150468985Y-72932481D01*
X150375853Y-72793100D01*
X150311703Y-72638228D01*
X150279000Y-72473816D01*
X150279000Y-72306184D01*
X150311703Y-72141772D01*
X150375853Y-71986900D01*
X150468985Y-71847519D01*
X150587519Y-71728985D01*
X150726900Y-71635853D01*
X150881772Y-71571703D01*
X151046184Y-71539000D01*
X151213816Y-71539000D01*
X151378228Y-71571703D01*
X151378228Y-71571703D01*
G37*
G36*
X143676821Y-71551313D02*
X143676824Y-71551314D01*
X143676825Y-71551314D01*
X143837239Y-71599975D01*
X143837241Y-71599976D01*
X143837244Y-71599977D01*
X143985078Y-71678995D01*
X144114659Y-71785341D01*
X144221005Y-71914922D01*
X144300023Y-72062756D01*
X144300024Y-72062759D01*
X144300025Y-72062761D01*
X144326860Y-72151224D01*
X144348687Y-72223179D01*
X144365117Y-72390000D01*
X144348687Y-72556821D01*
X144348686Y-72556824D01*
X144348686Y-72556825D01*
X144323993Y-72638228D01*
X144300023Y-72717244D01*
X144221005Y-72865078D01*
X144114659Y-72994659D01*
X143985078Y-73101005D01*
X143837244Y-73180023D01*
X143837241Y-73180024D01*
X143837239Y-73180025D01*
X143676825Y-73228686D01*
X143676824Y-73228686D01*
X143676821Y-73228687D01*
X143551804Y-73241000D01*
X143468196Y-73241000D01*
X143343179Y-73228687D01*
X143343176Y-73228686D01*
X143343175Y-73228686D01*
X143182761Y-73180025D01*
X143182759Y-73180024D01*
X143182756Y-73180023D01*
X143034922Y-73101005D01*
X142905341Y-72994659D01*
X142798995Y-72865078D01*
X142719977Y-72717244D01*
X142696008Y-72638228D01*
X142671314Y-72556825D01*
X142671314Y-72556824D01*
X142671313Y-72556821D01*
X142654883Y-72390000D01*
X142671313Y-72223179D01*
X142693140Y-72151224D01*
X142719975Y-72062761D01*
X142719976Y-72062759D01*
X142719977Y-72062756D01*
X142798995Y-71914922D01*
X142905341Y-71785341D01*
X143034922Y-71678995D01*
X143182756Y-71599977D01*
X143182759Y-71599976D01*
X143182761Y-71599975D01*
X143343175Y-71551314D01*
X143343176Y-71551314D01*
X143343179Y-71551313D01*
X143468196Y-71539000D01*
X143551804Y-71539000D01*
X143676821Y-71551313D01*
X143676821Y-71551313D01*
G37*
G36*
X141219980Y-71571703D02*
X141374852Y-71635853D01*
X141514233Y-71728985D01*
X141632767Y-71847519D01*
X141725899Y-71986900D01*
X141790049Y-72141772D01*
X141822752Y-72306184D01*
X141822752Y-72473816D01*
X141790049Y-72638228D01*
X141725899Y-72793100D01*
X141632767Y-72932481D01*
X141514233Y-73051015D01*
X141374852Y-73144147D01*
X141219980Y-73208297D01*
X141055568Y-73241000D01*
X140887936Y-73241000D01*
X140723524Y-73208297D01*
X140568652Y-73144147D01*
X140429271Y-73051015D01*
X140310737Y-72932481D01*
X140217605Y-72793100D01*
X140153455Y-72638228D01*
X140120752Y-72473816D01*
X140120752Y-72306184D01*
X140153455Y-72141772D01*
X140217605Y-71986900D01*
X140310737Y-71847519D01*
X140429271Y-71728985D01*
X140568652Y-71635853D01*
X140723524Y-71571703D01*
X140887936Y-71539000D01*
X141055568Y-71539000D01*
X141219980Y-71571703D01*
X141219980Y-71571703D01*
G37*
G36*
X118506442Y-71205518D02*
X118572627Y-71212037D01*
X118685853Y-71246384D01*
X118742467Y-71263557D01*
X118881087Y-71337652D01*
X118898991Y-71347222D01*
X118934729Y-71376552D01*
X119036186Y-71459814D01*
X119101171Y-71539000D01*
X119148778Y-71597009D01*
X119148779Y-71597011D01*
X119232443Y-71753533D01*
X119232443Y-71753534D01*
X119283963Y-71923373D01*
X119301359Y-72100000D01*
X119283963Y-72276627D01*
X119274997Y-72306184D01*
X119232443Y-72446467D01*
X119164925Y-72572782D01*
X119148778Y-72602991D01*
X119119860Y-72638228D01*
X119036186Y-72740186D01*
X118942746Y-72816869D01*
X118898991Y-72852778D01*
X118898989Y-72852779D01*
X118742467Y-72936443D01*
X118733981Y-72939017D01*
X118572627Y-72987963D01*
X118506443Y-72994481D01*
X118440260Y-73001000D01*
X118351740Y-73001000D01*
X118285557Y-72994481D01*
X118219373Y-72987963D01*
X118058019Y-72939017D01*
X118049533Y-72936443D01*
X117893011Y-72852779D01*
X117893009Y-72852778D01*
X117849254Y-72816869D01*
X117755814Y-72740186D01*
X117672140Y-72638228D01*
X117643222Y-72602991D01*
X117627075Y-72572782D01*
X117559557Y-72446467D01*
X117517003Y-72306184D01*
X117508037Y-72276627D01*
X117490641Y-72100000D01*
X117508037Y-71923373D01*
X117559557Y-71753534D01*
X117559557Y-71753533D01*
X117643221Y-71597011D01*
X117643222Y-71597009D01*
X117690829Y-71539000D01*
X117755814Y-71459814D01*
X117857271Y-71376552D01*
X117893009Y-71347222D01*
X117910913Y-71337652D01*
X118049533Y-71263557D01*
X118106147Y-71246384D01*
X118219373Y-71212037D01*
X118285558Y-71205518D01*
X118351740Y-71199000D01*
X118440260Y-71199000D01*
X118506442Y-71205518D01*
X118506442Y-71205518D01*
G37*
G36*
X115966442Y-71205518D02*
X116032627Y-71212037D01*
X116145853Y-71246384D01*
X116202467Y-71263557D01*
X116341087Y-71337652D01*
X116358991Y-71347222D01*
X116394729Y-71376552D01*
X116496186Y-71459814D01*
X116561171Y-71539000D01*
X116608778Y-71597009D01*
X116608779Y-71597011D01*
X116692443Y-71753533D01*
X116692443Y-71753534D01*
X116743963Y-71923373D01*
X116761359Y-72100000D01*
X116743963Y-72276627D01*
X116734997Y-72306184D01*
X116692443Y-72446467D01*
X116624925Y-72572782D01*
X116608778Y-72602991D01*
X116579860Y-72638228D01*
X116496186Y-72740186D01*
X116402746Y-72816869D01*
X116358991Y-72852778D01*
X116358989Y-72852779D01*
X116202467Y-72936443D01*
X116193981Y-72939017D01*
X116032627Y-72987963D01*
X115966443Y-72994481D01*
X115900260Y-73001000D01*
X115811740Y-73001000D01*
X115745557Y-72994481D01*
X115679373Y-72987963D01*
X115518019Y-72939017D01*
X115509533Y-72936443D01*
X115353011Y-72852779D01*
X115353009Y-72852778D01*
X115309254Y-72816869D01*
X115215814Y-72740186D01*
X115132140Y-72638228D01*
X115103222Y-72602991D01*
X115087075Y-72572782D01*
X115019557Y-72446467D01*
X114977003Y-72306184D01*
X114968037Y-72276627D01*
X114950641Y-72100000D01*
X114968037Y-71923373D01*
X115019557Y-71753534D01*
X115019557Y-71753533D01*
X115103221Y-71597011D01*
X115103222Y-71597009D01*
X115150829Y-71539000D01*
X115215814Y-71459814D01*
X115317271Y-71376552D01*
X115353009Y-71347222D01*
X115370913Y-71337652D01*
X115509533Y-71263557D01*
X115566147Y-71246384D01*
X115679373Y-71212037D01*
X115745558Y-71205518D01*
X115811740Y-71199000D01*
X115900260Y-71199000D01*
X115966442Y-71205518D01*
X115966442Y-71205518D01*
G37*
G36*
X113426442Y-71205518D02*
X113492627Y-71212037D01*
X113605853Y-71246384D01*
X113662467Y-71263557D01*
X113801087Y-71337652D01*
X113818991Y-71347222D01*
X113854729Y-71376552D01*
X113956186Y-71459814D01*
X114021171Y-71539000D01*
X114068778Y-71597009D01*
X114068779Y-71597011D01*
X114152443Y-71753533D01*
X114152443Y-71753534D01*
X114203963Y-71923373D01*
X114221359Y-72100000D01*
X114203963Y-72276627D01*
X114194997Y-72306184D01*
X114152443Y-72446467D01*
X114084925Y-72572782D01*
X114068778Y-72602991D01*
X114039860Y-72638228D01*
X113956186Y-72740186D01*
X113862746Y-72816869D01*
X113818991Y-72852778D01*
X113818989Y-72852779D01*
X113662467Y-72936443D01*
X113653981Y-72939017D01*
X113492627Y-72987963D01*
X113426443Y-72994481D01*
X113360260Y-73001000D01*
X113271740Y-73001000D01*
X113205557Y-72994481D01*
X113139373Y-72987963D01*
X112978019Y-72939017D01*
X112969533Y-72936443D01*
X112813011Y-72852779D01*
X112813009Y-72852778D01*
X112769254Y-72816869D01*
X112675814Y-72740186D01*
X112592140Y-72638228D01*
X112563222Y-72602991D01*
X112547075Y-72572782D01*
X112479557Y-72446467D01*
X112437003Y-72306184D01*
X112428037Y-72276627D01*
X112410641Y-72100000D01*
X112428037Y-71923373D01*
X112479557Y-71753534D01*
X112479557Y-71753533D01*
X112563221Y-71597011D01*
X112563222Y-71597009D01*
X112610829Y-71539000D01*
X112675814Y-71459814D01*
X112777271Y-71376552D01*
X112813009Y-71347222D01*
X112830913Y-71337652D01*
X112969533Y-71263557D01*
X113026147Y-71246384D01*
X113139373Y-71212037D01*
X113205558Y-71205518D01*
X113271740Y-71199000D01*
X113360260Y-71199000D01*
X113426442Y-71205518D01*
X113426442Y-71205518D01*
G37*
G36*
X111677000Y-73001000D02*
X109875000Y-73001000D01*
X109875000Y-71199000D01*
X111677000Y-71199000D01*
X111677000Y-73001000D01*
X111677000Y-73001000D01*
G37*
M02*
