G04 #@! TF.GenerationSoftware,KiCad,Pcbnew,(5.0.2)-1*
G04 #@! TF.CreationDate,2019-03-31T12:57:04+02:00*
G04 #@! TF.ProjectId,CCdrum,43436472-756d-42e6-9b69-6361645f7063,rev?*
G04 #@! TF.SameCoordinates,Original*
G04 #@! TF.FileFunction,Paste,Top*
G04 #@! TF.FilePolarity,Positive*
%FSLAX46Y46*%
G04 Gerber Fmt 4.6, Leading zero omitted, Abs format (unit mm)*
G04 Created by KiCad (PCBNEW (5.0.2)-1) date 31/03/2019 12:57:04*
%MOMM*%
%LPD*%
G01*
G04 APERTURE LIST*
%ADD10R,1.900000X1.750000*%
%ADD11R,1.400000X0.400000*%
%ADD12R,1.450000X1.150000*%
%ADD13C,0.100000*%
%ADD14C,1.150000*%
%ADD15R,2.000000X3.800000*%
%ADD16R,2.000000X1.500000*%
%ADD17R,1.560000X0.650000*%
G04 APERTURE END LIST*
D10*
G04 #@! TO.C,J1*
X31500000Y-133025000D03*
D11*
X34150000Y-131250000D03*
X34150000Y-130600000D03*
X34150000Y-133200000D03*
X34150000Y-132550000D03*
X34150000Y-131900000D03*
D10*
X31500000Y-130775000D03*
D12*
X33730000Y-134220000D03*
X33730000Y-129580000D03*
G04 #@! TD*
D13*
G04 #@! TO.C,D4*
G36*
X80194505Y-140401204D02*
X80218773Y-140404804D01*
X80242572Y-140410765D01*
X80265671Y-140419030D01*
X80287850Y-140429520D01*
X80308893Y-140442132D01*
X80328599Y-140456747D01*
X80346777Y-140473223D01*
X80363253Y-140491401D01*
X80377868Y-140511107D01*
X80390480Y-140532150D01*
X80400970Y-140554329D01*
X80409235Y-140577428D01*
X80415196Y-140601227D01*
X80418796Y-140625495D01*
X80420000Y-140649999D01*
X80420000Y-141550001D01*
X80418796Y-141574505D01*
X80415196Y-141598773D01*
X80409235Y-141622572D01*
X80400970Y-141645671D01*
X80390480Y-141667850D01*
X80377868Y-141688893D01*
X80363253Y-141708599D01*
X80346777Y-141726777D01*
X80328599Y-141743253D01*
X80308893Y-141757868D01*
X80287850Y-141770480D01*
X80265671Y-141780970D01*
X80242572Y-141789235D01*
X80218773Y-141795196D01*
X80194505Y-141798796D01*
X80170001Y-141800000D01*
X79519999Y-141800000D01*
X79495495Y-141798796D01*
X79471227Y-141795196D01*
X79447428Y-141789235D01*
X79424329Y-141780970D01*
X79402150Y-141770480D01*
X79381107Y-141757868D01*
X79361401Y-141743253D01*
X79343223Y-141726777D01*
X79326747Y-141708599D01*
X79312132Y-141688893D01*
X79299520Y-141667850D01*
X79289030Y-141645671D01*
X79280765Y-141622572D01*
X79274804Y-141598773D01*
X79271204Y-141574505D01*
X79270000Y-141550001D01*
X79270000Y-140649999D01*
X79271204Y-140625495D01*
X79274804Y-140601227D01*
X79280765Y-140577428D01*
X79289030Y-140554329D01*
X79299520Y-140532150D01*
X79312132Y-140511107D01*
X79326747Y-140491401D01*
X79343223Y-140473223D01*
X79361401Y-140456747D01*
X79381107Y-140442132D01*
X79402150Y-140429520D01*
X79424329Y-140419030D01*
X79447428Y-140410765D01*
X79471227Y-140404804D01*
X79495495Y-140401204D01*
X79519999Y-140400000D01*
X80170001Y-140400000D01*
X80194505Y-140401204D01*
X80194505Y-140401204D01*
G37*
D14*
X79845000Y-141100000D03*
D13*
G36*
X78144505Y-140401204D02*
X78168773Y-140404804D01*
X78192572Y-140410765D01*
X78215671Y-140419030D01*
X78237850Y-140429520D01*
X78258893Y-140442132D01*
X78278599Y-140456747D01*
X78296777Y-140473223D01*
X78313253Y-140491401D01*
X78327868Y-140511107D01*
X78340480Y-140532150D01*
X78350970Y-140554329D01*
X78359235Y-140577428D01*
X78365196Y-140601227D01*
X78368796Y-140625495D01*
X78370000Y-140649999D01*
X78370000Y-141550001D01*
X78368796Y-141574505D01*
X78365196Y-141598773D01*
X78359235Y-141622572D01*
X78350970Y-141645671D01*
X78340480Y-141667850D01*
X78327868Y-141688893D01*
X78313253Y-141708599D01*
X78296777Y-141726777D01*
X78278599Y-141743253D01*
X78258893Y-141757868D01*
X78237850Y-141770480D01*
X78215671Y-141780970D01*
X78192572Y-141789235D01*
X78168773Y-141795196D01*
X78144505Y-141798796D01*
X78120001Y-141800000D01*
X77469999Y-141800000D01*
X77445495Y-141798796D01*
X77421227Y-141795196D01*
X77397428Y-141789235D01*
X77374329Y-141780970D01*
X77352150Y-141770480D01*
X77331107Y-141757868D01*
X77311401Y-141743253D01*
X77293223Y-141726777D01*
X77276747Y-141708599D01*
X77262132Y-141688893D01*
X77249520Y-141667850D01*
X77239030Y-141645671D01*
X77230765Y-141622572D01*
X77224804Y-141598773D01*
X77221204Y-141574505D01*
X77220000Y-141550001D01*
X77220000Y-140649999D01*
X77221204Y-140625495D01*
X77224804Y-140601227D01*
X77230765Y-140577428D01*
X77239030Y-140554329D01*
X77249520Y-140532150D01*
X77262132Y-140511107D01*
X77276747Y-140491401D01*
X77293223Y-140473223D01*
X77311401Y-140456747D01*
X77331107Y-140442132D01*
X77352150Y-140429520D01*
X77374329Y-140419030D01*
X77397428Y-140410765D01*
X77421227Y-140404804D01*
X77445495Y-140401204D01*
X77469999Y-140400000D01*
X78120001Y-140400000D01*
X78144505Y-140401204D01*
X78144505Y-140401204D01*
G37*
D14*
X77795000Y-141100000D03*
G04 #@! TD*
D13*
G04 #@! TO.C,D1*
G36*
X36624505Y-140401204D02*
X36648773Y-140404804D01*
X36672572Y-140410765D01*
X36695671Y-140419030D01*
X36717850Y-140429520D01*
X36738893Y-140442132D01*
X36758599Y-140456747D01*
X36776777Y-140473223D01*
X36793253Y-140491401D01*
X36807868Y-140511107D01*
X36820480Y-140532150D01*
X36830970Y-140554329D01*
X36839235Y-140577428D01*
X36845196Y-140601227D01*
X36848796Y-140625495D01*
X36850000Y-140649999D01*
X36850000Y-141550001D01*
X36848796Y-141574505D01*
X36845196Y-141598773D01*
X36839235Y-141622572D01*
X36830970Y-141645671D01*
X36820480Y-141667850D01*
X36807868Y-141688893D01*
X36793253Y-141708599D01*
X36776777Y-141726777D01*
X36758599Y-141743253D01*
X36738893Y-141757868D01*
X36717850Y-141770480D01*
X36695671Y-141780970D01*
X36672572Y-141789235D01*
X36648773Y-141795196D01*
X36624505Y-141798796D01*
X36600001Y-141800000D01*
X35949999Y-141800000D01*
X35925495Y-141798796D01*
X35901227Y-141795196D01*
X35877428Y-141789235D01*
X35854329Y-141780970D01*
X35832150Y-141770480D01*
X35811107Y-141757868D01*
X35791401Y-141743253D01*
X35773223Y-141726777D01*
X35756747Y-141708599D01*
X35742132Y-141688893D01*
X35729520Y-141667850D01*
X35719030Y-141645671D01*
X35710765Y-141622572D01*
X35704804Y-141598773D01*
X35701204Y-141574505D01*
X35700000Y-141550001D01*
X35700000Y-140649999D01*
X35701204Y-140625495D01*
X35704804Y-140601227D01*
X35710765Y-140577428D01*
X35719030Y-140554329D01*
X35729520Y-140532150D01*
X35742132Y-140511107D01*
X35756747Y-140491401D01*
X35773223Y-140473223D01*
X35791401Y-140456747D01*
X35811107Y-140442132D01*
X35832150Y-140429520D01*
X35854329Y-140419030D01*
X35877428Y-140410765D01*
X35901227Y-140404804D01*
X35925495Y-140401204D01*
X35949999Y-140400000D01*
X36600001Y-140400000D01*
X36624505Y-140401204D01*
X36624505Y-140401204D01*
G37*
D14*
X36275000Y-141100000D03*
D13*
G36*
X38674505Y-140401204D02*
X38698773Y-140404804D01*
X38722572Y-140410765D01*
X38745671Y-140419030D01*
X38767850Y-140429520D01*
X38788893Y-140442132D01*
X38808599Y-140456747D01*
X38826777Y-140473223D01*
X38843253Y-140491401D01*
X38857868Y-140511107D01*
X38870480Y-140532150D01*
X38880970Y-140554329D01*
X38889235Y-140577428D01*
X38895196Y-140601227D01*
X38898796Y-140625495D01*
X38900000Y-140649999D01*
X38900000Y-141550001D01*
X38898796Y-141574505D01*
X38895196Y-141598773D01*
X38889235Y-141622572D01*
X38880970Y-141645671D01*
X38870480Y-141667850D01*
X38857868Y-141688893D01*
X38843253Y-141708599D01*
X38826777Y-141726777D01*
X38808599Y-141743253D01*
X38788893Y-141757868D01*
X38767850Y-141770480D01*
X38745671Y-141780970D01*
X38722572Y-141789235D01*
X38698773Y-141795196D01*
X38674505Y-141798796D01*
X38650001Y-141800000D01*
X37999999Y-141800000D01*
X37975495Y-141798796D01*
X37951227Y-141795196D01*
X37927428Y-141789235D01*
X37904329Y-141780970D01*
X37882150Y-141770480D01*
X37861107Y-141757868D01*
X37841401Y-141743253D01*
X37823223Y-141726777D01*
X37806747Y-141708599D01*
X37792132Y-141688893D01*
X37779520Y-141667850D01*
X37769030Y-141645671D01*
X37760765Y-141622572D01*
X37754804Y-141598773D01*
X37751204Y-141574505D01*
X37750000Y-141550001D01*
X37750000Y-140649999D01*
X37751204Y-140625495D01*
X37754804Y-140601227D01*
X37760765Y-140577428D01*
X37769030Y-140554329D01*
X37779520Y-140532150D01*
X37792132Y-140511107D01*
X37806747Y-140491401D01*
X37823223Y-140473223D01*
X37841401Y-140456747D01*
X37861107Y-140442132D01*
X37882150Y-140429520D01*
X37904329Y-140419030D01*
X37927428Y-140410765D01*
X37951227Y-140404804D01*
X37975495Y-140401204D01*
X37999999Y-140400000D01*
X38650001Y-140400000D01*
X38674505Y-140401204D01*
X38674505Y-140401204D01*
G37*
D14*
X38325000Y-141100000D03*
G04 #@! TD*
D13*
G04 #@! TO.C,D3*
G36*
X66354505Y-140401204D02*
X66378773Y-140404804D01*
X66402572Y-140410765D01*
X66425671Y-140419030D01*
X66447850Y-140429520D01*
X66468893Y-140442132D01*
X66488599Y-140456747D01*
X66506777Y-140473223D01*
X66523253Y-140491401D01*
X66537868Y-140511107D01*
X66550480Y-140532150D01*
X66560970Y-140554329D01*
X66569235Y-140577428D01*
X66575196Y-140601227D01*
X66578796Y-140625495D01*
X66580000Y-140649999D01*
X66580000Y-141550001D01*
X66578796Y-141574505D01*
X66575196Y-141598773D01*
X66569235Y-141622572D01*
X66560970Y-141645671D01*
X66550480Y-141667850D01*
X66537868Y-141688893D01*
X66523253Y-141708599D01*
X66506777Y-141726777D01*
X66488599Y-141743253D01*
X66468893Y-141757868D01*
X66447850Y-141770480D01*
X66425671Y-141780970D01*
X66402572Y-141789235D01*
X66378773Y-141795196D01*
X66354505Y-141798796D01*
X66330001Y-141800000D01*
X65679999Y-141800000D01*
X65655495Y-141798796D01*
X65631227Y-141795196D01*
X65607428Y-141789235D01*
X65584329Y-141780970D01*
X65562150Y-141770480D01*
X65541107Y-141757868D01*
X65521401Y-141743253D01*
X65503223Y-141726777D01*
X65486747Y-141708599D01*
X65472132Y-141688893D01*
X65459520Y-141667850D01*
X65449030Y-141645671D01*
X65440765Y-141622572D01*
X65434804Y-141598773D01*
X65431204Y-141574505D01*
X65430000Y-141550001D01*
X65430000Y-140649999D01*
X65431204Y-140625495D01*
X65434804Y-140601227D01*
X65440765Y-140577428D01*
X65449030Y-140554329D01*
X65459520Y-140532150D01*
X65472132Y-140511107D01*
X65486747Y-140491401D01*
X65503223Y-140473223D01*
X65521401Y-140456747D01*
X65541107Y-140442132D01*
X65562150Y-140429520D01*
X65584329Y-140419030D01*
X65607428Y-140410765D01*
X65631227Y-140404804D01*
X65655495Y-140401204D01*
X65679999Y-140400000D01*
X66330001Y-140400000D01*
X66354505Y-140401204D01*
X66354505Y-140401204D01*
G37*
D14*
X66005000Y-141100000D03*
D13*
G36*
X64304505Y-140401204D02*
X64328773Y-140404804D01*
X64352572Y-140410765D01*
X64375671Y-140419030D01*
X64397850Y-140429520D01*
X64418893Y-140442132D01*
X64438599Y-140456747D01*
X64456777Y-140473223D01*
X64473253Y-140491401D01*
X64487868Y-140511107D01*
X64500480Y-140532150D01*
X64510970Y-140554329D01*
X64519235Y-140577428D01*
X64525196Y-140601227D01*
X64528796Y-140625495D01*
X64530000Y-140649999D01*
X64530000Y-141550001D01*
X64528796Y-141574505D01*
X64525196Y-141598773D01*
X64519235Y-141622572D01*
X64510970Y-141645671D01*
X64500480Y-141667850D01*
X64487868Y-141688893D01*
X64473253Y-141708599D01*
X64456777Y-141726777D01*
X64438599Y-141743253D01*
X64418893Y-141757868D01*
X64397850Y-141770480D01*
X64375671Y-141780970D01*
X64352572Y-141789235D01*
X64328773Y-141795196D01*
X64304505Y-141798796D01*
X64280001Y-141800000D01*
X63629999Y-141800000D01*
X63605495Y-141798796D01*
X63581227Y-141795196D01*
X63557428Y-141789235D01*
X63534329Y-141780970D01*
X63512150Y-141770480D01*
X63491107Y-141757868D01*
X63471401Y-141743253D01*
X63453223Y-141726777D01*
X63436747Y-141708599D01*
X63422132Y-141688893D01*
X63409520Y-141667850D01*
X63399030Y-141645671D01*
X63390765Y-141622572D01*
X63384804Y-141598773D01*
X63381204Y-141574505D01*
X63380000Y-141550001D01*
X63380000Y-140649999D01*
X63381204Y-140625495D01*
X63384804Y-140601227D01*
X63390765Y-140577428D01*
X63399030Y-140554329D01*
X63409520Y-140532150D01*
X63422132Y-140511107D01*
X63436747Y-140491401D01*
X63453223Y-140473223D01*
X63471401Y-140456747D01*
X63491107Y-140442132D01*
X63512150Y-140429520D01*
X63534329Y-140419030D01*
X63557428Y-140410765D01*
X63581227Y-140404804D01*
X63605495Y-140401204D01*
X63629999Y-140400000D01*
X64280001Y-140400000D01*
X64304505Y-140401204D01*
X64304505Y-140401204D01*
G37*
D14*
X63955000Y-141100000D03*
G04 #@! TD*
D13*
G04 #@! TO.C,D5*
G36*
X91984505Y-140401204D02*
X92008773Y-140404804D01*
X92032572Y-140410765D01*
X92055671Y-140419030D01*
X92077850Y-140429520D01*
X92098893Y-140442132D01*
X92118599Y-140456747D01*
X92136777Y-140473223D01*
X92153253Y-140491401D01*
X92167868Y-140511107D01*
X92180480Y-140532150D01*
X92190970Y-140554329D01*
X92199235Y-140577428D01*
X92205196Y-140601227D01*
X92208796Y-140625495D01*
X92210000Y-140649999D01*
X92210000Y-141550001D01*
X92208796Y-141574505D01*
X92205196Y-141598773D01*
X92199235Y-141622572D01*
X92190970Y-141645671D01*
X92180480Y-141667850D01*
X92167868Y-141688893D01*
X92153253Y-141708599D01*
X92136777Y-141726777D01*
X92118599Y-141743253D01*
X92098893Y-141757868D01*
X92077850Y-141770480D01*
X92055671Y-141780970D01*
X92032572Y-141789235D01*
X92008773Y-141795196D01*
X91984505Y-141798796D01*
X91960001Y-141800000D01*
X91309999Y-141800000D01*
X91285495Y-141798796D01*
X91261227Y-141795196D01*
X91237428Y-141789235D01*
X91214329Y-141780970D01*
X91192150Y-141770480D01*
X91171107Y-141757868D01*
X91151401Y-141743253D01*
X91133223Y-141726777D01*
X91116747Y-141708599D01*
X91102132Y-141688893D01*
X91089520Y-141667850D01*
X91079030Y-141645671D01*
X91070765Y-141622572D01*
X91064804Y-141598773D01*
X91061204Y-141574505D01*
X91060000Y-141550001D01*
X91060000Y-140649999D01*
X91061204Y-140625495D01*
X91064804Y-140601227D01*
X91070765Y-140577428D01*
X91079030Y-140554329D01*
X91089520Y-140532150D01*
X91102132Y-140511107D01*
X91116747Y-140491401D01*
X91133223Y-140473223D01*
X91151401Y-140456747D01*
X91171107Y-140442132D01*
X91192150Y-140429520D01*
X91214329Y-140419030D01*
X91237428Y-140410765D01*
X91261227Y-140404804D01*
X91285495Y-140401204D01*
X91309999Y-140400000D01*
X91960001Y-140400000D01*
X91984505Y-140401204D01*
X91984505Y-140401204D01*
G37*
D14*
X91635000Y-141100000D03*
D13*
G36*
X94034505Y-140401204D02*
X94058773Y-140404804D01*
X94082572Y-140410765D01*
X94105671Y-140419030D01*
X94127850Y-140429520D01*
X94148893Y-140442132D01*
X94168599Y-140456747D01*
X94186777Y-140473223D01*
X94203253Y-140491401D01*
X94217868Y-140511107D01*
X94230480Y-140532150D01*
X94240970Y-140554329D01*
X94249235Y-140577428D01*
X94255196Y-140601227D01*
X94258796Y-140625495D01*
X94260000Y-140649999D01*
X94260000Y-141550001D01*
X94258796Y-141574505D01*
X94255196Y-141598773D01*
X94249235Y-141622572D01*
X94240970Y-141645671D01*
X94230480Y-141667850D01*
X94217868Y-141688893D01*
X94203253Y-141708599D01*
X94186777Y-141726777D01*
X94168599Y-141743253D01*
X94148893Y-141757868D01*
X94127850Y-141770480D01*
X94105671Y-141780970D01*
X94082572Y-141789235D01*
X94058773Y-141795196D01*
X94034505Y-141798796D01*
X94010001Y-141800000D01*
X93359999Y-141800000D01*
X93335495Y-141798796D01*
X93311227Y-141795196D01*
X93287428Y-141789235D01*
X93264329Y-141780970D01*
X93242150Y-141770480D01*
X93221107Y-141757868D01*
X93201401Y-141743253D01*
X93183223Y-141726777D01*
X93166747Y-141708599D01*
X93152132Y-141688893D01*
X93139520Y-141667850D01*
X93129030Y-141645671D01*
X93120765Y-141622572D01*
X93114804Y-141598773D01*
X93111204Y-141574505D01*
X93110000Y-141550001D01*
X93110000Y-140649999D01*
X93111204Y-140625495D01*
X93114804Y-140601227D01*
X93120765Y-140577428D01*
X93129030Y-140554329D01*
X93139520Y-140532150D01*
X93152132Y-140511107D01*
X93166747Y-140491401D01*
X93183223Y-140473223D01*
X93201401Y-140456747D01*
X93221107Y-140442132D01*
X93242150Y-140429520D01*
X93264329Y-140419030D01*
X93287428Y-140410765D01*
X93311227Y-140404804D01*
X93335495Y-140401204D01*
X93359999Y-140400000D01*
X94010001Y-140400000D01*
X94034505Y-140401204D01*
X94034505Y-140401204D01*
G37*
D14*
X93685000Y-141100000D03*
G04 #@! TD*
D13*
G04 #@! TO.C,D6*
G36*
X107874505Y-140401204D02*
X107898773Y-140404804D01*
X107922572Y-140410765D01*
X107945671Y-140419030D01*
X107967850Y-140429520D01*
X107988893Y-140442132D01*
X108008599Y-140456747D01*
X108026777Y-140473223D01*
X108043253Y-140491401D01*
X108057868Y-140511107D01*
X108070480Y-140532150D01*
X108080970Y-140554329D01*
X108089235Y-140577428D01*
X108095196Y-140601227D01*
X108098796Y-140625495D01*
X108100000Y-140649999D01*
X108100000Y-141550001D01*
X108098796Y-141574505D01*
X108095196Y-141598773D01*
X108089235Y-141622572D01*
X108080970Y-141645671D01*
X108070480Y-141667850D01*
X108057868Y-141688893D01*
X108043253Y-141708599D01*
X108026777Y-141726777D01*
X108008599Y-141743253D01*
X107988893Y-141757868D01*
X107967850Y-141770480D01*
X107945671Y-141780970D01*
X107922572Y-141789235D01*
X107898773Y-141795196D01*
X107874505Y-141798796D01*
X107850001Y-141800000D01*
X107199999Y-141800000D01*
X107175495Y-141798796D01*
X107151227Y-141795196D01*
X107127428Y-141789235D01*
X107104329Y-141780970D01*
X107082150Y-141770480D01*
X107061107Y-141757868D01*
X107041401Y-141743253D01*
X107023223Y-141726777D01*
X107006747Y-141708599D01*
X106992132Y-141688893D01*
X106979520Y-141667850D01*
X106969030Y-141645671D01*
X106960765Y-141622572D01*
X106954804Y-141598773D01*
X106951204Y-141574505D01*
X106950000Y-141550001D01*
X106950000Y-140649999D01*
X106951204Y-140625495D01*
X106954804Y-140601227D01*
X106960765Y-140577428D01*
X106969030Y-140554329D01*
X106979520Y-140532150D01*
X106992132Y-140511107D01*
X107006747Y-140491401D01*
X107023223Y-140473223D01*
X107041401Y-140456747D01*
X107061107Y-140442132D01*
X107082150Y-140429520D01*
X107104329Y-140419030D01*
X107127428Y-140410765D01*
X107151227Y-140404804D01*
X107175495Y-140401204D01*
X107199999Y-140400000D01*
X107850001Y-140400000D01*
X107874505Y-140401204D01*
X107874505Y-140401204D01*
G37*
D14*
X107525000Y-141100000D03*
D13*
G36*
X105824505Y-140401204D02*
X105848773Y-140404804D01*
X105872572Y-140410765D01*
X105895671Y-140419030D01*
X105917850Y-140429520D01*
X105938893Y-140442132D01*
X105958599Y-140456747D01*
X105976777Y-140473223D01*
X105993253Y-140491401D01*
X106007868Y-140511107D01*
X106020480Y-140532150D01*
X106030970Y-140554329D01*
X106039235Y-140577428D01*
X106045196Y-140601227D01*
X106048796Y-140625495D01*
X106050000Y-140649999D01*
X106050000Y-141550001D01*
X106048796Y-141574505D01*
X106045196Y-141598773D01*
X106039235Y-141622572D01*
X106030970Y-141645671D01*
X106020480Y-141667850D01*
X106007868Y-141688893D01*
X105993253Y-141708599D01*
X105976777Y-141726777D01*
X105958599Y-141743253D01*
X105938893Y-141757868D01*
X105917850Y-141770480D01*
X105895671Y-141780970D01*
X105872572Y-141789235D01*
X105848773Y-141795196D01*
X105824505Y-141798796D01*
X105800001Y-141800000D01*
X105149999Y-141800000D01*
X105125495Y-141798796D01*
X105101227Y-141795196D01*
X105077428Y-141789235D01*
X105054329Y-141780970D01*
X105032150Y-141770480D01*
X105011107Y-141757868D01*
X104991401Y-141743253D01*
X104973223Y-141726777D01*
X104956747Y-141708599D01*
X104942132Y-141688893D01*
X104929520Y-141667850D01*
X104919030Y-141645671D01*
X104910765Y-141622572D01*
X104904804Y-141598773D01*
X104901204Y-141574505D01*
X104900000Y-141550001D01*
X104900000Y-140649999D01*
X104901204Y-140625495D01*
X104904804Y-140601227D01*
X104910765Y-140577428D01*
X104919030Y-140554329D01*
X104929520Y-140532150D01*
X104942132Y-140511107D01*
X104956747Y-140491401D01*
X104973223Y-140473223D01*
X104991401Y-140456747D01*
X105011107Y-140442132D01*
X105032150Y-140429520D01*
X105054329Y-140419030D01*
X105077428Y-140410765D01*
X105101227Y-140404804D01*
X105125495Y-140401204D01*
X105149999Y-140400000D01*
X105800001Y-140400000D01*
X105824505Y-140401204D01*
X105824505Y-140401204D01*
G37*
D14*
X105475000Y-141100000D03*
G04 #@! TD*
D13*
G04 #@! TO.C,D2*
G36*
X50464505Y-140401204D02*
X50488773Y-140404804D01*
X50512572Y-140410765D01*
X50535671Y-140419030D01*
X50557850Y-140429520D01*
X50578893Y-140442132D01*
X50598599Y-140456747D01*
X50616777Y-140473223D01*
X50633253Y-140491401D01*
X50647868Y-140511107D01*
X50660480Y-140532150D01*
X50670970Y-140554329D01*
X50679235Y-140577428D01*
X50685196Y-140601227D01*
X50688796Y-140625495D01*
X50690000Y-140649999D01*
X50690000Y-141550001D01*
X50688796Y-141574505D01*
X50685196Y-141598773D01*
X50679235Y-141622572D01*
X50670970Y-141645671D01*
X50660480Y-141667850D01*
X50647868Y-141688893D01*
X50633253Y-141708599D01*
X50616777Y-141726777D01*
X50598599Y-141743253D01*
X50578893Y-141757868D01*
X50557850Y-141770480D01*
X50535671Y-141780970D01*
X50512572Y-141789235D01*
X50488773Y-141795196D01*
X50464505Y-141798796D01*
X50440001Y-141800000D01*
X49789999Y-141800000D01*
X49765495Y-141798796D01*
X49741227Y-141795196D01*
X49717428Y-141789235D01*
X49694329Y-141780970D01*
X49672150Y-141770480D01*
X49651107Y-141757868D01*
X49631401Y-141743253D01*
X49613223Y-141726777D01*
X49596747Y-141708599D01*
X49582132Y-141688893D01*
X49569520Y-141667850D01*
X49559030Y-141645671D01*
X49550765Y-141622572D01*
X49544804Y-141598773D01*
X49541204Y-141574505D01*
X49540000Y-141550001D01*
X49540000Y-140649999D01*
X49541204Y-140625495D01*
X49544804Y-140601227D01*
X49550765Y-140577428D01*
X49559030Y-140554329D01*
X49569520Y-140532150D01*
X49582132Y-140511107D01*
X49596747Y-140491401D01*
X49613223Y-140473223D01*
X49631401Y-140456747D01*
X49651107Y-140442132D01*
X49672150Y-140429520D01*
X49694329Y-140419030D01*
X49717428Y-140410765D01*
X49741227Y-140404804D01*
X49765495Y-140401204D01*
X49789999Y-140400000D01*
X50440001Y-140400000D01*
X50464505Y-140401204D01*
X50464505Y-140401204D01*
G37*
D14*
X50115000Y-141100000D03*
D13*
G36*
X52514505Y-140401204D02*
X52538773Y-140404804D01*
X52562572Y-140410765D01*
X52585671Y-140419030D01*
X52607850Y-140429520D01*
X52628893Y-140442132D01*
X52648599Y-140456747D01*
X52666777Y-140473223D01*
X52683253Y-140491401D01*
X52697868Y-140511107D01*
X52710480Y-140532150D01*
X52720970Y-140554329D01*
X52729235Y-140577428D01*
X52735196Y-140601227D01*
X52738796Y-140625495D01*
X52740000Y-140649999D01*
X52740000Y-141550001D01*
X52738796Y-141574505D01*
X52735196Y-141598773D01*
X52729235Y-141622572D01*
X52720970Y-141645671D01*
X52710480Y-141667850D01*
X52697868Y-141688893D01*
X52683253Y-141708599D01*
X52666777Y-141726777D01*
X52648599Y-141743253D01*
X52628893Y-141757868D01*
X52607850Y-141770480D01*
X52585671Y-141780970D01*
X52562572Y-141789235D01*
X52538773Y-141795196D01*
X52514505Y-141798796D01*
X52490001Y-141800000D01*
X51839999Y-141800000D01*
X51815495Y-141798796D01*
X51791227Y-141795196D01*
X51767428Y-141789235D01*
X51744329Y-141780970D01*
X51722150Y-141770480D01*
X51701107Y-141757868D01*
X51681401Y-141743253D01*
X51663223Y-141726777D01*
X51646747Y-141708599D01*
X51632132Y-141688893D01*
X51619520Y-141667850D01*
X51609030Y-141645671D01*
X51600765Y-141622572D01*
X51594804Y-141598773D01*
X51591204Y-141574505D01*
X51590000Y-141550001D01*
X51590000Y-140649999D01*
X51591204Y-140625495D01*
X51594804Y-140601227D01*
X51600765Y-140577428D01*
X51609030Y-140554329D01*
X51619520Y-140532150D01*
X51632132Y-140511107D01*
X51646747Y-140491401D01*
X51663223Y-140473223D01*
X51681401Y-140456747D01*
X51701107Y-140442132D01*
X51722150Y-140429520D01*
X51744329Y-140419030D01*
X51767428Y-140410765D01*
X51791227Y-140404804D01*
X51815495Y-140401204D01*
X51839999Y-140400000D01*
X52490001Y-140400000D01*
X52514505Y-140401204D01*
X52514505Y-140401204D01*
G37*
D14*
X52165000Y-141100000D03*
G04 #@! TD*
D15*
G04 #@! TO.C,U2*
X46450000Y-132000000D03*
D16*
X40150000Y-132000000D03*
X40150000Y-134300000D03*
X40150000Y-129700000D03*
G04 #@! TD*
D17*
G04 #@! TO.C,U3*
X116750000Y-144050000D03*
X116750000Y-143100000D03*
X116750000Y-142150000D03*
X114050000Y-142150000D03*
X114050000Y-144050000D03*
G04 #@! TD*
M02*
