M48
INCH,TZ
T1C0.0157
T2C0.0177
T3C0.0315
T4C0.0394
T5C0.0433
T6C0.0550
T7C0.0866
%
G90
G05
T1
X25669Y-52362
X25945Y-52756
X26299Y-53110
X34213Y-52559
X34449Y-53071
X37008Y-52008
X42717Y-52165
T3
X14646Y-52165
X14646Y-54134
X35620Y-51016
X35620Y-54016
X23793Y-51016
X23793Y-54016
X19606Y-51016
X19606Y-54016
X16811Y-50315
X18780Y-50315
X22398Y-51016
X22398Y-54016
X39807Y-51016
X39807Y-54016
X21002Y-51016
X21002Y-54016
X41203Y-51016
X41203Y-54016
X37016Y-51016
X37016Y-54016
X25209Y-50996
X25209Y-53996
X26209Y-50996
X26209Y-53996
X27209Y-50996
X27209Y-53996
X28209Y-50996
X28209Y-53996
X29209Y-50996
X29209Y-53996
X30209Y-50996
X30209Y-53996
X31209Y-50996
X31209Y-53996
X32209Y-50996
X32209Y-53996
X33209Y-50996
X33209Y-53996
X34209Y-50996
X34209Y-53996
X38411Y-51016
X38411Y-54016
T4
X24598Y-57953
X25583Y-57953
X26567Y-57953
X35496Y-57953
X36480Y-57953
X37465Y-57953
X13701Y-57953
X14685Y-57953
X15669Y-57953
X12598Y-49921
X13598Y-49921
X14598Y-49921
X15598Y-49921
X30047Y-57953
X31031Y-57953
X32016Y-57953
X19150Y-57953
X20134Y-57953
X21118Y-57953
X40945Y-57953
X41929Y-57953
X42913Y-57953
T5
X48287Y-59449
X48287Y-62008
X50059Y-59449
X50059Y-62008
X45157Y-59449
X45157Y-62008
X46929Y-59449
X46929Y-62008
T6
X45237Y-51498
X45237Y-55432
X46221Y-53465
X46222Y-50513
X46222Y-56417
X50157Y-51496
X50157Y-55434
T7
X29142Y-60709
X32921Y-60709
X18244Y-60709
X22024Y-60709
X40039Y-60709
X43819Y-60709
X23693Y-60709
X27472Y-60709
X34591Y-60709
X38370Y-60709
X12795Y-60709
X16575Y-60709
T2
X12283Y-51663G85X12598Y-51663
G05
X12598Y-54478G85X12283Y-54478
G05
T0
M30
