G04 #@! TF.GenerationSoftware,KiCad,Pcbnew,(5.0.2)-1*
G04 #@! TF.CreationDate,2019-04-21T18:34:51+02:00*
G04 #@! TF.ProjectId,CCdrum,43436472-756d-42e6-9b69-6361645f7063,rev?*
G04 #@! TF.SameCoordinates,Original*
G04 #@! TF.FileFunction,Profile,NP*
%FSLAX46Y46*%
G04 Gerber Fmt 4.6, Leading zero omitted, Abs format (unit mm)*
G04 Created by KiCad (PCBNEW (5.0.2)-1) date 21/04/2019 18:34:51*
%MOMM*%
%LPD*%
G01*
G04 APERTURE LIST*
%ADD10C,0.200000*%
G04 APERTURE END LIST*
D10*
X137300000Y-109100000D02*
G75*
G02X135700000Y-107500000I0J1600000D01*
G01*
X36500000Y-153200000D02*
G75*
G02X34900000Y-151600000I0J1600000D01*
G01*
X38500000Y-153200000D02*
G75*
G02X40100000Y-154800000I0J-1600000D01*
G01*
X41700000Y-158400000D02*
G75*
G02X40100000Y-156800000I0J1600000D01*
G01*
X135700000Y-156800000D02*
G75*
G02X134100000Y-158400000I-1600000J0D01*
G01*
X135700000Y-154800000D02*
G75*
G02X137300000Y-153200000I1600000J0D01*
G01*
X140900000Y-151600000D02*
G75*
G02X139300000Y-153200000I-1600000J0D01*
G01*
X139300000Y-109100000D02*
G75*
G02X140900000Y-110700000I0J-1600000D01*
G01*
X134100000Y-103900000D02*
G75*
G02X135700000Y-105500000I0J-1600000D01*
G01*
X40100000Y-105500000D02*
G75*
G02X41700000Y-103900000I1600000J0D01*
G01*
X40100000Y-107500000D02*
G75*
G02X38500000Y-109100000I-1600000J0D01*
G01*
X34900000Y-110700000D02*
G75*
G02X36500000Y-109100000I1600000J0D01*
G01*
X38500000Y-153200000D02*
X36500000Y-153200000D01*
X40100000Y-156800000D02*
X40100000Y-154800000D01*
X137300000Y-153200000D02*
X139300000Y-153200000D01*
X135700000Y-156800000D02*
X135700000Y-154800000D01*
X137300000Y-109100000D02*
X139300000Y-109100000D01*
X135700000Y-105500000D02*
X135700000Y-107500000D01*
X40100000Y-107500000D02*
X40100000Y-105500000D01*
X36500000Y-109100000D02*
X38500000Y-109100000D01*
X41700000Y-103900000D02*
X134100000Y-103900000D01*
X140900000Y-151600000D02*
X140900000Y-110700000D01*
X34900000Y-151600000D02*
X34900000Y-110700000D01*
X41700000Y-158400000D02*
X134100000Y-158400000D01*
M02*
