M48
INCH,TZ
T1C0.0157
T2C0.0315
T3C0.0315
T4C0.0354
T5C0.0394
T6C0.0433
T7C0.0550
T8C0.0866
T9C0.1181
%
G90
G05
T1
X23543Y-50827
X27663Y-48268
X29291Y-48307
X30669Y-48386
X31220Y-47362
X31457Y-46890
X34213Y-50945
X34724Y-46890
X34764Y-47362
X36417Y-49646
X40906Y-49528
X42992Y-49409
X51417Y-54567
T2
X32945Y-44409
X35945Y-44409
X16732Y-44370
X18701Y-44370
X29016Y-44409
X30984Y-44409
X24646Y-46291
X24646Y-49291
X40847Y-48791
X40847Y-51791
X16732Y-42283
X18701Y-42283
X44921Y-43457
X44921Y-46457
X48390Y-48780
X48390Y-51780
X49390Y-48780
X49390Y-51780
X50390Y-48780
X50390Y-51780
X51390Y-48780
X51390Y-51780
X52390Y-48780
X52390Y-51780
X53390Y-48780
X53390Y-51780
X54390Y-48780
X54390Y-51780
X42341Y-48780
X42341Y-51780
X43341Y-48780
X43341Y-51780
X44341Y-48780
X44341Y-51780
X45341Y-48780
X45341Y-51780
X25819Y-50906
X28819Y-50906
X46844Y-48791
X46844Y-51791
X32000Y-50906
X35000Y-50906
X25197Y-44409
X27165Y-44409
X28507Y-42323
X31507Y-42323
X39364Y-48791
X39364Y-51791
X32945Y-42323
X35945Y-42323
X25100Y-42323
X27068Y-42323
X36752Y-48791
X36752Y-51791
X26220Y-46291
X26220Y-49291
X27220Y-46291
X27220Y-49291
X28220Y-46291
X28220Y-49291
X29220Y-46291
X29220Y-49291
X30220Y-46291
X30220Y-49291
X31220Y-46291
X31220Y-49291
X32220Y-46291
X32220Y-49291
X33220Y-46291
X33220Y-49291
X34220Y-46291
X34220Y-49291
X35220Y-46291
X35220Y-49291
T3
X38058Y-48821
X38058Y-51821
T4
X46260Y-54055
X47260Y-54055
X23709Y-54055
X24709Y-54055
X18071Y-54055
X19071Y-54055
X29346Y-54055
X30346Y-54055
X40622Y-54055
X41622Y-54055
X35000Y-54055
X36000Y-54055
T5
X45787Y-57244
X46772Y-57244
X47756Y-57244
X23236Y-57244
X24220Y-57244
X25205Y-57244
X17598Y-57244
X18583Y-57244
X19567Y-57244
X40150Y-57244
X41134Y-57244
X42118Y-57244
X34512Y-57244
X35496Y-57244
X36480Y-57244
X28874Y-57244
X29858Y-57244
X30843Y-57244
T6
X20591Y-49409
X21591Y-49409
X22591Y-49409
X50551Y-53780
X50551Y-56339
X52323Y-53780
X52323Y-56339
X50551Y-58701
X50551Y-61260
X52323Y-58701
X52323Y-61260
T7
X46418Y-45688
X47401Y-41753
X47403Y-46673
X49370Y-45689
X51337Y-46673
X51339Y-41753
X52322Y-45688
X37520Y-45727
X38503Y-41792
X38505Y-46712
X40472Y-45728
X42439Y-46712
X42441Y-41792
X43424Y-45727
T8
X27969Y-60000
X31748Y-60000
X44882Y-60000
X48661Y-60000
X22331Y-60000
X26110Y-60000
X16693Y-60000
X20472Y-60000
X39244Y-60000
X43024Y-60000
X33606Y-60000
X37386Y-60000
T9
X14961Y-44173
X14961Y-59094
X54252Y-44173
X54252Y-59094
T5
X15669Y-46929G85X15669Y-47717
G05
X16457Y-49173G85X17244Y-49173
G05
X18031Y-46929G85X18031Y-47717
G05
T0
M30
