G04 #@! TF.GenerationSoftware,KiCad,Pcbnew,(5.0.2)-1*
G04 #@! TF.CreationDate,2019-04-21T18:34:51+02:00*
G04 #@! TF.ProjectId,CCdrum,43436472-756d-42e6-9b69-6361645f7063,rev?*
G04 #@! TF.SameCoordinates,Original*
G04 #@! TF.FileFunction,Legend,Top*
G04 #@! TF.FilePolarity,Positive*
%FSLAX46Y46*%
G04 Gerber Fmt 4.6, Leading zero omitted, Abs format (unit mm)*
G04 Created by KiCad (PCBNEW (5.0.2)-1) date 21/04/2019 18:34:51*
%MOMM*%
%LPD*%
G01*
G04 APERTURE LIST*
%ADD10C,0.150000*%
%ADD11C,0.200000*%
%ADD12C,0.300000*%
%ADD13C,0.120000*%
%ADD14C,0.304800*%
G04 APERTURE END LIST*
D10*
X42900000Y-127850000D02*
X43350000Y-127850000D01*
X47650000Y-128100000D02*
X47650000Y-127650000D01*
X47400000Y-127850000D02*
X47850000Y-127850000D01*
D11*
X45500000Y-127850000D02*
X47050000Y-127850000D01*
X44850000Y-127850000D02*
X43700000Y-127850000D01*
D12*
X45570711Y-127850000D02*
G75*
G03X45570711Y-127850000I-70711J0D01*
G01*
D11*
X45875820Y-128272797D02*
G75*
G02X45899999Y-127450001I-375820J422797D01*
G01*
X43575721Y-127477494D02*
G75*
G02X43549999Y-128249999I-425721J-372506D01*
G01*
X48200000Y-127850000D02*
G75*
G03X48200000Y-127850000I-565685J0D01*
G01*
X43700000Y-127850000D02*
G75*
G03X43700000Y-127850000I-565685J0D01*
G01*
X36723809Y-127352380D02*
X36247618Y-127352380D01*
X36199999Y-127828571D01*
X36247618Y-127780952D01*
X36342857Y-127733333D01*
X36580952Y-127733333D01*
X36676190Y-127780952D01*
X36723809Y-127828571D01*
X36771428Y-127923809D01*
X36771428Y-128161904D01*
X36723809Y-128257142D01*
X36676190Y-128304761D01*
X36580952Y-128352380D01*
X36342857Y-128352380D01*
X36247618Y-128304761D01*
X36199999Y-128257142D01*
X37057142Y-127352380D02*
X37390476Y-128352380D01*
X37723809Y-127352380D01*
X38057142Y-127971428D02*
X38819047Y-127971428D01*
X39247618Y-127447619D02*
X39295238Y-127400000D01*
X39390476Y-127352380D01*
X39628571Y-127352380D01*
X39723809Y-127400000D01*
X39771428Y-127447619D01*
X39819047Y-127542857D01*
X39819047Y-127638095D01*
X39771428Y-127780952D01*
X39199999Y-128352380D01*
X39819047Y-128352380D01*
X40438095Y-127352380D02*
X40533333Y-127352380D01*
X40628571Y-127400000D01*
X40676190Y-127447619D01*
X40723809Y-127542857D01*
X40771428Y-127733333D01*
X40771428Y-127971428D01*
X40723809Y-128161904D01*
X40676190Y-128257142D01*
X40628571Y-128304761D01*
X40533333Y-128352380D01*
X40438095Y-128352380D01*
X40342857Y-128304761D01*
X40295238Y-128257142D01*
X40247618Y-128161904D01*
X40199999Y-127971428D01*
X40199999Y-127733333D01*
X40247618Y-127542857D01*
X40295238Y-127447619D01*
X40342857Y-127400000D01*
X40438095Y-127352380D01*
X41057142Y-127352380D02*
X41390476Y-128352380D01*
X41723809Y-127352380D01*
D12*
X127885714Y-116042857D02*
X127314285Y-116042857D01*
X127257142Y-116614285D01*
X127314285Y-116557142D01*
X127428571Y-116500000D01*
X127714285Y-116500000D01*
X127828571Y-116557142D01*
X127885714Y-116614285D01*
X127942857Y-116728571D01*
X127942857Y-117014285D01*
X127885714Y-117128571D01*
X127828571Y-117185714D01*
X127714285Y-117242857D01*
X127428571Y-117242857D01*
X127314285Y-117185714D01*
X127257142Y-117128571D01*
X121028571Y-116442857D02*
X121028571Y-117242857D01*
X120742857Y-115985714D02*
X120457142Y-116842857D01*
X121200000Y-116842857D01*
X107485714Y-116142857D02*
X106914285Y-116142857D01*
X106857142Y-116714285D01*
X106914285Y-116657142D01*
X107028571Y-116600000D01*
X107314285Y-116600000D01*
X107428571Y-116657142D01*
X107485714Y-116714285D01*
X107542857Y-116828571D01*
X107542857Y-117114285D01*
X107485714Y-117228571D01*
X107428571Y-117285714D01*
X107314285Y-117342857D01*
X107028571Y-117342857D01*
X106914285Y-117285714D01*
X106857142Y-117228571D01*
X100628571Y-116442857D02*
X100628571Y-117242857D01*
X100342857Y-115985714D02*
X100057142Y-116842857D01*
X100800000Y-116842857D01*
D11*
X36646190Y-129335714D02*
X36646190Y-130145238D01*
X36598571Y-130240476D01*
X36550952Y-130288095D01*
X36455714Y-130335714D01*
X36312857Y-130335714D01*
X36217619Y-130288095D01*
X36646190Y-129954761D02*
X36550952Y-130002380D01*
X36360476Y-130002380D01*
X36265238Y-129954761D01*
X36217619Y-129907142D01*
X36170000Y-129811904D01*
X36170000Y-129526190D01*
X36217619Y-129430952D01*
X36265238Y-129383333D01*
X36360476Y-129335714D01*
X36550952Y-129335714D01*
X36646190Y-129383333D01*
X37122381Y-130002380D02*
X37122381Y-129335714D01*
X37122381Y-129002380D02*
X37074762Y-129050000D01*
X37122381Y-129097619D01*
X37170000Y-129050000D01*
X37122381Y-129002380D01*
X37122381Y-129097619D01*
X37455714Y-129335714D02*
X37836667Y-129335714D01*
X37598571Y-129002380D02*
X37598571Y-129859523D01*
X37646190Y-129954761D01*
X37741429Y-130002380D01*
X37836667Y-130002380D01*
X38170000Y-130002380D02*
X38170000Y-129002380D01*
X38598571Y-130002380D02*
X38598571Y-129478571D01*
X38550952Y-129383333D01*
X38455714Y-129335714D01*
X38312857Y-129335714D01*
X38217619Y-129383333D01*
X38170000Y-129430952D01*
X39503333Y-129335714D02*
X39503333Y-130002380D01*
X39074762Y-129335714D02*
X39074762Y-129859523D01*
X39122381Y-129954761D01*
X39217619Y-130002380D01*
X39360476Y-130002380D01*
X39455714Y-129954761D01*
X39503333Y-129907142D01*
X39979524Y-130002380D02*
X39979524Y-129002380D01*
X39979524Y-129383333D02*
X40074762Y-129335714D01*
X40265238Y-129335714D01*
X40360476Y-129383333D01*
X40408095Y-129430952D01*
X40455714Y-129526190D01*
X40455714Y-129811904D01*
X40408095Y-129907142D01*
X40360476Y-129954761D01*
X40265238Y-130002380D01*
X40074762Y-130002380D01*
X39979524Y-129954761D01*
X40884286Y-129907142D02*
X40931905Y-129954761D01*
X40884286Y-130002380D01*
X40836667Y-129954761D01*
X40884286Y-129907142D01*
X40884286Y-130002380D01*
X41789048Y-129954761D02*
X41693809Y-130002380D01*
X41503333Y-130002380D01*
X41408095Y-129954761D01*
X41360476Y-129907142D01*
X41312857Y-129811904D01*
X41312857Y-129526190D01*
X41360476Y-129430952D01*
X41408095Y-129383333D01*
X41503333Y-129335714D01*
X41693809Y-129335714D01*
X41789048Y-129383333D01*
X42360476Y-130002380D02*
X42265238Y-129954761D01*
X42217619Y-129907142D01*
X42170000Y-129811904D01*
X42170000Y-129526190D01*
X42217619Y-129430952D01*
X42265238Y-129383333D01*
X42360476Y-129335714D01*
X42503333Y-129335714D01*
X42598571Y-129383333D01*
X42646190Y-129430952D01*
X42693809Y-129526190D01*
X42693809Y-129811904D01*
X42646190Y-129907142D01*
X42598571Y-129954761D01*
X42503333Y-130002380D01*
X42360476Y-130002380D01*
X43122381Y-130002380D02*
X43122381Y-129335714D01*
X43122381Y-129430952D02*
X43170000Y-129383333D01*
X43265238Y-129335714D01*
X43408095Y-129335714D01*
X43503333Y-129383333D01*
X43550952Y-129478571D01*
X43550952Y-130002380D01*
X43550952Y-129478571D02*
X43598571Y-129383333D01*
X43693809Y-129335714D01*
X43836667Y-129335714D01*
X43931905Y-129383333D01*
X43979524Y-129478571D01*
X43979524Y-130002380D01*
X45170000Y-128954761D02*
X44312857Y-130240476D01*
X45455714Y-129954761D02*
X45550952Y-130002380D01*
X45741429Y-130002380D01*
X45836667Y-129954761D01*
X45884286Y-129859523D01*
X45884286Y-129811904D01*
X45836667Y-129716666D01*
X45741429Y-129669047D01*
X45598571Y-129669047D01*
X45503333Y-129621428D01*
X45455714Y-129526190D01*
X45455714Y-129478571D01*
X45503333Y-129383333D01*
X45598571Y-129335714D01*
X45741429Y-129335714D01*
X45836667Y-129383333D01*
X46693809Y-129954761D02*
X46598571Y-130002380D01*
X46408095Y-130002380D01*
X46312857Y-129954761D01*
X46265238Y-129859523D01*
X46265238Y-129478571D01*
X46312857Y-129383333D01*
X46408095Y-129335714D01*
X46598571Y-129335714D01*
X46693809Y-129383333D01*
X46741429Y-129478571D01*
X46741429Y-129573809D01*
X46265238Y-129669047D01*
X47170000Y-129335714D02*
X47170000Y-130002380D01*
X47170000Y-129430952D02*
X47217619Y-129383333D01*
X47312857Y-129335714D01*
X47455714Y-129335714D01*
X47550952Y-129383333D01*
X47598571Y-129478571D01*
X47598571Y-130002380D01*
X48027143Y-129954761D02*
X48122381Y-130002380D01*
X48312857Y-130002380D01*
X48408095Y-129954761D01*
X48455714Y-129859523D01*
X48455714Y-129811904D01*
X48408095Y-129716666D01*
X48312857Y-129669047D01*
X48170000Y-129669047D01*
X48074762Y-129621428D01*
X48027143Y-129526190D01*
X48027143Y-129478571D01*
X48074762Y-129383333D01*
X48170000Y-129335714D01*
X48312857Y-129335714D01*
X48408095Y-129383333D01*
X49312857Y-130002380D02*
X49312857Y-129478571D01*
X49265238Y-129383333D01*
X49170000Y-129335714D01*
X48979524Y-129335714D01*
X48884286Y-129383333D01*
X49312857Y-129954761D02*
X49217619Y-130002380D01*
X48979524Y-130002380D01*
X48884286Y-129954761D01*
X48836667Y-129859523D01*
X48836667Y-129764285D01*
X48884286Y-129669047D01*
X48979524Y-129621428D01*
X49217619Y-129621428D01*
X49312857Y-129573809D01*
X49789048Y-130002380D02*
X49789048Y-129335714D01*
X49789048Y-129002380D02*
X49741429Y-129050000D01*
X49789048Y-129097619D01*
X49836667Y-129050000D01*
X49789048Y-129002380D01*
X49789048Y-129097619D01*
X50170000Y-129002380D02*
X50836667Y-129002380D01*
X50408095Y-130002380D01*
X51931905Y-128954761D02*
X51074762Y-130240476D01*
X52836667Y-129907142D02*
X52789048Y-129954761D01*
X52646190Y-130002380D01*
X52550952Y-130002380D01*
X52408095Y-129954761D01*
X52312857Y-129859523D01*
X52265238Y-129764285D01*
X52217619Y-129573809D01*
X52217619Y-129430952D01*
X52265238Y-129240476D01*
X52312857Y-129145238D01*
X52408095Y-129050000D01*
X52550952Y-129002380D01*
X52646190Y-129002380D01*
X52789048Y-129050000D01*
X52836667Y-129097619D01*
X53836667Y-129907142D02*
X53789048Y-129954761D01*
X53646190Y-130002380D01*
X53550952Y-130002380D01*
X53408095Y-129954761D01*
X53312857Y-129859523D01*
X53265238Y-129764285D01*
X53217619Y-129573809D01*
X53217619Y-129430952D01*
X53265238Y-129240476D01*
X53312857Y-129145238D01*
X53408095Y-129050000D01*
X53550952Y-129002380D01*
X53646190Y-129002380D01*
X53789048Y-129050000D01*
X53836667Y-129097619D01*
X54122381Y-129002380D02*
X54455714Y-130002380D01*
X54789048Y-129002380D01*
X55122381Y-130002380D02*
X55122381Y-129002380D01*
X55360476Y-129002380D01*
X55503333Y-129050000D01*
X55598571Y-129145238D01*
X55646190Y-129240476D01*
X55693809Y-129430952D01*
X55693809Y-129573809D01*
X55646190Y-129764285D01*
X55598571Y-129859523D01*
X55503333Y-129954761D01*
X55360476Y-130002380D01*
X55122381Y-130002380D01*
X56122381Y-130002380D02*
X56122381Y-129335714D01*
X56122381Y-129526190D02*
X56170000Y-129430952D01*
X56217619Y-129383333D01*
X56312857Y-129335714D01*
X56408095Y-129335714D01*
X57170000Y-129335714D02*
X57170000Y-130002380D01*
X56741429Y-129335714D02*
X56741429Y-129859523D01*
X56789048Y-129954761D01*
X56884286Y-130002380D01*
X57027143Y-130002380D01*
X57122381Y-129954761D01*
X57170000Y-129907142D01*
X57646190Y-130002380D02*
X57646190Y-129335714D01*
X57646190Y-129430952D02*
X57693809Y-129383333D01*
X57789048Y-129335714D01*
X57931905Y-129335714D01*
X58027143Y-129383333D01*
X58074762Y-129478571D01*
X58074762Y-130002380D01*
X58074762Y-129478571D02*
X58122381Y-129383333D01*
X58217619Y-129335714D01*
X58360476Y-129335714D01*
X58455714Y-129383333D01*
X58503333Y-129478571D01*
X58503333Y-130002380D01*
X36789047Y-131557142D02*
X36741428Y-131604761D01*
X36598571Y-131652380D01*
X36503333Y-131652380D01*
X36360476Y-131604761D01*
X36265238Y-131509523D01*
X36217619Y-131414285D01*
X36169999Y-131223809D01*
X36169999Y-131080952D01*
X36217619Y-130890476D01*
X36265238Y-130795238D01*
X36360476Y-130700000D01*
X36503333Y-130652380D01*
X36598571Y-130652380D01*
X36741428Y-130700000D01*
X36789047Y-130747619D01*
X37789047Y-131557142D02*
X37741428Y-131604761D01*
X37598571Y-131652380D01*
X37503333Y-131652380D01*
X37360476Y-131604761D01*
X37265238Y-131509523D01*
X37217619Y-131414285D01*
X37169999Y-131223809D01*
X37169999Y-131080952D01*
X37217619Y-130890476D01*
X37265238Y-130795238D01*
X37360476Y-130700000D01*
X37503333Y-130652380D01*
X37598571Y-130652380D01*
X37741428Y-130700000D01*
X37789047Y-130747619D01*
X38074761Y-130652380D02*
X38408095Y-131652380D01*
X38741428Y-130652380D01*
X39074761Y-131652380D02*
X39074761Y-130652380D01*
X39312857Y-130652380D01*
X39455714Y-130700000D01*
X39550952Y-130795238D01*
X39598571Y-130890476D01*
X39646190Y-131080952D01*
X39646190Y-131223809D01*
X39598571Y-131414285D01*
X39550952Y-131509523D01*
X39455714Y-131604761D01*
X39312857Y-131652380D01*
X39074761Y-131652380D01*
X40074761Y-131652380D02*
X40074761Y-130985714D01*
X40074761Y-131176190D02*
X40122380Y-131080952D01*
X40169999Y-131033333D01*
X40265238Y-130985714D01*
X40360476Y-130985714D01*
X41122380Y-130985714D02*
X41122380Y-131652380D01*
X40693809Y-130985714D02*
X40693809Y-131509523D01*
X40741428Y-131604761D01*
X40836666Y-131652380D01*
X40979523Y-131652380D01*
X41074761Y-131604761D01*
X41122380Y-131557142D01*
X41598571Y-131652380D02*
X41598571Y-130985714D01*
X41598571Y-131080952D02*
X41646190Y-131033333D01*
X41741428Y-130985714D01*
X41884285Y-130985714D01*
X41979523Y-131033333D01*
X42027142Y-131128571D01*
X42027142Y-131652380D01*
X42027142Y-131128571D02*
X42074761Y-131033333D01*
X42169999Y-130985714D01*
X42312857Y-130985714D01*
X42408095Y-131033333D01*
X42455714Y-131128571D01*
X42455714Y-131652380D01*
X43550952Y-130652380D02*
X43884285Y-131652380D01*
X44217619Y-130652380D01*
X44741428Y-130652380D02*
X44836666Y-130652380D01*
X44931904Y-130700000D01*
X44979523Y-130747619D01*
X45027142Y-130842857D01*
X45074761Y-131033333D01*
X45074761Y-131271428D01*
X45027142Y-131461904D01*
X44979523Y-131557142D01*
X44931904Y-131604761D01*
X44836666Y-131652380D01*
X44741428Y-131652380D01*
X44646190Y-131604761D01*
X44598571Y-131557142D01*
X44550952Y-131461904D01*
X44503333Y-131271428D01*
X44503333Y-131033333D01*
X44550952Y-130842857D01*
X44598571Y-130747619D01*
X44646190Y-130700000D01*
X44741428Y-130652380D01*
X45503333Y-131557142D02*
X45550952Y-131604761D01*
X45503333Y-131652380D01*
X45455714Y-131604761D01*
X45503333Y-131557142D01*
X45503333Y-131652380D01*
X45884285Y-130652380D02*
X46503333Y-130652380D01*
X46169999Y-131033333D01*
X46312857Y-131033333D01*
X46408095Y-131080952D01*
X46455714Y-131128571D01*
X46503333Y-131223809D01*
X46503333Y-131461904D01*
X46455714Y-131557142D01*
X46408095Y-131604761D01*
X46312857Y-131652380D01*
X46027142Y-131652380D01*
X45931904Y-131604761D01*
X45884285Y-131557142D01*
X47550952Y-130985714D02*
X47931904Y-130985714D01*
X47693809Y-131652380D02*
X47693809Y-130795238D01*
X47741428Y-130700000D01*
X47836666Y-130652380D01*
X47931904Y-130652380D01*
X48408095Y-131652380D02*
X48312857Y-131604761D01*
X48265238Y-131557142D01*
X48217619Y-131461904D01*
X48217619Y-131176190D01*
X48265238Y-131080952D01*
X48312857Y-131033333D01*
X48408095Y-130985714D01*
X48550952Y-130985714D01*
X48646190Y-131033333D01*
X48693809Y-131080952D01*
X48741428Y-131176190D01*
X48741428Y-131461904D01*
X48693809Y-131557142D01*
X48646190Y-131604761D01*
X48550952Y-131652380D01*
X48408095Y-131652380D01*
X49169999Y-131652380D02*
X49169999Y-130985714D01*
X49169999Y-131176190D02*
X49217619Y-131080952D01*
X49265238Y-131033333D01*
X49360476Y-130985714D01*
X49455714Y-130985714D01*
X50550952Y-131652380D02*
X50550952Y-130652380D01*
X51122380Y-131652380D02*
X50693809Y-131080952D01*
X51122380Y-130652380D02*
X50550952Y-131223809D01*
X51693809Y-131652380D02*
X51598571Y-131604761D01*
X51550952Y-131557142D01*
X51503333Y-131461904D01*
X51503333Y-131176190D01*
X51550952Y-131080952D01*
X51598571Y-131033333D01*
X51693809Y-130985714D01*
X51836666Y-130985714D01*
X51931904Y-131033333D01*
X51979523Y-131080952D01*
X52027142Y-131176190D01*
X52027142Y-131461904D01*
X51979523Y-131557142D01*
X51931904Y-131604761D01*
X51836666Y-131652380D01*
X51693809Y-131652380D01*
X52455714Y-131652380D02*
X52455714Y-130985714D01*
X52455714Y-131176190D02*
X52503333Y-131080952D01*
X52550952Y-131033333D01*
X52646190Y-130985714D01*
X52741428Y-130985714D01*
X53503333Y-130985714D02*
X53503333Y-131795238D01*
X53455714Y-131890476D01*
X53408095Y-131938095D01*
X53312857Y-131985714D01*
X53169999Y-131985714D01*
X53074761Y-131938095D01*
X53503333Y-131604761D02*
X53408095Y-131652380D01*
X53217619Y-131652380D01*
X53122380Y-131604761D01*
X53074761Y-131557142D01*
X53027142Y-131461904D01*
X53027142Y-131176190D01*
X53074761Y-131080952D01*
X53122380Y-131033333D01*
X53217619Y-130985714D01*
X53408095Y-130985714D01*
X53503333Y-131033333D01*
X54598571Y-130652380D02*
X54931904Y-131652380D01*
X55265238Y-130652380D01*
X55741428Y-131652380D02*
X55646190Y-131604761D01*
X55598571Y-131557142D01*
X55550952Y-131461904D01*
X55550952Y-131176190D01*
X55598571Y-131080952D01*
X55646190Y-131033333D01*
X55741428Y-130985714D01*
X55884285Y-130985714D01*
X55979523Y-131033333D01*
X56027142Y-131080952D01*
X56074761Y-131176190D01*
X56074761Y-131461904D01*
X56027142Y-131557142D01*
X55979523Y-131604761D01*
X55884285Y-131652380D01*
X55741428Y-131652380D01*
X56646190Y-131652380D02*
X56550952Y-131604761D01*
X56503333Y-131509523D01*
X56503333Y-130652380D01*
X57455714Y-131604761D02*
X57360476Y-131652380D01*
X57169999Y-131652380D01*
X57074761Y-131604761D01*
X57027142Y-131557142D01*
X56979523Y-131461904D01*
X56979523Y-131176190D01*
X57027142Y-131080952D01*
X57074761Y-131033333D01*
X57169999Y-130985714D01*
X57360476Y-130985714D01*
X57455714Y-131033333D01*
X58312857Y-131652380D02*
X58312857Y-131128571D01*
X58265238Y-131033333D01*
X58169999Y-130985714D01*
X57979523Y-130985714D01*
X57884285Y-131033333D01*
X58312857Y-131604761D02*
X58217619Y-131652380D01*
X57979523Y-131652380D01*
X57884285Y-131604761D01*
X57836666Y-131509523D01*
X57836666Y-131414285D01*
X57884285Y-131319047D01*
X57979523Y-131271428D01*
X58217619Y-131271428D01*
X58312857Y-131223809D01*
X59550952Y-131652380D02*
X59550952Y-130652380D01*
X59789047Y-130652380D01*
X59931904Y-130700000D01*
X60027142Y-130795238D01*
X60074761Y-130890476D01*
X60122380Y-131080952D01*
X60122380Y-131223809D01*
X60074761Y-131414285D01*
X60027142Y-131509523D01*
X59931904Y-131604761D01*
X59789047Y-131652380D01*
X59550952Y-131652380D01*
X60550952Y-131652380D02*
X60550952Y-130985714D01*
X60550952Y-131176190D02*
X60598571Y-131080952D01*
X60646190Y-131033333D01*
X60741428Y-130985714D01*
X60836666Y-130985714D01*
X61598571Y-130985714D02*
X61598571Y-131652380D01*
X61169999Y-130985714D02*
X61169999Y-131509523D01*
X61217619Y-131604761D01*
X61312857Y-131652380D01*
X61455714Y-131652380D01*
X61550952Y-131604761D01*
X61598571Y-131557142D01*
X62074761Y-131652380D02*
X62074761Y-130985714D01*
X62074761Y-131080952D02*
X62122380Y-131033333D01*
X62217619Y-130985714D01*
X62360476Y-130985714D01*
X62455714Y-131033333D01*
X62503333Y-131128571D01*
X62503333Y-131652380D01*
X62503333Y-131128571D02*
X62550952Y-131033333D01*
X62646190Y-130985714D01*
X62789047Y-130985714D01*
X62884285Y-131033333D01*
X62931904Y-131128571D01*
X62931904Y-131652380D01*
D12*
X75400000Y-133142857D02*
X76142857Y-133142857D01*
X75742857Y-133600000D01*
X75914285Y-133600000D01*
X76028571Y-133657142D01*
X76085714Y-133714285D01*
X76142857Y-133828571D01*
X76142857Y-134114285D01*
X76085714Y-134228571D01*
X76028571Y-134285714D01*
X75914285Y-134342857D01*
X75571428Y-134342857D01*
X75457142Y-134285714D01*
X75400000Y-134228571D01*
X61057142Y-133257142D02*
X61114285Y-133200000D01*
X61228571Y-133142857D01*
X61514285Y-133142857D01*
X61628571Y-133200000D01*
X61685714Y-133257142D01*
X61742857Y-133371428D01*
X61742857Y-133485714D01*
X61685714Y-133657142D01*
X61000000Y-134342857D01*
X61742857Y-134342857D01*
X90428571Y-133542857D02*
X90428571Y-134342857D01*
X90142857Y-133085714D02*
X89857142Y-133942857D01*
X90600000Y-133942857D01*
X119028571Y-133142857D02*
X118800000Y-133142857D01*
X118685714Y-133200000D01*
X118628571Y-133257142D01*
X118514285Y-133428571D01*
X118457142Y-133657142D01*
X118457142Y-134114285D01*
X118514285Y-134228571D01*
X118571428Y-134285714D01*
X118685714Y-134342857D01*
X118914285Y-134342857D01*
X119028571Y-134285714D01*
X119085714Y-134228571D01*
X119142857Y-134114285D01*
X119142857Y-133828571D01*
X119085714Y-133714285D01*
X119028571Y-133657142D01*
X118914285Y-133600000D01*
X118685714Y-133600000D01*
X118571428Y-133657142D01*
X118514285Y-133714285D01*
X118457142Y-133828571D01*
X104785714Y-133142857D02*
X104214285Y-133142857D01*
X104157142Y-133714285D01*
X104214285Y-133657142D01*
X104328571Y-133600000D01*
X104614285Y-133600000D01*
X104728571Y-133657142D01*
X104785714Y-133714285D01*
X104842857Y-133828571D01*
X104842857Y-134114285D01*
X104785714Y-134228571D01*
X104728571Y-134285714D01*
X104614285Y-134342857D01*
X104328571Y-134342857D01*
X104214285Y-134285714D01*
X104157142Y-134228571D01*
X47542857Y-134342857D02*
X46857142Y-134342857D01*
X47200000Y-134342857D02*
X47200000Y-133142857D01*
X47085714Y-133314285D01*
X46971428Y-133428571D01*
X46857142Y-133485714D01*
X130271428Y-146521428D02*
X130342857Y-146450000D01*
X130485714Y-146378571D01*
X130842857Y-146378571D01*
X130985714Y-146450000D01*
X131057142Y-146521428D01*
X131128571Y-146664285D01*
X131128571Y-146807142D01*
X131057142Y-147021428D01*
X130200000Y-147878571D01*
X131128571Y-147878571D01*
X131128571Y-135378571D02*
X130271428Y-135378571D01*
X130700000Y-135378571D02*
X130700000Y-133878571D01*
X130557142Y-134092857D01*
X130414285Y-134235714D01*
X130271428Y-134307142D01*
X117971428Y-141800000D02*
X117857142Y-141742857D01*
X117685714Y-141742857D01*
X117514285Y-141800000D01*
X117400000Y-141914285D01*
X117342857Y-142028571D01*
X117285714Y-142257142D01*
X117285714Y-142428571D01*
X117342857Y-142657142D01*
X117400000Y-142771428D01*
X117514285Y-142885714D01*
X117685714Y-142942857D01*
X117800000Y-142942857D01*
X117971428Y-142885714D01*
X118028571Y-142828571D01*
X118028571Y-142428571D01*
X117800000Y-142428571D01*
X118485714Y-142600000D02*
X119057142Y-142600000D01*
X118371428Y-142942857D02*
X118771428Y-141742857D01*
X119171428Y-142942857D01*
X119571428Y-142942857D02*
X119571428Y-141742857D01*
X120257142Y-142942857D01*
X120257142Y-141742857D01*
X103042857Y-142942857D02*
X103042857Y-141742857D01*
X103500000Y-141742857D01*
X103614285Y-141800000D01*
X103671428Y-141857142D01*
X103728571Y-141971428D01*
X103728571Y-142142857D01*
X103671428Y-142257142D01*
X103614285Y-142314285D01*
X103500000Y-142371428D01*
X103042857Y-142371428D01*
X104185714Y-142600000D02*
X104757142Y-142600000D01*
X104071428Y-142942857D02*
X104471428Y-141742857D01*
X104871428Y-142942857D01*
X105271428Y-142942857D02*
X105271428Y-141742857D01*
X105957142Y-142942857D01*
X105957142Y-141742857D01*
X88771428Y-142942857D02*
X88771428Y-141742857D01*
X89057142Y-141742857D01*
X89228571Y-141800000D01*
X89342857Y-141914285D01*
X89400000Y-142028571D01*
X89457142Y-142257142D01*
X89457142Y-142428571D01*
X89400000Y-142657142D01*
X89342857Y-142771428D01*
X89228571Y-142885714D01*
X89057142Y-142942857D01*
X88771428Y-142942857D01*
X90657142Y-142942857D02*
X90257142Y-142371428D01*
X89971428Y-142942857D02*
X89971428Y-141742857D01*
X90428571Y-141742857D01*
X90542857Y-141800000D01*
X90600000Y-141857142D01*
X90657142Y-141971428D01*
X90657142Y-142142857D01*
X90600000Y-142257142D01*
X90542857Y-142314285D01*
X90428571Y-142371428D01*
X89971428Y-142371428D01*
X91000000Y-141742857D02*
X91400000Y-142942857D01*
X91800000Y-141742857D01*
X74985714Y-142314285D02*
X74585714Y-142314285D01*
X74585714Y-142942857D02*
X74585714Y-141742857D01*
X75157142Y-141742857D01*
X76185714Y-142942857D02*
X75614285Y-142942857D01*
X75614285Y-141742857D01*
X76585714Y-142942857D02*
X76585714Y-141742857D01*
X76871428Y-141742857D01*
X77042857Y-141800000D01*
X77157142Y-141914285D01*
X77214285Y-142028571D01*
X77271428Y-142257142D01*
X77271428Y-142428571D01*
X77214285Y-142657142D01*
X77157142Y-142771428D01*
X77042857Y-142885714D01*
X76871428Y-142942857D01*
X76585714Y-142942857D01*
X60742857Y-142314285D02*
X60914285Y-142371428D01*
X60971428Y-142428571D01*
X61028571Y-142542857D01*
X61028571Y-142714285D01*
X60971428Y-142828571D01*
X60914285Y-142885714D01*
X60800000Y-142942857D01*
X60342857Y-142942857D01*
X60342857Y-141742857D01*
X60742857Y-141742857D01*
X60857142Y-141800000D01*
X60914285Y-141857142D01*
X60971428Y-141971428D01*
X60971428Y-142085714D01*
X60914285Y-142200000D01*
X60857142Y-142257142D01*
X60742857Y-142314285D01*
X60342857Y-142314285D01*
X61542857Y-142942857D02*
X61542857Y-141742857D01*
X61942857Y-141742857D02*
X62628571Y-141742857D01*
X62285714Y-142942857D02*
X62285714Y-141742857D01*
X45314285Y-142942857D02*
X45314285Y-141742857D01*
X45771428Y-141742857D01*
X45885714Y-141800000D01*
X45942857Y-141857142D01*
X46000000Y-141971428D01*
X46000000Y-142142857D01*
X45942857Y-142257142D01*
X45885714Y-142314285D01*
X45771428Y-142371428D01*
X45314285Y-142371428D01*
X46457142Y-142600000D02*
X47028571Y-142600000D01*
X46342857Y-142942857D02*
X46742857Y-141742857D01*
X47142857Y-142942857D01*
X48228571Y-142942857D02*
X47828571Y-142371428D01*
X47542857Y-142942857D02*
X47542857Y-141742857D01*
X48000000Y-141742857D01*
X48114285Y-141800000D01*
X48171428Y-141857142D01*
X48228571Y-141971428D01*
X48228571Y-142142857D01*
X48171428Y-142257142D01*
X48114285Y-142314285D01*
X48000000Y-142371428D01*
X47542857Y-142371428D01*
X48571428Y-141742857D02*
X49257142Y-141742857D01*
X48914285Y-142942857D02*
X48914285Y-141742857D01*
D13*
G04 #@! TO.C,U4*
X139480000Y-128710000D02*
G75*
G02X139480000Y-126710000I0J1000000D01*
G01*
X139480000Y-126710000D02*
X139480000Y-125060000D01*
X139480000Y-125060000D02*
X121580000Y-125060000D01*
X121580000Y-125060000D02*
X121580000Y-130360000D01*
X121580000Y-130360000D02*
X139480000Y-130360000D01*
X139480000Y-130360000D02*
X139480000Y-128710000D01*
G04 #@! TO.C,D1*
X97683333Y-130101511D02*
X95651333Y-130101511D01*
X97683333Y-125529511D02*
X97683333Y-130101511D01*
X95651333Y-125529511D02*
X97683333Y-125529511D01*
X95651333Y-130101511D02*
X95651333Y-125529511D01*
X96667333Y-130101511D02*
X96667333Y-131625511D01*
X96667333Y-124005511D02*
X96667333Y-125529511D01*
X95651333Y-126545511D02*
X97683333Y-126545511D01*
X97683333Y-126291511D02*
X95651333Y-126291511D01*
G04 #@! TO.C,U2*
X57380000Y-121810000D02*
X57380000Y-124350000D01*
X54840000Y-121810000D02*
X54840000Y-124350000D01*
X52300000Y-121810000D02*
X52300000Y-124350000D01*
X59960000Y-105920000D02*
X59960000Y-121810000D01*
X49720000Y-105920000D02*
X49720000Y-121810000D01*
X49720000Y-105920000D02*
X59960000Y-105920000D01*
X49720000Y-121810000D02*
X59960000Y-121810000D01*
D14*
G04 #@! TO.C,J4*
X95800240Y-118260000D02*
X95800240Y-120150000D01*
X109800240Y-118260000D02*
X109800240Y-120150000D01*
X95790000Y-118250240D02*
X93800000Y-118250240D01*
X111790000Y-118250240D02*
X109800000Y-118250240D01*
X92299640Y-104651160D02*
X92299640Y-104150780D01*
X113300360Y-103650400D02*
X113300360Y-104150780D01*
X111298840Y-105149000D02*
X111298840Y-104651160D01*
X94301160Y-104651160D02*
X94301160Y-105149000D01*
X111799220Y-105149000D02*
X111298840Y-105149000D01*
X93800780Y-105149000D02*
X94301160Y-105149000D01*
X111799220Y-104651160D02*
X92299640Y-104651160D01*
X111799220Y-104150780D02*
X111799220Y-104651160D01*
X113300360Y-104150780D02*
X111799220Y-104150780D01*
X93800780Y-103650400D02*
X113300360Y-103650400D01*
X93800780Y-104150780D02*
X93800780Y-103650400D01*
X92299640Y-104150780D02*
X93800780Y-104150780D01*
X93800780Y-118230000D02*
X93800780Y-105149000D01*
X109800000Y-120150240D02*
X95800000Y-120150240D01*
X111799220Y-118230000D02*
X111799220Y-105149000D01*
X113300360Y-103899320D02*
X93800780Y-103899320D01*
X93800780Y-104150780D02*
X111799220Y-104150780D01*
X111799220Y-104399700D02*
X92299640Y-104399700D01*
G04 #@! TO.C,J5*
X118400240Y-118160000D02*
X118400240Y-120050000D01*
X132400240Y-118160000D02*
X132400240Y-120050000D01*
X118390000Y-118150240D02*
X116400000Y-118150240D01*
X134390000Y-118150240D02*
X132400000Y-118150240D01*
X114899640Y-104551160D02*
X114899640Y-104050780D01*
X135900360Y-103550400D02*
X135900360Y-104050780D01*
X133898840Y-105049000D02*
X133898840Y-104551160D01*
X116901160Y-104551160D02*
X116901160Y-105049000D01*
X134399220Y-105049000D02*
X133898840Y-105049000D01*
X116400780Y-105049000D02*
X116901160Y-105049000D01*
X134399220Y-104551160D02*
X114899640Y-104551160D01*
X134399220Y-104050780D02*
X134399220Y-104551160D01*
X135900360Y-104050780D02*
X134399220Y-104050780D01*
X116400780Y-103550400D02*
X135900360Y-103550400D01*
X116400780Y-104050780D02*
X116400780Y-103550400D01*
X114899640Y-104050780D02*
X116400780Y-104050780D01*
X116400780Y-118130000D02*
X116400780Y-105049000D01*
X132400000Y-120050240D02*
X118400000Y-120050240D01*
X134399220Y-118130000D02*
X134399220Y-105049000D01*
X135900360Y-103799320D02*
X116400780Y-103799320D01*
X116400780Y-104050780D02*
X134399220Y-104050780D01*
X134399220Y-104299700D02*
X114899640Y-104299700D01*
D13*
G04 #@! TO.C,U3*
X116497332Y-130360000D02*
X116497332Y-128710000D01*
X106217332Y-130360000D02*
X116497332Y-130360000D01*
X106217332Y-125060000D02*
X106217332Y-130360000D01*
X116497332Y-125060000D02*
X106217332Y-125060000D01*
X116497332Y-126710000D02*
X116497332Y-125060000D01*
X116497332Y-128710000D02*
G75*
G02X116497332Y-126710000I0J1000000D01*
G01*
G04 #@! TO.C,J1*
X46700000Y-115600000D02*
X46700000Y-118200000D01*
X32000000Y-115600000D02*
X46700000Y-115600000D01*
X46700000Y-124800000D02*
X44800000Y-124800000D01*
X46700000Y-122100000D02*
X46700000Y-124800000D01*
X32000000Y-124800000D02*
X32000000Y-115600000D01*
X40800000Y-124800000D02*
X32000000Y-124800000D01*
X45850000Y-115400000D02*
X46900000Y-115400000D01*
X46900000Y-116450000D02*
X46900000Y-115400000D01*
G04 #@! TO.C,D4*
X88610000Y-138380000D02*
X88610000Y-138536000D01*
X88610000Y-136064000D02*
X88610000Y-136220000D01*
X91211130Y-138379837D02*
G75*
G02X89129039Y-138380000I-1041130J1079837D01*
G01*
X91211130Y-136220163D02*
G75*
G03X89129039Y-136220000I-1041130J-1079837D01*
G01*
X91842335Y-138378608D02*
G75*
G02X88610000Y-138535516I-1672335J1078608D01*
G01*
X91842335Y-136221392D02*
G75*
G03X88610000Y-136064484I-1672335J-1078608D01*
G01*
G04 #@! TO.C,D5*
X102890000Y-138380000D02*
X102890000Y-138536000D01*
X102890000Y-136064000D02*
X102890000Y-136220000D01*
X105491130Y-138379837D02*
G75*
G02X103409039Y-138380000I-1041130J1079837D01*
G01*
X105491130Y-136220163D02*
G75*
G03X103409039Y-136220000I-1041130J-1079837D01*
G01*
X106122335Y-138378608D02*
G75*
G02X102890000Y-138535516I-1672335J1078608D01*
G01*
X106122335Y-136221392D02*
G75*
G03X102890000Y-136064484I-1672335J-1078608D01*
G01*
G04 #@! TO.C,D3*
X74250000Y-138380000D02*
X74250000Y-138536000D01*
X74250000Y-136064000D02*
X74250000Y-136220000D01*
X76851130Y-138379837D02*
G75*
G02X74769039Y-138380000I-1041130J1079837D01*
G01*
X76851130Y-136220163D02*
G75*
G03X74769039Y-136220000I-1041130J-1079837D01*
G01*
X77482335Y-138378608D02*
G75*
G02X74250000Y-138535516I-1672335J1078608D01*
G01*
X77482335Y-136221392D02*
G75*
G03X74250000Y-136064484I-1672335J-1078608D01*
G01*
G04 #@! TO.C,D6*
X117210000Y-138380000D02*
X117210000Y-138536000D01*
X117210000Y-136064000D02*
X117210000Y-136220000D01*
X119811130Y-138379837D02*
G75*
G02X117729039Y-138380000I-1041130J1079837D01*
G01*
X119811130Y-136220163D02*
G75*
G03X117729039Y-136220000I-1041130J-1079837D01*
G01*
X120442335Y-138378608D02*
G75*
G02X117210000Y-138535516I-1672335J1078608D01*
G01*
X120442335Y-136221392D02*
G75*
G03X117210000Y-136064484I-1672335J-1078608D01*
G01*
G04 #@! TO.C,D7*
X45610000Y-138380000D02*
X45610000Y-138536000D01*
X45610000Y-136064000D02*
X45610000Y-136220000D01*
X48211130Y-138379837D02*
G75*
G02X46129039Y-138380000I-1041130J1079837D01*
G01*
X48211130Y-136220163D02*
G75*
G03X46129039Y-136220000I-1041130J-1079837D01*
G01*
X48842335Y-138378608D02*
G75*
G02X45610000Y-138535516I-1672335J1078608D01*
G01*
X48842335Y-136221392D02*
G75*
G03X45610000Y-136064484I-1672335J-1078608D01*
G01*
G04 #@! TO.C,D2*
X59930000Y-138380000D02*
X59930000Y-138536000D01*
X59930000Y-136064000D02*
X59930000Y-136220000D01*
X62531130Y-138379837D02*
G75*
G02X60449039Y-138380000I-1041130J1079837D01*
G01*
X62531130Y-136220163D02*
G75*
G03X60449039Y-136220000I-1041130J-1079837D01*
G01*
X63162335Y-138378608D02*
G75*
G02X59930000Y-138535516I-1672335J1078608D01*
G01*
X63162335Y-136221392D02*
G75*
G03X59930000Y-136064484I-1672335J-1078608D01*
G01*
G04 #@! TO.C,R11*
X91980000Y-131010000D02*
X92310000Y-131010000D01*
X91980000Y-124470000D02*
X91980000Y-131010000D01*
X92310000Y-124470000D02*
X91980000Y-124470000D01*
X94720000Y-131010000D02*
X94390000Y-131010000D01*
X94720000Y-124470000D02*
X94720000Y-131010000D01*
X94390000Y-124470000D02*
X94720000Y-124470000D01*
G04 #@! TO.C,R12*
X66120000Y-127930000D02*
X66120000Y-128260000D01*
X72660000Y-127930000D02*
X66120000Y-127930000D01*
X72660000Y-128260000D02*
X72660000Y-127930000D01*
X66120000Y-130670000D02*
X66120000Y-130340000D01*
X72660000Y-130670000D02*
X66120000Y-130670000D01*
X72660000Y-130340000D02*
X72660000Y-130670000D01*
G04 #@! TO.C,R10*
X81820000Y-127930000D02*
X81820000Y-128260000D01*
X88360000Y-127930000D02*
X81820000Y-127930000D01*
X88360000Y-128260000D02*
X88360000Y-127930000D01*
X81820000Y-130670000D02*
X81820000Y-130340000D01*
X88360000Y-130670000D02*
X81820000Y-130670000D01*
X88360000Y-130340000D02*
X88360000Y-130670000D01*
G04 #@! TO.C,U1*
X65270000Y-118740000D02*
X65270000Y-120390000D01*
X90790000Y-118740000D02*
X65270000Y-118740000D01*
X90790000Y-124040000D02*
X90790000Y-118740000D01*
X65270000Y-124040000D02*
X90790000Y-124040000D01*
X65270000Y-122390000D02*
X65270000Y-124040000D01*
X65270000Y-120390000D02*
G75*
G02X65270000Y-122390000I0J-1000000D01*
G01*
D11*
G04 #@! TO.C,RV5*
X122201060Y-152400000D02*
G75*
G03X122201060Y-152400000I-3401060J0D01*
G01*
X121799740Y-152400000D02*
G75*
G03X121799740Y-152400000I-2999740J0D01*
G01*
X123000000Y-156800000D02*
G75*
G03X123000000Y-156800000I-400000J0D01*
G01*
X115400000Y-156800000D02*
G75*
G03X115400000Y-156800000I-400000J0D01*
G01*
X123000000Y-148000000D02*
G75*
G03X123000000Y-148000000I-400000J0D01*
G01*
X115400000Y-148000000D02*
G75*
G03X115400000Y-148000000I-400000J0D01*
G01*
D12*
X123700000Y-157900000D02*
X113900000Y-157900000D01*
X123700000Y-145900000D02*
X113900000Y-145900000D01*
X123700000Y-145900000D02*
X123700000Y-157900000D01*
X113900000Y-157900000D02*
X113900000Y-145900000D01*
D13*
G04 #@! TO.C,C5*
X63633333Y-106445000D02*
X63633333Y-106130000D01*
X63633333Y-108870000D02*
X63633333Y-108555000D01*
X68873333Y-106445000D02*
X68873333Y-106130000D01*
X68873333Y-108870000D02*
X68873333Y-108555000D01*
X68873333Y-106130000D02*
X63633333Y-106130000D01*
X68873333Y-108870000D02*
X63633333Y-108870000D01*
G04 #@! TO.C,C4*
X63880000Y-111745000D02*
X63880000Y-111430000D01*
X63880000Y-114170000D02*
X63880000Y-113855000D01*
X69120000Y-111745000D02*
X69120000Y-111430000D01*
X69120000Y-114170000D02*
X69120000Y-113855000D01*
X69120000Y-111430000D02*
X63880000Y-111430000D01*
X69120000Y-114170000D02*
X63880000Y-114170000D01*
G04 #@! TO.C,C3*
X42380000Y-106345000D02*
X42380000Y-106030000D01*
X42380000Y-108770000D02*
X42380000Y-108455000D01*
X47620000Y-106345000D02*
X47620000Y-106030000D01*
X47620000Y-108770000D02*
X47620000Y-108455000D01*
X47620000Y-106030000D02*
X42380000Y-106030000D01*
X47620000Y-108770000D02*
X42380000Y-108770000D01*
G04 #@! TO.C,SW2*
X129900000Y-155850000D02*
X131400000Y-155850000D01*
X133900000Y-154600000D02*
X133900000Y-150100000D01*
X131400000Y-148850000D02*
X129900000Y-148850000D01*
X127400000Y-150100000D02*
X127400000Y-154600000D01*
G04 #@! TO.C,SW1*
X129900000Y-143350000D02*
X131400000Y-143350000D01*
X133900000Y-142100000D02*
X133900000Y-137600000D01*
X131400000Y-136350000D02*
X129900000Y-136350000D01*
X127400000Y-137600000D02*
X127400000Y-142100000D01*
G04 #@! TO.C,C1*
X73580000Y-111745000D02*
X73580000Y-111430000D01*
X73580000Y-114170000D02*
X73580000Y-113855000D01*
X78820000Y-111745000D02*
X78820000Y-111430000D01*
X78820000Y-114170000D02*
X78820000Y-113855000D01*
X78820000Y-111430000D02*
X73580000Y-111430000D01*
X78820000Y-114170000D02*
X73580000Y-114170000D01*
G04 #@! TO.C,C2*
X42380000Y-111645000D02*
X42380000Y-111330000D01*
X42380000Y-114070000D02*
X42380000Y-113755000D01*
X47620000Y-111645000D02*
X47620000Y-111330000D01*
X47620000Y-114070000D02*
X47620000Y-113755000D01*
X47620000Y-111330000D02*
X42380000Y-111330000D01*
X47620000Y-114070000D02*
X42380000Y-114070000D01*
G04 #@! TO.C,R3*
X101354666Y-124470000D02*
X101024666Y-124470000D01*
X101354666Y-131010000D02*
X101354666Y-124470000D01*
X101024666Y-131010000D02*
X101354666Y-131010000D01*
X98614666Y-124470000D02*
X98944666Y-124470000D01*
X98614666Y-131010000D02*
X98614666Y-124470000D01*
X98944666Y-131010000D02*
X98614666Y-131010000D01*
G04 #@! TO.C,R9*
X105120999Y-124470000D02*
X104790999Y-124470000D01*
X105120999Y-131010000D02*
X105120999Y-124470000D01*
X104790999Y-131010000D02*
X105120999Y-131010000D01*
X102380999Y-124470000D02*
X102710999Y-124470000D01*
X102380999Y-131010000D02*
X102380999Y-124470000D01*
X102710999Y-131010000D02*
X102380999Y-131010000D01*
G04 #@! TO.C,R8*
X117613665Y-131010000D02*
X117943665Y-131010000D01*
X117613665Y-124470000D02*
X117613665Y-131010000D01*
X117943665Y-124470000D02*
X117613665Y-124470000D01*
X120353665Y-131010000D02*
X120023665Y-131010000D01*
X120353665Y-124470000D02*
X120353665Y-131010000D01*
X120023665Y-124470000D02*
X120353665Y-124470000D01*
G04 #@! TO.C,R7*
X84220000Y-106130000D02*
X84220000Y-106460000D01*
X90760000Y-106130000D02*
X84220000Y-106130000D01*
X90760000Y-106460000D02*
X90760000Y-106130000D01*
X84220000Y-108870000D02*
X84220000Y-108540000D01*
X90760000Y-108870000D02*
X84220000Y-108870000D01*
X90760000Y-108540000D02*
X90760000Y-108870000D01*
G04 #@! TO.C,R1*
X63970000Y-118120000D02*
X63640000Y-118120000D01*
X63970000Y-124660000D02*
X63970000Y-118120000D01*
X63640000Y-124660000D02*
X63970000Y-124660000D01*
X61230000Y-118120000D02*
X61560000Y-118120000D01*
X61230000Y-124660000D02*
X61230000Y-118120000D01*
X61560000Y-124660000D02*
X61230000Y-124660000D01*
G04 #@! TO.C,R4*
X72946666Y-106130000D02*
X72946666Y-106460000D01*
X79486666Y-106130000D02*
X72946666Y-106130000D01*
X79486666Y-106460000D02*
X79486666Y-106130000D01*
X72946666Y-108870000D02*
X72946666Y-108540000D01*
X79486666Y-108870000D02*
X72946666Y-108870000D01*
X79486666Y-108540000D02*
X79486666Y-108870000D01*
G04 #@! TO.C,R5*
X84220000Y-111430000D02*
X84220000Y-111760000D01*
X90760000Y-111430000D02*
X84220000Y-111430000D01*
X90760000Y-111760000D02*
X90760000Y-111430000D01*
X84220000Y-114170000D02*
X84220000Y-113840000D01*
X90760000Y-114170000D02*
X84220000Y-114170000D01*
X90760000Y-113840000D02*
X90760000Y-114170000D01*
G04 #@! TO.C,R2*
X115470000Y-110920000D02*
X115140000Y-110920000D01*
X115470000Y-117460000D02*
X115470000Y-110920000D01*
X115140000Y-117460000D02*
X115470000Y-117460000D01*
X112730000Y-110920000D02*
X113060000Y-110920000D01*
X112730000Y-117460000D02*
X112730000Y-110920000D01*
X113060000Y-117460000D02*
X112730000Y-117460000D01*
D11*
G04 #@! TO.C,RV6*
X50601060Y-152400000D02*
G75*
G03X50601060Y-152400000I-3401060J0D01*
G01*
X50199740Y-152400000D02*
G75*
G03X50199740Y-152400000I-2999740J0D01*
G01*
X51400000Y-156800000D02*
G75*
G03X51400000Y-156800000I-400000J0D01*
G01*
X43800000Y-156800000D02*
G75*
G03X43800000Y-156800000I-400000J0D01*
G01*
X51400000Y-148000000D02*
G75*
G03X51400000Y-148000000I-400000J0D01*
G01*
X43800000Y-148000000D02*
G75*
G03X43800000Y-148000000I-400000J0D01*
G01*
D12*
X52100000Y-157900000D02*
X42300000Y-157900000D01*
X52100000Y-145900000D02*
X42300000Y-145900000D01*
X52100000Y-145900000D02*
X52100000Y-157900000D01*
X42300000Y-157900000D02*
X42300000Y-145900000D01*
D11*
G04 #@! TO.C,RV1*
X64921060Y-152400000D02*
G75*
G03X64921060Y-152400000I-3401060J0D01*
G01*
X64519740Y-152400000D02*
G75*
G03X64519740Y-152400000I-2999740J0D01*
G01*
X65720000Y-156800000D02*
G75*
G03X65720000Y-156800000I-400000J0D01*
G01*
X58120000Y-156800000D02*
G75*
G03X58120000Y-156800000I-400000J0D01*
G01*
X65720000Y-148000000D02*
G75*
G03X65720000Y-148000000I-400000J0D01*
G01*
X58120000Y-148000000D02*
G75*
G03X58120000Y-148000000I-400000J0D01*
G01*
D12*
X66420000Y-157900000D02*
X56620000Y-157900000D01*
X66420000Y-145900000D02*
X56620000Y-145900000D01*
X66420000Y-145900000D02*
X66420000Y-157900000D01*
X56620000Y-157900000D02*
X56620000Y-145900000D01*
D11*
G04 #@! TO.C,RV2*
X79241060Y-152400000D02*
G75*
G03X79241060Y-152400000I-3401060J0D01*
G01*
X78839740Y-152400000D02*
G75*
G03X78839740Y-152400000I-2999740J0D01*
G01*
X80040000Y-156800000D02*
G75*
G03X80040000Y-156800000I-400000J0D01*
G01*
X72440000Y-156800000D02*
G75*
G03X72440000Y-156800000I-400000J0D01*
G01*
X80040000Y-148000000D02*
G75*
G03X80040000Y-148000000I-400000J0D01*
G01*
X72440000Y-148000000D02*
G75*
G03X72440000Y-148000000I-400000J0D01*
G01*
D12*
X80740000Y-157900000D02*
X70940000Y-157900000D01*
X80740000Y-145900000D02*
X70940000Y-145900000D01*
X80740000Y-145900000D02*
X80740000Y-157900000D01*
X70940000Y-157900000D02*
X70940000Y-145900000D01*
D11*
G04 #@! TO.C,RV3*
X93561060Y-152400000D02*
G75*
G03X93561060Y-152400000I-3401060J0D01*
G01*
X93159740Y-152400000D02*
G75*
G03X93159740Y-152400000I-2999740J0D01*
G01*
X94360000Y-156800000D02*
G75*
G03X94360000Y-156800000I-400000J0D01*
G01*
X86760000Y-156800000D02*
G75*
G03X86760000Y-156800000I-400000J0D01*
G01*
X94360000Y-148000000D02*
G75*
G03X94360000Y-148000000I-400000J0D01*
G01*
X86760000Y-148000000D02*
G75*
G03X86760000Y-148000000I-400000J0D01*
G01*
D12*
X95060000Y-157900000D02*
X85260000Y-157900000D01*
X95060000Y-145900000D02*
X85260000Y-145900000D01*
X95060000Y-145900000D02*
X95060000Y-157900000D01*
X85260000Y-157900000D02*
X85260000Y-145900000D01*
D11*
G04 #@! TO.C,RV4*
X107881060Y-152400000D02*
G75*
G03X107881060Y-152400000I-3401060J0D01*
G01*
X107479740Y-152400000D02*
G75*
G03X107479740Y-152400000I-2999740J0D01*
G01*
X108680000Y-156800000D02*
G75*
G03X108680000Y-156800000I-400000J0D01*
G01*
X101080000Y-156800000D02*
G75*
G03X101080000Y-156800000I-400000J0D01*
G01*
X108680000Y-148000000D02*
G75*
G03X108680000Y-148000000I-400000J0D01*
G01*
X101080000Y-148000000D02*
G75*
G03X101080000Y-148000000I-400000J0D01*
G01*
D12*
X109380000Y-157900000D02*
X99580000Y-157900000D01*
X109380000Y-145900000D02*
X99580000Y-145900000D01*
X109380000Y-145900000D02*
X109380000Y-157900000D01*
X99580000Y-157900000D02*
X99580000Y-145900000D01*
G04 #@! TO.C,U4*
D10*
X129838095Y-127252380D02*
X129838095Y-128061904D01*
X129885714Y-128157142D01*
X129933333Y-128204761D01*
X130028571Y-128252380D01*
X130219047Y-128252380D01*
X130314285Y-128204761D01*
X130361904Y-128157142D01*
X130409523Y-128061904D01*
X130409523Y-127252380D01*
X131314285Y-127585714D02*
X131314285Y-128252380D01*
X131076190Y-127204761D02*
X130838095Y-127919047D01*
X131457142Y-127919047D01*
G04 #@! TO.C,D1*
X97107463Y-128653606D02*
X96107463Y-128653606D01*
X96107463Y-128415511D01*
X96155083Y-128272653D01*
X96250321Y-128177415D01*
X96345559Y-128129796D01*
X96536035Y-128082177D01*
X96678892Y-128082177D01*
X96869368Y-128129796D01*
X96964606Y-128177415D01*
X97059844Y-128272653D01*
X97107463Y-128415511D01*
X97107463Y-128653606D01*
X97107463Y-127129796D02*
X97107463Y-127701225D01*
X97107463Y-127415511D02*
X96107463Y-127415511D01*
X96250321Y-127510749D01*
X96345559Y-127605987D01*
X96393178Y-127701225D01*
G04 #@! TO.C,U2*
X53938095Y-117452380D02*
X53938095Y-118261904D01*
X53985714Y-118357142D01*
X54033333Y-118404761D01*
X54128571Y-118452380D01*
X54319047Y-118452380D01*
X54414285Y-118404761D01*
X54461904Y-118357142D01*
X54509523Y-118261904D01*
X54509523Y-117452380D01*
X54938095Y-117547619D02*
X54985714Y-117500000D01*
X55080952Y-117452380D01*
X55319047Y-117452380D01*
X55414285Y-117500000D01*
X55461904Y-117547619D01*
X55509523Y-117642857D01*
X55509523Y-117738095D01*
X55461904Y-117880952D01*
X54890476Y-118452380D01*
X55509523Y-118452380D01*
G04 #@! TO.C,J4*
X102466666Y-112302380D02*
X102466666Y-113016666D01*
X102419047Y-113159523D01*
X102323809Y-113254761D01*
X102180952Y-113302380D01*
X102085714Y-113302380D01*
X103371428Y-112635714D02*
X103371428Y-113302380D01*
X103133333Y-112254761D02*
X102895238Y-112969047D01*
X103514285Y-112969047D01*
D11*
X99942857Y-122192857D02*
X99942857Y-120992857D01*
X100342857Y-121850000D01*
X100742857Y-120992857D01*
X100742857Y-122192857D01*
X101314285Y-122192857D02*
X101314285Y-120992857D01*
X101885714Y-122192857D02*
X101885714Y-120992857D01*
X102171428Y-120992857D01*
X102342857Y-121050000D01*
X102457142Y-121164285D01*
X102514285Y-121278571D01*
X102571428Y-121507142D01*
X102571428Y-121678571D01*
X102514285Y-121907142D01*
X102457142Y-122021428D01*
X102342857Y-122135714D01*
X102171428Y-122192857D01*
X101885714Y-122192857D01*
X103085714Y-122192857D02*
X103085714Y-120992857D01*
X103371428Y-122307142D02*
X104285714Y-122307142D01*
X104571428Y-122192857D02*
X104571428Y-121392857D01*
X104571428Y-120992857D02*
X104514285Y-121050000D01*
X104571428Y-121107142D01*
X104628571Y-121050000D01*
X104571428Y-120992857D01*
X104571428Y-121107142D01*
X105142857Y-121392857D02*
X105142857Y-122192857D01*
X105142857Y-121507142D02*
X105200000Y-121450000D01*
X105314285Y-121392857D01*
X105485714Y-121392857D01*
X105600000Y-121450000D01*
X105657142Y-121564285D01*
X105657142Y-122192857D01*
G04 #@! TO.C,J5*
D10*
X125084079Y-112202380D02*
X125084079Y-112916666D01*
X125036460Y-113059523D01*
X124941222Y-113154761D01*
X124798365Y-113202380D01*
X124703127Y-113202380D01*
X126036460Y-112202380D02*
X125560270Y-112202380D01*
X125512651Y-112678571D01*
X125560270Y-112630952D01*
X125655508Y-112583333D01*
X125893603Y-112583333D01*
X125988841Y-112630952D01*
X126036460Y-112678571D01*
X126084079Y-112773809D01*
X126084079Y-113011904D01*
X126036460Y-113107142D01*
X125988841Y-113154761D01*
X125893603Y-113202380D01*
X125655508Y-113202380D01*
X125560270Y-113154761D01*
X125512651Y-113107142D01*
D11*
X121672174Y-122038095D02*
X121672174Y-120738095D01*
X122105508Y-121666666D01*
X122538841Y-120738095D01*
X122538841Y-122038095D01*
X123157889Y-122038095D02*
X123157889Y-120738095D01*
X123776936Y-122038095D02*
X123776936Y-120738095D01*
X124086460Y-120738095D01*
X124272174Y-120800000D01*
X124395984Y-120923809D01*
X124457889Y-121047619D01*
X124519793Y-121295238D01*
X124519793Y-121480952D01*
X124457889Y-121728571D01*
X124395984Y-121852380D01*
X124272174Y-121976190D01*
X124086460Y-122038095D01*
X123776936Y-122038095D01*
X125076936Y-122038095D02*
X125076936Y-120738095D01*
X125386460Y-122161904D02*
X126376936Y-122161904D01*
X126872174Y-122038095D02*
X126748365Y-121976190D01*
X126686460Y-121914285D01*
X126624555Y-121790476D01*
X126624555Y-121419047D01*
X126686460Y-121295238D01*
X126748365Y-121233333D01*
X126872174Y-121171428D01*
X127057889Y-121171428D01*
X127181698Y-121233333D01*
X127243603Y-121295238D01*
X127305508Y-121419047D01*
X127305508Y-121790476D01*
X127243603Y-121914285D01*
X127181698Y-121976190D01*
X127057889Y-122038095D01*
X126872174Y-122038095D01*
X128419793Y-121171428D02*
X128419793Y-122038095D01*
X127862651Y-121171428D02*
X127862651Y-121852380D01*
X127924555Y-121976190D01*
X128048365Y-122038095D01*
X128234079Y-122038095D01*
X128357889Y-121976190D01*
X128419793Y-121914285D01*
X128853127Y-121171428D02*
X129348365Y-121171428D01*
X129038841Y-120738095D02*
X129038841Y-121852380D01*
X129100746Y-121976190D01*
X129224555Y-122038095D01*
X129348365Y-122038095D01*
G04 #@! TO.C,U3*
D10*
X110642427Y-127352380D02*
X110642427Y-128161904D01*
X110690046Y-128257142D01*
X110737665Y-128304761D01*
X110832903Y-128352380D01*
X111023379Y-128352380D01*
X111118617Y-128304761D01*
X111166236Y-128257142D01*
X111213855Y-128161904D01*
X111213855Y-127352380D01*
X111594808Y-127352380D02*
X112213855Y-127352380D01*
X111880522Y-127733333D01*
X112023379Y-127733333D01*
X112118617Y-127780952D01*
X112166236Y-127828571D01*
X112213855Y-127923809D01*
X112213855Y-128161904D01*
X112166236Y-128257142D01*
X112118617Y-128304761D01*
X112023379Y-128352380D01*
X111737665Y-128352380D01*
X111642427Y-128304761D01*
X111594808Y-128257142D01*
G04 #@! TO.C,J1*
X36766666Y-123152380D02*
X36766666Y-123866666D01*
X36719047Y-124009523D01*
X36623809Y-124104761D01*
X36480952Y-124152380D01*
X36385714Y-124152380D01*
X37766666Y-124152380D02*
X37195238Y-124152380D01*
X37480952Y-124152380D02*
X37480952Y-123152380D01*
X37385714Y-123295238D01*
X37290476Y-123390476D01*
X37195238Y-123438095D01*
G04 #@! TO.C,R11*
X93802380Y-128382857D02*
X93326190Y-128716190D01*
X93802380Y-128954285D02*
X92802380Y-128954285D01*
X92802380Y-128573333D01*
X92850000Y-128478095D01*
X92897619Y-128430476D01*
X92992857Y-128382857D01*
X93135714Y-128382857D01*
X93230952Y-128430476D01*
X93278571Y-128478095D01*
X93326190Y-128573333D01*
X93326190Y-128954285D01*
X93802380Y-127430476D02*
X93802380Y-128001904D01*
X93802380Y-127716190D02*
X92802380Y-127716190D01*
X92945238Y-127811428D01*
X93040476Y-127906666D01*
X93088095Y-128001904D01*
X93802380Y-126478095D02*
X93802380Y-127049523D01*
X93802380Y-126763809D02*
X92802380Y-126763809D01*
X92945238Y-126859047D01*
X93040476Y-126954285D01*
X93088095Y-127049523D01*
G04 #@! TO.C,R12*
X68757142Y-129752380D02*
X68423809Y-129276190D01*
X68185714Y-129752380D02*
X68185714Y-128752380D01*
X68566666Y-128752380D01*
X68661904Y-128800000D01*
X68709523Y-128847619D01*
X68757142Y-128942857D01*
X68757142Y-129085714D01*
X68709523Y-129180952D01*
X68661904Y-129228571D01*
X68566666Y-129276190D01*
X68185714Y-129276190D01*
X69709523Y-129752380D02*
X69138095Y-129752380D01*
X69423809Y-129752380D02*
X69423809Y-128752380D01*
X69328571Y-128895238D01*
X69233333Y-128990476D01*
X69138095Y-129038095D01*
X70090476Y-128847619D02*
X70138095Y-128800000D01*
X70233333Y-128752380D01*
X70471428Y-128752380D01*
X70566666Y-128800000D01*
X70614285Y-128847619D01*
X70661904Y-128942857D01*
X70661904Y-129038095D01*
X70614285Y-129180952D01*
X70042857Y-129752380D01*
X70661904Y-129752380D01*
G04 #@! TO.C,R10*
X84447142Y-129752380D02*
X84113809Y-129276190D01*
X83875714Y-129752380D02*
X83875714Y-128752380D01*
X84256666Y-128752380D01*
X84351904Y-128800000D01*
X84399523Y-128847619D01*
X84447142Y-128942857D01*
X84447142Y-129085714D01*
X84399523Y-129180952D01*
X84351904Y-129228571D01*
X84256666Y-129276190D01*
X83875714Y-129276190D01*
X85399523Y-129752380D02*
X84828095Y-129752380D01*
X85113809Y-129752380D02*
X85113809Y-128752380D01*
X85018571Y-128895238D01*
X84923333Y-128990476D01*
X84828095Y-129038095D01*
X86018571Y-128752380D02*
X86113809Y-128752380D01*
X86209047Y-128800000D01*
X86256666Y-128847619D01*
X86304285Y-128942857D01*
X86351904Y-129133333D01*
X86351904Y-129371428D01*
X86304285Y-129561904D01*
X86256666Y-129657142D01*
X86209047Y-129704761D01*
X86113809Y-129752380D01*
X86018571Y-129752380D01*
X85923333Y-129704761D01*
X85875714Y-129657142D01*
X85828095Y-129561904D01*
X85780476Y-129371428D01*
X85780476Y-129133333D01*
X85828095Y-128942857D01*
X85875714Y-128847619D01*
X85923333Y-128800000D01*
X86018571Y-128752380D01*
G04 #@! TO.C,U1*
X77238095Y-120952380D02*
X77238095Y-121761904D01*
X77285714Y-121857142D01*
X77333333Y-121904761D01*
X77428571Y-121952380D01*
X77619047Y-121952380D01*
X77714285Y-121904761D01*
X77761904Y-121857142D01*
X77809523Y-121761904D01*
X77809523Y-120952380D01*
X78809523Y-121952380D02*
X78238095Y-121952380D01*
X78523809Y-121952380D02*
X78523809Y-120952380D01*
X78428571Y-121095238D01*
X78333333Y-121190476D01*
X78238095Y-121238095D01*
G04 #@! TO.C,RV5*
X118104761Y-152752380D02*
X117771428Y-152276190D01*
X117533333Y-152752380D02*
X117533333Y-151752380D01*
X117914285Y-151752380D01*
X118009523Y-151800000D01*
X118057142Y-151847619D01*
X118104761Y-151942857D01*
X118104761Y-152085714D01*
X118057142Y-152180952D01*
X118009523Y-152228571D01*
X117914285Y-152276190D01*
X117533333Y-152276190D01*
X118390476Y-151752380D02*
X118723809Y-152752380D01*
X119057142Y-151752380D01*
X119866666Y-151752380D02*
X119390476Y-151752380D01*
X119342857Y-152228571D01*
X119390476Y-152180952D01*
X119485714Y-152133333D01*
X119723809Y-152133333D01*
X119819047Y-152180952D01*
X119866666Y-152228571D01*
X119914285Y-152323809D01*
X119914285Y-152561904D01*
X119866666Y-152657142D01*
X119819047Y-152704761D01*
X119723809Y-152752380D01*
X119485714Y-152752380D01*
X119390476Y-152704761D01*
X119342857Y-152657142D01*
G04 #@! TO.C,C5*
X66086666Y-107857142D02*
X66039047Y-107904761D01*
X65896190Y-107952380D01*
X65800952Y-107952380D01*
X65658094Y-107904761D01*
X65562856Y-107809523D01*
X65515237Y-107714285D01*
X65467618Y-107523809D01*
X65467618Y-107380952D01*
X65515237Y-107190476D01*
X65562856Y-107095238D01*
X65658094Y-107000000D01*
X65800952Y-106952380D01*
X65896190Y-106952380D01*
X66039047Y-107000000D01*
X66086666Y-107047619D01*
X66991428Y-106952380D02*
X66515237Y-106952380D01*
X66467618Y-107428571D01*
X66515237Y-107380952D01*
X66610475Y-107333333D01*
X66848571Y-107333333D01*
X66943809Y-107380952D01*
X66991428Y-107428571D01*
X67039047Y-107523809D01*
X67039047Y-107761904D01*
X66991428Y-107857142D01*
X66943809Y-107904761D01*
X66848571Y-107952380D01*
X66610475Y-107952380D01*
X66515237Y-107904761D01*
X66467618Y-107857142D01*
G04 #@! TO.C,C4*
X66333333Y-113157142D02*
X66285714Y-113204761D01*
X66142857Y-113252380D01*
X66047619Y-113252380D01*
X65904761Y-113204761D01*
X65809523Y-113109523D01*
X65761904Y-113014285D01*
X65714285Y-112823809D01*
X65714285Y-112680952D01*
X65761904Y-112490476D01*
X65809523Y-112395238D01*
X65904761Y-112300000D01*
X66047619Y-112252380D01*
X66142857Y-112252380D01*
X66285714Y-112300000D01*
X66333333Y-112347619D01*
X67190476Y-112585714D02*
X67190476Y-113252380D01*
X66952380Y-112204761D02*
X66714285Y-112919047D01*
X67333333Y-112919047D01*
G04 #@! TO.C,C3*
X44833333Y-107757142D02*
X44785714Y-107804761D01*
X44642857Y-107852380D01*
X44547619Y-107852380D01*
X44404761Y-107804761D01*
X44309523Y-107709523D01*
X44261904Y-107614285D01*
X44214285Y-107423809D01*
X44214285Y-107280952D01*
X44261904Y-107090476D01*
X44309523Y-106995238D01*
X44404761Y-106900000D01*
X44547619Y-106852380D01*
X44642857Y-106852380D01*
X44785714Y-106900000D01*
X44833333Y-106947619D01*
X45166666Y-106852380D02*
X45785714Y-106852380D01*
X45452380Y-107233333D01*
X45595238Y-107233333D01*
X45690476Y-107280952D01*
X45738095Y-107328571D01*
X45785714Y-107423809D01*
X45785714Y-107661904D01*
X45738095Y-107757142D01*
X45690476Y-107804761D01*
X45595238Y-107852380D01*
X45309523Y-107852380D01*
X45214285Y-107804761D01*
X45166666Y-107757142D01*
G04 #@! TO.C,SW2*
X129316666Y-152754761D02*
X129459523Y-152802380D01*
X129697619Y-152802380D01*
X129792857Y-152754761D01*
X129840476Y-152707142D01*
X129888095Y-152611904D01*
X129888095Y-152516666D01*
X129840476Y-152421428D01*
X129792857Y-152373809D01*
X129697619Y-152326190D01*
X129507142Y-152278571D01*
X129411904Y-152230952D01*
X129364285Y-152183333D01*
X129316666Y-152088095D01*
X129316666Y-151992857D01*
X129364285Y-151897619D01*
X129411904Y-151850000D01*
X129507142Y-151802380D01*
X129745238Y-151802380D01*
X129888095Y-151850000D01*
X130221428Y-151802380D02*
X130459523Y-152802380D01*
X130650000Y-152088095D01*
X130840476Y-152802380D01*
X131078571Y-151802380D01*
X131411904Y-151897619D02*
X131459523Y-151850000D01*
X131554761Y-151802380D01*
X131792857Y-151802380D01*
X131888095Y-151850000D01*
X131935714Y-151897619D01*
X131983333Y-151992857D01*
X131983333Y-152088095D01*
X131935714Y-152230952D01*
X131364285Y-152802380D01*
X131983333Y-152802380D01*
G04 #@! TO.C,SW1*
X129266666Y-140254761D02*
X129409523Y-140302380D01*
X129647619Y-140302380D01*
X129742857Y-140254761D01*
X129790476Y-140207142D01*
X129838095Y-140111904D01*
X129838095Y-140016666D01*
X129790476Y-139921428D01*
X129742857Y-139873809D01*
X129647619Y-139826190D01*
X129457142Y-139778571D01*
X129361904Y-139730952D01*
X129314285Y-139683333D01*
X129266666Y-139588095D01*
X129266666Y-139492857D01*
X129314285Y-139397619D01*
X129361904Y-139350000D01*
X129457142Y-139302380D01*
X129695238Y-139302380D01*
X129838095Y-139350000D01*
X130171428Y-139302380D02*
X130409523Y-140302380D01*
X130600000Y-139588095D01*
X130790476Y-140302380D01*
X131028571Y-139302380D01*
X131933333Y-140302380D02*
X131361904Y-140302380D01*
X131647619Y-140302380D02*
X131647619Y-139302380D01*
X131552380Y-139445238D01*
X131457142Y-139540476D01*
X131361904Y-139588095D01*
G04 #@! TO.C,C1*
X76033333Y-113157142D02*
X75985714Y-113204761D01*
X75842857Y-113252380D01*
X75747619Y-113252380D01*
X75604761Y-113204761D01*
X75509523Y-113109523D01*
X75461904Y-113014285D01*
X75414285Y-112823809D01*
X75414285Y-112680952D01*
X75461904Y-112490476D01*
X75509523Y-112395238D01*
X75604761Y-112300000D01*
X75747619Y-112252380D01*
X75842857Y-112252380D01*
X75985714Y-112300000D01*
X76033333Y-112347619D01*
X76985714Y-113252380D02*
X76414285Y-113252380D01*
X76700000Y-113252380D02*
X76700000Y-112252380D01*
X76604761Y-112395238D01*
X76509523Y-112490476D01*
X76414285Y-112538095D01*
G04 #@! TO.C,C2*
X44833333Y-113057142D02*
X44785714Y-113104761D01*
X44642857Y-113152380D01*
X44547619Y-113152380D01*
X44404761Y-113104761D01*
X44309523Y-113009523D01*
X44261904Y-112914285D01*
X44214285Y-112723809D01*
X44214285Y-112580952D01*
X44261904Y-112390476D01*
X44309523Y-112295238D01*
X44404761Y-112200000D01*
X44547619Y-112152380D01*
X44642857Y-112152380D01*
X44785714Y-112200000D01*
X44833333Y-112247619D01*
X45214285Y-112247619D02*
X45261904Y-112200000D01*
X45357142Y-112152380D01*
X45595238Y-112152380D01*
X45690476Y-112200000D01*
X45738095Y-112247619D01*
X45785714Y-112342857D01*
X45785714Y-112438095D01*
X45738095Y-112580952D01*
X45166666Y-113152380D01*
X45785714Y-113152380D01*
G04 #@! TO.C,R3*
X100472046Y-127906666D02*
X99995856Y-128240000D01*
X100472046Y-128478095D02*
X99472046Y-128478095D01*
X99472046Y-128097142D01*
X99519666Y-128001904D01*
X99567285Y-127954285D01*
X99662523Y-127906666D01*
X99805380Y-127906666D01*
X99900618Y-127954285D01*
X99948237Y-128001904D01*
X99995856Y-128097142D01*
X99995856Y-128478095D01*
X99472046Y-127573333D02*
X99472046Y-126954285D01*
X99852999Y-127287619D01*
X99852999Y-127144761D01*
X99900618Y-127049523D01*
X99948237Y-127001904D01*
X100043475Y-126954285D01*
X100281570Y-126954285D01*
X100376808Y-127001904D01*
X100424427Y-127049523D01*
X100472046Y-127144761D01*
X100472046Y-127430476D01*
X100424427Y-127525714D01*
X100376808Y-127573333D01*
G04 #@! TO.C,R9*
X104203379Y-127906666D02*
X103727189Y-128240000D01*
X104203379Y-128478095D02*
X103203379Y-128478095D01*
X103203379Y-128097142D01*
X103250999Y-128001904D01*
X103298618Y-127954285D01*
X103393856Y-127906666D01*
X103536713Y-127906666D01*
X103631951Y-127954285D01*
X103679570Y-128001904D01*
X103727189Y-128097142D01*
X103727189Y-128478095D01*
X104203379Y-127430476D02*
X104203379Y-127240000D01*
X104155760Y-127144761D01*
X104108141Y-127097142D01*
X103965284Y-127001904D01*
X103774808Y-126954285D01*
X103393856Y-126954285D01*
X103298618Y-127001904D01*
X103250999Y-127049523D01*
X103203379Y-127144761D01*
X103203379Y-127335238D01*
X103250999Y-127430476D01*
X103298618Y-127478095D01*
X103393856Y-127525714D01*
X103631951Y-127525714D01*
X103727189Y-127478095D01*
X103774808Y-127430476D01*
X103822427Y-127335238D01*
X103822427Y-127144761D01*
X103774808Y-127049523D01*
X103727189Y-127001904D01*
X103631951Y-126954285D01*
G04 #@! TO.C,R8*
X119466045Y-127896666D02*
X118989855Y-128230000D01*
X119466045Y-128468095D02*
X118466045Y-128468095D01*
X118466045Y-128087142D01*
X118513665Y-127991904D01*
X118561284Y-127944285D01*
X118656522Y-127896666D01*
X118799379Y-127896666D01*
X118894617Y-127944285D01*
X118942236Y-127991904D01*
X118989855Y-128087142D01*
X118989855Y-128468095D01*
X118894617Y-127325238D02*
X118846998Y-127420476D01*
X118799379Y-127468095D01*
X118704141Y-127515714D01*
X118656522Y-127515714D01*
X118561284Y-127468095D01*
X118513665Y-127420476D01*
X118466045Y-127325238D01*
X118466045Y-127134761D01*
X118513665Y-127039523D01*
X118561284Y-126991904D01*
X118656522Y-126944285D01*
X118704141Y-126944285D01*
X118799379Y-126991904D01*
X118846998Y-127039523D01*
X118894617Y-127134761D01*
X118894617Y-127325238D01*
X118942236Y-127420476D01*
X118989855Y-127468095D01*
X119085093Y-127515714D01*
X119275569Y-127515714D01*
X119370807Y-127468095D01*
X119418426Y-127420476D01*
X119466045Y-127325238D01*
X119466045Y-127134761D01*
X119418426Y-127039523D01*
X119370807Y-126991904D01*
X119275569Y-126944285D01*
X119085093Y-126944285D01*
X118989855Y-126991904D01*
X118942236Y-127039523D01*
X118894617Y-127134761D01*
G04 #@! TO.C,R7*
X87323333Y-107987380D02*
X86990000Y-107511190D01*
X86751904Y-107987380D02*
X86751904Y-106987380D01*
X87132857Y-106987380D01*
X87228095Y-107035000D01*
X87275714Y-107082619D01*
X87323333Y-107177857D01*
X87323333Y-107320714D01*
X87275714Y-107415952D01*
X87228095Y-107463571D01*
X87132857Y-107511190D01*
X86751904Y-107511190D01*
X87656666Y-106987380D02*
X88323333Y-106987380D01*
X87894761Y-107987380D01*
G04 #@! TO.C,R1*
X63082380Y-121566666D02*
X62606190Y-121900000D01*
X63082380Y-122138095D02*
X62082380Y-122138095D01*
X62082380Y-121757142D01*
X62130000Y-121661904D01*
X62177619Y-121614285D01*
X62272857Y-121566666D01*
X62415714Y-121566666D01*
X62510952Y-121614285D01*
X62558571Y-121661904D01*
X62606190Y-121757142D01*
X62606190Y-122138095D01*
X63082380Y-120614285D02*
X63082380Y-121185714D01*
X63082380Y-120900000D02*
X62082380Y-120900000D01*
X62225238Y-120995238D01*
X62320476Y-121090476D01*
X62368095Y-121185714D01*
G04 #@! TO.C,R4*
X76049999Y-107912380D02*
X75716666Y-107436190D01*
X75478570Y-107912380D02*
X75478570Y-106912380D01*
X75859523Y-106912380D01*
X75954761Y-106960000D01*
X76002380Y-107007619D01*
X76049999Y-107102857D01*
X76049999Y-107245714D01*
X76002380Y-107340952D01*
X75954761Y-107388571D01*
X75859523Y-107436190D01*
X75478570Y-107436190D01*
X76907142Y-107245714D02*
X76907142Y-107912380D01*
X76669046Y-106864761D02*
X76430951Y-107579047D01*
X77049999Y-107579047D01*
G04 #@! TO.C,R5*
X87323333Y-113292380D02*
X86990000Y-112816190D01*
X86751904Y-113292380D02*
X86751904Y-112292380D01*
X87132857Y-112292380D01*
X87228095Y-112340000D01*
X87275714Y-112387619D01*
X87323333Y-112482857D01*
X87323333Y-112625714D01*
X87275714Y-112720952D01*
X87228095Y-112768571D01*
X87132857Y-112816190D01*
X86751904Y-112816190D01*
X88228095Y-112292380D02*
X87751904Y-112292380D01*
X87704285Y-112768571D01*
X87751904Y-112720952D01*
X87847142Y-112673333D01*
X88085238Y-112673333D01*
X88180476Y-112720952D01*
X88228095Y-112768571D01*
X88275714Y-112863809D01*
X88275714Y-113101904D01*
X88228095Y-113197142D01*
X88180476Y-113244761D01*
X88085238Y-113292380D01*
X87847142Y-113292380D01*
X87751904Y-113244761D01*
X87704285Y-113197142D01*
G04 #@! TO.C,R2*
X114552380Y-114356666D02*
X114076190Y-114690000D01*
X114552380Y-114928095D02*
X113552380Y-114928095D01*
X113552380Y-114547142D01*
X113600000Y-114451904D01*
X113647619Y-114404285D01*
X113742857Y-114356666D01*
X113885714Y-114356666D01*
X113980952Y-114404285D01*
X114028571Y-114451904D01*
X114076190Y-114547142D01*
X114076190Y-114928095D01*
X113647619Y-113975714D02*
X113600000Y-113928095D01*
X113552380Y-113832857D01*
X113552380Y-113594761D01*
X113600000Y-113499523D01*
X113647619Y-113451904D01*
X113742857Y-113404285D01*
X113838095Y-113404285D01*
X113980952Y-113451904D01*
X114552380Y-114023333D01*
X114552380Y-113404285D01*
G04 #@! TO.C,RV6*
X46504761Y-152852380D02*
X46171428Y-152376190D01*
X45933333Y-152852380D02*
X45933333Y-151852380D01*
X46314285Y-151852380D01*
X46409523Y-151900000D01*
X46457142Y-151947619D01*
X46504761Y-152042857D01*
X46504761Y-152185714D01*
X46457142Y-152280952D01*
X46409523Y-152328571D01*
X46314285Y-152376190D01*
X45933333Y-152376190D01*
X46790476Y-151852380D02*
X47123809Y-152852380D01*
X47457142Y-151852380D01*
X48219047Y-151852380D02*
X48028571Y-151852380D01*
X47933333Y-151900000D01*
X47885714Y-151947619D01*
X47790476Y-152090476D01*
X47742857Y-152280952D01*
X47742857Y-152661904D01*
X47790476Y-152757142D01*
X47838095Y-152804761D01*
X47933333Y-152852380D01*
X48123809Y-152852380D01*
X48219047Y-152804761D01*
X48266666Y-152757142D01*
X48314285Y-152661904D01*
X48314285Y-152423809D01*
X48266666Y-152328571D01*
X48219047Y-152280952D01*
X48123809Y-152233333D01*
X47933333Y-152233333D01*
X47838095Y-152280952D01*
X47790476Y-152328571D01*
X47742857Y-152423809D01*
G04 #@! TO.C,RV1*
X61084761Y-152852380D02*
X60751428Y-152376190D01*
X60513333Y-152852380D02*
X60513333Y-151852380D01*
X60894285Y-151852380D01*
X60989523Y-151900000D01*
X61037142Y-151947619D01*
X61084761Y-152042857D01*
X61084761Y-152185714D01*
X61037142Y-152280952D01*
X60989523Y-152328571D01*
X60894285Y-152376190D01*
X60513333Y-152376190D01*
X61370476Y-151852380D02*
X61703809Y-152852380D01*
X62037142Y-151852380D01*
X62894285Y-152852380D02*
X62322857Y-152852380D01*
X62608571Y-152852380D02*
X62608571Y-151852380D01*
X62513333Y-151995238D01*
X62418095Y-152090476D01*
X62322857Y-152138095D01*
G04 #@! TO.C,RV2*
X75264761Y-152852380D02*
X74931428Y-152376190D01*
X74693333Y-152852380D02*
X74693333Y-151852380D01*
X75074285Y-151852380D01*
X75169523Y-151900000D01*
X75217142Y-151947619D01*
X75264761Y-152042857D01*
X75264761Y-152185714D01*
X75217142Y-152280952D01*
X75169523Y-152328571D01*
X75074285Y-152376190D01*
X74693333Y-152376190D01*
X75550476Y-151852380D02*
X75883809Y-152852380D01*
X76217142Y-151852380D01*
X76502857Y-151947619D02*
X76550476Y-151900000D01*
X76645714Y-151852380D01*
X76883809Y-151852380D01*
X76979047Y-151900000D01*
X77026666Y-151947619D01*
X77074285Y-152042857D01*
X77074285Y-152138095D01*
X77026666Y-152280952D01*
X76455238Y-152852380D01*
X77074285Y-152852380D01*
G04 #@! TO.C,RV3*
X89344761Y-152952380D02*
X89011428Y-152476190D01*
X88773333Y-152952380D02*
X88773333Y-151952380D01*
X89154285Y-151952380D01*
X89249523Y-152000000D01*
X89297142Y-152047619D01*
X89344761Y-152142857D01*
X89344761Y-152285714D01*
X89297142Y-152380952D01*
X89249523Y-152428571D01*
X89154285Y-152476190D01*
X88773333Y-152476190D01*
X89630476Y-151952380D02*
X89963809Y-152952380D01*
X90297142Y-151952380D01*
X90535238Y-151952380D02*
X91154285Y-151952380D01*
X90820952Y-152333333D01*
X90963809Y-152333333D01*
X91059047Y-152380952D01*
X91106666Y-152428571D01*
X91154285Y-152523809D01*
X91154285Y-152761904D01*
X91106666Y-152857142D01*
X91059047Y-152904761D01*
X90963809Y-152952380D01*
X90678095Y-152952380D01*
X90582857Y-152904761D01*
X90535238Y-152857142D01*
G04 #@! TO.C,RV4*
X103624761Y-152952380D02*
X103291428Y-152476190D01*
X103053333Y-152952380D02*
X103053333Y-151952380D01*
X103434285Y-151952380D01*
X103529523Y-152000000D01*
X103577142Y-152047619D01*
X103624761Y-152142857D01*
X103624761Y-152285714D01*
X103577142Y-152380952D01*
X103529523Y-152428571D01*
X103434285Y-152476190D01*
X103053333Y-152476190D01*
X103910476Y-151952380D02*
X104243809Y-152952380D01*
X104577142Y-151952380D01*
X105339047Y-152285714D02*
X105339047Y-152952380D01*
X105100952Y-151904761D02*
X104862857Y-152619047D01*
X105481904Y-152619047D01*
G04 #@! TD*
M02*
