G04 #@! TF.GenerationSoftware,KiCad,Pcbnew,(5.0.2)-1*
G04 #@! TF.CreationDate,2019-04-16T20:40:06+02:00*
G04 #@! TF.ProjectId,CCdrum,43436472-756d-42e6-9b69-6361645f7063,rev?*
G04 #@! TF.SameCoordinates,Original*
G04 #@! TF.FileFunction,Soldermask,Bot*
G04 #@! TF.FilePolarity,Negative*
%FSLAX46Y46*%
G04 Gerber Fmt 4.6, Leading zero omitted, Abs format (unit mm)*
G04 Created by KiCad (PCBNEW (5.0.2)-1) date 16/04/2019 20:40:06*
%MOMM*%
%LPD*%
G01*
G04 APERTURE LIST*
%ADD10C,0.100000*%
G04 APERTURE END LIST*
D10*
G36*
X133206565Y-154589389D02*
X133397834Y-154668615D01*
X133569976Y-154783637D01*
X133716363Y-154930024D01*
X133831385Y-155102166D01*
X133910611Y-155293435D01*
X133951000Y-155496484D01*
X133951000Y-155703516D01*
X133910611Y-155906565D01*
X133831385Y-156097834D01*
X133716363Y-156269976D01*
X133569976Y-156416363D01*
X133397834Y-156531385D01*
X133206565Y-156610611D01*
X133003516Y-156651000D01*
X132796484Y-156651000D01*
X132593435Y-156610611D01*
X132402166Y-156531385D01*
X132230024Y-156416363D01*
X132083637Y-156269976D01*
X131968615Y-156097834D01*
X131889389Y-155906565D01*
X131849000Y-155703516D01*
X131849000Y-155496484D01*
X131889389Y-155293435D01*
X131968615Y-155102166D01*
X132083637Y-154930024D01*
X132230024Y-154783637D01*
X132402166Y-154668615D01*
X132593435Y-154589389D01*
X132796484Y-154549000D01*
X133003516Y-154549000D01*
X133206565Y-154589389D01*
X133206565Y-154589389D01*
G37*
G36*
X128706565Y-154589389D02*
X128897834Y-154668615D01*
X129069976Y-154783637D01*
X129216363Y-154930024D01*
X129331385Y-155102166D01*
X129410611Y-155293435D01*
X129451000Y-155496484D01*
X129451000Y-155703516D01*
X129410611Y-155906565D01*
X129331385Y-156097834D01*
X129216363Y-156269976D01*
X129069976Y-156416363D01*
X128897834Y-156531385D01*
X128706565Y-156610611D01*
X128503516Y-156651000D01*
X128296484Y-156651000D01*
X128093435Y-156610611D01*
X127902166Y-156531385D01*
X127730024Y-156416363D01*
X127583637Y-156269976D01*
X127468615Y-156097834D01*
X127389389Y-155906565D01*
X127349000Y-155703516D01*
X127349000Y-155496484D01*
X127389389Y-155293435D01*
X127468615Y-155102166D01*
X127583637Y-154930024D01*
X127730024Y-154783637D01*
X127902166Y-154668615D01*
X128093435Y-154589389D01*
X128296484Y-154549000D01*
X128503516Y-154549000D01*
X128706565Y-154589389D01*
X128706565Y-154589389D01*
G37*
G36*
X124125331Y-150668211D02*
X124453092Y-150803974D01*
X124748073Y-151001074D01*
X124998926Y-151251927D01*
X125196026Y-151546908D01*
X125331789Y-151874669D01*
X125401000Y-152222616D01*
X125401000Y-152577384D01*
X125331789Y-152925331D01*
X125196026Y-153253092D01*
X124998926Y-153548073D01*
X124748073Y-153798926D01*
X124453092Y-153996026D01*
X124125331Y-154131789D01*
X123777384Y-154201000D01*
X123422616Y-154201000D01*
X123074669Y-154131789D01*
X122746908Y-153996026D01*
X122451927Y-153798926D01*
X122201074Y-153548073D01*
X122003974Y-153253092D01*
X121868211Y-152925331D01*
X121799000Y-152577384D01*
X121799000Y-152222616D01*
X121868211Y-151874669D01*
X122003974Y-151546908D01*
X122201074Y-151251927D01*
X122451927Y-151001074D01*
X122746908Y-150803974D01*
X123074669Y-150668211D01*
X123422616Y-150599000D01*
X123777384Y-150599000D01*
X124125331Y-150668211D01*
X124125331Y-150668211D01*
G37*
G36*
X114525331Y-150668211D02*
X114853092Y-150803974D01*
X115148073Y-151001074D01*
X115398926Y-151251927D01*
X115596026Y-151546908D01*
X115731789Y-151874669D01*
X115801000Y-152222616D01*
X115801000Y-152577384D01*
X115731789Y-152925331D01*
X115596026Y-153253092D01*
X115398926Y-153548073D01*
X115148073Y-153798926D01*
X114853092Y-153996026D01*
X114525331Y-154131789D01*
X114177384Y-154201000D01*
X113822616Y-154201000D01*
X113474669Y-154131789D01*
X113146908Y-153996026D01*
X112851927Y-153798926D01*
X112601074Y-153548073D01*
X112403974Y-153253092D01*
X112268211Y-152925331D01*
X112199000Y-152577384D01*
X112199000Y-152222616D01*
X112268211Y-151874669D01*
X112403974Y-151546908D01*
X112601074Y-151251927D01*
X112851927Y-151001074D01*
X113146908Y-150803974D01*
X113474669Y-150668211D01*
X113822616Y-150599000D01*
X114177384Y-150599000D01*
X114525331Y-150668211D01*
X114525331Y-150668211D01*
G37*
G36*
X109805331Y-150668211D02*
X110133092Y-150803974D01*
X110428073Y-151001074D01*
X110678926Y-151251927D01*
X110876026Y-151546908D01*
X111011789Y-151874669D01*
X111081000Y-152222616D01*
X111081000Y-152577384D01*
X111011789Y-152925331D01*
X110876026Y-153253092D01*
X110678926Y-153548073D01*
X110428073Y-153798926D01*
X110133092Y-153996026D01*
X109805331Y-154131789D01*
X109457384Y-154201000D01*
X109102616Y-154201000D01*
X108754669Y-154131789D01*
X108426908Y-153996026D01*
X108131927Y-153798926D01*
X107881074Y-153548073D01*
X107683974Y-153253092D01*
X107548211Y-152925331D01*
X107479000Y-152577384D01*
X107479000Y-152222616D01*
X107548211Y-151874669D01*
X107683974Y-151546908D01*
X107881074Y-151251927D01*
X108131927Y-151001074D01*
X108426908Y-150803974D01*
X108754669Y-150668211D01*
X109102616Y-150599000D01*
X109457384Y-150599000D01*
X109805331Y-150668211D01*
X109805331Y-150668211D01*
G37*
G36*
X100205331Y-150668211D02*
X100533092Y-150803974D01*
X100828073Y-151001074D01*
X101078926Y-151251927D01*
X101276026Y-151546908D01*
X101411789Y-151874669D01*
X101481000Y-152222616D01*
X101481000Y-152577384D01*
X101411789Y-152925331D01*
X101276026Y-153253092D01*
X101078926Y-153548073D01*
X100828073Y-153798926D01*
X100533092Y-153996026D01*
X100205331Y-154131789D01*
X99857384Y-154201000D01*
X99502616Y-154201000D01*
X99154669Y-154131789D01*
X98826908Y-153996026D01*
X98531927Y-153798926D01*
X98281074Y-153548073D01*
X98083974Y-153253092D01*
X97948211Y-152925331D01*
X97879000Y-152577384D01*
X97879000Y-152222616D01*
X97948211Y-151874669D01*
X98083974Y-151546908D01*
X98281074Y-151251927D01*
X98531927Y-151001074D01*
X98826908Y-150803974D01*
X99154669Y-150668211D01*
X99502616Y-150599000D01*
X99857384Y-150599000D01*
X100205331Y-150668211D01*
X100205331Y-150668211D01*
G37*
G36*
X95485331Y-150668211D02*
X95813092Y-150803974D01*
X96108073Y-151001074D01*
X96358926Y-151251927D01*
X96556026Y-151546908D01*
X96691789Y-151874669D01*
X96761000Y-152222616D01*
X96761000Y-152577384D01*
X96691789Y-152925331D01*
X96556026Y-153253092D01*
X96358926Y-153548073D01*
X96108073Y-153798926D01*
X95813092Y-153996026D01*
X95485331Y-154131789D01*
X95137384Y-154201000D01*
X94782616Y-154201000D01*
X94434669Y-154131789D01*
X94106908Y-153996026D01*
X93811927Y-153798926D01*
X93561074Y-153548073D01*
X93363974Y-153253092D01*
X93228211Y-152925331D01*
X93159000Y-152577384D01*
X93159000Y-152222616D01*
X93228211Y-151874669D01*
X93363974Y-151546908D01*
X93561074Y-151251927D01*
X93811927Y-151001074D01*
X94106908Y-150803974D01*
X94434669Y-150668211D01*
X94782616Y-150599000D01*
X95137384Y-150599000D01*
X95485331Y-150668211D01*
X95485331Y-150668211D01*
G37*
G36*
X85885331Y-150668211D02*
X86213092Y-150803974D01*
X86508073Y-151001074D01*
X86758926Y-151251927D01*
X86956026Y-151546908D01*
X87091789Y-151874669D01*
X87161000Y-152222616D01*
X87161000Y-152577384D01*
X87091789Y-152925331D01*
X86956026Y-153253092D01*
X86758926Y-153548073D01*
X86508073Y-153798926D01*
X86213092Y-153996026D01*
X85885331Y-154131789D01*
X85537384Y-154201000D01*
X85182616Y-154201000D01*
X84834669Y-154131789D01*
X84506908Y-153996026D01*
X84211927Y-153798926D01*
X83961074Y-153548073D01*
X83763974Y-153253092D01*
X83628211Y-152925331D01*
X83559000Y-152577384D01*
X83559000Y-152222616D01*
X83628211Y-151874669D01*
X83763974Y-151546908D01*
X83961074Y-151251927D01*
X84211927Y-151001074D01*
X84506908Y-150803974D01*
X84834669Y-150668211D01*
X85182616Y-150599000D01*
X85537384Y-150599000D01*
X85885331Y-150668211D01*
X85885331Y-150668211D01*
G37*
G36*
X81165331Y-150668211D02*
X81493092Y-150803974D01*
X81788073Y-151001074D01*
X82038926Y-151251927D01*
X82236026Y-151546908D01*
X82371789Y-151874669D01*
X82441000Y-152222616D01*
X82441000Y-152577384D01*
X82371789Y-152925331D01*
X82236026Y-153253092D01*
X82038926Y-153548073D01*
X81788073Y-153798926D01*
X81493092Y-153996026D01*
X81165331Y-154131789D01*
X80817384Y-154201000D01*
X80462616Y-154201000D01*
X80114669Y-154131789D01*
X79786908Y-153996026D01*
X79491927Y-153798926D01*
X79241074Y-153548073D01*
X79043974Y-153253092D01*
X78908211Y-152925331D01*
X78839000Y-152577384D01*
X78839000Y-152222616D01*
X78908211Y-151874669D01*
X79043974Y-151546908D01*
X79241074Y-151251927D01*
X79491927Y-151001074D01*
X79786908Y-150803974D01*
X80114669Y-150668211D01*
X80462616Y-150599000D01*
X80817384Y-150599000D01*
X81165331Y-150668211D01*
X81165331Y-150668211D01*
G37*
G36*
X71565331Y-150668211D02*
X71893092Y-150803974D01*
X72188073Y-151001074D01*
X72438926Y-151251927D01*
X72636026Y-151546908D01*
X72771789Y-151874669D01*
X72841000Y-152222616D01*
X72841000Y-152577384D01*
X72771789Y-152925331D01*
X72636026Y-153253092D01*
X72438926Y-153548073D01*
X72188073Y-153798926D01*
X71893092Y-153996026D01*
X71565331Y-154131789D01*
X71217384Y-154201000D01*
X70862616Y-154201000D01*
X70514669Y-154131789D01*
X70186908Y-153996026D01*
X69891927Y-153798926D01*
X69641074Y-153548073D01*
X69443974Y-153253092D01*
X69308211Y-152925331D01*
X69239000Y-152577384D01*
X69239000Y-152222616D01*
X69308211Y-151874669D01*
X69443974Y-151546908D01*
X69641074Y-151251927D01*
X69891927Y-151001074D01*
X70186908Y-150803974D01*
X70514669Y-150668211D01*
X70862616Y-150599000D01*
X71217384Y-150599000D01*
X71565331Y-150668211D01*
X71565331Y-150668211D01*
G37*
G36*
X66845331Y-150668211D02*
X67173092Y-150803974D01*
X67468073Y-151001074D01*
X67718926Y-151251927D01*
X67916026Y-151546908D01*
X68051789Y-151874669D01*
X68121000Y-152222616D01*
X68121000Y-152577384D01*
X68051789Y-152925331D01*
X67916026Y-153253092D01*
X67718926Y-153548073D01*
X67468073Y-153798926D01*
X67173092Y-153996026D01*
X66845331Y-154131789D01*
X66497384Y-154201000D01*
X66142616Y-154201000D01*
X65794669Y-154131789D01*
X65466908Y-153996026D01*
X65171927Y-153798926D01*
X64921074Y-153548073D01*
X64723974Y-153253092D01*
X64588211Y-152925331D01*
X64519000Y-152577384D01*
X64519000Y-152222616D01*
X64588211Y-151874669D01*
X64723974Y-151546908D01*
X64921074Y-151251927D01*
X65171927Y-151001074D01*
X65466908Y-150803974D01*
X65794669Y-150668211D01*
X66142616Y-150599000D01*
X66497384Y-150599000D01*
X66845331Y-150668211D01*
X66845331Y-150668211D01*
G37*
G36*
X57245331Y-150668211D02*
X57573092Y-150803974D01*
X57868073Y-151001074D01*
X58118926Y-151251927D01*
X58316026Y-151546908D01*
X58451789Y-151874669D01*
X58521000Y-152222616D01*
X58521000Y-152577384D01*
X58451789Y-152925331D01*
X58316026Y-153253092D01*
X58118926Y-153548073D01*
X57868073Y-153798926D01*
X57573092Y-153996026D01*
X57245331Y-154131789D01*
X56897384Y-154201000D01*
X56542616Y-154201000D01*
X56194669Y-154131789D01*
X55866908Y-153996026D01*
X55571927Y-153798926D01*
X55321074Y-153548073D01*
X55123974Y-153253092D01*
X54988211Y-152925331D01*
X54919000Y-152577384D01*
X54919000Y-152222616D01*
X54988211Y-151874669D01*
X55123974Y-151546908D01*
X55321074Y-151251927D01*
X55571927Y-151001074D01*
X55866908Y-150803974D01*
X56194669Y-150668211D01*
X56542616Y-150599000D01*
X56897384Y-150599000D01*
X57245331Y-150668211D01*
X57245331Y-150668211D01*
G37*
G36*
X52525331Y-150668211D02*
X52853092Y-150803974D01*
X53148073Y-151001074D01*
X53398926Y-151251927D01*
X53596026Y-151546908D01*
X53731789Y-151874669D01*
X53801000Y-152222616D01*
X53801000Y-152577384D01*
X53731789Y-152925331D01*
X53596026Y-153253092D01*
X53398926Y-153548073D01*
X53148073Y-153798926D01*
X52853092Y-153996026D01*
X52525331Y-154131789D01*
X52177384Y-154201000D01*
X51822616Y-154201000D01*
X51474669Y-154131789D01*
X51146908Y-153996026D01*
X50851927Y-153798926D01*
X50601074Y-153548073D01*
X50403974Y-153253092D01*
X50268211Y-152925331D01*
X50199000Y-152577384D01*
X50199000Y-152222616D01*
X50268211Y-151874669D01*
X50403974Y-151546908D01*
X50601074Y-151251927D01*
X50851927Y-151001074D01*
X51146908Y-150803974D01*
X51474669Y-150668211D01*
X51822616Y-150599000D01*
X52177384Y-150599000D01*
X52525331Y-150668211D01*
X52525331Y-150668211D01*
G37*
G36*
X42925331Y-150668211D02*
X43253092Y-150803974D01*
X43548073Y-151001074D01*
X43798926Y-151251927D01*
X43996026Y-151546908D01*
X44131789Y-151874669D01*
X44201000Y-152222616D01*
X44201000Y-152577384D01*
X44131789Y-152925331D01*
X43996026Y-153253092D01*
X43798926Y-153548073D01*
X43548073Y-153798926D01*
X43253092Y-153996026D01*
X42925331Y-154131789D01*
X42577384Y-154201000D01*
X42222616Y-154201000D01*
X41874669Y-154131789D01*
X41546908Y-153996026D01*
X41251927Y-153798926D01*
X41001074Y-153548073D01*
X40803974Y-153253092D01*
X40668211Y-152925331D01*
X40599000Y-152577384D01*
X40599000Y-152222616D01*
X40668211Y-151874669D01*
X40803974Y-151546908D01*
X41001074Y-151251927D01*
X41251927Y-151001074D01*
X41546908Y-150803974D01*
X41874669Y-150668211D01*
X42222616Y-150599000D01*
X42577384Y-150599000D01*
X42925331Y-150668211D01*
X42925331Y-150668211D01*
G37*
G36*
X128706565Y-148089389D02*
X128897834Y-148168615D01*
X129069976Y-148283637D01*
X129216363Y-148430024D01*
X129331385Y-148602166D01*
X129410611Y-148793435D01*
X129451000Y-148996484D01*
X129451000Y-149203516D01*
X129410611Y-149406565D01*
X129331385Y-149597834D01*
X129216363Y-149769976D01*
X129069976Y-149916363D01*
X128897834Y-150031385D01*
X128706565Y-150110611D01*
X128503516Y-150151000D01*
X128296484Y-150151000D01*
X128093435Y-150110611D01*
X127902166Y-150031385D01*
X127730024Y-149916363D01*
X127583637Y-149769976D01*
X127468615Y-149597834D01*
X127389389Y-149406565D01*
X127349000Y-149203516D01*
X127349000Y-148996484D01*
X127389389Y-148793435D01*
X127468615Y-148602166D01*
X127583637Y-148430024D01*
X127730024Y-148283637D01*
X127902166Y-148168615D01*
X128093435Y-148089389D01*
X128296484Y-148049000D01*
X128503516Y-148049000D01*
X128706565Y-148089389D01*
X128706565Y-148089389D01*
G37*
G36*
X133206565Y-148089389D02*
X133397834Y-148168615D01*
X133569976Y-148283637D01*
X133716363Y-148430024D01*
X133831385Y-148602166D01*
X133910611Y-148793435D01*
X133951000Y-148996484D01*
X133951000Y-149203516D01*
X133910611Y-149406565D01*
X133831385Y-149597834D01*
X133716363Y-149769976D01*
X133569976Y-149916363D01*
X133397834Y-150031385D01*
X133206565Y-150110611D01*
X133003516Y-150151000D01*
X132796484Y-150151000D01*
X132593435Y-150110611D01*
X132402166Y-150031385D01*
X132230024Y-149916363D01*
X132083637Y-149769976D01*
X131968615Y-149597834D01*
X131889389Y-149406565D01*
X131849000Y-149203516D01*
X131849000Y-148996484D01*
X131889389Y-148793435D01*
X131968615Y-148602166D01*
X132083637Y-148430024D01*
X132230024Y-148283637D01*
X132402166Y-148168615D01*
X132593435Y-148089389D01*
X132796484Y-148049000D01*
X133003516Y-148049000D01*
X133206565Y-148089389D01*
X133206565Y-148089389D01*
G37*
G36*
X47357025Y-144360590D02*
X47508012Y-144406392D01*
X47647165Y-144480770D01*
X47769133Y-144580867D01*
X47869230Y-144702835D01*
X47943608Y-144841988D01*
X47989410Y-144992975D01*
X48001000Y-145110654D01*
X48001000Y-145689346D01*
X47989410Y-145807025D01*
X47943608Y-145958012D01*
X47869230Y-146097165D01*
X47769136Y-146219130D01*
X47769134Y-146219131D01*
X47769133Y-146219133D01*
X47769129Y-146219136D01*
X47647161Y-146319232D01*
X47508011Y-146393608D01*
X47357024Y-146439410D01*
X47200000Y-146454875D01*
X47042975Y-146439410D01*
X46891988Y-146393608D01*
X46752835Y-146319230D01*
X46630870Y-146219136D01*
X46630869Y-146219134D01*
X46630867Y-146219133D01*
X46580819Y-146158149D01*
X46530768Y-146097161D01*
X46456392Y-145958011D01*
X46410590Y-145807024D01*
X46399000Y-145689345D01*
X46399000Y-145110654D01*
X46410590Y-144992975D01*
X46433491Y-144917483D01*
X46456392Y-144841988D01*
X46530771Y-144702835D01*
X46630868Y-144580867D01*
X46752836Y-144480770D01*
X46891989Y-144406392D01*
X47042976Y-144360590D01*
X47200000Y-144345125D01*
X47357025Y-144360590D01*
X47357025Y-144360590D01*
G37*
G36*
X104637025Y-144360590D02*
X104788012Y-144406392D01*
X104927165Y-144480770D01*
X105049133Y-144580867D01*
X105149230Y-144702835D01*
X105223608Y-144841988D01*
X105269410Y-144992975D01*
X105281000Y-145110654D01*
X105281000Y-145689346D01*
X105269410Y-145807025D01*
X105223608Y-145958012D01*
X105149230Y-146097165D01*
X105049136Y-146219130D01*
X105049134Y-146219131D01*
X105049133Y-146219133D01*
X105049129Y-146219136D01*
X104927161Y-146319232D01*
X104788011Y-146393608D01*
X104637024Y-146439410D01*
X104480000Y-146454875D01*
X104322975Y-146439410D01*
X104171988Y-146393608D01*
X104032835Y-146319230D01*
X103910870Y-146219136D01*
X103910869Y-146219134D01*
X103910867Y-146219133D01*
X103860819Y-146158149D01*
X103810768Y-146097161D01*
X103736392Y-145958011D01*
X103690590Y-145807024D01*
X103679000Y-145689345D01*
X103679000Y-145110654D01*
X103690590Y-144992975D01*
X103713491Y-144917483D01*
X103736392Y-144841988D01*
X103810771Y-144702835D01*
X103910868Y-144580867D01*
X104032836Y-144480770D01*
X104171989Y-144406392D01*
X104322976Y-144360590D01*
X104480000Y-144345125D01*
X104637025Y-144360590D01*
X104637025Y-144360590D01*
G37*
G36*
X102137025Y-144360590D02*
X102288012Y-144406392D01*
X102427165Y-144480770D01*
X102549133Y-144580867D01*
X102649230Y-144702835D01*
X102723608Y-144841988D01*
X102769410Y-144992975D01*
X102781000Y-145110654D01*
X102781000Y-145689346D01*
X102769410Y-145807025D01*
X102723608Y-145958012D01*
X102649230Y-146097165D01*
X102549136Y-146219130D01*
X102549134Y-146219131D01*
X102549133Y-146219133D01*
X102549129Y-146219136D01*
X102427161Y-146319232D01*
X102288011Y-146393608D01*
X102137024Y-146439410D01*
X101980000Y-146454875D01*
X101822975Y-146439410D01*
X101671988Y-146393608D01*
X101532835Y-146319230D01*
X101410870Y-146219136D01*
X101410869Y-146219134D01*
X101410867Y-146219133D01*
X101360819Y-146158149D01*
X101310768Y-146097161D01*
X101236392Y-145958011D01*
X101190590Y-145807024D01*
X101179000Y-145689345D01*
X101179000Y-145110654D01*
X101190590Y-144992975D01*
X101213491Y-144917483D01*
X101236392Y-144841988D01*
X101310771Y-144702835D01*
X101410868Y-144580867D01*
X101532836Y-144480770D01*
X101671989Y-144406392D01*
X101822976Y-144360590D01*
X101980000Y-144345125D01*
X102137025Y-144360590D01*
X102137025Y-144360590D01*
G37*
G36*
X92817025Y-144360590D02*
X92968012Y-144406392D01*
X93107165Y-144480770D01*
X93229133Y-144580867D01*
X93329230Y-144702835D01*
X93403608Y-144841988D01*
X93449410Y-144992975D01*
X93461000Y-145110654D01*
X93461000Y-145689346D01*
X93449410Y-145807025D01*
X93403608Y-145958012D01*
X93329230Y-146097165D01*
X93229136Y-146219130D01*
X93229134Y-146219131D01*
X93229133Y-146219133D01*
X93229129Y-146219136D01*
X93107161Y-146319232D01*
X92968011Y-146393608D01*
X92817024Y-146439410D01*
X92660000Y-146454875D01*
X92502975Y-146439410D01*
X92351988Y-146393608D01*
X92212835Y-146319230D01*
X92090870Y-146219136D01*
X92090869Y-146219134D01*
X92090867Y-146219133D01*
X92040819Y-146158149D01*
X91990768Y-146097161D01*
X91916392Y-145958011D01*
X91870590Y-145807024D01*
X91859000Y-145689345D01*
X91859000Y-145110654D01*
X91870590Y-144992975D01*
X91893491Y-144917483D01*
X91916392Y-144841988D01*
X91990771Y-144702835D01*
X92090868Y-144580867D01*
X92212836Y-144480770D01*
X92351989Y-144406392D01*
X92502976Y-144360590D01*
X92660000Y-144345125D01*
X92817025Y-144360590D01*
X92817025Y-144360590D01*
G37*
G36*
X90317025Y-144360590D02*
X90468012Y-144406392D01*
X90607165Y-144480770D01*
X90729133Y-144580867D01*
X90829230Y-144702835D01*
X90903608Y-144841988D01*
X90949410Y-144992975D01*
X90961000Y-145110654D01*
X90961000Y-145689346D01*
X90949410Y-145807025D01*
X90903608Y-145958012D01*
X90829230Y-146097165D01*
X90729136Y-146219130D01*
X90729134Y-146219131D01*
X90729133Y-146219133D01*
X90729129Y-146219136D01*
X90607161Y-146319232D01*
X90468011Y-146393608D01*
X90317024Y-146439410D01*
X90160000Y-146454875D01*
X90002975Y-146439410D01*
X89851988Y-146393608D01*
X89712835Y-146319230D01*
X89590870Y-146219136D01*
X89590869Y-146219134D01*
X89590867Y-146219133D01*
X89540819Y-146158149D01*
X89490768Y-146097161D01*
X89416392Y-145958011D01*
X89370590Y-145807024D01*
X89359000Y-145689345D01*
X89359000Y-145110654D01*
X89370590Y-144992975D01*
X89393491Y-144917483D01*
X89416392Y-144841988D01*
X89490771Y-144702835D01*
X89590868Y-144580867D01*
X89712836Y-144480770D01*
X89851989Y-144406392D01*
X90002976Y-144360590D01*
X90160000Y-144345125D01*
X90317025Y-144360590D01*
X90317025Y-144360590D01*
G37*
G36*
X87817025Y-144360590D02*
X87968012Y-144406392D01*
X88107165Y-144480770D01*
X88229133Y-144580867D01*
X88329230Y-144702835D01*
X88403608Y-144841988D01*
X88449410Y-144992975D01*
X88461000Y-145110654D01*
X88461000Y-145689346D01*
X88449410Y-145807025D01*
X88403608Y-145958012D01*
X88329230Y-146097165D01*
X88229136Y-146219130D01*
X88229134Y-146219131D01*
X88229133Y-146219133D01*
X88229129Y-146219136D01*
X88107161Y-146319232D01*
X87968011Y-146393608D01*
X87817024Y-146439410D01*
X87660000Y-146454875D01*
X87502975Y-146439410D01*
X87351988Y-146393608D01*
X87212835Y-146319230D01*
X87090870Y-146219136D01*
X87090869Y-146219134D01*
X87090867Y-146219133D01*
X87040819Y-146158149D01*
X86990768Y-146097161D01*
X86916392Y-145958011D01*
X86870590Y-145807024D01*
X86859000Y-145689345D01*
X86859000Y-145110654D01*
X86870590Y-144992975D01*
X86893491Y-144917483D01*
X86916392Y-144841988D01*
X86990771Y-144702835D01*
X87090868Y-144580867D01*
X87212836Y-144480770D01*
X87351989Y-144406392D01*
X87502976Y-144360590D01*
X87660000Y-144345125D01*
X87817025Y-144360590D01*
X87817025Y-144360590D01*
G37*
G36*
X78497025Y-144360590D02*
X78648012Y-144406392D01*
X78787165Y-144480770D01*
X78909133Y-144580867D01*
X79009230Y-144702835D01*
X79083608Y-144841988D01*
X79129410Y-144992975D01*
X79141000Y-145110654D01*
X79141000Y-145689346D01*
X79129410Y-145807025D01*
X79083608Y-145958012D01*
X79009230Y-146097165D01*
X78909136Y-146219130D01*
X78909134Y-146219131D01*
X78909133Y-146219133D01*
X78909129Y-146219136D01*
X78787161Y-146319232D01*
X78648011Y-146393608D01*
X78497024Y-146439410D01*
X78340000Y-146454875D01*
X78182975Y-146439410D01*
X78031988Y-146393608D01*
X77892835Y-146319230D01*
X77770870Y-146219136D01*
X77770869Y-146219134D01*
X77770867Y-146219133D01*
X77720819Y-146158149D01*
X77670768Y-146097161D01*
X77596392Y-145958011D01*
X77550590Y-145807024D01*
X77539000Y-145689345D01*
X77539000Y-145110654D01*
X77550590Y-144992975D01*
X77573491Y-144917483D01*
X77596392Y-144841988D01*
X77670771Y-144702835D01*
X77770868Y-144580867D01*
X77892836Y-144480770D01*
X78031989Y-144406392D01*
X78182976Y-144360590D01*
X78340000Y-144345125D01*
X78497025Y-144360590D01*
X78497025Y-144360590D01*
G37*
G36*
X75997025Y-144360590D02*
X76148012Y-144406392D01*
X76287165Y-144480770D01*
X76409133Y-144580867D01*
X76509230Y-144702835D01*
X76583608Y-144841988D01*
X76629410Y-144992975D01*
X76641000Y-145110654D01*
X76641000Y-145689346D01*
X76629410Y-145807025D01*
X76583608Y-145958012D01*
X76509230Y-146097165D01*
X76409136Y-146219130D01*
X76409134Y-146219131D01*
X76409133Y-146219133D01*
X76409129Y-146219136D01*
X76287161Y-146319232D01*
X76148011Y-146393608D01*
X75997024Y-146439410D01*
X75840000Y-146454875D01*
X75682975Y-146439410D01*
X75531988Y-146393608D01*
X75392835Y-146319230D01*
X75270870Y-146219136D01*
X75270869Y-146219134D01*
X75270867Y-146219133D01*
X75220819Y-146158149D01*
X75170768Y-146097161D01*
X75096392Y-145958011D01*
X75050590Y-145807024D01*
X75039000Y-145689345D01*
X75039000Y-145110654D01*
X75050590Y-144992975D01*
X75073491Y-144917483D01*
X75096392Y-144841988D01*
X75170771Y-144702835D01*
X75270868Y-144580867D01*
X75392836Y-144480770D01*
X75531989Y-144406392D01*
X75682976Y-144360590D01*
X75840000Y-144345125D01*
X75997025Y-144360590D01*
X75997025Y-144360590D01*
G37*
G36*
X73497025Y-144360590D02*
X73648012Y-144406392D01*
X73787165Y-144480770D01*
X73909133Y-144580867D01*
X74009230Y-144702835D01*
X74083608Y-144841988D01*
X74129410Y-144992975D01*
X74141000Y-145110654D01*
X74141000Y-145689346D01*
X74129410Y-145807025D01*
X74083608Y-145958012D01*
X74009230Y-146097165D01*
X73909136Y-146219130D01*
X73909134Y-146219131D01*
X73909133Y-146219133D01*
X73909129Y-146219136D01*
X73787161Y-146319232D01*
X73648011Y-146393608D01*
X73497024Y-146439410D01*
X73340000Y-146454875D01*
X73182975Y-146439410D01*
X73031988Y-146393608D01*
X72892835Y-146319230D01*
X72770870Y-146219136D01*
X72770869Y-146219134D01*
X72770867Y-146219133D01*
X72720819Y-146158149D01*
X72670768Y-146097161D01*
X72596392Y-145958011D01*
X72550590Y-145807024D01*
X72539000Y-145689345D01*
X72539000Y-145110654D01*
X72550590Y-144992975D01*
X72573491Y-144917483D01*
X72596392Y-144841988D01*
X72670771Y-144702835D01*
X72770868Y-144580867D01*
X72892836Y-144480770D01*
X73031989Y-144406392D01*
X73182976Y-144360590D01*
X73340000Y-144345125D01*
X73497025Y-144360590D01*
X73497025Y-144360590D01*
G37*
G36*
X61677025Y-144360590D02*
X61828012Y-144406392D01*
X61967165Y-144480770D01*
X62089133Y-144580867D01*
X62189230Y-144702835D01*
X62263608Y-144841988D01*
X62309410Y-144992975D01*
X62321000Y-145110654D01*
X62321000Y-145689346D01*
X62309410Y-145807025D01*
X62263608Y-145958012D01*
X62189230Y-146097165D01*
X62089136Y-146219130D01*
X62089134Y-146219131D01*
X62089133Y-146219133D01*
X62089129Y-146219136D01*
X61967161Y-146319232D01*
X61828011Y-146393608D01*
X61677024Y-146439410D01*
X61520000Y-146454875D01*
X61362975Y-146439410D01*
X61211988Y-146393608D01*
X61072835Y-146319230D01*
X60950870Y-146219136D01*
X60950869Y-146219134D01*
X60950867Y-146219133D01*
X60900819Y-146158149D01*
X60850768Y-146097161D01*
X60776392Y-145958011D01*
X60730590Y-145807024D01*
X60719000Y-145689345D01*
X60719000Y-145110654D01*
X60730590Y-144992975D01*
X60753491Y-144917483D01*
X60776392Y-144841988D01*
X60850771Y-144702835D01*
X60950868Y-144580867D01*
X61072836Y-144480770D01*
X61211989Y-144406392D01*
X61362976Y-144360590D01*
X61520000Y-144345125D01*
X61677025Y-144360590D01*
X61677025Y-144360590D01*
G37*
G36*
X59177025Y-144360590D02*
X59328012Y-144406392D01*
X59467165Y-144480770D01*
X59589133Y-144580867D01*
X59689230Y-144702835D01*
X59763608Y-144841988D01*
X59809410Y-144992975D01*
X59821000Y-145110654D01*
X59821000Y-145689346D01*
X59809410Y-145807025D01*
X59763608Y-145958012D01*
X59689230Y-146097165D01*
X59589136Y-146219130D01*
X59589134Y-146219131D01*
X59589133Y-146219133D01*
X59589129Y-146219136D01*
X59467161Y-146319232D01*
X59328011Y-146393608D01*
X59177024Y-146439410D01*
X59020000Y-146454875D01*
X58862975Y-146439410D01*
X58711988Y-146393608D01*
X58572835Y-146319230D01*
X58450870Y-146219136D01*
X58450869Y-146219134D01*
X58450867Y-146219133D01*
X58400819Y-146158149D01*
X58350768Y-146097161D01*
X58276392Y-145958011D01*
X58230590Y-145807024D01*
X58219000Y-145689345D01*
X58219000Y-145110654D01*
X58230590Y-144992975D01*
X58253491Y-144917483D01*
X58276392Y-144841988D01*
X58350771Y-144702835D01*
X58450868Y-144580867D01*
X58572836Y-144480770D01*
X58711989Y-144406392D01*
X58862976Y-144360590D01*
X59020000Y-144345125D01*
X59177025Y-144360590D01*
X59177025Y-144360590D01*
G37*
G36*
X44857025Y-144360590D02*
X45008012Y-144406392D01*
X45147165Y-144480770D01*
X45269133Y-144580867D01*
X45369230Y-144702835D01*
X45443608Y-144841988D01*
X45489410Y-144992975D01*
X45501000Y-145110654D01*
X45501000Y-145689346D01*
X45489410Y-145807025D01*
X45443608Y-145958012D01*
X45369230Y-146097165D01*
X45269136Y-146219130D01*
X45269134Y-146219131D01*
X45269133Y-146219133D01*
X45269129Y-146219136D01*
X45147161Y-146319232D01*
X45008011Y-146393608D01*
X44857024Y-146439410D01*
X44700000Y-146454875D01*
X44542975Y-146439410D01*
X44391988Y-146393608D01*
X44252835Y-146319230D01*
X44130870Y-146219136D01*
X44130869Y-146219134D01*
X44130867Y-146219133D01*
X44080819Y-146158149D01*
X44030768Y-146097161D01*
X43956392Y-145958011D01*
X43910590Y-145807024D01*
X43899000Y-145689345D01*
X43899000Y-145110654D01*
X43910590Y-144992975D01*
X43933491Y-144917483D01*
X43956392Y-144841988D01*
X44030771Y-144702835D01*
X44130868Y-144580867D01*
X44252836Y-144480770D01*
X44391989Y-144406392D01*
X44542976Y-144360590D01*
X44700000Y-144345125D01*
X44857025Y-144360590D01*
X44857025Y-144360590D01*
G37*
G36*
X121457025Y-144360590D02*
X121608012Y-144406392D01*
X121747165Y-144480770D01*
X121869133Y-144580867D01*
X121969230Y-144702835D01*
X122043608Y-144841988D01*
X122089410Y-144992975D01*
X122101000Y-145110654D01*
X122101000Y-145689346D01*
X122089410Y-145807025D01*
X122043608Y-145958012D01*
X121969230Y-146097165D01*
X121869136Y-146219130D01*
X121869134Y-146219131D01*
X121869133Y-146219133D01*
X121869129Y-146219136D01*
X121747161Y-146319232D01*
X121608011Y-146393608D01*
X121457024Y-146439410D01*
X121300000Y-146454875D01*
X121142975Y-146439410D01*
X120991988Y-146393608D01*
X120852835Y-146319230D01*
X120730870Y-146219136D01*
X120730869Y-146219134D01*
X120730867Y-146219133D01*
X120680819Y-146158149D01*
X120630768Y-146097161D01*
X120556392Y-145958011D01*
X120510590Y-145807024D01*
X120499000Y-145689345D01*
X120499000Y-145110654D01*
X120510590Y-144992975D01*
X120533491Y-144917483D01*
X120556392Y-144841988D01*
X120630771Y-144702835D01*
X120730868Y-144580867D01*
X120852836Y-144480770D01*
X120991989Y-144406392D01*
X121142976Y-144360590D01*
X121300000Y-144345125D01*
X121457025Y-144360590D01*
X121457025Y-144360590D01*
G37*
G36*
X118957025Y-144360590D02*
X119108012Y-144406392D01*
X119247165Y-144480770D01*
X119369133Y-144580867D01*
X119469230Y-144702835D01*
X119543608Y-144841988D01*
X119589410Y-144992975D01*
X119601000Y-145110654D01*
X119601000Y-145689346D01*
X119589410Y-145807025D01*
X119543608Y-145958012D01*
X119469230Y-146097165D01*
X119369136Y-146219130D01*
X119369134Y-146219131D01*
X119369133Y-146219133D01*
X119369129Y-146219136D01*
X119247161Y-146319232D01*
X119108011Y-146393608D01*
X118957024Y-146439410D01*
X118800000Y-146454875D01*
X118642975Y-146439410D01*
X118491988Y-146393608D01*
X118352835Y-146319230D01*
X118230870Y-146219136D01*
X118230869Y-146219134D01*
X118230867Y-146219133D01*
X118180819Y-146158149D01*
X118130768Y-146097161D01*
X118056392Y-145958011D01*
X118010590Y-145807024D01*
X117999000Y-145689345D01*
X117999000Y-145110654D01*
X118010590Y-144992975D01*
X118033491Y-144917483D01*
X118056392Y-144841988D01*
X118130771Y-144702835D01*
X118230868Y-144580867D01*
X118352836Y-144480770D01*
X118491989Y-144406392D01*
X118642976Y-144360590D01*
X118800000Y-144345125D01*
X118957025Y-144360590D01*
X118957025Y-144360590D01*
G37*
G36*
X116457025Y-144360590D02*
X116608012Y-144406392D01*
X116747165Y-144480770D01*
X116869133Y-144580867D01*
X116969230Y-144702835D01*
X117043608Y-144841988D01*
X117089410Y-144992975D01*
X117101000Y-145110654D01*
X117101000Y-145689346D01*
X117089410Y-145807025D01*
X117043608Y-145958012D01*
X116969230Y-146097165D01*
X116869136Y-146219130D01*
X116869134Y-146219131D01*
X116869133Y-146219133D01*
X116869129Y-146219136D01*
X116747161Y-146319232D01*
X116608011Y-146393608D01*
X116457024Y-146439410D01*
X116300000Y-146454875D01*
X116142975Y-146439410D01*
X115991988Y-146393608D01*
X115852835Y-146319230D01*
X115730870Y-146219136D01*
X115730869Y-146219134D01*
X115730867Y-146219133D01*
X115680819Y-146158149D01*
X115630768Y-146097161D01*
X115556392Y-145958011D01*
X115510590Y-145807024D01*
X115499000Y-145689345D01*
X115499000Y-145110654D01*
X115510590Y-144992975D01*
X115533491Y-144917483D01*
X115556392Y-144841988D01*
X115630771Y-144702835D01*
X115730868Y-144580867D01*
X115852836Y-144480770D01*
X115991989Y-144406392D01*
X116142976Y-144360590D01*
X116300000Y-144345125D01*
X116457025Y-144360590D01*
X116457025Y-144360590D01*
G37*
G36*
X107137025Y-144360590D02*
X107288012Y-144406392D01*
X107427165Y-144480770D01*
X107549133Y-144580867D01*
X107649230Y-144702835D01*
X107723608Y-144841988D01*
X107769410Y-144992975D01*
X107781000Y-145110654D01*
X107781000Y-145689346D01*
X107769410Y-145807025D01*
X107723608Y-145958012D01*
X107649230Y-146097165D01*
X107549136Y-146219130D01*
X107549134Y-146219131D01*
X107549133Y-146219133D01*
X107549129Y-146219136D01*
X107427161Y-146319232D01*
X107288011Y-146393608D01*
X107137024Y-146439410D01*
X106980000Y-146454875D01*
X106822975Y-146439410D01*
X106671988Y-146393608D01*
X106532835Y-146319230D01*
X106410870Y-146219136D01*
X106410869Y-146219134D01*
X106410867Y-146219133D01*
X106360819Y-146158149D01*
X106310768Y-146097161D01*
X106236392Y-145958011D01*
X106190590Y-145807024D01*
X106179000Y-145689345D01*
X106179000Y-145110654D01*
X106190590Y-144992975D01*
X106213491Y-144917483D01*
X106236392Y-144841988D01*
X106310771Y-144702835D01*
X106410868Y-144580867D01*
X106532836Y-144480770D01*
X106671989Y-144406392D01*
X106822976Y-144360590D01*
X106980000Y-144345125D01*
X107137025Y-144360590D01*
X107137025Y-144360590D01*
G37*
G36*
X49857025Y-144360590D02*
X50008012Y-144406392D01*
X50147165Y-144480770D01*
X50269133Y-144580867D01*
X50369230Y-144702835D01*
X50443608Y-144841988D01*
X50489410Y-144992975D01*
X50501000Y-145110654D01*
X50501000Y-145689346D01*
X50489410Y-145807025D01*
X50443608Y-145958012D01*
X50369230Y-146097165D01*
X50269136Y-146219130D01*
X50269134Y-146219131D01*
X50269133Y-146219133D01*
X50269129Y-146219136D01*
X50147161Y-146319232D01*
X50008011Y-146393608D01*
X49857024Y-146439410D01*
X49700000Y-146454875D01*
X49542975Y-146439410D01*
X49391988Y-146393608D01*
X49252835Y-146319230D01*
X49130870Y-146219136D01*
X49130869Y-146219134D01*
X49130867Y-146219133D01*
X49080819Y-146158149D01*
X49030768Y-146097161D01*
X48956392Y-145958011D01*
X48910590Y-145807024D01*
X48899000Y-145689345D01*
X48899000Y-145110654D01*
X48910590Y-144992975D01*
X48933491Y-144917483D01*
X48956392Y-144841988D01*
X49030771Y-144702835D01*
X49130868Y-144580867D01*
X49252836Y-144480770D01*
X49391989Y-144406392D01*
X49542976Y-144360590D01*
X49700000Y-144345125D01*
X49857025Y-144360590D01*
X49857025Y-144360590D01*
G37*
G36*
X64177025Y-144360590D02*
X64328012Y-144406392D01*
X64467165Y-144480770D01*
X64589133Y-144580867D01*
X64689230Y-144702835D01*
X64763608Y-144841988D01*
X64809410Y-144992975D01*
X64821000Y-145110654D01*
X64821000Y-145689346D01*
X64809410Y-145807025D01*
X64763608Y-145958012D01*
X64689230Y-146097165D01*
X64589136Y-146219130D01*
X64589134Y-146219131D01*
X64589133Y-146219133D01*
X64589129Y-146219136D01*
X64467161Y-146319232D01*
X64328011Y-146393608D01*
X64177024Y-146439410D01*
X64020000Y-146454875D01*
X63862975Y-146439410D01*
X63711988Y-146393608D01*
X63572835Y-146319230D01*
X63450870Y-146219136D01*
X63450869Y-146219134D01*
X63450867Y-146219133D01*
X63400819Y-146158149D01*
X63350768Y-146097161D01*
X63276392Y-145958011D01*
X63230590Y-145807024D01*
X63219000Y-145689345D01*
X63219000Y-145110654D01*
X63230590Y-144992975D01*
X63253491Y-144917483D01*
X63276392Y-144841988D01*
X63350771Y-144702835D01*
X63450868Y-144580867D01*
X63572836Y-144480770D01*
X63711989Y-144406392D01*
X63862976Y-144360590D01*
X64020000Y-144345125D01*
X64177025Y-144360590D01*
X64177025Y-144360590D01*
G37*
G36*
X128706565Y-142089389D02*
X128897834Y-142168615D01*
X129069976Y-142283637D01*
X129216363Y-142430024D01*
X129331385Y-142602166D01*
X129410611Y-142793435D01*
X129451000Y-142996484D01*
X129451000Y-143203516D01*
X129410611Y-143406565D01*
X129331385Y-143597834D01*
X129216363Y-143769976D01*
X129069976Y-143916363D01*
X128897834Y-144031385D01*
X128706565Y-144110611D01*
X128503516Y-144151000D01*
X128296484Y-144151000D01*
X128093435Y-144110611D01*
X127902166Y-144031385D01*
X127730024Y-143916363D01*
X127583637Y-143769976D01*
X127468615Y-143597834D01*
X127389389Y-143406565D01*
X127349000Y-143203516D01*
X127349000Y-142996484D01*
X127389389Y-142793435D01*
X127468615Y-142602166D01*
X127583637Y-142430024D01*
X127730024Y-142283637D01*
X127902166Y-142168615D01*
X128093435Y-142089389D01*
X128296484Y-142049000D01*
X128503516Y-142049000D01*
X128706565Y-142089389D01*
X128706565Y-142089389D01*
G37*
G36*
X133206565Y-142089389D02*
X133397834Y-142168615D01*
X133569976Y-142283637D01*
X133716363Y-142430024D01*
X133831385Y-142602166D01*
X133910611Y-142793435D01*
X133951000Y-142996484D01*
X133951000Y-143203516D01*
X133910611Y-143406565D01*
X133831385Y-143597834D01*
X133716363Y-143769976D01*
X133569976Y-143916363D01*
X133397834Y-144031385D01*
X133206565Y-144110611D01*
X133003516Y-144151000D01*
X132796484Y-144151000D01*
X132593435Y-144110611D01*
X132402166Y-144031385D01*
X132230024Y-143916363D01*
X132083637Y-143769976D01*
X131968615Y-143597834D01*
X131889389Y-143406565D01*
X131849000Y-143203516D01*
X131849000Y-142996484D01*
X131889389Y-142793435D01*
X131968615Y-142602166D01*
X132083637Y-142430024D01*
X132230024Y-142283637D01*
X132402166Y-142168615D01*
X132593435Y-142089389D01*
X132796484Y-142049000D01*
X133003516Y-142049000D01*
X133206565Y-142089389D01*
X133206565Y-142089389D01*
G37*
G36*
X46851000Y-138251000D02*
X44949000Y-138251000D01*
X44949000Y-136349000D01*
X46851000Y-136349000D01*
X46851000Y-138251000D01*
X46851000Y-138251000D01*
G37*
G36*
X105997396Y-136385546D02*
X106170466Y-136457234D01*
X106326230Y-136561312D01*
X106458688Y-136693770D01*
X106562766Y-136849534D01*
X106634454Y-137022604D01*
X106671000Y-137206333D01*
X106671000Y-137393667D01*
X106634454Y-137577396D01*
X106562766Y-137750466D01*
X106458688Y-137906230D01*
X106326230Y-138038688D01*
X106170466Y-138142766D01*
X105997396Y-138214454D01*
X105813667Y-138251000D01*
X105626333Y-138251000D01*
X105442604Y-138214454D01*
X105269534Y-138142766D01*
X105113770Y-138038688D01*
X104981312Y-137906230D01*
X104877234Y-137750466D01*
X104805546Y-137577396D01*
X104769000Y-137393667D01*
X104769000Y-137206333D01*
X104805546Y-137022604D01*
X104877234Y-136849534D01*
X104981312Y-136693770D01*
X105113770Y-136561312D01*
X105269534Y-136457234D01*
X105442604Y-136385546D01*
X105626333Y-136349000D01*
X105813667Y-136349000D01*
X105997396Y-136385546D01*
X105997396Y-136385546D01*
G37*
G36*
X89851000Y-138251000D02*
X87949000Y-138251000D01*
X87949000Y-136349000D01*
X89851000Y-136349000D01*
X89851000Y-138251000D01*
X89851000Y-138251000D01*
G37*
G36*
X104131000Y-138251000D02*
X102229000Y-138251000D01*
X102229000Y-136349000D01*
X104131000Y-136349000D01*
X104131000Y-138251000D01*
X104131000Y-138251000D01*
G37*
G36*
X77357396Y-136385546D02*
X77530466Y-136457234D01*
X77686230Y-136561312D01*
X77818688Y-136693770D01*
X77922766Y-136849534D01*
X77994454Y-137022604D01*
X78031000Y-137206333D01*
X78031000Y-137393667D01*
X77994454Y-137577396D01*
X77922766Y-137750466D01*
X77818688Y-137906230D01*
X77686230Y-138038688D01*
X77530466Y-138142766D01*
X77357396Y-138214454D01*
X77173667Y-138251000D01*
X76986333Y-138251000D01*
X76802604Y-138214454D01*
X76629534Y-138142766D01*
X76473770Y-138038688D01*
X76341312Y-137906230D01*
X76237234Y-137750466D01*
X76165546Y-137577396D01*
X76129000Y-137393667D01*
X76129000Y-137206333D01*
X76165546Y-137022604D01*
X76237234Y-136849534D01*
X76341312Y-136693770D01*
X76473770Y-136561312D01*
X76629534Y-136457234D01*
X76802604Y-136385546D01*
X76986333Y-136349000D01*
X77173667Y-136349000D01*
X77357396Y-136385546D01*
X77357396Y-136385546D01*
G37*
G36*
X75491000Y-138251000D02*
X73589000Y-138251000D01*
X73589000Y-136349000D01*
X75491000Y-136349000D01*
X75491000Y-138251000D01*
X75491000Y-138251000D01*
G37*
G36*
X118451000Y-138251000D02*
X116549000Y-138251000D01*
X116549000Y-136349000D01*
X118451000Y-136349000D01*
X118451000Y-138251000D01*
X118451000Y-138251000D01*
G37*
G36*
X91717396Y-136385546D02*
X91890466Y-136457234D01*
X92046230Y-136561312D01*
X92178688Y-136693770D01*
X92282766Y-136849534D01*
X92354454Y-137022604D01*
X92391000Y-137206333D01*
X92391000Y-137393667D01*
X92354454Y-137577396D01*
X92282766Y-137750466D01*
X92178688Y-137906230D01*
X92046230Y-138038688D01*
X91890466Y-138142766D01*
X91717396Y-138214454D01*
X91533667Y-138251000D01*
X91346333Y-138251000D01*
X91162604Y-138214454D01*
X90989534Y-138142766D01*
X90833770Y-138038688D01*
X90701312Y-137906230D01*
X90597234Y-137750466D01*
X90525546Y-137577396D01*
X90489000Y-137393667D01*
X90489000Y-137206333D01*
X90525546Y-137022604D01*
X90597234Y-136849534D01*
X90701312Y-136693770D01*
X90833770Y-136561312D01*
X90989534Y-136457234D01*
X91162604Y-136385546D01*
X91346333Y-136349000D01*
X91533667Y-136349000D01*
X91717396Y-136385546D01*
X91717396Y-136385546D01*
G37*
G36*
X48717396Y-136385546D02*
X48890466Y-136457234D01*
X49046230Y-136561312D01*
X49178688Y-136693770D01*
X49282766Y-136849534D01*
X49354454Y-137022604D01*
X49391000Y-137206333D01*
X49391000Y-137393667D01*
X49354454Y-137577396D01*
X49282766Y-137750466D01*
X49178688Y-137906230D01*
X49046230Y-138038688D01*
X48890466Y-138142766D01*
X48717396Y-138214454D01*
X48533667Y-138251000D01*
X48346333Y-138251000D01*
X48162604Y-138214454D01*
X47989534Y-138142766D01*
X47833770Y-138038688D01*
X47701312Y-137906230D01*
X47597234Y-137750466D01*
X47525546Y-137577396D01*
X47489000Y-137393667D01*
X47489000Y-137206333D01*
X47525546Y-137022604D01*
X47597234Y-136849534D01*
X47701312Y-136693770D01*
X47833770Y-136561312D01*
X47989534Y-136457234D01*
X48162604Y-136385546D01*
X48346333Y-136349000D01*
X48533667Y-136349000D01*
X48717396Y-136385546D01*
X48717396Y-136385546D01*
G37*
G36*
X61171000Y-138251000D02*
X59269000Y-138251000D01*
X59269000Y-136349000D01*
X61171000Y-136349000D01*
X61171000Y-138251000D01*
X61171000Y-138251000D01*
G37*
G36*
X63037396Y-136385546D02*
X63210466Y-136457234D01*
X63366230Y-136561312D01*
X63498688Y-136693770D01*
X63602766Y-136849534D01*
X63674454Y-137022604D01*
X63711000Y-137206333D01*
X63711000Y-137393667D01*
X63674454Y-137577396D01*
X63602766Y-137750466D01*
X63498688Y-137906230D01*
X63366230Y-138038688D01*
X63210466Y-138142766D01*
X63037396Y-138214454D01*
X62853667Y-138251000D01*
X62666333Y-138251000D01*
X62482604Y-138214454D01*
X62309534Y-138142766D01*
X62153770Y-138038688D01*
X62021312Y-137906230D01*
X61917234Y-137750466D01*
X61845546Y-137577396D01*
X61809000Y-137393667D01*
X61809000Y-137206333D01*
X61845546Y-137022604D01*
X61917234Y-136849534D01*
X62021312Y-136693770D01*
X62153770Y-136561312D01*
X62309534Y-136457234D01*
X62482604Y-136385546D01*
X62666333Y-136349000D01*
X62853667Y-136349000D01*
X63037396Y-136385546D01*
X63037396Y-136385546D01*
G37*
G36*
X120317396Y-136385546D02*
X120490466Y-136457234D01*
X120646230Y-136561312D01*
X120778688Y-136693770D01*
X120882766Y-136849534D01*
X120954454Y-137022604D01*
X120991000Y-137206333D01*
X120991000Y-137393667D01*
X120954454Y-137577396D01*
X120882766Y-137750466D01*
X120778688Y-137906230D01*
X120646230Y-138038688D01*
X120490466Y-138142766D01*
X120317396Y-138214454D01*
X120133667Y-138251000D01*
X119946333Y-138251000D01*
X119762604Y-138214454D01*
X119589534Y-138142766D01*
X119433770Y-138038688D01*
X119301312Y-137906230D01*
X119197234Y-137750466D01*
X119125546Y-137577396D01*
X119089000Y-137393667D01*
X119089000Y-137206333D01*
X119125546Y-137022604D01*
X119197234Y-136849534D01*
X119301312Y-136693770D01*
X119433770Y-136561312D01*
X119589534Y-136457234D01*
X119762604Y-136385546D01*
X119946333Y-136349000D01*
X120133667Y-136349000D01*
X120317396Y-136385546D01*
X120317396Y-136385546D01*
G37*
G36*
X133206565Y-135589389D02*
X133397834Y-135668615D01*
X133569976Y-135783637D01*
X133716363Y-135930024D01*
X133831385Y-136102166D01*
X133910611Y-136293435D01*
X133951000Y-136496484D01*
X133951000Y-136703516D01*
X133910611Y-136906565D01*
X133831385Y-137097834D01*
X133716363Y-137269976D01*
X133569976Y-137416363D01*
X133397834Y-137531385D01*
X133206565Y-137610611D01*
X133003516Y-137651000D01*
X132796484Y-137651000D01*
X132593435Y-137610611D01*
X132402166Y-137531385D01*
X132230024Y-137416363D01*
X132083637Y-137269976D01*
X131968615Y-137097834D01*
X131889389Y-136906565D01*
X131849000Y-136703516D01*
X131849000Y-136496484D01*
X131889389Y-136293435D01*
X131968615Y-136102166D01*
X132083637Y-135930024D01*
X132230024Y-135783637D01*
X132402166Y-135668615D01*
X132593435Y-135589389D01*
X132796484Y-135549000D01*
X133003516Y-135549000D01*
X133206565Y-135589389D01*
X133206565Y-135589389D01*
G37*
G36*
X128706565Y-135589389D02*
X128897834Y-135668615D01*
X129069976Y-135783637D01*
X129216363Y-135930024D01*
X129331385Y-136102166D01*
X129410611Y-136293435D01*
X129451000Y-136496484D01*
X129451000Y-136703516D01*
X129410611Y-136906565D01*
X129331385Y-137097834D01*
X129216363Y-137269976D01*
X129069976Y-137416363D01*
X128897834Y-137531385D01*
X128706565Y-137610611D01*
X128503516Y-137651000D01*
X128296484Y-137651000D01*
X128093435Y-137610611D01*
X127902166Y-137531385D01*
X127730024Y-137416363D01*
X127583637Y-137269976D01*
X127468615Y-137097834D01*
X127389389Y-136906565D01*
X127349000Y-136703516D01*
X127349000Y-136496484D01*
X127389389Y-136293435D01*
X127468615Y-136102166D01*
X127583637Y-135930024D01*
X127730024Y-135783637D01*
X127902166Y-135668615D01*
X128093435Y-135589389D01*
X128296484Y-135549000D01*
X128503516Y-135549000D01*
X128706565Y-135589389D01*
X128706565Y-135589389D01*
G37*
G36*
X98818664Y-130499879D02*
X98818666Y-130499880D01*
X98818667Y-130499880D01*
X98937253Y-130549000D01*
X99009844Y-130579068D01*
X99181901Y-130694033D01*
X99328217Y-130840349D01*
X99328219Y-130840352D01*
X99443182Y-131012406D01*
X99478181Y-131096900D01*
X99522371Y-131203586D01*
X99562740Y-131406534D01*
X99562740Y-131613466D01*
X99522371Y-131816414D01*
X99443182Y-132007594D01*
X99328217Y-132179651D01*
X99181901Y-132325967D01*
X99181898Y-132325969D01*
X99009844Y-132440932D01*
X98818667Y-132520120D01*
X98818666Y-132520120D01*
X98818664Y-132520121D01*
X98615716Y-132560490D01*
X98408784Y-132560490D01*
X98205836Y-132520121D01*
X98205834Y-132520120D01*
X98205833Y-132520120D01*
X98014656Y-132440932D01*
X97842602Y-132325969D01*
X97842599Y-132325967D01*
X97696283Y-132179651D01*
X97581318Y-132007594D01*
X97502129Y-131816414D01*
X97461760Y-131613466D01*
X97461760Y-131406534D01*
X97502129Y-131203586D01*
X97546320Y-131096900D01*
X97581318Y-131012406D01*
X97696281Y-130840352D01*
X97696283Y-130840349D01*
X97842599Y-130694033D01*
X98014656Y-130579068D01*
X98087247Y-130549000D01*
X98205833Y-130499880D01*
X98205834Y-130499880D01*
X98205836Y-130499879D01*
X98408784Y-130459510D01*
X98615716Y-130459510D01*
X98818664Y-130499879D01*
X98818664Y-130499879D01*
G37*
G36*
X132443978Y-130755456D02*
X132598850Y-130819606D01*
X132738231Y-130912738D01*
X132856765Y-131031272D01*
X132949897Y-131170653D01*
X133014047Y-131325525D01*
X133046750Y-131489937D01*
X133046750Y-131657569D01*
X133014047Y-131821981D01*
X132949897Y-131976853D01*
X132856765Y-132116234D01*
X132738231Y-132234768D01*
X132598850Y-132327900D01*
X132443978Y-132392050D01*
X132279566Y-132424753D01*
X132111934Y-132424753D01*
X131947522Y-132392050D01*
X131792650Y-132327900D01*
X131653269Y-132234768D01*
X131534735Y-132116234D01*
X131441603Y-131976853D01*
X131377453Y-131821981D01*
X131344750Y-131657569D01*
X131344750Y-131489937D01*
X131377453Y-131325525D01*
X131441603Y-131170653D01*
X131534735Y-131031272D01*
X131653269Y-130912738D01*
X131792650Y-130819606D01*
X131947522Y-130755456D01*
X132111934Y-130722753D01*
X132279566Y-130722753D01*
X132443978Y-130755456D01*
X132443978Y-130755456D01*
G37*
G36*
X128049728Y-130755456D02*
X128204600Y-130819606D01*
X128343981Y-130912738D01*
X128462515Y-131031272D01*
X128555647Y-131170653D01*
X128619797Y-131325525D01*
X128652500Y-131489937D01*
X128652500Y-131657569D01*
X128619797Y-131821981D01*
X128555647Y-131976853D01*
X128462515Y-132116234D01*
X128343981Y-132234768D01*
X128204600Y-132327900D01*
X128049728Y-132392050D01*
X127885316Y-132424753D01*
X127717684Y-132424753D01*
X127553272Y-132392050D01*
X127398400Y-132327900D01*
X127259019Y-132234768D01*
X127140485Y-132116234D01*
X127047353Y-131976853D01*
X126983203Y-131821981D01*
X126950500Y-131657569D01*
X126950500Y-131489937D01*
X126983203Y-131325525D01*
X127047353Y-131170653D01*
X127140485Y-131031272D01*
X127259019Y-130912738D01*
X127398400Y-130819606D01*
X127553272Y-130755456D01*
X127717684Y-130722753D01*
X127885316Y-130722753D01*
X128049728Y-130755456D01*
X128049728Y-130755456D01*
G37*
G36*
X123655478Y-130755456D02*
X123810350Y-130819606D01*
X123949731Y-130912738D01*
X124068265Y-131031272D01*
X124161397Y-131170653D01*
X124225547Y-131325525D01*
X124258250Y-131489937D01*
X124258250Y-131657569D01*
X124225547Y-131821981D01*
X124161397Y-131976853D01*
X124068265Y-132116234D01*
X123949731Y-132234768D01*
X123810350Y-132327900D01*
X123655478Y-132392050D01*
X123491066Y-132424753D01*
X123323434Y-132424753D01*
X123159022Y-132392050D01*
X123004150Y-132327900D01*
X122864769Y-132234768D01*
X122746235Y-132116234D01*
X122653103Y-131976853D01*
X122588953Y-131821981D01*
X122556250Y-131657569D01*
X122556250Y-131489937D01*
X122588953Y-131325525D01*
X122653103Y-131170653D01*
X122746235Y-131031272D01*
X122864769Y-130912738D01*
X123004150Y-130819606D01*
X123159022Y-130755456D01*
X123323434Y-130722753D01*
X123491066Y-130722753D01*
X123655478Y-130755456D01*
X123655478Y-130755456D01*
G37*
G36*
X116589821Y-130681313D02*
X116589824Y-130681314D01*
X116589825Y-130681314D01*
X116750239Y-130729975D01*
X116750241Y-130729976D01*
X116750244Y-130729977D01*
X116898078Y-130808995D01*
X117027659Y-130915341D01*
X117134005Y-131044922D01*
X117213023Y-131192756D01*
X117213024Y-131192759D01*
X117213025Y-131192761D01*
X117250465Y-131316184D01*
X117261687Y-131353179D01*
X117278117Y-131520000D01*
X117261687Y-131686821D01*
X117261686Y-131686824D01*
X117261686Y-131686825D01*
X117220687Y-131821981D01*
X117213023Y-131847244D01*
X117134005Y-131995078D01*
X117027659Y-132124659D01*
X116898078Y-132231005D01*
X116750244Y-132310023D01*
X116750241Y-132310024D01*
X116750239Y-132310025D01*
X116589825Y-132358686D01*
X116589824Y-132358686D01*
X116589821Y-132358687D01*
X116464804Y-132371000D01*
X116381196Y-132371000D01*
X116256179Y-132358687D01*
X116256176Y-132358686D01*
X116256175Y-132358686D01*
X116095761Y-132310025D01*
X116095759Y-132310024D01*
X116095756Y-132310023D01*
X115947922Y-132231005D01*
X115818341Y-132124659D01*
X115711995Y-131995078D01*
X115632977Y-131847244D01*
X115625314Y-131821981D01*
X115584314Y-131686825D01*
X115584314Y-131686824D01*
X115584313Y-131686821D01*
X115567883Y-131520000D01*
X115584313Y-131353179D01*
X115595535Y-131316184D01*
X115632975Y-131192761D01*
X115632976Y-131192759D01*
X115632977Y-131192756D01*
X115711995Y-131044922D01*
X115818341Y-130915341D01*
X115947922Y-130808995D01*
X116095756Y-130729977D01*
X116095759Y-130729976D01*
X116095761Y-130729975D01*
X116256175Y-130681314D01*
X116256176Y-130681314D01*
X116256179Y-130681313D01*
X116381196Y-130669000D01*
X116464804Y-130669000D01*
X116589821Y-130681313D01*
X116589821Y-130681313D01*
G37*
G36*
X119129821Y-130681313D02*
X119129824Y-130681314D01*
X119129825Y-130681314D01*
X119290239Y-130729975D01*
X119290241Y-130729976D01*
X119290244Y-130729977D01*
X119438078Y-130808995D01*
X119567659Y-130915341D01*
X119674005Y-131044922D01*
X119753023Y-131192756D01*
X119753024Y-131192759D01*
X119753025Y-131192761D01*
X119790465Y-131316184D01*
X119801687Y-131353179D01*
X119818117Y-131520000D01*
X119801687Y-131686821D01*
X119801686Y-131686824D01*
X119801686Y-131686825D01*
X119760687Y-131821981D01*
X119753023Y-131847244D01*
X119674005Y-131995078D01*
X119567659Y-132124659D01*
X119438078Y-132231005D01*
X119290244Y-132310023D01*
X119290241Y-132310024D01*
X119290239Y-132310025D01*
X119129825Y-132358686D01*
X119129824Y-132358686D01*
X119129821Y-132358687D01*
X119004804Y-132371000D01*
X118921196Y-132371000D01*
X118796179Y-132358687D01*
X118796176Y-132358686D01*
X118796175Y-132358686D01*
X118635761Y-132310025D01*
X118635759Y-132310024D01*
X118635756Y-132310023D01*
X118487922Y-132231005D01*
X118358341Y-132124659D01*
X118251995Y-131995078D01*
X118172977Y-131847244D01*
X118165314Y-131821981D01*
X118124314Y-131686825D01*
X118124314Y-131686824D01*
X118124313Y-131686821D01*
X118107883Y-131520000D01*
X118124313Y-131353179D01*
X118135535Y-131316184D01*
X118172975Y-131192761D01*
X118172976Y-131192759D01*
X118172977Y-131192756D01*
X118251995Y-131044922D01*
X118358341Y-130915341D01*
X118487922Y-130808995D01*
X118635756Y-130729977D01*
X118635759Y-130729976D01*
X118635761Y-130729975D01*
X118796175Y-130681314D01*
X118796176Y-130681314D01*
X118796179Y-130681313D01*
X118921196Y-130669000D01*
X119004804Y-130669000D01*
X119129821Y-130681313D01*
X119129821Y-130681313D01*
G37*
G36*
X111509821Y-130681313D02*
X111509824Y-130681314D01*
X111509825Y-130681314D01*
X111670239Y-130729975D01*
X111670241Y-130729976D01*
X111670244Y-130729977D01*
X111818078Y-130808995D01*
X111947659Y-130915341D01*
X112054005Y-131044922D01*
X112133023Y-131192756D01*
X112133024Y-131192759D01*
X112133025Y-131192761D01*
X112170465Y-131316184D01*
X112181687Y-131353179D01*
X112198117Y-131520000D01*
X112181687Y-131686821D01*
X112181686Y-131686824D01*
X112181686Y-131686825D01*
X112140687Y-131821981D01*
X112133023Y-131847244D01*
X112054005Y-131995078D01*
X111947659Y-132124659D01*
X111818078Y-132231005D01*
X111670244Y-132310023D01*
X111670241Y-132310024D01*
X111670239Y-132310025D01*
X111509825Y-132358686D01*
X111509824Y-132358686D01*
X111509821Y-132358687D01*
X111384804Y-132371000D01*
X111301196Y-132371000D01*
X111176179Y-132358687D01*
X111176176Y-132358686D01*
X111176175Y-132358686D01*
X111015761Y-132310025D01*
X111015759Y-132310024D01*
X111015756Y-132310023D01*
X110867922Y-132231005D01*
X110738341Y-132124659D01*
X110631995Y-131995078D01*
X110552977Y-131847244D01*
X110545314Y-131821981D01*
X110504314Y-131686825D01*
X110504314Y-131686824D01*
X110504313Y-131686821D01*
X110487883Y-131520000D01*
X110504313Y-131353179D01*
X110515535Y-131316184D01*
X110552975Y-131192761D01*
X110552976Y-131192759D01*
X110552977Y-131192756D01*
X110631995Y-131044922D01*
X110738341Y-130915341D01*
X110867922Y-130808995D01*
X111015756Y-130729977D01*
X111015759Y-130729976D01*
X111015761Y-130729975D01*
X111176175Y-130681314D01*
X111176176Y-130681314D01*
X111176179Y-130681313D01*
X111301196Y-130669000D01*
X111384804Y-130669000D01*
X111509821Y-130681313D01*
X111509821Y-130681313D01*
G37*
G36*
X114049821Y-130681313D02*
X114049824Y-130681314D01*
X114049825Y-130681314D01*
X114210239Y-130729975D01*
X114210241Y-130729976D01*
X114210244Y-130729977D01*
X114358078Y-130808995D01*
X114487659Y-130915341D01*
X114594005Y-131044922D01*
X114673023Y-131192756D01*
X114673024Y-131192759D01*
X114673025Y-131192761D01*
X114710465Y-131316184D01*
X114721687Y-131353179D01*
X114738117Y-131520000D01*
X114721687Y-131686821D01*
X114721686Y-131686824D01*
X114721686Y-131686825D01*
X114680687Y-131821981D01*
X114673023Y-131847244D01*
X114594005Y-131995078D01*
X114487659Y-132124659D01*
X114358078Y-132231005D01*
X114210244Y-132310023D01*
X114210241Y-132310024D01*
X114210239Y-132310025D01*
X114049825Y-132358686D01*
X114049824Y-132358686D01*
X114049821Y-132358687D01*
X113924804Y-132371000D01*
X113841196Y-132371000D01*
X113716179Y-132358687D01*
X113716176Y-132358686D01*
X113716175Y-132358686D01*
X113555761Y-132310025D01*
X113555759Y-132310024D01*
X113555756Y-132310023D01*
X113407922Y-132231005D01*
X113278341Y-132124659D01*
X113171995Y-131995078D01*
X113092977Y-131847244D01*
X113085314Y-131821981D01*
X113044314Y-131686825D01*
X113044314Y-131686824D01*
X113044313Y-131686821D01*
X113027883Y-131520000D01*
X113044313Y-131353179D01*
X113055535Y-131316184D01*
X113092975Y-131192761D01*
X113092976Y-131192759D01*
X113092977Y-131192756D01*
X113171995Y-131044922D01*
X113278341Y-130915341D01*
X113407922Y-130808995D01*
X113555756Y-130729977D01*
X113555759Y-130729976D01*
X113555761Y-130729975D01*
X113716175Y-130681314D01*
X113716176Y-130681314D01*
X113716179Y-130681313D01*
X113841196Y-130669000D01*
X113924804Y-130669000D01*
X114049821Y-130681313D01*
X114049821Y-130681313D01*
G37*
G36*
X102772728Y-130681703D02*
X102927600Y-130745853D01*
X103066981Y-130838985D01*
X103185515Y-130957519D01*
X103278647Y-131096900D01*
X103342797Y-131251772D01*
X103375500Y-131416184D01*
X103375500Y-131583816D01*
X103342797Y-131748228D01*
X103278647Y-131903100D01*
X103185515Y-132042481D01*
X103066981Y-132161015D01*
X102927600Y-132254147D01*
X102772728Y-132318297D01*
X102608316Y-132351000D01*
X102440684Y-132351000D01*
X102276272Y-132318297D01*
X102121400Y-132254147D01*
X101982019Y-132161015D01*
X101863485Y-132042481D01*
X101770353Y-131903100D01*
X101706203Y-131748228D01*
X101673500Y-131583816D01*
X101673500Y-131416184D01*
X101706203Y-131251772D01*
X101770353Y-131096900D01*
X101863485Y-130957519D01*
X101982019Y-130838985D01*
X102121400Y-130745853D01*
X102276272Y-130681703D01*
X102440684Y-130649000D01*
X102608316Y-130649000D01*
X102772728Y-130681703D01*
X102772728Y-130681703D01*
G37*
G36*
X107166978Y-130581703D02*
X107321850Y-130645853D01*
X107461231Y-130738985D01*
X107579765Y-130857519D01*
X107672897Y-130996900D01*
X107737047Y-131151772D01*
X107769750Y-131316184D01*
X107769750Y-131483816D01*
X107737047Y-131648228D01*
X107672897Y-131803100D01*
X107579765Y-131942481D01*
X107461231Y-132061015D01*
X107321850Y-132154147D01*
X107166978Y-132218297D01*
X107002566Y-132251000D01*
X106834934Y-132251000D01*
X106670522Y-132218297D01*
X106515650Y-132154147D01*
X106376269Y-132061015D01*
X106257735Y-131942481D01*
X106164603Y-131803100D01*
X106100453Y-131648228D01*
X106067750Y-131483816D01*
X106067750Y-131316184D01*
X106100453Y-131151772D01*
X106164603Y-130996900D01*
X106257735Y-130857519D01*
X106376269Y-130738985D01*
X106515650Y-130645853D01*
X106670522Y-130581703D01*
X106834934Y-130549000D01*
X107002566Y-130549000D01*
X107166978Y-130581703D01*
X107166978Y-130581703D01*
G37*
G36*
X94666821Y-130481313D02*
X94666824Y-130481314D01*
X94666825Y-130481314D01*
X94827239Y-130529975D01*
X94827241Y-130529976D01*
X94827244Y-130529977D01*
X94975078Y-130608995D01*
X95104659Y-130715341D01*
X95211005Y-130844922D01*
X95290023Y-130992756D01*
X95290024Y-130992759D01*
X95290025Y-130992761D01*
X95321615Y-131096900D01*
X95338687Y-131153179D01*
X95355117Y-131320000D01*
X95338687Y-131486821D01*
X95338686Y-131486824D01*
X95338686Y-131486825D01*
X95300270Y-131613466D01*
X95290023Y-131647244D01*
X95211005Y-131795078D01*
X95104659Y-131924659D01*
X94975078Y-132031005D01*
X94827244Y-132110023D01*
X94827241Y-132110024D01*
X94827239Y-132110025D01*
X94666825Y-132158686D01*
X94666824Y-132158686D01*
X94666821Y-132158687D01*
X94541804Y-132171000D01*
X94458196Y-132171000D01*
X94333179Y-132158687D01*
X94333176Y-132158686D01*
X94333175Y-132158686D01*
X94172761Y-132110025D01*
X94172759Y-132110024D01*
X94172756Y-132110023D01*
X94024922Y-132031005D01*
X93895341Y-131924659D01*
X93788995Y-131795078D01*
X93709977Y-131647244D01*
X93699731Y-131613466D01*
X93661314Y-131486825D01*
X93661314Y-131486824D01*
X93661313Y-131486821D01*
X93644883Y-131320000D01*
X93661313Y-131153179D01*
X93678385Y-131096900D01*
X93709975Y-130992761D01*
X93709976Y-130992759D01*
X93709977Y-130992756D01*
X93788995Y-130844922D01*
X93895341Y-130715341D01*
X94024922Y-130608995D01*
X94172756Y-130529977D01*
X94172759Y-130529976D01*
X94172761Y-130529975D01*
X94333175Y-130481314D01*
X94333176Y-130481314D01*
X94333179Y-130481313D01*
X94458196Y-130469000D01*
X94541804Y-130469000D01*
X94666821Y-130481313D01*
X94666821Y-130481313D01*
G37*
G36*
X65746821Y-128461313D02*
X65746824Y-128461314D01*
X65746825Y-128461314D01*
X65907239Y-128509975D01*
X65907241Y-128509976D01*
X65907244Y-128509977D01*
X66055078Y-128588995D01*
X66184659Y-128695341D01*
X66291005Y-128824922D01*
X66370023Y-128972756D01*
X66370024Y-128972759D01*
X66370025Y-128972761D01*
X66418686Y-129133175D01*
X66418687Y-129133179D01*
X66435117Y-129300000D01*
X66418687Y-129466821D01*
X66418686Y-129466824D01*
X66418686Y-129466825D01*
X66393993Y-129548228D01*
X66370023Y-129627244D01*
X66291005Y-129775078D01*
X66184659Y-129904659D01*
X66055078Y-130011005D01*
X65907244Y-130090023D01*
X65907241Y-130090024D01*
X65907239Y-130090025D01*
X65746825Y-130138686D01*
X65746824Y-130138686D01*
X65746821Y-130138687D01*
X65621804Y-130151000D01*
X65538196Y-130151000D01*
X65413179Y-130138687D01*
X65413176Y-130138686D01*
X65413175Y-130138686D01*
X65252761Y-130090025D01*
X65252759Y-130090024D01*
X65252756Y-130090023D01*
X65104922Y-130011005D01*
X64975341Y-129904659D01*
X64868995Y-129775078D01*
X64789977Y-129627244D01*
X64766008Y-129548228D01*
X64741314Y-129466825D01*
X64741314Y-129466824D01*
X64741313Y-129466821D01*
X64724883Y-129300000D01*
X64741313Y-129133179D01*
X64741314Y-129133175D01*
X64789975Y-128972761D01*
X64789976Y-128972759D01*
X64789977Y-128972756D01*
X64868995Y-128824922D01*
X64975341Y-128695341D01*
X65104922Y-128588995D01*
X65252756Y-128509977D01*
X65252759Y-128509976D01*
X65252761Y-128509975D01*
X65413175Y-128461314D01*
X65413176Y-128461314D01*
X65413179Y-128461313D01*
X65538196Y-128449000D01*
X65621804Y-128449000D01*
X65746821Y-128461313D01*
X65746821Y-128461313D01*
G37*
G36*
X89148228Y-128481703D02*
X89303100Y-128545853D01*
X89442481Y-128638985D01*
X89561015Y-128757519D01*
X89654147Y-128896900D01*
X89718297Y-129051772D01*
X89751000Y-129216184D01*
X89751000Y-129383816D01*
X89718297Y-129548228D01*
X89654147Y-129703100D01*
X89561015Y-129842481D01*
X89442481Y-129961015D01*
X89303100Y-130054147D01*
X89148228Y-130118297D01*
X88983816Y-130151000D01*
X88816184Y-130151000D01*
X88651772Y-130118297D01*
X88496900Y-130054147D01*
X88357519Y-129961015D01*
X88238985Y-129842481D01*
X88145853Y-129703100D01*
X88081703Y-129548228D01*
X88049000Y-129383816D01*
X88049000Y-129216184D01*
X88081703Y-129051772D01*
X88145853Y-128896900D01*
X88238985Y-128757519D01*
X88357519Y-128638985D01*
X88496900Y-128545853D01*
X88651772Y-128481703D01*
X88816184Y-128449000D01*
X88983816Y-128449000D01*
X89148228Y-128481703D01*
X89148228Y-128481703D01*
G37*
G36*
X81446821Y-128461313D02*
X81446824Y-128461314D01*
X81446825Y-128461314D01*
X81607239Y-128509975D01*
X81607241Y-128509976D01*
X81607244Y-128509977D01*
X81755078Y-128588995D01*
X81884659Y-128695341D01*
X81991005Y-128824922D01*
X82070023Y-128972756D01*
X82070024Y-128972759D01*
X82070025Y-128972761D01*
X82118686Y-129133175D01*
X82118687Y-129133179D01*
X82135117Y-129300000D01*
X82118687Y-129466821D01*
X82118686Y-129466824D01*
X82118686Y-129466825D01*
X82093993Y-129548228D01*
X82070023Y-129627244D01*
X81991005Y-129775078D01*
X81884659Y-129904659D01*
X81755078Y-130011005D01*
X81607244Y-130090023D01*
X81607241Y-130090024D01*
X81607239Y-130090025D01*
X81446825Y-130138686D01*
X81446824Y-130138686D01*
X81446821Y-130138687D01*
X81321804Y-130151000D01*
X81238196Y-130151000D01*
X81113179Y-130138687D01*
X81113176Y-130138686D01*
X81113175Y-130138686D01*
X80952761Y-130090025D01*
X80952759Y-130090024D01*
X80952756Y-130090023D01*
X80804922Y-130011005D01*
X80675341Y-129904659D01*
X80568995Y-129775078D01*
X80489977Y-129627244D01*
X80466008Y-129548228D01*
X80441314Y-129466825D01*
X80441314Y-129466824D01*
X80441313Y-129466821D01*
X80424883Y-129300000D01*
X80441313Y-129133179D01*
X80441314Y-129133175D01*
X80489975Y-128972761D01*
X80489976Y-128972759D01*
X80489977Y-128972756D01*
X80568995Y-128824922D01*
X80675341Y-128695341D01*
X80804922Y-128588995D01*
X80952756Y-128509977D01*
X80952759Y-128509976D01*
X80952761Y-128509975D01*
X81113175Y-128461314D01*
X81113176Y-128461314D01*
X81113179Y-128461313D01*
X81238196Y-128449000D01*
X81321804Y-128449000D01*
X81446821Y-128461313D01*
X81446821Y-128461313D01*
G37*
G36*
X73448228Y-128481703D02*
X73603100Y-128545853D01*
X73742481Y-128638985D01*
X73861015Y-128757519D01*
X73954147Y-128896900D01*
X74018297Y-129051772D01*
X74051000Y-129216184D01*
X74051000Y-129383816D01*
X74018297Y-129548228D01*
X73954147Y-129703100D01*
X73861015Y-129842481D01*
X73742481Y-129961015D01*
X73603100Y-130054147D01*
X73448228Y-130118297D01*
X73283816Y-130151000D01*
X73116184Y-130151000D01*
X72951772Y-130118297D01*
X72796900Y-130054147D01*
X72657519Y-129961015D01*
X72538985Y-129842481D01*
X72445853Y-129703100D01*
X72381703Y-129548228D01*
X72349000Y-129383816D01*
X72349000Y-129216184D01*
X72381703Y-129051772D01*
X72445853Y-128896900D01*
X72538985Y-128757519D01*
X72657519Y-128638985D01*
X72796900Y-128545853D01*
X72951772Y-128481703D01*
X73116184Y-128449000D01*
X73283816Y-128449000D01*
X73448228Y-128481703D01*
X73448228Y-128481703D01*
G37*
G36*
X137459315Y-128544166D02*
X137503845Y-128557675D01*
X137544891Y-128579614D01*
X137580864Y-128609136D01*
X137610386Y-128645109D01*
X137632325Y-128686155D01*
X137645834Y-128730685D01*
X137651000Y-128783140D01*
X137651000Y-129496860D01*
X137645834Y-129549315D01*
X137632325Y-129593845D01*
X137610386Y-129634891D01*
X137580864Y-129670864D01*
X137544891Y-129700386D01*
X137503845Y-129722325D01*
X137459315Y-129735834D01*
X137406860Y-129741000D01*
X135993140Y-129741000D01*
X135940685Y-129735834D01*
X135896155Y-129722325D01*
X135855109Y-129700386D01*
X135819136Y-129670864D01*
X135789614Y-129634891D01*
X135767675Y-129593845D01*
X135754166Y-129549315D01*
X135749000Y-129496860D01*
X135749000Y-128783140D01*
X135754166Y-128730685D01*
X135767675Y-128686155D01*
X135789614Y-128645109D01*
X135819136Y-128609136D01*
X135855109Y-128579614D01*
X135896155Y-128557675D01*
X135940685Y-128544166D01*
X135993140Y-128539000D01*
X137406860Y-128539000D01*
X137459315Y-128544166D01*
X137459315Y-128544166D01*
G37*
G36*
X139529315Y-127274166D02*
X139573845Y-127287675D01*
X139614891Y-127309614D01*
X139650864Y-127339136D01*
X139680386Y-127375109D01*
X139702325Y-127416155D01*
X139715834Y-127460685D01*
X139721000Y-127513140D01*
X139721000Y-128226860D01*
X139715834Y-128279315D01*
X139702325Y-128323845D01*
X139680386Y-128364891D01*
X139650864Y-128400864D01*
X139614891Y-128430386D01*
X139573845Y-128452325D01*
X139529315Y-128465834D01*
X139476860Y-128471000D01*
X138063140Y-128471000D01*
X138010685Y-128465834D01*
X137966155Y-128452325D01*
X137925109Y-128430386D01*
X137889136Y-128400864D01*
X137859614Y-128364891D01*
X137837675Y-128323845D01*
X137824166Y-128279315D01*
X137819000Y-128226860D01*
X137819000Y-127513140D01*
X137824166Y-127460685D01*
X137837674Y-127416158D01*
X137854368Y-127384926D01*
X137859614Y-127372261D01*
X137864388Y-127368343D01*
X137872628Y-127359253D01*
X137889139Y-127339133D01*
X137925109Y-127309614D01*
X137966155Y-127287675D01*
X138010685Y-127274166D01*
X138063140Y-127269000D01*
X139476860Y-127269000D01*
X139529315Y-127274166D01*
X139529315Y-127274166D01*
G37*
G36*
X137651000Y-127201000D02*
X135749000Y-127201000D01*
X135749000Y-125999000D01*
X137651000Y-125999000D01*
X137651000Y-127201000D01*
X137651000Y-127201000D01*
G37*
G36*
X43926366Y-123115695D02*
X44083458Y-123163348D01*
X44228230Y-123240731D01*
X44355128Y-123344872D01*
X44459269Y-123471770D01*
X44536652Y-123616542D01*
X44584305Y-123773634D01*
X44601000Y-123943140D01*
X44601000Y-125856860D01*
X44584305Y-126026366D01*
X44536652Y-126183458D01*
X44459269Y-126328230D01*
X44355128Y-126455128D01*
X44228230Y-126559269D01*
X44083458Y-126636652D01*
X43926366Y-126684305D01*
X43756860Y-126701000D01*
X41843140Y-126701000D01*
X41673634Y-126684305D01*
X41516542Y-126636652D01*
X41371770Y-126559269D01*
X41244872Y-126455128D01*
X41140731Y-126328230D01*
X41063348Y-126183458D01*
X41015695Y-126026366D01*
X40999000Y-125856860D01*
X40999000Y-123943140D01*
X41015695Y-123773634D01*
X41063348Y-123616542D01*
X41140731Y-123471770D01*
X41244872Y-123344872D01*
X41371770Y-123240731D01*
X41516542Y-123163348D01*
X41673634Y-123115695D01*
X41843140Y-123099000D01*
X43756860Y-123099000D01*
X43926366Y-123115695D01*
X43926366Y-123115695D01*
G37*
G36*
X57576719Y-124463520D02*
X57765880Y-124520901D01*
X57940212Y-124614083D01*
X58093015Y-124739485D01*
X58218417Y-124892288D01*
X58311599Y-125066619D01*
X58368980Y-125255780D01*
X58368980Y-125255783D01*
X58379917Y-125366821D01*
X58383500Y-125403206D01*
X58383500Y-125596793D01*
X58368980Y-125744219D01*
X58311599Y-125933380D01*
X58218417Y-126107712D01*
X58093015Y-126260515D01*
X57940212Y-126385917D01*
X57765881Y-126479099D01*
X57576720Y-126536480D01*
X57380000Y-126555855D01*
X57183281Y-126536480D01*
X56994120Y-126479099D01*
X56819788Y-126385917D01*
X56666985Y-126260515D01*
X56541583Y-126107712D01*
X56448401Y-125933381D01*
X56391020Y-125744220D01*
X56376500Y-125596794D01*
X56376500Y-125403207D01*
X56391020Y-125255781D01*
X56448401Y-125066620D01*
X56541583Y-124892288D01*
X56666985Y-124739485D01*
X56819788Y-124614083D01*
X56994119Y-124520901D01*
X57183280Y-124463520D01*
X57380000Y-124444145D01*
X57576719Y-124463520D01*
X57576719Y-124463520D01*
G37*
G36*
X55036719Y-124463520D02*
X55225880Y-124520901D01*
X55400212Y-124614083D01*
X55553015Y-124739485D01*
X55678417Y-124892288D01*
X55771599Y-125066619D01*
X55828980Y-125255780D01*
X55828980Y-125255783D01*
X55839917Y-125366821D01*
X55843500Y-125403206D01*
X55843500Y-125596793D01*
X55828980Y-125744219D01*
X55771599Y-125933380D01*
X55678417Y-126107712D01*
X55553015Y-126260515D01*
X55400212Y-126385917D01*
X55225881Y-126479099D01*
X55036720Y-126536480D01*
X54840000Y-126555855D01*
X54643281Y-126536480D01*
X54454120Y-126479099D01*
X54279788Y-126385917D01*
X54126985Y-126260515D01*
X54001583Y-126107712D01*
X53908401Y-125933381D01*
X53851020Y-125744220D01*
X53836500Y-125596794D01*
X53836500Y-125403207D01*
X53851020Y-125255781D01*
X53908401Y-125066620D01*
X54001583Y-124892288D01*
X54126985Y-124739485D01*
X54279788Y-124614083D01*
X54454119Y-124520901D01*
X54643280Y-124463520D01*
X54840000Y-124444145D01*
X55036719Y-124463520D01*
X55036719Y-124463520D01*
G37*
G36*
X53303500Y-126551000D02*
X51296500Y-126551000D01*
X51296500Y-124449000D01*
X53303500Y-124449000D01*
X53303500Y-126551000D01*
X53303500Y-126551000D01*
G37*
G36*
X74386821Y-124361313D02*
X74386824Y-124361314D01*
X74386825Y-124361314D01*
X74547239Y-124409975D01*
X74547241Y-124409976D01*
X74547244Y-124409977D01*
X74695078Y-124488995D01*
X74824659Y-124595341D01*
X74931005Y-124724922D01*
X75010023Y-124872756D01*
X75010024Y-124872759D01*
X75010025Y-124872761D01*
X75058686Y-125033175D01*
X75058687Y-125033179D01*
X75075117Y-125200000D01*
X75058687Y-125366821D01*
X75058686Y-125366824D01*
X75058686Y-125366825D01*
X75033993Y-125448228D01*
X75010023Y-125527244D01*
X74931005Y-125675078D01*
X74824659Y-125804659D01*
X74695078Y-125911005D01*
X74547244Y-125990023D01*
X74547241Y-125990024D01*
X74547239Y-125990025D01*
X74386825Y-126038686D01*
X74386824Y-126038686D01*
X74386821Y-126038687D01*
X74261804Y-126051000D01*
X74178196Y-126051000D01*
X74053179Y-126038687D01*
X74053176Y-126038686D01*
X74053175Y-126038686D01*
X73892761Y-125990025D01*
X73892759Y-125990024D01*
X73892756Y-125990023D01*
X73744922Y-125911005D01*
X73615341Y-125804659D01*
X73508995Y-125675078D01*
X73429977Y-125527244D01*
X73406008Y-125448228D01*
X73381314Y-125366825D01*
X73381314Y-125366824D01*
X73381313Y-125366821D01*
X73364883Y-125200000D01*
X73381313Y-125033179D01*
X73381314Y-125033175D01*
X73429975Y-124872761D01*
X73429976Y-124872759D01*
X73429977Y-124872756D01*
X73508995Y-124724922D01*
X73615341Y-124595341D01*
X73744922Y-124488995D01*
X73892756Y-124409977D01*
X73892759Y-124409976D01*
X73892761Y-124409975D01*
X74053175Y-124361314D01*
X74053176Y-124361314D01*
X74053179Y-124361313D01*
X74178196Y-124349000D01*
X74261804Y-124349000D01*
X74386821Y-124361313D01*
X74386821Y-124361313D01*
G37*
G36*
X67451000Y-126051000D02*
X65749000Y-126051000D01*
X65749000Y-124349000D01*
X67451000Y-124349000D01*
X67451000Y-126051000D01*
X67451000Y-126051000D01*
G37*
G36*
X69306821Y-124361313D02*
X69306824Y-124361314D01*
X69306825Y-124361314D01*
X69467239Y-124409975D01*
X69467241Y-124409976D01*
X69467244Y-124409977D01*
X69615078Y-124488995D01*
X69744659Y-124595341D01*
X69851005Y-124724922D01*
X69930023Y-124872756D01*
X69930024Y-124872759D01*
X69930025Y-124872761D01*
X69978686Y-125033175D01*
X69978687Y-125033179D01*
X69995117Y-125200000D01*
X69978687Y-125366821D01*
X69978686Y-125366824D01*
X69978686Y-125366825D01*
X69953993Y-125448228D01*
X69930023Y-125527244D01*
X69851005Y-125675078D01*
X69744659Y-125804659D01*
X69615078Y-125911005D01*
X69467244Y-125990023D01*
X69467241Y-125990024D01*
X69467239Y-125990025D01*
X69306825Y-126038686D01*
X69306824Y-126038686D01*
X69306821Y-126038687D01*
X69181804Y-126051000D01*
X69098196Y-126051000D01*
X68973179Y-126038687D01*
X68973176Y-126038686D01*
X68973175Y-126038686D01*
X68812761Y-125990025D01*
X68812759Y-125990024D01*
X68812756Y-125990023D01*
X68664922Y-125911005D01*
X68535341Y-125804659D01*
X68428995Y-125675078D01*
X68349977Y-125527244D01*
X68326008Y-125448228D01*
X68301314Y-125366825D01*
X68301314Y-125366824D01*
X68301313Y-125366821D01*
X68284883Y-125200000D01*
X68301313Y-125033179D01*
X68301314Y-125033175D01*
X68349975Y-124872761D01*
X68349976Y-124872759D01*
X68349977Y-124872756D01*
X68428995Y-124724922D01*
X68535341Y-124595341D01*
X68664922Y-124488995D01*
X68812756Y-124409977D01*
X68812759Y-124409976D01*
X68812761Y-124409975D01*
X68973175Y-124361314D01*
X68973176Y-124361314D01*
X68973179Y-124361313D01*
X69098196Y-124349000D01*
X69181804Y-124349000D01*
X69306821Y-124361313D01*
X69306821Y-124361313D01*
G37*
G36*
X62848228Y-124381703D02*
X63003100Y-124445853D01*
X63142481Y-124538985D01*
X63261015Y-124657519D01*
X63354147Y-124796900D01*
X63418297Y-124951772D01*
X63451000Y-125116184D01*
X63451000Y-125283816D01*
X63418297Y-125448228D01*
X63354147Y-125603100D01*
X63261015Y-125742481D01*
X63142481Y-125861015D01*
X63003100Y-125954147D01*
X62848228Y-126018297D01*
X62683816Y-126051000D01*
X62516184Y-126051000D01*
X62351772Y-126018297D01*
X62196900Y-125954147D01*
X62057519Y-125861015D01*
X61938985Y-125742481D01*
X61845853Y-125603100D01*
X61781703Y-125448228D01*
X61749000Y-125283816D01*
X61749000Y-125116184D01*
X61781703Y-124951772D01*
X61845853Y-124796900D01*
X61938985Y-124657519D01*
X62057519Y-124538985D01*
X62196900Y-124445853D01*
X62351772Y-124381703D01*
X62516184Y-124349000D01*
X62683816Y-124349000D01*
X62848228Y-124381703D01*
X62848228Y-124381703D01*
G37*
G36*
X76926821Y-124361313D02*
X76926824Y-124361314D01*
X76926825Y-124361314D01*
X77087239Y-124409975D01*
X77087241Y-124409976D01*
X77087244Y-124409977D01*
X77235078Y-124488995D01*
X77364659Y-124595341D01*
X77471005Y-124724922D01*
X77550023Y-124872756D01*
X77550024Y-124872759D01*
X77550025Y-124872761D01*
X77598686Y-125033175D01*
X77598687Y-125033179D01*
X77615117Y-125200000D01*
X77598687Y-125366821D01*
X77598686Y-125366824D01*
X77598686Y-125366825D01*
X77573993Y-125448228D01*
X77550023Y-125527244D01*
X77471005Y-125675078D01*
X77364659Y-125804659D01*
X77235078Y-125911005D01*
X77087244Y-125990023D01*
X77087241Y-125990024D01*
X77087239Y-125990025D01*
X76926825Y-126038686D01*
X76926824Y-126038686D01*
X76926821Y-126038687D01*
X76801804Y-126051000D01*
X76718196Y-126051000D01*
X76593179Y-126038687D01*
X76593176Y-126038686D01*
X76593175Y-126038686D01*
X76432761Y-125990025D01*
X76432759Y-125990024D01*
X76432756Y-125990023D01*
X76284922Y-125911005D01*
X76155341Y-125804659D01*
X76048995Y-125675078D01*
X75969977Y-125527244D01*
X75946008Y-125448228D01*
X75921314Y-125366825D01*
X75921314Y-125366824D01*
X75921313Y-125366821D01*
X75904883Y-125200000D01*
X75921313Y-125033179D01*
X75921314Y-125033175D01*
X75969975Y-124872761D01*
X75969976Y-124872759D01*
X75969977Y-124872756D01*
X76048995Y-124724922D01*
X76155341Y-124595341D01*
X76284922Y-124488995D01*
X76432756Y-124409977D01*
X76432759Y-124409976D01*
X76432761Y-124409975D01*
X76593175Y-124361314D01*
X76593176Y-124361314D01*
X76593179Y-124361313D01*
X76718196Y-124349000D01*
X76801804Y-124349000D01*
X76926821Y-124361313D01*
X76926821Y-124361313D01*
G37*
G36*
X71846821Y-124361313D02*
X71846824Y-124361314D01*
X71846825Y-124361314D01*
X72007239Y-124409975D01*
X72007241Y-124409976D01*
X72007244Y-124409977D01*
X72155078Y-124488995D01*
X72284659Y-124595341D01*
X72391005Y-124724922D01*
X72470023Y-124872756D01*
X72470024Y-124872759D01*
X72470025Y-124872761D01*
X72518686Y-125033175D01*
X72518687Y-125033179D01*
X72535117Y-125200000D01*
X72518687Y-125366821D01*
X72518686Y-125366824D01*
X72518686Y-125366825D01*
X72493993Y-125448228D01*
X72470023Y-125527244D01*
X72391005Y-125675078D01*
X72284659Y-125804659D01*
X72155078Y-125911005D01*
X72007244Y-125990023D01*
X72007241Y-125990024D01*
X72007239Y-125990025D01*
X71846825Y-126038686D01*
X71846824Y-126038686D01*
X71846821Y-126038687D01*
X71721804Y-126051000D01*
X71638196Y-126051000D01*
X71513179Y-126038687D01*
X71513176Y-126038686D01*
X71513175Y-126038686D01*
X71352761Y-125990025D01*
X71352759Y-125990024D01*
X71352756Y-125990023D01*
X71204922Y-125911005D01*
X71075341Y-125804659D01*
X70968995Y-125675078D01*
X70889977Y-125527244D01*
X70866008Y-125448228D01*
X70841314Y-125366825D01*
X70841314Y-125366824D01*
X70841313Y-125366821D01*
X70824883Y-125200000D01*
X70841313Y-125033179D01*
X70841314Y-125033175D01*
X70889975Y-124872761D01*
X70889976Y-124872759D01*
X70889977Y-124872756D01*
X70968995Y-124724922D01*
X71075341Y-124595341D01*
X71204922Y-124488995D01*
X71352756Y-124409977D01*
X71352759Y-124409976D01*
X71352761Y-124409975D01*
X71513175Y-124361314D01*
X71513176Y-124361314D01*
X71513179Y-124361313D01*
X71638196Y-124349000D01*
X71721804Y-124349000D01*
X71846821Y-124361313D01*
X71846821Y-124361313D01*
G37*
G36*
X79466821Y-124361313D02*
X79466824Y-124361314D01*
X79466825Y-124361314D01*
X79627239Y-124409975D01*
X79627241Y-124409976D01*
X79627244Y-124409977D01*
X79775078Y-124488995D01*
X79904659Y-124595341D01*
X80011005Y-124724922D01*
X80090023Y-124872756D01*
X80090024Y-124872759D01*
X80090025Y-124872761D01*
X80138686Y-125033175D01*
X80138687Y-125033179D01*
X80155117Y-125200000D01*
X80138687Y-125366821D01*
X80138686Y-125366824D01*
X80138686Y-125366825D01*
X80113993Y-125448228D01*
X80090023Y-125527244D01*
X80011005Y-125675078D01*
X79904659Y-125804659D01*
X79775078Y-125911005D01*
X79627244Y-125990023D01*
X79627241Y-125990024D01*
X79627239Y-125990025D01*
X79466825Y-126038686D01*
X79466824Y-126038686D01*
X79466821Y-126038687D01*
X79341804Y-126051000D01*
X79258196Y-126051000D01*
X79133179Y-126038687D01*
X79133176Y-126038686D01*
X79133175Y-126038686D01*
X78972761Y-125990025D01*
X78972759Y-125990024D01*
X78972756Y-125990023D01*
X78824922Y-125911005D01*
X78695341Y-125804659D01*
X78588995Y-125675078D01*
X78509977Y-125527244D01*
X78486008Y-125448228D01*
X78461314Y-125366825D01*
X78461314Y-125366824D01*
X78461313Y-125366821D01*
X78444883Y-125200000D01*
X78461313Y-125033179D01*
X78461314Y-125033175D01*
X78509975Y-124872761D01*
X78509976Y-124872759D01*
X78509977Y-124872756D01*
X78588995Y-124724922D01*
X78695341Y-124595341D01*
X78824922Y-124488995D01*
X78972756Y-124409977D01*
X78972759Y-124409976D01*
X78972761Y-124409975D01*
X79133175Y-124361314D01*
X79133176Y-124361314D01*
X79133179Y-124361313D01*
X79258196Y-124349000D01*
X79341804Y-124349000D01*
X79466821Y-124361313D01*
X79466821Y-124361313D01*
G37*
G36*
X82006821Y-124361313D02*
X82006824Y-124361314D01*
X82006825Y-124361314D01*
X82167239Y-124409975D01*
X82167241Y-124409976D01*
X82167244Y-124409977D01*
X82315078Y-124488995D01*
X82444659Y-124595341D01*
X82551005Y-124724922D01*
X82630023Y-124872756D01*
X82630024Y-124872759D01*
X82630025Y-124872761D01*
X82678686Y-125033175D01*
X82678687Y-125033179D01*
X82695117Y-125200000D01*
X82678687Y-125366821D01*
X82678686Y-125366824D01*
X82678686Y-125366825D01*
X82653993Y-125448228D01*
X82630023Y-125527244D01*
X82551005Y-125675078D01*
X82444659Y-125804659D01*
X82315078Y-125911005D01*
X82167244Y-125990023D01*
X82167241Y-125990024D01*
X82167239Y-125990025D01*
X82006825Y-126038686D01*
X82006824Y-126038686D01*
X82006821Y-126038687D01*
X81881804Y-126051000D01*
X81798196Y-126051000D01*
X81673179Y-126038687D01*
X81673176Y-126038686D01*
X81673175Y-126038686D01*
X81512761Y-125990025D01*
X81512759Y-125990024D01*
X81512756Y-125990023D01*
X81364922Y-125911005D01*
X81235341Y-125804659D01*
X81128995Y-125675078D01*
X81049977Y-125527244D01*
X81026008Y-125448228D01*
X81001314Y-125366825D01*
X81001314Y-125366824D01*
X81001313Y-125366821D01*
X80984883Y-125200000D01*
X81001313Y-125033179D01*
X81001314Y-125033175D01*
X81049975Y-124872761D01*
X81049976Y-124872759D01*
X81049977Y-124872756D01*
X81128995Y-124724922D01*
X81235341Y-124595341D01*
X81364922Y-124488995D01*
X81512756Y-124409977D01*
X81512759Y-124409976D01*
X81512761Y-124409975D01*
X81673175Y-124361314D01*
X81673176Y-124361314D01*
X81673179Y-124361313D01*
X81798196Y-124349000D01*
X81881804Y-124349000D01*
X82006821Y-124361313D01*
X82006821Y-124361313D01*
G37*
G36*
X84546821Y-124361313D02*
X84546824Y-124361314D01*
X84546825Y-124361314D01*
X84707239Y-124409975D01*
X84707241Y-124409976D01*
X84707244Y-124409977D01*
X84855078Y-124488995D01*
X84984659Y-124595341D01*
X85091005Y-124724922D01*
X85170023Y-124872756D01*
X85170024Y-124872759D01*
X85170025Y-124872761D01*
X85218686Y-125033175D01*
X85218687Y-125033179D01*
X85235117Y-125200000D01*
X85218687Y-125366821D01*
X85218686Y-125366824D01*
X85218686Y-125366825D01*
X85193993Y-125448228D01*
X85170023Y-125527244D01*
X85091005Y-125675078D01*
X84984659Y-125804659D01*
X84855078Y-125911005D01*
X84707244Y-125990023D01*
X84707241Y-125990024D01*
X84707239Y-125990025D01*
X84546825Y-126038686D01*
X84546824Y-126038686D01*
X84546821Y-126038687D01*
X84421804Y-126051000D01*
X84338196Y-126051000D01*
X84213179Y-126038687D01*
X84213176Y-126038686D01*
X84213175Y-126038686D01*
X84052761Y-125990025D01*
X84052759Y-125990024D01*
X84052756Y-125990023D01*
X83904922Y-125911005D01*
X83775341Y-125804659D01*
X83668995Y-125675078D01*
X83589977Y-125527244D01*
X83566008Y-125448228D01*
X83541314Y-125366825D01*
X83541314Y-125366824D01*
X83541313Y-125366821D01*
X83524883Y-125200000D01*
X83541313Y-125033179D01*
X83541314Y-125033175D01*
X83589975Y-124872761D01*
X83589976Y-124872759D01*
X83589977Y-124872756D01*
X83668995Y-124724922D01*
X83775341Y-124595341D01*
X83904922Y-124488995D01*
X84052756Y-124409977D01*
X84052759Y-124409976D01*
X84052761Y-124409975D01*
X84213175Y-124361314D01*
X84213176Y-124361314D01*
X84213179Y-124361313D01*
X84338196Y-124349000D01*
X84421804Y-124349000D01*
X84546821Y-124361313D01*
X84546821Y-124361313D01*
G37*
G36*
X87086821Y-124361313D02*
X87086824Y-124361314D01*
X87086825Y-124361314D01*
X87247239Y-124409975D01*
X87247241Y-124409976D01*
X87247244Y-124409977D01*
X87395078Y-124488995D01*
X87524659Y-124595341D01*
X87631005Y-124724922D01*
X87710023Y-124872756D01*
X87710024Y-124872759D01*
X87710025Y-124872761D01*
X87758686Y-125033175D01*
X87758687Y-125033179D01*
X87775117Y-125200000D01*
X87758687Y-125366821D01*
X87758686Y-125366824D01*
X87758686Y-125366825D01*
X87733993Y-125448228D01*
X87710023Y-125527244D01*
X87631005Y-125675078D01*
X87524659Y-125804659D01*
X87395078Y-125911005D01*
X87247244Y-125990023D01*
X87247241Y-125990024D01*
X87247239Y-125990025D01*
X87086825Y-126038686D01*
X87086824Y-126038686D01*
X87086821Y-126038687D01*
X86961804Y-126051000D01*
X86878196Y-126051000D01*
X86753179Y-126038687D01*
X86753176Y-126038686D01*
X86753175Y-126038686D01*
X86592761Y-125990025D01*
X86592759Y-125990024D01*
X86592756Y-125990023D01*
X86444922Y-125911005D01*
X86315341Y-125804659D01*
X86208995Y-125675078D01*
X86129977Y-125527244D01*
X86106008Y-125448228D01*
X86081314Y-125366825D01*
X86081314Y-125366824D01*
X86081313Y-125366821D01*
X86064883Y-125200000D01*
X86081313Y-125033179D01*
X86081314Y-125033175D01*
X86129975Y-124872761D01*
X86129976Y-124872759D01*
X86129977Y-124872756D01*
X86208995Y-124724922D01*
X86315341Y-124595341D01*
X86444922Y-124488995D01*
X86592756Y-124409977D01*
X86592759Y-124409976D01*
X86592761Y-124409975D01*
X86753175Y-124361314D01*
X86753176Y-124361314D01*
X86753179Y-124361313D01*
X86878196Y-124349000D01*
X86961804Y-124349000D01*
X87086821Y-124361313D01*
X87086821Y-124361313D01*
G37*
G36*
X89626821Y-124361313D02*
X89626824Y-124361314D01*
X89626825Y-124361314D01*
X89787239Y-124409975D01*
X89787241Y-124409976D01*
X89787244Y-124409977D01*
X89935078Y-124488995D01*
X90064659Y-124595341D01*
X90171005Y-124724922D01*
X90250023Y-124872756D01*
X90250024Y-124872759D01*
X90250025Y-124872761D01*
X90298686Y-125033175D01*
X90298687Y-125033179D01*
X90315117Y-125200000D01*
X90298687Y-125366821D01*
X90298686Y-125366824D01*
X90298686Y-125366825D01*
X90273993Y-125448228D01*
X90250023Y-125527244D01*
X90171005Y-125675078D01*
X90064659Y-125804659D01*
X89935078Y-125911005D01*
X89787244Y-125990023D01*
X89787241Y-125990024D01*
X89787239Y-125990025D01*
X89626825Y-126038686D01*
X89626824Y-126038686D01*
X89626821Y-126038687D01*
X89501804Y-126051000D01*
X89418196Y-126051000D01*
X89293179Y-126038687D01*
X89293176Y-126038686D01*
X89293175Y-126038686D01*
X89132761Y-125990025D01*
X89132759Y-125990024D01*
X89132756Y-125990023D01*
X88984922Y-125911005D01*
X88855341Y-125804659D01*
X88748995Y-125675078D01*
X88669977Y-125527244D01*
X88646008Y-125448228D01*
X88621314Y-125366825D01*
X88621314Y-125366824D01*
X88621313Y-125366821D01*
X88604883Y-125200000D01*
X88621313Y-125033179D01*
X88621314Y-125033175D01*
X88669975Y-124872761D01*
X88669976Y-124872759D01*
X88669977Y-124872756D01*
X88748995Y-124724922D01*
X88855341Y-124595341D01*
X88984922Y-124488995D01*
X89132756Y-124409977D01*
X89132759Y-124409976D01*
X89132761Y-124409975D01*
X89293175Y-124361314D01*
X89293176Y-124361314D01*
X89293179Y-124361313D01*
X89418196Y-124349000D01*
X89501804Y-124349000D01*
X89626821Y-124361313D01*
X89626821Y-124361313D01*
G37*
G36*
X98818664Y-122879879D02*
X98818666Y-122879880D01*
X98818667Y-122879880D01*
X99009844Y-122959068D01*
X99181901Y-123074033D01*
X99328217Y-123220349D01*
X99443182Y-123392406D01*
X99522371Y-123583586D01*
X99562740Y-123786534D01*
X99562740Y-123993466D01*
X99537456Y-124120578D01*
X99522370Y-124196417D01*
X99448366Y-124375078D01*
X99443182Y-124387594D01*
X99328217Y-124559651D01*
X99181901Y-124705967D01*
X99181898Y-124705969D01*
X99009844Y-124820932D01*
X98818667Y-124900120D01*
X98818666Y-124900120D01*
X98818664Y-124900121D01*
X98615716Y-124940490D01*
X98408784Y-124940490D01*
X98205836Y-124900121D01*
X98205834Y-124900120D01*
X98205833Y-124900120D01*
X98014656Y-124820932D01*
X97842602Y-124705969D01*
X97842599Y-124705967D01*
X97696283Y-124559651D01*
X97581318Y-124387594D01*
X97576134Y-124375078D01*
X97502130Y-124196417D01*
X97487045Y-124120578D01*
X97461760Y-123993466D01*
X97461760Y-123786534D01*
X97502129Y-123583586D01*
X97581318Y-123392406D01*
X97696283Y-123220349D01*
X97842599Y-123074033D01*
X98014656Y-122959068D01*
X98205833Y-122879880D01*
X98205834Y-122879880D01*
X98205836Y-122879879D01*
X98408784Y-122839510D01*
X98615716Y-122839510D01*
X98818664Y-122879879D01*
X98818664Y-122879879D01*
G37*
G36*
X123574071Y-123115066D02*
X123574074Y-123115067D01*
X123574075Y-123115067D01*
X123734489Y-123163728D01*
X123734491Y-123163729D01*
X123734494Y-123163730D01*
X123882328Y-123242748D01*
X124011909Y-123349094D01*
X124118255Y-123478675D01*
X124197273Y-123626509D01*
X124197274Y-123626512D01*
X124197275Y-123626514D01*
X124229630Y-123733175D01*
X124245937Y-123786932D01*
X124262367Y-123953753D01*
X124245937Y-124120574D01*
X124245936Y-124120577D01*
X124245936Y-124120578D01*
X124205136Y-124255078D01*
X124197273Y-124280997D01*
X124118255Y-124428831D01*
X124011909Y-124558412D01*
X123882328Y-124664758D01*
X123734494Y-124743776D01*
X123734491Y-124743777D01*
X123734489Y-124743778D01*
X123574075Y-124792439D01*
X123574074Y-124792439D01*
X123574071Y-124792440D01*
X123449054Y-124804753D01*
X123365446Y-124804753D01*
X123240429Y-124792440D01*
X123240426Y-124792439D01*
X123240425Y-124792439D01*
X123080011Y-124743778D01*
X123080009Y-124743777D01*
X123080006Y-124743776D01*
X122932172Y-124664758D01*
X122802591Y-124558412D01*
X122696245Y-124428831D01*
X122617227Y-124280997D01*
X122609365Y-124255078D01*
X122568564Y-124120578D01*
X122568564Y-124120577D01*
X122568563Y-124120574D01*
X122552133Y-123953753D01*
X122568563Y-123786932D01*
X122584870Y-123733175D01*
X122617225Y-123626514D01*
X122617226Y-123626512D01*
X122617227Y-123626509D01*
X122696245Y-123478675D01*
X122802591Y-123349094D01*
X122932172Y-123242748D01*
X123080006Y-123163730D01*
X123080009Y-123163729D01*
X123080011Y-123163728D01*
X123240425Y-123115067D01*
X123240426Y-123115067D01*
X123240429Y-123115066D01*
X123365446Y-123102753D01*
X123449054Y-123102753D01*
X123574071Y-123115066D01*
X123574071Y-123115066D01*
G37*
G36*
X127968321Y-123115066D02*
X127968324Y-123115067D01*
X127968325Y-123115067D01*
X128128739Y-123163728D01*
X128128741Y-123163729D01*
X128128744Y-123163730D01*
X128276578Y-123242748D01*
X128406159Y-123349094D01*
X128512505Y-123478675D01*
X128591523Y-123626509D01*
X128591524Y-123626512D01*
X128591525Y-123626514D01*
X128623880Y-123733175D01*
X128640187Y-123786932D01*
X128656617Y-123953753D01*
X128640187Y-124120574D01*
X128640186Y-124120577D01*
X128640186Y-124120578D01*
X128599386Y-124255078D01*
X128591523Y-124280997D01*
X128512505Y-124428831D01*
X128406159Y-124558412D01*
X128276578Y-124664758D01*
X128128744Y-124743776D01*
X128128741Y-124743777D01*
X128128739Y-124743778D01*
X127968325Y-124792439D01*
X127968324Y-124792439D01*
X127968321Y-124792440D01*
X127843304Y-124804753D01*
X127759696Y-124804753D01*
X127634679Y-124792440D01*
X127634676Y-124792439D01*
X127634675Y-124792439D01*
X127474261Y-124743778D01*
X127474259Y-124743777D01*
X127474256Y-124743776D01*
X127326422Y-124664758D01*
X127196841Y-124558412D01*
X127090495Y-124428831D01*
X127011477Y-124280997D01*
X127003615Y-124255078D01*
X126962814Y-124120578D01*
X126962814Y-124120577D01*
X126962813Y-124120574D01*
X126946383Y-123953753D01*
X126962813Y-123786932D01*
X126979120Y-123733175D01*
X127011475Y-123626514D01*
X127011476Y-123626512D01*
X127011477Y-123626509D01*
X127090495Y-123478675D01*
X127196841Y-123349094D01*
X127326422Y-123242748D01*
X127474256Y-123163730D01*
X127474259Y-123163729D01*
X127474261Y-123163728D01*
X127634675Y-123115067D01*
X127634676Y-123115067D01*
X127634679Y-123115066D01*
X127759696Y-123102753D01*
X127843304Y-123102753D01*
X127968321Y-123115066D01*
X127968321Y-123115066D01*
G37*
G36*
X132362571Y-123115066D02*
X132362574Y-123115067D01*
X132362575Y-123115067D01*
X132522989Y-123163728D01*
X132522991Y-123163729D01*
X132522994Y-123163730D01*
X132670828Y-123242748D01*
X132800409Y-123349094D01*
X132906755Y-123478675D01*
X132985773Y-123626509D01*
X132985774Y-123626512D01*
X132985775Y-123626514D01*
X133018130Y-123733175D01*
X133034437Y-123786932D01*
X133050867Y-123953753D01*
X133034437Y-124120574D01*
X133034436Y-124120577D01*
X133034436Y-124120578D01*
X132993636Y-124255078D01*
X132985773Y-124280997D01*
X132906755Y-124428831D01*
X132800409Y-124558412D01*
X132670828Y-124664758D01*
X132522994Y-124743776D01*
X132522991Y-124743777D01*
X132522989Y-124743778D01*
X132362575Y-124792439D01*
X132362574Y-124792439D01*
X132362571Y-124792440D01*
X132237554Y-124804753D01*
X132153946Y-124804753D01*
X132028929Y-124792440D01*
X132028926Y-124792439D01*
X132028925Y-124792439D01*
X131868511Y-124743778D01*
X131868509Y-124743777D01*
X131868506Y-124743776D01*
X131720672Y-124664758D01*
X131591091Y-124558412D01*
X131484745Y-124428831D01*
X131405727Y-124280997D01*
X131397865Y-124255078D01*
X131357064Y-124120578D01*
X131357064Y-124120577D01*
X131357063Y-124120574D01*
X131340633Y-123953753D01*
X131357063Y-123786932D01*
X131373370Y-123733175D01*
X131405725Y-123626514D01*
X131405726Y-123626512D01*
X131405727Y-123626509D01*
X131484745Y-123478675D01*
X131591091Y-123349094D01*
X131720672Y-123242748D01*
X131868506Y-123163730D01*
X131868509Y-123163729D01*
X131868511Y-123163728D01*
X132028925Y-123115067D01*
X132028926Y-123115067D01*
X132028929Y-123115066D01*
X132153946Y-123102753D01*
X132237554Y-123102753D01*
X132362571Y-123115066D01*
X132362571Y-123115066D01*
G37*
G36*
X119814000Y-124751000D02*
X118112000Y-124751000D01*
X118112000Y-123049000D01*
X119814000Y-123049000D01*
X119814000Y-124751000D01*
X119814000Y-124751000D01*
G37*
G36*
X111509821Y-123061313D02*
X111509824Y-123061314D01*
X111509825Y-123061314D01*
X111670239Y-123109975D01*
X111670241Y-123109976D01*
X111670244Y-123109977D01*
X111818078Y-123188995D01*
X111947659Y-123295341D01*
X112054005Y-123424922D01*
X112133023Y-123572756D01*
X112133024Y-123572759D01*
X112133025Y-123572761D01*
X112175619Y-123713175D01*
X112181687Y-123733179D01*
X112198117Y-123900000D01*
X112181687Y-124066821D01*
X112181686Y-124066824D01*
X112181686Y-124066825D01*
X112139092Y-124207239D01*
X112133023Y-124227244D01*
X112054005Y-124375078D01*
X111947659Y-124504659D01*
X111818078Y-124611005D01*
X111670244Y-124690023D01*
X111670241Y-124690024D01*
X111670239Y-124690025D01*
X111509825Y-124738686D01*
X111509824Y-124738686D01*
X111509821Y-124738687D01*
X111384804Y-124751000D01*
X111301196Y-124751000D01*
X111176179Y-124738687D01*
X111176176Y-124738686D01*
X111176175Y-124738686D01*
X111015761Y-124690025D01*
X111015759Y-124690024D01*
X111015756Y-124690023D01*
X110867922Y-124611005D01*
X110738341Y-124504659D01*
X110631995Y-124375078D01*
X110552977Y-124227244D01*
X110546909Y-124207239D01*
X110504314Y-124066825D01*
X110504314Y-124066824D01*
X110504313Y-124066821D01*
X110487883Y-123900000D01*
X110504313Y-123733179D01*
X110510381Y-123713175D01*
X110552975Y-123572761D01*
X110552976Y-123572759D01*
X110552977Y-123572756D01*
X110631995Y-123424922D01*
X110738341Y-123295341D01*
X110867922Y-123188995D01*
X111015756Y-123109977D01*
X111015759Y-123109976D01*
X111015761Y-123109975D01*
X111176175Y-123061314D01*
X111176176Y-123061314D01*
X111176179Y-123061313D01*
X111301196Y-123049000D01*
X111384804Y-123049000D01*
X111509821Y-123061313D01*
X111509821Y-123061313D01*
G37*
G36*
X116589821Y-123061313D02*
X116589824Y-123061314D01*
X116589825Y-123061314D01*
X116750239Y-123109975D01*
X116750241Y-123109976D01*
X116750244Y-123109977D01*
X116898078Y-123188995D01*
X117027659Y-123295341D01*
X117134005Y-123424922D01*
X117213023Y-123572756D01*
X117213024Y-123572759D01*
X117213025Y-123572761D01*
X117255619Y-123713175D01*
X117261687Y-123733179D01*
X117278117Y-123900000D01*
X117261687Y-124066821D01*
X117261686Y-124066824D01*
X117261686Y-124066825D01*
X117219092Y-124207239D01*
X117213023Y-124227244D01*
X117134005Y-124375078D01*
X117027659Y-124504659D01*
X116898078Y-124611005D01*
X116750244Y-124690023D01*
X116750241Y-124690024D01*
X116750239Y-124690025D01*
X116589825Y-124738686D01*
X116589824Y-124738686D01*
X116589821Y-124738687D01*
X116464804Y-124751000D01*
X116381196Y-124751000D01*
X116256179Y-124738687D01*
X116256176Y-124738686D01*
X116256175Y-124738686D01*
X116095761Y-124690025D01*
X116095759Y-124690024D01*
X116095756Y-124690023D01*
X115947922Y-124611005D01*
X115818341Y-124504659D01*
X115711995Y-124375078D01*
X115632977Y-124227244D01*
X115626909Y-124207239D01*
X115584314Y-124066825D01*
X115584314Y-124066824D01*
X115584313Y-124066821D01*
X115567883Y-123900000D01*
X115584313Y-123733179D01*
X115590381Y-123713175D01*
X115632975Y-123572761D01*
X115632976Y-123572759D01*
X115632977Y-123572756D01*
X115711995Y-123424922D01*
X115818341Y-123295341D01*
X115947922Y-123188995D01*
X116095756Y-123109977D01*
X116095759Y-123109976D01*
X116095761Y-123109975D01*
X116256175Y-123061314D01*
X116256176Y-123061314D01*
X116256179Y-123061313D01*
X116381196Y-123049000D01*
X116464804Y-123049000D01*
X116589821Y-123061313D01*
X116589821Y-123061313D01*
G37*
G36*
X114049821Y-123061313D02*
X114049824Y-123061314D01*
X114049825Y-123061314D01*
X114210239Y-123109975D01*
X114210241Y-123109976D01*
X114210244Y-123109977D01*
X114358078Y-123188995D01*
X114487659Y-123295341D01*
X114594005Y-123424922D01*
X114673023Y-123572756D01*
X114673024Y-123572759D01*
X114673025Y-123572761D01*
X114715619Y-123713175D01*
X114721687Y-123733179D01*
X114738117Y-123900000D01*
X114721687Y-124066821D01*
X114721686Y-124066824D01*
X114721686Y-124066825D01*
X114679092Y-124207239D01*
X114673023Y-124227244D01*
X114594005Y-124375078D01*
X114487659Y-124504659D01*
X114358078Y-124611005D01*
X114210244Y-124690023D01*
X114210241Y-124690024D01*
X114210239Y-124690025D01*
X114049825Y-124738686D01*
X114049824Y-124738686D01*
X114049821Y-124738687D01*
X113924804Y-124751000D01*
X113841196Y-124751000D01*
X113716179Y-124738687D01*
X113716176Y-124738686D01*
X113716175Y-124738686D01*
X113555761Y-124690025D01*
X113555759Y-124690024D01*
X113555756Y-124690023D01*
X113407922Y-124611005D01*
X113278341Y-124504659D01*
X113171995Y-124375078D01*
X113092977Y-124227244D01*
X113086909Y-124207239D01*
X113044314Y-124066825D01*
X113044314Y-124066824D01*
X113044313Y-124066821D01*
X113027883Y-123900000D01*
X113044313Y-123733179D01*
X113050381Y-123713175D01*
X113092975Y-123572761D01*
X113092976Y-123572759D01*
X113092977Y-123572756D01*
X113171995Y-123424922D01*
X113278341Y-123295341D01*
X113407922Y-123188995D01*
X113555756Y-123109977D01*
X113555759Y-123109976D01*
X113555761Y-123109975D01*
X113716175Y-123061314D01*
X113716176Y-123061314D01*
X113716179Y-123061313D01*
X113841196Y-123049000D01*
X113924804Y-123049000D01*
X114049821Y-123061313D01*
X114049821Y-123061313D01*
G37*
G36*
X102691321Y-123041313D02*
X102691324Y-123041314D01*
X102691325Y-123041314D01*
X102851739Y-123089975D01*
X102851741Y-123089976D01*
X102851744Y-123089977D01*
X102999578Y-123168995D01*
X103129159Y-123275341D01*
X103235505Y-123404922D01*
X103314523Y-123552756D01*
X103314524Y-123552759D01*
X103314525Y-123552761D01*
X103363186Y-123713175D01*
X103363187Y-123713179D01*
X103379617Y-123880000D01*
X103363187Y-124046821D01*
X103363186Y-124046824D01*
X103363186Y-124046825D01*
X103317808Y-124196417D01*
X103314523Y-124207244D01*
X103235505Y-124355078D01*
X103129159Y-124484659D01*
X102999578Y-124591005D01*
X102851744Y-124670023D01*
X102851741Y-124670024D01*
X102851739Y-124670025D01*
X102691325Y-124718686D01*
X102691324Y-124718686D01*
X102691321Y-124718687D01*
X102566304Y-124731000D01*
X102482696Y-124731000D01*
X102357679Y-124718687D01*
X102357676Y-124718686D01*
X102357675Y-124718686D01*
X102197261Y-124670025D01*
X102197259Y-124670024D01*
X102197256Y-124670023D01*
X102049422Y-124591005D01*
X101919841Y-124484659D01*
X101813495Y-124355078D01*
X101734477Y-124207244D01*
X101731193Y-124196417D01*
X101685814Y-124046825D01*
X101685814Y-124046824D01*
X101685813Y-124046821D01*
X101669383Y-123880000D01*
X101685813Y-123713179D01*
X101685814Y-123713175D01*
X101734475Y-123552761D01*
X101734476Y-123552759D01*
X101734477Y-123552756D01*
X101813495Y-123404922D01*
X101919841Y-123275341D01*
X102049422Y-123168995D01*
X102197256Y-123089977D01*
X102197259Y-123089976D01*
X102197261Y-123089975D01*
X102357675Y-123041314D01*
X102357676Y-123041314D01*
X102357679Y-123041313D01*
X102482696Y-123029000D01*
X102566304Y-123029000D01*
X102691321Y-123041313D01*
X102691321Y-123041313D01*
G37*
G36*
X107085571Y-122941313D02*
X107085574Y-122941314D01*
X107085575Y-122941314D01*
X107245989Y-122989975D01*
X107245991Y-122989976D01*
X107245994Y-122989977D01*
X107393828Y-123068995D01*
X107523409Y-123175341D01*
X107629755Y-123304922D01*
X107708773Y-123452756D01*
X107708774Y-123452759D01*
X107708775Y-123452761D01*
X107748459Y-123583583D01*
X107757437Y-123613179D01*
X107773867Y-123780000D01*
X107757437Y-123946821D01*
X107757436Y-123946824D01*
X107757436Y-123946825D01*
X107710031Y-124103100D01*
X107708773Y-124107244D01*
X107629755Y-124255078D01*
X107523409Y-124384659D01*
X107393828Y-124491005D01*
X107245994Y-124570023D01*
X107245991Y-124570024D01*
X107245989Y-124570025D01*
X107085575Y-124618686D01*
X107085574Y-124618686D01*
X107085571Y-124618687D01*
X106960554Y-124631000D01*
X106876946Y-124631000D01*
X106751929Y-124618687D01*
X106751926Y-124618686D01*
X106751925Y-124618686D01*
X106591511Y-124570025D01*
X106591509Y-124570024D01*
X106591506Y-124570023D01*
X106443672Y-124491005D01*
X106314091Y-124384659D01*
X106207745Y-124255078D01*
X106128727Y-124107244D01*
X106127470Y-124103100D01*
X106080064Y-123946825D01*
X106080064Y-123946824D01*
X106080063Y-123946821D01*
X106063633Y-123780000D01*
X106080063Y-123613179D01*
X106089041Y-123583583D01*
X106128725Y-123452761D01*
X106128726Y-123452759D01*
X106128727Y-123452756D01*
X106207745Y-123304922D01*
X106314091Y-123175341D01*
X106443672Y-123068995D01*
X106591506Y-122989977D01*
X106591509Y-122989976D01*
X106591511Y-122989975D01*
X106751925Y-122941314D01*
X106751926Y-122941314D01*
X106751929Y-122941313D01*
X106876946Y-122929000D01*
X106960554Y-122929000D01*
X107085571Y-122941313D01*
X107085571Y-122941313D01*
G37*
G36*
X94748228Y-122881703D02*
X94903100Y-122945853D01*
X95042481Y-123038985D01*
X95161015Y-123157519D01*
X95254147Y-123296900D01*
X95318297Y-123451772D01*
X95351000Y-123616184D01*
X95351000Y-123783816D01*
X95318297Y-123948228D01*
X95254147Y-124103100D01*
X95161015Y-124242481D01*
X95042481Y-124361015D01*
X94903100Y-124454147D01*
X94748228Y-124518297D01*
X94583816Y-124551000D01*
X94416184Y-124551000D01*
X94251772Y-124518297D01*
X94096900Y-124454147D01*
X93957519Y-124361015D01*
X93838985Y-124242481D01*
X93745853Y-124103100D01*
X93681703Y-123948228D01*
X93649000Y-123783816D01*
X93649000Y-123616184D01*
X93681703Y-123451772D01*
X93745853Y-123296900D01*
X93838985Y-123157519D01*
X93957519Y-123038985D01*
X94096900Y-122945853D01*
X94251772Y-122881703D01*
X94416184Y-122849000D01*
X94583816Y-122849000D01*
X94748228Y-122881703D01*
X94748228Y-122881703D01*
G37*
G36*
X40776978Y-118413293D02*
X40910627Y-118453835D01*
X41033782Y-118519662D01*
X41141739Y-118608261D01*
X41230338Y-118716218D01*
X41296165Y-118839373D01*
X41336707Y-118973022D01*
X41351000Y-119118140D01*
X41351000Y-121281860D01*
X41336707Y-121426978D01*
X41296165Y-121560627D01*
X41230338Y-121683782D01*
X41141739Y-121791739D01*
X41033782Y-121880338D01*
X40910627Y-121946165D01*
X40776978Y-121986707D01*
X40631860Y-122001000D01*
X38968140Y-122001000D01*
X38823022Y-121986707D01*
X38689373Y-121946165D01*
X38566218Y-121880338D01*
X38458261Y-121791739D01*
X38369662Y-121683782D01*
X38303835Y-121560627D01*
X38263293Y-121426978D01*
X38249000Y-121281860D01*
X38249000Y-119118140D01*
X38263293Y-118973022D01*
X38303835Y-118839373D01*
X38369662Y-118716218D01*
X38458261Y-118608261D01*
X38566218Y-118519662D01*
X38689373Y-118453835D01*
X38823022Y-118413293D01*
X38968140Y-118399000D01*
X40631860Y-118399000D01*
X40776978Y-118413293D01*
X40776978Y-118413293D01*
G37*
G36*
X47601000Y-122001000D02*
X43999000Y-122001000D01*
X43999000Y-118399000D01*
X47601000Y-118399000D01*
X47601000Y-122001000D01*
X47601000Y-122001000D01*
G37*
G36*
X129558160Y-117448404D02*
X129794869Y-117546452D01*
X130007905Y-117688798D01*
X130189069Y-117869962D01*
X130331415Y-118082998D01*
X130429463Y-118319707D01*
X130479447Y-118570993D01*
X130479447Y-118827207D01*
X130429463Y-119078493D01*
X130331415Y-119315202D01*
X130189069Y-119528238D01*
X130007905Y-119709402D01*
X129794869Y-119851748D01*
X129558160Y-119949796D01*
X129306874Y-119999780D01*
X129050660Y-119999780D01*
X128799374Y-119949796D01*
X128562665Y-119851748D01*
X128349629Y-119709402D01*
X128168465Y-119528238D01*
X128026119Y-119315202D01*
X127928071Y-119078493D01*
X127878087Y-118827207D01*
X127878087Y-118570993D01*
X127928071Y-118319707D01*
X128026119Y-118082998D01*
X128168465Y-117869962D01*
X128349629Y-117688798D01*
X128562665Y-117546452D01*
X128799374Y-117448404D01*
X129050660Y-117398420D01*
X129306874Y-117398420D01*
X129558160Y-117448404D01*
X129558160Y-117448404D01*
G37*
G36*
X109375573Y-117448404D02*
X109612282Y-117546452D01*
X109825318Y-117688798D01*
X110006482Y-117869962D01*
X110148828Y-118082998D01*
X110246876Y-118319707D01*
X110296860Y-118570993D01*
X110296860Y-118827207D01*
X110246876Y-119078493D01*
X110148828Y-119315202D01*
X110006482Y-119528238D01*
X109825318Y-119709402D01*
X109612282Y-119851748D01*
X109375573Y-119949796D01*
X109124287Y-119999780D01*
X108868073Y-119999780D01*
X108616787Y-119949796D01*
X108380078Y-119851748D01*
X108167042Y-119709402D01*
X107985878Y-119528238D01*
X107843532Y-119315202D01*
X107745484Y-119078493D01*
X107695500Y-118827207D01*
X107695500Y-118570993D01*
X107745484Y-118319707D01*
X107843532Y-118082998D01*
X107985878Y-117869962D01*
X108167042Y-117688798D01*
X108380078Y-117546452D01*
X108616787Y-117448404D01*
X108868073Y-117398420D01*
X109124287Y-117398420D01*
X109375573Y-117448404D01*
X109375573Y-117448404D01*
G37*
G36*
X99383213Y-117448404D02*
X99619922Y-117546452D01*
X99832958Y-117688798D01*
X100014122Y-117869962D01*
X100156468Y-118082998D01*
X100254516Y-118319707D01*
X100304500Y-118570993D01*
X100304500Y-118827207D01*
X100254516Y-119078493D01*
X100156468Y-119315202D01*
X100014122Y-119528238D01*
X99832958Y-119709402D01*
X99619922Y-119851748D01*
X99383213Y-119949796D01*
X99131927Y-119999780D01*
X98875713Y-119999780D01*
X98624427Y-119949796D01*
X98387718Y-119851748D01*
X98174682Y-119709402D01*
X97993518Y-119528238D01*
X97851172Y-119315202D01*
X97753124Y-119078493D01*
X97703140Y-118827207D01*
X97703140Y-118570993D01*
X97753124Y-118319707D01*
X97851172Y-118082998D01*
X97993518Y-117869962D01*
X98174682Y-117688798D01*
X98387718Y-117546452D01*
X98624427Y-117448404D01*
X98875713Y-117398420D01*
X99131927Y-117398420D01*
X99383213Y-117448404D01*
X99383213Y-117448404D01*
G37*
G36*
X119565800Y-117448404D02*
X119802509Y-117546452D01*
X120015545Y-117688798D01*
X120196709Y-117869962D01*
X120339055Y-118082998D01*
X120437103Y-118319707D01*
X120487087Y-118570993D01*
X120487087Y-118827207D01*
X120437103Y-119078493D01*
X120339055Y-119315202D01*
X120196709Y-119528238D01*
X120015545Y-119709402D01*
X119802509Y-119851748D01*
X119565800Y-119949796D01*
X119314514Y-119999780D01*
X119058300Y-119999780D01*
X118807014Y-119949796D01*
X118570305Y-119851748D01*
X118357269Y-119709402D01*
X118176105Y-119528238D01*
X118033759Y-119315202D01*
X117935711Y-119078493D01*
X117885727Y-118827207D01*
X117885727Y-118570993D01*
X117935711Y-118319707D01*
X118033759Y-118082998D01*
X118176105Y-117869962D01*
X118357269Y-117688798D01*
X118570305Y-117546452D01*
X118807014Y-117448404D01*
X119058300Y-117398420D01*
X119314514Y-117398420D01*
X119565800Y-117448404D01*
X119565800Y-117448404D01*
G37*
G36*
X71846821Y-116741313D02*
X71846824Y-116741314D01*
X71846825Y-116741314D01*
X72007239Y-116789975D01*
X72007241Y-116789976D01*
X72007244Y-116789977D01*
X72155078Y-116868995D01*
X72284659Y-116975341D01*
X72391005Y-117104922D01*
X72470023Y-117252756D01*
X72470024Y-117252759D01*
X72470025Y-117252761D01*
X72499476Y-117349848D01*
X72518687Y-117413179D01*
X72535117Y-117580000D01*
X72518687Y-117746821D01*
X72518686Y-117746824D01*
X72518686Y-117746825D01*
X72481333Y-117869962D01*
X72470023Y-117907244D01*
X72391005Y-118055078D01*
X72284659Y-118184659D01*
X72155078Y-118291005D01*
X72007244Y-118370023D01*
X72007241Y-118370024D01*
X72007239Y-118370025D01*
X71846825Y-118418686D01*
X71846824Y-118418686D01*
X71846821Y-118418687D01*
X71721804Y-118431000D01*
X71638196Y-118431000D01*
X71513179Y-118418687D01*
X71513176Y-118418686D01*
X71513175Y-118418686D01*
X71352761Y-118370025D01*
X71352759Y-118370024D01*
X71352756Y-118370023D01*
X71204922Y-118291005D01*
X71075341Y-118184659D01*
X70968995Y-118055078D01*
X70889977Y-117907244D01*
X70878668Y-117869962D01*
X70841314Y-117746825D01*
X70841314Y-117746824D01*
X70841313Y-117746821D01*
X70824883Y-117580000D01*
X70841313Y-117413179D01*
X70860524Y-117349848D01*
X70889975Y-117252761D01*
X70889976Y-117252759D01*
X70889977Y-117252756D01*
X70968995Y-117104922D01*
X71075341Y-116975341D01*
X71204922Y-116868995D01*
X71352756Y-116789977D01*
X71352759Y-116789976D01*
X71352761Y-116789975D01*
X71513175Y-116741314D01*
X71513176Y-116741314D01*
X71513179Y-116741313D01*
X71638196Y-116729000D01*
X71721804Y-116729000D01*
X71846821Y-116741313D01*
X71846821Y-116741313D01*
G37*
G36*
X62766821Y-116741313D02*
X62766824Y-116741314D01*
X62766825Y-116741314D01*
X62927239Y-116789975D01*
X62927241Y-116789976D01*
X62927244Y-116789977D01*
X63075078Y-116868995D01*
X63204659Y-116975341D01*
X63311005Y-117104922D01*
X63390023Y-117252756D01*
X63390024Y-117252759D01*
X63390025Y-117252761D01*
X63419476Y-117349848D01*
X63438687Y-117413179D01*
X63455117Y-117580000D01*
X63438687Y-117746821D01*
X63438686Y-117746824D01*
X63438686Y-117746825D01*
X63401333Y-117869962D01*
X63390023Y-117907244D01*
X63311005Y-118055078D01*
X63204659Y-118184659D01*
X63075078Y-118291005D01*
X62927244Y-118370023D01*
X62927241Y-118370024D01*
X62927239Y-118370025D01*
X62766825Y-118418686D01*
X62766824Y-118418686D01*
X62766821Y-118418687D01*
X62641804Y-118431000D01*
X62558196Y-118431000D01*
X62433179Y-118418687D01*
X62433176Y-118418686D01*
X62433175Y-118418686D01*
X62272761Y-118370025D01*
X62272759Y-118370024D01*
X62272756Y-118370023D01*
X62124922Y-118291005D01*
X61995341Y-118184659D01*
X61888995Y-118055078D01*
X61809977Y-117907244D01*
X61798668Y-117869962D01*
X61761314Y-117746825D01*
X61761314Y-117746824D01*
X61761313Y-117746821D01*
X61744883Y-117580000D01*
X61761313Y-117413179D01*
X61780524Y-117349848D01*
X61809975Y-117252761D01*
X61809976Y-117252759D01*
X61809977Y-117252756D01*
X61888995Y-117104922D01*
X61995341Y-116975341D01*
X62124922Y-116868995D01*
X62272756Y-116789977D01*
X62272759Y-116789976D01*
X62272761Y-116789975D01*
X62433175Y-116741314D01*
X62433176Y-116741314D01*
X62433179Y-116741313D01*
X62558196Y-116729000D01*
X62641804Y-116729000D01*
X62766821Y-116741313D01*
X62766821Y-116741313D01*
G37*
G36*
X66766821Y-116741313D02*
X66766824Y-116741314D01*
X66766825Y-116741314D01*
X66927239Y-116789975D01*
X66927241Y-116789976D01*
X66927244Y-116789977D01*
X67075078Y-116868995D01*
X67204659Y-116975341D01*
X67311005Y-117104922D01*
X67390023Y-117252756D01*
X67390024Y-117252759D01*
X67390025Y-117252761D01*
X67419476Y-117349848D01*
X67438687Y-117413179D01*
X67455117Y-117580000D01*
X67438687Y-117746821D01*
X67438686Y-117746824D01*
X67438686Y-117746825D01*
X67401333Y-117869962D01*
X67390023Y-117907244D01*
X67311005Y-118055078D01*
X67204659Y-118184659D01*
X67075078Y-118291005D01*
X66927244Y-118370023D01*
X66927241Y-118370024D01*
X66927239Y-118370025D01*
X66766825Y-118418686D01*
X66766824Y-118418686D01*
X66766821Y-118418687D01*
X66641804Y-118431000D01*
X66558196Y-118431000D01*
X66433179Y-118418687D01*
X66433176Y-118418686D01*
X66433175Y-118418686D01*
X66272761Y-118370025D01*
X66272759Y-118370024D01*
X66272756Y-118370023D01*
X66124922Y-118291005D01*
X65995341Y-118184659D01*
X65888995Y-118055078D01*
X65809977Y-117907244D01*
X65798668Y-117869962D01*
X65761314Y-117746825D01*
X65761314Y-117746824D01*
X65761313Y-117746821D01*
X65744883Y-117580000D01*
X65761313Y-117413179D01*
X65780524Y-117349848D01*
X65809975Y-117252761D01*
X65809976Y-117252759D01*
X65809977Y-117252756D01*
X65888995Y-117104922D01*
X65995341Y-116975341D01*
X66124922Y-116868995D01*
X66272756Y-116789977D01*
X66272759Y-116789976D01*
X66272761Y-116789975D01*
X66433175Y-116741314D01*
X66433176Y-116741314D01*
X66433179Y-116741313D01*
X66558196Y-116729000D01*
X66641804Y-116729000D01*
X66766821Y-116741313D01*
X66766821Y-116741313D01*
G37*
G36*
X69306821Y-116741313D02*
X69306824Y-116741314D01*
X69306825Y-116741314D01*
X69467239Y-116789975D01*
X69467241Y-116789976D01*
X69467244Y-116789977D01*
X69615078Y-116868995D01*
X69744659Y-116975341D01*
X69851005Y-117104922D01*
X69930023Y-117252756D01*
X69930024Y-117252759D01*
X69930025Y-117252761D01*
X69959476Y-117349848D01*
X69978687Y-117413179D01*
X69995117Y-117580000D01*
X69978687Y-117746821D01*
X69978686Y-117746824D01*
X69978686Y-117746825D01*
X69941333Y-117869962D01*
X69930023Y-117907244D01*
X69851005Y-118055078D01*
X69744659Y-118184659D01*
X69615078Y-118291005D01*
X69467244Y-118370023D01*
X69467241Y-118370024D01*
X69467239Y-118370025D01*
X69306825Y-118418686D01*
X69306824Y-118418686D01*
X69306821Y-118418687D01*
X69181804Y-118431000D01*
X69098196Y-118431000D01*
X68973179Y-118418687D01*
X68973176Y-118418686D01*
X68973175Y-118418686D01*
X68812761Y-118370025D01*
X68812759Y-118370024D01*
X68812756Y-118370023D01*
X68664922Y-118291005D01*
X68535341Y-118184659D01*
X68428995Y-118055078D01*
X68349977Y-117907244D01*
X68338668Y-117869962D01*
X68301314Y-117746825D01*
X68301314Y-117746824D01*
X68301313Y-117746821D01*
X68284883Y-117580000D01*
X68301313Y-117413179D01*
X68320524Y-117349848D01*
X68349975Y-117252761D01*
X68349976Y-117252759D01*
X68349977Y-117252756D01*
X68428995Y-117104922D01*
X68535341Y-116975341D01*
X68664922Y-116868995D01*
X68812756Y-116789977D01*
X68812759Y-116789976D01*
X68812761Y-116789975D01*
X68973175Y-116741314D01*
X68973176Y-116741314D01*
X68973179Y-116741313D01*
X69098196Y-116729000D01*
X69181804Y-116729000D01*
X69306821Y-116741313D01*
X69306821Y-116741313D01*
G37*
G36*
X74386821Y-116741313D02*
X74386824Y-116741314D01*
X74386825Y-116741314D01*
X74547239Y-116789975D01*
X74547241Y-116789976D01*
X74547244Y-116789977D01*
X74695078Y-116868995D01*
X74824659Y-116975341D01*
X74931005Y-117104922D01*
X75010023Y-117252756D01*
X75010024Y-117252759D01*
X75010025Y-117252761D01*
X75039476Y-117349848D01*
X75058687Y-117413179D01*
X75075117Y-117580000D01*
X75058687Y-117746821D01*
X75058686Y-117746824D01*
X75058686Y-117746825D01*
X75021333Y-117869962D01*
X75010023Y-117907244D01*
X74931005Y-118055078D01*
X74824659Y-118184659D01*
X74695078Y-118291005D01*
X74547244Y-118370023D01*
X74547241Y-118370024D01*
X74547239Y-118370025D01*
X74386825Y-118418686D01*
X74386824Y-118418686D01*
X74386821Y-118418687D01*
X74261804Y-118431000D01*
X74178196Y-118431000D01*
X74053179Y-118418687D01*
X74053176Y-118418686D01*
X74053175Y-118418686D01*
X73892761Y-118370025D01*
X73892759Y-118370024D01*
X73892756Y-118370023D01*
X73744922Y-118291005D01*
X73615341Y-118184659D01*
X73508995Y-118055078D01*
X73429977Y-117907244D01*
X73418668Y-117869962D01*
X73381314Y-117746825D01*
X73381314Y-117746824D01*
X73381313Y-117746821D01*
X73364883Y-117580000D01*
X73381313Y-117413179D01*
X73400524Y-117349848D01*
X73429975Y-117252761D01*
X73429976Y-117252759D01*
X73429977Y-117252756D01*
X73508995Y-117104922D01*
X73615341Y-116975341D01*
X73744922Y-116868995D01*
X73892756Y-116789977D01*
X73892759Y-116789976D01*
X73892761Y-116789975D01*
X74053175Y-116741314D01*
X74053176Y-116741314D01*
X74053179Y-116741313D01*
X74178196Y-116729000D01*
X74261804Y-116729000D01*
X74386821Y-116741313D01*
X74386821Y-116741313D01*
G37*
G36*
X82006821Y-116741313D02*
X82006824Y-116741314D01*
X82006825Y-116741314D01*
X82167239Y-116789975D01*
X82167241Y-116789976D01*
X82167244Y-116789977D01*
X82315078Y-116868995D01*
X82444659Y-116975341D01*
X82551005Y-117104922D01*
X82630023Y-117252756D01*
X82630024Y-117252759D01*
X82630025Y-117252761D01*
X82659476Y-117349848D01*
X82678687Y-117413179D01*
X82695117Y-117580000D01*
X82678687Y-117746821D01*
X82678686Y-117746824D01*
X82678686Y-117746825D01*
X82641333Y-117869962D01*
X82630023Y-117907244D01*
X82551005Y-118055078D01*
X82444659Y-118184659D01*
X82315078Y-118291005D01*
X82167244Y-118370023D01*
X82167241Y-118370024D01*
X82167239Y-118370025D01*
X82006825Y-118418686D01*
X82006824Y-118418686D01*
X82006821Y-118418687D01*
X81881804Y-118431000D01*
X81798196Y-118431000D01*
X81673179Y-118418687D01*
X81673176Y-118418686D01*
X81673175Y-118418686D01*
X81512761Y-118370025D01*
X81512759Y-118370024D01*
X81512756Y-118370023D01*
X81364922Y-118291005D01*
X81235341Y-118184659D01*
X81128995Y-118055078D01*
X81049977Y-117907244D01*
X81038668Y-117869962D01*
X81001314Y-117746825D01*
X81001314Y-117746824D01*
X81001313Y-117746821D01*
X80984883Y-117580000D01*
X81001313Y-117413179D01*
X81020524Y-117349848D01*
X81049975Y-117252761D01*
X81049976Y-117252759D01*
X81049977Y-117252756D01*
X81128995Y-117104922D01*
X81235341Y-116975341D01*
X81364922Y-116868995D01*
X81512756Y-116789977D01*
X81512759Y-116789976D01*
X81512761Y-116789975D01*
X81673175Y-116741314D01*
X81673176Y-116741314D01*
X81673179Y-116741313D01*
X81798196Y-116729000D01*
X81881804Y-116729000D01*
X82006821Y-116741313D01*
X82006821Y-116741313D01*
G37*
G36*
X84546821Y-116741313D02*
X84546824Y-116741314D01*
X84546825Y-116741314D01*
X84707239Y-116789975D01*
X84707241Y-116789976D01*
X84707244Y-116789977D01*
X84855078Y-116868995D01*
X84984659Y-116975341D01*
X85091005Y-117104922D01*
X85170023Y-117252756D01*
X85170024Y-117252759D01*
X85170025Y-117252761D01*
X85199476Y-117349848D01*
X85218687Y-117413179D01*
X85235117Y-117580000D01*
X85218687Y-117746821D01*
X85218686Y-117746824D01*
X85218686Y-117746825D01*
X85181333Y-117869962D01*
X85170023Y-117907244D01*
X85091005Y-118055078D01*
X84984659Y-118184659D01*
X84855078Y-118291005D01*
X84707244Y-118370023D01*
X84707241Y-118370024D01*
X84707239Y-118370025D01*
X84546825Y-118418686D01*
X84546824Y-118418686D01*
X84546821Y-118418687D01*
X84421804Y-118431000D01*
X84338196Y-118431000D01*
X84213179Y-118418687D01*
X84213176Y-118418686D01*
X84213175Y-118418686D01*
X84052761Y-118370025D01*
X84052759Y-118370024D01*
X84052756Y-118370023D01*
X83904922Y-118291005D01*
X83775341Y-118184659D01*
X83668995Y-118055078D01*
X83589977Y-117907244D01*
X83578668Y-117869962D01*
X83541314Y-117746825D01*
X83541314Y-117746824D01*
X83541313Y-117746821D01*
X83524883Y-117580000D01*
X83541313Y-117413179D01*
X83560524Y-117349848D01*
X83589975Y-117252761D01*
X83589976Y-117252759D01*
X83589977Y-117252756D01*
X83668995Y-117104922D01*
X83775341Y-116975341D01*
X83904922Y-116868995D01*
X84052756Y-116789977D01*
X84052759Y-116789976D01*
X84052761Y-116789975D01*
X84213175Y-116741314D01*
X84213176Y-116741314D01*
X84213179Y-116741313D01*
X84338196Y-116729000D01*
X84421804Y-116729000D01*
X84546821Y-116741313D01*
X84546821Y-116741313D01*
G37*
G36*
X87086821Y-116741313D02*
X87086824Y-116741314D01*
X87086825Y-116741314D01*
X87247239Y-116789975D01*
X87247241Y-116789976D01*
X87247244Y-116789977D01*
X87395078Y-116868995D01*
X87524659Y-116975341D01*
X87631005Y-117104922D01*
X87710023Y-117252756D01*
X87710024Y-117252759D01*
X87710025Y-117252761D01*
X87739476Y-117349848D01*
X87758687Y-117413179D01*
X87775117Y-117580000D01*
X87758687Y-117746821D01*
X87758686Y-117746824D01*
X87758686Y-117746825D01*
X87721333Y-117869962D01*
X87710023Y-117907244D01*
X87631005Y-118055078D01*
X87524659Y-118184659D01*
X87395078Y-118291005D01*
X87247244Y-118370023D01*
X87247241Y-118370024D01*
X87247239Y-118370025D01*
X87086825Y-118418686D01*
X87086824Y-118418686D01*
X87086821Y-118418687D01*
X86961804Y-118431000D01*
X86878196Y-118431000D01*
X86753179Y-118418687D01*
X86753176Y-118418686D01*
X86753175Y-118418686D01*
X86592761Y-118370025D01*
X86592759Y-118370024D01*
X86592756Y-118370023D01*
X86444922Y-118291005D01*
X86315341Y-118184659D01*
X86208995Y-118055078D01*
X86129977Y-117907244D01*
X86118668Y-117869962D01*
X86081314Y-117746825D01*
X86081314Y-117746824D01*
X86081313Y-117746821D01*
X86064883Y-117580000D01*
X86081313Y-117413179D01*
X86100524Y-117349848D01*
X86129975Y-117252761D01*
X86129976Y-117252759D01*
X86129977Y-117252756D01*
X86208995Y-117104922D01*
X86315341Y-116975341D01*
X86444922Y-116868995D01*
X86592756Y-116789977D01*
X86592759Y-116789976D01*
X86592761Y-116789975D01*
X86753175Y-116741314D01*
X86753176Y-116741314D01*
X86753179Y-116741313D01*
X86878196Y-116729000D01*
X86961804Y-116729000D01*
X87086821Y-116741313D01*
X87086821Y-116741313D01*
G37*
G36*
X76926821Y-116741313D02*
X76926824Y-116741314D01*
X76926825Y-116741314D01*
X77087239Y-116789975D01*
X77087241Y-116789976D01*
X77087244Y-116789977D01*
X77235078Y-116868995D01*
X77364659Y-116975341D01*
X77471005Y-117104922D01*
X77550023Y-117252756D01*
X77550024Y-117252759D01*
X77550025Y-117252761D01*
X77579476Y-117349848D01*
X77598687Y-117413179D01*
X77615117Y-117580000D01*
X77598687Y-117746821D01*
X77598686Y-117746824D01*
X77598686Y-117746825D01*
X77561333Y-117869962D01*
X77550023Y-117907244D01*
X77471005Y-118055078D01*
X77364659Y-118184659D01*
X77235078Y-118291005D01*
X77087244Y-118370023D01*
X77087241Y-118370024D01*
X77087239Y-118370025D01*
X76926825Y-118418686D01*
X76926824Y-118418686D01*
X76926821Y-118418687D01*
X76801804Y-118431000D01*
X76718196Y-118431000D01*
X76593179Y-118418687D01*
X76593176Y-118418686D01*
X76593175Y-118418686D01*
X76432761Y-118370025D01*
X76432759Y-118370024D01*
X76432756Y-118370023D01*
X76284922Y-118291005D01*
X76155341Y-118184659D01*
X76048995Y-118055078D01*
X75969977Y-117907244D01*
X75958668Y-117869962D01*
X75921314Y-117746825D01*
X75921314Y-117746824D01*
X75921313Y-117746821D01*
X75904883Y-117580000D01*
X75921313Y-117413179D01*
X75940524Y-117349848D01*
X75969975Y-117252761D01*
X75969976Y-117252759D01*
X75969977Y-117252756D01*
X76048995Y-117104922D01*
X76155341Y-116975341D01*
X76284922Y-116868995D01*
X76432756Y-116789977D01*
X76432759Y-116789976D01*
X76432761Y-116789975D01*
X76593175Y-116741314D01*
X76593176Y-116741314D01*
X76593179Y-116741313D01*
X76718196Y-116729000D01*
X76801804Y-116729000D01*
X76926821Y-116741313D01*
X76926821Y-116741313D01*
G37*
G36*
X89626821Y-116741313D02*
X89626824Y-116741314D01*
X89626825Y-116741314D01*
X89787239Y-116789975D01*
X89787241Y-116789976D01*
X89787244Y-116789977D01*
X89935078Y-116868995D01*
X90064659Y-116975341D01*
X90171005Y-117104922D01*
X90250023Y-117252756D01*
X90250024Y-117252759D01*
X90250025Y-117252761D01*
X90279476Y-117349848D01*
X90298687Y-117413179D01*
X90315117Y-117580000D01*
X90298687Y-117746821D01*
X90298686Y-117746824D01*
X90298686Y-117746825D01*
X90261333Y-117869962D01*
X90250023Y-117907244D01*
X90171005Y-118055078D01*
X90064659Y-118184659D01*
X89935078Y-118291005D01*
X89787244Y-118370023D01*
X89787241Y-118370024D01*
X89787239Y-118370025D01*
X89626825Y-118418686D01*
X89626824Y-118418686D01*
X89626821Y-118418687D01*
X89501804Y-118431000D01*
X89418196Y-118431000D01*
X89293179Y-118418687D01*
X89293176Y-118418686D01*
X89293175Y-118418686D01*
X89132761Y-118370025D01*
X89132759Y-118370024D01*
X89132756Y-118370023D01*
X88984922Y-118291005D01*
X88855341Y-118184659D01*
X88748995Y-118055078D01*
X88669977Y-117907244D01*
X88658668Y-117869962D01*
X88621314Y-117746825D01*
X88621314Y-117746824D01*
X88621313Y-117746821D01*
X88604883Y-117580000D01*
X88621313Y-117413179D01*
X88640524Y-117349848D01*
X88669975Y-117252761D01*
X88669976Y-117252759D01*
X88669977Y-117252756D01*
X88748995Y-117104922D01*
X88855341Y-116975341D01*
X88984922Y-116868995D01*
X89132756Y-116789977D01*
X89132759Y-116789976D01*
X89132761Y-116789975D01*
X89293175Y-116741314D01*
X89293176Y-116741314D01*
X89293179Y-116741313D01*
X89418196Y-116729000D01*
X89501804Y-116729000D01*
X89626821Y-116741313D01*
X89626821Y-116741313D01*
G37*
G36*
X79466821Y-116741313D02*
X79466824Y-116741314D01*
X79466825Y-116741314D01*
X79627239Y-116789975D01*
X79627241Y-116789976D01*
X79627244Y-116789977D01*
X79775078Y-116868995D01*
X79904659Y-116975341D01*
X80011005Y-117104922D01*
X80090023Y-117252756D01*
X80090024Y-117252759D01*
X80090025Y-117252761D01*
X80119476Y-117349848D01*
X80138687Y-117413179D01*
X80155117Y-117580000D01*
X80138687Y-117746821D01*
X80138686Y-117746824D01*
X80138686Y-117746825D01*
X80101333Y-117869962D01*
X80090023Y-117907244D01*
X80011005Y-118055078D01*
X79904659Y-118184659D01*
X79775078Y-118291005D01*
X79627244Y-118370023D01*
X79627241Y-118370024D01*
X79627239Y-118370025D01*
X79466825Y-118418686D01*
X79466824Y-118418686D01*
X79466821Y-118418687D01*
X79341804Y-118431000D01*
X79258196Y-118431000D01*
X79133179Y-118418687D01*
X79133176Y-118418686D01*
X79133175Y-118418686D01*
X78972761Y-118370025D01*
X78972759Y-118370024D01*
X78972756Y-118370023D01*
X78824922Y-118291005D01*
X78695341Y-118184659D01*
X78588995Y-118055078D01*
X78509977Y-117907244D01*
X78498668Y-117869962D01*
X78461314Y-117746825D01*
X78461314Y-117746824D01*
X78461313Y-117746821D01*
X78444883Y-117580000D01*
X78461313Y-117413179D01*
X78480524Y-117349848D01*
X78509975Y-117252761D01*
X78509976Y-117252759D01*
X78509977Y-117252756D01*
X78588995Y-117104922D01*
X78695341Y-116975341D01*
X78824922Y-116868995D01*
X78972756Y-116789977D01*
X78972759Y-116789976D01*
X78972761Y-116789975D01*
X79133175Y-116741314D01*
X79133176Y-116741314D01*
X79133179Y-116741313D01*
X79258196Y-116729000D01*
X79341804Y-116729000D01*
X79466821Y-116741313D01*
X79466821Y-116741313D01*
G37*
G36*
X104379393Y-114949044D02*
X104616102Y-115047092D01*
X104829138Y-115189438D01*
X105010302Y-115370602D01*
X105152648Y-115583638D01*
X105250696Y-115820347D01*
X105300680Y-116071633D01*
X105300680Y-116327847D01*
X105250696Y-116579133D01*
X105152648Y-116815842D01*
X105010302Y-117028878D01*
X104829138Y-117210042D01*
X104616102Y-117352388D01*
X104379393Y-117450436D01*
X104128107Y-117500420D01*
X103871893Y-117500420D01*
X103620607Y-117450436D01*
X103383898Y-117352388D01*
X103170862Y-117210042D01*
X102989698Y-117028878D01*
X102847352Y-116815842D01*
X102749304Y-116579133D01*
X102699320Y-116327847D01*
X102699320Y-116071633D01*
X102749304Y-115820347D01*
X102847352Y-115583638D01*
X102989698Y-115370602D01*
X103170862Y-115189438D01*
X103383898Y-115047092D01*
X103620607Y-114949044D01*
X103871893Y-114899060D01*
X104128107Y-114899060D01*
X104379393Y-114949044D01*
X104379393Y-114949044D01*
G37*
G36*
X124561980Y-114949044D02*
X124798689Y-115047092D01*
X125011725Y-115189438D01*
X125192889Y-115370602D01*
X125335235Y-115583638D01*
X125433283Y-115820347D01*
X125483267Y-116071633D01*
X125483267Y-116327847D01*
X125433283Y-116579133D01*
X125335235Y-116815842D01*
X125192889Y-117028878D01*
X125011725Y-117210042D01*
X124798689Y-117352388D01*
X124561980Y-117450436D01*
X124310694Y-117500420D01*
X124054480Y-117500420D01*
X123803194Y-117450436D01*
X123566485Y-117352388D01*
X123353449Y-117210042D01*
X123172285Y-117028878D01*
X123029939Y-116815842D01*
X122931891Y-116579133D01*
X122881907Y-116327847D01*
X122881907Y-116071633D01*
X122931891Y-115820347D01*
X123029939Y-115583638D01*
X123172285Y-115370602D01*
X123353449Y-115189438D01*
X123566485Y-115047092D01*
X123803194Y-114949044D01*
X124054480Y-114899060D01*
X124310694Y-114899060D01*
X124561980Y-114949044D01*
X124561980Y-114949044D01*
G37*
G36*
X132060060Y-114946504D02*
X132296769Y-115044552D01*
X132509805Y-115186898D01*
X132690969Y-115368062D01*
X132833315Y-115581098D01*
X132931363Y-115817807D01*
X132981347Y-116069093D01*
X132981347Y-116325307D01*
X132931363Y-116576593D01*
X132833315Y-116813302D01*
X132690969Y-117026338D01*
X132509805Y-117207502D01*
X132296769Y-117349848D01*
X132060060Y-117447896D01*
X131808774Y-117497880D01*
X131552560Y-117497880D01*
X131301274Y-117447896D01*
X131064565Y-117349848D01*
X130851529Y-117207502D01*
X130670365Y-117026338D01*
X130528019Y-116813302D01*
X130429971Y-116576593D01*
X130379987Y-116325307D01*
X130379987Y-116069093D01*
X130429971Y-115817807D01*
X130528019Y-115581098D01*
X130670365Y-115368062D01*
X130851529Y-115186898D01*
X131064565Y-115044552D01*
X131301274Y-114946504D01*
X131552560Y-114896520D01*
X131808774Y-114896520D01*
X132060060Y-114946504D01*
X132060060Y-114946504D01*
G37*
G36*
X117063900Y-114946504D02*
X117300609Y-115044552D01*
X117513645Y-115186898D01*
X117694809Y-115368062D01*
X117837155Y-115581098D01*
X117935203Y-115817807D01*
X117985187Y-116069093D01*
X117985187Y-116325307D01*
X117935203Y-116576593D01*
X117837155Y-116813302D01*
X117694809Y-117026338D01*
X117513645Y-117207502D01*
X117300609Y-117349848D01*
X117063900Y-117447896D01*
X116812614Y-117497880D01*
X116556400Y-117497880D01*
X116305114Y-117447896D01*
X116068405Y-117349848D01*
X115855369Y-117207502D01*
X115674205Y-117026338D01*
X115531859Y-116813302D01*
X115433811Y-116576593D01*
X115383827Y-116325307D01*
X115383827Y-116069093D01*
X115433811Y-115817807D01*
X115531859Y-115581098D01*
X115674205Y-115368062D01*
X115855369Y-115186898D01*
X116068405Y-115044552D01*
X116305114Y-114946504D01*
X116556400Y-114896520D01*
X116812614Y-114896520D01*
X117063900Y-114946504D01*
X117063900Y-114946504D01*
G37*
G36*
X111877473Y-114946504D02*
X112114182Y-115044552D01*
X112327218Y-115186898D01*
X112508382Y-115368062D01*
X112650728Y-115581098D01*
X112748776Y-115817807D01*
X112798760Y-116069093D01*
X112798760Y-116325307D01*
X112748776Y-116576593D01*
X112650728Y-116813302D01*
X112508382Y-117026338D01*
X112327218Y-117207502D01*
X112114182Y-117349848D01*
X111877473Y-117447896D01*
X111626187Y-117497880D01*
X111369973Y-117497880D01*
X111118687Y-117447896D01*
X110881978Y-117349848D01*
X110668942Y-117207502D01*
X110487778Y-117026338D01*
X110345432Y-116813302D01*
X110247384Y-116576593D01*
X110197400Y-116325307D01*
X110197400Y-116069093D01*
X110247384Y-115817807D01*
X110345432Y-115581098D01*
X110487778Y-115368062D01*
X110668942Y-115186898D01*
X110881978Y-115044552D01*
X111118687Y-114946504D01*
X111369973Y-114896520D01*
X111626187Y-114896520D01*
X111877473Y-114946504D01*
X111877473Y-114946504D01*
G37*
G36*
X96881313Y-114946504D02*
X97118022Y-115044552D01*
X97331058Y-115186898D01*
X97512222Y-115368062D01*
X97654568Y-115581098D01*
X97752616Y-115817807D01*
X97802600Y-116069093D01*
X97802600Y-116325307D01*
X97752616Y-116576593D01*
X97654568Y-116813302D01*
X97512222Y-117026338D01*
X97331058Y-117207502D01*
X97118022Y-117349848D01*
X96881313Y-117447896D01*
X96630027Y-117497880D01*
X96373813Y-117497880D01*
X96122527Y-117447896D01*
X95885818Y-117349848D01*
X95672782Y-117207502D01*
X95491618Y-117026338D01*
X95349272Y-116813302D01*
X95251224Y-116576593D01*
X95201240Y-116325307D01*
X95201240Y-116069093D01*
X95251224Y-115817807D01*
X95349272Y-115581098D01*
X95491618Y-115368062D01*
X95672782Y-115186898D01*
X95885818Y-115044552D01*
X96122527Y-114946504D01*
X96373813Y-114896520D01*
X96630027Y-114896520D01*
X96881313Y-114946504D01*
X96881313Y-114946504D01*
G37*
G36*
X64248228Y-111981703D02*
X64403100Y-112045853D01*
X64542481Y-112138985D01*
X64661015Y-112257519D01*
X64754147Y-112396900D01*
X64818297Y-112551772D01*
X64851000Y-112716184D01*
X64851000Y-112883816D01*
X64818297Y-113048228D01*
X64754147Y-113203100D01*
X64661015Y-113342481D01*
X64542481Y-113461015D01*
X64403100Y-113554147D01*
X64248228Y-113618297D01*
X64083816Y-113651000D01*
X63916184Y-113651000D01*
X63751772Y-113618297D01*
X63596900Y-113554147D01*
X63457519Y-113461015D01*
X63338985Y-113342481D01*
X63245853Y-113203100D01*
X63181703Y-113048228D01*
X63149000Y-112883816D01*
X63149000Y-112716184D01*
X63181703Y-112551772D01*
X63245853Y-112396900D01*
X63338985Y-112257519D01*
X63457519Y-112138985D01*
X63596900Y-112045853D01*
X63751772Y-111981703D01*
X63916184Y-111949000D01*
X64083816Y-111949000D01*
X64248228Y-111981703D01*
X64248228Y-111981703D01*
G37*
G36*
X78948228Y-111981703D02*
X79103100Y-112045853D01*
X79242481Y-112138985D01*
X79361015Y-112257519D01*
X79454147Y-112396900D01*
X79518297Y-112551772D01*
X79551000Y-112716184D01*
X79551000Y-112883816D01*
X79518297Y-113048228D01*
X79454147Y-113203100D01*
X79361015Y-113342481D01*
X79242481Y-113461015D01*
X79103100Y-113554147D01*
X78948228Y-113618297D01*
X78783816Y-113651000D01*
X78616184Y-113651000D01*
X78451772Y-113618297D01*
X78296900Y-113554147D01*
X78157519Y-113461015D01*
X78038985Y-113342481D01*
X77945853Y-113203100D01*
X77881703Y-113048228D01*
X77849000Y-112883816D01*
X77849000Y-112716184D01*
X77881703Y-112551772D01*
X77945853Y-112396900D01*
X78038985Y-112257519D01*
X78157519Y-112138985D01*
X78296900Y-112045853D01*
X78451772Y-111981703D01*
X78616184Y-111949000D01*
X78783816Y-111949000D01*
X78948228Y-111981703D01*
X78948228Y-111981703D01*
G37*
G36*
X83846821Y-111961313D02*
X83846824Y-111961314D01*
X83846825Y-111961314D01*
X84007239Y-112009975D01*
X84007241Y-112009976D01*
X84007244Y-112009977D01*
X84155078Y-112088995D01*
X84284659Y-112195341D01*
X84391005Y-112324922D01*
X84470023Y-112472756D01*
X84470024Y-112472759D01*
X84470025Y-112472761D01*
X84513532Y-112616184D01*
X84518687Y-112633179D01*
X84535117Y-112800000D01*
X84518687Y-112966821D01*
X84518686Y-112966824D01*
X84518686Y-112966825D01*
X84493993Y-113048228D01*
X84470023Y-113127244D01*
X84391005Y-113275078D01*
X84284659Y-113404659D01*
X84155078Y-113511005D01*
X84007244Y-113590023D01*
X84007241Y-113590024D01*
X84007239Y-113590025D01*
X83846825Y-113638686D01*
X83846824Y-113638686D01*
X83846821Y-113638687D01*
X83721804Y-113651000D01*
X83638196Y-113651000D01*
X83513179Y-113638687D01*
X83513176Y-113638686D01*
X83513175Y-113638686D01*
X83352761Y-113590025D01*
X83352759Y-113590024D01*
X83352756Y-113590023D01*
X83204922Y-113511005D01*
X83075341Y-113404659D01*
X82968995Y-113275078D01*
X82889977Y-113127244D01*
X82866008Y-113048228D01*
X82841314Y-112966825D01*
X82841314Y-112966824D01*
X82841313Y-112966821D01*
X82824883Y-112800000D01*
X82841313Y-112633179D01*
X82846468Y-112616184D01*
X82889975Y-112472761D01*
X82889976Y-112472759D01*
X82889977Y-112472756D01*
X82968995Y-112324922D01*
X83075341Y-112195341D01*
X83204922Y-112088995D01*
X83352756Y-112009977D01*
X83352759Y-112009976D01*
X83352761Y-112009975D01*
X83513175Y-111961314D01*
X83513176Y-111961314D01*
X83513179Y-111961313D01*
X83638196Y-111949000D01*
X83721804Y-111949000D01*
X83846821Y-111961313D01*
X83846821Y-111961313D01*
G37*
G36*
X69248228Y-111981703D02*
X69403100Y-112045853D01*
X69542481Y-112138985D01*
X69661015Y-112257519D01*
X69754147Y-112396900D01*
X69818297Y-112551772D01*
X69851000Y-112716184D01*
X69851000Y-112883816D01*
X69818297Y-113048228D01*
X69754147Y-113203100D01*
X69661015Y-113342481D01*
X69542481Y-113461015D01*
X69403100Y-113554147D01*
X69248228Y-113618297D01*
X69083816Y-113651000D01*
X68916184Y-113651000D01*
X68751772Y-113618297D01*
X68596900Y-113554147D01*
X68457519Y-113461015D01*
X68338985Y-113342481D01*
X68245853Y-113203100D01*
X68181703Y-113048228D01*
X68149000Y-112883816D01*
X68149000Y-112716184D01*
X68181703Y-112551772D01*
X68245853Y-112396900D01*
X68338985Y-112257519D01*
X68457519Y-112138985D01*
X68596900Y-112045853D01*
X68751772Y-111981703D01*
X68916184Y-111949000D01*
X69083816Y-111949000D01*
X69248228Y-111981703D01*
X69248228Y-111981703D01*
G37*
G36*
X91548228Y-111981703D02*
X91703100Y-112045853D01*
X91842481Y-112138985D01*
X91961015Y-112257519D01*
X92054147Y-112396900D01*
X92118297Y-112551772D01*
X92151000Y-112716184D01*
X92151000Y-112883816D01*
X92118297Y-113048228D01*
X92054147Y-113203100D01*
X91961015Y-113342481D01*
X91842481Y-113461015D01*
X91703100Y-113554147D01*
X91548228Y-113618297D01*
X91383816Y-113651000D01*
X91216184Y-113651000D01*
X91051772Y-113618297D01*
X90896900Y-113554147D01*
X90757519Y-113461015D01*
X90638985Y-113342481D01*
X90545853Y-113203100D01*
X90481703Y-113048228D01*
X90449000Y-112883816D01*
X90449000Y-112716184D01*
X90481703Y-112551772D01*
X90545853Y-112396900D01*
X90638985Y-112257519D01*
X90757519Y-112138985D01*
X90896900Y-112045853D01*
X91051772Y-111981703D01*
X91216184Y-111949000D01*
X91383816Y-111949000D01*
X91548228Y-111981703D01*
X91548228Y-111981703D01*
G37*
G36*
X73948228Y-111981703D02*
X74103100Y-112045853D01*
X74242481Y-112138985D01*
X74361015Y-112257519D01*
X74454147Y-112396900D01*
X74518297Y-112551772D01*
X74551000Y-112716184D01*
X74551000Y-112883816D01*
X74518297Y-113048228D01*
X74454147Y-113203100D01*
X74361015Y-113342481D01*
X74242481Y-113461015D01*
X74103100Y-113554147D01*
X73948228Y-113618297D01*
X73783816Y-113651000D01*
X73616184Y-113651000D01*
X73451772Y-113618297D01*
X73296900Y-113554147D01*
X73157519Y-113461015D01*
X73038985Y-113342481D01*
X72945853Y-113203100D01*
X72881703Y-113048228D01*
X72849000Y-112883816D01*
X72849000Y-112716184D01*
X72881703Y-112551772D01*
X72945853Y-112396900D01*
X73038985Y-112257519D01*
X73157519Y-112138985D01*
X73296900Y-112045853D01*
X73451772Y-111981703D01*
X73616184Y-111949000D01*
X73783816Y-111949000D01*
X73948228Y-111981703D01*
X73948228Y-111981703D01*
G37*
G36*
X42748228Y-111881703D02*
X42903100Y-111945853D01*
X43042481Y-112038985D01*
X43161015Y-112157519D01*
X43254147Y-112296900D01*
X43318297Y-112451772D01*
X43351000Y-112616184D01*
X43351000Y-112783816D01*
X43318297Y-112948228D01*
X43254147Y-113103100D01*
X43161015Y-113242481D01*
X43042481Y-113361015D01*
X42903100Y-113454147D01*
X42748228Y-113518297D01*
X42583816Y-113551000D01*
X42416184Y-113551000D01*
X42251772Y-113518297D01*
X42096900Y-113454147D01*
X41957519Y-113361015D01*
X41838985Y-113242481D01*
X41745853Y-113103100D01*
X41681703Y-112948228D01*
X41649000Y-112783816D01*
X41649000Y-112616184D01*
X41681703Y-112451772D01*
X41745853Y-112296900D01*
X41838985Y-112157519D01*
X41957519Y-112038985D01*
X42096900Y-111945853D01*
X42251772Y-111881703D01*
X42416184Y-111849000D01*
X42583816Y-111849000D01*
X42748228Y-111881703D01*
X42748228Y-111881703D01*
G37*
G36*
X47748228Y-111881703D02*
X47903100Y-111945853D01*
X48042481Y-112038985D01*
X48161015Y-112157519D01*
X48254147Y-112296900D01*
X48318297Y-112451772D01*
X48351000Y-112616184D01*
X48351000Y-112783816D01*
X48318297Y-112948228D01*
X48254147Y-113103100D01*
X48161015Y-113242481D01*
X48042481Y-113361015D01*
X47903100Y-113454147D01*
X47748228Y-113518297D01*
X47583816Y-113551000D01*
X47416184Y-113551000D01*
X47251772Y-113518297D01*
X47096900Y-113454147D01*
X46957519Y-113361015D01*
X46838985Y-113242481D01*
X46745853Y-113103100D01*
X46681703Y-112948228D01*
X46649000Y-112783816D01*
X46649000Y-112616184D01*
X46681703Y-112451772D01*
X46745853Y-112296900D01*
X46838985Y-112157519D01*
X46957519Y-112038985D01*
X47096900Y-111945853D01*
X47251772Y-111881703D01*
X47416184Y-111849000D01*
X47583816Y-111849000D01*
X47748228Y-111881703D01*
X47748228Y-111881703D01*
G37*
G36*
X55016669Y-107047686D02*
X55193058Y-107065059D01*
X55419385Y-107133714D01*
X55532549Y-107168042D01*
X55845425Y-107335279D01*
X56119661Y-107560339D01*
X56344721Y-107834575D01*
X56511958Y-108147451D01*
X56531236Y-108211004D01*
X56614941Y-108486942D01*
X56649714Y-108840000D01*
X56614941Y-109193058D01*
X56546286Y-109419385D01*
X56511958Y-109532549D01*
X56344721Y-109845425D01*
X56119661Y-110119661D01*
X55845425Y-110344721D01*
X55532549Y-110511958D01*
X55419385Y-110546286D01*
X55193058Y-110614941D01*
X55016669Y-110632314D01*
X54928476Y-110641000D01*
X54751524Y-110641000D01*
X54663331Y-110632314D01*
X54486942Y-110614941D01*
X54260615Y-110546286D01*
X54147451Y-110511958D01*
X53834575Y-110344721D01*
X53560339Y-110119661D01*
X53335279Y-109845425D01*
X53168042Y-109532549D01*
X53133714Y-109419385D01*
X53065059Y-109193058D01*
X53030286Y-108840000D01*
X53065059Y-108486942D01*
X53148764Y-108211004D01*
X53168042Y-108147451D01*
X53335279Y-107834575D01*
X53560339Y-107560339D01*
X53834575Y-107335279D01*
X54147451Y-107168042D01*
X54260615Y-107133714D01*
X54486942Y-107065059D01*
X54663331Y-107047686D01*
X54751524Y-107039000D01*
X54928476Y-107039000D01*
X55016669Y-107047686D01*
X55016669Y-107047686D01*
G37*
G36*
X91548228Y-106681703D02*
X91703100Y-106745853D01*
X91842481Y-106838985D01*
X91961015Y-106957519D01*
X92054147Y-107096900D01*
X92118297Y-107251772D01*
X92151000Y-107416184D01*
X92151000Y-107583816D01*
X92118297Y-107748228D01*
X92054147Y-107903100D01*
X91961015Y-108042481D01*
X91842481Y-108161015D01*
X91703100Y-108254147D01*
X91548228Y-108318297D01*
X91383816Y-108351000D01*
X91216184Y-108351000D01*
X91051772Y-108318297D01*
X90896900Y-108254147D01*
X90757519Y-108161015D01*
X90638985Y-108042481D01*
X90545853Y-107903100D01*
X90481703Y-107748228D01*
X90449000Y-107583816D01*
X90449000Y-107416184D01*
X90481703Y-107251772D01*
X90545853Y-107096900D01*
X90638985Y-106957519D01*
X90757519Y-106838985D01*
X90896900Y-106745853D01*
X91051772Y-106681703D01*
X91216184Y-106649000D01*
X91383816Y-106649000D01*
X91548228Y-106681703D01*
X91548228Y-106681703D01*
G37*
G36*
X83846821Y-106661313D02*
X83846824Y-106661314D01*
X83846825Y-106661314D01*
X84007239Y-106709975D01*
X84007241Y-106709976D01*
X84007244Y-106709977D01*
X84155078Y-106788995D01*
X84284659Y-106895341D01*
X84391005Y-107024922D01*
X84470023Y-107172756D01*
X84470024Y-107172759D01*
X84470025Y-107172761D01*
X84513532Y-107316184D01*
X84518687Y-107333179D01*
X84535117Y-107500000D01*
X84518687Y-107666821D01*
X84518686Y-107666824D01*
X84518686Y-107666825D01*
X84493993Y-107748228D01*
X84470023Y-107827244D01*
X84391005Y-107975078D01*
X84284659Y-108104659D01*
X84155078Y-108211005D01*
X84007244Y-108290023D01*
X84007241Y-108290024D01*
X84007239Y-108290025D01*
X83846825Y-108338686D01*
X83846824Y-108338686D01*
X83846821Y-108338687D01*
X83721804Y-108351000D01*
X83638196Y-108351000D01*
X83513179Y-108338687D01*
X83513176Y-108338686D01*
X83513175Y-108338686D01*
X83352761Y-108290025D01*
X83352759Y-108290024D01*
X83352756Y-108290023D01*
X83204922Y-108211005D01*
X83075341Y-108104659D01*
X82968995Y-107975078D01*
X82889977Y-107827244D01*
X82866008Y-107748228D01*
X82841314Y-107666825D01*
X82841314Y-107666824D01*
X82841313Y-107666821D01*
X82824883Y-107500000D01*
X82841313Y-107333179D01*
X82846468Y-107316184D01*
X82889975Y-107172761D01*
X82889976Y-107172759D01*
X82889977Y-107172756D01*
X82968995Y-107024922D01*
X83075341Y-106895341D01*
X83204922Y-106788995D01*
X83352756Y-106709977D01*
X83352759Y-106709976D01*
X83352761Y-106709975D01*
X83513175Y-106661314D01*
X83513176Y-106661314D01*
X83513179Y-106661313D01*
X83638196Y-106649000D01*
X83721804Y-106649000D01*
X83846821Y-106661313D01*
X83846821Y-106661313D01*
G37*
G36*
X72573487Y-106661313D02*
X72573490Y-106661314D01*
X72573491Y-106661314D01*
X72733905Y-106709975D01*
X72733907Y-106709976D01*
X72733910Y-106709977D01*
X72881744Y-106788995D01*
X73011325Y-106895341D01*
X73117671Y-107024922D01*
X73196689Y-107172756D01*
X73196690Y-107172759D01*
X73196691Y-107172761D01*
X73240198Y-107316184D01*
X73245353Y-107333179D01*
X73261783Y-107500000D01*
X73245353Y-107666821D01*
X73245352Y-107666824D01*
X73245352Y-107666825D01*
X73220659Y-107748228D01*
X73196689Y-107827244D01*
X73117671Y-107975078D01*
X73011325Y-108104659D01*
X72881744Y-108211005D01*
X72733910Y-108290023D01*
X72733907Y-108290024D01*
X72733905Y-108290025D01*
X72573491Y-108338686D01*
X72573490Y-108338686D01*
X72573487Y-108338687D01*
X72448470Y-108351000D01*
X72364862Y-108351000D01*
X72239845Y-108338687D01*
X72239842Y-108338686D01*
X72239841Y-108338686D01*
X72079427Y-108290025D01*
X72079425Y-108290024D01*
X72079422Y-108290023D01*
X71931588Y-108211005D01*
X71802007Y-108104659D01*
X71695661Y-107975078D01*
X71616643Y-107827244D01*
X71592674Y-107748228D01*
X71567980Y-107666825D01*
X71567980Y-107666824D01*
X71567979Y-107666821D01*
X71551549Y-107500000D01*
X71567979Y-107333179D01*
X71573134Y-107316184D01*
X71616641Y-107172761D01*
X71616642Y-107172759D01*
X71616643Y-107172756D01*
X71695661Y-107024922D01*
X71802007Y-106895341D01*
X71931588Y-106788995D01*
X72079422Y-106709977D01*
X72079425Y-106709976D01*
X72079427Y-106709975D01*
X72239841Y-106661314D01*
X72239842Y-106661314D01*
X72239845Y-106661313D01*
X72364862Y-106649000D01*
X72448470Y-106649000D01*
X72573487Y-106661313D01*
X72573487Y-106661313D01*
G37*
G36*
X80274894Y-106681703D02*
X80429766Y-106745853D01*
X80569147Y-106838985D01*
X80687681Y-106957519D01*
X80780813Y-107096900D01*
X80844963Y-107251772D01*
X80877666Y-107416184D01*
X80877666Y-107583816D01*
X80844963Y-107748228D01*
X80780813Y-107903100D01*
X80687681Y-108042481D01*
X80569147Y-108161015D01*
X80429766Y-108254147D01*
X80274894Y-108318297D01*
X80110482Y-108351000D01*
X79942850Y-108351000D01*
X79778438Y-108318297D01*
X79623566Y-108254147D01*
X79484185Y-108161015D01*
X79365651Y-108042481D01*
X79272519Y-107903100D01*
X79208369Y-107748228D01*
X79175666Y-107583816D01*
X79175666Y-107416184D01*
X79208369Y-107251772D01*
X79272519Y-107096900D01*
X79365651Y-106957519D01*
X79484185Y-106838985D01*
X79623566Y-106745853D01*
X79778438Y-106681703D01*
X79942850Y-106649000D01*
X80110482Y-106649000D01*
X80274894Y-106681703D01*
X80274894Y-106681703D01*
G37*
G36*
X64001561Y-106681703D02*
X64156433Y-106745853D01*
X64295814Y-106838985D01*
X64414348Y-106957519D01*
X64507480Y-107096900D01*
X64571630Y-107251772D01*
X64604333Y-107416184D01*
X64604333Y-107583816D01*
X64571630Y-107748228D01*
X64507480Y-107903100D01*
X64414348Y-108042481D01*
X64295814Y-108161015D01*
X64156433Y-108254147D01*
X64001561Y-108318297D01*
X63837149Y-108351000D01*
X63669517Y-108351000D01*
X63505105Y-108318297D01*
X63350233Y-108254147D01*
X63210852Y-108161015D01*
X63092318Y-108042481D01*
X62999186Y-107903100D01*
X62935036Y-107748228D01*
X62902333Y-107583816D01*
X62902333Y-107416184D01*
X62935036Y-107251772D01*
X62999186Y-107096900D01*
X63092318Y-106957519D01*
X63210852Y-106838985D01*
X63350233Y-106745853D01*
X63505105Y-106681703D01*
X63669517Y-106649000D01*
X63837149Y-106649000D01*
X64001561Y-106681703D01*
X64001561Y-106681703D01*
G37*
G36*
X69001561Y-106681703D02*
X69156433Y-106745853D01*
X69295814Y-106838985D01*
X69414348Y-106957519D01*
X69507480Y-107096900D01*
X69571630Y-107251772D01*
X69604333Y-107416184D01*
X69604333Y-107583816D01*
X69571630Y-107748228D01*
X69507480Y-107903100D01*
X69414348Y-108042481D01*
X69295814Y-108161015D01*
X69156433Y-108254147D01*
X69001561Y-108318297D01*
X68837149Y-108351000D01*
X68669517Y-108351000D01*
X68505105Y-108318297D01*
X68350233Y-108254147D01*
X68210852Y-108161015D01*
X68092318Y-108042481D01*
X67999186Y-107903100D01*
X67935036Y-107748228D01*
X67902333Y-107583816D01*
X67902333Y-107416184D01*
X67935036Y-107251772D01*
X67999186Y-107096900D01*
X68092318Y-106957519D01*
X68210852Y-106838985D01*
X68350233Y-106745853D01*
X68505105Y-106681703D01*
X68669517Y-106649000D01*
X68837149Y-106649000D01*
X69001561Y-106681703D01*
X69001561Y-106681703D01*
G37*
G36*
X42748228Y-106581703D02*
X42903100Y-106645853D01*
X43042481Y-106738985D01*
X43161015Y-106857519D01*
X43254147Y-106996900D01*
X43318297Y-107151772D01*
X43351000Y-107316184D01*
X43351000Y-107483816D01*
X43318297Y-107648228D01*
X43254147Y-107803100D01*
X43161015Y-107942481D01*
X43042481Y-108061015D01*
X42903100Y-108154147D01*
X42748228Y-108218297D01*
X42583816Y-108251000D01*
X42416184Y-108251000D01*
X42251772Y-108218297D01*
X42096900Y-108154147D01*
X41957519Y-108061015D01*
X41838985Y-107942481D01*
X41745853Y-107803100D01*
X41681703Y-107648228D01*
X41649000Y-107483816D01*
X41649000Y-107316184D01*
X41681703Y-107151772D01*
X41745853Y-106996900D01*
X41838985Y-106857519D01*
X41957519Y-106738985D01*
X42096900Y-106645853D01*
X42251772Y-106581703D01*
X42416184Y-106549000D01*
X42583816Y-106549000D01*
X42748228Y-106581703D01*
X42748228Y-106581703D01*
G37*
G36*
X47748228Y-106581703D02*
X47903100Y-106645853D01*
X48042481Y-106738985D01*
X48161015Y-106857519D01*
X48254147Y-106996900D01*
X48318297Y-107151772D01*
X48351000Y-107316184D01*
X48351000Y-107483816D01*
X48318297Y-107648228D01*
X48254147Y-107803100D01*
X48161015Y-107942481D01*
X48042481Y-108061015D01*
X47903100Y-108154147D01*
X47748228Y-108218297D01*
X47583816Y-108251000D01*
X47416184Y-108251000D01*
X47251772Y-108218297D01*
X47096900Y-108154147D01*
X46957519Y-108061015D01*
X46838985Y-107942481D01*
X46745853Y-107803100D01*
X46681703Y-107648228D01*
X46649000Y-107483816D01*
X46649000Y-107316184D01*
X46681703Y-107151772D01*
X46745853Y-106996900D01*
X46838985Y-106857519D01*
X46957519Y-106738985D01*
X47096900Y-106645853D01*
X47251772Y-106581703D01*
X47416184Y-106549000D01*
X47583816Y-106549000D01*
X47748228Y-106581703D01*
X47748228Y-106581703D01*
G37*
G36*
X129563240Y-104951604D02*
X129799949Y-105049652D01*
X130012985Y-105191998D01*
X130194149Y-105373162D01*
X130336495Y-105586198D01*
X130434543Y-105822907D01*
X130484527Y-106074193D01*
X130484527Y-106330407D01*
X130434543Y-106581693D01*
X130336495Y-106818402D01*
X130194149Y-107031438D01*
X130012985Y-107212602D01*
X129799949Y-107354948D01*
X129563240Y-107452996D01*
X129311954Y-107502980D01*
X129055740Y-107502980D01*
X128804454Y-107452996D01*
X128567745Y-107354948D01*
X128354709Y-107212602D01*
X128173545Y-107031438D01*
X128031199Y-106818402D01*
X127933151Y-106581693D01*
X127883167Y-106330407D01*
X127883167Y-106074193D01*
X127933151Y-105822907D01*
X128031199Y-105586198D01*
X128173545Y-105373162D01*
X128354709Y-105191998D01*
X128567745Y-105049652D01*
X128804454Y-104951604D01*
X129055740Y-104901620D01*
X129311954Y-104901620D01*
X129563240Y-104951604D01*
X129563240Y-104951604D01*
G37*
G36*
X119560720Y-104951604D02*
X119797429Y-105049652D01*
X120010465Y-105191998D01*
X120191629Y-105373162D01*
X120333975Y-105586198D01*
X120432023Y-105822907D01*
X120482007Y-106074193D01*
X120482007Y-106330407D01*
X120432023Y-106581693D01*
X120333975Y-106818402D01*
X120191629Y-107031438D01*
X120010465Y-107212602D01*
X119797429Y-107354948D01*
X119560720Y-107452996D01*
X119309434Y-107502980D01*
X119053220Y-107502980D01*
X118801934Y-107452996D01*
X118565225Y-107354948D01*
X118352189Y-107212602D01*
X118171025Y-107031438D01*
X118028679Y-106818402D01*
X117930631Y-106581693D01*
X117880647Y-106330407D01*
X117880647Y-106074193D01*
X117930631Y-105822907D01*
X118028679Y-105586198D01*
X118171025Y-105373162D01*
X118352189Y-105191998D01*
X118565225Y-105049652D01*
X118801934Y-104951604D01*
X119053220Y-104901620D01*
X119309434Y-104901620D01*
X119560720Y-104951604D01*
X119560720Y-104951604D01*
G37*
G36*
X109380653Y-104951604D02*
X109617362Y-105049652D01*
X109830398Y-105191998D01*
X110011562Y-105373162D01*
X110153908Y-105586198D01*
X110251956Y-105822907D01*
X110301940Y-106074193D01*
X110301940Y-106330407D01*
X110251956Y-106581693D01*
X110153908Y-106818402D01*
X110011562Y-107031438D01*
X109830398Y-107212602D01*
X109617362Y-107354948D01*
X109380653Y-107452996D01*
X109129367Y-107502980D01*
X108873153Y-107502980D01*
X108621867Y-107452996D01*
X108385158Y-107354948D01*
X108172122Y-107212602D01*
X107990958Y-107031438D01*
X107848612Y-106818402D01*
X107750564Y-106581693D01*
X107700580Y-106330407D01*
X107700580Y-106074193D01*
X107750564Y-105822907D01*
X107848612Y-105586198D01*
X107990958Y-105373162D01*
X108172122Y-105191998D01*
X108385158Y-105049652D01*
X108621867Y-104951604D01*
X108873153Y-104901620D01*
X109129367Y-104901620D01*
X109380653Y-104951604D01*
X109380653Y-104951604D01*
G37*
G36*
X99378133Y-104951604D02*
X99614842Y-105049652D01*
X99827878Y-105191998D01*
X100009042Y-105373162D01*
X100151388Y-105586198D01*
X100249436Y-105822907D01*
X100299420Y-106074193D01*
X100299420Y-106330407D01*
X100249436Y-106581693D01*
X100151388Y-106818402D01*
X100009042Y-107031438D01*
X99827878Y-107212602D01*
X99614842Y-107354948D01*
X99378133Y-107452996D01*
X99126847Y-107502980D01*
X98870633Y-107502980D01*
X98619347Y-107452996D01*
X98382638Y-107354948D01*
X98169602Y-107212602D01*
X97988438Y-107031438D01*
X97846092Y-106818402D01*
X97748044Y-106581693D01*
X97698060Y-106330407D01*
X97698060Y-106074193D01*
X97748044Y-105822907D01*
X97846092Y-105586198D01*
X97988438Y-105373162D01*
X98169602Y-105191998D01*
X98382638Y-105049652D01*
X98619347Y-104951604D01*
X98870633Y-104901620D01*
X99126847Y-104901620D01*
X99378133Y-104951604D01*
X99378133Y-104951604D01*
G37*
M02*
