G04 #@! TF.GenerationSoftware,KiCad,Pcbnew,(5.0.2)-1*
G04 #@! TF.CreationDate,2019-03-31T20:53:58+02:00*
G04 #@! TF.ProjectId,CCdrum,43436472-756d-42e6-9b69-6361645f7063,rev?*
G04 #@! TF.SameCoordinates,Original*
G04 #@! TF.FileFunction,Legend,Top*
G04 #@! TF.FilePolarity,Positive*
%FSLAX46Y46*%
G04 Gerber Fmt 4.6, Leading zero omitted, Abs format (unit mm)*
G04 Created by KiCad (PCBNEW (5.0.2)-1) date 31/03/2019 20:53:58*
%MOMM*%
%LPD*%
G01*
G04 APERTURE LIST*
%ADD10C,0.200000*%
%ADD11C,0.300000*%
%ADD12C,0.200660*%
%ADD13C,0.120000*%
%ADD14C,0.381000*%
%ADD15C,0.304800*%
%ADD16C,0.099060*%
%ADD17C,0.150000*%
%ADD18C,0.250000*%
G04 APERTURE END LIST*
D10*
X87274761Y-125385714D02*
X87274761Y-126195238D01*
X87227142Y-126290476D01*
X87179523Y-126338095D01*
X87084285Y-126385714D01*
X86941428Y-126385714D01*
X86846190Y-126338095D01*
X87274761Y-126004761D02*
X87179523Y-126052380D01*
X86989047Y-126052380D01*
X86893809Y-126004761D01*
X86846190Y-125957142D01*
X86798571Y-125861904D01*
X86798571Y-125576190D01*
X86846190Y-125480952D01*
X86893809Y-125433333D01*
X86989047Y-125385714D01*
X87179523Y-125385714D01*
X87274761Y-125433333D01*
X87750952Y-126052380D02*
X87750952Y-125385714D01*
X87750952Y-125052380D02*
X87703333Y-125100000D01*
X87750952Y-125147619D01*
X87798571Y-125100000D01*
X87750952Y-125052380D01*
X87750952Y-125147619D01*
X88084285Y-125385714D02*
X88465238Y-125385714D01*
X88227142Y-125052380D02*
X88227142Y-125909523D01*
X88274761Y-126004761D01*
X88370000Y-126052380D01*
X88465238Y-126052380D01*
X88798571Y-126052380D02*
X88798571Y-125052380D01*
X89227142Y-126052380D02*
X89227142Y-125528571D01*
X89179523Y-125433333D01*
X89084285Y-125385714D01*
X88941428Y-125385714D01*
X88846190Y-125433333D01*
X88798571Y-125480952D01*
X90131904Y-125385714D02*
X90131904Y-126052380D01*
X89703333Y-125385714D02*
X89703333Y-125909523D01*
X89750952Y-126004761D01*
X89846190Y-126052380D01*
X89989047Y-126052380D01*
X90084285Y-126004761D01*
X90131904Y-125957142D01*
X90608095Y-126052380D02*
X90608095Y-125052380D01*
X90608095Y-125433333D02*
X90703333Y-125385714D01*
X90893809Y-125385714D01*
X90989047Y-125433333D01*
X91036666Y-125480952D01*
X91084285Y-125576190D01*
X91084285Y-125861904D01*
X91036666Y-125957142D01*
X90989047Y-126004761D01*
X90893809Y-126052380D01*
X90703333Y-126052380D01*
X90608095Y-126004761D01*
X91512857Y-125957142D02*
X91560476Y-126004761D01*
X91512857Y-126052380D01*
X91465238Y-126004761D01*
X91512857Y-125957142D01*
X91512857Y-126052380D01*
X92417619Y-126004761D02*
X92322380Y-126052380D01*
X92131904Y-126052380D01*
X92036666Y-126004761D01*
X91989047Y-125957142D01*
X91941428Y-125861904D01*
X91941428Y-125576190D01*
X91989047Y-125480952D01*
X92036666Y-125433333D01*
X92131904Y-125385714D01*
X92322380Y-125385714D01*
X92417619Y-125433333D01*
X92989047Y-126052380D02*
X92893809Y-126004761D01*
X92846190Y-125957142D01*
X92798571Y-125861904D01*
X92798571Y-125576190D01*
X92846190Y-125480952D01*
X92893809Y-125433333D01*
X92989047Y-125385714D01*
X93131904Y-125385714D01*
X93227142Y-125433333D01*
X93274761Y-125480952D01*
X93322380Y-125576190D01*
X93322380Y-125861904D01*
X93274761Y-125957142D01*
X93227142Y-126004761D01*
X93131904Y-126052380D01*
X92989047Y-126052380D01*
X93750952Y-126052380D02*
X93750952Y-125385714D01*
X93750952Y-125480952D02*
X93798571Y-125433333D01*
X93893809Y-125385714D01*
X94036666Y-125385714D01*
X94131904Y-125433333D01*
X94179523Y-125528571D01*
X94179523Y-126052380D01*
X94179523Y-125528571D02*
X94227142Y-125433333D01*
X94322380Y-125385714D01*
X94465238Y-125385714D01*
X94560476Y-125433333D01*
X94608095Y-125528571D01*
X94608095Y-126052380D01*
X95798571Y-125004761D02*
X94941428Y-126290476D01*
X96084285Y-126004761D02*
X96179523Y-126052380D01*
X96370000Y-126052380D01*
X96465238Y-126004761D01*
X96512857Y-125909523D01*
X96512857Y-125861904D01*
X96465238Y-125766666D01*
X96370000Y-125719047D01*
X96227142Y-125719047D01*
X96131904Y-125671428D01*
X96084285Y-125576190D01*
X96084285Y-125528571D01*
X96131904Y-125433333D01*
X96227142Y-125385714D01*
X96370000Y-125385714D01*
X96465238Y-125433333D01*
X97322380Y-126004761D02*
X97227142Y-126052380D01*
X97036666Y-126052380D01*
X96941428Y-126004761D01*
X96893809Y-125909523D01*
X96893809Y-125528571D01*
X96941428Y-125433333D01*
X97036666Y-125385714D01*
X97227142Y-125385714D01*
X97322380Y-125433333D01*
X97370000Y-125528571D01*
X97370000Y-125623809D01*
X96893809Y-125719047D01*
X97798571Y-125385714D02*
X97798571Y-126052380D01*
X97798571Y-125480952D02*
X97846190Y-125433333D01*
X97941428Y-125385714D01*
X98084285Y-125385714D01*
X98179523Y-125433333D01*
X98227142Y-125528571D01*
X98227142Y-126052380D01*
X98655714Y-126004761D02*
X98750952Y-126052380D01*
X98941428Y-126052380D01*
X99036666Y-126004761D01*
X99084285Y-125909523D01*
X99084285Y-125861904D01*
X99036666Y-125766666D01*
X98941428Y-125719047D01*
X98798571Y-125719047D01*
X98703333Y-125671428D01*
X98655714Y-125576190D01*
X98655714Y-125528571D01*
X98703333Y-125433333D01*
X98798571Y-125385714D01*
X98941428Y-125385714D01*
X99036666Y-125433333D01*
X99941428Y-126052380D02*
X99941428Y-125528571D01*
X99893809Y-125433333D01*
X99798571Y-125385714D01*
X99608095Y-125385714D01*
X99512857Y-125433333D01*
X99941428Y-126004761D02*
X99846190Y-126052380D01*
X99608095Y-126052380D01*
X99512857Y-126004761D01*
X99465238Y-125909523D01*
X99465238Y-125814285D01*
X99512857Y-125719047D01*
X99608095Y-125671428D01*
X99846190Y-125671428D01*
X99941428Y-125623809D01*
X100417619Y-126052380D02*
X100417619Y-125385714D01*
X100417619Y-125052380D02*
X100370000Y-125100000D01*
X100417619Y-125147619D01*
X100465238Y-125100000D01*
X100417619Y-125052380D01*
X100417619Y-125147619D01*
X100798571Y-125052380D02*
X101465238Y-125052380D01*
X101036666Y-126052380D01*
X102560476Y-125004761D02*
X101703333Y-126290476D01*
X103465238Y-125957142D02*
X103417619Y-126004761D01*
X103274761Y-126052380D01*
X103179523Y-126052380D01*
X103036666Y-126004761D01*
X102941428Y-125909523D01*
X102893809Y-125814285D01*
X102846190Y-125623809D01*
X102846190Y-125480952D01*
X102893809Y-125290476D01*
X102941428Y-125195238D01*
X103036666Y-125100000D01*
X103179523Y-125052380D01*
X103274761Y-125052380D01*
X103417619Y-125100000D01*
X103465238Y-125147619D01*
X104465238Y-125957142D02*
X104417619Y-126004761D01*
X104274761Y-126052380D01*
X104179523Y-126052380D01*
X104036666Y-126004761D01*
X103941428Y-125909523D01*
X103893809Y-125814285D01*
X103846190Y-125623809D01*
X103846190Y-125480952D01*
X103893809Y-125290476D01*
X103941428Y-125195238D01*
X104036666Y-125100000D01*
X104179523Y-125052380D01*
X104274761Y-125052380D01*
X104417619Y-125100000D01*
X104465238Y-125147619D01*
X104750952Y-125052380D02*
X105084285Y-126052380D01*
X105417619Y-125052380D01*
X105750952Y-126052380D02*
X105750952Y-125052380D01*
X105989047Y-125052380D01*
X106131904Y-125100000D01*
X106227142Y-125195238D01*
X106274761Y-125290476D01*
X106322380Y-125480952D01*
X106322380Y-125623809D01*
X106274761Y-125814285D01*
X106227142Y-125909523D01*
X106131904Y-126004761D01*
X105989047Y-126052380D01*
X105750952Y-126052380D01*
X106750952Y-126052380D02*
X106750952Y-125385714D01*
X106750952Y-125576190D02*
X106798571Y-125480952D01*
X106846190Y-125433333D01*
X106941428Y-125385714D01*
X107036666Y-125385714D01*
X107798571Y-125385714D02*
X107798571Y-126052380D01*
X107370000Y-125385714D02*
X107370000Y-125909523D01*
X107417619Y-126004761D01*
X107512857Y-126052380D01*
X107655714Y-126052380D01*
X107750952Y-126004761D01*
X107798571Y-125957142D01*
X108274761Y-126052380D02*
X108274761Y-125385714D01*
X108274761Y-125480952D02*
X108322380Y-125433333D01*
X108417619Y-125385714D01*
X108560476Y-125385714D01*
X108655714Y-125433333D01*
X108703333Y-125528571D01*
X108703333Y-126052380D01*
X108703333Y-125528571D02*
X108750952Y-125433333D01*
X108846190Y-125385714D01*
X108989047Y-125385714D01*
X109084285Y-125433333D01*
X109131904Y-125528571D01*
X109131904Y-126052380D01*
X76489047Y-124257142D02*
X76441428Y-124304761D01*
X76298571Y-124352380D01*
X76203333Y-124352380D01*
X76060476Y-124304761D01*
X75965238Y-124209523D01*
X75917619Y-124114285D01*
X75869999Y-123923809D01*
X75869999Y-123780952D01*
X75917619Y-123590476D01*
X75965238Y-123495238D01*
X76060476Y-123400000D01*
X76203333Y-123352380D01*
X76298571Y-123352380D01*
X76441428Y-123400000D01*
X76489047Y-123447619D01*
X77489047Y-124257142D02*
X77441428Y-124304761D01*
X77298571Y-124352380D01*
X77203333Y-124352380D01*
X77060476Y-124304761D01*
X76965238Y-124209523D01*
X76917619Y-124114285D01*
X76869999Y-123923809D01*
X76869999Y-123780952D01*
X76917619Y-123590476D01*
X76965238Y-123495238D01*
X77060476Y-123400000D01*
X77203333Y-123352380D01*
X77298571Y-123352380D01*
X77441428Y-123400000D01*
X77489047Y-123447619D01*
X77774761Y-123352380D02*
X78108095Y-124352380D01*
X78441428Y-123352380D01*
X78774761Y-124352380D02*
X78774761Y-123352380D01*
X79012857Y-123352380D01*
X79155714Y-123400000D01*
X79250952Y-123495238D01*
X79298571Y-123590476D01*
X79346190Y-123780952D01*
X79346190Y-123923809D01*
X79298571Y-124114285D01*
X79250952Y-124209523D01*
X79155714Y-124304761D01*
X79012857Y-124352380D01*
X78774761Y-124352380D01*
X79774761Y-124352380D02*
X79774761Y-123685714D01*
X79774761Y-123876190D02*
X79822380Y-123780952D01*
X79869999Y-123733333D01*
X79965238Y-123685714D01*
X80060476Y-123685714D01*
X80822380Y-123685714D02*
X80822380Y-124352380D01*
X80393809Y-123685714D02*
X80393809Y-124209523D01*
X80441428Y-124304761D01*
X80536666Y-124352380D01*
X80679523Y-124352380D01*
X80774761Y-124304761D01*
X80822380Y-124257142D01*
X81298571Y-124352380D02*
X81298571Y-123685714D01*
X81298571Y-123780952D02*
X81346190Y-123733333D01*
X81441428Y-123685714D01*
X81584285Y-123685714D01*
X81679523Y-123733333D01*
X81727142Y-123828571D01*
X81727142Y-124352380D01*
X81727142Y-123828571D02*
X81774761Y-123733333D01*
X81869999Y-123685714D01*
X82012857Y-123685714D01*
X82108095Y-123733333D01*
X82155714Y-123828571D01*
X82155714Y-124352380D01*
X83250952Y-123352380D02*
X83584285Y-124352380D01*
X83917619Y-123352380D01*
X84441428Y-123352380D02*
X84536666Y-123352380D01*
X84631904Y-123400000D01*
X84679523Y-123447619D01*
X84727142Y-123542857D01*
X84774761Y-123733333D01*
X84774761Y-123971428D01*
X84727142Y-124161904D01*
X84679523Y-124257142D01*
X84631904Y-124304761D01*
X84536666Y-124352380D01*
X84441428Y-124352380D01*
X84346190Y-124304761D01*
X84298571Y-124257142D01*
X84250952Y-124161904D01*
X84203333Y-123971428D01*
X84203333Y-123733333D01*
X84250952Y-123542857D01*
X84298571Y-123447619D01*
X84346190Y-123400000D01*
X84441428Y-123352380D01*
X85203333Y-124257142D02*
X85250952Y-124304761D01*
X85203333Y-124352380D01*
X85155714Y-124304761D01*
X85203333Y-124257142D01*
X85203333Y-124352380D01*
X85631904Y-123447619D02*
X85679523Y-123400000D01*
X85774761Y-123352380D01*
X86012857Y-123352380D01*
X86108095Y-123400000D01*
X86155714Y-123447619D01*
X86203333Y-123542857D01*
X86203333Y-123638095D01*
X86155714Y-123780952D01*
X85584285Y-124352380D01*
X86203333Y-124352380D01*
X87250952Y-123685714D02*
X87631904Y-123685714D01*
X87393809Y-124352380D02*
X87393809Y-123495238D01*
X87441428Y-123400000D01*
X87536666Y-123352380D01*
X87631904Y-123352380D01*
X88108095Y-124352380D02*
X88012857Y-124304761D01*
X87965238Y-124257142D01*
X87917619Y-124161904D01*
X87917619Y-123876190D01*
X87965238Y-123780952D01*
X88012857Y-123733333D01*
X88108095Y-123685714D01*
X88250952Y-123685714D01*
X88346190Y-123733333D01*
X88393809Y-123780952D01*
X88441428Y-123876190D01*
X88441428Y-124161904D01*
X88393809Y-124257142D01*
X88346190Y-124304761D01*
X88250952Y-124352380D01*
X88108095Y-124352380D01*
X88869999Y-124352380D02*
X88869999Y-123685714D01*
X88869999Y-123876190D02*
X88917619Y-123780952D01*
X88965238Y-123733333D01*
X89060476Y-123685714D01*
X89155714Y-123685714D01*
X90250952Y-124352380D02*
X90250952Y-123352380D01*
X90822380Y-124352380D02*
X90393809Y-123780952D01*
X90822380Y-123352380D02*
X90250952Y-123923809D01*
X91393809Y-124352380D02*
X91298571Y-124304761D01*
X91250952Y-124257142D01*
X91203333Y-124161904D01*
X91203333Y-123876190D01*
X91250952Y-123780952D01*
X91298571Y-123733333D01*
X91393809Y-123685714D01*
X91536666Y-123685714D01*
X91631904Y-123733333D01*
X91679523Y-123780952D01*
X91727142Y-123876190D01*
X91727142Y-124161904D01*
X91679523Y-124257142D01*
X91631904Y-124304761D01*
X91536666Y-124352380D01*
X91393809Y-124352380D01*
X92155714Y-124352380D02*
X92155714Y-123685714D01*
X92155714Y-123876190D02*
X92203333Y-123780952D01*
X92250952Y-123733333D01*
X92346190Y-123685714D01*
X92441428Y-123685714D01*
X93203333Y-123685714D02*
X93203333Y-124495238D01*
X93155714Y-124590476D01*
X93108095Y-124638095D01*
X93012857Y-124685714D01*
X92869999Y-124685714D01*
X92774761Y-124638095D01*
X93203333Y-124304761D02*
X93108095Y-124352380D01*
X92917619Y-124352380D01*
X92822380Y-124304761D01*
X92774761Y-124257142D01*
X92727142Y-124161904D01*
X92727142Y-123876190D01*
X92774761Y-123780952D01*
X92822380Y-123733333D01*
X92917619Y-123685714D01*
X93108095Y-123685714D01*
X93203333Y-123733333D01*
X94298571Y-123352380D02*
X94631904Y-124352380D01*
X94965238Y-123352380D01*
X95441428Y-124352380D02*
X95346190Y-124304761D01*
X95298571Y-124257142D01*
X95250952Y-124161904D01*
X95250952Y-123876190D01*
X95298571Y-123780952D01*
X95346190Y-123733333D01*
X95441428Y-123685714D01*
X95584285Y-123685714D01*
X95679523Y-123733333D01*
X95727142Y-123780952D01*
X95774761Y-123876190D01*
X95774761Y-124161904D01*
X95727142Y-124257142D01*
X95679523Y-124304761D01*
X95584285Y-124352380D01*
X95441428Y-124352380D01*
X96346190Y-124352380D02*
X96250952Y-124304761D01*
X96203333Y-124209523D01*
X96203333Y-123352380D01*
X97155714Y-124304761D02*
X97060476Y-124352380D01*
X96869999Y-124352380D01*
X96774761Y-124304761D01*
X96727142Y-124257142D01*
X96679523Y-124161904D01*
X96679523Y-123876190D01*
X96727142Y-123780952D01*
X96774761Y-123733333D01*
X96869999Y-123685714D01*
X97060476Y-123685714D01*
X97155714Y-123733333D01*
X98012857Y-124352380D02*
X98012857Y-123828571D01*
X97965238Y-123733333D01*
X97869999Y-123685714D01*
X97679523Y-123685714D01*
X97584285Y-123733333D01*
X98012857Y-124304761D02*
X97917619Y-124352380D01*
X97679523Y-124352380D01*
X97584285Y-124304761D01*
X97536666Y-124209523D01*
X97536666Y-124114285D01*
X97584285Y-124019047D01*
X97679523Y-123971428D01*
X97917619Y-123971428D01*
X98012857Y-123923809D01*
X99250952Y-124352380D02*
X99250952Y-123352380D01*
X99489047Y-123352380D01*
X99631904Y-123400000D01*
X99727142Y-123495238D01*
X99774761Y-123590476D01*
X99822380Y-123780952D01*
X99822380Y-123923809D01*
X99774761Y-124114285D01*
X99727142Y-124209523D01*
X99631904Y-124304761D01*
X99489047Y-124352380D01*
X99250952Y-124352380D01*
X100250952Y-124352380D02*
X100250952Y-123685714D01*
X100250952Y-123876190D02*
X100298571Y-123780952D01*
X100346190Y-123733333D01*
X100441428Y-123685714D01*
X100536666Y-123685714D01*
X101298571Y-123685714D02*
X101298571Y-124352380D01*
X100869999Y-123685714D02*
X100869999Y-124209523D01*
X100917619Y-124304761D01*
X101012857Y-124352380D01*
X101155714Y-124352380D01*
X101250952Y-124304761D01*
X101298571Y-124257142D01*
X101774761Y-124352380D02*
X101774761Y-123685714D01*
X101774761Y-123780952D02*
X101822380Y-123733333D01*
X101917619Y-123685714D01*
X102060476Y-123685714D01*
X102155714Y-123733333D01*
X102203333Y-123828571D01*
X102203333Y-124352380D01*
X102203333Y-123828571D02*
X102250952Y-123733333D01*
X102346190Y-123685714D01*
X102489047Y-123685714D01*
X102584285Y-123733333D01*
X102631904Y-123828571D01*
X102631904Y-124352380D01*
D11*
X64400000Y-138042857D02*
X65142857Y-138042857D01*
X64742857Y-138500000D01*
X64914285Y-138500000D01*
X65028571Y-138557142D01*
X65085714Y-138614285D01*
X65142857Y-138728571D01*
X65142857Y-139014285D01*
X65085714Y-139128571D01*
X65028571Y-139185714D01*
X64914285Y-139242857D01*
X64571428Y-139242857D01*
X64457142Y-139185714D01*
X64400000Y-139128571D01*
X50557142Y-138157142D02*
X50614285Y-138100000D01*
X50728571Y-138042857D01*
X51014285Y-138042857D01*
X51128571Y-138100000D01*
X51185714Y-138157142D01*
X51242857Y-138271428D01*
X51242857Y-138385714D01*
X51185714Y-138557142D01*
X50500000Y-139242857D01*
X51242857Y-139242857D01*
X78828571Y-138442857D02*
X78828571Y-139242857D01*
X78542857Y-137985714D02*
X78257142Y-138842857D01*
X79000000Y-138842857D01*
X106528571Y-138042857D02*
X106300000Y-138042857D01*
X106185714Y-138100000D01*
X106128571Y-138157142D01*
X106014285Y-138328571D01*
X105957142Y-138557142D01*
X105957142Y-139014285D01*
X106014285Y-139128571D01*
X106071428Y-139185714D01*
X106185714Y-139242857D01*
X106414285Y-139242857D01*
X106528571Y-139185714D01*
X106585714Y-139128571D01*
X106642857Y-139014285D01*
X106642857Y-138728571D01*
X106585714Y-138614285D01*
X106528571Y-138557142D01*
X106414285Y-138500000D01*
X106185714Y-138500000D01*
X106071428Y-138557142D01*
X106014285Y-138614285D01*
X105957142Y-138728571D01*
X92785714Y-138042857D02*
X92214285Y-138042857D01*
X92157142Y-138614285D01*
X92214285Y-138557142D01*
X92328571Y-138500000D01*
X92614285Y-138500000D01*
X92728571Y-138557142D01*
X92785714Y-138614285D01*
X92842857Y-138728571D01*
X92842857Y-139014285D01*
X92785714Y-139128571D01*
X92728571Y-139185714D01*
X92614285Y-139242857D01*
X92328571Y-139242857D01*
X92214285Y-139185714D01*
X92157142Y-139128571D01*
X37442857Y-139242857D02*
X36757142Y-139242857D01*
X37100000Y-139242857D02*
X37100000Y-138042857D01*
X36985714Y-138214285D01*
X36871428Y-138328571D01*
X36757142Y-138385714D01*
D10*
X39814285Y-126200000D02*
X39700000Y-126142857D01*
X39528571Y-126142857D01*
X39357142Y-126200000D01*
X39242857Y-126314285D01*
X39185714Y-126428571D01*
X39128571Y-126657142D01*
X39128571Y-126828571D01*
X39185714Y-127057142D01*
X39242857Y-127171428D01*
X39357142Y-127285714D01*
X39528571Y-127342857D01*
X39642857Y-127342857D01*
X39814285Y-127285714D01*
X39871428Y-127228571D01*
X39871428Y-126828571D01*
X39642857Y-126828571D01*
X37371428Y-127342857D02*
X36971428Y-126771428D01*
X36685714Y-127342857D02*
X36685714Y-126142857D01*
X37142857Y-126142857D01*
X37257142Y-126200000D01*
X37314285Y-126257142D01*
X37371428Y-126371428D01*
X37371428Y-126542857D01*
X37314285Y-126657142D01*
X37257142Y-126714285D01*
X37142857Y-126771428D01*
X36685714Y-126771428D01*
X34157142Y-126142857D02*
X34842857Y-126142857D01*
X34500000Y-127342857D02*
X34500000Y-126142857D01*
X31500000Y-126142857D02*
X31900000Y-127342857D01*
X32300000Y-126142857D01*
D11*
X124471428Y-147121428D02*
X124542857Y-147050000D01*
X124685714Y-146978571D01*
X125042857Y-146978571D01*
X125185714Y-147050000D01*
X125257142Y-147121428D01*
X125328571Y-147264285D01*
X125328571Y-147407142D01*
X125257142Y-147621428D01*
X124400000Y-148478571D01*
X125328571Y-148478571D01*
X117328571Y-148378571D02*
X116471428Y-148378571D01*
X116900000Y-148378571D02*
X116900000Y-146878571D01*
X116757142Y-147092857D01*
X116614285Y-147235714D01*
X116471428Y-147307142D01*
X105471428Y-144100000D02*
X105357142Y-144042857D01*
X105185714Y-144042857D01*
X105014285Y-144100000D01*
X104900000Y-144214285D01*
X104842857Y-144328571D01*
X104785714Y-144557142D01*
X104785714Y-144728571D01*
X104842857Y-144957142D01*
X104900000Y-145071428D01*
X105014285Y-145185714D01*
X105185714Y-145242857D01*
X105300000Y-145242857D01*
X105471428Y-145185714D01*
X105528571Y-145128571D01*
X105528571Y-144728571D01*
X105300000Y-144728571D01*
X105985714Y-144900000D02*
X106557142Y-144900000D01*
X105871428Y-145242857D02*
X106271428Y-144042857D01*
X106671428Y-145242857D01*
X107071428Y-145242857D02*
X107071428Y-144042857D01*
X107757142Y-145242857D01*
X107757142Y-144042857D01*
X91042857Y-145242857D02*
X91042857Y-144042857D01*
X91500000Y-144042857D01*
X91614285Y-144100000D01*
X91671428Y-144157142D01*
X91728571Y-144271428D01*
X91728571Y-144442857D01*
X91671428Y-144557142D01*
X91614285Y-144614285D01*
X91500000Y-144671428D01*
X91042857Y-144671428D01*
X92185714Y-144900000D02*
X92757142Y-144900000D01*
X92071428Y-145242857D02*
X92471428Y-144042857D01*
X92871428Y-145242857D01*
X93271428Y-145242857D02*
X93271428Y-144042857D01*
X93957142Y-145242857D01*
X93957142Y-144042857D01*
X77171428Y-145242857D02*
X77171428Y-144042857D01*
X77457142Y-144042857D01*
X77628571Y-144100000D01*
X77742857Y-144214285D01*
X77800000Y-144328571D01*
X77857142Y-144557142D01*
X77857142Y-144728571D01*
X77800000Y-144957142D01*
X77742857Y-145071428D01*
X77628571Y-145185714D01*
X77457142Y-145242857D01*
X77171428Y-145242857D01*
X79057142Y-145242857D02*
X78657142Y-144671428D01*
X78371428Y-145242857D02*
X78371428Y-144042857D01*
X78828571Y-144042857D01*
X78942857Y-144100000D01*
X79000000Y-144157142D01*
X79057142Y-144271428D01*
X79057142Y-144442857D01*
X79000000Y-144557142D01*
X78942857Y-144614285D01*
X78828571Y-144671428D01*
X78371428Y-144671428D01*
X79400000Y-144042857D02*
X79800000Y-145242857D01*
X80200000Y-144042857D01*
X63885714Y-144614285D02*
X63485714Y-144614285D01*
X63485714Y-145242857D02*
X63485714Y-144042857D01*
X64057142Y-144042857D01*
X65085714Y-145242857D02*
X64514285Y-145242857D01*
X64514285Y-144042857D01*
X65485714Y-145242857D02*
X65485714Y-144042857D01*
X65771428Y-144042857D01*
X65942857Y-144100000D01*
X66057142Y-144214285D01*
X66114285Y-144328571D01*
X66171428Y-144557142D01*
X66171428Y-144728571D01*
X66114285Y-144957142D01*
X66057142Y-145071428D01*
X65942857Y-145185714D01*
X65771428Y-145242857D01*
X65485714Y-145242857D01*
X50242857Y-144614285D02*
X50414285Y-144671428D01*
X50471428Y-144728571D01*
X50528571Y-144842857D01*
X50528571Y-145014285D01*
X50471428Y-145128571D01*
X50414285Y-145185714D01*
X50300000Y-145242857D01*
X49842857Y-145242857D01*
X49842857Y-144042857D01*
X50242857Y-144042857D01*
X50357142Y-144100000D01*
X50414285Y-144157142D01*
X50471428Y-144271428D01*
X50471428Y-144385714D01*
X50414285Y-144500000D01*
X50357142Y-144557142D01*
X50242857Y-144614285D01*
X49842857Y-144614285D01*
X51042857Y-145242857D02*
X51042857Y-144042857D01*
X51442857Y-144042857D02*
X52128571Y-144042857D01*
X51785714Y-145242857D02*
X51785714Y-144042857D01*
X35214285Y-145242857D02*
X35214285Y-144042857D01*
X35671428Y-144042857D01*
X35785714Y-144100000D01*
X35842857Y-144157142D01*
X35900000Y-144271428D01*
X35900000Y-144442857D01*
X35842857Y-144557142D01*
X35785714Y-144614285D01*
X35671428Y-144671428D01*
X35214285Y-144671428D01*
X36357142Y-144900000D02*
X36928571Y-144900000D01*
X36242857Y-145242857D02*
X36642857Y-144042857D01*
X37042857Y-145242857D01*
X38128571Y-145242857D02*
X37728571Y-144671428D01*
X37442857Y-145242857D02*
X37442857Y-144042857D01*
X37900000Y-144042857D01*
X38014285Y-144100000D01*
X38071428Y-144157142D01*
X38128571Y-144271428D01*
X38128571Y-144442857D01*
X38071428Y-144557142D01*
X38014285Y-144614285D01*
X37900000Y-144671428D01*
X37442857Y-144671428D01*
X38471428Y-144042857D02*
X39157142Y-144042857D01*
X38814285Y-145242857D02*
X38814285Y-144042857D01*
D12*
G04 #@! TO.C,J1*
X29501020Y-128598840D02*
X29501020Y-137001160D01*
X29399420Y-128598840D02*
X29399420Y-137001160D01*
X29399420Y-137001160D02*
X29600080Y-137001160D01*
X29600080Y-137001160D02*
X29600080Y-128598840D01*
X29600080Y-128598840D02*
X29399420Y-128598840D01*
X29399420Y-128901100D02*
X34400680Y-128901100D01*
X34400680Y-128901100D02*
X34400680Y-136698900D01*
X34400680Y-136698900D02*
X29399420Y-136698900D01*
D13*
G04 #@! TO.C,U1*
X66195000Y-130840000D02*
G75*
G02X66195000Y-132840000I0J-1000000D01*
G01*
X66195000Y-132840000D02*
X66195000Y-134490000D01*
X66195000Y-134490000D02*
X91715000Y-134490000D01*
X91715000Y-134490000D02*
X91715000Y-129190000D01*
X91715000Y-129190000D02*
X66195000Y-129190000D01*
X66195000Y-129190000D02*
X66195000Y-130840000D01*
D14*
G04 #@! TO.C,RV5*
X109901060Y-154200000D02*
G75*
G03X109901060Y-154200000I-3401060J0D01*
G01*
X109499740Y-154200000D02*
G75*
G03X109499740Y-154200000I-2999740J0D01*
G01*
X109100960Y-155701140D02*
X103899040Y-155701140D01*
X110700000Y-158600000D02*
G75*
G03X110700000Y-158600000I-400000J0D01*
G01*
X103100000Y-158600000D02*
G75*
G03X103100000Y-158600000I-400000J0D01*
G01*
X110700000Y-149800000D02*
G75*
G03X110700000Y-149800000I-400000J0D01*
G01*
X103100000Y-149800000D02*
G75*
G03X103100000Y-149800000I-400000J0D01*
G01*
X111400000Y-159700000D02*
X101600000Y-159700000D01*
X111400000Y-147700000D02*
X101600000Y-147700000D01*
X111400000Y-147700000D02*
X111400000Y-159700000D01*
X101600000Y-159700000D02*
X101600000Y-147700000D01*
D13*
G04 #@! TO.C,C5*
X69480000Y-123730000D02*
X74720000Y-123730000D01*
X69480000Y-126470000D02*
X74720000Y-126470000D01*
X69480000Y-123730000D02*
X69480000Y-124045000D01*
X69480000Y-126155000D02*
X69480000Y-126470000D01*
X74720000Y-123730000D02*
X74720000Y-124045000D01*
X74720000Y-126155000D02*
X74720000Y-126470000D01*
G04 #@! TO.C,C4*
X60513332Y-124045000D02*
X60513332Y-123730000D01*
X60513332Y-126470000D02*
X60513332Y-126155000D01*
X65753332Y-124045000D02*
X65753332Y-123730000D01*
X65753332Y-126470000D02*
X65753332Y-126155000D01*
X65753332Y-123730000D02*
X60513332Y-123730000D01*
X65753332Y-126470000D02*
X60513332Y-126470000D01*
G04 #@! TO.C,C3*
X56786666Y-126470000D02*
X51546666Y-126470000D01*
X56786666Y-123730000D02*
X51546666Y-123730000D01*
X56786666Y-126470000D02*
X56786666Y-126155000D01*
X56786666Y-124045000D02*
X56786666Y-123730000D01*
X51546666Y-126470000D02*
X51546666Y-126155000D01*
X51546666Y-124045000D02*
X51546666Y-123730000D01*
G04 #@! TO.C,R10*
X59365000Y-135160000D02*
X59035000Y-135160000D01*
X59035000Y-135160000D02*
X59035000Y-128620000D01*
X59035000Y-128620000D02*
X59365000Y-128620000D01*
X61445000Y-135160000D02*
X61775000Y-135160000D01*
X61775000Y-135160000D02*
X61775000Y-128620000D01*
X61775000Y-128620000D02*
X61445000Y-128620000D01*
G04 #@! TO.C,SW2*
X124150000Y-157750000D02*
X125650000Y-157750000D01*
X128150000Y-156500000D02*
X128150000Y-152000000D01*
X125650000Y-150750000D02*
X124150000Y-150750000D01*
X121650000Y-152000000D02*
X121650000Y-156500000D01*
G04 #@! TO.C,SW1*
X113700000Y-152000000D02*
X113700000Y-156500000D01*
X117700000Y-150750000D02*
X116200000Y-150750000D01*
X120200000Y-156500000D02*
X120200000Y-152000000D01*
X116200000Y-157750000D02*
X117700000Y-157750000D01*
G04 #@! TO.C,C1*
X38155000Y-129480000D02*
X38470000Y-129480000D01*
X35730000Y-129480000D02*
X36045000Y-129480000D01*
X38155000Y-134720000D02*
X38470000Y-134720000D01*
X35730000Y-134720000D02*
X36045000Y-134720000D01*
X38470000Y-134720000D02*
X38470000Y-129480000D01*
X35730000Y-134720000D02*
X35730000Y-129480000D01*
G04 #@! TO.C,C2*
X47820000Y-126470000D02*
X42580000Y-126470000D01*
X47820000Y-123730000D02*
X42580000Y-123730000D01*
X47820000Y-126470000D02*
X47820000Y-126155000D01*
X47820000Y-124045000D02*
X47820000Y-123730000D01*
X42580000Y-126470000D02*
X42580000Y-126155000D01*
X42580000Y-124045000D02*
X42580000Y-123730000D01*
G04 #@! TO.C,J2*
X40850000Y-125830000D02*
X40850000Y-123170000D01*
X33170000Y-125830000D02*
X40850000Y-125830000D01*
X33170000Y-123170000D02*
X40850000Y-123170000D01*
X33170000Y-125830000D02*
X33170000Y-123170000D01*
X31900000Y-125830000D02*
X30570000Y-125830000D01*
X30570000Y-125830000D02*
X30570000Y-124500000D01*
G04 #@! TO.C,D4*
X76960000Y-142060000D02*
X79820000Y-142060000D01*
X76960000Y-140140000D02*
X76960000Y-142060000D01*
X79820000Y-140140000D02*
X76960000Y-140140000D01*
G04 #@! TO.C,D1*
X38300000Y-140140000D02*
X35440000Y-140140000D01*
X35440000Y-140140000D02*
X35440000Y-142060000D01*
X35440000Y-142060000D02*
X38300000Y-142060000D01*
G04 #@! TO.C,D3*
X63120000Y-142060000D02*
X65980000Y-142060000D01*
X63120000Y-140140000D02*
X63120000Y-142060000D01*
X65980000Y-140140000D02*
X63120000Y-140140000D01*
G04 #@! TO.C,D5*
X93660000Y-140140000D02*
X90800000Y-140140000D01*
X90800000Y-140140000D02*
X90800000Y-142060000D01*
X90800000Y-142060000D02*
X93660000Y-142060000D01*
G04 #@! TO.C,D6*
X104640000Y-142060000D02*
X107500000Y-142060000D01*
X104640000Y-140140000D02*
X104640000Y-142060000D01*
X107500000Y-140140000D02*
X104640000Y-140140000D01*
G04 #@! TO.C,D2*
X52140000Y-140140000D02*
X49280000Y-140140000D01*
X49280000Y-140140000D02*
X49280000Y-142060000D01*
X49280000Y-142060000D02*
X52140000Y-142060000D01*
G04 #@! TO.C,U2*
X45210000Y-135410000D02*
X45210000Y-134150000D01*
X45210000Y-128590000D02*
X45210000Y-129850000D01*
X41450000Y-135410000D02*
X45210000Y-135410000D01*
X39200000Y-128590000D02*
X45210000Y-128590000D01*
G04 #@! TO.C,U3*
X116300000Y-141490000D02*
X114500000Y-141490000D01*
X114500000Y-144710000D02*
X116950000Y-144710000D01*
G04 #@! TO.C,R3*
X51965000Y-135160000D02*
X52295000Y-135160000D01*
X51965000Y-128620000D02*
X51965000Y-135160000D01*
X52295000Y-128620000D02*
X51965000Y-128620000D01*
X54705000Y-135160000D02*
X54375000Y-135160000D01*
X54705000Y-128620000D02*
X54705000Y-135160000D01*
X54375000Y-128620000D02*
X54705000Y-128620000D01*
G04 #@! TO.C,R9*
X109470000Y-128620000D02*
X109140000Y-128620000D01*
X109470000Y-135160000D02*
X109470000Y-128620000D01*
X109140000Y-135160000D02*
X109470000Y-135160000D01*
X106730000Y-128620000D02*
X107060000Y-128620000D01*
X106730000Y-135160000D02*
X106730000Y-128620000D01*
X107060000Y-135160000D02*
X106730000Y-135160000D01*
G04 #@! TO.C,R8*
X99990000Y-135160000D02*
X99660000Y-135160000D01*
X99660000Y-135160000D02*
X99660000Y-128620000D01*
X99660000Y-128620000D02*
X99990000Y-128620000D01*
X102070000Y-135160000D02*
X102400000Y-135160000D01*
X102400000Y-135160000D02*
X102400000Y-128620000D01*
X102400000Y-128620000D02*
X102070000Y-128620000D01*
G04 #@! TO.C,R7*
X105605000Y-128620000D02*
X105935000Y-128620000D01*
X105935000Y-128620000D02*
X105935000Y-135160000D01*
X105935000Y-135160000D02*
X105605000Y-135160000D01*
X103525000Y-128620000D02*
X103195000Y-128620000D01*
X103195000Y-128620000D02*
X103195000Y-135160000D01*
X103195000Y-135160000D02*
X103525000Y-135160000D01*
G04 #@! TO.C,R1*
X55830000Y-135160000D02*
X55500000Y-135160000D01*
X55500000Y-135160000D02*
X55500000Y-128620000D01*
X55500000Y-128620000D02*
X55830000Y-128620000D01*
X57910000Y-135160000D02*
X58240000Y-135160000D01*
X58240000Y-135160000D02*
X58240000Y-128620000D01*
X58240000Y-128620000D02*
X57910000Y-128620000D01*
G04 #@! TO.C,R4*
X64980000Y-128620000D02*
X65310000Y-128620000D01*
X65310000Y-128620000D02*
X65310000Y-135160000D01*
X65310000Y-135160000D02*
X64980000Y-135160000D01*
X62900000Y-128620000D02*
X62570000Y-128620000D01*
X62570000Y-128620000D02*
X62570000Y-135160000D01*
X62570000Y-135160000D02*
X62900000Y-135160000D01*
G04 #@! TO.C,R5*
X92590000Y-135160000D02*
X92920000Y-135160000D01*
X92590000Y-128620000D02*
X92590000Y-135160000D01*
X92920000Y-128620000D02*
X92590000Y-128620000D01*
X95330000Y-135160000D02*
X95000000Y-135160000D01*
X95330000Y-128620000D02*
X95330000Y-135160000D01*
X95000000Y-128620000D02*
X95330000Y-128620000D01*
G04 #@! TO.C,R6*
X98535000Y-128620000D02*
X98865000Y-128620000D01*
X98865000Y-128620000D02*
X98865000Y-135160000D01*
X98865000Y-135160000D02*
X98535000Y-135160000D01*
X96455000Y-128620000D02*
X96125000Y-128620000D01*
X96125000Y-128620000D02*
X96125000Y-135160000D01*
X96125000Y-135160000D02*
X96455000Y-135160000D01*
G04 #@! TO.C,R2*
X50840000Y-128620000D02*
X51170000Y-128620000D01*
X51170000Y-128620000D02*
X51170000Y-135160000D01*
X51170000Y-135160000D02*
X50840000Y-135160000D01*
X48760000Y-128620000D02*
X48430000Y-128620000D01*
X48430000Y-128620000D02*
X48430000Y-135160000D01*
X48430000Y-135160000D02*
X48760000Y-135160000D01*
D15*
G04 #@! TO.C,J3*
X129050300Y-140699220D02*
X129050300Y-121199640D01*
X129299220Y-122700780D02*
X129299220Y-140699220D01*
X129550680Y-142200360D02*
X129550680Y-122700780D01*
X111300780Y-140699220D02*
X128301000Y-140699220D01*
X111300780Y-140699220D02*
X110800400Y-140198840D01*
X110800400Y-140198840D02*
X110800400Y-137699480D01*
X110800400Y-137699480D02*
X111300780Y-137199100D01*
X111300780Y-137199100D02*
X113299760Y-137199100D01*
X113299760Y-137199100D02*
X113299760Y-133698980D01*
X111300780Y-122700780D02*
X128301000Y-122700780D01*
X111300780Y-122700780D02*
X110800400Y-123201160D01*
X110800400Y-123201160D02*
X110800400Y-125200140D01*
X110800400Y-125200140D02*
X110800400Y-125700520D01*
X110800400Y-125700520D02*
X111300780Y-126200900D01*
X111300780Y-126200900D02*
X113299760Y-126200900D01*
X113299760Y-126200900D02*
X113299760Y-129701020D01*
X110800400Y-133201140D02*
X111300780Y-133698980D01*
X111300780Y-133698980D02*
X113299760Y-133698980D01*
X110800400Y-133201140D02*
X110800400Y-130198860D01*
X110800400Y-130198860D02*
X111300780Y-129701020D01*
X111300780Y-129701020D02*
X113299760Y-129701020D01*
X129299220Y-121199640D02*
X129299220Y-122700780D01*
X129299220Y-122700780D02*
X129799600Y-122700780D01*
X129799600Y-122700780D02*
X129799600Y-142200360D01*
X129299220Y-142200360D02*
X129299220Y-140699220D01*
X129299220Y-140699220D02*
X128798840Y-140699220D01*
X128798840Y-140699220D02*
X128798840Y-121199640D01*
X128301000Y-122700780D02*
X128301000Y-123201160D01*
X128301000Y-140699220D02*
X128301000Y-140198840D01*
X128798840Y-123201160D02*
X128301000Y-123201160D01*
X128301000Y-140198840D02*
X128798840Y-140198840D01*
X129799600Y-142200360D02*
X129299220Y-142200360D01*
X128798840Y-121199640D02*
X129299220Y-121199640D01*
D14*
G04 #@! TO.C,RV6*
X32400000Y-159700000D02*
X32400000Y-147700000D01*
X42200000Y-147700000D02*
X42200000Y-159700000D01*
X42200000Y-147700000D02*
X32400000Y-147700000D01*
X42200000Y-159700000D02*
X32400000Y-159700000D01*
X33900000Y-149800000D02*
G75*
G03X33900000Y-149800000I-400000J0D01*
G01*
X41500000Y-149800000D02*
G75*
G03X41500000Y-149800000I-400000J0D01*
G01*
X33900000Y-158600000D02*
G75*
G03X33900000Y-158600000I-400000J0D01*
G01*
X41500000Y-158600000D02*
G75*
G03X41500000Y-158600000I-400000J0D01*
G01*
X39900960Y-155701140D02*
X34699040Y-155701140D01*
X40299740Y-154200000D02*
G75*
G03X40299740Y-154200000I-2999740J0D01*
G01*
X40701060Y-154200000D02*
G75*
G03X40701060Y-154200000I-3401060J0D01*
G01*
G04 #@! TO.C,RV1*
X54541060Y-154200000D02*
G75*
G03X54541060Y-154200000I-3401060J0D01*
G01*
X54139740Y-154200000D02*
G75*
G03X54139740Y-154200000I-2999740J0D01*
G01*
X53740960Y-155701140D02*
X48539040Y-155701140D01*
X55340000Y-158600000D02*
G75*
G03X55340000Y-158600000I-400000J0D01*
G01*
X47740000Y-158600000D02*
G75*
G03X47740000Y-158600000I-400000J0D01*
G01*
X55340000Y-149800000D02*
G75*
G03X55340000Y-149800000I-400000J0D01*
G01*
X47740000Y-149800000D02*
G75*
G03X47740000Y-149800000I-400000J0D01*
G01*
X56040000Y-159700000D02*
X46240000Y-159700000D01*
X56040000Y-147700000D02*
X46240000Y-147700000D01*
X56040000Y-147700000D02*
X56040000Y-159700000D01*
X46240000Y-159700000D02*
X46240000Y-147700000D01*
G04 #@! TO.C,RV2*
X60080000Y-159700000D02*
X60080000Y-147700000D01*
X69880000Y-147700000D02*
X69880000Y-159700000D01*
X69880000Y-147700000D02*
X60080000Y-147700000D01*
X69880000Y-159700000D02*
X60080000Y-159700000D01*
X61580000Y-149800000D02*
G75*
G03X61580000Y-149800000I-400000J0D01*
G01*
X69180000Y-149800000D02*
G75*
G03X69180000Y-149800000I-400000J0D01*
G01*
X61580000Y-158600000D02*
G75*
G03X61580000Y-158600000I-400000J0D01*
G01*
X69180000Y-158600000D02*
G75*
G03X69180000Y-158600000I-400000J0D01*
G01*
X67580960Y-155701140D02*
X62379040Y-155701140D01*
X67979740Y-154200000D02*
G75*
G03X67979740Y-154200000I-2999740J0D01*
G01*
X68381060Y-154200000D02*
G75*
G03X68381060Y-154200000I-3401060J0D01*
G01*
G04 #@! TO.C,RV3*
X82221060Y-154200000D02*
G75*
G03X82221060Y-154200000I-3401060J0D01*
G01*
X81819740Y-154200000D02*
G75*
G03X81819740Y-154200000I-2999740J0D01*
G01*
X81420960Y-155701140D02*
X76219040Y-155701140D01*
X83020000Y-158600000D02*
G75*
G03X83020000Y-158600000I-400000J0D01*
G01*
X75420000Y-158600000D02*
G75*
G03X75420000Y-158600000I-400000J0D01*
G01*
X83020000Y-149800000D02*
G75*
G03X83020000Y-149800000I-400000J0D01*
G01*
X75420000Y-149800000D02*
G75*
G03X75420000Y-149800000I-400000J0D01*
G01*
X83720000Y-159700000D02*
X73920000Y-159700000D01*
X83720000Y-147700000D02*
X73920000Y-147700000D01*
X83720000Y-147700000D02*
X83720000Y-159700000D01*
X73920000Y-159700000D02*
X73920000Y-147700000D01*
G04 #@! TO.C,RV4*
X87760000Y-159700000D02*
X87760000Y-147700000D01*
X97560000Y-147700000D02*
X97560000Y-159700000D01*
X97560000Y-147700000D02*
X87760000Y-147700000D01*
X97560000Y-159700000D02*
X87760000Y-159700000D01*
X89260000Y-149800000D02*
G75*
G03X89260000Y-149800000I-400000J0D01*
G01*
X96860000Y-149800000D02*
G75*
G03X96860000Y-149800000I-400000J0D01*
G01*
X89260000Y-158600000D02*
G75*
G03X89260000Y-158600000I-400000J0D01*
G01*
X96860000Y-158600000D02*
G75*
G03X96860000Y-158600000I-400000J0D01*
G01*
X95260960Y-155701140D02*
X90059040Y-155701140D01*
X95659740Y-154200000D02*
G75*
G03X95659740Y-154200000I-2999740J0D01*
G01*
X96061060Y-154200000D02*
G75*
G03X96061060Y-154200000I-3401060J0D01*
G01*
G04 #@! TO.C,J1*
D16*
X33433206Y-129425982D02*
X33433206Y-129783396D01*
X33409379Y-129854879D01*
X33361723Y-129902534D01*
X33290240Y-129926362D01*
X33242585Y-129926362D01*
X33933586Y-129926362D02*
X33647655Y-129926362D01*
X33790620Y-129926362D02*
X33790620Y-129425982D01*
X33742965Y-129497465D01*
X33695310Y-129545120D01*
X33647655Y-129568948D01*
G04 #@! TO.C,U1*
D17*
X64647380Y-132601904D02*
X65456904Y-132601904D01*
X65552142Y-132554285D01*
X65599761Y-132506666D01*
X65647380Y-132411428D01*
X65647380Y-132220952D01*
X65599761Y-132125714D01*
X65552142Y-132078095D01*
X65456904Y-132030476D01*
X64647380Y-132030476D01*
X65647380Y-131030476D02*
X65647380Y-131601904D01*
X65647380Y-131316190D02*
X64647380Y-131316190D01*
X64790238Y-131411428D01*
X64885476Y-131506666D01*
X64933095Y-131601904D01*
G04 #@! TO.C,RV5*
D12*
X105506464Y-150079087D02*
X105006084Y-149364258D01*
X104648670Y-150079087D02*
X104648670Y-148577947D01*
X105220532Y-148577947D01*
X105363498Y-148649430D01*
X105434981Y-148720912D01*
X105506464Y-148863878D01*
X105506464Y-149078327D01*
X105434981Y-149221292D01*
X105363498Y-149292775D01*
X105220532Y-149364258D01*
X104648670Y-149364258D01*
X105935361Y-148577947D02*
X106435741Y-150079087D01*
X106936121Y-148577947D01*
X108151330Y-148577947D02*
X107436501Y-148577947D01*
X107365018Y-149292775D01*
X107436501Y-149221292D01*
X107579467Y-149149810D01*
X107936881Y-149149810D01*
X108079847Y-149221292D01*
X108151330Y-149292775D01*
X108222812Y-149435741D01*
X108222812Y-149793155D01*
X108151330Y-149936121D01*
X108079847Y-150007604D01*
X107936881Y-150079087D01*
X107579467Y-150079087D01*
X107436501Y-150007604D01*
X107365018Y-149936121D01*
X105506464Y-154979427D02*
X104648670Y-154979427D01*
X105077567Y-154979427D02*
X105077567Y-153478287D01*
X104934601Y-153692735D01*
X104791635Y-153835701D01*
X104648670Y-153907184D01*
X106435741Y-153478287D02*
X106578707Y-153478287D01*
X106721672Y-153549770D01*
X106793155Y-153621252D01*
X106864638Y-153764218D01*
X106936121Y-154050150D01*
X106936121Y-154407564D01*
X106864638Y-154693495D01*
X106793155Y-154836461D01*
X106721672Y-154907944D01*
X106578707Y-154979427D01*
X106435741Y-154979427D01*
X106292775Y-154907944D01*
X106221292Y-154836461D01*
X106149810Y-154693495D01*
X106078327Y-154407564D01*
X106078327Y-154050150D01*
X106149810Y-153764218D01*
X106221292Y-153621252D01*
X106292775Y-153549770D01*
X106435741Y-153478287D01*
X107579467Y-154979427D02*
X107579467Y-153478287D01*
X107722432Y-154407564D02*
X108151330Y-154979427D01*
X108151330Y-153978667D02*
X107579467Y-154550530D01*
G04 #@! TO.C,C5*
D17*
X71933333Y-125457142D02*
X71885714Y-125504761D01*
X71742857Y-125552380D01*
X71647619Y-125552380D01*
X71504761Y-125504761D01*
X71409523Y-125409523D01*
X71361904Y-125314285D01*
X71314285Y-125123809D01*
X71314285Y-124980952D01*
X71361904Y-124790476D01*
X71409523Y-124695238D01*
X71504761Y-124600000D01*
X71647619Y-124552380D01*
X71742857Y-124552380D01*
X71885714Y-124600000D01*
X71933333Y-124647619D01*
X72838095Y-124552380D02*
X72361904Y-124552380D01*
X72314285Y-125028571D01*
X72361904Y-124980952D01*
X72457142Y-124933333D01*
X72695238Y-124933333D01*
X72790476Y-124980952D01*
X72838095Y-125028571D01*
X72885714Y-125123809D01*
X72885714Y-125361904D01*
X72838095Y-125457142D01*
X72790476Y-125504761D01*
X72695238Y-125552380D01*
X72457142Y-125552380D01*
X72361904Y-125504761D01*
X72314285Y-125457142D01*
G04 #@! TO.C,C4*
X62966665Y-125457142D02*
X62919046Y-125504761D01*
X62776189Y-125552380D01*
X62680951Y-125552380D01*
X62538093Y-125504761D01*
X62442855Y-125409523D01*
X62395236Y-125314285D01*
X62347617Y-125123809D01*
X62347617Y-124980952D01*
X62395236Y-124790476D01*
X62442855Y-124695238D01*
X62538093Y-124600000D01*
X62680951Y-124552380D01*
X62776189Y-124552380D01*
X62919046Y-124600000D01*
X62966665Y-124647619D01*
X63823808Y-124885714D02*
X63823808Y-125552380D01*
X63585712Y-124504761D02*
X63347617Y-125219047D01*
X63966665Y-125219047D01*
G04 #@! TO.C,C3*
X53999999Y-125457142D02*
X53952380Y-125504761D01*
X53809523Y-125552380D01*
X53714285Y-125552380D01*
X53571427Y-125504761D01*
X53476189Y-125409523D01*
X53428570Y-125314285D01*
X53380951Y-125123809D01*
X53380951Y-124980952D01*
X53428570Y-124790476D01*
X53476189Y-124695238D01*
X53571427Y-124600000D01*
X53714285Y-124552380D01*
X53809523Y-124552380D01*
X53952380Y-124600000D01*
X53999999Y-124647619D01*
X54333332Y-124552380D02*
X54952380Y-124552380D01*
X54619046Y-124933333D01*
X54761904Y-124933333D01*
X54857142Y-124980952D01*
X54904761Y-125028571D01*
X54952380Y-125123809D01*
X54952380Y-125361904D01*
X54904761Y-125457142D01*
X54857142Y-125504761D01*
X54761904Y-125552380D01*
X54476189Y-125552380D01*
X54380951Y-125504761D01*
X54333332Y-125457142D01*
G04 #@! TO.C,R10*
X60852380Y-132542857D02*
X60376190Y-132876190D01*
X60852380Y-133114285D02*
X59852380Y-133114285D01*
X59852380Y-132733333D01*
X59900000Y-132638095D01*
X59947619Y-132590476D01*
X60042857Y-132542857D01*
X60185714Y-132542857D01*
X60280952Y-132590476D01*
X60328571Y-132638095D01*
X60376190Y-132733333D01*
X60376190Y-133114285D01*
X60852380Y-131590476D02*
X60852380Y-132161904D01*
X60852380Y-131876190D02*
X59852380Y-131876190D01*
X59995238Y-131971428D01*
X60090476Y-132066666D01*
X60138095Y-132161904D01*
X59852380Y-130971428D02*
X59852380Y-130876190D01*
X59900000Y-130780952D01*
X59947619Y-130733333D01*
X60042857Y-130685714D01*
X60233333Y-130638095D01*
X60471428Y-130638095D01*
X60661904Y-130685714D01*
X60757142Y-130733333D01*
X60804761Y-130780952D01*
X60852380Y-130876190D01*
X60852380Y-130971428D01*
X60804761Y-131066666D01*
X60757142Y-131114285D01*
X60661904Y-131161904D01*
X60471428Y-131209523D01*
X60233333Y-131209523D01*
X60042857Y-131161904D01*
X59947619Y-131114285D01*
X59900000Y-131066666D01*
X59852380Y-130971428D01*
G04 #@! TO.C,SW2*
X123566666Y-154654761D02*
X123709523Y-154702380D01*
X123947619Y-154702380D01*
X124042857Y-154654761D01*
X124090476Y-154607142D01*
X124138095Y-154511904D01*
X124138095Y-154416666D01*
X124090476Y-154321428D01*
X124042857Y-154273809D01*
X123947619Y-154226190D01*
X123757142Y-154178571D01*
X123661904Y-154130952D01*
X123614285Y-154083333D01*
X123566666Y-153988095D01*
X123566666Y-153892857D01*
X123614285Y-153797619D01*
X123661904Y-153750000D01*
X123757142Y-153702380D01*
X123995238Y-153702380D01*
X124138095Y-153750000D01*
X124471428Y-153702380D02*
X124709523Y-154702380D01*
X124900000Y-153988095D01*
X125090476Y-154702380D01*
X125328571Y-153702380D01*
X125661904Y-153797619D02*
X125709523Y-153750000D01*
X125804761Y-153702380D01*
X126042857Y-153702380D01*
X126138095Y-153750000D01*
X126185714Y-153797619D01*
X126233333Y-153892857D01*
X126233333Y-153988095D01*
X126185714Y-154130952D01*
X125614285Y-154702380D01*
X126233333Y-154702380D01*
G04 #@! TO.C,SW1*
X115566666Y-154654761D02*
X115709523Y-154702380D01*
X115947619Y-154702380D01*
X116042857Y-154654761D01*
X116090476Y-154607142D01*
X116138095Y-154511904D01*
X116138095Y-154416666D01*
X116090476Y-154321428D01*
X116042857Y-154273809D01*
X115947619Y-154226190D01*
X115757142Y-154178571D01*
X115661904Y-154130952D01*
X115614285Y-154083333D01*
X115566666Y-153988095D01*
X115566666Y-153892857D01*
X115614285Y-153797619D01*
X115661904Y-153750000D01*
X115757142Y-153702380D01*
X115995238Y-153702380D01*
X116138095Y-153750000D01*
X116471428Y-153702380D02*
X116709523Y-154702380D01*
X116900000Y-153988095D01*
X117090476Y-154702380D01*
X117328571Y-153702380D01*
X118233333Y-154702380D02*
X117661904Y-154702380D01*
X117947619Y-154702380D02*
X117947619Y-153702380D01*
X117852380Y-153845238D01*
X117757142Y-153940476D01*
X117661904Y-153988095D01*
G04 #@! TO.C,C1*
X37457142Y-132266666D02*
X37504761Y-132314285D01*
X37552380Y-132457142D01*
X37552380Y-132552380D01*
X37504761Y-132695238D01*
X37409523Y-132790476D01*
X37314285Y-132838095D01*
X37123809Y-132885714D01*
X36980952Y-132885714D01*
X36790476Y-132838095D01*
X36695238Y-132790476D01*
X36600000Y-132695238D01*
X36552380Y-132552380D01*
X36552380Y-132457142D01*
X36600000Y-132314285D01*
X36647619Y-132266666D01*
X37552380Y-131314285D02*
X37552380Y-131885714D01*
X37552380Y-131600000D02*
X36552380Y-131600000D01*
X36695238Y-131695238D01*
X36790476Y-131790476D01*
X36838095Y-131885714D01*
G04 #@! TO.C,C2*
X45033333Y-125457142D02*
X44985714Y-125504761D01*
X44842857Y-125552380D01*
X44747619Y-125552380D01*
X44604761Y-125504761D01*
X44509523Y-125409523D01*
X44461904Y-125314285D01*
X44414285Y-125123809D01*
X44414285Y-124980952D01*
X44461904Y-124790476D01*
X44509523Y-124695238D01*
X44604761Y-124600000D01*
X44747619Y-124552380D01*
X44842857Y-124552380D01*
X44985714Y-124600000D01*
X45033333Y-124647619D01*
X45414285Y-124647619D02*
X45461904Y-124600000D01*
X45557142Y-124552380D01*
X45795238Y-124552380D01*
X45890476Y-124600000D01*
X45938095Y-124647619D01*
X45985714Y-124742857D01*
X45985714Y-124838095D01*
X45938095Y-124980952D01*
X45366666Y-125552380D01*
X45985714Y-125552380D01*
G04 #@! TO.C,U2*
X42538095Y-130252380D02*
X42538095Y-131061904D01*
X42585714Y-131157142D01*
X42633333Y-131204761D01*
X42728571Y-131252380D01*
X42919047Y-131252380D01*
X43014285Y-131204761D01*
X43061904Y-131157142D01*
X43109523Y-131061904D01*
X43109523Y-130252380D01*
X43538095Y-130347619D02*
X43585714Y-130300000D01*
X43680952Y-130252380D01*
X43919047Y-130252380D01*
X44014285Y-130300000D01*
X44061904Y-130347619D01*
X44109523Y-130442857D01*
X44109523Y-130538095D01*
X44061904Y-130680952D01*
X43490476Y-131252380D01*
X44109523Y-131252380D01*
G04 #@! TO.C,U3*
X114666666Y-142716666D02*
X114666666Y-143283333D01*
X114700000Y-143350000D01*
X114733333Y-143383333D01*
X114800000Y-143416666D01*
X114933333Y-143416666D01*
X115000000Y-143383333D01*
X115033333Y-143350000D01*
X115066666Y-143283333D01*
X115066666Y-142716666D01*
X115333333Y-142716666D02*
X115766666Y-142716666D01*
X115533333Y-142983333D01*
X115633333Y-142983333D01*
X115700000Y-143016666D01*
X115733333Y-143050000D01*
X115766666Y-143116666D01*
X115766666Y-143283333D01*
X115733333Y-143350000D01*
X115700000Y-143383333D01*
X115633333Y-143416666D01*
X115433333Y-143416666D01*
X115366666Y-143383333D01*
X115333333Y-143350000D01*
G04 #@! TO.C,R3*
X53752380Y-132056666D02*
X53276190Y-132390000D01*
X53752380Y-132628095D02*
X52752380Y-132628095D01*
X52752380Y-132247142D01*
X52800000Y-132151904D01*
X52847619Y-132104285D01*
X52942857Y-132056666D01*
X53085714Y-132056666D01*
X53180952Y-132104285D01*
X53228571Y-132151904D01*
X53276190Y-132247142D01*
X53276190Y-132628095D01*
X52752380Y-131723333D02*
X52752380Y-131104285D01*
X53133333Y-131437619D01*
X53133333Y-131294761D01*
X53180952Y-131199523D01*
X53228571Y-131151904D01*
X53323809Y-131104285D01*
X53561904Y-131104285D01*
X53657142Y-131151904D01*
X53704761Y-131199523D01*
X53752380Y-131294761D01*
X53752380Y-131580476D01*
X53704761Y-131675714D01*
X53657142Y-131723333D01*
G04 #@! TO.C,R9*
X108552380Y-132056666D02*
X108076190Y-132390000D01*
X108552380Y-132628095D02*
X107552380Y-132628095D01*
X107552380Y-132247142D01*
X107600000Y-132151904D01*
X107647619Y-132104285D01*
X107742857Y-132056666D01*
X107885714Y-132056666D01*
X107980952Y-132104285D01*
X108028571Y-132151904D01*
X108076190Y-132247142D01*
X108076190Y-132628095D01*
X108552380Y-131580476D02*
X108552380Y-131390000D01*
X108504761Y-131294761D01*
X108457142Y-131247142D01*
X108314285Y-131151904D01*
X108123809Y-131104285D01*
X107742857Y-131104285D01*
X107647619Y-131151904D01*
X107600000Y-131199523D01*
X107552380Y-131294761D01*
X107552380Y-131485238D01*
X107600000Y-131580476D01*
X107647619Y-131628095D01*
X107742857Y-131675714D01*
X107980952Y-131675714D01*
X108076190Y-131628095D01*
X108123809Y-131580476D01*
X108171428Y-131485238D01*
X108171428Y-131294761D01*
X108123809Y-131199523D01*
X108076190Y-131151904D01*
X107980952Y-131104285D01*
G04 #@! TO.C,R8*
X101452380Y-132066666D02*
X100976190Y-132400000D01*
X101452380Y-132638095D02*
X100452380Y-132638095D01*
X100452380Y-132257142D01*
X100500000Y-132161904D01*
X100547619Y-132114285D01*
X100642857Y-132066666D01*
X100785714Y-132066666D01*
X100880952Y-132114285D01*
X100928571Y-132161904D01*
X100976190Y-132257142D01*
X100976190Y-132638095D01*
X100880952Y-131495238D02*
X100833333Y-131590476D01*
X100785714Y-131638095D01*
X100690476Y-131685714D01*
X100642857Y-131685714D01*
X100547619Y-131638095D01*
X100500000Y-131590476D01*
X100452380Y-131495238D01*
X100452380Y-131304761D01*
X100500000Y-131209523D01*
X100547619Y-131161904D01*
X100642857Y-131114285D01*
X100690476Y-131114285D01*
X100785714Y-131161904D01*
X100833333Y-131209523D01*
X100880952Y-131304761D01*
X100880952Y-131495238D01*
X100928571Y-131590476D01*
X100976190Y-131638095D01*
X101071428Y-131685714D01*
X101261904Y-131685714D01*
X101357142Y-131638095D01*
X101404761Y-131590476D01*
X101452380Y-131495238D01*
X101452380Y-131304761D01*
X101404761Y-131209523D01*
X101357142Y-131161904D01*
X101261904Y-131114285D01*
X101071428Y-131114285D01*
X100976190Y-131161904D01*
X100928571Y-131209523D01*
X100880952Y-131304761D01*
G04 #@! TO.C,R7*
X105052380Y-132056666D02*
X104576190Y-132390000D01*
X105052380Y-132628095D02*
X104052380Y-132628095D01*
X104052380Y-132247142D01*
X104100000Y-132151904D01*
X104147619Y-132104285D01*
X104242857Y-132056666D01*
X104385714Y-132056666D01*
X104480952Y-132104285D01*
X104528571Y-132151904D01*
X104576190Y-132247142D01*
X104576190Y-132628095D01*
X104052380Y-131723333D02*
X104052380Y-131056666D01*
X105052380Y-131485238D01*
G04 #@! TO.C,R1*
X57352380Y-132066666D02*
X56876190Y-132400000D01*
X57352380Y-132638095D02*
X56352380Y-132638095D01*
X56352380Y-132257142D01*
X56400000Y-132161904D01*
X56447619Y-132114285D01*
X56542857Y-132066666D01*
X56685714Y-132066666D01*
X56780952Y-132114285D01*
X56828571Y-132161904D01*
X56876190Y-132257142D01*
X56876190Y-132638095D01*
X57352380Y-131114285D02*
X57352380Y-131685714D01*
X57352380Y-131400000D02*
X56352380Y-131400000D01*
X56495238Y-131495238D01*
X56590476Y-131590476D01*
X56638095Y-131685714D01*
G04 #@! TO.C,R4*
X64352380Y-132056666D02*
X63876190Y-132390000D01*
X64352380Y-132628095D02*
X63352380Y-132628095D01*
X63352380Y-132247142D01*
X63400000Y-132151904D01*
X63447619Y-132104285D01*
X63542857Y-132056666D01*
X63685714Y-132056666D01*
X63780952Y-132104285D01*
X63828571Y-132151904D01*
X63876190Y-132247142D01*
X63876190Y-132628095D01*
X63685714Y-131199523D02*
X64352380Y-131199523D01*
X63304761Y-131437619D02*
X64019047Y-131675714D01*
X64019047Y-131056666D01*
G04 #@! TO.C,R5*
X94452380Y-132056666D02*
X93976190Y-132390000D01*
X94452380Y-132628095D02*
X93452380Y-132628095D01*
X93452380Y-132247142D01*
X93500000Y-132151904D01*
X93547619Y-132104285D01*
X93642857Y-132056666D01*
X93785714Y-132056666D01*
X93880952Y-132104285D01*
X93928571Y-132151904D01*
X93976190Y-132247142D01*
X93976190Y-132628095D01*
X93452380Y-131151904D02*
X93452380Y-131628095D01*
X93928571Y-131675714D01*
X93880952Y-131628095D01*
X93833333Y-131532857D01*
X93833333Y-131294761D01*
X93880952Y-131199523D01*
X93928571Y-131151904D01*
X94023809Y-131104285D01*
X94261904Y-131104285D01*
X94357142Y-131151904D01*
X94404761Y-131199523D01*
X94452380Y-131294761D01*
X94452380Y-131532857D01*
X94404761Y-131628095D01*
X94357142Y-131675714D01*
G04 #@! TO.C,R6*
X97952380Y-132056666D02*
X97476190Y-132390000D01*
X97952380Y-132628095D02*
X96952380Y-132628095D01*
X96952380Y-132247142D01*
X97000000Y-132151904D01*
X97047619Y-132104285D01*
X97142857Y-132056666D01*
X97285714Y-132056666D01*
X97380952Y-132104285D01*
X97428571Y-132151904D01*
X97476190Y-132247142D01*
X97476190Y-132628095D01*
X96952380Y-131199523D02*
X96952380Y-131390000D01*
X97000000Y-131485238D01*
X97047619Y-131532857D01*
X97190476Y-131628095D01*
X97380952Y-131675714D01*
X97761904Y-131675714D01*
X97857142Y-131628095D01*
X97904761Y-131580476D01*
X97952380Y-131485238D01*
X97952380Y-131294761D01*
X97904761Y-131199523D01*
X97857142Y-131151904D01*
X97761904Y-131104285D01*
X97523809Y-131104285D01*
X97428571Y-131151904D01*
X97380952Y-131199523D01*
X97333333Y-131294761D01*
X97333333Y-131485238D01*
X97380952Y-131580476D01*
X97428571Y-131628095D01*
X97523809Y-131675714D01*
G04 #@! TO.C,R2*
X50252380Y-132056666D02*
X49776190Y-132390000D01*
X50252380Y-132628095D02*
X49252380Y-132628095D01*
X49252380Y-132247142D01*
X49300000Y-132151904D01*
X49347619Y-132104285D01*
X49442857Y-132056666D01*
X49585714Y-132056666D01*
X49680952Y-132104285D01*
X49728571Y-132151904D01*
X49776190Y-132247142D01*
X49776190Y-132628095D01*
X49347619Y-131675714D02*
X49300000Y-131628095D01*
X49252380Y-131532857D01*
X49252380Y-131294761D01*
X49300000Y-131199523D01*
X49347619Y-131151904D01*
X49442857Y-131104285D01*
X49538095Y-131104285D01*
X49680952Y-131151904D01*
X50252380Y-131723333D01*
X50252380Y-131104285D01*
G04 #@! TO.C,J3*
D15*
X123092000Y-128765428D02*
X123092000Y-129854000D01*
X123019428Y-130071714D01*
X122874285Y-130216857D01*
X122656571Y-130289428D01*
X122511428Y-130289428D01*
X123672571Y-128765428D02*
X124616000Y-128765428D01*
X124108000Y-129346000D01*
X124325714Y-129346000D01*
X124470857Y-129418571D01*
X124543428Y-129491142D01*
X124616000Y-129636285D01*
X124616000Y-129999142D01*
X124543428Y-130144285D01*
X124470857Y-130216857D01*
X124325714Y-130289428D01*
X123890285Y-130289428D01*
X123745142Y-130216857D01*
X123672571Y-130144285D01*
D18*
X119854761Y-132488095D02*
X119854761Y-131188095D01*
X120288095Y-132116666D01*
X120721428Y-131188095D01*
X120721428Y-132488095D01*
X121340476Y-132488095D02*
X121340476Y-131188095D01*
X121959523Y-132488095D02*
X121959523Y-131188095D01*
X122269047Y-131188095D01*
X122454761Y-131250000D01*
X122578571Y-131373809D01*
X122640476Y-131497619D01*
X122702380Y-131745238D01*
X122702380Y-131930952D01*
X122640476Y-132178571D01*
X122578571Y-132302380D01*
X122454761Y-132426190D01*
X122269047Y-132488095D01*
X121959523Y-132488095D01*
X123259523Y-132488095D02*
X123259523Y-131188095D01*
X123569047Y-132611904D02*
X124559523Y-132611904D01*
X125054761Y-132488095D02*
X124930952Y-132426190D01*
X124869047Y-132364285D01*
X124807142Y-132240476D01*
X124807142Y-131869047D01*
X124869047Y-131745238D01*
X124930952Y-131683333D01*
X125054761Y-131621428D01*
X125240476Y-131621428D01*
X125364285Y-131683333D01*
X125426190Y-131745238D01*
X125488095Y-131869047D01*
X125488095Y-132240476D01*
X125426190Y-132364285D01*
X125364285Y-132426190D01*
X125240476Y-132488095D01*
X125054761Y-132488095D01*
X126602380Y-131621428D02*
X126602380Y-132488095D01*
X126045238Y-131621428D02*
X126045238Y-132302380D01*
X126107142Y-132426190D01*
X126230952Y-132488095D01*
X126416666Y-132488095D01*
X126540476Y-132426190D01*
X126602380Y-132364285D01*
X127035714Y-131621428D02*
X127530952Y-131621428D01*
X127221428Y-131188095D02*
X127221428Y-132302380D01*
X127283333Y-132426190D01*
X127407142Y-132488095D01*
X127530952Y-132488095D01*
G04 #@! TO.C,RV6*
D12*
X36306464Y-150179087D02*
X35806084Y-149464258D01*
X35448670Y-150179087D02*
X35448670Y-148677947D01*
X36020532Y-148677947D01*
X36163498Y-148749430D01*
X36234981Y-148820912D01*
X36306464Y-148963878D01*
X36306464Y-149178327D01*
X36234981Y-149321292D01*
X36163498Y-149392775D01*
X36020532Y-149464258D01*
X35448670Y-149464258D01*
X36735361Y-148677947D02*
X37235741Y-150179087D01*
X37736121Y-148677947D01*
X38879847Y-148677947D02*
X38593915Y-148677947D01*
X38450950Y-148749430D01*
X38379467Y-148820912D01*
X38236501Y-149035361D01*
X38165018Y-149321292D01*
X38165018Y-149893155D01*
X38236501Y-150036121D01*
X38307984Y-150107604D01*
X38450950Y-150179087D01*
X38736881Y-150179087D01*
X38879847Y-150107604D01*
X38951330Y-150036121D01*
X39022812Y-149893155D01*
X39022812Y-149535741D01*
X38951330Y-149392775D01*
X38879847Y-149321292D01*
X38736881Y-149249810D01*
X38450950Y-149249810D01*
X38307984Y-149321292D01*
X38236501Y-149392775D01*
X38165018Y-149535741D01*
X36306464Y-154979427D02*
X35448670Y-154979427D01*
X35877567Y-154979427D02*
X35877567Y-153478287D01*
X35734601Y-153692735D01*
X35591635Y-153835701D01*
X35448670Y-153907184D01*
X37235741Y-153478287D02*
X37378707Y-153478287D01*
X37521672Y-153549770D01*
X37593155Y-153621252D01*
X37664638Y-153764218D01*
X37736121Y-154050150D01*
X37736121Y-154407564D01*
X37664638Y-154693495D01*
X37593155Y-154836461D01*
X37521672Y-154907944D01*
X37378707Y-154979427D01*
X37235741Y-154979427D01*
X37092775Y-154907944D01*
X37021292Y-154836461D01*
X36949810Y-154693495D01*
X36878327Y-154407564D01*
X36878327Y-154050150D01*
X36949810Y-153764218D01*
X37021292Y-153621252D01*
X37092775Y-153549770D01*
X37235741Y-153478287D01*
X38379467Y-154979427D02*
X38379467Y-153478287D01*
X38522432Y-154407564D02*
X38951330Y-154979427D01*
X38951330Y-153978667D02*
X38379467Y-154550530D01*
G04 #@! TO.C,RV1*
X50406464Y-150179087D02*
X49906084Y-149464258D01*
X49548670Y-150179087D02*
X49548670Y-148677947D01*
X50120532Y-148677947D01*
X50263498Y-148749430D01*
X50334981Y-148820912D01*
X50406464Y-148963878D01*
X50406464Y-149178327D01*
X50334981Y-149321292D01*
X50263498Y-149392775D01*
X50120532Y-149464258D01*
X49548670Y-149464258D01*
X50835361Y-148677947D02*
X51335741Y-150179087D01*
X51836121Y-148677947D01*
X53122812Y-150179087D02*
X52265018Y-150179087D01*
X52693915Y-150179087D02*
X52693915Y-148677947D01*
X52550950Y-148892395D01*
X52407984Y-149035361D01*
X52265018Y-149106844D01*
X50146464Y-154979427D02*
X49288670Y-154979427D01*
X49717567Y-154979427D02*
X49717567Y-153478287D01*
X49574601Y-153692735D01*
X49431635Y-153835701D01*
X49288670Y-153907184D01*
X51075741Y-153478287D02*
X51218707Y-153478287D01*
X51361672Y-153549770D01*
X51433155Y-153621252D01*
X51504638Y-153764218D01*
X51576121Y-154050150D01*
X51576121Y-154407564D01*
X51504638Y-154693495D01*
X51433155Y-154836461D01*
X51361672Y-154907944D01*
X51218707Y-154979427D01*
X51075741Y-154979427D01*
X50932775Y-154907944D01*
X50861292Y-154836461D01*
X50789810Y-154693495D01*
X50718327Y-154407564D01*
X50718327Y-154050150D01*
X50789810Y-153764218D01*
X50861292Y-153621252D01*
X50932775Y-153549770D01*
X51075741Y-153478287D01*
X52219467Y-154979427D02*
X52219467Y-153478287D01*
X52362432Y-154407564D02*
X52791330Y-154979427D01*
X52791330Y-153978667D02*
X52219467Y-154550530D01*
G04 #@! TO.C,RV2*
X64106464Y-150179087D02*
X63606084Y-149464258D01*
X63248670Y-150179087D02*
X63248670Y-148677947D01*
X63820532Y-148677947D01*
X63963498Y-148749430D01*
X64034981Y-148820912D01*
X64106464Y-148963878D01*
X64106464Y-149178327D01*
X64034981Y-149321292D01*
X63963498Y-149392775D01*
X63820532Y-149464258D01*
X63248670Y-149464258D01*
X64535361Y-148677947D02*
X65035741Y-150179087D01*
X65536121Y-148677947D01*
X65965018Y-148820912D02*
X66036501Y-148749430D01*
X66179467Y-148677947D01*
X66536881Y-148677947D01*
X66679847Y-148749430D01*
X66751330Y-148820912D01*
X66822812Y-148963878D01*
X66822812Y-149106844D01*
X66751330Y-149321292D01*
X65893535Y-150179087D01*
X66822812Y-150179087D01*
X63986464Y-154979427D02*
X63128670Y-154979427D01*
X63557567Y-154979427D02*
X63557567Y-153478287D01*
X63414601Y-153692735D01*
X63271635Y-153835701D01*
X63128670Y-153907184D01*
X64915741Y-153478287D02*
X65058707Y-153478287D01*
X65201672Y-153549770D01*
X65273155Y-153621252D01*
X65344638Y-153764218D01*
X65416121Y-154050150D01*
X65416121Y-154407564D01*
X65344638Y-154693495D01*
X65273155Y-154836461D01*
X65201672Y-154907944D01*
X65058707Y-154979427D01*
X64915741Y-154979427D01*
X64772775Y-154907944D01*
X64701292Y-154836461D01*
X64629810Y-154693495D01*
X64558327Y-154407564D01*
X64558327Y-154050150D01*
X64629810Y-153764218D01*
X64701292Y-153621252D01*
X64772775Y-153549770D01*
X64915741Y-153478287D01*
X66059467Y-154979427D02*
X66059467Y-153478287D01*
X66202432Y-154407564D02*
X66631330Y-154979427D01*
X66631330Y-153978667D02*
X66059467Y-154550530D01*
G04 #@! TO.C,RV3*
X77706464Y-150279087D02*
X77206084Y-149564258D01*
X76848670Y-150279087D02*
X76848670Y-148777947D01*
X77420532Y-148777947D01*
X77563498Y-148849430D01*
X77634981Y-148920912D01*
X77706464Y-149063878D01*
X77706464Y-149278327D01*
X77634981Y-149421292D01*
X77563498Y-149492775D01*
X77420532Y-149564258D01*
X76848670Y-149564258D01*
X78135361Y-148777947D02*
X78635741Y-150279087D01*
X79136121Y-148777947D01*
X79493535Y-148777947D02*
X80422812Y-148777947D01*
X79922432Y-149349810D01*
X80136881Y-149349810D01*
X80279847Y-149421292D01*
X80351330Y-149492775D01*
X80422812Y-149635741D01*
X80422812Y-149993155D01*
X80351330Y-150136121D01*
X80279847Y-150207604D01*
X80136881Y-150279087D01*
X79707984Y-150279087D01*
X79565018Y-150207604D01*
X79493535Y-150136121D01*
X77826464Y-154979427D02*
X76968670Y-154979427D01*
X77397567Y-154979427D02*
X77397567Y-153478287D01*
X77254601Y-153692735D01*
X77111635Y-153835701D01*
X76968670Y-153907184D01*
X78755741Y-153478287D02*
X78898707Y-153478287D01*
X79041672Y-153549770D01*
X79113155Y-153621252D01*
X79184638Y-153764218D01*
X79256121Y-154050150D01*
X79256121Y-154407564D01*
X79184638Y-154693495D01*
X79113155Y-154836461D01*
X79041672Y-154907944D01*
X78898707Y-154979427D01*
X78755741Y-154979427D01*
X78612775Y-154907944D01*
X78541292Y-154836461D01*
X78469810Y-154693495D01*
X78398327Y-154407564D01*
X78398327Y-154050150D01*
X78469810Y-153764218D01*
X78541292Y-153621252D01*
X78612775Y-153549770D01*
X78755741Y-153478287D01*
X79899467Y-154979427D02*
X79899467Y-153478287D01*
X80042432Y-154407564D02*
X80471330Y-154979427D01*
X80471330Y-153978667D02*
X79899467Y-154550530D01*
G04 #@! TO.C,RV4*
X91506464Y-150279087D02*
X91006084Y-149564258D01*
X90648670Y-150279087D02*
X90648670Y-148777947D01*
X91220532Y-148777947D01*
X91363498Y-148849430D01*
X91434981Y-148920912D01*
X91506464Y-149063878D01*
X91506464Y-149278327D01*
X91434981Y-149421292D01*
X91363498Y-149492775D01*
X91220532Y-149564258D01*
X90648670Y-149564258D01*
X91935361Y-148777947D02*
X92435741Y-150279087D01*
X92936121Y-148777947D01*
X94079847Y-149278327D02*
X94079847Y-150279087D01*
X93722432Y-148706464D02*
X93365018Y-149778707D01*
X94294295Y-149778707D01*
X91666464Y-154979427D02*
X90808670Y-154979427D01*
X91237567Y-154979427D02*
X91237567Y-153478287D01*
X91094601Y-153692735D01*
X90951635Y-153835701D01*
X90808670Y-153907184D01*
X92595741Y-153478287D02*
X92738707Y-153478287D01*
X92881672Y-153549770D01*
X92953155Y-153621252D01*
X93024638Y-153764218D01*
X93096121Y-154050150D01*
X93096121Y-154407564D01*
X93024638Y-154693495D01*
X92953155Y-154836461D01*
X92881672Y-154907944D01*
X92738707Y-154979427D01*
X92595741Y-154979427D01*
X92452775Y-154907944D01*
X92381292Y-154836461D01*
X92309810Y-154693495D01*
X92238327Y-154407564D01*
X92238327Y-154050150D01*
X92309810Y-153764218D01*
X92381292Y-153621252D01*
X92452775Y-153549770D01*
X92595741Y-153478287D01*
X93739467Y-154979427D02*
X93739467Y-153478287D01*
X93882432Y-154407564D02*
X94311330Y-154979427D01*
X94311330Y-153978667D02*
X93739467Y-154550530D01*
G04 #@! TD*
M02*
